<?xml version="1.0" encoding="UTF-8" standalone="no"?>
<!DOCTYPE svg PUBLIC "-//W3C//DTD SVG 1.1//EN"
 "http://www.w3.org/Graphics/SVG/1.1/DTD/svg11.dtd">
<!-- Generated by graphviz version 2.36.0 (20140111.2315)
 -->
<!-- Title: repo.programs.pythonpackages.pr.SPDataSet.SPDataSet.viewSensors Pages: 1 -->
<!--zoomable 553 -->
<svg id="main" version="1.1" xmlns="http://www.w3.org/2000/svg" xmlns:xlink="http://www.w3.org/1999/xlink" xml:space="preserve" onload="init(evt)">
<style type="text/css"><![CDATA[
.edge:hover path { stroke: red; }
.edge:hover polygon { stroke: red; fill: red; }
]]></style>
<script type="text/javascript"><![CDATA[
var edges = document.getElementsByTagName('g');
if (edges && edges.length) {
  for (var i=0;i<edges.length;i++) {
    if (edges[i].id.substr(0,4)=='edge') {
      edges[i].setAttribute('class','edge');
    }
  }
}
]]></script>
        <defs>
                <circle id="rim" cx="0" cy="0" r="7"/>
                <circle id="rim2" cx="0" cy="0" r="3.5"/>
                <g id="zoomPlus">
                        <use xlink:href="#rim" fill="#404040">
                                <set attributeName="fill" to="#808080" begin="zoomplus.mouseover" end="zoomplus.mouseout"/>
                        </use>
                        <path d="M-4,0h8M0,-4v8" fill="none" stroke="white" stroke-width="1.5" pointer-events="none"/>
                </g>
                <g id="zoomMin">
                        <use xlink:href="#rim" fill="#404040">
                                <set attributeName="fill" to="#808080" begin="zoomminus.mouseover" end="zoomminus.mouseout"/>
                        </use>
                        <path d="M-4,0h8" fill="none" stroke="white" stroke-width="1.5" pointer-events="none"/>
                </g>
                <g id="dirArrow">
                        <path fill="none" stroke="white" stroke-width="1.5" d="M0,-3.0v7 M-2.5,-0.5L0,-3.0L2.5,-0.5"/>
                </g>
               <g id="resetDef">
                       <use xlink:href="#rim2" fill="#404040">
                               <set attributeName="fill" to="#808080" begin="reset.mouseover" end="reset.mouseout"/>
                       </use>
               </g>
        </defs>

<script type="text/javascript">
var viewWidth = 2348;
var viewHeight = 553;
var sectionId = 'dynsection-49';
</script>
<script xlink:href="svgpan.js"/>
<svg id="graph" class="graph">
<g id="viewport">
<title>repo.programs.pythonpackages.pr.SPDataSet.SPDataSet.viewSensors</title>
<polygon fill="white" stroke="none" points="-4,4 -4,-549 2344,-549 2344,4 -4,4"/>
<!-- Node1 -->
<g id="node1" class="node"><title>Node1</title>
<polygon fill="#bfbfbf" stroke="black" points="0,-221 0,-251 178,-251 178,-221 0,-221"/>
<text text-anchor="start" x="8" y="-239" font-family="Helvetica,sans-Serif" font-size="10.00">repo.programs.pythonpackages.pr.</text>
<text text-anchor="middle" x="89" y="-228" font-family="Helvetica,sans-Serif" font-size="10.00">SPDataSet.SPDataSet.viewSensors</text>
</g>
<!-- Node2 -->
<g id="node2" class="node"><title>Node2</title>
<g id="a_node2"><a xlink:href="classrepo_1_1programs_1_1pythonpackages_1_1pr_1_1SPDataSet_1_1SPDataSet.html#ac55c6ccc03634d3f670f52e89188779c" target="_top" xlink:title="repo.programs.pythonpackages.pr.\lSPDataSet.SPDataSet.viewSeq">
<polygon fill="white" stroke="black" points="214.5,-221 214.5,-251 381.5,-251 381.5,-221 214.5,-221"/>
<text text-anchor="start" x="222.5" y="-239" font-family="Helvetica,sans-Serif" font-size="10.00">repo.programs.pythonpackages.pr.</text>
<text text-anchor="middle" x="298" y="-228" font-family="Helvetica,sans-Serif" font-size="10.00">SPDataSet.SPDataSet.viewSeq</text>
</a>
</g>
</g>
<!-- Node1&#45;&gt;Node2 -->
<g id="edge1" class="edge"><title>Node1&#45;&gt;Node2</title>
<path fill="none" stroke="midnightblue" d="M178.087,-236C186.708,-236 195.475,-236 204.141,-236"/>
<polygon fill="midnightblue" stroke="midnightblue" points="204.253,-239.5 214.253,-236 204.253,-232.5 204.253,-239.5"/>
</g>
<!-- Node3 -->
<g id="node3" class="node"><title>Node3</title>
<g id="a_node3"><a xlink:href="classrepo_1_1programs_1_1pythonpackages_1_1pr_1_1SPDataSet_1_1SPDataSet.html#accbfa0185d4e416038e688fc9b55575b" target="_top" xlink:title="repo.programs.pythonpackages.pr.\lSPDataSet.SPDataSet.sequenceAmp">
<polygon fill="white" stroke="black" points="418,-334 418,-364 602,-364 602,-334 418,-334"/>
<text text-anchor="start" x="426" y="-352" font-family="Helvetica,sans-Serif" font-size="10.00">repo.programs.pythonpackages.pr.</text>
<text text-anchor="middle" x="510" y="-341" font-family="Helvetica,sans-Serif" font-size="10.00">SPDataSet.SPDataSet.sequenceAmp</text>
</a>
</g>
</g>
<!-- Node2&#45;&gt;Node3 -->
<g id="edge2" class="edge"><title>Node2&#45;&gt;Node3</title>
<path fill="none" stroke="midnightblue" d="M326.886,-251.006C364.228,-271.099 430.568,-306.796 472.039,-329.111"/>
<polygon fill="midnightblue" stroke="midnightblue" points="470.534,-332.276 480.998,-333.932 473.851,-326.112 470.534,-332.276"/>
</g>
<!-- Node15 -->
<g id="node15" class="node"><title>Node15</title>
<g id="a_node15"><a xlink:href="classrepo_1_1programs_1_1pythonpackages_1_1pr_1_1SPDataSet_1_1SPDataSet.html#a6f2c3de2aa708d686f5835f10e2d096d" target="_top" xlink:title="repo.programs.pythonpackages.pr.\lSPDataSet.SPDataSet.pointAmp">
<polygon fill="white" stroke="black" points="872.5,-290 872.5,-320 1039.5,-320 1039.5,-290 872.5,-290"/>
<text text-anchor="start" x="880.5" y="-308" font-family="Helvetica,sans-Serif" font-size="10.00">repo.programs.pythonpackages.pr.</text>
<text text-anchor="middle" x="956" y="-297" font-family="Helvetica,sans-Serif" font-size="10.00">SPDataSet.SPDataSet.pointAmp</text>
</a>
</g>
</g>
<!-- Node2&#45;&gt;Node15 -->
<g id="edge49" class="edge"><title>Node2&#45;&gt;Node15</title>
<path fill="none" stroke="midnightblue" d="M381.75,-244.704C504.492,-257.614 734.066,-281.762 862.306,-295.25"/>
<polygon fill="midnightblue" stroke="midnightblue" points="862.186,-298.757 872.497,-296.322 862.918,-291.795 862.186,-298.757"/>
</g>
<!-- Node3&#45;&gt;Node3 -->
<g id="edge48" class="edge"><title>Node3&#45;&gt;Node3</title>
<path fill="none" stroke="midnightblue" d="M472.734,-364.275C464.453,-373.406 476.875,-382 510,-382 529.668,-382 542.037,-378.97 547.108,-374.598"/>
<polygon fill="midnightblue" stroke="midnightblue" points="550.612,-374.328 547.266,-364.275 543.613,-374.221 550.612,-374.328"/>
</g>
<!-- Node4 -->
<g id="node4" class="node"><title>Node4</title>
<g id="a_node4"><a xlink:href="classrepo_1_1programs_1_1pythonpackages_1_1pr_1_1SPDataSet_1_1SPDataSet.html#af17c964467367b46a56c14a8c87e84a2" target="_top" xlink:title="Property doc string!! ">
<polygon fill="white" stroke="black" points="1737.5,-376 1737.5,-406 1904.5,-406 1904.5,-376 1737.5,-376"/>
<text text-anchor="start" x="1745.5" y="-394" font-family="Helvetica,sans-Serif" font-size="10.00">repo.programs.pythonpackages.pr.</text>
<text text-anchor="middle" x="1821" y="-383" font-family="Helvetica,sans-Serif" font-size="10.00">SPDataSet.SPDataSet.set_info</text>
</a>
</g>
</g>
<!-- Node3&#45;&gt;Node4 -->
<g id="edge3" class="edge"><title>Node3&#45;&gt;Node4</title>
<path fill="none" stroke="midnightblue" d="M522.468,-364.301C542.769,-390.248 587.667,-442.714 638,-470 765.279,-538.999 810.222,-545 955,-545 955,-545 955,-545 1388,-545 1545.36,-545 1717.21,-453.223 1787.4,-411.369"/>
<polygon fill="midnightblue" stroke="midnightblue" points="1789.48,-414.207 1796.23,-406.047 1785.86,-408.212 1789.48,-414.207"/>
</g>
<!-- Node5 -->
<g id="node5" class="node"><title>Node5</title>
<g id="a_node5"><a xlink:href="classrepo_1_1programs_1_1pythonpackages_1_1pr_1_1SPDataSet_1_1SPDataSet.html#a2b09966d9ad35b39ea13988a7c361df6" target="_top" xlink:title="Assume it&#39;s a continuously rotating sample. ">
<polygon fill="white" stroke="black" points="862,-454 862,-484 1050,-484 1050,-454 862,-454"/>
<text text-anchor="start" x="870" y="-472" font-family="Helvetica,sans-Serif" font-size="10.00">repo.programs.pythonpackages.pr.</text>
<text text-anchor="middle" x="956" y="-461" font-family="Helvetica,sans-Serif" font-size="10.00">SPDataSet.SPDataSet.seqAmpFitSplit</text>
</a>
</g>
</g>
<!-- Node3&#45;&gt;Node5 -->
<g id="edge4" class="edge"><title>Node3&#45;&gt;Node5</title>
<path fill="none" stroke="midnightblue" d="M526.626,-364.312C549.121,-385.288 592.904,-422.26 638,-439 706.256,-464.337 788.184,-471.544 851.65,-472.57"/>
<polygon fill="midnightblue" stroke="midnightblue" points="851.634,-476.07 861.673,-472.683 851.713,-469.07 851.634,-476.07"/>
</g>
<!-- Node6 -->
<g id="node6" class="node"><title>Node6</title>
<g id="a_node6"><a xlink:href="namespacerepo_1_1programs_1_1pythonpackages_1_1pr_1_1SPDataSet.html#a9d0e07e3e1f4360be4f8c59927abe142" target="_top" xlink:title="Helpful for calling work_func(following_func(**remaining_args), **work_args)) work_args are the entri...">
<polygon fill="white" stroke="black" points="1086.5,-410 1086.5,-440 1253.5,-440 1253.5,-410 1086.5,-410"/>
<text text-anchor="start" x="1094.5" y="-428" font-family="Helvetica,sans-Serif" font-size="10.00">repo.programs.pythonpackages.pr.</text>
<text text-anchor="middle" x="1170" y="-417" font-family="Helvetica,sans-Serif" font-size="10.00">SPDataSet.divide_args</text>
</a>
</g>
</g>
<!-- Node3&#45;&gt;Node6 -->
<g id="edge16" class="edge"><title>Node3&#45;&gt;Node6</title>
<path fill="none" stroke="midnightblue" d="M586.769,-364.007C603.606,-367.15 621.386,-370.32 638,-373 737.162,-388.998 762.081,-392.739 862,-403 933.878,-410.382 1015.48,-416.103 1076.47,-419.859"/>
<polygon fill="midnightblue" stroke="midnightblue" points="1076.27,-423.353 1086.46,-420.468 1076.7,-416.366 1076.27,-423.353"/>
</g>
<!-- Node3&#45;&gt;Node15 -->
<g id="edge17" class="edge"><title>Node3&#45;&gt;Node15</title>
<path fill="none" stroke="midnightblue" d="M578.612,-333.94C597.728,-330.16 618.607,-326.478 638,-324 712.987,-314.416 798.587,-309.648 861.919,-307.286"/>
<polygon fill="midnightblue" stroke="midnightblue" points="862.416,-310.771 872.284,-306.914 862.164,-303.775 862.416,-310.771"/>
</g>
<!-- Node24 -->
<g id="node24" class="node"><title>Node24</title>
<g id="a_node24"><a xlink:href="classrepo_1_1programs_1_1pythonpackages_1_1pr_1_1SPDataSet_1_1SPDataSet.html#aee6249fe272c46f07d0f2f32f6c188d2" target="_top" xlink:title="repo.programs.pythonpackages.pr.\lSPDataSet.SPDataSet.apparatusAngles">
<polygon fill="white" stroke="black" points="1290,-150 1290,-180 1484,-180 1484,-150 1290,-150"/>
<text text-anchor="start" x="1298" y="-168" font-family="Helvetica,sans-Serif" font-size="10.00">repo.programs.pythonpackages.pr.</text>
<text text-anchor="middle" x="1387" y="-157" font-family="Helvetica,sans-Serif" font-size="10.00">SPDataSet.SPDataSet.apparatusAngles</text>
</a>
</g>
</g>
<!-- Node3&#45;&gt;Node24 -->
<g id="edge47" class="edge"><title>Node3&#45;&gt;Node24</title>
<path fill="none" stroke="midnightblue" d="M548.184,-333.89C638.467,-298.062 877.202,-208.46 1086,-175 1149.71,-164.79 1221.97,-162.117 1279.61,-162.079"/>
<polygon fill="midnightblue" stroke="midnightblue" points="1279.82,-165.579 1289.82,-162.1 1279.83,-158.579 1279.82,-165.579"/>
</g>
<!-- Node27 -->
<g id="node27" class="node"><title>Node27</title>
<g id="a_node27"><a xlink:href="classrepo_1_1programs_1_1pythonpackages_1_1pr_1_1SPDataSet_1_1SPDataSet.html#a9eac955cac12a62b72d189aa80b82ec6" target="_top" xlink:title="repo.programs.pythonpackages.pr.\lSPDataSet.SPDataSet.filteredCutAmp">
<polygon fill="white" stroke="black" points="638.5,-334 638.5,-364 825.5,-364 825.5,-334 638.5,-334"/>
<text text-anchor="start" x="646.5" y="-352" font-family="Helvetica,sans-Serif" font-size="10.00">repo.programs.pythonpackages.pr.</text>
<text text-anchor="middle" x="732" y="-341" font-family="Helvetica,sans-Serif" font-size="10.00">SPDataSet.SPDataSet.filteredCutAmp</text>
</a>
</g>
</g>
<!-- Node3&#45;&gt;Node27 -->
<g id="edge42" class="edge"><title>Node3&#45;&gt;Node27</title>
<path fill="none" stroke="midnightblue" d="M602.07,-349C610.652,-349 619.392,-349 628.072,-349"/>
<polygon fill="midnightblue" stroke="midnightblue" points="628.223,-352.5 638.223,-349 628.223,-345.5 628.223,-352.5"/>
</g>
<!-- Node5&#45;&gt;Node4 -->
<g id="edge15" class="edge"><title>Node5&#45;&gt;Node4</title>
<path fill="none" stroke="midnightblue" d="M1050.35,-473.046C1062.34,-473.44 1074.46,-473.776 1086,-474 1160.65,-475.446 1179.53,-479.431 1254,-474 1424.49,-461.566 1621.6,-428.33 1732.45,-407.886"/>
<polygon fill="midnightblue" stroke="midnightblue" points="1733.38,-411.273 1742.57,-406.01 1732.1,-404.39 1733.38,-411.273"/>
</g>
<!-- Node5&#45;&gt;Node6 -->
<g id="edge5" class="edge"><title>Node5&#45;&gt;Node6</title>
<path fill="none" stroke="midnightblue" d="M1029.37,-453.981C1047.85,-450.144 1067.87,-445.99 1086.81,-442.059"/>
<polygon fill="midnightblue" stroke="midnightblue" points="1087.52,-445.485 1096.6,-440.026 1086.1,-438.631 1087.52,-445.485"/>
</g>
<!-- Node7 -->
<g id="node7" class="node"><title>Node7</title>
<g id="a_node7"><a xlink:href="classrepo_1_1programs_1_1pythonpackages_1_1pr_1_1SPDataSet_1_1SPDataSet.html#afe54eeb9f41f503dc478557e4ea2c62a" target="_top" xlink:title="repo.programs.pythonpackages.pr.\lSPDataSet.SPDataSet.rawData">
<polygon fill="white" stroke="black" points="1520.5,-284 1520.5,-314 1687.5,-314 1687.5,-284 1520.5,-284"/>
<text text-anchor="start" x="1528.5" y="-302" font-family="Helvetica,sans-Serif" font-size="10.00">repo.programs.pythonpackages.pr.</text>
<text text-anchor="middle" x="1604" y="-291" font-family="Helvetica,sans-Serif" font-size="10.00">SPDataSet.SPDataSet.rawData</text>
</a>
</g>
</g>
<!-- Node5&#45;&gt;Node7 -->
<g id="edge6" class="edge"><title>Node5&#45;&gt;Node7</title>
<path fill="none" stroke="midnightblue" d="M1050.19,-470.747C1109.34,-469.897 1187.06,-465.14 1254,-449 1374.44,-419.962 1506.05,-352.769 1567.58,-319.054"/>
<polygon fill="midnightblue" stroke="midnightblue" points="1569.43,-322.032 1576.49,-314.136 1566.05,-315.904 1569.43,-322.032"/>
</g>
<!-- Node8 -->
<g id="node8" class="node"><title>Node8</title>
<g id="a_node8"><a xlink:href="classrepo_1_1programs_1_1pythonpackages_1_1pr_1_1SPDataSet_1_1SPDataSet.html#aa400ad81219e782fe2e29e852b20bb28" target="_top" xlink:title="repo.programs.pythonpackages.pr.\lSPDataSet.SPDataSet.fastD">
<polygon fill="white" stroke="black" points="1737.5,-229 1737.5,-259 1904.5,-259 1904.5,-229 1737.5,-229"/>
<text text-anchor="start" x="1745.5" y="-247" font-family="Helvetica,sans-Serif" font-size="10.00">repo.programs.pythonpackages.pr.</text>
<text text-anchor="middle" x="1821" y="-236" font-family="Helvetica,sans-Serif" font-size="10.00">SPDataSet.SPDataSet.fastD</text>
</a>
</g>
</g>
<!-- Node7&#45;&gt;Node8 -->
<g id="edge7" class="edge"><title>Node7&#45;&gt;Node8</title>
<path fill="none" stroke="midnightblue" d="M1662.17,-283.985C1681.76,-278.871 1703.83,-273.148 1724,-268 1732.35,-265.87 1741.1,-263.654 1749.79,-261.467"/>
<polygon fill="midnightblue" stroke="midnightblue" points="1750.7,-264.847 1759.55,-259.016 1749,-258.058 1750.7,-264.847"/>
</g>
<!-- Node13 -->
<g id="node13" class="node"><title>Node13</title>
<g id="a_node13"><a xlink:href="classrepo_1_1programs_1_1pythonpackages_1_1pr_1_1SPDataSet_1_1SPDataSet.html#aa0b687b3c937bfb4aa71c4a09cac5eb5" target="_top" xlink:title="Names should be of the form &quot;med:Total Position Sensor 1&quot; etc. ">
<polygon fill="white" stroke="black" points="1724,-327 1724,-357 1918,-357 1918,-327 1724,-327"/>
<text text-anchor="start" x="1732" y="-345" font-family="Helvetica,sans-Serif" font-size="10.00">repo.programs.pythonpackages.pr.</text>
<text text-anchor="middle" x="1821" y="-334" font-family="Helvetica,sans-Serif" font-size="10.00">SPDataSet.SPDataSet.getRawByName</text>
</a>
</g>
</g>
<!-- Node7&#45;&gt;Node13 -->
<g id="edge12" class="edge"><title>Node7&#45;&gt;Node13</title>
<path fill="none" stroke="midnightblue" d="M1687.51,-308.917C1712.78,-313.632 1740.01,-319.261 1763.16,-324.599"/>
<polygon fill="midnightblue" stroke="midnightblue" points="1762.62,-328.067 1773.16,-326.946 1764.22,-321.252 1762.62,-328.067"/>
</g>
<!-- Node14 -->
<g id="node14" class="node"><title>Node14</title>
<g id="a_node14"><a xlink:href="classrepo_1_1programs_1_1pythonpackages_1_1pr_1_1SPDataSet_1_1SPDataSet.html#a33ced34e094ccfd1e3891b92478613e7" target="_top" xlink:title="repo.programs.pythonpackages.pr.\lSPDataSet.SPDataSet.clearRaw">
<polygon fill="white" stroke="black" points="1737.5,-278 1737.5,-308 1904.5,-308 1904.5,-278 1737.5,-278"/>
<text text-anchor="start" x="1745.5" y="-296" font-family="Helvetica,sans-Serif" font-size="10.00">repo.programs.pythonpackages.pr.</text>
<text text-anchor="middle" x="1821" y="-285" font-family="Helvetica,sans-Serif" font-size="10.00">SPDataSet.SPDataSet.clearRaw</text>
</a>
</g>
</g>
<!-- Node7&#45;&gt;Node14 -->
<g id="edge14" class="edge"><title>Node7&#45;&gt;Node14</title>
<path fill="none" stroke="midnightblue" d="M1687.51,-296.697C1700.53,-296.334 1714.07,-295.956 1727.31,-295.587"/>
<polygon fill="midnightblue" stroke="midnightblue" points="1727.46,-299.084 1737.36,-295.306 1727.26,-292.087 1727.46,-299.084"/>
</g>
<!-- Node9 -->
<g id="node9" class="node"><title>Node9</title>
<g id="a_node9"><a xlink:href="classrepo_1_1programs_1_1pythonpackages_1_1pr_1_1SPDataSet_1_1SPDataSet.html#a1e4c1d502ec5ff9a57bf9a330a318a54" target="_top" xlink:title="repo.programs.pythonpackages.pr.\lSPDataSet.SPDataSet.splitRecArray">
<polygon fill="white" stroke="black" points="1954.5,-181 1954.5,-211 2135.5,-211 2135.5,-181 1954.5,-181"/>
<text text-anchor="start" x="1962.5" y="-199" font-family="Helvetica,sans-Serif" font-size="10.00">repo.programs.pythonpackages.pr.</text>
<text text-anchor="middle" x="2045" y="-188" font-family="Helvetica,sans-Serif" font-size="10.00">SPDataSet.SPDataSet.splitRecArray</text>
</a>
</g>
</g>
<!-- Node8&#45;&gt;Node9 -->
<g id="edge8" class="edge"><title>Node8&#45;&gt;Node9</title>
<path fill="none" stroke="midnightblue" d="M1891.63,-228.944C1914.78,-223.94 1940.72,-218.331 1964.55,-213.179"/>
<polygon fill="midnightblue" stroke="midnightblue" points="1965.58,-216.537 1974.61,-211.002 1964.1,-209.695 1965.58,-216.537"/>
</g>
<!-- Node10 -->
<g id="node10" class="node"><title>Node10</title>
<g id="a_node10"><a xlink:href="classrepo_1_1programs_1_1pythonpackages_1_1pr_1_1SPDataSet_1_1SPDataSet.html#af0f40f6c14b1ba1c8de9351a839eb511" target="_top" xlink:title="repo.programs.pythonpackages.pr.\lSPDataSet.SPDataSet.calArr">
<polygon fill="white" stroke="black" points="1961.5,-230 1961.5,-260 2128.5,-260 2128.5,-230 1961.5,-230"/>
<text text-anchor="start" x="1969.5" y="-248" font-family="Helvetica,sans-Serif" font-size="10.00">repo.programs.pythonpackages.pr.</text>
<text text-anchor="middle" x="2045" y="-237" font-family="Helvetica,sans-Serif" font-size="10.00">SPDataSet.SPDataSet.calArr</text>
</a>
</g>
</g>
<!-- Node8&#45;&gt;Node10 -->
<g id="edge9" class="edge"><title>Node8&#45;&gt;Node10</title>
<path fill="none" stroke="midnightblue" d="M1904.66,-244.372C1919.83,-244.441 1935.76,-244.512 1951.2,-244.582"/>
<polygon fill="midnightblue" stroke="midnightblue" points="1951.25,-248.082 1961.27,-244.627 1951.28,-241.082 1951.25,-248.082"/>
</g>
<!-- Node11 -->
<g id="node11" class="node"><title>Node11</title>
<g id="a_node11"><a xlink:href="classrepo_1_1programs_1_1pythonpackages_1_1pr_1_1SPDataSet_1_1SPDataSet.html#a6e8c2848a25079fc869ab950445213b8" target="_top" xlink:title="repo.programs.pythonpackages.pr.\lSPDataSet.SPDataSet.zeroingD">
<polygon fill="white" stroke="black" points="2172.5,-255 2172.5,-285 2339.5,-285 2339.5,-255 2172.5,-255"/>
<text text-anchor="start" x="2180.5" y="-273" font-family="Helvetica,sans-Serif" font-size="10.00">repo.programs.pythonpackages.pr.</text>
<text text-anchor="middle" x="2256" y="-262" font-family="Helvetica,sans-Serif" font-size="10.00">SPDataSet.SPDataSet.zeroingD</text>
</a>
</g>
</g>
<!-- Node10&#45;&gt;Node11 -->
<g id="edge10" class="edge"><title>Node10&#45;&gt;Node11</title>
<path fill="none" stroke="midnightblue" d="M2128.6,-254.881C2139.61,-256.197 2150.96,-257.555 2162.12,-258.89"/>
<polygon fill="midnightblue" stroke="midnightblue" points="2161.97,-262.397 2172.31,-260.109 2162.8,-255.446 2161.97,-262.397"/>
</g>
<!-- Node12 -->
<g id="node12" class="node"><title>Node12</title>
<g id="a_node12"><a xlink:href="classrepo_1_1programs_1_1pythonpackages_1_1pr_1_1SPDataSet_1_1SPDataSet.html#aa287beda17e46a3969a9321e5904eaed" target="_top" xlink:title="repo.programs.pythonpackages.pr.\lSPDataSet.SPDataSet.cBzCal">
<polygon fill="white" stroke="black" points="2172.5,-206 2172.5,-236 2339.5,-236 2339.5,-206 2172.5,-206"/>
<text text-anchor="start" x="2180.5" y="-224" font-family="Helvetica,sans-Serif" font-size="10.00">repo.programs.pythonpackages.pr.</text>
<text text-anchor="middle" x="2256" y="-213" font-family="Helvetica,sans-Serif" font-size="10.00">SPDataSet.SPDataSet.cBzCal</text>
</a>
</g>
</g>
<!-- Node10&#45;&gt;Node12 -->
<g id="edge11" class="edge"><title>Node10&#45;&gt;Node12</title>
<path fill="none" stroke="midnightblue" d="M2128.6,-235.515C2139.61,-234.251 2150.96,-232.948 2162.12,-231.665"/>
<polygon fill="midnightblue" stroke="midnightblue" points="2162.78,-235.113 2172.31,-230.495 2161.98,-228.159 2162.78,-235.113"/>
</g>
<!-- Node13&#45;&gt;Node7 -->
<g id="edge13" class="edge"><title>Node13&#45;&gt;Node7</title>
<path fill="none" stroke="midnightblue" d="M1723.99,-329.513C1702.59,-325.363 1680.59,-320.729 1661.41,-316.302"/>
<polygon fill="midnightblue" stroke="midnightblue" points="1662.19,-312.89 1651.65,-314.009 1660.59,-319.704 1662.19,-312.89"/>
</g>
<!-- Node15&#45;&gt;Node4 -->
<g id="edge18" class="edge"><title>Node15&#45;&gt;Node4</title>
<path fill="none" stroke="midnightblue" d="M1039.57,-312.803C1055,-314.227 1070.99,-315.678 1086,-317 1353.44,-340.545 1421.84,-331.834 1688,-367 1703.06,-368.99 1719.01,-371.523 1734.43,-374.194"/>
<polygon fill="midnightblue" stroke="midnightblue" points="1734.01,-377.674 1744.46,-375.965 1735.22,-370.781 1734.01,-377.674"/>
</g>
<!-- Node15&#45;&gt;Node6 -->
<g id="edge20" class="edge"><title>Node15&#45;&gt;Node6</title>
<path fill="none" stroke="midnightblue" d="M983.85,-320.198C1021.84,-341.703 1091.35,-381.047 1133.54,-404.931"/>
<polygon fill="midnightblue" stroke="midnightblue" points="1131.94,-408.045 1142.37,-409.925 1135.39,-401.953 1131.94,-408.045"/>
</g>
<!-- Node15&#45;&gt;Node7 -->
<g id="edge19" class="edge"><title>Node15&#45;&gt;Node7</title>
<path fill="none" stroke="midnightblue" d="M1039.8,-304.231C1160.54,-303.11 1384.23,-301.032 1510.32,-299.861"/>
<polygon fill="midnightblue" stroke="midnightblue" points="1510.38,-303.36 1520.35,-299.768 1510.32,-296.361 1510.38,-303.36"/>
</g>
<!-- Node16 -->
<g id="node16" class="node"><title>Node16</title>
<g id="a_node16"><a xlink:href="classrepo_1_1programs_1_1pythonpackages_1_1pr_1_1SPDataSet_1_1SPDataSet.html#a5b12a3d9fdb93ccbf79a6b7a7893be3f" target="_top" xlink:title="repo.programs.pythonpackages.pr.\lSPDataSet.SPDataSet.cutAmp">
<polygon fill="white" stroke="black" points="1086.5,-228 1086.5,-258 1253.5,-258 1253.5,-228 1086.5,-228"/>
<text text-anchor="start" x="1094.5" y="-246" font-family="Helvetica,sans-Serif" font-size="10.00">repo.programs.pythonpackages.pr.</text>
<text text-anchor="middle" x="1170" y="-235" font-family="Helvetica,sans-Serif" font-size="10.00">SPDataSet.SPDataSet.cutAmp</text>
</a>
</g>
</g>
<!-- Node15&#45;&gt;Node16 -->
<g id="edge21" class="edge"><title>Node15&#45;&gt;Node16</title>
<path fill="none" stroke="midnightblue" d="M1008.32,-289.992C1038.17,-281.26 1076,-270.198 1107.45,-261.001"/>
<polygon fill="midnightblue" stroke="midnightblue" points="1108.8,-264.251 1117.42,-258.085 1106.84,-257.533 1108.8,-264.251"/>
</g>
<!-- Node15&#45;&gt;Node24 -->
<g id="edge41" class="edge"><title>Node15&#45;&gt;Node24</title>
<path fill="none" stroke="midnightblue" d="M974.408,-289.703C997.983,-269.865 1042.17,-235.715 1086,-218 1147.65,-193.082 1221.11,-179.856 1279.9,-172.847"/>
<polygon fill="midnightblue" stroke="midnightblue" points="1280.42,-176.311 1289.95,-171.693 1279.62,-169.357 1280.42,-176.311"/>
</g>
<!-- Node16&#45;&gt;Node7 -->
<g id="edge22" class="edge"><title>Node16&#45;&gt;Node7</title>
<path fill="none" stroke="midnightblue" d="M1253.53,-253.698C1326.89,-263.208 1434.03,-277.097 1510.32,-286.985"/>
<polygon fill="midnightblue" stroke="midnightblue" points="1510.03,-290.478 1520.4,-288.292 1510.93,-283.536 1510.03,-290.478"/>
</g>
<!-- Node16&#45;&gt;Node16 -->
<g id="edge36" class="edge"><title>Node16&#45;&gt;Node16</title>
<path fill="none" stroke="midnightblue" d="M1132.38,-258.275C1124.02,-267.406 1136.56,-276 1170,-276 1189.85,-276 1202.34,-272.97 1207.46,-268.598"/>
<polygon fill="midnightblue" stroke="midnightblue" points="1210.96,-268.328 1207.62,-258.275 1203.96,-268.22 1210.96,-268.328"/>
</g>
<!-- Node17 -->
<g id="node17" class="node"><title>Node17</title>
<g id="a_node17"><a xlink:href="classrepo_1_1programs_1_1pythonpackages_1_1pr_1_1SPDataSet_1_1SPDataSet.html#a14656e508d81193e8c71c09d9444e15f" target="_top" xlink:title="repo.programs.pythonpackages.pr.\lSPDataSet.SPDataSet.trigTimes">
<polygon fill="white" stroke="black" points="1303.5,-199 1303.5,-229 1470.5,-229 1470.5,-199 1303.5,-199"/>
<text text-anchor="start" x="1311.5" y="-217" font-family="Helvetica,sans-Serif" font-size="10.00">repo.programs.pythonpackages.pr.</text>
<text text-anchor="middle" x="1387" y="-206" font-family="Helvetica,sans-Serif" font-size="10.00">SPDataSet.SPDataSet.trigTimes</text>
</a>
</g>
</g>
<!-- Node16&#45;&gt;Node17 -->
<g id="edge23" class="edge"><title>Node16&#45;&gt;Node17</title>
<path fill="none" stroke="midnightblue" d="M1253.51,-231.871C1266.53,-230.114 1280.07,-228.288 1293.31,-226.503"/>
<polygon fill="midnightblue" stroke="midnightblue" points="1293.91,-229.953 1303.36,-225.147 1292.98,-223.016 1293.91,-229.953"/>
</g>
<!-- Node16&#45;&gt;Node24 -->
<g id="edge37" class="edge"><title>Node16&#45;&gt;Node24</title>
<path fill="none" stroke="midnightblue" d="M1218.8,-227.949C1230.54,-223.649 1242.92,-218.592 1254,-213 1271.17,-204.335 1272.41,-196.779 1290,-189 1294.69,-186.925 1299.59,-185.007 1304.6,-183.239"/>
<polygon fill="midnightblue" stroke="midnightblue" points="1305.91,-186.488 1314.31,-180.019 1303.71,-179.844 1305.91,-186.488"/>
</g>
<!-- Node17&#45;&gt;Node7 -->
<g id="edge25" class="edge"><title>Node17&#45;&gt;Node7</title>
<path fill="none" stroke="midnightblue" d="M1438.64,-229.113C1453.52,-234.163 1469.65,-240.247 1484,-247 1500.97,-254.984 1503.1,-260.883 1520,-269 1528.51,-273.086 1537.73,-276.942 1546.82,-280.444"/>
<polygon fill="midnightblue" stroke="midnightblue" points="1545.63,-283.734 1556.22,-283.958 1548.08,-277.177 1545.63,-283.734"/>
</g>
<!-- Node17&#45;&gt;Node8 -->
<g id="edge24" class="edge"><title>Node17&#45;&gt;Node8</title>
<path fill="none" stroke="midnightblue" d="M1470.53,-228.79C1486.88,-231.249 1503.94,-233.488 1520,-235 1589.27,-241.522 1667.89,-243.689 1727.27,-244.27"/>
<polygon fill="midnightblue" stroke="midnightblue" points="1727.35,-247.77 1737.38,-244.355 1727.41,-240.771 1727.35,-247.77"/>
</g>
<!-- Node18 -->
<g id="node18" class="node"><title>Node18</title>
<g id="a_node18"><a xlink:href="classrepo_1_1programs_1_1pythonpackages_1_1pr_1_1SPDataSet_1_1SPDataSet.html#a9eef53392c7e7ad757cefde737a6cb69" target="_top" xlink:title="repo.programs.pythonpackages.pr.\lSPDataSet.SPDataSet.medD">
<polygon fill="white" stroke="black" points="1520.5,-98 1520.5,-128 1687.5,-128 1687.5,-98 1520.5,-98"/>
<text text-anchor="start" x="1528.5" y="-116" font-family="Helvetica,sans-Serif" font-size="10.00">repo.programs.pythonpackages.pr.</text>
<text text-anchor="middle" x="1604" y="-105" font-family="Helvetica,sans-Serif" font-size="10.00">SPDataSet.SPDataSet.medD</text>
</a>
</g>
</g>
<!-- Node17&#45;&gt;Node18 -->
<g id="edge26" class="edge"><title>Node17&#45;&gt;Node18</title>
<path fill="none" stroke="midnightblue" d="M1466.13,-198.858C1472.44,-196.104 1478.49,-192.848 1484,-189 1507.04,-172.897 1497.18,-153.409 1520,-137 1522.08,-135.506 1524.25,-134.104 1526.49,-132.79"/>
<polygon fill="midnightblue" stroke="midnightblue" points="1528.17,-135.858 1535.43,-128.137 1524.94,-129.648 1528.17,-135.858"/>
</g>
<!-- Node20 -->
<g id="node20" class="node"><title>Node20</title>
<g id="a_node20"><a xlink:href="classrepo_1_1programs_1_1pythonpackages_1_1pr_1_1SPDataSet_1_1SPDataSet.html#a6478ef339e0e44839e478fec7340c6b0" target="_top" xlink:title="repo.programs.pythonpackages.pr.\lSPDataSet.SPDataSet.relD">
<polygon fill="white" stroke="black" points="1520.5,-147 1520.5,-177 1687.5,-177 1687.5,-147 1520.5,-147"/>
<text text-anchor="start" x="1528.5" y="-165" font-family="Helvetica,sans-Serif" font-size="10.00">repo.programs.pythonpackages.pr.</text>
<text text-anchor="middle" x="1604" y="-154" font-family="Helvetica,sans-Serif" font-size="10.00">SPDataSet.SPDataSet.relD</text>
</a>
</g>
</g>
<!-- Node17&#45;&gt;Node20 -->
<g id="edge29" class="edge"><title>Node17&#45;&gt;Node20</title>
<path fill="none" stroke="midnightblue" d="M1450.19,-198.959C1475.48,-192.842 1504.87,-185.734 1531.08,-179.395"/>
<polygon fill="midnightblue" stroke="midnightblue" points="1532.06,-182.76 1540.95,-177.007 1530.41,-175.956 1532.06,-182.76"/>
</g>
<!-- Node21 -->
<g id="node21" class="node"><title>Node21</title>
<g id="a_node21"><a xlink:href="namespacerepo_1_1programs_1_1pythonpackages_1_1pr_1_1SPfuncs.html#af8a48b74a6d4e725e2409329126076a6" target="_top" xlink:title="Construct a set of triggers by analysing the timing for the signal. ">
<polygon fill="white" stroke="black" points="1520.5,-49 1520.5,-79 1687.5,-79 1687.5,-49 1520.5,-49"/>
<text text-anchor="start" x="1528.5" y="-67" font-family="Helvetica,sans-Serif" font-size="10.00">repo.programs.pythonpackages.pr.</text>
<text text-anchor="middle" x="1604" y="-56" font-family="Helvetica,sans-Serif" font-size="10.00">SPfuncs.makeTriggers</text>
</a>
</g>
</g>
<!-- Node17&#45;&gt;Node21 -->
<g id="edge32" class="edge"><title>Node17&#45;&gt;Node21</title>
<path fill="none" stroke="midnightblue" d="M1470.09,-198.878C1475.1,-196.103 1479.81,-192.839 1484,-189 1519.14,-156.811 1485.29,-120.655 1520,-88 1521.13,-86.94 1522.3,-85.9265 1523.51,-84.9574"/>
<polygon fill="midnightblue" stroke="midnightblue" points="1525.69,-87.7045 1531.99,-79.1849 1521.75,-81.9173 1525.69,-87.7045"/>
</g>
<!-- Node23 -->
<g id="node23" class="node"><title>Node23</title>
<g id="a_node23"><a xlink:href="classrepo_1_1programs_1_1pythonpackages_1_1pr_1_1SPDataSet_1_1SPDataSet.html#af6af62c7de4f7bc8f2dd223d05cf2b07" target="_top" xlink:title="repo.programs.pythonpackages.pr.\lSPDataSet.SPDataSet.rSpec">
<polygon fill="white" stroke="black" points="1520.5,-196 1520.5,-226 1687.5,-226 1687.5,-196 1520.5,-196"/>
<text text-anchor="start" x="1528.5" y="-214" font-family="Helvetica,sans-Serif" font-size="10.00">repo.programs.pythonpackages.pr.</text>
<text text-anchor="middle" x="1604" y="-203" font-family="Helvetica,sans-Serif" font-size="10.00">SPDataSet.SPDataSet.rSpec</text>
</a>
</g>
</g>
<!-- Node17&#45;&gt;Node23 -->
<g id="edge34" class="edge"><title>Node17&#45;&gt;Node23</title>
<path fill="none" stroke="midnightblue" d="M1470.51,-212.849C1483.53,-212.667 1497.07,-212.478 1510.31,-212.293"/>
<polygon fill="midnightblue" stroke="midnightblue" points="1510.41,-215.792 1520.36,-212.153 1510.31,-208.793 1510.41,-215.792"/>
</g>
<!-- Node18&#45;&gt;Node9 -->
<g id="edge28" class="edge"><title>Node18&#45;&gt;Node9</title>
<path fill="none" stroke="midnightblue" d="M1687.62,-107.551C1751.64,-105.625 1841.96,-107.964 1918,-129 1953.09,-138.708 1989.41,-159.348 2013.99,-175.17"/>
<polygon fill="midnightblue" stroke="midnightblue" points="2012.21,-178.188 2022.49,-180.753 2016.05,-172.338 2012.21,-178.188"/>
</g>
<!-- Node19 -->
<g id="node19" class="node"><title>Node19</title>
<g id="a_node19"><a xlink:href="namespacerepo_1_1programs_1_1pythonpackages_1_1pr_1_1SPfuncs.html#acb6d178d4325b6c3d8fec4f8197d6819" target="_top" xlink:title="repo.programs.pythonpackages.pr.\lSPfuncs.renameFieldMaybe">
<polygon fill="white" stroke="black" points="1737.5,-139 1737.5,-169 1904.5,-169 1904.5,-139 1737.5,-139"/>
<text text-anchor="start" x="1745.5" y="-157" font-family="Helvetica,sans-Serif" font-size="10.00">repo.programs.pythonpackages.pr.</text>
<text text-anchor="middle" x="1821" y="-146" font-family="Helvetica,sans-Serif" font-size="10.00">SPfuncs.renameFieldMaybe</text>
</a>
</g>
</g>
<!-- Node18&#45;&gt;Node19 -->
<g id="edge27" class="edge"><title>Node18&#45;&gt;Node19</title>
<path fill="none" stroke="midnightblue" d="M1683.84,-128.034C1699.17,-130.959 1715.35,-134.043 1730.99,-137.026"/>
<polygon fill="midnightblue" stroke="midnightblue" points="1730.69,-140.532 1741.17,-138.968 1732,-133.656 1730.69,-140.532"/>
</g>
<!-- Node20&#45;&gt;Node9 -->
<g id="edge31" class="edge"><title>Node20&#45;&gt;Node9</title>
<path fill="none" stroke="midnightblue" d="M1687.81,-173.972C1699.93,-175.481 1712.28,-176.884 1724,-178 1797.46,-184.994 1880.69,-189.572 1943.85,-192.361"/>
<polygon fill="midnightblue" stroke="midnightblue" points="1944.06,-195.873 1954.2,-192.81 1944.36,-188.88 1944.06,-195.873"/>
</g>
<!-- Node20&#45;&gt;Node19 -->
<g id="edge30" class="edge"><title>Node20&#45;&gt;Node19</title>
<path fill="none" stroke="midnightblue" d="M1687.51,-158.93C1700.53,-158.445 1714.07,-157.941 1727.31,-157.449"/>
<polygon fill="midnightblue" stroke="midnightblue" points="1727.49,-160.945 1737.36,-157.075 1727.23,-153.949 1727.49,-160.945"/>
</g>
<!-- Node22 -->
<g id="node22" class="node"><title>Node22</title>
<g id="a_node22"><a xlink:href="namespacerepo_1_1programs_1_1pythonpackages_1_1pr_1_1SPfuncs.html#a9d03b1e8bb9325cdab8fa026d6cdbbe3" target="_top" xlink:title="repo.programs.pythonpackages.pr.\lSPfuncs.secs2sd">
<polygon fill="white" stroke="black" points="1737.5,-49 1737.5,-79 1904.5,-79 1904.5,-49 1737.5,-49"/>
<text text-anchor="start" x="1745.5" y="-67" font-family="Helvetica,sans-Serif" font-size="10.00">repo.programs.pythonpackages.pr.</text>
<text text-anchor="middle" x="1821" y="-56" font-family="Helvetica,sans-Serif" font-size="10.00">SPfuncs.secs2sd</text>
</a>
</g>
</g>
<!-- Node21&#45;&gt;Node22 -->
<g id="edge33" class="edge"><title>Node21&#45;&gt;Node22</title>
<path fill="none" stroke="midnightblue" d="M1687.51,-64C1700.53,-64 1714.07,-64 1727.31,-64"/>
<polygon fill="midnightblue" stroke="midnightblue" points="1727.36,-67.5001 1737.36,-64 1727.36,-60.5001 1727.36,-67.5001"/>
</g>
<!-- Node23&#45;&gt;Node4 -->
<g id="edge35" class="edge"><title>Node23&#45;&gt;Node4</title>
<path fill="none" stroke="midnightblue" d="M1632.05,-226.122C1650,-237.333 1672.95,-254.084 1688,-274 1714.48,-309.027 1691.17,-336.841 1724,-366 1725.78,-367.58 1727.64,-369.062 1729.58,-370.452"/>
<polygon fill="midnightblue" stroke="midnightblue" points="1728.16,-373.689 1738.51,-375.979 1731.85,-367.738 1728.16,-373.689"/>
</g>
<!-- Node24&#45;&gt;Node23 -->
<g id="edge40" class="edge"><title>Node24&#45;&gt;Node23</title>
<path fill="none" stroke="midnightblue" d="M1458.4,-180.062C1479.02,-184.473 1501.71,-189.328 1522.88,-193.858"/>
<polygon fill="midnightblue" stroke="midnightblue" points="1522.3,-197.313 1532.81,-195.983 1523.76,-190.468 1522.3,-197.313"/>
</g>
<!-- Node25 -->
<g id="node25" class="node"><title>Node25</title>
<g id="a_node25"><a xlink:href="namespacerepo_1_1programs_1_1pythonpackages_1_1pr_1_1SPfuncs.html#a2533afa952ea007cfad4a1deb6a607a5" target="_top" xlink:title="Return angles for the sequence defined by , repeated &#160;times. ">
<polygon fill="white" stroke="black" points="1520.5,-0 1520.5,-30 1687.5,-30 1687.5,-0 1520.5,-0"/>
<text text-anchor="start" x="1528.5" y="-18" font-family="Helvetica,sans-Serif" font-size="10.00">repo.programs.pythonpackages.pr.</text>
<text text-anchor="middle" x="1604" y="-7" font-family="Helvetica,sans-Serif" font-size="10.00">SPfuncs.getAnglesFromRSpec</text>
</a>
</g>
</g>
<!-- Node24&#45;&gt;Node25 -->
<g id="edge38" class="edge"><title>Node24&#45;&gt;Node25</title>
<path fill="none" stroke="midnightblue" d="M1399.73,-149.759C1420.88,-123.3 1468.09,-68.8459 1520,-39 1523.18,-37.1729 1526.51,-35.4758 1529.92,-33.9008"/>
<polygon fill="midnightblue" stroke="midnightblue" points="1531.3,-37.1206 1539.15,-30.0107 1528.58,-30.6704 1531.3,-37.1206"/>
</g>
<!-- Node26 -->
<g id="node26" class="node"><title>Node26</title>
<g id="a_node26"><a xlink:href="namespacerepo_1_1programs_1_1pythonpackages_1_1pr_1_1SPfuncs.html#aba724f914a5cc838851518564a1f5d84" target="_top" xlink:title="repo.programs.pythonpackages.pr.\lSPfuncs.getRotationsFromRSpec">
<polygon fill="white" stroke="black" points="1737.5,-0 1737.5,-30 1904.5,-30 1904.5,-0 1737.5,-0"/>
<text text-anchor="start" x="1745.5" y="-18" font-family="Helvetica,sans-Serif" font-size="10.00">repo.programs.pythonpackages.pr.</text>
<text text-anchor="middle" x="1821" y="-7" font-family="Helvetica,sans-Serif" font-size="10.00">SPfuncs.getRotationsFromRSpec</text>
</a>
</g>
</g>
<!-- Node25&#45;&gt;Node26 -->
<g id="edge39" class="edge"><title>Node25&#45;&gt;Node26</title>
<path fill="none" stroke="midnightblue" d="M1687.51,-15C1700.53,-15 1714.07,-15 1727.31,-15"/>
<polygon fill="midnightblue" stroke="midnightblue" points="1727.36,-18.5001 1737.36,-15 1727.36,-11.5001 1727.36,-18.5001"/>
</g>
<!-- Node27&#45;&gt;Node4 -->
<g id="edge43" class="edge"><title>Node27&#45;&gt;Node4</title>
<path fill="none" stroke="midnightblue" d="M825.677,-352.581C1030.91,-360.511 1521.8,-379.478 1727.17,-387.413"/>
<polygon fill="midnightblue" stroke="midnightblue" points="1727.2,-390.917 1737.33,-387.806 1727.47,-383.922 1727.2,-390.917"/>
</g>
<!-- Node27&#45;&gt;Node6 -->
<g id="edge44" class="edge"><title>Node27&#45;&gt;Node6</title>
<path fill="none" stroke="midnightblue" d="M819.14,-364.015C893.361,-376.953 1000.25,-395.584 1076.31,-408.843"/>
<polygon fill="midnightblue" stroke="midnightblue" points="1075.91,-412.326 1086.36,-410.596 1077.11,-405.43 1075.91,-412.326"/>
</g>
<!-- Node27&#45;&gt;Node15 -->
<g id="edge45" class="edge"><title>Node27&#45;&gt;Node15</title>
<path fill="none" stroke="midnightblue" d="M808.779,-333.981C828.228,-330.126 849.287,-325.952 869.203,-322.005"/>
<polygon fill="midnightblue" stroke="midnightblue" points="870.057,-325.404 879.186,-320.026 868.696,-318.537 870.057,-325.404"/>
</g>
<!-- Node27&#45;&gt;Node16 -->
<g id="edge46" class="edge"><title>Node27&#45;&gt;Node16</title>
<path fill="none" stroke="midnightblue" d="M755.162,-333.821C779.997,-317.626 822.034,-292.607 862,-280 931.837,-257.971 1014.41,-248.913 1076.32,-245.257"/>
<polygon fill="midnightblue" stroke="midnightblue" points="1076.67,-248.743 1086.47,-244.696 1076.29,-241.754 1076.67,-248.743"/>
</g>
</g>
</svg>
        <g id="navigator" transform="translate(0 0)" fill="#404254">
                <rect fill="#f2f5e9" fill-opacity="0.5" stroke="#606060" stroke-width=".5" x="0" y="0" width="60" height="60"/>
                <use id="zoomplus" xlink:href="#zoomPlus" x="17" y="9" onmousedown="handleZoom(evt,'in')"/>
                <use id="zoomminus" xlink:href="#zoomMin" x="42" y="9" onmousedown="handleZoom(evt,'out')"/>
                <use id="reset" xlink:href="#resetDef" x="30" y="36" onmousedown="handleReset()"/>
                <g id="arrowUp" xlink:href="#dirArrow" transform="translate(30 24)" onmousedown="handlePan(0,-1)">
                  <use xlink:href="#rim" fill="#404040">
                        <set attributeName="fill" to="#808080" begin="arrowUp.mouseover" end="arrowUp.mouseout"/>
                  </use>
                  <path fill="none" stroke="white" stroke-width="1.5" d="M0,-3.0v7 M-2.5,-0.5L0,-3.0L2.5,-0.5"/>
                </g>
                <g id="arrowRight" xlink:href="#dirArrow" transform="rotate(90) translate(36 -43)" onmousedown="handlePan(1,0)">
                  <use xlink:href="#rim" fill="#404040">
                        <set attributeName="fill" to="#808080" begin="arrowRight.mouseover" end="arrowRight.mouseout"/>
                  </use>
                  <path fill="none" stroke="white" stroke-width="1.5" d="M0,-3.0v7 M-2.5,-0.5L0,-3.0L2.5,-0.5"/>
                </g>
                <g id="arrowDown" xlink:href="#dirArrow" transform="rotate(180) translate(-30 -48)" onmousedown="handlePan(0,1)">
                  <use xlink:href="#rim" fill="#404040">
                        <set attributeName="fill" to="#808080" begin="arrowDown.mouseover" end="arrowDown.mouseout"/>
                  </use>
                  <path fill="none" stroke="white" stroke-width="1.5" d="M0,-3.0v7 M-2.5,-0.5L0,-3.0L2.5,-0.5"/>
                </g>
                <g id="arrowLeft" xlink:href="#dirArrow" transform="rotate(270) translate(-36 17)" onmousedown="handlePan(-1,0)">
                  <use xlink:href="#rim" fill="#404040">
                        <set attributeName="fill" to="#808080" begin="arrowLeft.mouseover" end="arrowLeft.mouseout"/>
                  </use>
                  <path fill="none" stroke="white" stroke-width="1.5" d="M0,-3.0v7 M-2.5,-0.5L0,-3.0L2.5,-0.5"/>
                </g>
        </g>
        <svg viewBox="0 0 15 15" width="100%" height="30px" preserveAspectRatio="xMaxYMin meet">
         <g id="arrow_out" transform="scale(0.3 0.3)">
          <a xlink:href="classrepo_1_1programs_1_1pythonpackages_1_1pr_1_1SPDataSet_1_1SPDataSet_a0c87af10688edd55eb0aea229e5979bb_cgraph_org.svg" target="_base">
           <rect id="button" ry="5" rx="5" y="6" x="6" height="38" width="38"
                fill="#f2f5e9" fill-opacity="0.5" stroke="#606060" stroke-width="1.0"/>
           <path id="arrow"
             d="M 11.500037,31.436501 C 11.940474,20.09759 22.043105,11.32322 32.158766,21.979434 L 37.068811,17.246167 C 37.068811,17.246167 37.088388,32 37.088388,32 L 22.160133,31.978069 C 22.160133,31.978069 26.997745,27.140456 26.997745,27.140456 C 18.528582,18.264221 13.291696,25.230495 11.500037,31.436501 z"
             style="fill:#404040;"/>
          </a>
         </g>
        </svg>
</svg>
