<?xml version="1.0" encoding="UTF-8" standalone="no"?>
<!DOCTYPE svg PUBLIC "-//W3C//DTD SVG 1.1//EN"
 "http://www.w3.org/Graphics/SVG/1.1/DTD/svg11.dtd">
<!-- Generated by graphviz version 2.36.0 (20140111.2315)
 -->
<!-- Title: repo.programs.pythonpackages.pr.SPDataSet.SPDataSet.filteredCutAmp Pages: 1 -->
<svg width="870pt" height="273pt"
 viewBox="0.00 0.00 870.00 273.00" xmlns="http://www.w3.org/2000/svg" xmlns:xlink="http://www.w3.org/1999/xlink">
<g id="graph0" class="graph" transform="scale(1 1) rotate(0) translate(4 269)">
<title>repo.programs.pythonpackages.pr.SPDataSet.SPDataSet.filteredCutAmp</title>
<polygon fill="white" stroke="none" points="-4,4 -4,-269 866,-269 866,4 -4,4"/>
<!-- Node1 -->
<g id="node1" class="node"><title>Node1</title>
<polygon fill="#bfbfbf" stroke="black" points="0.5,-122 0.5,-152 187.5,-152 187.5,-122 0.5,-122"/>
<text text-anchor="start" x="8.5" y="-140" font-family="Helvetica,sans-Serif" font-size="10.00">repo.programs.pythonpackages.pr.</text>
<text text-anchor="middle" x="94" y="-129" font-family="Helvetica,sans-Serif" font-size="10.00">SPDataSet.SPDataSet.filteredCutAmp</text>
</g>
<!-- Node2 -->
<g id="node2" class="node"><title>Node2</title>
<g id="a_node2"><a xlink:href="classrepo_1_1programs_1_1pythonpackages_1_1pr_1_1SPDataSet_1_1SPDataSet.html#accbfa0185d4e416038e688fc9b55575b" target="_top" xlink:title="repo.programs.pythonpackages.pr.\lSPDataSet.SPDataSet.sequenceAmp">
<polygon fill="white" stroke="black" points="224,-122 224,-152 408,-152 408,-122 224,-122"/>
<text text-anchor="start" x="232" y="-140" font-family="Helvetica,sans-Serif" font-size="10.00">repo.programs.pythonpackages.pr.</text>
<text text-anchor="middle" x="316" y="-129" font-family="Helvetica,sans-Serif" font-size="10.00">SPDataSet.SPDataSet.sequenceAmp</text>
</a>
</g>
</g>
<!-- Node1&#45;&gt;Node2 -->
<g id="edge1" class="edge"><title>Node1&#45;&gt;Node2</title>
<path fill="none" stroke="midnightblue" d="M197.822,-137C206.512,-137 215.261,-137 223.852,-137"/>
<polygon fill="midnightblue" stroke="midnightblue" points="197.662,-133.5 187.662,-137 197.662,-140.5 197.662,-133.5"/>
</g>
<!-- Node2&#45;&gt;Node2 -->
<g id="edge2" class="edge"><title>Node2&#45;&gt;Node2</title>
<path fill="none" stroke="midnightblue" d="M277.142,-162.598C282.452,-166.97 295.404,-170 316,-170 350.688,-170 363.695,-161.406 355.023,-152.275"/>
<polygon fill="midnightblue" stroke="midnightblue" points="280.636,-162.218 276.977,-152.275 273.637,-162.33 280.636,-162.218"/>
</g>
<!-- Node3 -->
<g id="node3" class="node"><title>Node3</title>
<g id="a_node3"><a xlink:href="classrepo_1_1programs_1_1pythonpackages_1_1pr_1_1SPDataSet_1_1SPDataSet.html#ac0df54b82a9e993d707f0dafd87a19dd" target="_top" xlink:title="repo.programs.pythonpackages.pr.\lSPDataSet.SPDataSet.labAmp">
<polygon fill="white" stroke="black" points="462.5,-235 462.5,-265 629.5,-265 629.5,-235 462.5,-235"/>
<text text-anchor="start" x="470.5" y="-253" font-family="Helvetica,sans-Serif" font-size="10.00">repo.programs.pythonpackages.pr.</text>
<text text-anchor="middle" x="546" y="-242" font-family="Helvetica,sans-Serif" font-size="10.00">SPDataSet.SPDataSet.labAmp</text>
</a>
</g>
</g>
<!-- Node2&#45;&gt;Node3 -->
<g id="edge3" class="edge"><title>Node2&#45;&gt;Node3</title>
<path fill="none" stroke="midnightblue" d="M344.392,-158.283C369.229,-176.735 407.441,-203.065 444,-220 456.531,-225.805 470.456,-230.795 483.862,-234.946"/>
<polygon fill="midnightblue" stroke="midnightblue" points="346.284,-155.327 336.189,-152.113 342.077,-160.921 346.284,-155.327"/>
</g>
<!-- Node4 -->
<g id="node4" class="node"><title>Node4</title>
<g id="a_node4"><a xlink:href="classrepo_1_1programs_1_1pythonpackages_1_1pr_1_1SPDataSet_1_1SPDataSet.html#a3624263a6738178d243635889b719a90" target="_top" xlink:title="repo.programs.pythonpackages.pr.\lSPDataSet.SPDataSet.viewSid">
<polygon fill="white" stroke="black" points="689.5,-191 689.5,-221 856.5,-221 856.5,-191 689.5,-191"/>
<text text-anchor="start" x="697.5" y="-209" font-family="Helvetica,sans-Serif" font-size="10.00">repo.programs.pythonpackages.pr.</text>
<text text-anchor="middle" x="773" y="-198" font-family="Helvetica,sans-Serif" font-size="10.00">SPDataSet.SPDataSet.viewSid</text>
</a>
</g>
</g>
<!-- Node2&#45;&gt;Node4 -->
<g id="edge9" class="edge"><title>Node2&#45;&gt;Node4</title>
<path fill="none" stroke="midnightblue" d="M357.324,-156.228C381.813,-166.969 414.034,-179.47 444,-186 526.219,-203.917 622.581,-207.827 689.494,-207.923"/>
<polygon fill="midnightblue" stroke="midnightblue" points="358.562,-152.948 348.004,-152.062 355.705,-159.338 358.562,-152.948"/>
</g>
<!-- Node5 -->
<g id="node5" class="node"><title>Node5</title>
<g id="a_node5"><a xlink:href="classrepo_1_1programs_1_1pythonpackages_1_1pr_1_1SPDataSet_1_1SPDataSet.html#acf495c99c803a2a1e23cdaeae34da985" target="_top" xlink:title="repo.programs.pythonpackages.pr.\lSPDataSet.SPDataSet.sidAmp">
<polygon fill="white" stroke="black" points="462.5,-147 462.5,-177 629.5,-177 629.5,-147 462.5,-147"/>
<text text-anchor="start" x="470.5" y="-165" font-family="Helvetica,sans-Serif" font-size="10.00">repo.programs.pythonpackages.pr.</text>
<text text-anchor="middle" x="546" y="-154" font-family="Helvetica,sans-Serif" font-size="10.00">SPDataSet.SPDataSet.sidAmp</text>
</a>
</g>
</g>
<!-- Node2&#45;&gt;Node5 -->
<g id="edge5" class="edge"><title>Node2&#45;&gt;Node5</title>
<path fill="none" stroke="midnightblue" d="M418.212,-148.098C432.91,-149.709 447.895,-151.352 462.173,-152.918"/>
<polygon fill="midnightblue" stroke="midnightblue" points="418.417,-144.599 408.095,-146.988 417.653,-151.558 418.417,-144.599"/>
</g>
<!-- Node6 -->
<g id="node6" class="node"><title>Node6</title>
<g id="a_node6"><a xlink:href="classrepo_1_1programs_1_1pythonpackages_1_1pr_1_1SPDataSet_1_1SPDataSet.html#ac55c6ccc03634d3f670f52e89188779c" target="_top" xlink:title="repo.programs.pythonpackages.pr.\lSPDataSet.SPDataSet.viewSeq">
<polygon fill="white" stroke="black" points="462.5,-98 462.5,-128 629.5,-128 629.5,-98 462.5,-98"/>
<text text-anchor="start" x="470.5" y="-116" font-family="Helvetica,sans-Serif" font-size="10.00">repo.programs.pythonpackages.pr.</text>
<text text-anchor="middle" x="546" y="-105" font-family="Helvetica,sans-Serif" font-size="10.00">SPDataSet.SPDataSet.viewSeq</text>
</a>
</g>
</g>
<!-- Node2&#45;&gt;Node6 -->
<g id="edge7" class="edge"><title>Node2&#45;&gt;Node6</title>
<path fill="none" stroke="midnightblue" d="M418.212,-126.346C432.91,-124.799 447.895,-123.222 462.173,-121.719"/>
<polygon fill="midnightblue" stroke="midnightblue" points="417.673,-122.883 408.095,-127.411 418.406,-129.845 417.673,-122.883"/>
</g>
<!-- Node8 -->
<g id="node8" class="node"><title>Node8</title>
<g id="a_node8"><a xlink:href="classrepo_1_1programs_1_1pythonpackages_1_1pr_1_1SPDataSet_1_1SPDataSet.html#a5aad808c592bfdbb665105df2947610f" target="_top" xlink:title="repo.programs.pythonpackages.pr.\lSPDataSet.SPDataSet.viewCorrelationFilt">
<polygon fill="white" stroke="black" points="444.5,-49 444.5,-79 647.5,-79 647.5,-49 444.5,-49"/>
<text text-anchor="start" x="452.5" y="-67" font-family="Helvetica,sans-Serif" font-size="10.00">repo.programs.pythonpackages.pr.</text>
<text text-anchor="middle" x="546" y="-56" font-family="Helvetica,sans-Serif" font-size="10.00">SPDataSet.SPDataSet.viewCorrelationFilt</text>
</a>
</g>
</g>
<!-- Node2&#45;&gt;Node8 -->
<g id="edge10" class="edge"><title>Node2&#45;&gt;Node8</title>
<path fill="none" stroke="midnightblue" d="M362.815,-118.178C386.766,-108.724 416.705,-97.5033 444,-89 455.383,-85.454 467.609,-82.0747 479.488,-79.0118"/>
<polygon fill="midnightblue" stroke="midnightblue" points="361.276,-115.023 353.279,-121.973 363.865,-121.527 361.276,-115.023"/>
</g>
<!-- Node9 -->
<g id="node9" class="node"><title>Node9</title>
<g id="a_node9"><a xlink:href="classrepo_1_1programs_1_1pythonpackages_1_1pr_1_1SPDataSet_1_1SPDataSet.html#a5ad35e931371981e41221502928547d5" target="_top" xlink:title="Check that the calculated apparatus directions fit with the available data. ">
<polygon fill="white" stroke="black" points="450,-0 450,-30 642,-30 642,-0 450,-0"/>
<text text-anchor="start" x="458" y="-18" font-family="Helvetica,sans-Serif" font-size="10.00">repo.programs.pythonpackages.pr.</text>
<text text-anchor="middle" x="546" y="-7" font-family="Helvetica,sans-Serif" font-size="10.00">SPDataSet.SPDataSet.checkDirections</text>
</a>
</g>
</g>
<!-- Node2&#45;&gt;Node9 -->
<g id="edge11" class="edge"><title>Node2&#45;&gt;Node9</title>
<path fill="none" stroke="midnightblue" d="M339.931,-114.751C363.969,-92.6352 403.774,-59.305 444,-40 452.061,-36.1312 460.781,-32.8238 469.604,-30.0055"/>
<polygon fill="midnightblue" stroke="midnightblue" points="337.321,-112.399 332.405,-121.784 342.101,-117.513 337.321,-112.399"/>
</g>
<!-- Node3&#45;&gt;Node4 -->
<g id="edge4" class="edge"><title>Node3&#45;&gt;Node4</title>
<path fill="none" stroke="midnightblue" d="M633.644,-233.056C653.909,-229.093 675.357,-224.899 695.161,-221.026"/>
<polygon fill="midnightblue" stroke="midnightblue" points="632.945,-229.627 623.803,-234.981 634.289,-236.496 632.945,-229.627"/>
</g>
<!-- Node5&#45;&gt;Node4 -->
<g id="edge6" class="edge"><title>Node5&#45;&gt;Node4</title>
<path fill="none" stroke="midnightblue" d="M633.644,-178.944C653.909,-182.907 675.357,-187.101 695.161,-190.974"/>
<polygon fill="midnightblue" stroke="midnightblue" points="634.289,-175.504 623.803,-177.019 632.945,-182.373 634.289,-175.504"/>
</g>
<!-- Node7 -->
<g id="node7" class="node"><title>Node7</title>
<g id="a_node7"><a xlink:href="classrepo_1_1programs_1_1pythonpackages_1_1pr_1_1SPDataSet_1_1SPDataSet.html#a0c87af10688edd55eb0aea229e5979bb" target="_top" xlink:title="repo.programs.pythonpackages.pr.\lSPDataSet.SPDataSet.viewSensors">
<polygon fill="white" stroke="black" points="684,-98 684,-128 862,-128 862,-98 684,-98"/>
<text text-anchor="start" x="692" y="-116" font-family="Helvetica,sans-Serif" font-size="10.00">repo.programs.pythonpackages.pr.</text>
<text text-anchor="middle" x="773" y="-105" font-family="Helvetica,sans-Serif" font-size="10.00">SPDataSet.SPDataSet.viewSensors</text>
</a>
</g>
</g>
<!-- Node6&#45;&gt;Node7 -->
<g id="edge8" class="edge"><title>Node6&#45;&gt;Node7</title>
<path fill="none" stroke="midnightblue" d="M639.551,-113C654.19,-113 669.293,-113 683.828,-113"/>
<polygon fill="midnightblue" stroke="midnightblue" points="639.504,-109.5 629.504,-113 639.504,-116.5 639.504,-109.5"/>
</g>
</g>
</svg>
