<?xml version="1.0" encoding="UTF-8" standalone="no"?>
<!DOCTYPE svg PUBLIC "-//W3C//DTD SVG 1.1//EN"
 "http://www.w3.org/Graphics/SVG/1.1/DTD/svg11.dtd">
<!-- Generated by graphviz version 2.36.0 (20140111.2315)
 -->
<!-- Title: repo.programs.pythonpackages.pr.SPDataSet.SPDataSet.trigTimes Pages: 1 -->
<svg width="1032pt" height="386pt"
 viewBox="0.00 0.00 1032.00 386.00" xmlns="http://www.w3.org/2000/svg" xmlns:xlink="http://www.w3.org/1999/xlink">
<g id="graph0" class="graph" transform="scale(1 1) rotate(0) translate(4 382)">
<title>repo.programs.pythonpackages.pr.SPDataSet.SPDataSet.trigTimes</title>
<polygon fill="white" stroke="none" points="-4,4 -4,-382 1028,-382 1028,4 -4,4"/>
<!-- Node1 -->
<g id="node1" class="node"><title>Node1</title>
<polygon fill="#bfbfbf" stroke="black" points="0.5,-152 0.5,-182 167.5,-182 167.5,-152 0.5,-152"/>
<text text-anchor="start" x="8.5" y="-170" font-family="Helvetica,sans-Serif" font-size="10.00">repo.programs.pythonpackages.pr.</text>
<text text-anchor="middle" x="84" y="-159" font-family="Helvetica,sans-Serif" font-size="10.00">SPDataSet.SPDataSet.trigTimes</text>
</g>
<!-- Node2 -->
<g id="node2" class="node"><title>Node2</title>
<g id="a_node2"><a xlink:href="classrepo_1_1programs_1_1pythonpackages_1_1pr_1_1SPDataSet_1_1SPDataSet.html#aa400ad81219e782fe2e29e852b20bb28" target="_top" xlink:title="repo.programs.pythonpackages.pr.\lSPDataSet.SPDataSet.fastD">
<polygon fill="white" stroke="black" points="421.5,-323 421.5,-353 588.5,-353 588.5,-323 421.5,-323"/>
<text text-anchor="start" x="429.5" y="-341" font-family="Helvetica,sans-Serif" font-size="10.00">repo.programs.pythonpackages.pr.</text>
<text text-anchor="middle" x="505" y="-330" font-family="Helvetica,sans-Serif" font-size="10.00">SPDataSet.SPDataSet.fastD</text>
</a>
</g>
</g>
<!-- Node1&#45;&gt;Node2 -->
<g id="edge1" class="edge"><title>Node1&#45;&gt;Node2</title>
<path fill="none" stroke="midnightblue" d="M92.2026,-182.376C107.666,-213.41 147.3,-283.117 204,-313 267.397,-346.412 348.945,-351.204 411.014,-348.45"/>
<polygon fill="midnightblue" stroke="midnightblue" points="411.387,-351.935 421.193,-347.923 411.025,-344.945 411.387,-351.935"/>
</g>
<!-- Node7 -->
<g id="node7" class="node"><title>Node7</title>
<g id="a_node7"><a xlink:href="classrepo_1_1programs_1_1pythonpackages_1_1pr_1_1SPDataSet_1_1SPDataSet.html#afe54eeb9f41f503dc478557e4ea2c62a" target="_top" xlink:title="repo.programs.pythonpackages.pr.\lSPDataSet.SPDataSet.rawData">
<polygon fill="white" stroke="black" points="204.5,-274 204.5,-304 371.5,-304 371.5,-274 204.5,-274"/>
<text text-anchor="start" x="212.5" y="-292" font-family="Helvetica,sans-Serif" font-size="10.00">repo.programs.pythonpackages.pr.</text>
<text text-anchor="middle" x="288" y="-281" font-family="Helvetica,sans-Serif" font-size="10.00">SPDataSet.SPDataSet.rawData</text>
</a>
</g>
</g>
<!-- Node1&#45;&gt;Node7 -->
<g id="edge6" class="edge"><title>Node1&#45;&gt;Node7</title>
<path fill="none" stroke="midnightblue" d="M110.175,-182.205C146.359,-204.058 213.139,-244.391 253.47,-268.749"/>
<polygon fill="midnightblue" stroke="midnightblue" points="251.773,-271.813 262.142,-273.987 255.392,-265.821 251.773,-271.813"/>
</g>
<!-- Node10 -->
<g id="node10" class="node"><title>Node10</title>
<g id="a_node10"><a xlink:href="classrepo_1_1programs_1_1pythonpackages_1_1pr_1_1SPDataSet_1_1SPDataSet.html#a9eef53392c7e7ad757cefde737a6cb69" target="_top" xlink:title="repo.programs.pythonpackages.pr.\lSPDataSet.SPDataSet.medD">
<polygon fill="white" stroke="black" points="204.5,-177 204.5,-207 371.5,-207 371.5,-177 204.5,-177"/>
<text text-anchor="start" x="212.5" y="-195" font-family="Helvetica,sans-Serif" font-size="10.00">repo.programs.pythonpackages.pr.</text>
<text text-anchor="middle" x="288" y="-184" font-family="Helvetica,sans-Serif" font-size="10.00">SPDataSet.SPDataSet.medD</text>
</a>
</g>
</g>
<!-- Node1&#45;&gt;Node10 -->
<g id="edge11" class="edge"><title>Node1&#45;&gt;Node10</title>
<path fill="none" stroke="midnightblue" d="M167.744,-177.241C176.531,-178.328 185.509,-179.439 194.399,-180.54"/>
<polygon fill="midnightblue" stroke="midnightblue" points="194.031,-184.02 204.385,-181.775 194.89,-177.073 194.031,-184.02"/>
</g>
<!-- Node12 -->
<g id="node12" class="node"><title>Node12</title>
<g id="a_node12"><a xlink:href="classrepo_1_1programs_1_1pythonpackages_1_1pr_1_1SPDataSet_1_1SPDataSet.html#a6478ef339e0e44839e478fec7340c6b0" target="_top" xlink:title="repo.programs.pythonpackages.pr.\lSPDataSet.SPDataSet.relD">
<polygon fill="white" stroke="black" points="204.5,-128 204.5,-158 371.5,-158 371.5,-128 204.5,-128"/>
<text text-anchor="start" x="212.5" y="-146" font-family="Helvetica,sans-Serif" font-size="10.00">repo.programs.pythonpackages.pr.</text>
<text text-anchor="middle" x="288" y="-135" font-family="Helvetica,sans-Serif" font-size="10.00">SPDataSet.SPDataSet.relD</text>
</a>
</g>
</g>
<!-- Node1&#45;&gt;Node12 -->
<g id="edge14" class="edge"><title>Node1&#45;&gt;Node12</title>
<path fill="none" stroke="midnightblue" d="M167.744,-157.169C176.531,-156.125 185.509,-155.058 194.399,-154.002"/>
<polygon fill="midnightblue" stroke="midnightblue" points="194.868,-157.471 204.385,-152.816 194.042,-150.52 194.868,-157.471"/>
</g>
<!-- Node13 -->
<g id="node13" class="node"><title>Node13</title>
<g id="a_node13"><a xlink:href="namespacerepo_1_1programs_1_1pythonpackages_1_1pr_1_1SPfuncs.html#af8a48b74a6d4e725e2409329126076a6" target="_top" xlink:title="Construct a set of triggers by analysing the timing for the signal. ">
<polygon fill="white" stroke="black" points="204.5,-71 204.5,-101 371.5,-101 371.5,-71 204.5,-71"/>
<text text-anchor="start" x="212.5" y="-89" font-family="Helvetica,sans-Serif" font-size="10.00">repo.programs.pythonpackages.pr.</text>
<text text-anchor="middle" x="288" y="-78" font-family="Helvetica,sans-Serif" font-size="10.00">SPfuncs.makeTriggers</text>
</a>
</g>
</g>
<!-- Node1&#45;&gt;Node13 -->
<g id="edge17" class="edge"><title>Node1&#45;&gt;Node13</title>
<path fill="none" stroke="midnightblue" d="M120.846,-151.993C144.421,-142.184 175.981,-129.168 204,-118 214.874,-113.666 226.585,-109.093 237.684,-104.803"/>
<polygon fill="midnightblue" stroke="midnightblue" points="239.171,-107.98 247.243,-101.118 236.654,-101.449 239.171,-107.98"/>
</g>
<!-- Node15 -->
<g id="node15" class="node"><title>Node15</title>
<g id="a_node15"><a xlink:href="classrepo_1_1programs_1_1pythonpackages_1_1pr_1_1SPDataSet_1_1SPDataSet.html#af6af62c7de4f7bc8f2dd223d05cf2b07" target="_top" xlink:title="repo.programs.pythonpackages.pr.\lSPDataSet.SPDataSet.rSpec">
<polygon fill="white" stroke="black" points="204.5,-5 204.5,-35 371.5,-35 371.5,-5 204.5,-5"/>
<text text-anchor="start" x="212.5" y="-23" font-family="Helvetica,sans-Serif" font-size="10.00">repo.programs.pythonpackages.pr.</text>
<text text-anchor="middle" x="288" y="-12" font-family="Helvetica,sans-Serif" font-size="10.00">SPDataSet.SPDataSet.rSpec</text>
</a>
</g>
</g>
<!-- Node1&#45;&gt;Node15 -->
<g id="edge19" class="edge"><title>Node1&#45;&gt;Node15</title>
<path fill="none" stroke="midnightblue" d="M99.3191,-151.882C120.651,-129.936 162.708,-88.8419 204,-61 215.795,-53.0467 229.357,-45.6917 242.053,-39.4721"/>
<polygon fill="midnightblue" stroke="midnightblue" points="243.589,-42.6171 251.107,-35.1515 240.574,-36.2995 243.589,-42.6171"/>
</g>
<!-- Node3 -->
<g id="node3" class="node"><title>Node3</title>
<g id="a_node3"><a xlink:href="classrepo_1_1programs_1_1pythonpackages_1_1pr_1_1SPDataSet_1_1SPDataSet.html#a1e4c1d502ec5ff9a57bf9a330a318a54" target="_top" xlink:title="repo.programs.pythonpackages.pr.\lSPDataSet.SPDataSet.splitRecArray">
<polygon fill="white" stroke="black" points="638.5,-181 638.5,-211 819.5,-211 819.5,-181 638.5,-181"/>
<text text-anchor="start" x="646.5" y="-199" font-family="Helvetica,sans-Serif" font-size="10.00">repo.programs.pythonpackages.pr.</text>
<text text-anchor="middle" x="729" y="-188" font-family="Helvetica,sans-Serif" font-size="10.00">SPDataSet.SPDataSet.splitRecArray</text>
</a>
</g>
</g>
<!-- Node2&#45;&gt;Node3 -->
<g id="edge2" class="edge"><title>Node2&#45;&gt;Node3</title>
<path fill="none" stroke="midnightblue" d="M579.54,-322.911C587.339,-320.127 594.978,-316.85 602,-313 646.167,-288.782 686.852,-245.658 709.456,-219.073"/>
<polygon fill="midnightblue" stroke="midnightblue" points="712.418,-220.987 716.141,-211.068 707.045,-216.5 712.418,-220.987"/>
</g>
<!-- Node4 -->
<g id="node4" class="node"><title>Node4</title>
<g id="a_node4"><a xlink:href="classrepo_1_1programs_1_1pythonpackages_1_1pr_1_1SPDataSet_1_1SPDataSet.html#af0f40f6c14b1ba1c8de9351a839eb511" target="_top" xlink:title="repo.programs.pythonpackages.pr.\lSPDataSet.SPDataSet.calArr">
<polygon fill="white" stroke="black" points="645.5,-323 645.5,-353 812.5,-353 812.5,-323 645.5,-323"/>
<text text-anchor="start" x="653.5" y="-341" font-family="Helvetica,sans-Serif" font-size="10.00">repo.programs.pythonpackages.pr.</text>
<text text-anchor="middle" x="729" y="-330" font-family="Helvetica,sans-Serif" font-size="10.00">SPDataSet.SPDataSet.calArr</text>
</a>
</g>
</g>
<!-- Node2&#45;&gt;Node4 -->
<g id="edge3" class="edge"><title>Node2&#45;&gt;Node4</title>
<path fill="none" stroke="midnightblue" d="M588.665,-338C603.833,-338 619.759,-338 635.201,-338"/>
<polygon fill="midnightblue" stroke="midnightblue" points="635.266,-341.5 645.266,-338 635.266,-334.5 635.266,-341.5"/>
</g>
<!-- Node5 -->
<g id="node5" class="node"><title>Node5</title>
<g id="a_node5"><a xlink:href="classrepo_1_1programs_1_1pythonpackages_1_1pr_1_1SPDataSet_1_1SPDataSet.html#a6e8c2848a25079fc869ab950445213b8" target="_top" xlink:title="repo.programs.pythonpackages.pr.\lSPDataSet.SPDataSet.zeroingD">
<polygon fill="white" stroke="black" points="856.5,-348 856.5,-378 1023.5,-378 1023.5,-348 856.5,-348"/>
<text text-anchor="start" x="864.5" y="-366" font-family="Helvetica,sans-Serif" font-size="10.00">repo.programs.pythonpackages.pr.</text>
<text text-anchor="middle" x="940" y="-355" font-family="Helvetica,sans-Serif" font-size="10.00">SPDataSet.SPDataSet.zeroingD</text>
</a>
</g>
</g>
<!-- Node4&#45;&gt;Node5 -->
<g id="edge4" class="edge"><title>Node4&#45;&gt;Node5</title>
<path fill="none" stroke="midnightblue" d="M812.602,-347.881C823.609,-349.197 834.956,-350.555 846.123,-351.89"/>
<polygon fill="midnightblue" stroke="midnightblue" points="845.968,-355.397 856.313,-353.109 846.8,-348.446 845.968,-355.397"/>
</g>
<!-- Node6 -->
<g id="node6" class="node"><title>Node6</title>
<g id="a_node6"><a xlink:href="classrepo_1_1programs_1_1pythonpackages_1_1pr_1_1SPDataSet_1_1SPDataSet.html#aa287beda17e46a3969a9321e5904eaed" target="_top" xlink:title="repo.programs.pythonpackages.pr.\lSPDataSet.SPDataSet.cBzCal">
<polygon fill="white" stroke="black" points="856.5,-299 856.5,-329 1023.5,-329 1023.5,-299 856.5,-299"/>
<text text-anchor="start" x="864.5" y="-317" font-family="Helvetica,sans-Serif" font-size="10.00">repo.programs.pythonpackages.pr.</text>
<text text-anchor="middle" x="940" y="-306" font-family="Helvetica,sans-Serif" font-size="10.00">SPDataSet.SPDataSet.cBzCal</text>
</a>
</g>
</g>
<!-- Node4&#45;&gt;Node6 -->
<g id="edge5" class="edge"><title>Node4&#45;&gt;Node6</title>
<path fill="none" stroke="midnightblue" d="M812.602,-328.515C823.609,-327.251 834.956,-325.948 846.123,-324.665"/>
<polygon fill="midnightblue" stroke="midnightblue" points="846.778,-328.113 856.313,-323.495 845.979,-321.159 846.778,-328.113"/>
</g>
<!-- Node7&#45;&gt;Node2 -->
<g id="edge7" class="edge"><title>Node7&#45;&gt;Node2</title>
<path fill="none" stroke="midnightblue" d="M354.968,-304.035C378.185,-309.326 404.456,-315.313 428.404,-320.771"/>
<polygon fill="midnightblue" stroke="midnightblue" points="427.629,-324.184 438.157,-322.994 429.184,-317.359 427.629,-324.184"/>
</g>
<!-- Node8 -->
<g id="node8" class="node"><title>Node8</title>
<g id="a_node8"><a xlink:href="classrepo_1_1programs_1_1pythonpackages_1_1pr_1_1SPDataSet_1_1SPDataSet.html#aa0b687b3c937bfb4aa71c4a09cac5eb5" target="_top" xlink:title="Names should be of the form &quot;med:Total Position Sensor 1&quot; etc. ">
<polygon fill="white" stroke="black" points="408,-274 408,-304 602,-304 602,-274 408,-274"/>
<text text-anchor="start" x="416" y="-292" font-family="Helvetica,sans-Serif" font-size="10.00">repo.programs.pythonpackages.pr.</text>
<text text-anchor="middle" x="505" y="-281" font-family="Helvetica,sans-Serif" font-size="10.00">SPDataSet.SPDataSet.getRawByName</text>
</a>
</g>
</g>
<!-- Node7&#45;&gt;Node8 -->
<g id="edge8" class="edge"><title>Node7&#45;&gt;Node8</title>
<path fill="none" stroke="midnightblue" d="M371.51,-282.415C380.021,-282.301 388.754,-282.246 397.478,-282.25"/>
<polygon fill="midnightblue" stroke="midnightblue" points="397.691,-285.751 407.702,-282.283 397.713,-278.751 397.691,-285.751"/>
</g>
<!-- Node9 -->
<g id="node9" class="node"><title>Node9</title>
<g id="a_node9"><a xlink:href="classrepo_1_1programs_1_1pythonpackages_1_1pr_1_1SPDataSet_1_1SPDataSet.html#a33ced34e094ccfd1e3891b92478613e7" target="_top" xlink:title="repo.programs.pythonpackages.pr.\lSPDataSet.SPDataSet.clearRaw">
<polygon fill="white" stroke="black" points="421.5,-225 421.5,-255 588.5,-255 588.5,-225 421.5,-225"/>
<text text-anchor="start" x="429.5" y="-243" font-family="Helvetica,sans-Serif" font-size="10.00">repo.programs.pythonpackages.pr.</text>
<text text-anchor="middle" x="505" y="-232" font-family="Helvetica,sans-Serif" font-size="10.00">SPDataSet.SPDataSet.clearRaw</text>
</a>
</g>
</g>
<!-- Node7&#45;&gt;Node9 -->
<g id="edge10" class="edge"><title>Node7&#45;&gt;Node9</title>
<path fill="none" stroke="midnightblue" d="M354.968,-273.965C378.185,-268.674 404.456,-262.687 428.404,-257.229"/>
<polygon fill="midnightblue" stroke="midnightblue" points="429.184,-260.641 438.157,-255.006 427.629,-253.816 429.184,-260.641"/>
</g>
<!-- Node8&#45;&gt;Node7 -->
<g id="edge9" class="edge"><title>Node8&#45;&gt;Node7</title>
<path fill="none" stroke="midnightblue" d="M407.702,-295.717C399.019,-295.768 390.239,-295.76 381.589,-295.692"/>
<polygon fill="midnightblue" stroke="midnightblue" points="381.546,-292.191 371.51,-295.585 381.472,-299.191 381.546,-292.191"/>
</g>
<!-- Node10&#45;&gt;Node3 -->
<g id="edge13" class="edge"><title>Node10&#45;&gt;Node3</title>
<path fill="none" stroke="midnightblue" d="M371.573,-192.752C444.309,-193.415 550.446,-194.382 627.979,-195.089"/>
<polygon fill="midnightblue" stroke="midnightblue" points="628.212,-198.591 638.243,-195.182 628.276,-191.591 628.212,-198.591"/>
</g>
<!-- Node11 -->
<g id="node11" class="node"><title>Node11</title>
<g id="a_node11"><a xlink:href="namespacerepo_1_1programs_1_1pythonpackages_1_1pr_1_1SPfuncs.html#acb6d178d4325b6c3d8fec4f8197d6819" target="_top" xlink:title="repo.programs.pythonpackages.pr.\lSPfuncs.renameFieldMaybe">
<polygon fill="white" stroke="black" points="421.5,-137 421.5,-167 588.5,-167 588.5,-137 421.5,-137"/>
<text text-anchor="start" x="429.5" y="-155" font-family="Helvetica,sans-Serif" font-size="10.00">repo.programs.pythonpackages.pr.</text>
<text text-anchor="middle" x="505" y="-144" font-family="Helvetica,sans-Serif" font-size="10.00">SPfuncs.renameFieldMaybe</text>
</a>
</g>
</g>
<!-- Node10&#45;&gt;Node11 -->
<g id="edge12" class="edge"><title>Node10&#45;&gt;Node11</title>
<path fill="none" stroke="midnightblue" d="M369.67,-176.992C383.901,-174.344 398.803,-171.572 413.288,-168.877"/>
<polygon fill="midnightblue" stroke="midnightblue" points="414.045,-172.296 423.236,-167.026 412.764,-165.414 414.045,-172.296"/>
</g>
<!-- Node12&#45;&gt;Node3 -->
<g id="edge16" class="edge"><title>Node12&#45;&gt;Node3</title>
<path fill="none" stroke="midnightblue" d="M357.325,-127.951C421.527,-116.503 519.768,-105.958 602,-127 638.152,-136.251 675.087,-158.259 699.54,-174.951"/>
<polygon fill="midnightblue" stroke="midnightblue" points="697.756,-177.975 707.959,-180.827 701.762,-172.234 697.756,-177.975"/>
</g>
<!-- Node12&#45;&gt;Node11 -->
<g id="edge15" class="edge"><title>Node12&#45;&gt;Node11</title>
<path fill="none" stroke="midnightblue" d="M371.51,-146.454C384.532,-146.999 398.073,-147.566 411.308,-148.12"/>
<polygon fill="midnightblue" stroke="midnightblue" points="411.218,-151.619 421.356,-148.54 411.511,-144.625 411.218,-151.619"/>
</g>
<!-- Node14 -->
<g id="node14" class="node"><title>Node14</title>
<g id="a_node14"><a xlink:href="namespacerepo_1_1programs_1_1pythonpackages_1_1pr_1_1SPfuncs.html#a9d03b1e8bb9325cdab8fa026d6cdbbe3" target="_top" xlink:title="repo.programs.pythonpackages.pr.\lSPfuncs.secs2sd">
<polygon fill="white" stroke="black" points="421.5,-49 421.5,-79 588.5,-79 588.5,-49 421.5,-49"/>
<text text-anchor="start" x="429.5" y="-67" font-family="Helvetica,sans-Serif" font-size="10.00">repo.programs.pythonpackages.pr.</text>
<text text-anchor="middle" x="505" y="-56" font-family="Helvetica,sans-Serif" font-size="10.00">SPfuncs.secs2sd</text>
</a>
</g>
</g>
<!-- Node13&#45;&gt;Node14 -->
<g id="edge18" class="edge"><title>Node13&#45;&gt;Node14</title>
<path fill="none" stroke="midnightblue" d="M371.51,-77.5571C384.532,-76.2246 398.073,-74.8391 411.308,-73.4848"/>
<polygon fill="midnightblue" stroke="midnightblue" points="411.764,-76.9565 421.356,-72.4566 411.051,-69.9928 411.764,-76.9565"/>
</g>
<!-- Node16 -->
<g id="node16" class="node"><title>Node16</title>
<g id="a_node16"><a xlink:href="classrepo_1_1programs_1_1pythonpackages_1_1pr_1_1SPDataSet_1_1SPDataSet.html#af17c964467367b46a56c14a8c87e84a2" target="_top" xlink:title="Property doc string!! ">
<polygon fill="white" stroke="black" points="421.5,-0 421.5,-30 588.5,-30 588.5,-0 421.5,-0"/>
<text text-anchor="start" x="429.5" y="-18" font-family="Helvetica,sans-Serif" font-size="10.00">repo.programs.pythonpackages.pr.</text>
<text text-anchor="middle" x="505" y="-7" font-family="Helvetica,sans-Serif" font-size="10.00">SPDataSet.SPDataSet.set_info</text>
</a>
</g>
</g>
<!-- Node15&#45;&gt;Node16 -->
<g id="edge20" class="edge"><title>Node15&#45;&gt;Node16</title>
<path fill="none" stroke="midnightblue" d="M371.51,-18.0812C384.532,-17.7783 398.073,-17.4634 411.308,-17.1556"/>
<polygon fill="midnightblue" stroke="midnightblue" points="411.44,-20.6536 421.356,-16.922 411.277,-13.6555 411.44,-20.6536"/>
</g>
</g>
</svg>
