<?xml version="1.0" encoding="UTF-8" standalone="no"?>
<!DOCTYPE svg PUBLIC "-//W3C//DTD SVG 1.1//EN"
 "http://www.w3.org/Graphics/SVG/1.1/DTD/svg11.dtd">
<!-- Generated by graphviz version 2.36.0 (20140111.2315)
 -->
<!-- Title: repo.programs.pythonpackages.pr.SPDataSet.SPDataSet.checkDirections Pages: 1 -->
<!--zoomable 605 -->
<svg id="main" version="1.1" xmlns="http://www.w3.org/2000/svg" xmlns:xlink="http://www.w3.org/1999/xlink" xml:space="preserve" onload="init(evt)">
<style type="text/css"><![CDATA[
.edge:hover path { stroke: red; }
.edge:hover polygon { stroke: red; fill: red; }
]]></style>
<script type="text/javascript"><![CDATA[
var edges = document.getElementsByTagName('g');
if (edges && edges.length) {
  for (var i=0;i<edges.length;i++) {
    if (edges[i].id.substr(0,4)=='edge') {
      edges[i].setAttribute('class','edge');
    }
  }
}
]]></script>
        <defs>
                <circle id="rim" cx="0" cy="0" r="7"/>
                <circle id="rim2" cx="0" cy="0" r="3.5"/>
                <g id="zoomPlus">
                        <use xlink:href="#rim" fill="#404040">
                                <set attributeName="fill" to="#808080" begin="zoomplus.mouseover" end="zoomplus.mouseout"/>
                        </use>
                        <path d="M-4,0h8M0,-4v8" fill="none" stroke="white" stroke-width="1.5" pointer-events="none"/>
                </g>
                <g id="zoomMin">
                        <use xlink:href="#rim" fill="#404040">
                                <set attributeName="fill" to="#808080" begin="zoomminus.mouseover" end="zoomminus.mouseout"/>
                        </use>
                        <path d="M-4,0h8" fill="none" stroke="white" stroke-width="1.5" pointer-events="none"/>
                </g>
                <g id="dirArrow">
                        <path fill="none" stroke="white" stroke-width="1.5" d="M0,-3.0v7 M-2.5,-0.5L0,-3.0L2.5,-0.5"/>
                </g>
               <g id="resetDef">
                       <use xlink:href="#rim2" fill="#404040">
                               <set attributeName="fill" to="#808080" begin="reset.mouseover" end="reset.mouseout"/>
                       </use>
               </g>
        </defs>

<script type="text/javascript">
var viewWidth = 2158;
var viewHeight = 605;
var sectionId = 'dynsection-8';
</script>
<script xlink:href="svgpan.js"/>
<svg id="graph" class="graph">
<g id="viewport">
<title>repo.programs.pythonpackages.pr.SPDataSet.SPDataSet.checkDirections</title>
<polygon fill="white" stroke="none" points="-4,4 -4,-601 2154,-601 2154,4 -4,4"/>
<!-- Node1 -->
<g id="node1" class="node"><title>Node1</title>
<polygon fill="#bfbfbf" stroke="black" points="0,-313 0,-343 192,-343 192,-313 0,-313"/>
<text text-anchor="start" x="8" y="-331" font-family="Helvetica,sans-Serif" font-size="10.00">repo.programs.pythonpackages.pr.</text>
<text text-anchor="middle" x="96" y="-320" font-family="Helvetica,sans-Serif" font-size="10.00">SPDataSet.SPDataSet.checkDirections</text>
</g>
<!-- Node2 -->
<g id="node2" class="node"><title>Node2</title>
<g id="a_node2"><a xlink:href="classrepo_1_1programs_1_1pythonpackages_1_1pr_1_1SPDataSet_1_1SPDataSet.html#af17c964467367b46a56c14a8c87e84a2" target="_top" xlink:title="Property doc string!! ">
<polygon fill="white" stroke="black" points="1547.5,-465 1547.5,-495 1714.5,-495 1714.5,-465 1547.5,-465"/>
<text text-anchor="start" x="1555.5" y="-483" font-family="Helvetica,sans-Serif" font-size="10.00">repo.programs.pythonpackages.pr.</text>
<text text-anchor="middle" x="1631" y="-472" font-family="Helvetica,sans-Serif" font-size="10.00">SPDataSet.SPDataSet.set_info</text>
</a>
</g>
</g>
<!-- Node1&#45;&gt;Node2 -->
<g id="edge1" class="edge"><title>Node1&#45;&gt;Node2</title>
<path fill="none" stroke="midnightblue" d="M124.61,-343.039C231.281,-399.689 628.006,-597 979,-597 979,-597 979,-597 1198,-597 1345.91,-597 1512.72,-532.308 1588.53,-499.132"/>
<polygon fill="midnightblue" stroke="midnightblue" points="1590.02,-502.301 1597.75,-495.056 1587.19,-495.899 1590.02,-502.301"/>
</g>
<!-- Node3 -->
<g id="node3" class="node"><title>Node3</title>
<g id="a_node3"><a xlink:href="classrepo_1_1programs_1_1pythonpackages_1_1pr_1_1SPDataSet_1_1SPDataSet.html#accbfa0185d4e416038e688fc9b55575b" target="_top" xlink:title="repo.programs.pythonpackages.pr.\lSPDataSet.SPDataSet.sequenceAmp">
<polygon fill="white" stroke="black" points="228,-313 228,-343 412,-343 412,-313 228,-313"/>
<text text-anchor="start" x="236" y="-331" font-family="Helvetica,sans-Serif" font-size="10.00">repo.programs.pythonpackages.pr.</text>
<text text-anchor="middle" x="320" y="-320" font-family="Helvetica,sans-Serif" font-size="10.00">SPDataSet.SPDataSet.sequenceAmp</text>
</a>
</g>
</g>
<!-- Node1&#45;&gt;Node3 -->
<g id="edge2" class="edge"><title>Node1&#45;&gt;Node3</title>
<path fill="none" stroke="midnightblue" d="M192.114,-328C200.657,-328 209.329,-328 217.92,-328"/>
<polygon fill="midnightblue" stroke="midnightblue" points="217.957,-331.5 227.957,-328 217.956,-324.5 217.957,-331.5"/>
</g>
<!-- Node6 -->
<g id="node6" class="node"><title>Node6</title>
<g id="a_node6"><a xlink:href="classrepo_1_1programs_1_1pythonpackages_1_1pr_1_1SPDataSet_1_1SPDataSet.html#afe54eeb9f41f503dc478557e4ea2c62a" target="_top" xlink:title="repo.programs.pythonpackages.pr.\lSPDataSet.SPDataSet.rawData">
<polygon fill="white" stroke="black" points="1330.5,-54 1330.5,-84 1497.5,-84 1497.5,-54 1330.5,-54"/>
<text text-anchor="start" x="1338.5" y="-72" font-family="Helvetica,sans-Serif" font-size="10.00">repo.programs.pythonpackages.pr.</text>
<text text-anchor="middle" x="1414" y="-61" font-family="Helvetica,sans-Serif" font-size="10.00">SPDataSet.SPDataSet.rawData</text>
</a>
</g>
</g>
<!-- Node1&#45;&gt;Node6 -->
<g id="edge49" class="edge"><title>Node1&#45;&gt;Node6</title>
<path fill="none" stroke="midnightblue" d="M104.374,-312.91C121.4,-279.643 166.734,-199.578 228,-157 347.486,-73.961 395.493,-61 541,-61 541,-61 541,-61 981,-61 1097.89,-61 1232.55,-63.9642 1320.03,-66.284"/>
<polygon fill="midnightblue" stroke="midnightblue" points="1320.1,-69.7871 1330.19,-66.5563 1320.29,-62.7897 1320.1,-69.7871"/>
</g>
<!-- Node16 -->
<g id="node16" class="node"><title>Node16</title>
<g id="a_node16"><a xlink:href="classrepo_1_1programs_1_1pythonpackages_1_1pr_1_1SPDataSet_1_1SPDataSet.html#a14656e508d81193e8c71c09d9444e15f" target="_top" xlink:title="repo.programs.pythonpackages.pr.\lSPDataSet.SPDataSet.trigTimes">
<polygon fill="white" stroke="black" points="1113.5,-240 1113.5,-270 1280.5,-270 1280.5,-240 1113.5,-240"/>
<text text-anchor="start" x="1121.5" y="-258" font-family="Helvetica,sans-Serif" font-size="10.00">repo.programs.pythonpackages.pr.</text>
<text text-anchor="middle" x="1197" y="-247" font-family="Helvetica,sans-Serif" font-size="10.00">SPDataSet.SPDataSet.trigTimes</text>
</a>
</g>
</g>
<!-- Node1&#45;&gt;Node16 -->
<g id="edge51" class="edge"><title>Node1&#45;&gt;Node16</title>
<path fill="none" stroke="midnightblue" d="M116.496,-312.693C176.243,-267.369 363.524,-137 541,-137 541,-137 541,-137 767,-137 899.191,-137 940.09,-106.946 1064,-153 1109.07,-169.752 1151.2,-207.679 1175.25,-232.268"/>
<polygon fill="midnightblue" stroke="midnightblue" points="1172.96,-234.936 1182.4,-239.739 1178.02,-230.095 1172.96,-234.936"/>
</g>
<!-- Node23 -->
<g id="node23" class="node"><title>Node23</title>
<g id="a_node23"><a xlink:href="classrepo_1_1programs_1_1pythonpackages_1_1pr_1_1SPDataSet_1_1SPDataSet.html#aee6249fe272c46f07d0f2f32f6c188d2" target="_top" xlink:title="repo.programs.pythonpackages.pr.\lSPDataSet.SPDataSet.apparatusAngles">
<polygon fill="white" stroke="black" points="1100,-410 1100,-440 1294,-440 1294,-410 1100,-410"/>
<text text-anchor="start" x="1108" y="-428" font-family="Helvetica,sans-Serif" font-size="10.00">repo.programs.pythonpackages.pr.</text>
<text text-anchor="middle" x="1197" y="-417" font-family="Helvetica,sans-Serif" font-size="10.00">SPDataSet.SPDataSet.apparatusAngles</text>
</a>
</g>
</g>
<!-- Node1&#45;&gt;Node23 -->
<g id="edge50" class="edge"><title>Node1&#45;&gt;Node23</title>
<path fill="none" stroke="midnightblue" d="M136.25,-343.041C161.969,-352.28 196.532,-363.546 228,-370 520.045,-429.896 598.143,-418.39 896,-431 960.197,-433.718 1032.18,-432.424 1089.53,-430.353"/>
<polygon fill="midnightblue" stroke="midnightblue" points="1089.84,-433.844 1099.7,-429.972 1089.58,-426.849 1089.84,-433.844"/>
</g>
<!-- Node3&#45;&gt;Node2 -->
<g id="edge3" class="edge"><title>Node3&#45;&gt;Node2</title>
<path fill="none" stroke="midnightblue" d="M351.07,-343.115C376.358,-355.253 413.763,-371.887 448,-382 827.07,-493.968 934.852,-486.556 1330,-496 1404.65,-497.784 1423.47,-500.501 1498,-496 1510.76,-495.229 1524.18,-494.043 1537.37,-492.658"/>
<polygon fill="midnightblue" stroke="midnightblue" points="1537.84,-496.127 1547.4,-491.563 1537.08,-489.169 1537.84,-496.127"/>
</g>
<!-- Node3&#45;&gt;Node3 -->
<g id="edge48" class="edge"><title>Node3&#45;&gt;Node3</title>
<path fill="none" stroke="midnightblue" d="M280.977,-343.275C272.305,-352.406 285.312,-361 320,-361 340.596,-361 353.548,-357.97 358.858,-353.598"/>
<polygon fill="midnightblue" stroke="midnightblue" points="362.363,-353.33 359.023,-343.275 355.364,-353.218 362.363,-353.33"/>
</g>
<!-- Node4 -->
<g id="node4" class="node"><title>Node4</title>
<g id="a_node4"><a xlink:href="classrepo_1_1programs_1_1pythonpackages_1_1pr_1_1SPDataSet_1_1SPDataSet.html#a2b09966d9ad35b39ea13988a7c361df6" target="_top" xlink:title="Assume it&#39;s a continuously rotating sample. ">
<polygon fill="white" stroke="black" points="672,-166 672,-196 860,-196 860,-166 672,-166"/>
<text text-anchor="start" x="680" y="-184" font-family="Helvetica,sans-Serif" font-size="10.00">repo.programs.pythonpackages.pr.</text>
<text text-anchor="middle" x="766" y="-173" font-family="Helvetica,sans-Serif" font-size="10.00">SPDataSet.SPDataSet.seqAmpFitSplit</text>
</a>
</g>
</g>
<!-- Node3&#45;&gt;Node4 -->
<g id="edge4" class="edge"><title>Node3&#45;&gt;Node4</title>
<path fill="none" stroke="midnightblue" d="M332.345,-312.925C352.46,-287.483 397.085,-236.592 448,-214 515.092,-184.23 597.77,-176.452 661.866,-175.867"/>
<polygon fill="midnightblue" stroke="midnightblue" points="662,-179.367 671.988,-175.833 661.977,-172.367 662,-179.367"/>
</g>
<!-- Node5 -->
<g id="node5" class="node"><title>Node5</title>
<g id="a_node5"><a xlink:href="namespacerepo_1_1programs_1_1pythonpackages_1_1pr_1_1SPDataSet.html#a9d0e07e3e1f4360be4f8c59927abe142" target="_top" xlink:title="Helpful for calling work_func(following_func(**remaining_args), **work_args)) work_args are the entri...">
<polygon fill="white" stroke="black" points="896.5,-204 896.5,-234 1063.5,-234 1063.5,-204 896.5,-204"/>
<text text-anchor="start" x="904.5" y="-222" font-family="Helvetica,sans-Serif" font-size="10.00">repo.programs.pythonpackages.pr.</text>
<text text-anchor="middle" x="980" y="-211" font-family="Helvetica,sans-Serif" font-size="10.00">SPDataSet.divide_args</text>
</a>
</g>
</g>
<!-- Node3&#45;&gt;Node5 -->
<g id="edge16" class="edge"><title>Node3&#45;&gt;Node5</title>
<path fill="none" stroke="midnightblue" d="M356.292,-312.964C381.468,-302.728 416.335,-289.54 448,-281 597.968,-240.557 778.783,-226.495 886.027,-221.606"/>
<polygon fill="midnightblue" stroke="midnightblue" points="886.335,-225.096 896.172,-221.161 886.028,-218.102 886.335,-225.096"/>
</g>
<!-- Node14 -->
<g id="node14" class="node"><title>Node14</title>
<g id="a_node14"><a xlink:href="classrepo_1_1programs_1_1pythonpackages_1_1pr_1_1SPDataSet_1_1SPDataSet.html#a6f2c3de2aa708d686f5835f10e2d096d" target="_top" xlink:title="repo.programs.pythonpackages.pr.\lSPDataSet.SPDataSet.pointAmp">
<polygon fill="white" stroke="black" points="682.5,-335 682.5,-365 849.5,-365 849.5,-335 682.5,-335"/>
<text text-anchor="start" x="690.5" y="-353" font-family="Helvetica,sans-Serif" font-size="10.00">repo.programs.pythonpackages.pr.</text>
<text text-anchor="middle" x="766" y="-342" font-family="Helvetica,sans-Serif" font-size="10.00">SPDataSet.SPDataSet.pointAmp</text>
</a>
</g>
</g>
<!-- Node3&#45;&gt;Node14 -->
<g id="edge17" class="edge"><title>Node3&#45;&gt;Node14</title>
<path fill="none" stroke="midnightblue" d="M412.19,-332.518C488.089,-336.279 595.699,-341.611 672.076,-345.396"/>
<polygon fill="midnightblue" stroke="midnightblue" points="672.008,-348.896 682.169,-345.896 672.355,-341.905 672.008,-348.896"/>
</g>
<!-- Node3&#45;&gt;Node23 -->
<g id="edge47" class="edge"><title>Node3&#45;&gt;Node23</title>
<path fill="none" stroke="midnightblue" d="M393.051,-343.036C410.962,-346.538 430.146,-350.09 448,-353 646.158,-385.295 695.999,-393.417 896,-411 960.187,-416.643 1032.31,-420.1 1089.76,-422.167"/>
<polygon fill="midnightblue" stroke="midnightblue" points="1089.82,-425.672 1099.94,-422.525 1090.07,-418.676 1089.82,-425.672"/>
</g>
<!-- Node26 -->
<g id="node26" class="node"><title>Node26</title>
<g id="a_node26"><a xlink:href="classrepo_1_1programs_1_1pythonpackages_1_1pr_1_1SPDataSet_1_1SPDataSet.html#a9eac955cac12a62b72d189aa80b82ec6" target="_top" xlink:title="repo.programs.pythonpackages.pr.\lSPDataSet.SPDataSet.filteredCutAmp">
<polygon fill="white" stroke="black" points="448.5,-291 448.5,-321 635.5,-321 635.5,-291 448.5,-291"/>
<text text-anchor="start" x="456.5" y="-309" font-family="Helvetica,sans-Serif" font-size="10.00">repo.programs.pythonpackages.pr.</text>
<text text-anchor="middle" x="542" y="-298" font-family="Helvetica,sans-Serif" font-size="10.00">SPDataSet.SPDataSet.filteredCutAmp</text>
</a>
</g>
</g>
<!-- Node3&#45;&gt;Node26 -->
<g id="edge42" class="edge"><title>Node3&#45;&gt;Node26</title>
<path fill="none" stroke="midnightblue" d="M412.07,-318.893C420.652,-318.035 429.392,-317.161 438.072,-316.293"/>
<polygon fill="midnightblue" stroke="midnightblue" points="438.621,-319.755 448.223,-315.278 437.924,-312.79 438.621,-319.755"/>
</g>
<!-- Node4&#45;&gt;Node2 -->
<g id="edge15" class="edge"><title>Node4&#45;&gt;Node2</title>
<path fill="none" stroke="midnightblue" d="M828.454,-165.958C893.075,-153.891 994.793,-145.943 1064,-194 1097.7,-217.4 1068.71,-252.463 1100,-279 1169.38,-337.85 1427.83,-317.091 1498,-375 1527.76,-399.559 1504.58,-429.029 1534,-454 1536.42,-456.057 1538.99,-457.952 1541.68,-459.699"/>
<polygon fill="midnightblue" stroke="midnightblue" points="1540.18,-462.873 1550.6,-464.786 1543.65,-456.792 1540.18,-462.873"/>
</g>
<!-- Node4&#45;&gt;Node5 -->
<g id="edge5" class="edge"><title>Node4&#45;&gt;Node5</title>
<path fill="none" stroke="midnightblue" d="M850.788,-196.019C862.452,-198.109 874.492,-200.267 886.308,-202.385"/>
<polygon fill="midnightblue" stroke="midnightblue" points="885.706,-205.833 896.167,-204.153 886.942,-198.943 885.706,-205.833"/>
</g>
<!-- Node4&#45;&gt;Node6 -->
<g id="edge6" class="edge"><title>Node4&#45;&gt;Node6</title>
<path fill="none" stroke="midnightblue" d="M853.787,-165.953C975.486,-144.854 1195.89,-106.642 1320.56,-85.0268"/>
<polygon fill="midnightblue" stroke="midnightblue" points="1321.22,-88.4647 1330.47,-83.3078 1320.02,-81.5676 1321.22,-88.4647"/>
</g>
<!-- Node7 -->
<g id="node7" class="node"><title>Node7</title>
<g id="a_node7"><a xlink:href="classrepo_1_1programs_1_1pythonpackages_1_1pr_1_1SPDataSet_1_1SPDataSet.html#aa400ad81219e782fe2e29e852b20bb28" target="_top" xlink:title="repo.programs.pythonpackages.pr.\lSPDataSet.SPDataSet.fastD">
<polygon fill="white" stroke="black" points="1547.5,-98 1547.5,-128 1714.5,-128 1714.5,-98 1547.5,-98"/>
<text text-anchor="start" x="1555.5" y="-116" font-family="Helvetica,sans-Serif" font-size="10.00">repo.programs.pythonpackages.pr.</text>
<text text-anchor="middle" x="1631" y="-105" font-family="Helvetica,sans-Serif" font-size="10.00">SPDataSet.SPDataSet.fastD</text>
</a>
</g>
</g>
<!-- Node6&#45;&gt;Node7 -->
<g id="edge7" class="edge"><title>Node6&#45;&gt;Node7</title>
<path fill="none" stroke="midnightblue" d="M1488.39,-84.0192C1507.14,-87.8564 1527.43,-92.0097 1546.64,-95.9411"/>
<polygon fill="midnightblue" stroke="midnightblue" points="1546.08,-99.3977 1556.58,-97.9738 1547.48,-92.5398 1546.08,-99.3977"/>
</g>
<!-- Node12 -->
<g id="node12" class="node"><title>Node12</title>
<g id="a_node12"><a xlink:href="classrepo_1_1programs_1_1pythonpackages_1_1pr_1_1SPDataSet_1_1SPDataSet.html#aa0b687b3c937bfb4aa71c4a09cac5eb5" target="_top" xlink:title="Names should be of the form &quot;med:Total Position Sensor 1&quot; etc. ">
<polygon fill="white" stroke="black" points="1534,-0 1534,-30 1728,-30 1728,-0 1534,-0"/>
<text text-anchor="start" x="1542" y="-18" font-family="Helvetica,sans-Serif" font-size="10.00">repo.programs.pythonpackages.pr.</text>
<text text-anchor="middle" x="1631" y="-7" font-family="Helvetica,sans-Serif" font-size="10.00">SPDataSet.SPDataSet.getRawByName</text>
</a>
</g>
</g>
<!-- Node6&#45;&gt;Node12 -->
<g id="edge12" class="edge"><title>Node6&#45;&gt;Node12</title>
<path fill="none" stroke="midnightblue" d="M1445.82,-53.8489C1467.13,-47.017 1496.45,-39.4575 1523.71,-32.5861"/>
<polygon fill="midnightblue" stroke="midnightblue" points="1524.8,-35.9211 1533.65,-30.0882 1523.1,-29.1324 1524.8,-35.9211"/>
</g>
<!-- Node13 -->
<g id="node13" class="node"><title>Node13</title>
<g id="a_node13"><a xlink:href="classrepo_1_1programs_1_1pythonpackages_1_1pr_1_1SPDataSet_1_1SPDataSet.html#a33ced34e094ccfd1e3891b92478613e7" target="_top" xlink:title="repo.programs.pythonpackages.pr.\lSPDataSet.SPDataSet.clearRaw">
<polygon fill="white" stroke="black" points="1547.5,-49 1547.5,-79 1714.5,-79 1714.5,-49 1547.5,-49"/>
<text text-anchor="start" x="1555.5" y="-67" font-family="Helvetica,sans-Serif" font-size="10.00">repo.programs.pythonpackages.pr.</text>
<text text-anchor="middle" x="1631" y="-56" font-family="Helvetica,sans-Serif" font-size="10.00">SPDataSet.SPDataSet.clearRaw</text>
</a>
</g>
</g>
<!-- Node6&#45;&gt;Node13 -->
<g id="edge14" class="edge"><title>Node6&#45;&gt;Node13</title>
<path fill="none" stroke="midnightblue" d="M1497.51,-67.0812C1510.53,-66.7783 1524.07,-66.4634 1537.31,-66.1556"/>
<polygon fill="midnightblue" stroke="midnightblue" points="1537.44,-69.6536 1547.36,-65.922 1537.28,-62.6555 1537.44,-69.6536"/>
</g>
<!-- Node8 -->
<g id="node8" class="node"><title>Node8</title>
<g id="a_node8"><a xlink:href="classrepo_1_1programs_1_1pythonpackages_1_1pr_1_1SPDataSet_1_1SPDataSet.html#a1e4c1d502ec5ff9a57bf9a330a318a54" target="_top" xlink:title="repo.programs.pythonpackages.pr.\lSPDataSet.SPDataSet.splitRecArray">
<polygon fill="white" stroke="black" points="1764.5,-191 1764.5,-221 1945.5,-221 1945.5,-191 1764.5,-191"/>
<text text-anchor="start" x="1772.5" y="-209" font-family="Helvetica,sans-Serif" font-size="10.00">repo.programs.pythonpackages.pr.</text>
<text text-anchor="middle" x="1855" y="-198" font-family="Helvetica,sans-Serif" font-size="10.00">SPDataSet.SPDataSet.splitRecArray</text>
</a>
</g>
</g>
<!-- Node7&#45;&gt;Node8 -->
<g id="edge8" class="edge"><title>Node7&#45;&gt;Node8</title>
<path fill="none" stroke="midnightblue" d="M1701.11,-128.007C1710.27,-130.653 1719.44,-133.651 1728,-137 1761.51,-150.113 1797.27,-170.362 1822.1,-185.539"/>
<polygon fill="midnightblue" stroke="midnightblue" points="1820.38,-188.593 1830.73,-190.878 1824.07,-182.64 1820.38,-188.593"/>
</g>
<!-- Node9 -->
<g id="node9" class="node"><title>Node9</title>
<g id="a_node9"><a xlink:href="classrepo_1_1programs_1_1pythonpackages_1_1pr_1_1SPDataSet_1_1SPDataSet.html#af0f40f6c14b1ba1c8de9351a839eb511" target="_top" xlink:title="repo.programs.pythonpackages.pr.\lSPDataSet.SPDataSet.calArr">
<polygon fill="white" stroke="black" points="1771.5,-98 1771.5,-128 1938.5,-128 1938.5,-98 1771.5,-98"/>
<text text-anchor="start" x="1779.5" y="-116" font-family="Helvetica,sans-Serif" font-size="10.00">repo.programs.pythonpackages.pr.</text>
<text text-anchor="middle" x="1855" y="-105" font-family="Helvetica,sans-Serif" font-size="10.00">SPDataSet.SPDataSet.calArr</text>
</a>
</g>
</g>
<!-- Node7&#45;&gt;Node9 -->
<g id="edge9" class="edge"><title>Node7&#45;&gt;Node9</title>
<path fill="none" stroke="midnightblue" d="M1714.66,-113C1729.83,-113 1745.76,-113 1761.2,-113"/>
<polygon fill="midnightblue" stroke="midnightblue" points="1761.27,-116.5 1771.27,-113 1761.27,-109.5 1761.27,-116.5"/>
</g>
<!-- Node10 -->
<g id="node10" class="node"><title>Node10</title>
<g id="a_node10"><a xlink:href="classrepo_1_1programs_1_1pythonpackages_1_1pr_1_1SPDataSet_1_1SPDataSet.html#a6e8c2848a25079fc869ab950445213b8" target="_top" xlink:title="repo.programs.pythonpackages.pr.\lSPDataSet.SPDataSet.zeroingD">
<polygon fill="white" stroke="black" points="1982.5,-123 1982.5,-153 2149.5,-153 2149.5,-123 1982.5,-123"/>
<text text-anchor="start" x="1990.5" y="-141" font-family="Helvetica,sans-Serif" font-size="10.00">repo.programs.pythonpackages.pr.</text>
<text text-anchor="middle" x="2066" y="-130" font-family="Helvetica,sans-Serif" font-size="10.00">SPDataSet.SPDataSet.zeroingD</text>
</a>
</g>
</g>
<!-- Node9&#45;&gt;Node10 -->
<g id="edge10" class="edge"><title>Node9&#45;&gt;Node10</title>
<path fill="none" stroke="midnightblue" d="M1938.6,-122.881C1949.61,-124.197 1960.96,-125.555 1972.12,-126.89"/>
<polygon fill="midnightblue" stroke="midnightblue" points="1971.97,-130.397 1982.31,-128.109 1972.8,-123.446 1971.97,-130.397"/>
</g>
<!-- Node11 -->
<g id="node11" class="node"><title>Node11</title>
<g id="a_node11"><a xlink:href="classrepo_1_1programs_1_1pythonpackages_1_1pr_1_1SPDataSet_1_1SPDataSet.html#aa287beda17e46a3969a9321e5904eaed" target="_top" xlink:title="repo.programs.pythonpackages.pr.\lSPDataSet.SPDataSet.cBzCal">
<polygon fill="white" stroke="black" points="1982.5,-74 1982.5,-104 2149.5,-104 2149.5,-74 1982.5,-74"/>
<text text-anchor="start" x="1990.5" y="-92" font-family="Helvetica,sans-Serif" font-size="10.00">repo.programs.pythonpackages.pr.</text>
<text text-anchor="middle" x="2066" y="-81" font-family="Helvetica,sans-Serif" font-size="10.00">SPDataSet.SPDataSet.cBzCal</text>
</a>
</g>
</g>
<!-- Node9&#45;&gt;Node11 -->
<g id="edge11" class="edge"><title>Node9&#45;&gt;Node11</title>
<path fill="none" stroke="midnightblue" d="M1938.6,-103.515C1949.61,-102.251 1960.96,-100.948 1972.12,-99.6653"/>
<polygon fill="midnightblue" stroke="midnightblue" points="1972.78,-103.113 1982.31,-98.4951 1971.98,-96.1589 1972.78,-103.113"/>
</g>
<!-- Node12&#45;&gt;Node6 -->
<g id="edge13" class="edge"><title>Node12&#45;&gt;Node6</title>
<path fill="none" stroke="midnightblue" d="M1600.59,-30.047C1581.58,-36.0817 1556.33,-42.3946 1534,-48 1525.35,-50.1716 1516.35,-52.4352 1507.34,-54.6632"/>
<polygon fill="midnightblue" stroke="midnightblue" points="1506.45,-51.2765 1497.58,-57.0608 1508.12,-58.0745 1506.45,-51.2765"/>
</g>
<!-- Node14&#45;&gt;Node2 -->
<g id="edge18" class="edge"><title>Node14&#45;&gt;Node2</title>
<path fill="none" stroke="midnightblue" d="M849.654,-352.347C1029.04,-357.995 1442.45,-374.208 1498,-405 1521.64,-418.101 1511.71,-438.723 1534,-454 1537.53,-456.416 1541.27,-458.608 1545.15,-460.596"/>
<polygon fill="midnightblue" stroke="midnightblue" points="1543.88,-463.866 1554.43,-464.877 1546.81,-457.51 1543.88,-463.866"/>
</g>
<!-- Node14&#45;&gt;Node5 -->
<g id="edge20" class="edge"><title>Node14&#45;&gt;Node5</title>
<path fill="none" stroke="midnightblue" d="M788.458,-334.901C807.573,-321.258 836.13,-300.401 860,-281 876.612,-267.498 877.603,-259.946 896,-249 902.927,-244.878 910.513,-241.184 918.193,-237.914"/>
<polygon fill="midnightblue" stroke="midnightblue" points="919.602,-241.12 927.571,-234.138 916.987,-234.627 919.602,-241.12"/>
</g>
<!-- Node14&#45;&gt;Node6 -->
<g id="edge19" class="edge"><title>Node14&#45;&gt;Node6</title>
<path fill="none" stroke="midnightblue" d="M791.329,-334.736C816.629,-319.456 857.804,-296.229 896,-282 967.83,-255.241 1001.34,-287.149 1064,-243 1088.19,-225.958 1076.69,-205.227 1100,-187 1171.74,-130.895 1209.58,-155.166 1294,-121 1310.4,-114.362 1313.84,-111.217 1330,-104 1341.94,-98.665 1354.94,-93.08 1367.03,-87.9778"/>
<polygon fill="midnightblue" stroke="midnightblue" points="1368.63,-91.1026 1376.5,-84.0035 1365.92,-84.6486 1368.63,-91.1026"/>
</g>
<!-- Node15 -->
<g id="node15" class="node"><title>Node15</title>
<g id="a_node15"><a xlink:href="classrepo_1_1programs_1_1pythonpackages_1_1pr_1_1SPDataSet_1_1SPDataSet.html#a5b12a3d9fdb93ccbf79a6b7a7893be3f" target="_top" xlink:title="repo.programs.pythonpackages.pr.\lSPDataSet.SPDataSet.cutAmp">
<polygon fill="white" stroke="black" points="896.5,-292 896.5,-322 1063.5,-322 1063.5,-292 896.5,-292"/>
<text text-anchor="start" x="904.5" y="-310" font-family="Helvetica,sans-Serif" font-size="10.00">repo.programs.pythonpackages.pr.</text>
<text text-anchor="middle" x="980" y="-299" font-family="Helvetica,sans-Serif" font-size="10.00">SPDataSet.SPDataSet.cutAmp</text>
</a>
</g>
</g>
<!-- Node14&#45;&gt;Node15 -->
<g id="edge21" class="edge"><title>Node14&#45;&gt;Node15</title>
<path fill="none" stroke="midnightblue" d="M841.147,-334.961C858.415,-331.458 876.926,-327.704 894.601,-324.119"/>
<polygon fill="midnightblue" stroke="midnightblue" points="895.79,-327.449 904.895,-322.031 894.398,-320.589 895.79,-327.449"/>
</g>
<!-- Node14&#45;&gt;Node23 -->
<g id="edge41" class="edge"><title>Node14&#45;&gt;Node23</title>
<path fill="none" stroke="midnightblue" d="M820.358,-365.072C843.478,-371.232 870.939,-378.056 896,-383 959.885,-395.603 1032.15,-405.839 1089.75,-413.051"/>
<polygon fill="midnightblue" stroke="midnightblue" points="1089.6,-416.56 1099.96,-414.317 1090.46,-409.613 1089.6,-416.56"/>
</g>
<!-- Node15&#45;&gt;Node6 -->
<g id="edge22" class="edge"><title>Node15&#45;&gt;Node6</title>
<path fill="none" stroke="midnightblue" d="M1036.81,-291.826C1046.37,-287.862 1055.84,-282.974 1064,-277 1085.23,-261.456 1077.81,-244.147 1100,-230 1174.46,-182.518 1225.88,-243.205 1294,-187 1325.02,-161.41 1301.42,-132.287 1330,-104 1336.07,-97.9904 1343.33,-92.9518 1350.99,-88.7436"/>
<polygon fill="midnightblue" stroke="midnightblue" points="1352.75,-91.7786 1360.13,-84.1764 1349.62,-85.5174 1352.75,-91.7786"/>
</g>
<!-- Node15&#45;&gt;Node15 -->
<g id="edge36" class="edge"><title>Node15&#45;&gt;Node15</title>
<path fill="none" stroke="midnightblue" d="M942.383,-322.275C934.023,-331.406 946.562,-340 980,-340 999.854,-340 1012.34,-336.97 1017.46,-332.598"/>
<polygon fill="midnightblue" stroke="midnightblue" points="1020.96,-332.328 1017.62,-322.275 1013.96,-332.22 1020.96,-332.328"/>
</g>
<!-- Node15&#45;&gt;Node16 -->
<g id="edge23" class="edge"><title>Node15&#45;&gt;Node16</title>
<path fill="none" stroke="midnightblue" d="M1043.19,-291.959C1068.48,-285.842 1097.87,-278.734 1124.08,-272.395"/>
<polygon fill="midnightblue" stroke="midnightblue" points="1125.06,-275.76 1133.95,-270.007 1123.41,-268.956 1125.06,-275.76"/>
</g>
<!-- Node15&#45;&gt;Node23 -->
<g id="edge37" class="edge"><title>Node15&#45;&gt;Node23</title>
<path fill="none" stroke="midnightblue" d="M1008.67,-322.185C1047.13,-343.294 1116.82,-381.544 1159.5,-404.969"/>
<polygon fill="midnightblue" stroke="midnightblue" points="1157.99,-408.13 1168.44,-409.873 1161.36,-401.994 1157.99,-408.13"/>
</g>
<!-- Node16&#45;&gt;Node6 -->
<g id="edge25" class="edge"><title>Node16&#45;&gt;Node6</title>
<path fill="none" stroke="midnightblue" d="M1273.07,-239.889C1280.82,-236.003 1288.02,-231.124 1294,-225 1334.67,-183.314 1290.25,-141.569 1330,-99 1333.5,-95.2465 1337.51,-91.9616 1341.84,-89.087"/>
<polygon fill="midnightblue" stroke="midnightblue" points="1343.6,-92.1075 1350.48,-84.0492 1340.08,-86.0591 1343.6,-92.1075"/>
</g>
<!-- Node16&#45;&gt;Node7 -->
<g id="edge24" class="edge"><title>Node16&#45;&gt;Node7</title>
<path fill="none" stroke="midnightblue" d="M1271.58,-239.802C1279.78,-235.935 1287.5,-231.084 1294,-225 1326.36,-194.718 1294.25,-158.196 1330,-132 1361.98,-108.569 1461.66,-106.257 1537.43,-108.25"/>
<polygon fill="midnightblue" stroke="midnightblue" points="1537.38,-111.75 1547.48,-108.543 1537.59,-104.753 1537.38,-111.75"/>
</g>
<!-- Node17 -->
<g id="node17" class="node"><title>Node17</title>
<g id="a_node17"><a xlink:href="classrepo_1_1programs_1_1pythonpackages_1_1pr_1_1SPDataSet_1_1SPDataSet.html#a9eef53392c7e7ad757cefde737a6cb69" target="_top" xlink:title="repo.programs.pythonpackages.pr.\lSPDataSet.SPDataSet.medD">
<polygon fill="white" stroke="black" points="1330.5,-240 1330.5,-270 1497.5,-270 1497.5,-240 1330.5,-240"/>
<text text-anchor="start" x="1338.5" y="-258" font-family="Helvetica,sans-Serif" font-size="10.00">repo.programs.pythonpackages.pr.</text>
<text text-anchor="middle" x="1414" y="-247" font-family="Helvetica,sans-Serif" font-size="10.00">SPDataSet.SPDataSet.medD</text>
</a>
</g>
</g>
<!-- Node16&#45;&gt;Node17 -->
<g id="edge26" class="edge"><title>Node16&#45;&gt;Node17</title>
<path fill="none" stroke="midnightblue" d="M1280.51,-255C1293.53,-255 1307.07,-255 1320.31,-255"/>
<polygon fill="midnightblue" stroke="midnightblue" points="1320.36,-258.5 1330.36,-255 1320.36,-251.5 1320.36,-258.5"/>
</g>
<!-- Node19 -->
<g id="node19" class="node"><title>Node19</title>
<g id="a_node19"><a xlink:href="classrepo_1_1programs_1_1pythonpackages_1_1pr_1_1SPDataSet_1_1SPDataSet.html#a6478ef339e0e44839e478fec7340c6b0" target="_top" xlink:title="repo.programs.pythonpackages.pr.\lSPDataSet.SPDataSet.relD">
<polygon fill="white" stroke="black" points="1330.5,-191 1330.5,-221 1497.5,-221 1497.5,-191 1330.5,-191"/>
<text text-anchor="start" x="1338.5" y="-209" font-family="Helvetica,sans-Serif" font-size="10.00">repo.programs.pythonpackages.pr.</text>
<text text-anchor="middle" x="1414" y="-198" font-family="Helvetica,sans-Serif" font-size="10.00">SPDataSet.SPDataSet.relD</text>
</a>
</g>
</g>
<!-- Node16&#45;&gt;Node19 -->
<g id="edge29" class="edge"><title>Node16&#45;&gt;Node19</title>
<path fill="none" stroke="midnightblue" d="M1263.97,-239.965C1287.19,-234.674 1313.46,-228.687 1337.4,-223.229"/>
<polygon fill="midnightblue" stroke="midnightblue" points="1338.18,-226.641 1347.16,-221.006 1336.63,-219.816 1338.18,-226.641"/>
</g>
<!-- Node20 -->
<g id="node20" class="node"><title>Node20</title>
<g id="a_node20"><a xlink:href="namespacerepo_1_1programs_1_1pythonpackages_1_1pr_1_1SPfuncs.html#af8a48b74a6d4e725e2409329126076a6" target="_top" xlink:title="Construct a set of triggers by analysing the timing for the signal. ">
<polygon fill="white" stroke="black" points="1330.5,-142 1330.5,-172 1497.5,-172 1497.5,-142 1330.5,-142"/>
<text text-anchor="start" x="1338.5" y="-160" font-family="Helvetica,sans-Serif" font-size="10.00">repo.programs.pythonpackages.pr.</text>
<text text-anchor="middle" x="1414" y="-149" font-family="Helvetica,sans-Serif" font-size="10.00">SPfuncs.makeTriggers</text>
</a>
</g>
</g>
<!-- Node16&#45;&gt;Node20 -->
<g id="edge32" class="edge"><title>Node16&#45;&gt;Node20</title>
<path fill="none" stroke="midnightblue" d="M1264.13,-239.96C1274.61,-236.021 1284.96,-231.108 1294,-225 1314.94,-210.859 1308.91,-194.916 1330,-181 1332.46,-179.374 1335.04,-177.855 1337.7,-176.438"/>
<polygon fill="midnightblue" stroke="midnightblue" points="1339.48,-179.467 1346.99,-172 1336.46,-173.151 1339.48,-179.467"/>
</g>
<!-- Node22 -->
<g id="node22" class="node"><title>Node22</title>
<g id="a_node22"><a xlink:href="classrepo_1_1programs_1_1pythonpackages_1_1pr_1_1SPDataSet_1_1SPDataSet.html#af6af62c7de4f7bc8f2dd223d05cf2b07" target="_top" xlink:title="repo.programs.pythonpackages.pr.\lSPDataSet.SPDataSet.rSpec">
<polygon fill="white" stroke="black" points="1330.5,-289 1330.5,-319 1497.5,-319 1497.5,-289 1330.5,-289"/>
<text text-anchor="start" x="1338.5" y="-307" font-family="Helvetica,sans-Serif" font-size="10.00">repo.programs.pythonpackages.pr.</text>
<text text-anchor="middle" x="1414" y="-296" font-family="Helvetica,sans-Serif" font-size="10.00">SPDataSet.SPDataSet.rSpec</text>
</a>
</g>
</g>
<!-- Node16&#45;&gt;Node22 -->
<g id="edge34" class="edge"><title>Node16&#45;&gt;Node22</title>
<path fill="none" stroke="midnightblue" d="M1263.97,-270.035C1287.19,-275.326 1313.46,-281.313 1337.4,-286.771"/>
<polygon fill="midnightblue" stroke="midnightblue" points="1336.63,-290.184 1347.16,-288.994 1338.18,-283.359 1336.63,-290.184"/>
</g>
<!-- Node17&#45;&gt;Node8 -->
<g id="edge28" class="edge"><title>Node17&#45;&gt;Node8</title>
<path fill="none" stroke="midnightblue" d="M1478.41,-270.012C1542.4,-282.579 1643.55,-295.334 1728,-274 1763.85,-264.945 1800.57,-243.458 1825.05,-227.042"/>
<polygon fill="midnightblue" stroke="midnightblue" points="1827.23,-229.796 1833.5,-221.255 1823.27,-224.022 1827.23,-229.796"/>
</g>
<!-- Node18 -->
<g id="node18" class="node"><title>Node18</title>
<g id="a_node18"><a xlink:href="namespacerepo_1_1programs_1_1pythonpackages_1_1pr_1_1SPfuncs.html#acb6d178d4325b6c3d8fec4f8197d6819" target="_top" xlink:title="repo.programs.pythonpackages.pr.\lSPfuncs.renameFieldMaybe">
<polygon fill="white" stroke="black" points="1547.5,-235 1547.5,-265 1714.5,-265 1714.5,-235 1547.5,-235"/>
<text text-anchor="start" x="1555.5" y="-253" font-family="Helvetica,sans-Serif" font-size="10.00">repo.programs.pythonpackages.pr.</text>
<text text-anchor="middle" x="1631" y="-242" font-family="Helvetica,sans-Serif" font-size="10.00">SPfuncs.renameFieldMaybe</text>
</a>
</g>
</g>
<!-- Node17&#45;&gt;Node18 -->
<g id="edge27" class="edge"><title>Node17&#45;&gt;Node18</title>
<path fill="none" stroke="midnightblue" d="M1497.51,-253.081C1510.53,-252.778 1524.07,-252.463 1537.31,-252.156"/>
<polygon fill="midnightblue" stroke="midnightblue" points="1537.44,-255.654 1547.36,-251.922 1537.28,-248.655 1537.44,-255.654"/>
</g>
<!-- Node19&#45;&gt;Node8 -->
<g id="edge31" class="edge"><title>Node19&#45;&gt;Node8</title>
<path fill="none" stroke="midnightblue" d="M1497.57,-206C1570.31,-206 1676.45,-206 1753.98,-206"/>
<polygon fill="midnightblue" stroke="midnightblue" points="1754.24,-209.5 1764.24,-206 1754.24,-202.5 1754.24,-209.5"/>
</g>
<!-- Node19&#45;&gt;Node18 -->
<g id="edge30" class="edge"><title>Node19&#45;&gt;Node18</title>
<path fill="none" stroke="midnightblue" d="M1488.39,-221.019C1507.14,-224.856 1527.43,-229.01 1546.64,-232.941"/>
<polygon fill="midnightblue" stroke="midnightblue" points="1546.08,-236.398 1556.58,-234.974 1547.48,-229.54 1546.08,-236.398"/>
</g>
<!-- Node21 -->
<g id="node21" class="node"><title>Node21</title>
<g id="a_node21"><a xlink:href="namespacerepo_1_1programs_1_1pythonpackages_1_1pr_1_1SPfuncs.html#a9d03b1e8bb9325cdab8fa026d6cdbbe3" target="_top" xlink:title="repo.programs.pythonpackages.pr.\lSPfuncs.secs2sd">
<polygon fill="white" stroke="black" points="1547.5,-147 1547.5,-177 1714.5,-177 1714.5,-147 1547.5,-147"/>
<text text-anchor="start" x="1555.5" y="-165" font-family="Helvetica,sans-Serif" font-size="10.00">repo.programs.pythonpackages.pr.</text>
<text text-anchor="middle" x="1631" y="-154" font-family="Helvetica,sans-Serif" font-size="10.00">SPfuncs.secs2sd</text>
</a>
</g>
</g>
<!-- Node20&#45;&gt;Node21 -->
<g id="edge33" class="edge"><title>Node20&#45;&gt;Node21</title>
<path fill="none" stroke="midnightblue" d="M1497.51,-158.919C1510.53,-159.222 1524.07,-159.537 1537.31,-159.844"/>
<polygon fill="midnightblue" stroke="midnightblue" points="1537.28,-163.345 1547.36,-160.078 1537.44,-156.346 1537.28,-163.345"/>
</g>
<!-- Node22&#45;&gt;Node2 -->
<g id="edge35" class="edge"><title>Node22&#45;&gt;Node2</title>
<path fill="none" stroke="midnightblue" d="M1477.44,-319.119C1485.07,-323.002 1492.21,-327.878 1498,-334 1536.27,-374.448 1494.1,-415.162 1534,-454 1535.89,-455.844 1537.91,-457.561 1540.01,-459.159"/>
<polygon fill="midnightblue" stroke="midnightblue" points="1538.29,-462.212 1548.57,-464.75 1542.12,-456.351 1538.29,-462.212"/>
</g>
<!-- Node23&#45;&gt;Node22 -->
<g id="edge40" class="edge"><title>Node23&#45;&gt;Node22</title>
<path fill="none" stroke="midnightblue" d="M1224.8,-409.92C1263.28,-388.259 1334.3,-348.293 1377.23,-324.13"/>
<polygon fill="midnightblue" stroke="midnightblue" points="1379.21,-327.034 1386.21,-319.08 1375.77,-320.934 1379.21,-327.034"/>
</g>
<!-- Node24 -->
<g id="node24" class="node"><title>Node24</title>
<g id="a_node24"><a xlink:href="namespacerepo_1_1programs_1_1pythonpackages_1_1pr_1_1SPfuncs.html#a2533afa952ea007cfad4a1deb6a607a5" target="_top" xlink:title="Return angles for the sequence defined by , repeated &#160;times. ">
<polygon fill="white" stroke="black" points="1330.5,-415 1330.5,-445 1497.5,-445 1497.5,-415 1330.5,-415"/>
<text text-anchor="start" x="1338.5" y="-433" font-family="Helvetica,sans-Serif" font-size="10.00">repo.programs.pythonpackages.pr.</text>
<text text-anchor="middle" x="1414" y="-422" font-family="Helvetica,sans-Serif" font-size="10.00">SPfuncs.getAnglesFromRSpec</text>
</a>
</g>
</g>
<!-- Node23&#45;&gt;Node24 -->
<g id="edge38" class="edge"><title>Node23&#45;&gt;Node24</title>
<path fill="none" stroke="midnightblue" d="M1294.18,-427.237C1302.86,-427.439 1311.64,-427.643 1320.29,-427.844"/>
<polygon fill="midnightblue" stroke="midnightblue" points="1320.29,-431.345 1330.37,-428.078 1320.45,-424.347 1320.29,-431.345"/>
</g>
<!-- Node25 -->
<g id="node25" class="node"><title>Node25</title>
<g id="a_node25"><a xlink:href="namespacerepo_1_1programs_1_1pythonpackages_1_1pr_1_1SPfuncs.html#aba724f914a5cc838851518564a1f5d84" target="_top" xlink:title="repo.programs.pythonpackages.pr.\lSPfuncs.getRotationsFromRSpec">
<polygon fill="white" stroke="black" points="1547.5,-415 1547.5,-445 1714.5,-445 1714.5,-415 1547.5,-415"/>
<text text-anchor="start" x="1555.5" y="-433" font-family="Helvetica,sans-Serif" font-size="10.00">repo.programs.pythonpackages.pr.</text>
<text text-anchor="middle" x="1631" y="-422" font-family="Helvetica,sans-Serif" font-size="10.00">SPfuncs.getRotationsFromRSpec</text>
</a>
</g>
</g>
<!-- Node24&#45;&gt;Node25 -->
<g id="edge39" class="edge"><title>Node24&#45;&gt;Node25</title>
<path fill="none" stroke="midnightblue" d="M1497.51,-430C1510.53,-430 1524.07,-430 1537.31,-430"/>
<polygon fill="midnightblue" stroke="midnightblue" points="1537.36,-433.5 1547.36,-430 1537.36,-426.5 1537.36,-433.5"/>
</g>
<!-- Node26&#45;&gt;Node2 -->
<g id="edge43" class="edge"><title>Node26&#45;&gt;Node2</title>
<path fill="none" stroke="midnightblue" d="M566.244,-321.119C591.33,-336.736 632.951,-360.655 672,-374 975.904,-477.855 1362.59,-485.567 1537.12,-482.921"/>
<polygon fill="midnightblue" stroke="midnightblue" points="1537.35,-486.417 1547.29,-482.751 1537.23,-479.418 1537.35,-486.417"/>
</g>
<!-- Node26&#45;&gt;Node5 -->
<g id="edge44" class="edge"><title>Node26&#45;&gt;Node5</title>
<path fill="none" stroke="midnightblue" d="M618.448,-290.945C695.112,-275.647 813.66,-251.992 893.695,-236.022"/>
<polygon fill="midnightblue" stroke="midnightblue" points="894.625,-239.405 903.746,-234.016 893.255,-232.541 894.625,-239.405"/>
</g>
<!-- Node26&#45;&gt;Node14 -->
<g id="edge45" class="edge"><title>Node26&#45;&gt;Node14</title>
<path fill="none" stroke="midnightblue" d="M618.779,-321.019C638.228,-324.874 659.287,-329.048 679.203,-332.995"/>
<polygon fill="midnightblue" stroke="midnightblue" points="678.696,-336.463 689.186,-334.974 680.057,-329.596 678.696,-336.463"/>
</g>
<!-- Node26&#45;&gt;Node15 -->
<g id="edge46" class="edge"><title>Node26&#45;&gt;Node15</title>
<path fill="none" stroke="midnightblue" d="M635.731,-306.213C709.52,-306.382 812.293,-306.618 886.121,-306.787"/>
<polygon fill="midnightblue" stroke="midnightblue" points="886.332,-310.287 896.34,-306.81 886.348,-303.287 886.332,-310.287"/>
</g>
</g>
</svg>
        <g id="navigator" transform="translate(0 0)" fill="#404254">
                <rect fill="#f2f5e9" fill-opacity="0.5" stroke="#606060" stroke-width=".5" x="0" y="0" width="60" height="60"/>
                <use id="zoomplus" xlink:href="#zoomPlus" x="17" y="9" onmousedown="handleZoom(evt,'in')"/>
                <use id="zoomminus" xlink:href="#zoomMin" x="42" y="9" onmousedown="handleZoom(evt,'out')"/>
                <use id="reset" xlink:href="#resetDef" x="30" y="36" onmousedown="handleReset()"/>
                <g id="arrowUp" xlink:href="#dirArrow" transform="translate(30 24)" onmousedown="handlePan(0,-1)">
                  <use xlink:href="#rim" fill="#404040">
                        <set attributeName="fill" to="#808080" begin="arrowUp.mouseover" end="arrowUp.mouseout"/>
                  </use>
                  <path fill="none" stroke="white" stroke-width="1.5" d="M0,-3.0v7 M-2.5,-0.5L0,-3.0L2.5,-0.5"/>
                </g>
                <g id="arrowRight" xlink:href="#dirArrow" transform="rotate(90) translate(36 -43)" onmousedown="handlePan(1,0)">
                  <use xlink:href="#rim" fill="#404040">
                        <set attributeName="fill" to="#808080" begin="arrowRight.mouseover" end="arrowRight.mouseout"/>
                  </use>
                  <path fill="none" stroke="white" stroke-width="1.5" d="M0,-3.0v7 M-2.5,-0.5L0,-3.0L2.5,-0.5"/>
                </g>
                <g id="arrowDown" xlink:href="#dirArrow" transform="rotate(180) translate(-30 -48)" onmousedown="handlePan(0,1)">
                  <use xlink:href="#rim" fill="#404040">
                        <set attributeName="fill" to="#808080" begin="arrowDown.mouseover" end="arrowDown.mouseout"/>
                  </use>
                  <path fill="none" stroke="white" stroke-width="1.5" d="M0,-3.0v7 M-2.5,-0.5L0,-3.0L2.5,-0.5"/>
                </g>
                <g id="arrowLeft" xlink:href="#dirArrow" transform="rotate(270) translate(-36 17)" onmousedown="handlePan(-1,0)">
                  <use xlink:href="#rim" fill="#404040">
                        <set attributeName="fill" to="#808080" begin="arrowLeft.mouseover" end="arrowLeft.mouseout"/>
                  </use>
                  <path fill="none" stroke="white" stroke-width="1.5" d="M0,-3.0v7 M-2.5,-0.5L0,-3.0L2.5,-0.5"/>
                </g>
        </g>
        <svg viewBox="0 0 15 15" width="100%" height="30px" preserveAspectRatio="xMaxYMin meet">
         <g id="arrow_out" transform="scale(0.3 0.3)">
          <a xlink:href="classrepo_1_1programs_1_1pythonpackages_1_1pr_1_1SPDataSet_1_1SPDataSet_a5ad35e931371981e41221502928547d5_cgraph_org.svg" target="_base">
           <rect id="button" ry="5" rx="5" y="6" x="6" height="38" width="38"
                fill="#f2f5e9" fill-opacity="0.5" stroke="#606060" stroke-width="1.0"/>
           <path id="arrow"
             d="M 11.500037,31.436501 C 11.940474,20.09759 22.043105,11.32322 32.158766,21.979434 L 37.068811,17.246167 C 37.068811,17.246167 37.088388,32 37.088388,32 L 22.160133,31.978069 C 22.160133,31.978069 26.997745,27.140456 26.997745,27.140456 C 18.528582,18.264221 13.291696,25.230495 11.500037,31.436501 z"
             style="fill:#404040;"/>
          </a>
         </g>
        </svg>
</svg>
