<?xml version="1.0" encoding="UTF-8" standalone="no"?>
<!DOCTYPE svg PUBLIC "-//W3C//DTD SVG 1.1//EN"
 "http://www.w3.org/Graphics/SVG/1.1/DTD/svg11.dtd">
<!-- Generated by graphviz version 2.36.0 (20140111.2315)
 -->
<!-- Title: repo.programs.pythonpackages.pr.SPDataSet.SPDataSet.rSpec Pages: 1 -->
<svg width="1724pt" height="318pt"
 viewBox="0.00 0.00 1724.00 318.00" xmlns="http://www.w3.org/2000/svg" xmlns:xlink="http://www.w3.org/1999/xlink">
<g id="graph0" class="graph" transform="scale(1 1) rotate(0) translate(4 314)">
<title>repo.programs.pythonpackages.pr.SPDataSet.SPDataSet.rSpec</title>
<polygon fill="white" stroke="none" points="-4,4 -4,-314 1720,-314 1720,4 -4,4"/>
<!-- Node1 -->
<g id="node1" class="node"><title>Node1</title>
<polygon fill="#bfbfbf" stroke="black" points="0.5,-49 0.5,-79 167.5,-79 167.5,-49 0.5,-49"/>
<text text-anchor="start" x="8.5" y="-67" font-family="Helvetica,sans-Serif" font-size="10.00">repo.programs.pythonpackages.pr.</text>
<text text-anchor="middle" x="84" y="-56" font-family="Helvetica,sans-Serif" font-size="10.00">SPDataSet.SPDataSet.rSpec</text>
</g>
<!-- Node2 -->
<g id="node2" class="node"><title>Node2</title>
<g id="a_node2"><a xlink:href="classrepo_1_1programs_1_1pythonpackages_1_1pr_1_1SPDataSet_1_1SPDataSet.html#a14656e508d81193e8c71c09d9444e15f" target="_top" xlink:title="repo.programs.pythonpackages.pr.\lSPDataSet.SPDataSet.trigTimes">
<polygon fill="white" stroke="black" points="223.5,-49 223.5,-79 390.5,-79 390.5,-49 223.5,-49"/>
<text text-anchor="start" x="231.5" y="-67" font-family="Helvetica,sans-Serif" font-size="10.00">repo.programs.pythonpackages.pr.</text>
<text text-anchor="middle" x="307" y="-56" font-family="Helvetica,sans-Serif" font-size="10.00">SPDataSet.SPDataSet.trigTimes</text>
</a>
</g>
</g>
<!-- Node1&#45;&gt;Node2 -->
<g id="edge1" class="edge"><title>Node1&#45;&gt;Node2</title>
<path fill="none" stroke="midnightblue" d="M177.982,-64C193.094,-64 208.654,-64 223.494,-64"/>
<polygon fill="midnightblue" stroke="midnightblue" points="177.607,-60.5001 167.607,-64 177.606,-67.5001 177.607,-60.5001"/>
</g>
<!-- Node16 -->
<g id="node16" class="node"><title>Node16</title>
<g id="a_node16"><a xlink:href="classrepo_1_1programs_1_1pythonpackages_1_1pr_1_1SPDataSet_1_1SPDataSet.html#a7482cde5c58c574e2c1ade31e06fcdb4" target="_top" xlink:title="repo.programs.pythonpackages.pr.\lSPDataSet.SPDataSet.apparatusRotations">
<polygon fill="white" stroke="black" points="204,-0 204,-30 410,-30 410,-0 204,-0"/>
<text text-anchor="start" x="212" y="-18" font-family="Helvetica,sans-Serif" font-size="10.00">repo.programs.pythonpackages.pr.</text>
<text text-anchor="middle" x="307" y="-7" font-family="Helvetica,sans-Serif" font-size="10.00">SPDataSet.SPDataSet.apparatusRotations</text>
</a>
</g>
</g>
<!-- Node1&#45;&gt;Node16 -->
<g id="edge25" class="edge"><title>Node1&#45;&gt;Node16</title>
<path fill="none" stroke="midnightblue" d="M162.838,-46.7419C187.463,-41.282 214.465,-35.295 238.319,-30.0062"/>
<polygon fill="midnightblue" stroke="midnightblue" points="161.814,-43.3837 152.809,-48.9654 163.33,-50.2177 161.814,-43.3837"/>
</g>
<!-- Node17 -->
<g id="node17" class="node"><title>Node17</title>
<g id="a_node17"><a xlink:href="classrepo_1_1programs_1_1pythonpackages_1_1pr_1_1SPDataSet_1_1SPDataSet.html#aee6249fe272c46f07d0f2f32f6c188d2" target="_top" xlink:title="repo.programs.pythonpackages.pr.\lSPDataSet.SPDataSet.apparatusAngles">
<polygon fill="white" stroke="black" points="210,-133 210,-163 404,-163 404,-133 210,-133"/>
<text text-anchor="start" x="218" y="-151" font-family="Helvetica,sans-Serif" font-size="10.00">repo.programs.pythonpackages.pr.</text>
<text text-anchor="middle" x="307" y="-140" font-family="Helvetica,sans-Serif" font-size="10.00">SPDataSet.SPDataSet.apparatusAngles</text>
</a>
</g>
</g>
<!-- Node1&#45;&gt;Node17 -->
<g id="edge26" class="edge"><title>Node1&#45;&gt;Node17</title>
<path fill="none" stroke="midnightblue" d="M134.032,-82.6365C173.892,-97.787 229.402,-118.886 266.46,-132.971"/>
<polygon fill="midnightblue" stroke="midnightblue" points="135.101,-79.2989 124.51,-79.0175 132.614,-85.8421 135.101,-79.2989"/>
</g>
<!-- Node3 -->
<g id="node3" class="node"><title>Node3</title>
<g id="a_node3"><a xlink:href="classrepo_1_1programs_1_1pythonpackages_1_1pr_1_1SPDataSet_1_1SPDataSet.html#a5b12a3d9fdb93ccbf79a6b7a7893be3f" target="_top" xlink:title="repo.programs.pythonpackages.pr.\lSPDataSet.SPDataSet.cutAmp">
<polygon fill="white" stroke="black" points="446.5,-71 446.5,-101 613.5,-101 613.5,-71 446.5,-71"/>
<text text-anchor="start" x="454.5" y="-89" font-family="Helvetica,sans-Serif" font-size="10.00">repo.programs.pythonpackages.pr.</text>
<text text-anchor="middle" x="530" y="-78" font-family="Helvetica,sans-Serif" font-size="10.00">SPDataSet.SPDataSet.cutAmp</text>
</a>
</g>
</g>
<!-- Node2&#45;&gt;Node3 -->
<g id="edge2" class="edge"><title>Node2&#45;&gt;Node3</title>
<path fill="none" stroke="midnightblue" d="M400.982,-73.2562C416.094,-74.7605 431.654,-76.3095 446.494,-77.7867"/>
<polygon fill="midnightblue" stroke="midnightblue" points="400.904,-69.7312 390.607,-72.2233 400.211,-76.6967 400.904,-69.7312"/>
</g>
<!-- Node12 -->
<g id="node12" class="node"><title>Node12</title>
<g id="a_node12"><a xlink:href="classrepo_1_1programs_1_1pythonpackages_1_1pr_1_1SPDataSet_1_1SPDataSet.html#a5ad35e931371981e41221502928547d5" target="_top" xlink:title="Check that the calculated apparatus directions fit with the available data. ">
<polygon fill="white" stroke="black" points="1304,-40 1304,-70 1496,-70 1496,-40 1304,-40"/>
<text text-anchor="start" x="1312" y="-58" font-family="Helvetica,sans-Serif" font-size="10.00">repo.programs.pythonpackages.pr.</text>
<text text-anchor="middle" x="1400" y="-47" font-family="Helvetica,sans-Serif" font-size="10.00">SPDataSet.SPDataSet.checkDirections</text>
</a>
</g>
</g>
<!-- Node2&#45;&gt;Node12 -->
<g id="edge24" class="edge"><title>Node2&#45;&gt;Node12</title>
<path fill="none" stroke="midnightblue" d="M383.518,-46.8133C468.144,-29.083 609.659,-4 733,-4 733,-4 733,-4 949,-4 1077.95,-4 1226.36,-24.9304 1316.38,-39.9742"/>
<polygon fill="midnightblue" stroke="midnightblue" points="382.544,-43.442 373.485,-48.9369 383.993,-50.2903 382.544,-43.442"/>
</g>
<!-- Node15 -->
<g id="node15" class="node"><title>Node15</title>
<g id="a_node15"><a xlink:href="classrepo_1_1programs_1_1pythonpackages_1_1pr_1_1SPDataSet_1_1SPDataSet.html#a5343a59b34ffebfc31c1dfd06ddfa889" target="_top" xlink:title="repo.programs.pythonpackages.pr.\lSPDataSet.SPDataSet.viewRaw">
<polygon fill="white" stroke="black" points="650.5,-35 650.5,-65 817.5,-65 817.5,-35 650.5,-35"/>
<text text-anchor="start" x="658.5" y="-53" font-family="Helvetica,sans-Serif" font-size="10.00">repo.programs.pythonpackages.pr.</text>
<text text-anchor="middle" x="734" y="-42" font-family="Helvetica,sans-Serif" font-size="10.00">SPDataSet.SPDataSet.viewRaw</text>
</a>
</g>
</g>
<!-- Node2&#45;&gt;Node15 -->
<g id="edge23" class="edge"><title>Node2&#45;&gt;Node15</title>
<path fill="none" stroke="midnightblue" d="M400.994,-60.9367C475.344,-58.4875 578.618,-55.0855 650.156,-52.729"/>
<polygon fill="midnightblue" stroke="midnightblue" points="400.58,-57.4483 390.701,-61.2757 400.81,-64.4445 400.58,-57.4483"/>
</g>
<!-- Node3&#45;&gt;Node3 -->
<g id="edge3" class="edge"><title>Node3&#45;&gt;Node3</title>
<path fill="none" stroke="midnightblue" d="M494.292,-111.598C499.172,-115.97 511.074,-119 530,-119 561.875,-119 573.828,-110.406 565.859,-101.275"/>
<polygon fill="midnightblue" stroke="midnightblue" points="497.787,-111.223 494.141,-101.275 490.788,-111.326 497.787,-111.223"/>
</g>
<!-- Node4 -->
<g id="node4" class="node"><title>Node4</title>
<g id="a_node4"><a xlink:href="classrepo_1_1programs_1_1pythonpackages_1_1pr_1_1SPDataSet_1_1SPDataSet.html#a9eac955cac12a62b72d189aa80b82ec6" target="_top" xlink:title="repo.programs.pythonpackages.pr.\lSPDataSet.SPDataSet.filteredCutAmp">
<polygon fill="white" stroke="black" points="854.5,-84 854.5,-114 1041.5,-114 1041.5,-84 854.5,-84"/>
<text text-anchor="start" x="862.5" y="-102" font-family="Helvetica,sans-Serif" font-size="10.00">repo.programs.pythonpackages.pr.</text>
<text text-anchor="middle" x="948" y="-91" font-family="Helvetica,sans-Serif" font-size="10.00">SPDataSet.SPDataSet.filteredCutAmp</text>
</a>
</g>
</g>
<!-- Node3&#45;&gt;Node4 -->
<g id="edge4" class="edge"><title>Node3&#45;&gt;Node4</title>
<path fill="none" stroke="midnightblue" d="M624.061,-88.9082C692.727,-91.054 785.754,-93.9611 854.328,-96.104"/>
<polygon fill="midnightblue" stroke="midnightblue" points="623.79,-85.3981 613.686,-88.5839 623.571,-92.3947 623.79,-85.3981"/>
</g>
<!-- Node13 -->
<g id="node13" class="node"><title>Node13</title>
<g id="a_node13"><a xlink:href="classrepo_1_1programs_1_1pythonpackages_1_1pr_1_1SPDataSet_1_1SPDataSet.html#a6f2c3de2aa708d686f5835f10e2d096d" target="_top" xlink:title="repo.programs.pythonpackages.pr.\lSPDataSet.SPDataSet.pointAmp">
<polygon fill="white" stroke="black" points="650.5,-171 650.5,-201 817.5,-201 817.5,-171 650.5,-171"/>
<text text-anchor="start" x="658.5" y="-189" font-family="Helvetica,sans-Serif" font-size="10.00">repo.programs.pythonpackages.pr.</text>
<text text-anchor="middle" x="734" y="-178" font-family="Helvetica,sans-Serif" font-size="10.00">SPDataSet.SPDataSet.pointAmp</text>
</a>
</g>
</g>
<!-- Node3&#45;&gt;Node13 -->
<g id="edge16" class="edge"><title>Node3&#45;&gt;Node13</title>
<path fill="none" stroke="midnightblue" d="M571.092,-105.847C609.831,-125.025 667.65,-153.649 702.694,-170.997"/>
<polygon fill="midnightblue" stroke="midnightblue" points="572.194,-102.488 561.679,-101.188 569.089,-108.761 572.194,-102.488"/>
</g>
<!-- Node3&#45;&gt;Node15 -->
<g id="edge22" class="edge"><title>Node3&#45;&gt;Node15</title>
<path fill="none" stroke="midnightblue" d="M623.731,-69.4737C632.622,-67.8891 641.6,-66.2892 650.385,-64.7235"/>
<polygon fill="midnightblue" stroke="midnightblue" points="622.975,-66.0532 613.744,-71.2536 624.203,-72.9446 622.975,-66.0532"/>
</g>
<!-- Node5 -->
<g id="node5" class="node"><title>Node5</title>
<g id="a_node5"><a xlink:href="classrepo_1_1programs_1_1pythonpackages_1_1pr_1_1SPDataSet_1_1SPDataSet.html#accbfa0185d4e416038e688fc9b55575b" target="_top" xlink:title="repo.programs.pythonpackages.pr.\lSPDataSet.SPDataSet.sequenceAmp">
<polygon fill="white" stroke="black" points="1078,-187 1078,-217 1262,-217 1262,-187 1078,-187"/>
<text text-anchor="start" x="1086" y="-205" font-family="Helvetica,sans-Serif" font-size="10.00">repo.programs.pythonpackages.pr.</text>
<text text-anchor="middle" x="1170" y="-194" font-family="Helvetica,sans-Serif" font-size="10.00">SPDataSet.SPDataSet.sequenceAmp</text>
</a>
</g>
</g>
<!-- Node4&#45;&gt;Node5 -->
<g id="edge5" class="edge"><title>Node4&#45;&gt;Node5</title>
<path fill="none" stroke="midnightblue" d="M990.689,-118.518C1033.15,-138.397 1098.08,-168.798 1136.76,-186.907"/>
<polygon fill="midnightblue" stroke="midnightblue" points="992.002,-115.268 981.462,-114.198 989.034,-121.608 992.002,-115.268"/>
</g>
<!-- Node5&#45;&gt;Node5 -->
<g id="edge6" class="edge"><title>Node5&#45;&gt;Node5</title>
<path fill="none" stroke="midnightblue" d="M1131.14,-227.598C1136.45,-231.97 1149.4,-235 1170,-235 1204.69,-235 1217.7,-226.406 1209.02,-217.275"/>
<polygon fill="midnightblue" stroke="midnightblue" points="1134.64,-227.218 1130.98,-217.275 1127.64,-227.33 1134.64,-227.218"/>
</g>
<!-- Node6 -->
<g id="node6" class="node"><title>Node6</title>
<g id="a_node6"><a xlink:href="classrepo_1_1programs_1_1pythonpackages_1_1pr_1_1SPDataSet_1_1SPDataSet.html#ac0df54b82a9e993d707f0dafd87a19dd" target="_top" xlink:title="repo.programs.pythonpackages.pr.\lSPDataSet.SPDataSet.labAmp">
<polygon fill="white" stroke="black" points="1316.5,-143 1316.5,-173 1483.5,-173 1483.5,-143 1316.5,-143"/>
<text text-anchor="start" x="1324.5" y="-161" font-family="Helvetica,sans-Serif" font-size="10.00">repo.programs.pythonpackages.pr.</text>
<text text-anchor="middle" x="1400" y="-150" font-family="Helvetica,sans-Serif" font-size="10.00">SPDataSet.SPDataSet.labAmp</text>
</a>
</g>
</g>
<!-- Node5&#45;&gt;Node6 -->
<g id="edge7" class="edge"><title>Node5&#45;&gt;Node6</title>
<path fill="none" stroke="midnightblue" d="M1258.8,-185.056C1279.33,-181.093 1301.07,-176.899 1321.14,-173.026"/>
<polygon fill="midnightblue" stroke="midnightblue" points="1257.98,-181.649 1248.83,-186.981 1259.31,-188.522 1257.98,-181.649"/>
</g>
<!-- Node7 -->
<g id="node7" class="node"><title>Node7</title>
<g id="a_node7"><a xlink:href="classrepo_1_1programs_1_1pythonpackages_1_1pr_1_1SPDataSet_1_1SPDataSet.html#a3624263a6738178d243635889b719a90" target="_top" xlink:title="repo.programs.pythonpackages.pr.\lSPDataSet.SPDataSet.viewSid">
<polygon fill="white" stroke="black" points="1543.5,-187 1543.5,-217 1710.5,-217 1710.5,-187 1543.5,-187"/>
<text text-anchor="start" x="1551.5" y="-205" font-family="Helvetica,sans-Serif" font-size="10.00">repo.programs.pythonpackages.pr.</text>
<text text-anchor="middle" x="1627" y="-194" font-family="Helvetica,sans-Serif" font-size="10.00">SPDataSet.SPDataSet.viewSid</text>
</a>
</g>
</g>
<!-- Node5&#45;&gt;Node7 -->
<g id="edge13" class="edge"><title>Node5&#45;&gt;Node7</title>
<path fill="none" stroke="midnightblue" d="M1272.54,-202C1354.11,-202 1467.21,-202 1543.31,-202"/>
<polygon fill="midnightblue" stroke="midnightblue" points="1272.26,-198.5 1262.26,-202 1272.26,-205.5 1272.26,-198.5"/>
</g>
<!-- Node8 -->
<g id="node8" class="node"><title>Node8</title>
<g id="a_node8"><a xlink:href="classrepo_1_1programs_1_1pythonpackages_1_1pr_1_1SPDataSet_1_1SPDataSet.html#acf495c99c803a2a1e23cdaeae34da985" target="_top" xlink:title="repo.programs.pythonpackages.pr.\lSPDataSet.SPDataSet.sidAmp">
<polygon fill="white" stroke="black" points="1316.5,-231 1316.5,-261 1483.5,-261 1483.5,-231 1316.5,-231"/>
<text text-anchor="start" x="1324.5" y="-249" font-family="Helvetica,sans-Serif" font-size="10.00">repo.programs.pythonpackages.pr.</text>
<text text-anchor="middle" x="1400" y="-238" font-family="Helvetica,sans-Serif" font-size="10.00">SPDataSet.SPDataSet.sidAmp</text>
</a>
</g>
</g>
<!-- Node5&#45;&gt;Node8 -->
<g id="edge9" class="edge"><title>Node5&#45;&gt;Node8</title>
<path fill="none" stroke="midnightblue" d="M1258.8,-218.944C1279.33,-222.907 1301.07,-227.101 1321.14,-230.974"/>
<polygon fill="midnightblue" stroke="midnightblue" points="1259.31,-215.478 1248.83,-217.019 1257.98,-222.351 1259.31,-215.478"/>
</g>
<!-- Node9 -->
<g id="node9" class="node"><title>Node9</title>
<g id="a_node9"><a xlink:href="classrepo_1_1programs_1_1pythonpackages_1_1pr_1_1SPDataSet_1_1SPDataSet.html#ac55c6ccc03634d3f670f52e89188779c" target="_top" xlink:title="repo.programs.pythonpackages.pr.\lSPDataSet.SPDataSet.viewSeq">
<polygon fill="white" stroke="black" points="1316.5,-94 1316.5,-124 1483.5,-124 1483.5,-94 1316.5,-94"/>
<text text-anchor="start" x="1324.5" y="-112" font-family="Helvetica,sans-Serif" font-size="10.00">repo.programs.pythonpackages.pr.</text>
<text text-anchor="middle" x="1400" y="-101" font-family="Helvetica,sans-Serif" font-size="10.00">SPDataSet.SPDataSet.viewSeq</text>
</a>
</g>
</g>
<!-- Node5&#45;&gt;Node9 -->
<g id="edge11" class="edge"><title>Node5&#45;&gt;Node9</title>
<path fill="none" stroke="midnightblue" d="M1213.24,-182.301C1228.77,-174.751 1246.37,-165.825 1262,-157 1278.53,-147.667 1280.55,-141.491 1298,-134 1306.88,-130.187 1316.46,-126.876 1326.06,-124.023"/>
<polygon fill="midnightblue" stroke="midnightblue" points="1211.37,-179.318 1203.88,-186.811 1214.41,-185.625 1211.37,-179.318"/>
</g>
<!-- Node11 -->
<g id="node11" class="node"><title>Node11</title>
<g id="a_node11"><a xlink:href="classrepo_1_1programs_1_1pythonpackages_1_1pr_1_1SPDataSet_1_1SPDataSet.html#a5aad808c592bfdbb665105df2947610f" target="_top" xlink:title="repo.programs.pythonpackages.pr.\lSPDataSet.SPDataSet.viewCorrelationFilt">
<polygon fill="white" stroke="black" points="1298.5,-280 1298.5,-310 1501.5,-310 1501.5,-280 1298.5,-280"/>
<text text-anchor="start" x="1306.5" y="-298" font-family="Helvetica,sans-Serif" font-size="10.00">repo.programs.pythonpackages.pr.</text>
<text text-anchor="middle" x="1400" y="-287" font-family="Helvetica,sans-Serif" font-size="10.00">SPDataSet.SPDataSet.viewCorrelationFilt</text>
</a>
</g>
</g>
<!-- Node5&#45;&gt;Node11 -->
<g id="edge14" class="edge"><title>Node5&#45;&gt;Node11</title>
<path fill="none" stroke="midnightblue" d="M1203.67,-222.425C1228.71,-237.342 1264.53,-257.128 1298,-270 1307.69,-273.728 1318.13,-277.043 1328.48,-279.941"/>
<polygon fill="midnightblue" stroke="midnightblue" points="1205.33,-219.339 1194.96,-217.172 1201.72,-225.333 1205.33,-219.339"/>
</g>
<!-- Node5&#45;&gt;Node12 -->
<g id="edge15" class="edge"><title>Node5&#45;&gt;Node12</title>
<path fill="none" stroke="midnightblue" d="M1189.5,-179.266C1212.32,-152.668 1253.59,-109.084 1298,-84 1307.93,-78.3926 1319.03,-73.7947 1330.14,-70.0475"/>
<polygon fill="midnightblue" stroke="midnightblue" points="1186.8,-177.037 1183.02,-186.936 1192.15,-181.552 1186.8,-177.037"/>
</g>
<!-- Node6&#45;&gt;Node7 -->
<g id="edge8" class="edge"><title>Node6&#45;&gt;Node7</title>
<path fill="none" stroke="midnightblue" d="M1487.64,-174.944C1507.91,-178.907 1529.36,-183.101 1549.16,-186.974"/>
<polygon fill="midnightblue" stroke="midnightblue" points="1488.29,-171.504 1477.8,-173.019 1486.95,-178.373 1488.29,-171.504"/>
</g>
<!-- Node8&#45;&gt;Node7 -->
<g id="edge10" class="edge"><title>Node8&#45;&gt;Node7</title>
<path fill="none" stroke="midnightblue" d="M1487.64,-229.056C1507.91,-225.093 1529.36,-220.899 1549.16,-217.026"/>
<polygon fill="midnightblue" stroke="midnightblue" points="1486.95,-225.627 1477.8,-230.981 1488.29,-232.496 1486.95,-225.627"/>
</g>
<!-- Node10 -->
<g id="node10" class="node"><title>Node10</title>
<g id="a_node10"><a xlink:href="classrepo_1_1programs_1_1pythonpackages_1_1pr_1_1SPDataSet_1_1SPDataSet.html#a0c87af10688edd55eb0aea229e5979bb" target="_top" xlink:title="repo.programs.pythonpackages.pr.\lSPDataSet.SPDataSet.viewSensors">
<polygon fill="white" stroke="black" points="1538,-94 1538,-124 1716,-124 1716,-94 1538,-94"/>
<text text-anchor="start" x="1546" y="-112" font-family="Helvetica,sans-Serif" font-size="10.00">repo.programs.pythonpackages.pr.</text>
<text text-anchor="middle" x="1627" y="-101" font-family="Helvetica,sans-Serif" font-size="10.00">SPDataSet.SPDataSet.viewSensors</text>
</a>
</g>
</g>
<!-- Node9&#45;&gt;Node10 -->
<g id="edge12" class="edge"><title>Node9&#45;&gt;Node10</title>
<path fill="none" stroke="midnightblue" d="M1493.55,-109C1508.19,-109 1523.29,-109 1537.83,-109"/>
<polygon fill="midnightblue" stroke="midnightblue" points="1493.5,-105.5 1483.5,-109 1493.5,-112.5 1493.5,-105.5"/>
</g>
<!-- Node13&#45;&gt;Node4 -->
<g id="edge17" class="edge"><title>Node13&#45;&gt;Node4</title>
<path fill="none" stroke="midnightblue" d="M787.362,-167.119C797.695,-162.856 808.328,-158.075 818,-153 835.028,-144.065 836.685,-137.365 854,-129 865.763,-123.318 878.863,-118.34 891.432,-114.156"/>
<polygon fill="midnightblue" stroke="midnightblue" points="785.967,-163.908 777.993,-170.884 788.576,-170.403 785.967,-163.908"/>
</g>
<!-- Node13&#45;&gt;Node5 -->
<g id="edge18" class="edge"><title>Node13&#45;&gt;Node5</title>
<path fill="none" stroke="midnightblue" d="M804.455,-203.109C820.617,-206.388 837.829,-209.32 854,-211 929.095,-218.803 1014.76,-215.578 1077.78,-210.947"/>
<polygon fill="midnightblue" stroke="midnightblue" points="805.051,-199.658 794.546,-201.031 803.614,-206.509 805.051,-199.658"/>
</g>
<!-- Node13&#45;&gt;Node9 -->
<g id="edge19" class="edge"><title>Node13&#45;&gt;Node9</title>
<path fill="none" stroke="midnightblue" d="M817.026,-169.122C829.385,-166.876 842.006,-164.749 854,-163 1017,-139.224 1208.99,-122.897 1316.07,-114.826"/>
<polygon fill="midnightblue" stroke="midnightblue" points="816.384,-165.681 807.188,-170.943 817.658,-172.564 816.384,-165.681"/>
</g>
<!-- Node13&#45;&gt;Node11 -->
<g id="edge20" class="edge"><title>Node13&#45;&gt;Node11</title>
<path fill="none" stroke="midnightblue" d="M781.804,-204.646C803.465,-212.619 829.726,-221.369 854,-227 1006.8,-262.448 1188.26,-280.418 1298.46,-288.734"/>
<polygon fill="midnightblue" stroke="midnightblue" points="782.791,-201.279 772.199,-201.052 780.338,-207.835 782.791,-201.279"/>
</g>
<!-- Node14 -->
<g id="node14" class="node"><title>Node14</title>
<g id="a_node14"><a xlink:href="classrepo_1_1programs_1_1pythonpackages_1_1pr_1_1SPDataSet_1_1SPDataSet.html#a2ffa7a6de1e0ebd8172db800621eed20" target="_top" xlink:title="repo.programs.pythonpackages.pr.\lSPDataSet.SPDataSet.test_div">
<polygon fill="white" stroke="black" points="864.5,-172 864.5,-202 1031.5,-202 1031.5,-172 864.5,-172"/>
<text text-anchor="start" x="872.5" y="-190" font-family="Helvetica,sans-Serif" font-size="10.00">repo.programs.pythonpackages.pr.</text>
<text text-anchor="middle" x="948" y="-179" font-family="Helvetica,sans-Serif" font-size="10.00">SPDataSet.SPDataSet.test_div</text>
</a>
</g>
</g>
<!-- Node13&#45;&gt;Node14 -->
<g id="edge21" class="edge"><title>Node13&#45;&gt;Node14</title>
<path fill="none" stroke="midnightblue" d="M827.728,-186.437C839.901,-186.495 852.312,-186.553 864.305,-186.61"/>
<polygon fill="midnightblue" stroke="midnightblue" points="827.588,-182.937 817.572,-186.389 827.555,-189.937 827.588,-182.937"/>
</g>
<!-- Node17&#45;&gt;Node3 -->
<g id="edge27" class="edge"><title>Node17&#45;&gt;Node3</title>
<path fill="none" stroke="midnightblue" d="M371.451,-130.199C404.28,-120.989 443.922,-109.868 475.229,-101.085"/>
<polygon fill="midnightblue" stroke="midnightblue" points="370.181,-126.92 361.498,-132.992 372.072,-133.66 370.181,-126.92"/>
</g>
<!-- Node17&#45;&gt;Node5 -->
<g id="edge29" class="edge"><title>Node17&#45;&gt;Node5</title>
<path fill="none" stroke="midnightblue" d="M370.9,-165.601C394.339,-171.724 421.258,-178.242 446,-183 706.831,-233.159 777.644,-252.772 1042,-227 1062.8,-224.972 1085.25,-221.118 1105.4,-217.033"/>
<polygon fill="midnightblue" stroke="midnightblue" points="371.646,-162.178 361.084,-163.008 369.858,-168.946 371.646,-162.178"/>
</g>
<!-- Node17&#45;&gt;Node12 -->
<g id="edge30" class="edge"><title>Node17&#45;&gt;Node12</title>
<path fill="none" stroke="midnightblue" d="M414.276,-145.13C473.332,-142.514 548,-137.522 614,-128 722.213,-112.387 745.562,-87.9653 854,-74 1010.58,-53.8348 1194.41,-51.8782 1303.56,-52.9649"/>
<polygon fill="midnightblue" stroke="midnightblue" points="414.03,-141.637 404.189,-145.56 414.329,-148.631 414.03,-141.637"/>
</g>
<!-- Node17&#45;&gt;Node13 -->
<g id="edge28" class="edge"><title>Node17&#45;&gt;Node13</title>
<path fill="none" stroke="midnightblue" d="M414.351,-158.98C425.04,-160.026 435.733,-161.05 446,-162 514.831,-168.369 593.021,-174.858 650.387,-179.481"/>
<polygon fill="midnightblue" stroke="midnightblue" points="414.413,-155.469 404.118,-157.971 413.726,-162.435 414.413,-155.469"/>
</g>
</g>
</svg>
