<?xml version="1.0" encoding="UTF-8" standalone="no"?>
<!DOCTYPE svg PUBLIC "-//W3C//DTD SVG 1.1//EN"
 "http://www.w3.org/Graphics/SVG/1.1/DTD/svg11.dtd">
<!-- Generated by graphviz version 2.36.0 (20140111.2315)
 -->
<!-- Title: repo.programs.pythonpackages.pr.SPDataSet.SPDataSet.set_info Pages: 1 -->
<svg width="1948pt" height="570pt"
 viewBox="0.00 0.00 1948.00 570.00" xmlns="http://www.w3.org/2000/svg" xmlns:xlink="http://www.w3.org/1999/xlink">
<g id="graph0" class="graph" transform="scale(1 1) rotate(0) translate(4 566)">
<title>repo.programs.pythonpackages.pr.SPDataSet.SPDataSet.set_info</title>
<polygon fill="white" stroke="none" points="-4,4 -4,-566 1944,-566 1944,4 -4,4"/>
<!-- Node1 -->
<g id="node1" class="node"><title>Node1</title>
<polygon fill="#bfbfbf" stroke="black" points="0.5,-204 0.5,-234 167.5,-234 167.5,-204 0.5,-204"/>
<text text-anchor="start" x="8.5" y="-222" font-family="Helvetica,sans-Serif" font-size="10.00">repo.programs.pythonpackages.pr.</text>
<text text-anchor="middle" x="84" y="-211" font-family="Helvetica,sans-Serif" font-size="10.00">SPDataSet.SPDataSet.set_info</text>
</g>
<!-- Node2 -->
<g id="node2" class="node"><title>Node2</title>
<g id="a_node2"><a xlink:href="classrepo_1_1programs_1_1pythonpackages_1_1pr_1_1SPDataSet_1_1SPDataSet.html#af6af62c7de4f7bc8f2dd223d05cf2b07" target="_top" xlink:title="repo.programs.pythonpackages.pr.\lSPDataSet.SPDataSet.rSpec">
<polygon fill="white" stroke="black" points="204.5,-326 204.5,-356 371.5,-356 371.5,-326 204.5,-326"/>
<text text-anchor="start" x="212.5" y="-344" font-family="Helvetica,sans-Serif" font-size="10.00">repo.programs.pythonpackages.pr.</text>
<text text-anchor="middle" x="288" y="-333" font-family="Helvetica,sans-Serif" font-size="10.00">SPDataSet.SPDataSet.rSpec</text>
</a>
</g>
</g>
<!-- Node1&#45;&gt;Node2 -->
<g id="edge1" class="edge"><title>Node1&#45;&gt;Node2</title>
<path fill="none" stroke="midnightblue" d="M118.885,-239.465C159.37,-263.917 226.139,-304.242 262.142,-325.987"/>
<polygon fill="midnightblue" stroke="midnightblue" points="120.544,-236.379 110.175,-234.205 116.925,-242.371 120.544,-236.379"/>
</g>
<!-- Node5 -->
<g id="node5" class="node"><title>Node5</title>
<g id="a_node5"><a xlink:href="classrepo_1_1programs_1_1pythonpackages_1_1pr_1_1SPDataSet_1_1SPDataSet.html#a9eac955cac12a62b72d189aa80b82ec6" target="_top" xlink:title="repo.programs.pythonpackages.pr.\lSPDataSet.SPDataSet.filteredCutAmp">
<polygon fill="white" stroke="black" points="1078.5,-339 1078.5,-369 1265.5,-369 1265.5,-339 1078.5,-339"/>
<text text-anchor="start" x="1086.5" y="-357" font-family="Helvetica,sans-Serif" font-size="10.00">repo.programs.pythonpackages.pr.</text>
<text text-anchor="middle" x="1172" y="-346" font-family="Helvetica,sans-Serif" font-size="10.00">SPDataSet.SPDataSet.filteredCutAmp</text>
</a>
</g>
</g>
<!-- Node1&#45;&gt;Node5 -->
<g id="edge33" class="edge"><title>Node1&#45;&gt;Node5</title>
<path fill="none" stroke="midnightblue" d="M99.4527,-242.635C119.609,-274 158.812,-329.538 204,-365 282.978,-426.98 310.164,-439.482 408,-462 682.604,-525.202 778.031,-564.602 1042,-466 1094.23,-446.489 1139.32,-395.232 1159.59,-369.379"/>
<polygon fill="midnightblue" stroke="midnightblue" points="102.356,-240.677 94.0531,-234.095 96.4393,-244.418 102.356,-240.677"/>
</g>
<!-- Node6 -->
<g id="node6" class="node"><title>Node6</title>
<g id="a_node6"><a xlink:href="classrepo_1_1programs_1_1pythonpackages_1_1pr_1_1SPDataSet_1_1SPDataSet.html#accbfa0185d4e416038e688fc9b55575b" target="_top" xlink:title="repo.programs.pythonpackages.pr.\lSPDataSet.SPDataSet.sequenceAmp">
<polygon fill="white" stroke="black" points="1302,-219 1302,-249 1486,-249 1486,-219 1302,-219"/>
<text text-anchor="start" x="1310" y="-237" font-family="Helvetica,sans-Serif" font-size="10.00">repo.programs.pythonpackages.pr.</text>
<text text-anchor="middle" x="1394" y="-226" font-family="Helvetica,sans-Serif" font-size="10.00">SPDataSet.SPDataSet.sequenceAmp</text>
</a>
</g>
</g>
<!-- Node1&#45;&gt;Node6 -->
<g id="edge37" class="edge"><title>Node1&#45;&gt;Node6</title>
<path fill="none" stroke="midnightblue" d="M118.124,-198.7C187.891,-157.939 356.228,-70 510,-70 510,-70 510,-70 959,-70 1126.54,-70 1308.33,-178.266 1370.62,-218.865"/>
<polygon fill="midnightblue" stroke="midnightblue" points="116.163,-195.794 109.333,-203.893 119.723,-201.821 116.163,-195.794"/>
</g>
<!-- Node13 -->
<g id="node13" class="node"><title>Node13</title>
<g id="a_node13"><a xlink:href="classrepo_1_1programs_1_1pythonpackages_1_1pr_1_1SPDataSet_1_1SPDataSet.html#a5ad35e931371981e41221502928547d5" target="_top" xlink:title="Check that the calculated apparatus directions fit with the available data. ">
<polygon fill="white" stroke="black" points="1528,-446 1528,-476 1720,-476 1720,-446 1528,-446"/>
<text text-anchor="start" x="1536" y="-464" font-family="Helvetica,sans-Serif" font-size="10.00">repo.programs.pythonpackages.pr.</text>
<text text-anchor="middle" x="1624" y="-453" font-family="Helvetica,sans-Serif" font-size="10.00">SPDataSet.SPDataSet.checkDirections</text>
</a>
</g>
</g>
<!-- Node1&#45;&gt;Node13 -->
<g id="edge38" class="edge"><title>Node1&#45;&gt;Node13</title>
<path fill="none" stroke="midnightblue" d="M93.6196,-243.599C109.432,-285.535 146.794,-371.335 204,-423 314.855,-523.118 360.626,-562 510,-562 510,-562 510,-562 1173,-562 1328.13,-562 1506.21,-504.147 1583.63,-476.012"/>
<polygon fill="midnightblue" stroke="midnightblue" points="96.8861,-242.34 90.1488,-234.164 90.3166,-244.757 96.8861,-242.34"/>
</g>
<!-- Node14 -->
<g id="node14" class="node"><title>Node14</title>
<g id="a_node14"><a xlink:href="classrepo_1_1programs_1_1pythonpackages_1_1pr_1_1SPDataSet_1_1SPDataSet.html#a6f2c3de2aa708d686f5835f10e2d096d" target="_top" xlink:title="repo.programs.pythonpackages.pr.\lSPDataSet.SPDataSet.pointAmp">
<polygon fill="white" stroke="black" points="874.5,-225 874.5,-255 1041.5,-255 1041.5,-225 874.5,-225"/>
<text text-anchor="start" x="882.5" y="-243" font-family="Helvetica,sans-Serif" font-size="10.00">repo.programs.pythonpackages.pr.</text>
<text text-anchor="middle" x="958" y="-232" font-family="Helvetica,sans-Serif" font-size="10.00">SPDataSet.SPDataSet.pointAmp</text>
</a>
</g>
</g>
<!-- Node1&#45;&gt;Node14 -->
<g id="edge36" class="edge"><title>Node1&#45;&gt;Node14</title>
<path fill="none" stroke="midnightblue" d="M178.07,-221.241C349.245,-225.364 711.394,-234.085 874.413,-238.011"/>
<polygon fill="midnightblue" stroke="midnightblue" points="177.903,-217.736 167.822,-220.995 177.735,-224.734 177.903,-217.736"/>
</g>
<!-- Node19 -->
<g id="node19" class="node"><title>Node19</title>
<g id="a_node19"><a xlink:href="classrepo_1_1programs_1_1pythonpackages_1_1pr_1_1SPDataSet_1_1SPDataSet.html#a840bb6c513576d34e4f44299a4ca2046" target="_top" xlink:title="repo.programs.pythonpackages.pr.\lSPDataSet.SPDataSet.update\l_set_info">
<polygon fill="white" stroke="black" points="204.5,-0.5 204.5,-41.5 371.5,-41.5 371.5,-0.5 204.5,-0.5"/>
<text text-anchor="start" x="212.5" y="-29.5" font-family="Helvetica,sans-Serif" font-size="10.00">repo.programs.pythonpackages.pr.</text>
<text text-anchor="start" x="212.5" y="-18.5" font-family="Helvetica,sans-Serif" font-size="10.00">SPDataSet.SPDataSet.update</text>
<text text-anchor="middle" x="288" y="-7.5" font-family="Helvetica,sans-Serif" font-size="10.00">_set_info</text>
</a>
</g>
</g>
<!-- Node1&#45;&gt;Node19 -->
<g id="edge32" class="edge"><title>Node1&#45;&gt;Node19</title>
<path fill="none" stroke="midnightblue" d="M97.1405,-194.823C115.778,-159.878 154.532,-95.1607 204,-56 210.989,-50.4672 218.981,-45.6631 227.182,-41.5375"/>
<polygon fill="midnightblue" stroke="midnightblue" points="93.9559,-193.36 92.4252,-203.844 100.159,-196.603 93.9559,-193.36"/>
</g>
<!-- Node20 -->
<g id="node20" class="node"><title>Node20</title>
<g id="a_node20"><a xlink:href="classrepo_1_1programs_1_1pythonpackages_1_1pr_1_1SPDataSet_1_1SPDataSet.html#a2b09966d9ad35b39ea13988a7c361df6" target="_top" xlink:title="Assume it&#39;s a continuously rotating sample. ">
<polygon fill="white" stroke="black" points="650,-130 650,-160 838,-160 838,-130 650,-130"/>
<text text-anchor="start" x="658" y="-148" font-family="Helvetica,sans-Serif" font-size="10.00">repo.programs.pythonpackages.pr.</text>
<text text-anchor="middle" x="744" y="-137" font-family="Helvetica,sans-Serif" font-size="10.00">SPDataSet.SPDataSet.seqAmpFitSplit</text>
</a>
</g>
</g>
<!-- Node1&#45;&gt;Node20 -->
<g id="edge34" class="edge"><title>Node1&#45;&gt;Node20</title>
<path fill="none" stroke="midnightblue" d="M177.623,-208.046C186.537,-207.009 195.441,-205.98 204,-205 360.451,-187.089 542.537,-166.972 649.984,-155.176"/>
<polygon fill="midnightblue" stroke="midnightblue" points="177.101,-204.583 167.573,-209.218 177.911,-211.536 177.101,-204.583"/>
</g>
<!-- Node3 -->
<g id="node3" class="node"><title>Node3</title>
<g id="a_node3"><a xlink:href="classrepo_1_1programs_1_1pythonpackages_1_1pr_1_1SPDataSet_1_1SPDataSet.html#a14656e508d81193e8c71c09d9444e15f" target="_top" xlink:title="repo.programs.pythonpackages.pr.\lSPDataSet.SPDataSet.trigTimes">
<polygon fill="white" stroke="black" points="427.5,-423 427.5,-453 594.5,-453 594.5,-423 427.5,-423"/>
<text text-anchor="start" x="435.5" y="-441" font-family="Helvetica,sans-Serif" font-size="10.00">repo.programs.pythonpackages.pr.</text>
<text text-anchor="middle" x="511" y="-430" font-family="Helvetica,sans-Serif" font-size="10.00">SPDataSet.SPDataSet.trigTimes</text>
</a>
</g>
</g>
<!-- Node2&#45;&gt;Node3 -->
<g id="edge2" class="edge"><title>Node2&#45;&gt;Node3</title>
<path fill="none" stroke="midnightblue" d="M332.946,-360.288C374.913,-378.709 437.294,-406.088 475.711,-422.95"/>
<polygon fill="midnightblue" stroke="midnightblue" points="334.095,-356.97 323.531,-356.156 331.281,-363.38 334.095,-356.97"/>
</g>
<!-- Node17 -->
<g id="node17" class="node"><title>Node17</title>
<g id="a_node17"><a xlink:href="classrepo_1_1programs_1_1pythonpackages_1_1pr_1_1SPDataSet_1_1SPDataSet.html#a7482cde5c58c574e2c1ade31e06fcdb4" target="_top" xlink:title="repo.programs.pythonpackages.pr.\lSPDataSet.SPDataSet.apparatusRotations">
<polygon fill="white" stroke="black" points="408,-351 408,-381 614,-381 614,-351 408,-351"/>
<text text-anchor="start" x="416" y="-369" font-family="Helvetica,sans-Serif" font-size="10.00">repo.programs.pythonpackages.pr.</text>
<text text-anchor="middle" x="511" y="-358" font-family="Helvetica,sans-Serif" font-size="10.00">SPDataSet.SPDataSet.apparatusRotations</text>
</a>
</g>
</g>
<!-- Node2&#45;&gt;Node17 -->
<g id="edge26" class="edge"><title>Node2&#45;&gt;Node17</title>
<path fill="none" stroke="midnightblue" d="M381.631,-351.479C390.24,-352.453 398.998,-353.443 407.688,-354.426"/>
<polygon fill="midnightblue" stroke="midnightblue" points="381.937,-347.991 371.607,-350.345 381.15,-354.947 381.937,-347.991"/>
</g>
<!-- Node18 -->
<g id="node18" class="node"><title>Node18</title>
<g id="a_node18"><a xlink:href="classrepo_1_1programs_1_1pythonpackages_1_1pr_1_1SPDataSet_1_1SPDataSet.html#aee6249fe272c46f07d0f2f32f6c188d2" target="_top" xlink:title="repo.programs.pythonpackages.pr.\lSPDataSet.SPDataSet.apparatusAngles">
<polygon fill="white" stroke="black" points="414,-302 414,-332 608,-332 608,-302 414,-302"/>
<text text-anchor="start" x="422" y="-320" font-family="Helvetica,sans-Serif" font-size="10.00">repo.programs.pythonpackages.pr.</text>
<text text-anchor="middle" x="511" y="-309" font-family="Helvetica,sans-Serif" font-size="10.00">SPDataSet.SPDataSet.apparatusAngles</text>
</a>
</g>
</g>
<!-- Node2&#45;&gt;Node18 -->
<g id="edge27" class="edge"><title>Node2&#45;&gt;Node18</title>
<path fill="none" stroke="midnightblue" d="M381.678,-330.935C392.269,-329.785 403.083,-328.611 413.719,-327.456"/>
<polygon fill="midnightblue" stroke="midnightblue" points="381.17,-327.47 371.607,-332.029 381.926,-334.429 381.17,-327.47"/>
</g>
<!-- Node4 -->
<g id="node4" class="node"><title>Node4</title>
<g id="a_node4"><a xlink:href="classrepo_1_1programs_1_1pythonpackages_1_1pr_1_1SPDataSet_1_1SPDataSet.html#a5b12a3d9fdb93ccbf79a6b7a7893be3f" target="_top" xlink:title="repo.programs.pythonpackages.pr.\lSPDataSet.SPDataSet.cutAmp">
<polygon fill="white" stroke="black" points="660.5,-324 660.5,-354 827.5,-354 827.5,-324 660.5,-324"/>
<text text-anchor="start" x="668.5" y="-342" font-family="Helvetica,sans-Serif" font-size="10.00">repo.programs.pythonpackages.pr.</text>
<text text-anchor="middle" x="744" y="-331" font-family="Helvetica,sans-Serif" font-size="10.00">SPDataSet.SPDataSet.cutAmp</text>
</a>
</g>
</g>
<!-- Node3&#45;&gt;Node4 -->
<g id="edge3" class="edge"><title>Node3&#45;&gt;Node4</title>
<path fill="none" stroke="midnightblue" d="M556.419,-418.963C600.578,-400.038 667.419,-371.392 707.965,-354.015"/>
<polygon fill="midnightblue" stroke="midnightblue" points="554.897,-415.808 547.084,-422.964 557.654,-422.242 554.897,-415.808"/>
</g>
<!-- Node3&#45;&gt;Node13 -->
<g id="edge25" class="edge"><title>Node3&#45;&gt;Node13</title>
<path fill="none" stroke="midnightblue" d="M605.059,-449.585C620.069,-451.224 635.453,-452.768 650,-454 970.871,-481.17 1353.38,-471.758 1527.82,-465.179"/>
<polygon fill="midnightblue" stroke="midnightblue" points="605.067,-446.064 594.741,-448.437 604.293,-453.021 605.067,-446.064"/>
</g>
<!-- Node16 -->
<g id="node16" class="node"><title>Node16</title>
<g id="a_node16"><a xlink:href="classrepo_1_1programs_1_1pythonpackages_1_1pr_1_1SPDataSet_1_1SPDataSet.html#a5343a59b34ffebfc31c1dfd06ddfa889" target="_top" xlink:title="repo.programs.pythonpackages.pr.\lSPDataSet.SPDataSet.viewRaw">
<polygon fill="white" stroke="black" points="874.5,-427 874.5,-457 1041.5,-457 1041.5,-427 874.5,-427"/>
<text text-anchor="start" x="882.5" y="-445" font-family="Helvetica,sans-Serif" font-size="10.00">repo.programs.pythonpackages.pr.</text>
<text text-anchor="middle" x="958" y="-434" font-family="Helvetica,sans-Serif" font-size="10.00">SPDataSet.SPDataSet.viewRaw</text>
</a>
</g>
</g>
<!-- Node3&#45;&gt;Node16 -->
<g id="edge24" class="edge"><title>Node3&#45;&gt;Node16</title>
<path fill="none" stroke="midnightblue" d="M604.676,-438.833C684.251,-439.548 797.899,-440.57 874.408,-441.258"/>
<polygon fill="midnightblue" stroke="midnightblue" points="604.689,-435.333 594.658,-438.743 604.626,-442.333 604.689,-435.333"/>
</g>
<!-- Node4&#45;&gt;Node4 -->
<g id="edge4" class="edge"><title>Node4&#45;&gt;Node4</title>
<path fill="none" stroke="midnightblue" d="M706.542,-364.598C711.66,-368.97 724.146,-372 744,-372 777.438,-372 789.977,-363.406 781.617,-354.275"/>
<polygon fill="midnightblue" stroke="midnightblue" points="710.037,-364.22 706.383,-354.275 703.038,-364.328 710.037,-364.22"/>
</g>
<!-- Node4&#45;&gt;Node5 -->
<g id="edge5" class="edge"><title>Node4&#45;&gt;Node5</title>
<path fill="none" stroke="midnightblue" d="M837.953,-342.273C909.192,-344.781 1007.03,-348.227 1078.23,-350.733"/>
<polygon fill="midnightblue" stroke="midnightblue" points="837.759,-338.764 827.642,-341.91 837.513,-345.76 837.759,-338.764"/>
</g>
<!-- Node4&#45;&gt;Node14 -->
<g id="edge17" class="edge"><title>Node4&#45;&gt;Node14</title>
<path fill="none" stroke="midnightblue" d="M786.276,-319.725C826.807,-300.798 887.792,-272.319 924.847,-255.015"/>
<polygon fill="midnightblue" stroke="midnightblue" points="784.778,-316.562 777.198,-323.964 787.74,-322.904 784.778,-316.562"/>
</g>
<!-- Node4&#45;&gt;Node16 -->
<g id="edge23" class="edge"><title>Node4&#45;&gt;Node16</title>
<path fill="none" stroke="midnightblue" d="M785.431,-358.643C826.351,-378.524 888.741,-408.836 925.936,-426.907"/>
<polygon fill="midnightblue" stroke="midnightblue" points="786.805,-355.42 776.281,-354.198 783.746,-361.716 786.805,-355.42"/>
</g>
<!-- Node5&#45;&gt;Node6 -->
<g id="edge6" class="edge"><title>Node5&#45;&gt;Node6</title>
<path fill="none" stroke="midnightblue" d="M1238.84,-335.542C1248.14,-332.138 1257.44,-328.285 1266,-324 1308.04,-302.945 1351.61,-268.934 1375.2,-249.306"/>
<polygon fill="midnightblue" stroke="midnightblue" points="1237.46,-332.317 1229.18,-338.925 1239.77,-338.924 1237.46,-332.317"/>
</g>
<!-- Node6&#45;&gt;Node6 -->
<g id="edge7" class="edge"><title>Node6&#45;&gt;Node6</title>
<path fill="none" stroke="midnightblue" d="M1355.14,-259.598C1360.45,-263.97 1373.4,-267 1394,-267 1428.69,-267 1441.7,-258.406 1433.02,-249.275"/>
<polygon fill="midnightblue" stroke="midnightblue" points="1358.64,-259.218 1354.98,-249.275 1351.64,-259.33 1358.64,-259.218"/>
</g>
<!-- Node7 -->
<g id="node7" class="node"><title>Node7</title>
<g id="a_node7"><a xlink:href="classrepo_1_1programs_1_1pythonpackages_1_1pr_1_1SPDataSet_1_1SPDataSet.html#ac0df54b82a9e993d707f0dafd87a19dd" target="_top" xlink:title="repo.programs.pythonpackages.pr.\lSPDataSet.SPDataSet.labAmp">
<polygon fill="white" stroke="black" points="1540.5,-312 1540.5,-342 1707.5,-342 1707.5,-312 1540.5,-312"/>
<text text-anchor="start" x="1548.5" y="-330" font-family="Helvetica,sans-Serif" font-size="10.00">repo.programs.pythonpackages.pr.</text>
<text text-anchor="middle" x="1624" y="-319" font-family="Helvetica,sans-Serif" font-size="10.00">SPDataSet.SPDataSet.labAmp</text>
</a>
</g>
</g>
<!-- Node6&#45;&gt;Node7 -->
<g id="edge8" class="edge"><title>Node6&#45;&gt;Node7</title>
<path fill="none" stroke="midnightblue" d="M1427.67,-254.425C1452.71,-269.342 1488.53,-289.128 1522,-302 1531.69,-305.728 1542.13,-309.043 1552.48,-311.941"/>
<polygon fill="midnightblue" stroke="midnightblue" points="1429.33,-251.339 1418.96,-249.172 1425.72,-257.333 1429.33,-251.339"/>
</g>
<!-- Node8 -->
<g id="node8" class="node"><title>Node8</title>
<g id="a_node8"><a xlink:href="classrepo_1_1programs_1_1pythonpackages_1_1pr_1_1SPDataSet_1_1SPDataSet.html#a3624263a6738178d243635889b719a90" target="_top" xlink:title="repo.programs.pythonpackages.pr.\lSPDataSet.SPDataSet.viewSid">
<polygon fill="white" stroke="black" points="1767.5,-263 1767.5,-293 1934.5,-293 1934.5,-263 1767.5,-263"/>
<text text-anchor="start" x="1775.5" y="-281" font-family="Helvetica,sans-Serif" font-size="10.00">repo.programs.pythonpackages.pr.</text>
<text text-anchor="middle" x="1851" y="-270" font-family="Helvetica,sans-Serif" font-size="10.00">SPDataSet.SPDataSet.viewSid</text>
</a>
</g>
</g>
<!-- Node6&#45;&gt;Node8 -->
<g id="edge14" class="edge"><title>Node6&#45;&gt;Node8</title>
<path fill="none" stroke="midnightblue" d="M1496.61,-236.7C1562.26,-239.291 1649.42,-244.318 1726,-254 1743.95,-256.269 1763.2,-259.568 1781.06,-262.998"/>
<polygon fill="midnightblue" stroke="midnightblue" points="1496.39,-233.189 1486.27,-236.305 1496.12,-240.184 1496.39,-233.189"/>
</g>
<!-- Node9 -->
<g id="node9" class="node"><title>Node9</title>
<g id="a_node9"><a xlink:href="classrepo_1_1programs_1_1pythonpackages_1_1pr_1_1SPDataSet_1_1SPDataSet.html#acf495c99c803a2a1e23cdaeae34da985" target="_top" xlink:title="repo.programs.pythonpackages.pr.\lSPDataSet.SPDataSet.sidAmp">
<polygon fill="white" stroke="black" points="1540.5,-263 1540.5,-293 1707.5,-293 1707.5,-263 1540.5,-263"/>
<text text-anchor="start" x="1548.5" y="-281" font-family="Helvetica,sans-Serif" font-size="10.00">repo.programs.pythonpackages.pr.</text>
<text text-anchor="middle" x="1624" y="-270" font-family="Helvetica,sans-Serif" font-size="10.00">SPDataSet.SPDataSet.sidAmp</text>
</a>
</g>
</g>
<!-- Node6&#45;&gt;Node9 -->
<g id="edge10" class="edge"><title>Node6&#45;&gt;Node9</title>
<path fill="none" stroke="midnightblue" d="M1482.8,-250.944C1503.33,-254.907 1525.07,-259.101 1545.14,-262.974"/>
<polygon fill="midnightblue" stroke="midnightblue" points="1483.31,-247.478 1472.83,-249.019 1481.98,-254.351 1483.31,-247.478"/>
</g>
<!-- Node10 -->
<g id="node10" class="node"><title>Node10</title>
<g id="a_node10"><a xlink:href="classrepo_1_1programs_1_1pythonpackages_1_1pr_1_1SPDataSet_1_1SPDataSet.html#ac55c6ccc03634d3f670f52e89188779c" target="_top" xlink:title="repo.programs.pythonpackages.pr.\lSPDataSet.SPDataSet.viewSeq">
<polygon fill="white" stroke="black" points="1540.5,-175 1540.5,-205 1707.5,-205 1707.5,-175 1540.5,-175"/>
<text text-anchor="start" x="1548.5" y="-193" font-family="Helvetica,sans-Serif" font-size="10.00">repo.programs.pythonpackages.pr.</text>
<text text-anchor="middle" x="1624" y="-182" font-family="Helvetica,sans-Serif" font-size="10.00">SPDataSet.SPDataSet.viewSeq</text>
</a>
</g>
</g>
<!-- Node6&#45;&gt;Node10 -->
<g id="edge12" class="edge"><title>Node6&#45;&gt;Node10</title>
<path fill="none" stroke="midnightblue" d="M1482.8,-217.056C1503.33,-213.093 1525.07,-208.899 1545.14,-205.026"/>
<polygon fill="midnightblue" stroke="midnightblue" points="1481.98,-213.649 1472.83,-218.981 1483.31,-220.522 1481.98,-213.649"/>
</g>
<!-- Node12 -->
<g id="node12" class="node"><title>Node12</title>
<g id="a_node12"><a xlink:href="classrepo_1_1programs_1_1pythonpackages_1_1pr_1_1SPDataSet_1_1SPDataSet.html#a5aad808c592bfdbb665105df2947610f" target="_top" xlink:title="repo.programs.pythonpackages.pr.\lSPDataSet.SPDataSet.viewCorrelationFilt">
<polygon fill="white" stroke="black" points="1522.5,-126 1522.5,-156 1725.5,-156 1725.5,-126 1522.5,-126"/>
<text text-anchor="start" x="1530.5" y="-144" font-family="Helvetica,sans-Serif" font-size="10.00">repo.programs.pythonpackages.pr.</text>
<text text-anchor="middle" x="1624" y="-133" font-family="Helvetica,sans-Serif" font-size="10.00">SPDataSet.SPDataSet.viewCorrelationFilt</text>
</a>
</g>
</g>
<!-- Node6&#45;&gt;Node12 -->
<g id="edge15" class="edge"><title>Node6&#45;&gt;Node12</title>
<path fill="none" stroke="midnightblue" d="M1427.13,-213.44C1452.15,-198.211 1488.19,-177.94 1522,-165 1530.75,-161.65 1540.12,-158.671 1549.48,-156.05"/>
<polygon fill="midnightblue" stroke="midnightblue" points="1425.11,-210.572 1418.44,-218.799 1428.79,-216.531 1425.11,-210.572"/>
</g>
<!-- Node6&#45;&gt;Node13 -->
<g id="edge16" class="edge"><title>Node6&#45;&gt;Node13</title>
<path fill="none" stroke="midnightblue" d="M1417.47,-256.373C1463.72,-302.415 1568.48,-406.721 1607.75,-445.82"/>
<polygon fill="midnightblue" stroke="midnightblue" points="1419.87,-253.822 1410.31,-249.247 1414.93,-258.782 1419.87,-253.822"/>
</g>
<!-- Node7&#45;&gt;Node8 -->
<g id="edge9" class="edge"><title>Node7&#45;&gt;Node8</title>
<path fill="none" stroke="midnightblue" d="M1703.91,-309.815C1729.07,-304.335 1756.7,-298.318 1781.09,-293.006"/>
<polygon fill="midnightblue" stroke="midnightblue" points="1703.06,-306.418 1694.04,-311.965 1704.55,-313.257 1703.06,-306.418"/>
</g>
<!-- Node9&#45;&gt;Node8 -->
<g id="edge11" class="edge"><title>Node9&#45;&gt;Node8</title>
<path fill="none" stroke="midnightblue" d="M1717.63,-278C1734.03,-278 1751.02,-278 1767.13,-278"/>
<polygon fill="midnightblue" stroke="midnightblue" points="1717.5,-274.5 1707.5,-278 1717.5,-281.5 1717.5,-274.5"/>
</g>
<!-- Node11 -->
<g id="node11" class="node"><title>Node11</title>
<g id="a_node11"><a xlink:href="classrepo_1_1programs_1_1pythonpackages_1_1pr_1_1SPDataSet_1_1SPDataSet.html#a0c87af10688edd55eb0aea229e5979bb" target="_top" xlink:title="repo.programs.pythonpackages.pr.\lSPDataSet.SPDataSet.viewSensors">
<polygon fill="white" stroke="black" points="1762,-175 1762,-205 1940,-205 1940,-175 1762,-175"/>
<text text-anchor="start" x="1770" y="-193" font-family="Helvetica,sans-Serif" font-size="10.00">repo.programs.pythonpackages.pr.</text>
<text text-anchor="middle" x="1851" y="-182" font-family="Helvetica,sans-Serif" font-size="10.00">SPDataSet.SPDataSet.viewSensors</text>
</a>
</g>
</g>
<!-- Node10&#45;&gt;Node11 -->
<g id="edge13" class="edge"><title>Node10&#45;&gt;Node11</title>
<path fill="none" stroke="midnightblue" d="M1717.55,-190C1732.19,-190 1747.29,-190 1761.83,-190"/>
<polygon fill="midnightblue" stroke="midnightblue" points="1717.5,-186.5 1707.5,-190 1717.5,-193.5 1717.5,-186.5"/>
</g>
<!-- Node14&#45;&gt;Node5 -->
<g id="edge18" class="edge"><title>Node14&#45;&gt;Node5</title>
<path fill="none" stroke="midnightblue" d="M996.21,-260.009C1038.15,-282.562 1105.38,-318.715 1143.07,-338.981"/>
<polygon fill="midnightblue" stroke="midnightblue" points="997.617,-256.792 987.152,-255.138 994.302,-262.957 997.617,-256.792"/>
</g>
<!-- Node14&#45;&gt;Node6 -->
<g id="edge19" class="edge"><title>Node14&#45;&gt;Node6</title>
<path fill="none" stroke="midnightblue" d="M1051.87,-238.716C1125.65,-237.696 1228.27,-236.277 1301.65,-235.263"/>
<polygon fill="midnightblue" stroke="midnightblue" points="1051.6,-235.219 1041.65,-238.857 1051.7,-242.219 1051.6,-235.219"/>
</g>
<!-- Node14&#45;&gt;Node10 -->
<g id="edge20" class="edge"><title>Node14&#45;&gt;Node10</title>
<path fill="none" stroke="midnightblue" d="M1051.74,-230.834C1120.72,-224.208 1217.18,-215.342 1302,-209 1383,-202.944 1475.62,-197.634 1540.49,-194.179"/>
<polygon fill="midnightblue" stroke="midnightblue" points="1051.38,-227.352 1041.76,-231.795 1052.05,-234.32 1051.38,-227.352"/>
</g>
<!-- Node14&#45;&gt;Node12 -->
<g id="edge21" class="edge"><title>Node14&#45;&gt;Node12</title>
<path fill="none" stroke="midnightblue" d="M1020.51,-222.342C1038.89,-217.509 1059.16,-212.613 1078,-209 1231.81,-179.501 1412.6,-159.863 1522.44,-149.575"/>
<polygon fill="midnightblue" stroke="midnightblue" points="1019.56,-218.972 1010.8,-224.933 1021.36,-225.735 1019.56,-218.972"/>
</g>
<!-- Node15 -->
<g id="node15" class="node"><title>Node15</title>
<g id="a_node15"><a xlink:href="classrepo_1_1programs_1_1pythonpackages_1_1pr_1_1SPDataSet_1_1SPDataSet.html#a2ffa7a6de1e0ebd8172db800621eed20" target="_top" xlink:title="repo.programs.pythonpackages.pr.\lSPDataSet.SPDataSet.test_div">
<polygon fill="white" stroke="black" points="1088.5,-251 1088.5,-281 1255.5,-281 1255.5,-251 1088.5,-251"/>
<text text-anchor="start" x="1096.5" y="-269" font-family="Helvetica,sans-Serif" font-size="10.00">repo.programs.pythonpackages.pr.</text>
<text text-anchor="middle" x="1172" y="-258" font-family="Helvetica,sans-Serif" font-size="10.00">SPDataSet.SPDataSet.test_div</text>
</a>
</g>
</g>
<!-- Node14&#45;&gt;Node15 -->
<g id="edge22" class="edge"><title>Node14&#45;&gt;Node15</title>
<path fill="none" stroke="midnightblue" d="M1051.73,-251.372C1063.9,-252.865 1076.31,-254.387 1088.3,-255.858"/>
<polygon fill="midnightblue" stroke="midnightblue" points="1051.92,-247.87 1041.57,-250.127 1051.07,-254.818 1051.92,-247.87"/>
</g>
<!-- Node18&#45;&gt;Node4 -->
<g id="edge28" class="edge"><title>Node18&#45;&gt;Node4</title>
<path fill="none" stroke="midnightblue" d="M618.503,-327.143C632.586,-328.484 646.849,-329.843 660.447,-331.138"/>
<polygon fill="midnightblue" stroke="midnightblue" points="618.579,-323.635 608.292,-326.171 617.915,-330.603 618.579,-323.635"/>
</g>
<!-- Node18&#45;&gt;Node6 -->
<g id="edge30" class="edge"><title>Node18&#45;&gt;Node6</title>
<path fill="none" stroke="midnightblue" d="M618.501,-315.415C811.478,-312.213 1204.74,-304.057 1266,-290 1302.64,-281.593 1341.78,-262.637 1366.78,-249.111"/>
<polygon fill="midnightblue" stroke="midnightblue" points="618.279,-311.918 608.338,-315.582 618.394,-318.917 618.279,-311.918"/>
</g>
<!-- Node18&#45;&gt;Node13 -->
<g id="edge31" class="edge"><title>Node18&#45;&gt;Node13</title>
<path fill="none" stroke="midnightblue" d="M602.383,-335.992C606.396,-337.815 610.29,-339.812 614,-342 634.319,-353.983 628.797,-370.661 650,-381 669.603,-390.559 1286.95,-436.482 1527.95,-454.099"/>
<polygon fill="midnightblue" stroke="midnightblue" points="603.416,-332.631 592.837,-332.047 600.742,-339.101 603.416,-332.631"/>
</g>
<!-- Node18&#45;&gt;Node14 -->
<g id="edge29" class="edge"><title>Node18&#45;&gt;Node14</title>
<path fill="none" stroke="midnightblue" d="M573.37,-299.27C597.153,-292.852 624.702,-285.97 650,-281 725.452,-266.178 812.402,-255.122 874.462,-248.249"/>
<polygon fill="midnightblue" stroke="midnightblue" points="572.15,-295.974 563.425,-301.984 573.994,-302.727 572.15,-295.974"/>
</g>
<!-- Node20&#45;&gt;Node6 -->
<g id="edge35" class="edge"><title>Node20&#45;&gt;Node6</title>
<path fill="none" stroke="midnightblue" d="M848.165,-159.169C973.287,-176.354 1182.24,-205.054 1301.74,-221.466"/>
<polygon fill="midnightblue" stroke="midnightblue" points="848.571,-155.692 838.187,-157.799 847.618,-162.627 848.571,-155.692"/>
</g>
</g>
</svg>
