<?xml version="1.0" encoding="UTF-8" standalone="no"?>
<!DOCTYPE svg PUBLIC "-//W3C//DTD SVG 1.1//EN"
 "http://www.w3.org/Graphics/SVG/1.1/DTD/svg11.dtd">
<!-- Generated by graphviz version 2.36.0 (20140111.2315)
 -->
<!-- Title: repo.programs.pythonpackages.pr.SPDataSet.SPDataSet.filteredCutAmp Pages: 1 -->
<svg width="1690pt" height="466pt"
 viewBox="0.00 0.00 1690.00 466.00" xmlns="http://www.w3.org/2000/svg" xmlns:xlink="http://www.w3.org/1999/xlink">
<g id="graph0" class="graph" transform="scale(1 1) rotate(0) translate(4 462)">
<title>repo.programs.pythonpackages.pr.SPDataSet.SPDataSet.filteredCutAmp</title>
<polygon fill="white" stroke="none" points="-4,4 -4,-462 1686,-462 1686,4 -4,4"/>
<!-- Node1 -->
<g id="node1" class="node"><title>Node1</title>
<polygon fill="#bfbfbf" stroke="black" points="0.5,-65 0.5,-95 187.5,-95 187.5,-65 0.5,-65"/>
<text text-anchor="start" x="8.5" y="-83" font-family="Helvetica,sans-Serif" font-size="10.00">repo.programs.pythonpackages.pr.</text>
<text text-anchor="middle" x="94" y="-72" font-family="Helvetica,sans-Serif" font-size="10.00">SPDataSet.SPDataSet.filteredCutAmp</text>
</g>
<!-- Node2 -->
<g id="node2" class="node"><title>Node2</title>
<g id="a_node2"><a xlink:href="classrepo_1_1programs_1_1pythonpackages_1_1pr_1_1SPDataSet_1_1SPDataSet.html#af17c964467367b46a56c14a8c87e84a2" target="_top" xlink:title="Property doc string!! ">
<polygon fill="white" stroke="black" points="1079.5,-42 1079.5,-72 1246.5,-72 1246.5,-42 1079.5,-42"/>
<text text-anchor="start" x="1087.5" y="-60" font-family="Helvetica,sans-Serif" font-size="10.00">repo.programs.pythonpackages.pr.</text>
<text text-anchor="middle" x="1163" y="-49" font-family="Helvetica,sans-Serif" font-size="10.00">SPDataSet.SPDataSet.set_info</text>
</a>
</g>
</g>
<!-- Node1&#45;&gt;Node2 -->
<g id="edge1" class="edge"><title>Node1&#45;&gt;Node2</title>
<path fill="none" stroke="midnightblue" d="M141.85,-64.9526C218.281,-41.7786 374.941,-0 511,-0 511,-0 511,-0 730,-0 853.525,-0 995.224,-23.1893 1081.66,-39.9861"/>
<polygon fill="midnightblue" stroke="midnightblue" points="1081.17,-43.4577 1091.66,-41.9494 1082.52,-36.5888 1081.17,-43.4577"/>
</g>
<!-- Node3 -->
<g id="node3" class="node"><title>Node3</title>
<g id="a_node3"><a xlink:href="namespacerepo_1_1programs_1_1pythonpackages_1_1pr_1_1SPDataSet.html#a9d0e07e3e1f4360be4f8c59927abe142" target="_top" xlink:title="Helpful for calling work_func(following_func(**remaining_args), **work_args)) work_args are the entri...">
<polygon fill="white" stroke="black" points="428.5,-29 428.5,-59 595.5,-59 595.5,-29 428.5,-29"/>
<text text-anchor="start" x="436.5" y="-47" font-family="Helvetica,sans-Serif" font-size="10.00">repo.programs.pythonpackages.pr.</text>
<text text-anchor="middle" x="512" y="-36" font-family="Helvetica,sans-Serif" font-size="10.00">SPDataSet.divide_args</text>
</a>
</g>
</g>
<!-- Node1&#45;&gt;Node3 -->
<g id="edge2" class="edge"><title>Node1&#45;&gt;Node3</title>
<path fill="none" stroke="midnightblue" d="M187.582,-71.9881C256.128,-66.0563 349.143,-58.0069 417.828,-52.063"/>
<polygon fill="midnightblue" stroke="midnightblue" points="418.546,-55.514 428.207,-51.1648 417.942,-48.5401 418.546,-55.514"/>
</g>
<!-- Node4 -->
<g id="node4" class="node"><title>Node4</title>
<g id="a_node4"><a xlink:href="classrepo_1_1programs_1_1pythonpackages_1_1pr_1_1SPDataSet_1_1SPDataSet.html#a6f2c3de2aa708d686f5835f10e2d096d" target="_top" xlink:title="repo.programs.pythonpackages.pr.\lSPDataSet.SPDataSet.pointAmp">
<polygon fill="white" stroke="black" points="224.5,-97 224.5,-127 391.5,-127 391.5,-97 224.5,-97"/>
<text text-anchor="start" x="232.5" y="-115" font-family="Helvetica,sans-Serif" font-size="10.00">repo.programs.pythonpackages.pr.</text>
<text text-anchor="middle" x="308" y="-104" font-family="Helvetica,sans-Serif" font-size="10.00">SPDataSet.SPDataSet.pointAmp</text>
</a>
</g>
</g>
<!-- Node1&#45;&gt;Node4 -->
<g id="edge3" class="edge"><title>Node1&#45;&gt;Node4</title>
<path fill="none" stroke="midnightblue" d="M187.678,-93.9891C196.502,-95.321 205.451,-96.6718 214.275,-98.0037"/>
<polygon fill="midnightblue" stroke="midnightblue" points="213.761,-101.466 224.171,-99.4976 214.806,-94.5441 213.761,-101.466"/>
</g>
<!-- Node13 -->
<g id="node13" class="node"><title>Node13</title>
<g id="a_node13"><a xlink:href="classrepo_1_1programs_1_1pythonpackages_1_1pr_1_1SPDataSet_1_1SPDataSet.html#a5b12a3d9fdb93ccbf79a6b7a7893be3f" target="_top" xlink:title="repo.programs.pythonpackages.pr.\lSPDataSet.SPDataSet.cutAmp">
<polygon fill="white" stroke="black" points="428.5,-155 428.5,-185 595.5,-185 595.5,-155 428.5,-155"/>
<text text-anchor="start" x="436.5" y="-173" font-family="Helvetica,sans-Serif" font-size="10.00">repo.programs.pythonpackages.pr.</text>
<text text-anchor="middle" x="512" y="-162" font-family="Helvetica,sans-Serif" font-size="10.00">SPDataSet.SPDataSet.cutAmp</text>
</a>
</g>
</g>
<!-- Node1&#45;&gt;Node13 -->
<g id="edge36" class="edge"><title>Node1&#45;&gt;Node13</title>
<path fill="none" stroke="midnightblue" d="M123.33,-95.1719C148.902,-108.161 187.937,-126.262 224,-136 287.632,-153.182 361.53,-161.684 418.403,-165.888"/>
<polygon fill="midnightblue" stroke="midnightblue" points="418.235,-169.385 428.457,-166.6 418.729,-162.403 418.235,-169.385"/>
</g>
<!-- Node4&#45;&gt;Node2 -->
<g id="edge4" class="edge"><title>Node4&#45;&gt;Node2</title>
<path fill="none" stroke="midnightblue" d="M391.564,-106.676C551.361,-96.373 901.891,-73.7714 1069.36,-62.9733"/>
<polygon fill="midnightblue" stroke="midnightblue" points="1069.64,-66.4628 1079.39,-62.3265 1069.19,-59.4773 1069.64,-66.4628"/>
</g>
<!-- Node4&#45;&gt;Node3 -->
<g id="edge14" class="edge"><title>Node4&#45;&gt;Node3</title>
<path fill="none" stroke="midnightblue" d="M353.83,-96.9086C384.167,-86.6963 424.417,-73.1469 456.59,-62.3164"/>
<polygon fill="midnightblue" stroke="midnightblue" points="457.934,-65.5568 466.295,-59.0492 455.701,-58.9226 457.934,-65.5568"/>
</g>
<!-- Node5 -->
<g id="node5" class="node"><title>Node5</title>
<g id="a_node5"><a xlink:href="classrepo_1_1programs_1_1pythonpackages_1_1pr_1_1SPDataSet_1_1SPDataSet.html#afe54eeb9f41f503dc478557e4ea2c62a" target="_top" xlink:title="repo.programs.pythonpackages.pr.\lSPDataSet.SPDataSet.rawData">
<polygon fill="white" stroke="black" points="862.5,-373 862.5,-403 1029.5,-403 1029.5,-373 862.5,-373"/>
<text text-anchor="start" x="870.5" y="-391" font-family="Helvetica,sans-Serif" font-size="10.00">repo.programs.pythonpackages.pr.</text>
<text text-anchor="middle" x="946" y="-380" font-family="Helvetica,sans-Serif" font-size="10.00">SPDataSet.SPDataSet.rawData</text>
</a>
</g>
</g>
<!-- Node4&#45;&gt;Node5 -->
<g id="edge5" class="edge"><title>Node4&#45;&gt;Node5</title>
<path fill="none" stroke="midnightblue" d="M325.208,-127.204C347.451,-147.689 389.115,-184.728 428,-212 513.753,-272.143 533.746,-293.709 632,-330 703.477,-356.401 788.751,-371.187 852.229,-379.212"/>
<polygon fill="midnightblue" stroke="midnightblue" points="851.871,-382.695 862.224,-380.443 852.727,-375.747 851.871,-382.695"/>
</g>
<!-- Node4&#45;&gt;Node13 -->
<g id="edge15" class="edge"><title>Node4&#45;&gt;Node13</title>
<path fill="none" stroke="midnightblue" d="M361.283,-127.012C388.052,-134.698 420.826,-144.109 448.878,-152.163"/>
<polygon fill="midnightblue" stroke="midnightblue" points="448.008,-155.555 458.586,-154.95 449.94,-148.826 448.008,-155.555"/>
</g>
<!-- Node21 -->
<g id="node21" class="node"><title>Node21</title>
<g id="a_node21"><a xlink:href="classrepo_1_1programs_1_1pythonpackages_1_1pr_1_1SPDataSet_1_1SPDataSet.html#aee6249fe272c46f07d0f2f32f6c188d2" target="_top" xlink:title="repo.programs.pythonpackages.pr.\lSPDataSet.SPDataSet.apparatusAngles">
<polygon fill="white" stroke="black" points="632,-124 632,-154 826,-154 826,-124 632,-124"/>
<text text-anchor="start" x="640" y="-142" font-family="Helvetica,sans-Serif" font-size="10.00">repo.programs.pythonpackages.pr.</text>
<text text-anchor="middle" x="729" y="-131" font-family="Helvetica,sans-Serif" font-size="10.00">SPDataSet.SPDataSet.apparatusAngles</text>
</a>
</g>
</g>
<!-- Node4&#45;&gt;Node21 -->
<g id="edge35" class="edge"><title>Node4&#45;&gt;Node21</title>
<path fill="none" stroke="midnightblue" d="M391.781,-117.334C457.589,-121.575 550.117,-127.537 621.452,-132.134"/>
<polygon fill="midnightblue" stroke="midnightblue" points="621.613,-135.652 631.817,-132.802 622.063,-128.666 621.613,-135.652"/>
</g>
<!-- Node6 -->
<g id="node6" class="node"><title>Node6</title>
<g id="a_node6"><a xlink:href="classrepo_1_1programs_1_1pythonpackages_1_1pr_1_1SPDataSet_1_1SPDataSet.html#aa400ad81219e782fe2e29e852b20bb28" target="_top" xlink:title="repo.programs.pythonpackages.pr.\lSPDataSet.SPDataSet.fastD">
<polygon fill="white" stroke="black" points="1079.5,-329 1079.5,-359 1246.5,-359 1246.5,-329 1079.5,-329"/>
<text text-anchor="start" x="1087.5" y="-347" font-family="Helvetica,sans-Serif" font-size="10.00">repo.programs.pythonpackages.pr.</text>
<text text-anchor="middle" x="1163" y="-336" font-family="Helvetica,sans-Serif" font-size="10.00">SPDataSet.SPDataSet.fastD</text>
</a>
</g>
</g>
<!-- Node5&#45;&gt;Node6 -->
<g id="edge6" class="edge"><title>Node5&#45;&gt;Node6</title>
<path fill="none" stroke="midnightblue" d="M1020.39,-372.981C1039.14,-369.144 1059.43,-364.99 1078.64,-361.059"/>
<polygon fill="midnightblue" stroke="midnightblue" points="1079.48,-364.46 1088.58,-359.026 1078.08,-357.602 1079.48,-364.46"/>
</g>
<!-- Node11 -->
<g id="node11" class="node"><title>Node11</title>
<g id="a_node11"><a xlink:href="classrepo_1_1programs_1_1pythonpackages_1_1pr_1_1SPDataSet_1_1SPDataSet.html#aa0b687b3c937bfb4aa71c4a09cac5eb5" target="_top" xlink:title="Names should be of the form &quot;med:Total Position Sensor 1&quot; etc. ">
<polygon fill="white" stroke="black" points="1066,-378 1066,-408 1260,-408 1260,-378 1066,-378"/>
<text text-anchor="start" x="1074" y="-396" font-family="Helvetica,sans-Serif" font-size="10.00">repo.programs.pythonpackages.pr.</text>
<text text-anchor="middle" x="1163" y="-385" font-family="Helvetica,sans-Serif" font-size="10.00">SPDataSet.SPDataSet.getRawByName</text>
</a>
</g>
</g>
<!-- Node5&#45;&gt;Node11 -->
<g id="edge11" class="edge"><title>Node5&#45;&gt;Node11</title>
<path fill="none" stroke="midnightblue" d="M1029.51,-383.334C1038.02,-383.417 1046.75,-383.566 1055.48,-383.773"/>
<polygon fill="midnightblue" stroke="midnightblue" points="1055.61,-387.278 1065.7,-384.043 1055.8,-380.28 1055.61,-387.278"/>
</g>
<!-- Node12 -->
<g id="node12" class="node"><title>Node12</title>
<g id="a_node12"><a xlink:href="classrepo_1_1programs_1_1pythonpackages_1_1pr_1_1SPDataSet_1_1SPDataSet.html#a33ced34e094ccfd1e3891b92478613e7" target="_top" xlink:title="repo.programs.pythonpackages.pr.\lSPDataSet.SPDataSet.clearRaw">
<polygon fill="white" stroke="black" points="1079.5,-427 1079.5,-457 1246.5,-457 1246.5,-427 1079.5,-427"/>
<text text-anchor="start" x="1087.5" y="-445" font-family="Helvetica,sans-Serif" font-size="10.00">repo.programs.pythonpackages.pr.</text>
<text text-anchor="middle" x="1163" y="-434" font-family="Helvetica,sans-Serif" font-size="10.00">SPDataSet.SPDataSet.clearRaw</text>
</a>
</g>
</g>
<!-- Node5&#45;&gt;Node12 -->
<g id="edge13" class="edge"><title>Node5&#45;&gt;Node12</title>
<path fill="none" stroke="midnightblue" d="M1006.89,-403.042C1033.34,-409.685 1064.6,-417.538 1092.11,-424.446"/>
<polygon fill="midnightblue" stroke="midnightblue" points="1091.51,-427.904 1102.06,-426.945 1093.21,-421.114 1091.51,-427.904"/>
</g>
<!-- Node7 -->
<g id="node7" class="node"><title>Node7</title>
<g id="a_node7"><a xlink:href="classrepo_1_1programs_1_1pythonpackages_1_1pr_1_1SPDataSet_1_1SPDataSet.html#a1e4c1d502ec5ff9a57bf9a330a318a54" target="_top" xlink:title="repo.programs.pythonpackages.pr.\lSPDataSet.SPDataSet.splitRecArray">
<polygon fill="white" stroke="black" points="1296.5,-282 1296.5,-312 1477.5,-312 1477.5,-282 1296.5,-282"/>
<text text-anchor="start" x="1304.5" y="-300" font-family="Helvetica,sans-Serif" font-size="10.00">repo.programs.pythonpackages.pr.</text>
<text text-anchor="middle" x="1387" y="-289" font-family="Helvetica,sans-Serif" font-size="10.00">SPDataSet.SPDataSet.splitRecArray</text>
</a>
</g>
</g>
<!-- Node6&#45;&gt;Node7 -->
<g id="edge7" class="edge"><title>Node6&#45;&gt;Node7</title>
<path fill="none" stroke="midnightblue" d="M1234.85,-329C1257.18,-324.272 1282.01,-319.015 1304.99,-314.15"/>
<polygon fill="midnightblue" stroke="midnightblue" points="1306,-317.514 1315.06,-312.019 1304.55,-310.666 1306,-317.514"/>
</g>
<!-- Node8 -->
<g id="node8" class="node"><title>Node8</title>
<g id="a_node8"><a xlink:href="classrepo_1_1programs_1_1pythonpackages_1_1pr_1_1SPDataSet_1_1SPDataSet.html#af0f40f6c14b1ba1c8de9351a839eb511" target="_top" xlink:title="repo.programs.pythonpackages.pr.\lSPDataSet.SPDataSet.calArr">
<polygon fill="white" stroke="black" points="1303.5,-331 1303.5,-361 1470.5,-361 1470.5,-331 1303.5,-331"/>
<text text-anchor="start" x="1311.5" y="-349" font-family="Helvetica,sans-Serif" font-size="10.00">repo.programs.pythonpackages.pr.</text>
<text text-anchor="middle" x="1387" y="-338" font-family="Helvetica,sans-Serif" font-size="10.00">SPDataSet.SPDataSet.calArr</text>
</a>
</g>
</g>
<!-- Node6&#45;&gt;Node8 -->
<g id="edge8" class="edge"><title>Node6&#45;&gt;Node8</title>
<path fill="none" stroke="midnightblue" d="M1246.66,-344.745C1261.83,-344.881 1277.76,-345.025 1293.2,-345.164"/>
<polygon fill="midnightblue" stroke="midnightblue" points="1293.24,-348.664 1303.27,-345.255 1293.3,-341.665 1293.24,-348.664"/>
</g>
<!-- Node9 -->
<g id="node9" class="node"><title>Node9</title>
<g id="a_node9"><a xlink:href="classrepo_1_1programs_1_1pythonpackages_1_1pr_1_1SPDataSet_1_1SPDataSet.html#a6e8c2848a25079fc869ab950445213b8" target="_top" xlink:title="repo.programs.pythonpackages.pr.\lSPDataSet.SPDataSet.zeroingD">
<polygon fill="white" stroke="black" points="1514.5,-356 1514.5,-386 1681.5,-386 1681.5,-356 1514.5,-356"/>
<text text-anchor="start" x="1522.5" y="-374" font-family="Helvetica,sans-Serif" font-size="10.00">repo.programs.pythonpackages.pr.</text>
<text text-anchor="middle" x="1598" y="-363" font-family="Helvetica,sans-Serif" font-size="10.00">SPDataSet.SPDataSet.zeroingD</text>
</a>
</g>
</g>
<!-- Node8&#45;&gt;Node9 -->
<g id="edge9" class="edge"><title>Node8&#45;&gt;Node9</title>
<path fill="none" stroke="midnightblue" d="M1470.6,-355.881C1481.61,-357.197 1492.96,-358.555 1504.12,-359.89"/>
<polygon fill="midnightblue" stroke="midnightblue" points="1503.97,-363.397 1514.31,-361.109 1504.8,-356.446 1503.97,-363.397"/>
</g>
<!-- Node10 -->
<g id="node10" class="node"><title>Node10</title>
<g id="a_node10"><a xlink:href="classrepo_1_1programs_1_1pythonpackages_1_1pr_1_1SPDataSet_1_1SPDataSet.html#aa287beda17e46a3969a9321e5904eaed" target="_top" xlink:title="repo.programs.pythonpackages.pr.\lSPDataSet.SPDataSet.cBzCal">
<polygon fill="white" stroke="black" points="1514.5,-307 1514.5,-337 1681.5,-337 1681.5,-307 1514.5,-307"/>
<text text-anchor="start" x="1522.5" y="-325" font-family="Helvetica,sans-Serif" font-size="10.00">repo.programs.pythonpackages.pr.</text>
<text text-anchor="middle" x="1598" y="-314" font-family="Helvetica,sans-Serif" font-size="10.00">SPDataSet.SPDataSet.cBzCal</text>
</a>
</g>
</g>
<!-- Node8&#45;&gt;Node10 -->
<g id="edge10" class="edge"><title>Node8&#45;&gt;Node10</title>
<path fill="none" stroke="midnightblue" d="M1470.6,-336.515C1481.61,-335.251 1492.96,-333.948 1504.12,-332.665"/>
<polygon fill="midnightblue" stroke="midnightblue" points="1504.78,-336.113 1514.31,-331.495 1503.98,-329.159 1504.78,-336.113"/>
</g>
<!-- Node11&#45;&gt;Node5 -->
<g id="edge12" class="edge"><title>Node11&#45;&gt;Node5</title>
<path fill="none" stroke="midnightblue" d="M1065.7,-397.478C1057.02,-397.327 1048.24,-397.114 1039.59,-396.845"/>
<polygon fill="midnightblue" stroke="midnightblue" points="1039.62,-393.344 1029.51,-396.504 1039.39,-400.34 1039.62,-393.344"/>
</g>
<!-- Node13&#45;&gt;Node5 -->
<g id="edge16" class="edge"><title>Node13&#45;&gt;Node5</title>
<path fill="none" stroke="midnightblue" d="M526.608,-185.212C547.371,-207.62 589.092,-249.586 632,-275 708.832,-320.506 806.987,-352.254 872.708,-370.27"/>
<polygon fill="midnightblue" stroke="midnightblue" points="871.999,-373.703 882.566,-372.935 873.827,-366.946 871.999,-373.703"/>
</g>
<!-- Node13&#45;&gt;Node13 -->
<g id="edge30" class="edge"><title>Node13&#45;&gt;Node13</title>
<path fill="none" stroke="midnightblue" d="M476.141,-185.275C468.172,-194.406 480.125,-203 512,-203 530.926,-203 542.828,-199.97 547.708,-195.598"/>
<polygon fill="midnightblue" stroke="midnightblue" points="551.212,-195.326 547.859,-185.275 544.213,-195.223 551.212,-195.326"/>
</g>
<!-- Node14 -->
<g id="node14" class="node"><title>Node14</title>
<g id="a_node14"><a xlink:href="classrepo_1_1programs_1_1pythonpackages_1_1pr_1_1SPDataSet_1_1SPDataSet.html#a14656e508d81193e8c71c09d9444e15f" target="_top" xlink:title="repo.programs.pythonpackages.pr.\lSPDataSet.SPDataSet.trigTimes">
<polygon fill="white" stroke="black" points="645.5,-236 645.5,-266 812.5,-266 812.5,-236 645.5,-236"/>
<text text-anchor="start" x="653.5" y="-254" font-family="Helvetica,sans-Serif" font-size="10.00">repo.programs.pythonpackages.pr.</text>
<text text-anchor="middle" x="729" y="-243" font-family="Helvetica,sans-Serif" font-size="10.00">SPDataSet.SPDataSet.trigTimes</text>
</a>
</g>
</g>
<!-- Node13&#45;&gt;Node14 -->
<g id="edge17" class="edge"><title>Node13&#45;&gt;Node14</title>
<path fill="none" stroke="midnightblue" d="M552.936,-185.046C588.424,-198.416 640.433,-218.01 678.543,-232.367"/>
<polygon fill="midnightblue" stroke="midnightblue" points="677.322,-235.647 687.914,-235.898 679.79,-229.097 677.322,-235.647"/>
</g>
<!-- Node13&#45;&gt;Node21 -->
<g id="edge31" class="edge"><title>Node13&#45;&gt;Node21</title>
<path fill="none" stroke="midnightblue" d="M595.51,-158.103C604.114,-156.863 612.944,-155.59 621.763,-154.318"/>
<polygon fill="midnightblue" stroke="midnightblue" points="622.304,-157.776 631.702,-152.885 621.305,-150.848 622.304,-157.776"/>
</g>
<!-- Node14&#45;&gt;Node5 -->
<g id="edge19" class="edge"><title>Node14&#45;&gt;Node5</title>
<path fill="none" stroke="midnightblue" d="M762.468,-266.004C782.194,-276.109 807.128,-290.723 826,-308 846.198,-326.49 840.148,-341.498 862,-358 867.34,-362.033 873.273,-365.562 879.442,-368.643"/>
<polygon fill="midnightblue" stroke="midnightblue" points="878.059,-371.859 888.608,-372.843 880.975,-365.496 878.059,-371.859"/>
</g>
<!-- Node14&#45;&gt;Node6 -->
<g id="edge18" class="edge"><title>Node14&#45;&gt;Node6</title>
<path fill="none" stroke="midnightblue" d="M754.138,-266.027C785.791,-285.435 839.89,-317.502 862,-324 929.462,-343.828 1008.99,-348.327 1069.21,-348.139"/>
<polygon fill="midnightblue" stroke="midnightblue" points="1069.49,-351.637 1079.46,-348.061 1069.44,-344.637 1069.49,-351.637"/>
</g>
<!-- Node15 -->
<g id="node15" class="node"><title>Node15</title>
<g id="a_node15"><a xlink:href="classrepo_1_1programs_1_1pythonpackages_1_1pr_1_1SPDataSet_1_1SPDataSet.html#a9eef53392c7e7ad757cefde737a6cb69" target="_top" xlink:title="repo.programs.pythonpackages.pr.\lSPDataSet.SPDataSet.medD">
<polygon fill="white" stroke="black" points="862.5,-236 862.5,-266 1029.5,-266 1029.5,-236 862.5,-236"/>
<text text-anchor="start" x="870.5" y="-254" font-family="Helvetica,sans-Serif" font-size="10.00">repo.programs.pythonpackages.pr.</text>
<text text-anchor="middle" x="946" y="-243" font-family="Helvetica,sans-Serif" font-size="10.00">SPDataSet.SPDataSet.medD</text>
</a>
</g>
</g>
<!-- Node14&#45;&gt;Node15 -->
<g id="edge20" class="edge"><title>Node14&#45;&gt;Node15</title>
<path fill="none" stroke="midnightblue" d="M812.51,-251C825.532,-251 839.073,-251 852.308,-251"/>
<polygon fill="midnightblue" stroke="midnightblue" points="852.356,-254.5 862.356,-251 852.356,-247.5 852.356,-254.5"/>
</g>
<!-- Node17 -->
<g id="node17" class="node"><title>Node17</title>
<g id="a_node17"><a xlink:href="classrepo_1_1programs_1_1pythonpackages_1_1pr_1_1SPDataSet_1_1SPDataSet.html#a6478ef339e0e44839e478fec7340c6b0" target="_top" xlink:title="repo.programs.pythonpackages.pr.\lSPDataSet.SPDataSet.relD">
<polygon fill="white" stroke="black" points="862.5,-285 862.5,-315 1029.5,-315 1029.5,-285 862.5,-285"/>
<text text-anchor="start" x="870.5" y="-303" font-family="Helvetica,sans-Serif" font-size="10.00">repo.programs.pythonpackages.pr.</text>
<text text-anchor="middle" x="946" y="-292" font-family="Helvetica,sans-Serif" font-size="10.00">SPDataSet.SPDataSet.relD</text>
</a>
</g>
</g>
<!-- Node14&#45;&gt;Node17 -->
<g id="edge23" class="edge"><title>Node14&#45;&gt;Node17</title>
<path fill="none" stroke="midnightblue" d="M795.968,-266.035C819.185,-271.326 845.456,-277.313 869.404,-282.771"/>
<polygon fill="midnightblue" stroke="midnightblue" points="868.629,-286.184 879.157,-284.994 870.184,-279.359 868.629,-286.184"/>
</g>
<!-- Node18 -->
<g id="node18" class="node"><title>Node18</title>
<g id="a_node18"><a xlink:href="namespacerepo_1_1programs_1_1pythonpackages_1_1pr_1_1SPfuncs.html#af8a48b74a6d4e725e2409329126076a6" target="_top" xlink:title="Construct a set of triggers by analysing the timing for the signal. ">
<polygon fill="white" stroke="black" points="862.5,-187 862.5,-217 1029.5,-217 1029.5,-187 862.5,-187"/>
<text text-anchor="start" x="870.5" y="-205" font-family="Helvetica,sans-Serif" font-size="10.00">repo.programs.pythonpackages.pr.</text>
<text text-anchor="middle" x="946" y="-194" font-family="Helvetica,sans-Serif" font-size="10.00">SPfuncs.makeTriggers</text>
</a>
</g>
</g>
<!-- Node14&#45;&gt;Node18 -->
<g id="edge26" class="edge"><title>Node14&#45;&gt;Node18</title>
<path fill="none" stroke="midnightblue" d="M795.968,-235.965C819.185,-230.674 845.456,-224.687 869.404,-219.229"/>
<polygon fill="midnightblue" stroke="midnightblue" points="870.184,-222.641 879.157,-217.006 868.629,-215.816 870.184,-222.641"/>
</g>
<!-- Node20 -->
<g id="node20" class="node"><title>Node20</title>
<g id="a_node20"><a xlink:href="classrepo_1_1programs_1_1pythonpackages_1_1pr_1_1SPDataSet_1_1SPDataSet.html#af6af62c7de4f7bc8f2dd223d05cf2b07" target="_top" xlink:title="repo.programs.pythonpackages.pr.\lSPDataSet.SPDataSet.rSpec">
<polygon fill="white" stroke="black" points="862.5,-138 862.5,-168 1029.5,-168 1029.5,-138 862.5,-138"/>
<text text-anchor="start" x="870.5" y="-156" font-family="Helvetica,sans-Serif" font-size="10.00">repo.programs.pythonpackages.pr.</text>
<text text-anchor="middle" x="946" y="-145" font-family="Helvetica,sans-Serif" font-size="10.00">SPDataSet.SPDataSet.rSpec</text>
</a>
</g>
</g>
<!-- Node14&#45;&gt;Node20 -->
<g id="edge28" class="edge"><title>Node14&#45;&gt;Node20</title>
<path fill="none" stroke="midnightblue" d="M753.02,-235.938C778.734,-219.635 822.009,-193.73 862,-177 866.722,-175.025 871.66,-173.149 876.673,-171.383"/>
<polygon fill="midnightblue" stroke="midnightblue" points="878.005,-174.627 886.367,-168.121 875.773,-167.993 878.005,-174.627"/>
</g>
<!-- Node15&#45;&gt;Node7 -->
<g id="edge22" class="edge"><title>Node15&#45;&gt;Node7</title>
<path fill="none" stroke="midnightblue" d="M1010.05,-235.95C1073.97,-223.242 1175.27,-210.152 1260,-231 1295.45,-239.723 1331.98,-260.383 1356.52,-276.283"/>
<polygon fill="midnightblue" stroke="midnightblue" points="1354.72,-279.291 1364.99,-281.895 1358.59,-273.455 1354.72,-279.291"/>
</g>
<!-- Node16 -->
<g id="node16" class="node"><title>Node16</title>
<g id="a_node16"><a xlink:href="namespacerepo_1_1programs_1_1pythonpackages_1_1pr_1_1SPfuncs.html#acb6d178d4325b6c3d8fec4f8197d6819" target="_top" xlink:title="repo.programs.pythonpackages.pr.\lSPfuncs.renameFieldMaybe">
<polygon fill="white" stroke="black" points="1079.5,-241 1079.5,-271 1246.5,-271 1246.5,-241 1079.5,-241"/>
<text text-anchor="start" x="1087.5" y="-259" font-family="Helvetica,sans-Serif" font-size="10.00">repo.programs.pythonpackages.pr.</text>
<text text-anchor="middle" x="1163" y="-248" font-family="Helvetica,sans-Serif" font-size="10.00">SPfuncs.renameFieldMaybe</text>
</a>
</g>
</g>
<!-- Node15&#45;&gt;Node16 -->
<g id="edge21" class="edge"><title>Node15&#45;&gt;Node16</title>
<path fill="none" stroke="midnightblue" d="M1029.51,-252.919C1042.53,-253.222 1056.07,-253.537 1069.31,-253.844"/>
<polygon fill="midnightblue" stroke="midnightblue" points="1069.28,-257.345 1079.36,-254.078 1069.44,-250.346 1069.28,-257.345"/>
</g>
<!-- Node17&#45;&gt;Node7 -->
<g id="edge25" class="edge"><title>Node17&#45;&gt;Node7</title>
<path fill="none" stroke="midnightblue" d="M1029.57,-299.436C1102.31,-298.939 1208.45,-298.213 1285.98,-297.684"/>
<polygon fill="midnightblue" stroke="midnightblue" points="1286.27,-301.182 1296.24,-297.613 1286.22,-294.182 1286.27,-301.182"/>
</g>
<!-- Node17&#45;&gt;Node16 -->
<g id="edge24" class="edge"><title>Node17&#45;&gt;Node16</title>
<path fill="none" stroke="midnightblue" d="M1020.39,-284.981C1039.14,-281.144 1059.43,-276.99 1078.64,-273.059"/>
<polygon fill="midnightblue" stroke="midnightblue" points="1079.48,-276.46 1088.58,-271.026 1078.08,-269.602 1079.48,-276.46"/>
</g>
<!-- Node19 -->
<g id="node19" class="node"><title>Node19</title>
<g id="a_node19"><a xlink:href="namespacerepo_1_1programs_1_1pythonpackages_1_1pr_1_1SPfuncs.html#a9d03b1e8bb9325cdab8fa026d6cdbbe3" target="_top" xlink:title="repo.programs.pythonpackages.pr.\lSPfuncs.secs2sd">
<polygon fill="white" stroke="black" points="1079.5,-153 1079.5,-183 1246.5,-183 1246.5,-153 1079.5,-153"/>
<text text-anchor="start" x="1087.5" y="-171" font-family="Helvetica,sans-Serif" font-size="10.00">repo.programs.pythonpackages.pr.</text>
<text text-anchor="middle" x="1163" y="-160" font-family="Helvetica,sans-Serif" font-size="10.00">SPfuncs.secs2sd</text>
</a>
</g>
</g>
<!-- Node18&#45;&gt;Node19 -->
<g id="edge27" class="edge"><title>Node18&#45;&gt;Node19</title>
<path fill="none" stroke="midnightblue" d="M1029.51,-188.952C1042.53,-186.893 1056.07,-184.751 1069.31,-182.658"/>
<polygon fill="midnightblue" stroke="midnightblue" points="1070.03,-186.088 1079.36,-181.069 1068.93,-179.174 1070.03,-186.088"/>
</g>
<!-- Node20&#45;&gt;Node2 -->
<g id="edge29" class="edge"><title>Node20&#45;&gt;Node2</title>
<path fill="none" stroke="midnightblue" d="M1011.85,-137.894C1018.25,-135.121 1024.43,-131.851 1030,-128 1051.64,-113.037 1044.01,-95.4434 1066,-81 1068.42,-79.4087 1070.94,-77.9228 1073.54,-76.5355"/>
<polygon fill="midnightblue" stroke="midnightblue" points="1075.11,-79.6648 1082.62,-72.1881 1072.08,-73.3517 1075.11,-79.6648"/>
</g>
<!-- Node21&#45;&gt;Node20 -->
<g id="edge34" class="edge"><title>Node21&#45;&gt;Node20</title>
<path fill="none" stroke="midnightblue" d="M826.181,-145.263C834.86,-145.828 843.638,-146.4 852.287,-146.963"/>
<polygon fill="midnightblue" stroke="midnightblue" points="852.159,-150.462 862.365,-147.619 852.614,-143.477 852.159,-150.462"/>
</g>
<!-- Node22 -->
<g id="node22" class="node"><title>Node22</title>
<g id="a_node22"><a xlink:href="namespacerepo_1_1programs_1_1pythonpackages_1_1pr_1_1SPfuncs.html#a2533afa952ea007cfad4a1deb6a607a5" target="_top" xlink:title="Return angles for the sequence defined by , repeated &#160;times. ">
<polygon fill="white" stroke="black" points="862.5,-89 862.5,-119 1029.5,-119 1029.5,-89 862.5,-89"/>
<text text-anchor="start" x="870.5" y="-107" font-family="Helvetica,sans-Serif" font-size="10.00">repo.programs.pythonpackages.pr.</text>
<text text-anchor="middle" x="946" y="-96" font-family="Helvetica,sans-Serif" font-size="10.00">SPfuncs.getAnglesFromRSpec</text>
</a>
</g>
</g>
<!-- Node21&#45;&gt;Node22 -->
<g id="edge32" class="edge"><title>Node21&#45;&gt;Node22</title>
<path fill="none" stroke="midnightblue" d="M822.427,-123.954C832.414,-122.328 842.578,-120.673 852.566,-119.047"/>
<polygon fill="midnightblue" stroke="midnightblue" points="853.173,-122.495 862.481,-117.433 852.048,-115.586 853.173,-122.495"/>
</g>
<!-- Node23 -->
<g id="node23" class="node"><title>Node23</title>
<g id="a_node23"><a xlink:href="namespacerepo_1_1programs_1_1pythonpackages_1_1pr_1_1SPfuncs.html#aba724f914a5cc838851518564a1f5d84" target="_top" xlink:title="repo.programs.pythonpackages.pr.\lSPfuncs.getRotationsFromRSpec">
<polygon fill="white" stroke="black" points="1079.5,-91 1079.5,-121 1246.5,-121 1246.5,-91 1079.5,-91"/>
<text text-anchor="start" x="1087.5" y="-109" font-family="Helvetica,sans-Serif" font-size="10.00">repo.programs.pythonpackages.pr.</text>
<text text-anchor="middle" x="1163" y="-98" font-family="Helvetica,sans-Serif" font-size="10.00">SPfuncs.getRotationsFromRSpec</text>
</a>
</g>
</g>
<!-- Node22&#45;&gt;Node23 -->
<g id="edge33" class="edge"><title>Node22&#45;&gt;Node23</title>
<path fill="none" stroke="midnightblue" d="M1029.51,-104.768C1042.53,-104.889 1056.07,-105.015 1069.31,-105.138"/>
<polygon fill="midnightblue" stroke="midnightblue" points="1069.32,-108.638 1079.36,-105.231 1069.39,-101.638 1069.32,-108.638"/>
</g>
</g>
</svg>
