<?xml version="1.0" encoding="UTF-8" standalone="no"?>
<!DOCTYPE svg PUBLIC "-//W3C//DTD SVG 1.1//EN"
 "http://www.w3.org/Graphics/SVG/1.1/DTD/svg11.dtd">
<!-- Generated by graphviz version 2.36.0 (20140111.2315)
 -->
<!-- Title: repo.programs.pythonpackages.pr.SPDataSet.SPDataSet.apparatusAngles Pages: 1 -->
<svg width="1508pt" height="296pt"
 viewBox="0.00 0.00 1508.00 296.00" xmlns="http://www.w3.org/2000/svg" xmlns:xlink="http://www.w3.org/1999/xlink">
<g id="graph0" class="graph" transform="scale(1 1) rotate(0) translate(4 292.004)">
<title>repo.programs.pythonpackages.pr.SPDataSet.SPDataSet.apparatusAngles</title>
<polygon fill="white" stroke="none" points="-4,4 -4,-292.004 1504,-292.004 1504,4 -4,4"/>
<!-- Node1 -->
<g id="node1" class="node"><title>Node1</title>
<polygon fill="#bfbfbf" stroke="black" points="0,-142 0,-172 194,-172 194,-142 0,-142"/>
<text text-anchor="start" x="8" y="-160" font-family="Helvetica,sans-Serif" font-size="10.00">repo.programs.pythonpackages.pr.</text>
<text text-anchor="middle" x="97" y="-149" font-family="Helvetica,sans-Serif" font-size="10.00">SPDataSet.SPDataSet.apparatusAngles</text>
</g>
<!-- Node2 -->
<g id="node2" class="node"><title>Node2</title>
<g id="a_node2"><a xlink:href="classrepo_1_1programs_1_1pythonpackages_1_1pr_1_1SPDataSet_1_1SPDataSet.html#a5b12a3d9fdb93ccbf79a6b7a7893be3f" target="_top" xlink:title="repo.programs.pythonpackages.pr.\lSPDataSet.SPDataSet.cutAmp">
<polygon fill="white" stroke="black" points="230.5,-164 230.5,-194 397.5,-194 397.5,-164 230.5,-164"/>
<text text-anchor="start" x="238.5" y="-182" font-family="Helvetica,sans-Serif" font-size="10.00">repo.programs.pythonpackages.pr.</text>
<text text-anchor="middle" x="314" y="-171" font-family="Helvetica,sans-Serif" font-size="10.00">SPDataSet.SPDataSet.cutAmp</text>
</a>
</g>
</g>
<!-- Node1&#45;&gt;Node2 -->
<g id="edge1" class="edge"><title>Node1&#45;&gt;Node2</title>
<path fill="none" stroke="midnightblue" d="M204.401,-167.888C213.123,-168.78 221.854,-169.673 230.365,-170.544"/>
<polygon fill="midnightblue" stroke="midnightblue" points="204.485,-164.378 194.181,-166.842 203.773,-171.342 204.485,-164.378"/>
</g>
<!-- Node4 -->
<g id="node4" class="node"><title>Node4</title>
<g id="a_node4"><a xlink:href="classrepo_1_1programs_1_1pythonpackages_1_1pr_1_1SPDataSet_1_1SPDataSet.html#accbfa0185d4e416038e688fc9b55575b" target="_top" xlink:title="repo.programs.pythonpackages.pr.\lSPDataSet.SPDataSet.sequenceAmp">
<polygon fill="white" stroke="black" points="862,-164 862,-194 1046,-194 1046,-164 862,-164"/>
<text text-anchor="start" x="870" y="-182" font-family="Helvetica,sans-Serif" font-size="10.00">repo.programs.pythonpackages.pr.</text>
<text text-anchor="middle" x="954" y="-171" font-family="Helvetica,sans-Serif" font-size="10.00">SPDataSet.SPDataSet.sequenceAmp</text>
</a>
</g>
</g>
<!-- Node1&#45;&gt;Node4 -->
<g id="edge23" class="edge"><title>Node1&#45;&gt;Node4</title>
<path fill="none" stroke="midnightblue" d="M131.494,-177.021C157.466,-191.596 194.843,-210.543 230,-221 484.137,-296.592 568.828,-311.516 826,-247 866.512,-236.837 908.213,-210.996 932.313,-194.257"/>
<polygon fill="midnightblue" stroke="midnightblue" points="133.226,-173.98 122.805,-172.07 129.76,-180.062 133.226,-173.98"/>
</g>
<!-- Node11 -->
<g id="node11" class="node"><title>Node11</title>
<g id="a_node11"><a xlink:href="classrepo_1_1programs_1_1pythonpackages_1_1pr_1_1SPDataSet_1_1SPDataSet.html#a5ad35e931371981e41221502928547d5" target="_top" xlink:title="Check that the calculated apparatus directions fit with the available data. ">
<polygon fill="white" stroke="black" points="1088,-0 1088,-30 1280,-30 1280,-0 1088,-0"/>
<text text-anchor="start" x="1096" y="-18" font-family="Helvetica,sans-Serif" font-size="10.00">repo.programs.pythonpackages.pr.</text>
<text text-anchor="middle" x="1184" y="-7" font-family="Helvetica,sans-Serif" font-size="10.00">SPDataSet.SPDataSet.checkDirections</text>
</a>
</g>
</g>
<!-- Node1&#45;&gt;Node11 -->
<g id="edge24" class="edge"><title>Node1&#45;&gt;Node11</title>
<path fill="none" stroke="midnightblue" d="M132.269,-136.796C202.117,-97.5888 367.046,-15 517,-15 517,-15 517,-15 733,-15 855.461,-15 996.668,-15 1087.75,-15"/>
<polygon fill="midnightblue" stroke="midnightblue" points="130.415,-133.824 123.446,-141.804 133.87,-139.912 130.415,-133.824"/>
</g>
<!-- Node12 -->
<g id="node12" class="node"><title>Node12</title>
<g id="a_node12"><a xlink:href="classrepo_1_1programs_1_1pythonpackages_1_1pr_1_1SPDataSet_1_1SPDataSet.html#a6f2c3de2aa708d686f5835f10e2d096d" target="_top" xlink:title="repo.programs.pythonpackages.pr.\lSPDataSet.SPDataSet.pointAmp">
<polygon fill="white" stroke="black" points="434.5,-120 434.5,-150 601.5,-150 601.5,-120 434.5,-120"/>
<text text-anchor="start" x="442.5" y="-138" font-family="Helvetica,sans-Serif" font-size="10.00">repo.programs.pythonpackages.pr.</text>
<text text-anchor="middle" x="518" y="-127" font-family="Helvetica,sans-Serif" font-size="10.00">SPDataSet.SPDataSet.pointAmp</text>
</a>
</g>
</g>
<!-- Node1&#45;&gt;Node12 -->
<g id="edge22" class="edge"><title>Node1&#45;&gt;Node12</title>
<path fill="none" stroke="midnightblue" d="M204.503,-151.408C275.909,-147.659 368.567,-142.794 434.4,-139.337"/>
<polygon fill="midnightblue" stroke="midnightblue" points="203.93,-147.933 194.127,-151.953 204.297,-154.924 203.93,-147.933"/>
</g>
<!-- Node2&#45;&gt;Node2 -->
<g id="edge2" class="edge"><title>Node2&#45;&gt;Node2</title>
<path fill="none" stroke="midnightblue" d="M278.292,-204.598C283.172,-208.97 295.074,-212 314,-212 345.875,-212 357.828,-203.406 349.859,-194.275"/>
<polygon fill="midnightblue" stroke="midnightblue" points="281.787,-204.223 278.141,-194.275 274.788,-204.326 281.787,-204.223"/>
</g>
<!-- Node3 -->
<g id="node3" class="node"><title>Node3</title>
<g id="a_node3"><a xlink:href="classrepo_1_1programs_1_1pythonpackages_1_1pr_1_1SPDataSet_1_1SPDataSet.html#a9eac955cac12a62b72d189aa80b82ec6" target="_top" xlink:title="repo.programs.pythonpackages.pr.\lSPDataSet.SPDataSet.filteredCutAmp">
<polygon fill="white" stroke="black" points="638.5,-208 638.5,-238 825.5,-238 825.5,-208 638.5,-208"/>
<text text-anchor="start" x="646.5" y="-226" font-family="Helvetica,sans-Serif" font-size="10.00">repo.programs.pythonpackages.pr.</text>
<text text-anchor="middle" x="732" y="-215" font-family="Helvetica,sans-Serif" font-size="10.00">SPDataSet.SPDataSet.filteredCutAmp</text>
</a>
</g>
</g>
<!-- Node2&#45;&gt;Node3 -->
<g id="edge3" class="edge"><title>Node2&#45;&gt;Node3</title>
<path fill="none" stroke="midnightblue" d="M407.851,-182.196C464.185,-184.867 537.431,-189.639 602,-198 621.569,-200.534 642.642,-204.21 661.968,-207.966"/>
<polygon fill="midnightblue" stroke="midnightblue" points="407.685,-178.684 397.535,-181.721 407.363,-185.677 407.685,-178.684"/>
</g>
<!-- Node2&#45;&gt;Node12 -->
<g id="edge15" class="edge"><title>Node2&#45;&gt;Node12</title>
<path fill="none" stroke="midnightblue" d="M393.78,-161.84C411.68,-157.941 430.56,-153.829 448.016,-150.026"/>
<polygon fill="midnightblue" stroke="midnightblue" points="392.978,-158.433 383.952,-163.981 394.468,-165.272 392.978,-158.433"/>
</g>
<!-- Node14 -->
<g id="node14" class="node"><title>Node14</title>
<g id="a_node14"><a xlink:href="classrepo_1_1programs_1_1pythonpackages_1_1pr_1_1SPDataSet_1_1SPDataSet.html#a5343a59b34ffebfc31c1dfd06ddfa889" target="_top" xlink:title="repo.programs.pythonpackages.pr.\lSPDataSet.SPDataSet.viewRaw">
<polygon fill="white" stroke="black" points="434.5,-208 434.5,-238 601.5,-238 601.5,-208 434.5,-208"/>
<text text-anchor="start" x="442.5" y="-226" font-family="Helvetica,sans-Serif" font-size="10.00">repo.programs.pythonpackages.pr.</text>
<text text-anchor="middle" x="518" y="-215" font-family="Helvetica,sans-Serif" font-size="10.00">SPDataSet.SPDataSet.viewRaw</text>
</a>
</g>
</g>
<!-- Node2&#45;&gt;Node14 -->
<g id="edge21" class="edge"><title>Node2&#45;&gt;Node14</title>
<path fill="none" stroke="midnightblue" d="M393.78,-196.16C411.68,-200.059 430.56,-204.171 448.016,-207.974"/>
<polygon fill="midnightblue" stroke="midnightblue" points="394.468,-192.728 383.952,-194.019 392.978,-199.567 394.468,-192.728"/>
</g>
<!-- Node3&#45;&gt;Node4 -->
<g id="edge4" class="edge"><title>Node3&#45;&gt;Node4</title>
<path fill="none" stroke="midnightblue" d="M817.989,-206.002C837.724,-202.055 858.593,-197.881 877.869,-194.026"/>
<polygon fill="midnightblue" stroke="midnightblue" points="817.216,-202.587 808.096,-207.981 818.588,-209.452 817.216,-202.587"/>
</g>
<!-- Node4&#45;&gt;Node4 -->
<g id="edge5" class="edge"><title>Node4&#45;&gt;Node4</title>
<path fill="none" stroke="midnightblue" d="M915.142,-204.598C920.452,-208.97 933.404,-212 954,-212 988.688,-212 1001.7,-203.406 993.023,-194.275"/>
<polygon fill="midnightblue" stroke="midnightblue" points="918.636,-204.218 914.977,-194.275 911.637,-204.33 918.636,-204.218"/>
</g>
<!-- Node5 -->
<g id="node5" class="node"><title>Node5</title>
<g id="a_node5"><a xlink:href="classrepo_1_1programs_1_1pythonpackages_1_1pr_1_1SPDataSet_1_1SPDataSet.html#ac0df54b82a9e993d707f0dafd87a19dd" target="_top" xlink:title="repo.programs.pythonpackages.pr.\lSPDataSet.SPDataSet.labAmp">
<polygon fill="white" stroke="black" points="1100.5,-196 1100.5,-226 1267.5,-226 1267.5,-196 1100.5,-196"/>
<text text-anchor="start" x="1108.5" y="-214" font-family="Helvetica,sans-Serif" font-size="10.00">repo.programs.pythonpackages.pr.</text>
<text text-anchor="middle" x="1184" y="-203" font-family="Helvetica,sans-Serif" font-size="10.00">SPDataSet.SPDataSet.labAmp</text>
</a>
</g>
</g>
<!-- Node4&#45;&gt;Node5 -->
<g id="edge6" class="edge"><title>Node4&#45;&gt;Node5</title>
<path fill="none" stroke="midnightblue" d="M1056.21,-193.205C1070.91,-195.268 1085.89,-197.371 1100.17,-199.375"/>
<polygon fill="midnightblue" stroke="midnightblue" points="1056.48,-189.709 1046.09,-191.785 1055.51,-196.641 1056.48,-189.709"/>
</g>
<!-- Node6 -->
<g id="node6" class="node"><title>Node6</title>
<g id="a_node6"><a xlink:href="classrepo_1_1programs_1_1pythonpackages_1_1pr_1_1SPDataSet_1_1SPDataSet.html#a3624263a6738178d243635889b719a90" target="_top" xlink:title="repo.programs.pythonpackages.pr.\lSPDataSet.SPDataSet.viewSid">
<polygon fill="white" stroke="black" points="1327.5,-196 1327.5,-226 1494.5,-226 1494.5,-196 1327.5,-196"/>
<text text-anchor="start" x="1335.5" y="-214" font-family="Helvetica,sans-Serif" font-size="10.00">repo.programs.pythonpackages.pr.</text>
<text text-anchor="middle" x="1411" y="-203" font-family="Helvetica,sans-Serif" font-size="10.00">SPDataSet.SPDataSet.viewSid</text>
</a>
</g>
</g>
<!-- Node4&#45;&gt;Node6 -->
<g id="edge12" class="edge"><title>Node4&#45;&gt;Node6</title>
<path fill="none" stroke="midnightblue" d="M989.682,-199.012C1014.49,-212.129 1049.17,-228.084 1082,-235 1172.51,-254.069 1279.82,-239.393 1346.42,-226.044"/>
<polygon fill="midnightblue" stroke="midnightblue" points="991.142,-195.822 980.68,-194.148 987.814,-201.981 991.142,-195.822"/>
</g>
<!-- Node7 -->
<g id="node7" class="node"><title>Node7</title>
<g id="a_node7"><a xlink:href="classrepo_1_1programs_1_1pythonpackages_1_1pr_1_1SPDataSet_1_1SPDataSet.html#acf495c99c803a2a1e23cdaeae34da985" target="_top" xlink:title="repo.programs.pythonpackages.pr.\lSPDataSet.SPDataSet.sidAmp">
<polygon fill="white" stroke="black" points="1100.5,-147 1100.5,-177 1267.5,-177 1267.5,-147 1100.5,-147"/>
<text text-anchor="start" x="1108.5" y="-165" font-family="Helvetica,sans-Serif" font-size="10.00">repo.programs.pythonpackages.pr.</text>
<text text-anchor="middle" x="1184" y="-154" font-family="Helvetica,sans-Serif" font-size="10.00">SPDataSet.SPDataSet.sidAmp</text>
</a>
</g>
</g>
<!-- Node4&#45;&gt;Node7 -->
<g id="edge8" class="edge"><title>Node4&#45;&gt;Node7</title>
<path fill="none" stroke="midnightblue" d="M1056.21,-171.453C1070.91,-170.358 1085.89,-169.24 1100.17,-168.176"/>
<polygon fill="midnightblue" stroke="midnightblue" points="1055.81,-167.974 1046.09,-172.208 1056.33,-174.955 1055.81,-167.974"/>
</g>
<!-- Node8 -->
<g id="node8" class="node"><title>Node8</title>
<g id="a_node8"><a xlink:href="classrepo_1_1programs_1_1pythonpackages_1_1pr_1_1SPDataSet_1_1SPDataSet.html#ac55c6ccc03634d3f670f52e89188779c" target="_top" xlink:title="repo.programs.pythonpackages.pr.\lSPDataSet.SPDataSet.viewSeq">
<polygon fill="white" stroke="black" points="1100.5,-98 1100.5,-128 1267.5,-128 1267.5,-98 1100.5,-98"/>
<text text-anchor="start" x="1108.5" y="-116" font-family="Helvetica,sans-Serif" font-size="10.00">repo.programs.pythonpackages.pr.</text>
<text text-anchor="middle" x="1184" y="-105" font-family="Helvetica,sans-Serif" font-size="10.00">SPDataSet.SPDataSet.viewSeq</text>
</a>
</g>
</g>
<!-- Node4&#45;&gt;Node8 -->
<g id="edge10" class="edge"><title>Node4&#45;&gt;Node8</title>
<path fill="none" stroke="midnightblue" d="M1006.86,-160.728C1029.75,-152.953 1057.07,-144.069 1082,-137 1093.01,-133.877 1104.77,-130.827 1116.24,-128.006"/>
<polygon fill="midnightblue" stroke="midnightblue" points="1005.67,-157.436 997.34,-163.983 1007.93,-164.059 1005.67,-157.436"/>
</g>
<!-- Node10 -->
<g id="node10" class="node"><title>Node10</title>
<g id="a_node10"><a xlink:href="classrepo_1_1programs_1_1pythonpackages_1_1pr_1_1SPDataSet_1_1SPDataSet.html#a5aad808c592bfdbb665105df2947610f" target="_top" xlink:title="repo.programs.pythonpackages.pr.\lSPDataSet.SPDataSet.viewCorrelationFilt">
<polygon fill="white" stroke="black" points="1082.5,-49 1082.5,-79 1285.5,-79 1285.5,-49 1082.5,-49"/>
<text text-anchor="start" x="1090.5" y="-67" font-family="Helvetica,sans-Serif" font-size="10.00">repo.programs.pythonpackages.pr.</text>
<text text-anchor="middle" x="1184" y="-56" font-family="Helvetica,sans-Serif" font-size="10.00">SPDataSet.SPDataSet.viewCorrelationFilt</text>
</a>
</g>
</g>
<!-- Node4&#45;&gt;Node10 -->
<g id="edge13" class="edge"><title>Node4&#45;&gt;Node10</title>
<path fill="none" stroke="midnightblue" d="M979.381,-157.064C1003.7,-136.316 1042.97,-105.783 1082,-88 1089.54,-84.5626 1097.64,-81.5857 1105.84,-79.0146"/>
<polygon fill="midnightblue" stroke="midnightblue" points="976.996,-154.5 971.728,-163.693 981.579,-159.791 976.996,-154.5"/>
</g>
<!-- Node4&#45;&gt;Node11 -->
<g id="edge14" class="edge"><title>Node4&#45;&gt;Node11</title>
<path fill="none" stroke="midnightblue" d="M970.01,-154.954C991.054,-123.322 1032.37,-68.3239 1082,-39 1087.82,-35.5619 1094.1,-32.6161 1100.58,-30.0921"/>
<polygon fill="midnightblue" stroke="midnightblue" points="966.909,-153.302 964.382,-163.591 972.773,-157.123 966.909,-153.302"/>
</g>
<!-- Node5&#45;&gt;Node6 -->
<g id="edge7" class="edge"><title>Node5&#45;&gt;Node6</title>
<path fill="none" stroke="midnightblue" d="M1277.63,-211C1294.03,-211 1311.02,-211 1327.13,-211"/>
<polygon fill="midnightblue" stroke="midnightblue" points="1277.5,-207.5 1267.5,-211 1277.5,-214.5 1277.5,-207.5"/>
</g>
<!-- Node7&#45;&gt;Node6 -->
<g id="edge9" class="edge"><title>Node7&#45;&gt;Node6</title>
<path fill="none" stroke="midnightblue" d="M1263.91,-179.185C1289.07,-184.665 1316.7,-190.682 1341.09,-195.994"/>
<polygon fill="midnightblue" stroke="midnightblue" points="1264.55,-175.743 1254.04,-177.035 1263.06,-182.582 1264.55,-175.743"/>
</g>
<!-- Node9 -->
<g id="node9" class="node"><title>Node9</title>
<g id="a_node9"><a xlink:href="classrepo_1_1programs_1_1pythonpackages_1_1pr_1_1SPDataSet_1_1SPDataSet.html#a0c87af10688edd55eb0aea229e5979bb" target="_top" xlink:title="repo.programs.pythonpackages.pr.\lSPDataSet.SPDataSet.viewSensors">
<polygon fill="white" stroke="black" points="1322,-98 1322,-128 1500,-128 1500,-98 1322,-98"/>
<text text-anchor="start" x="1330" y="-116" font-family="Helvetica,sans-Serif" font-size="10.00">repo.programs.pythonpackages.pr.</text>
<text text-anchor="middle" x="1411" y="-105" font-family="Helvetica,sans-Serif" font-size="10.00">SPDataSet.SPDataSet.viewSensors</text>
</a>
</g>
</g>
<!-- Node8&#45;&gt;Node9 -->
<g id="edge11" class="edge"><title>Node8&#45;&gt;Node9</title>
<path fill="none" stroke="midnightblue" d="M1277.55,-113C1292.19,-113 1307.29,-113 1321.83,-113"/>
<polygon fill="midnightblue" stroke="midnightblue" points="1277.5,-109.5 1267.5,-113 1277.5,-116.5 1277.5,-109.5"/>
</g>
<!-- Node12&#45;&gt;Node3 -->
<g id="edge16" class="edge"><title>Node12&#45;&gt;Node3</title>
<path fill="none" stroke="midnightblue" d="M578.354,-153.853C586.48,-157.179 594.574,-160.905 602,-165 619.75,-174.788 620.082,-183.522 638,-193 649.097,-198.87 661.55,-203.853 673.647,-207.972"/>
<polygon fill="midnightblue" stroke="midnightblue" points="579.425,-150.514 568.837,-150.135 576.877,-157.034 579.425,-150.514"/>
</g>
<!-- Node12&#45;&gt;Node4 -->
<g id="edge17" class="edge"><title>Node12&#45;&gt;Node4</title>
<path fill="none" stroke="midnightblue" d="M595.571,-152.031C609.627,-154.705 624.213,-157.181 638,-159 712.971,-168.894 798.649,-173.932 861.705,-176.476"/>
<polygon fill="midnightblue" stroke="midnightblue" points="595.933,-148.536 585.448,-150.057 594.592,-155.407 595.933,-148.536"/>
</g>
<!-- Node12&#45;&gt;Node8 -->
<g id="edge18" class="edge"><title>Node12&#45;&gt;Node8</title>
<path fill="none" stroke="midnightblue" d="M588.455,-117.891C604.617,-114.612 621.829,-111.68 638,-110 801.05,-93.0578 993.02,-100.421 1100.09,-106.952"/>
<polygon fill="midnightblue" stroke="midnightblue" points="587.614,-114.491 578.546,-119.969 589.051,-121.342 587.614,-114.491"/>
</g>
<!-- Node12&#45;&gt;Node10 -->
<g id="edge19" class="edge"><title>Node12&#45;&gt;Node10</title>
<path fill="none" stroke="midnightblue" d="M565.974,-116.501C587.573,-108.806 613.736,-100.608 638,-96 791.061,-66.9324 972.256,-61.9999 1082.35,-62.1926"/>
<polygon fill="midnightblue" stroke="midnightblue" points="564.596,-113.278 556.395,-119.986 566.989,-119.856 564.596,-113.278"/>
</g>
<!-- Node13 -->
<g id="node13" class="node"><title>Node13</title>
<g id="a_node13"><a xlink:href="classrepo_1_1programs_1_1pythonpackages_1_1pr_1_1SPDataSet_1_1SPDataSet.html#a2ffa7a6de1e0ebd8172db800621eed20" target="_top" xlink:title="repo.programs.pythonpackages.pr.\lSPDataSet.SPDataSet.test_div">
<polygon fill="white" stroke="black" points="648.5,-120 648.5,-150 815.5,-150 815.5,-120 648.5,-120"/>
<text text-anchor="start" x="656.5" y="-138" font-family="Helvetica,sans-Serif" font-size="10.00">repo.programs.pythonpackages.pr.</text>
<text text-anchor="middle" x="732" y="-127" font-family="Helvetica,sans-Serif" font-size="10.00">SPDataSet.SPDataSet.test_div</text>
</a>
</g>
</g>
<!-- Node12&#45;&gt;Node13 -->
<g id="edge20" class="edge"><title>Node12&#45;&gt;Node13</title>
<path fill="none" stroke="midnightblue" d="M611.728,-135C623.901,-135 636.312,-135 648.305,-135"/>
<polygon fill="midnightblue" stroke="midnightblue" points="611.572,-131.5 601.572,-135 611.572,-138.5 611.572,-131.5"/>
</g>
</g>
</svg>
