<?xml version="1.0" encoding="UTF-8" standalone="no"?>
<!DOCTYPE svg PUBLIC "-//W3C//DTD SVG 1.1//EN"
 "http://www.w3.org/Graphics/SVG/1.1/DTD/svg11.dtd">
<!-- Generated by graphviz version 2.36.0 (20140111.2315)
 -->
<!-- Title: repo.programs.pythonpackages.pr.SPDataSet.SPDataSet.viewCorrelationFilt Pages: 1 -->
<!--zoomable 625 -->
<svg id="main" version="1.1" xmlns="http://www.w3.org/2000/svg" xmlns:xlink="http://www.w3.org/1999/xlink" xml:space="preserve" onload="init(evt)">
<style type="text/css"><![CDATA[
.edge:hover path { stroke: red; }
.edge:hover polygon { stroke: red; fill: red; }
]]></style>
<script type="text/javascript"><![CDATA[
var edges = document.getElementsByTagName('g');
if (edges && edges.length) {
  for (var i=0;i<edges.length;i++) {
    if (edges[i].id.substr(0,4)=='edge') {
      edges[i].setAttribute('class','edge');
    }
  }
}
]]></script>
        <defs>
                <circle id="rim" cx="0" cy="0" r="7"/>
                <circle id="rim2" cx="0" cy="0" r="3.5"/>
                <g id="zoomPlus">
                        <use xlink:href="#rim" fill="#404040">
                                <set attributeName="fill" to="#808080" begin="zoomplus.mouseover" end="zoomplus.mouseout"/>
                        </use>
                        <path d="M-4,0h8M0,-4v8" fill="none" stroke="white" stroke-width="1.5" pointer-events="none"/>
                </g>
                <g id="zoomMin">
                        <use xlink:href="#rim" fill="#404040">
                                <set attributeName="fill" to="#808080" begin="zoomminus.mouseover" end="zoomminus.mouseout"/>
                        </use>
                        <path d="M-4,0h8" fill="none" stroke="white" stroke-width="1.5" pointer-events="none"/>
                </g>
                <g id="dirArrow">
                        <path fill="none" stroke="white" stroke-width="1.5" d="M0,-3.0v7 M-2.5,-0.5L0,-3.0L2.5,-0.5"/>
                </g>
               <g id="resetDef">
                       <use xlink:href="#rim2" fill="#404040">
                               <set attributeName="fill" to="#808080" begin="reset.mouseover" end="reset.mouseout"/>
                       </use>
               </g>
        </defs>

<script type="text/javascript">
var viewWidth = 2170;
var viewHeight = 625;
var sectionId = 'dynsection-47';
</script>
<script xlink:href="svgpan.js"/>
<svg id="graph" class="graph">
<g id="viewport">
<title>repo.programs.pythonpackages.pr.SPDataSet.SPDataSet.viewCorrelationFilt</title>
<polygon fill="white" stroke="none" points="-4,4 -4,-621 2166,-621 2166,4 -4,4"/>
<!-- Node1 -->
<g id="node1" class="node"><title>Node1</title>
<polygon fill="#bfbfbf" stroke="black" points="0.5,-387 0.5,-417 203.5,-417 203.5,-387 0.5,-387"/>
<text text-anchor="start" x="8.5" y="-405" font-family="Helvetica,sans-Serif" font-size="10.00">repo.programs.pythonpackages.pr.</text>
<text text-anchor="middle" x="102" y="-394" font-family="Helvetica,sans-Serif" font-size="10.00">SPDataSet.SPDataSet.viewCorrelationFilt</text>
</g>
<!-- Node2 -->
<g id="node2" class="node"><title>Node2</title>
<g id="a_node2"><a xlink:href="classrepo_1_1programs_1_1pythonpackages_1_1pr_1_1SPDataSet_1_1SPDataSet.html#a6f2c3de2aa708d686f5835f10e2d096d" target="_top" xlink:title="repo.programs.pythonpackages.pr.\lSPDataSet.SPDataSet.pointAmp">
<polygon fill="white" stroke="black" points="694.5,-324 694.5,-354 861.5,-354 861.5,-324 694.5,-324"/>
<text text-anchor="start" x="702.5" y="-342" font-family="Helvetica,sans-Serif" font-size="10.00">repo.programs.pythonpackages.pr.</text>
<text text-anchor="middle" x="778" y="-331" font-family="Helvetica,sans-Serif" font-size="10.00">SPDataSet.SPDataSet.pointAmp</text>
</a>
</g>
</g>
<!-- Node1&#45;&gt;Node2 -->
<g id="edge1" class="edge"><title>Node1&#45;&gt;Node2</title>
<path fill="none" stroke="midnightblue" d="M195.194,-386.964C267.124,-375.811 369.657,-361.177 460,-353 535.228,-346.191 620.811,-342.659 684.075,-340.848"/>
<polygon fill="midnightblue" stroke="midnightblue" points="684.528,-344.337 694.428,-340.561 684.334,-337.34 684.528,-344.337"/>
</g>
<!-- Node24 -->
<g id="node24" class="node"><title>Node24</title>
<g id="a_node24"><a xlink:href="classrepo_1_1programs_1_1pythonpackages_1_1pr_1_1SPDataSet_1_1SPDataSet.html#accbfa0185d4e416038e688fc9b55575b" target="_top" xlink:title="repo.programs.pythonpackages.pr.\lSPDataSet.SPDataSet.sequenceAmp">
<polygon fill="white" stroke="black" points="240,-450 240,-480 424,-480 424,-450 240,-450"/>
<text text-anchor="start" x="248" y="-468" font-family="Helvetica,sans-Serif" font-size="10.00">repo.programs.pythonpackages.pr.</text>
<text text-anchor="middle" x="332" y="-457" font-family="Helvetica,sans-Serif" font-size="10.00">SPDataSet.SPDataSet.sequenceAmp</text>
</a>
</g>
</g>
<!-- Node1&#45;&gt;Node24 -->
<g id="edge34" class="edge"><title>Node1&#45;&gt;Node24</title>
<path fill="none" stroke="midnightblue" d="M157.322,-417.01C190.169,-426.086 232.222,-437.706 266.72,-447.238"/>
<polygon fill="midnightblue" stroke="midnightblue" points="266.128,-450.706 276.699,-449.996 267.993,-443.959 266.128,-450.706"/>
</g>
<!-- Node3 -->
<g id="node3" class="node"><title>Node3</title>
<g id="a_node3"><a xlink:href="classrepo_1_1programs_1_1pythonpackages_1_1pr_1_1SPDataSet_1_1SPDataSet.html#af17c964467367b46a56c14a8c87e84a2" target="_top" xlink:title="Property doc string!! ">
<polygon fill="white" stroke="black" points="1559.5,-402 1559.5,-432 1726.5,-432 1726.5,-402 1559.5,-402"/>
<text text-anchor="start" x="1567.5" y="-420" font-family="Helvetica,sans-Serif" font-size="10.00">repo.programs.pythonpackages.pr.</text>
<text text-anchor="middle" x="1643" y="-409" font-family="Helvetica,sans-Serif" font-size="10.00">SPDataSet.SPDataSet.set_info</text>
</a>
</g>
</g>
<!-- Node2&#45;&gt;Node3 -->
<g id="edge2" class="edge"><title>Node2&#45;&gt;Node3</title>
<path fill="none" stroke="midnightblue" d="M861.573,-346.763C877.001,-348.19 892.99,-349.654 908,-351 1175.48,-374.993 1242.68,-377.281 1510,-403 1522.7,-404.222 1536.09,-405.571 1549.27,-406.934"/>
<polygon fill="midnightblue" stroke="midnightblue" points="1548.98,-410.423 1559.29,-407.978 1549.7,-403.461 1548.98,-410.423"/>
</g>
<!-- Node4 -->
<g id="node4" class="node"><title>Node4</title>
<g id="a_node4"><a xlink:href="classrepo_1_1programs_1_1pythonpackages_1_1pr_1_1SPDataSet_1_1SPDataSet.html#afe54eeb9f41f503dc478557e4ea2c62a" target="_top" xlink:title="repo.programs.pythonpackages.pr.\lSPDataSet.SPDataSet.rawData">
<polygon fill="white" stroke="black" points="1342.5,-222 1342.5,-252 1509.5,-252 1509.5,-222 1342.5,-222"/>
<text text-anchor="start" x="1350.5" y="-240" font-family="Helvetica,sans-Serif" font-size="10.00">repo.programs.pythonpackages.pr.</text>
<text text-anchor="middle" x="1426" y="-229" font-family="Helvetica,sans-Serif" font-size="10.00">SPDataSet.SPDataSet.rawData</text>
</a>
</g>
</g>
<!-- Node2&#45;&gt;Node4 -->
<g id="edge3" class="edge"><title>Node2&#45;&gt;Node4</title>
<path fill="none" stroke="midnightblue" d="M861.801,-325.926C982.543,-306.862 1206.23,-271.542 1332.32,-251.633"/>
<polygon fill="midnightblue" stroke="midnightblue" points="1333.02,-255.067 1342.35,-250.05 1331.92,-248.153 1333.02,-255.067"/>
</g>
<!-- Node12 -->
<g id="node12" class="node"><title>Node12</title>
<g id="a_node12"><a xlink:href="namespacerepo_1_1programs_1_1pythonpackages_1_1pr_1_1SPDataSet.html#a9d0e07e3e1f4360be4f8c59927abe142" target="_top" xlink:title="Helpful for calling work_func(following_func(**remaining_args), **work_args)) work_args are the entri...">
<polygon fill="white" stroke="black" points="908.5,-444 908.5,-474 1075.5,-474 1075.5,-444 908.5,-444"/>
<text text-anchor="start" x="916.5" y="-462" font-family="Helvetica,sans-Serif" font-size="10.00">repo.programs.pythonpackages.pr.</text>
<text text-anchor="middle" x="992" y="-451" font-family="Helvetica,sans-Serif" font-size="10.00">SPDataSet.divide_args</text>
</a>
</g>
</g>
<!-- Node2&#45;&gt;Node12 -->
<g id="edge12" class="edge"><title>Node2&#45;&gt;Node12</title>
<path fill="none" stroke="midnightblue" d="M805.85,-354.198C843.841,-375.703 913.349,-415.047 955.544,-438.931"/>
<polygon fill="midnightblue" stroke="midnightblue" points="953.941,-442.045 964.368,-443.925 957.39,-435.953 953.941,-442.045"/>
</g>
<!-- Node13 -->
<g id="node13" class="node"><title>Node13</title>
<g id="a_node13"><a xlink:href="classrepo_1_1programs_1_1pythonpackages_1_1pr_1_1SPDataSet_1_1SPDataSet.html#a5b12a3d9fdb93ccbf79a6b7a7893be3f" target="_top" xlink:title="repo.programs.pythonpackages.pr.\lSPDataSet.SPDataSet.cutAmp">
<polygon fill="white" stroke="black" points="908.5,-217 908.5,-247 1075.5,-247 1075.5,-217 908.5,-217"/>
<text text-anchor="start" x="916.5" y="-235" font-family="Helvetica,sans-Serif" font-size="10.00">repo.programs.pythonpackages.pr.</text>
<text text-anchor="middle" x="992" y="-224" font-family="Helvetica,sans-Serif" font-size="10.00">SPDataSet.SPDataSet.cutAmp</text>
</a>
</g>
</g>
<!-- Node2&#45;&gt;Node13 -->
<g id="edge13" class="edge"><title>Node2&#45;&gt;Node13</title>
<path fill="none" stroke="midnightblue" d="M808.925,-323.896C846.488,-304.938 910.991,-272.382 952.279,-251.543"/>
<polygon fill="midnightblue" stroke="midnightblue" points="953.877,-254.657 961.227,-247.027 950.723,-248.408 953.877,-254.657"/>
</g>
<!-- Node21 -->
<g id="node21" class="node"><title>Node21</title>
<g id="a_node21"><a xlink:href="classrepo_1_1programs_1_1pythonpackages_1_1pr_1_1SPDataSet_1_1SPDataSet.html#aee6249fe272c46f07d0f2f32f6c188d2" target="_top" xlink:title="repo.programs.pythonpackages.pr.\lSPDataSet.SPDataSet.apparatusAngles">
<polygon fill="white" stroke="black" points="1112,-320 1112,-350 1306,-350 1306,-320 1112,-320"/>
<text text-anchor="start" x="1120" y="-338" font-family="Helvetica,sans-Serif" font-size="10.00">repo.programs.pythonpackages.pr.</text>
<text text-anchor="middle" x="1209" y="-327" font-family="Helvetica,sans-Serif" font-size="10.00">SPDataSet.SPDataSet.apparatusAngles</text>
</a>
</g>
</g>
<!-- Node2&#45;&gt;Node21 -->
<g id="edge33" class="edge"><title>Node2&#45;&gt;Node21</title>
<path fill="none" stroke="midnightblue" d="M861.716,-338.229C929.967,-337.592 1027.28,-336.685 1101.38,-335.994"/>
<polygon fill="midnightblue" stroke="midnightblue" points="1101.71,-339.491 1111.67,-335.898 1101.64,-332.492 1101.71,-339.491"/>
</g>
<!-- Node5 -->
<g id="node5" class="node"><title>Node5</title>
<g id="a_node5"><a xlink:href="classrepo_1_1programs_1_1pythonpackages_1_1pr_1_1SPDataSet_1_1SPDataSet.html#aa400ad81219e782fe2e29e852b20bb28" target="_top" xlink:title="repo.programs.pythonpackages.pr.\lSPDataSet.SPDataSet.fastD">
<polygon fill="white" stroke="black" points="1559.5,-176 1559.5,-206 1726.5,-206 1726.5,-176 1559.5,-176"/>
<text text-anchor="start" x="1567.5" y="-194" font-family="Helvetica,sans-Serif" font-size="10.00">repo.programs.pythonpackages.pr.</text>
<text text-anchor="middle" x="1643" y="-183" font-family="Helvetica,sans-Serif" font-size="10.00">SPDataSet.SPDataSet.fastD</text>
</a>
</g>
</g>
<!-- Node4&#45;&gt;Node5 -->
<g id="edge4" class="edge"><title>Node4&#45;&gt;Node5</title>
<path fill="none" stroke="midnightblue" d="M1497.4,-221.938C1518.02,-217.527 1540.71,-212.672 1561.88,-208.142"/>
<polygon fill="midnightblue" stroke="midnightblue" points="1562.76,-211.532 1571.81,-206.017 1561.3,-204.687 1562.76,-211.532"/>
</g>
<!-- Node10 -->
<g id="node10" class="node"><title>Node10</title>
<g id="a_node10"><a xlink:href="classrepo_1_1programs_1_1pythonpackages_1_1pr_1_1SPDataSet_1_1SPDataSet.html#aa0b687b3c937bfb4aa71c4a09cac5eb5" target="_top" xlink:title="Names should be of the form &quot;med:Total Position Sensor 1&quot; etc. ">
<polygon fill="white" stroke="black" points="1546,-225 1546,-255 1740,-255 1740,-225 1546,-225"/>
<text text-anchor="start" x="1554" y="-243" font-family="Helvetica,sans-Serif" font-size="10.00">repo.programs.pythonpackages.pr.</text>
<text text-anchor="middle" x="1643" y="-232" font-family="Helvetica,sans-Serif" font-size="10.00">SPDataSet.SPDataSet.getRawByName</text>
</a>
</g>
</g>
<!-- Node4&#45;&gt;Node10 -->
<g id="edge9" class="edge"><title>Node4&#45;&gt;Node10</title>
<path fill="none" stroke="midnightblue" d="M1509.51,-231.566C1518.02,-231.571 1526.75,-231.638 1535.48,-231.764"/>
<polygon fill="midnightblue" stroke="midnightblue" points="1535.64,-235.267 1545.7,-231.939 1535.76,-228.268 1535.64,-235.267"/>
</g>
<!-- Node11 -->
<g id="node11" class="node"><title>Node11</title>
<g id="a_node11"><a xlink:href="classrepo_1_1programs_1_1pythonpackages_1_1pr_1_1SPDataSet_1_1SPDataSet.html#a33ced34e094ccfd1e3891b92478613e7" target="_top" xlink:title="repo.programs.pythonpackages.pr.\lSPDataSet.SPDataSet.clearRaw">
<polygon fill="white" stroke="black" points="1559.5,-274 1559.5,-304 1726.5,-304 1726.5,-274 1559.5,-274"/>
<text text-anchor="start" x="1567.5" y="-292" font-family="Helvetica,sans-Serif" font-size="10.00">repo.programs.pythonpackages.pr.</text>
<text text-anchor="middle" x="1643" y="-281" font-family="Helvetica,sans-Serif" font-size="10.00">SPDataSet.SPDataSet.clearRaw</text>
</a>
</g>
</g>
<!-- Node4&#45;&gt;Node11 -->
<g id="edge11" class="edge"><title>Node4&#45;&gt;Node11</title>
<path fill="none" stroke="midnightblue" d="M1489.19,-252.041C1514.48,-258.158 1543.87,-265.266 1570.08,-271.605"/>
<polygon fill="midnightblue" stroke="midnightblue" points="1569.41,-275.044 1579.95,-273.993 1571.06,-268.24 1569.41,-275.044"/>
</g>
<!-- Node6 -->
<g id="node6" class="node"><title>Node6</title>
<g id="a_node6"><a xlink:href="classrepo_1_1programs_1_1pythonpackages_1_1pr_1_1SPDataSet_1_1SPDataSet.html#a1e4c1d502ec5ff9a57bf9a330a318a54" target="_top" xlink:title="repo.programs.pythonpackages.pr.\lSPDataSet.SPDataSet.splitRecArray">
<polygon fill="white" stroke="black" points="1776.5,-129 1776.5,-159 1957.5,-159 1957.5,-129 1776.5,-129"/>
<text text-anchor="start" x="1784.5" y="-147" font-family="Helvetica,sans-Serif" font-size="10.00">repo.programs.pythonpackages.pr.</text>
<text text-anchor="middle" x="1867" y="-136" font-family="Helvetica,sans-Serif" font-size="10.00">SPDataSet.SPDataSet.splitRecArray</text>
</a>
</g>
</g>
<!-- Node5&#45;&gt;Node6 -->
<g id="edge5" class="edge"><title>Node5&#45;&gt;Node6</title>
<path fill="none" stroke="midnightblue" d="M1714.85,-176C1737.18,-171.272 1762.01,-166.015 1784.99,-161.15"/>
<polygon fill="midnightblue" stroke="midnightblue" points="1786,-164.514 1795.06,-159.019 1784.55,-157.666 1786,-164.514"/>
</g>
<!-- Node7 -->
<g id="node7" class="node"><title>Node7</title>
<g id="a_node7"><a xlink:href="classrepo_1_1programs_1_1pythonpackages_1_1pr_1_1SPDataSet_1_1SPDataSet.html#af0f40f6c14b1ba1c8de9351a839eb511" target="_top" xlink:title="repo.programs.pythonpackages.pr.\lSPDataSet.SPDataSet.calArr">
<polygon fill="white" stroke="black" points="1783.5,-178 1783.5,-208 1950.5,-208 1950.5,-178 1783.5,-178"/>
<text text-anchor="start" x="1791.5" y="-196" font-family="Helvetica,sans-Serif" font-size="10.00">repo.programs.pythonpackages.pr.</text>
<text text-anchor="middle" x="1867" y="-185" font-family="Helvetica,sans-Serif" font-size="10.00">SPDataSet.SPDataSet.calArr</text>
</a>
</g>
</g>
<!-- Node5&#45;&gt;Node7 -->
<g id="edge6" class="edge"><title>Node5&#45;&gt;Node7</title>
<path fill="none" stroke="midnightblue" d="M1726.66,-191.745C1741.83,-191.881 1757.76,-192.025 1773.2,-192.164"/>
<polygon fill="midnightblue" stroke="midnightblue" points="1773.24,-195.664 1783.27,-192.255 1773.3,-188.665 1773.24,-195.664"/>
</g>
<!-- Node8 -->
<g id="node8" class="node"><title>Node8</title>
<g id="a_node8"><a xlink:href="classrepo_1_1programs_1_1pythonpackages_1_1pr_1_1SPDataSet_1_1SPDataSet.html#a6e8c2848a25079fc869ab950445213b8" target="_top" xlink:title="repo.programs.pythonpackages.pr.\lSPDataSet.SPDataSet.zeroingD">
<polygon fill="white" stroke="black" points="1994.5,-203 1994.5,-233 2161.5,-233 2161.5,-203 1994.5,-203"/>
<text text-anchor="start" x="2002.5" y="-221" font-family="Helvetica,sans-Serif" font-size="10.00">repo.programs.pythonpackages.pr.</text>
<text text-anchor="middle" x="2078" y="-210" font-family="Helvetica,sans-Serif" font-size="10.00">SPDataSet.SPDataSet.zeroingD</text>
</a>
</g>
</g>
<!-- Node7&#45;&gt;Node8 -->
<g id="edge7" class="edge"><title>Node7&#45;&gt;Node8</title>
<path fill="none" stroke="midnightblue" d="M1950.6,-202.881C1961.61,-204.197 1972.96,-205.555 1984.12,-206.89"/>
<polygon fill="midnightblue" stroke="midnightblue" points="1983.97,-210.397 1994.31,-208.109 1984.8,-203.446 1983.97,-210.397"/>
</g>
<!-- Node9 -->
<g id="node9" class="node"><title>Node9</title>
<g id="a_node9"><a xlink:href="classrepo_1_1programs_1_1pythonpackages_1_1pr_1_1SPDataSet_1_1SPDataSet.html#aa287beda17e46a3969a9321e5904eaed" target="_top" xlink:title="repo.programs.pythonpackages.pr.\lSPDataSet.SPDataSet.cBzCal">
<polygon fill="white" stroke="black" points="1994.5,-154 1994.5,-184 2161.5,-184 2161.5,-154 1994.5,-154"/>
<text text-anchor="start" x="2002.5" y="-172" font-family="Helvetica,sans-Serif" font-size="10.00">repo.programs.pythonpackages.pr.</text>
<text text-anchor="middle" x="2078" y="-161" font-family="Helvetica,sans-Serif" font-size="10.00">SPDataSet.SPDataSet.cBzCal</text>
</a>
</g>
</g>
<!-- Node7&#45;&gt;Node9 -->
<g id="edge8" class="edge"><title>Node7&#45;&gt;Node9</title>
<path fill="none" stroke="midnightblue" d="M1950.6,-183.515C1961.61,-182.251 1972.96,-180.948 1984.12,-179.665"/>
<polygon fill="midnightblue" stroke="midnightblue" points="1984.78,-183.113 1994.31,-178.495 1983.98,-176.159 1984.78,-183.113"/>
</g>
<!-- Node10&#45;&gt;Node4 -->
<g id="edge10" class="edge"><title>Node10&#45;&gt;Node4</title>
<path fill="none" stroke="midnightblue" d="M1545.7,-245.374C1537.02,-245.303 1528.24,-245.172 1519.59,-244.984"/>
<polygon fill="midnightblue" stroke="midnightblue" points="1519.59,-241.483 1509.51,-244.737 1519.42,-248.481 1519.59,-241.483"/>
</g>
<!-- Node13&#45;&gt;Node4 -->
<g id="edge14" class="edge"><title>Node13&#45;&gt;Node4</title>
<path fill="none" stroke="midnightblue" d="M1075.53,-232.955C1148.89,-233.804 1256.03,-235.044 1332.32,-235.927"/>
<polygon fill="midnightblue" stroke="midnightblue" points="1332.36,-239.428 1342.4,-236.044 1332.44,-232.428 1332.36,-239.428"/>
</g>
<!-- Node13&#45;&gt;Node13 -->
<g id="edge28" class="edge"><title>Node13&#45;&gt;Node13</title>
<path fill="none" stroke="midnightblue" d="M954.383,-247.275C946.023,-256.406 958.562,-265 992,-265 1011.85,-265 1024.34,-261.97 1029.46,-257.598"/>
<polygon fill="midnightblue" stroke="midnightblue" points="1032.96,-257.328 1029.62,-247.275 1025.96,-257.22 1032.96,-257.328"/>
</g>
<!-- Node14 -->
<g id="node14" class="node"><title>Node14</title>
<g id="a_node14"><a xlink:href="classrepo_1_1programs_1_1pythonpackages_1_1pr_1_1SPDataSet_1_1SPDataSet.html#a14656e508d81193e8c71c09d9444e15f" target="_top" xlink:title="repo.programs.pythonpackages.pr.\lSPDataSet.SPDataSet.trigTimes">
<polygon fill="white" stroke="black" points="1125.5,-176 1125.5,-206 1292.5,-206 1292.5,-176 1125.5,-176"/>
<text text-anchor="start" x="1133.5" y="-194" font-family="Helvetica,sans-Serif" font-size="10.00">repo.programs.pythonpackages.pr.</text>
<text text-anchor="middle" x="1209" y="-183" font-family="Helvetica,sans-Serif" font-size="10.00">SPDataSet.SPDataSet.trigTimes</text>
</a>
</g>
</g>
<!-- Node13&#45;&gt;Node14 -->
<g id="edge15" class="edge"><title>Node13&#45;&gt;Node14</title>
<path fill="none" stroke="midnightblue" d="M1071.84,-216.966C1087.17,-214.041 1103.35,-210.957 1118.99,-207.974"/>
<polygon fill="midnightblue" stroke="midnightblue" points="1120,-211.344 1129.17,-206.032 1118.69,-204.468 1120,-211.344"/>
</g>
<!-- Node13&#45;&gt;Node21 -->
<g id="edge29" class="edge"><title>Node13&#45;&gt;Node21</title>
<path fill="none" stroke="midnightblue" d="M1024.72,-247.198C1062.54,-265.316 1125.82,-295.632 1167.24,-315.472"/>
<polygon fill="midnightblue" stroke="midnightblue" points="1165.97,-318.743 1176.5,-319.907 1168.99,-312.43 1165.97,-318.743"/>
</g>
<!-- Node14&#45;&gt;Node4 -->
<g id="edge17" class="edge"><title>Node14&#45;&gt;Node4</title>
<path fill="none" stroke="midnightblue" d="M1280.4,-206.062C1301.02,-210.473 1323.71,-215.328 1344.88,-219.858"/>
<polygon fill="midnightblue" stroke="midnightblue" points="1344.3,-223.313 1354.81,-221.983 1345.76,-216.468 1344.3,-223.313"/>
</g>
<!-- Node14&#45;&gt;Node5 -->
<g id="edge16" class="edge"><title>Node14&#45;&gt;Node5</title>
<path fill="none" stroke="midnightblue" d="M1292.53,-191C1365.89,-191 1473.03,-191 1549.32,-191"/>
<polygon fill="midnightblue" stroke="midnightblue" points="1549.4,-194.5 1559.4,-191 1549.4,-187.5 1549.4,-194.5"/>
</g>
<!-- Node15 -->
<g id="node15" class="node"><title>Node15</title>
<g id="a_node15"><a xlink:href="classrepo_1_1programs_1_1pythonpackages_1_1pr_1_1SPDataSet_1_1SPDataSet.html#a9eef53392c7e7ad757cefde737a6cb69" target="_top" xlink:title="repo.programs.pythonpackages.pr.\lSPDataSet.SPDataSet.medD">
<polygon fill="white" stroke="black" points="1342.5,-83 1342.5,-113 1509.5,-113 1509.5,-83 1342.5,-83"/>
<text text-anchor="start" x="1350.5" y="-101" font-family="Helvetica,sans-Serif" font-size="10.00">repo.programs.pythonpackages.pr.</text>
<text text-anchor="middle" x="1426" y="-90" font-family="Helvetica,sans-Serif" font-size="10.00">SPDataSet.SPDataSet.medD</text>
</a>
</g>
</g>
<!-- Node14&#45;&gt;Node15 -->
<g id="edge18" class="edge"><title>Node14&#45;&gt;Node15</title>
<path fill="none" stroke="midnightblue" d="M1235.08,-175.951C1261.11,-160.797 1303.36,-137.503 1342,-122 1347.05,-119.975 1352.33,-118.043 1357.68,-116.217"/>
<polygon fill="midnightblue" stroke="midnightblue" points="1358.93,-119.489 1367.34,-113.048 1356.75,-112.838 1358.93,-119.489"/>
</g>
<!-- Node17 -->
<g id="node17" class="node"><title>Node17</title>
<g id="a_node17"><a xlink:href="classrepo_1_1programs_1_1pythonpackages_1_1pr_1_1SPDataSet_1_1SPDataSet.html#a6478ef339e0e44839e478fec7340c6b0" target="_top" xlink:title="repo.programs.pythonpackages.pr.\lSPDataSet.SPDataSet.relD">
<polygon fill="white" stroke="black" points="1342.5,-132 1342.5,-162 1509.5,-162 1509.5,-132 1342.5,-132"/>
<text text-anchor="start" x="1350.5" y="-150" font-family="Helvetica,sans-Serif" font-size="10.00">repo.programs.pythonpackages.pr.</text>
<text text-anchor="middle" x="1426" y="-139" font-family="Helvetica,sans-Serif" font-size="10.00">SPDataSet.SPDataSet.relD</text>
</a>
</g>
</g>
<!-- Node14&#45;&gt;Node17 -->
<g id="edge21" class="edge"><title>Node14&#45;&gt;Node17</title>
<path fill="none" stroke="midnightblue" d="M1283.39,-175.981C1302.14,-172.144 1322.43,-167.99 1341.64,-164.059"/>
<polygon fill="midnightblue" stroke="midnightblue" points="1342.48,-167.46 1351.58,-162.026 1341.08,-160.602 1342.48,-167.46"/>
</g>
<!-- Node18 -->
<g id="node18" class="node"><title>Node18</title>
<g id="a_node18"><a xlink:href="namespacerepo_1_1programs_1_1pythonpackages_1_1pr_1_1SPfuncs.html#af8a48b74a6d4e725e2409329126076a6" target="_top" xlink:title="Construct a set of triggers by analysing the timing for the signal. ">
<polygon fill="white" stroke="black" points="1342.5,-17 1342.5,-47 1509.5,-47 1509.5,-17 1342.5,-17"/>
<text text-anchor="start" x="1350.5" y="-35" font-family="Helvetica,sans-Serif" font-size="10.00">repo.programs.pythonpackages.pr.</text>
<text text-anchor="middle" x="1426" y="-24" font-family="Helvetica,sans-Serif" font-size="10.00">SPfuncs.makeTriggers</text>
</a>
</g>
</g>
<!-- Node14&#45;&gt;Node18 -->
<g id="edge24" class="edge"><title>Node14&#45;&gt;Node18</title>
<path fill="none" stroke="midnightblue" d="M1224.33,-175.762C1247.45,-151.768 1295.13,-104.661 1342,-73 1353.79,-65.0363 1367.35,-57.678 1380.04,-51.4586"/>
<polygon fill="midnightblue" stroke="midnightblue" points="1381.58,-54.6037 1389.1,-47.1389 1378.57,-48.2859 1381.58,-54.6037"/>
</g>
<!-- Node20 -->
<g id="node20" class="node"><title>Node20</title>
<g id="a_node20"><a xlink:href="classrepo_1_1programs_1_1pythonpackages_1_1pr_1_1SPDataSet_1_1SPDataSet.html#af6af62c7de4f7bc8f2dd223d05cf2b07" target="_top" xlink:title="repo.programs.pythonpackages.pr.\lSPDataSet.SPDataSet.rSpec">
<polygon fill="white" stroke="black" points="1342.5,-271 1342.5,-301 1509.5,-301 1509.5,-271 1342.5,-271"/>
<text text-anchor="start" x="1350.5" y="-289" font-family="Helvetica,sans-Serif" font-size="10.00">repo.programs.pythonpackages.pr.</text>
<text text-anchor="middle" x="1426" y="-278" font-family="Helvetica,sans-Serif" font-size="10.00">SPDataSet.SPDataSet.rSpec</text>
</a>
</g>
</g>
<!-- Node14&#45;&gt;Node20 -->
<g id="edge26" class="edge"><title>Node14&#45;&gt;Node20</title>
<path fill="none" stroke="midnightblue" d="M1235.08,-206.204C1261.12,-221.527 1303.37,-245.119 1342,-261 1347.75,-263.366 1353.82,-265.62 1359.93,-267.736"/>
<polygon fill="midnightblue" stroke="midnightblue" points="1358.96,-271.102 1369.56,-270.944 1361.18,-264.461 1358.96,-271.102"/>
</g>
<!-- Node15&#45;&gt;Node6 -->
<g id="edge20" class="edge"><title>Node15&#45;&gt;Node6</title>
<path fill="none" stroke="midnightblue" d="M1490.05,-82.9499C1553.97,-70.2417 1655.27,-57.1521 1740,-78 1775.45,-86.7228 1811.98,-107.383 1836.52,-123.283"/>
<polygon fill="midnightblue" stroke="midnightblue" points="1834.72,-126.291 1844.99,-128.895 1838.59,-120.455 1834.72,-126.291"/>
</g>
<!-- Node16 -->
<g id="node16" class="node"><title>Node16</title>
<g id="a_node16"><a xlink:href="namespacerepo_1_1programs_1_1pythonpackages_1_1pr_1_1SPfuncs.html#acb6d178d4325b6c3d8fec4f8197d6819" target="_top" xlink:title="repo.programs.pythonpackages.pr.\lSPfuncs.renameFieldMaybe">
<polygon fill="white" stroke="black" points="1559.5,-88 1559.5,-118 1726.5,-118 1726.5,-88 1559.5,-88"/>
<text text-anchor="start" x="1567.5" y="-106" font-family="Helvetica,sans-Serif" font-size="10.00">repo.programs.pythonpackages.pr.</text>
<text text-anchor="middle" x="1643" y="-95" font-family="Helvetica,sans-Serif" font-size="10.00">SPfuncs.renameFieldMaybe</text>
</a>
</g>
</g>
<!-- Node15&#45;&gt;Node16 -->
<g id="edge19" class="edge"><title>Node15&#45;&gt;Node16</title>
<path fill="none" stroke="midnightblue" d="M1509.51,-99.9188C1522.53,-100.222 1536.07,-100.537 1549.31,-100.844"/>
<polygon fill="midnightblue" stroke="midnightblue" points="1549.28,-104.345 1559.36,-101.078 1549.44,-97.3464 1549.28,-104.345"/>
</g>
<!-- Node17&#45;&gt;Node6 -->
<g id="edge23" class="edge"><title>Node17&#45;&gt;Node6</title>
<path fill="none" stroke="midnightblue" d="M1509.57,-146.436C1582.31,-145.939 1688.45,-145.213 1765.98,-144.684"/>
<polygon fill="midnightblue" stroke="midnightblue" points="1766.27,-148.182 1776.24,-144.613 1766.22,-141.182 1766.27,-148.182"/>
</g>
<!-- Node17&#45;&gt;Node16 -->
<g id="edge22" class="edge"><title>Node17&#45;&gt;Node16</title>
<path fill="none" stroke="midnightblue" d="M1500.39,-131.981C1519.14,-128.144 1539.43,-123.99 1558.64,-120.059"/>
<polygon fill="midnightblue" stroke="midnightblue" points="1559.48,-123.46 1568.58,-118.026 1558.08,-116.602 1559.48,-123.46"/>
</g>
<!-- Node19 -->
<g id="node19" class="node"><title>Node19</title>
<g id="a_node19"><a xlink:href="namespacerepo_1_1programs_1_1pythonpackages_1_1pr_1_1SPfuncs.html#a9d03b1e8bb9325cdab8fa026d6cdbbe3" target="_top" xlink:title="repo.programs.pythonpackages.pr.\lSPfuncs.secs2sd">
<polygon fill="white" stroke="black" points="1559.5,-0 1559.5,-30 1726.5,-30 1726.5,-0 1559.5,-0"/>
<text text-anchor="start" x="1567.5" y="-18" font-family="Helvetica,sans-Serif" font-size="10.00">repo.programs.pythonpackages.pr.</text>
<text text-anchor="middle" x="1643" y="-7" font-family="Helvetica,sans-Serif" font-size="10.00">SPfuncs.secs2sd</text>
</a>
</g>
</g>
<!-- Node18&#45;&gt;Node19 -->
<g id="edge25" class="edge"><title>Node18&#45;&gt;Node19</title>
<path fill="none" stroke="midnightblue" d="M1509.51,-25.476C1522.53,-24.4463 1536.07,-23.3756 1549.31,-22.3291"/>
<polygon fill="midnightblue" stroke="midnightblue" points="1549.66,-25.8121 1559.36,-21.5347 1549.11,-18.8339 1549.66,-25.8121"/>
</g>
<!-- Node20&#45;&gt;Node3 -->
<g id="edge27" class="edge"><title>Node20&#45;&gt;Node3</title>
<path fill="none" stroke="midnightblue" d="M1494.57,-301.137C1500.02,-303.653 1505.25,-306.585 1510,-310 1532.82,-326.409 1525.29,-342.989 1546,-362 1561.42,-376.16 1581.12,-388.233 1598.65,-397.429"/>
<polygon fill="midnightblue" stroke="midnightblue" points="1597.08,-400.56 1607.58,-401.971 1600.25,-394.32 1597.08,-400.56"/>
</g>
<!-- Node21&#45;&gt;Node20 -->
<g id="edge32" class="edge"><title>Node21&#45;&gt;Node20</title>
<path fill="none" stroke="midnightblue" d="M1275.97,-319.965C1299.19,-314.674 1325.46,-308.687 1349.4,-303.229"/>
<polygon fill="midnightblue" stroke="midnightblue" points="1350.18,-306.641 1359.16,-301.006 1348.63,-299.816 1350.18,-306.641"/>
</g>
<!-- Node22 -->
<g id="node22" class="node"><title>Node22</title>
<g id="a_node22"><a xlink:href="namespacerepo_1_1programs_1_1pythonpackages_1_1pr_1_1SPfuncs.html#a2533afa952ea007cfad4a1deb6a607a5" target="_top" xlink:title="Return angles for the sequence defined by , repeated &#160;times. ">
<polygon fill="white" stroke="black" points="1342.5,-320 1342.5,-350 1509.5,-350 1509.5,-320 1342.5,-320"/>
<text text-anchor="start" x="1350.5" y="-338" font-family="Helvetica,sans-Serif" font-size="10.00">repo.programs.pythonpackages.pr.</text>
<text text-anchor="middle" x="1426" y="-327" font-family="Helvetica,sans-Serif" font-size="10.00">SPfuncs.getAnglesFromRSpec</text>
</a>
</g>
</g>
<!-- Node21&#45;&gt;Node22 -->
<g id="edge30" class="edge"><title>Node21&#45;&gt;Node22</title>
<path fill="none" stroke="midnightblue" d="M1306.18,-335C1314.86,-335 1323.64,-335 1332.29,-335"/>
<polygon fill="midnightblue" stroke="midnightblue" points="1332.37,-338.5 1342.37,-335 1332.37,-331.5 1332.37,-338.5"/>
</g>
<!-- Node23 -->
<g id="node23" class="node"><title>Node23</title>
<g id="a_node23"><a xlink:href="namespacerepo_1_1programs_1_1pythonpackages_1_1pr_1_1SPfuncs.html#aba724f914a5cc838851518564a1f5d84" target="_top" xlink:title="repo.programs.pythonpackages.pr.\lSPfuncs.getRotationsFromRSpec">
<polygon fill="white" stroke="black" points="1559.5,-323 1559.5,-353 1726.5,-353 1726.5,-323 1559.5,-323"/>
<text text-anchor="start" x="1567.5" y="-341" font-family="Helvetica,sans-Serif" font-size="10.00">repo.programs.pythonpackages.pr.</text>
<text text-anchor="middle" x="1643" y="-330" font-family="Helvetica,sans-Serif" font-size="10.00">SPfuncs.getRotationsFromRSpec</text>
</a>
</g>
</g>
<!-- Node22&#45;&gt;Node23 -->
<g id="edge31" class="edge"><title>Node22&#45;&gt;Node23</title>
<path fill="none" stroke="midnightblue" d="M1509.51,-336.151C1522.53,-336.333 1536.07,-336.522 1549.31,-336.707"/>
<polygon fill="midnightblue" stroke="midnightblue" points="1549.31,-340.207 1559.36,-336.847 1549.41,-333.208 1549.31,-340.207"/>
</g>
<!-- Node24&#45;&gt;Node2 -->
<g id="edge41" class="edge"><title>Node24&#45;&gt;Node2</title>
<path fill="none" stroke="midnightblue" d="M355.868,-449.924C380.552,-434.342 421.517,-410.452 460,-397 533.194,-371.415 620.041,-356.533 684.308,-348.264"/>
<polygon fill="midnightblue" stroke="midnightblue" points="684.938,-351.713 694.424,-346.994 684.065,-344.768 684.938,-351.713"/>
</g>
<!-- Node24&#45;&gt;Node3 -->
<g id="edge35" class="edge"><title>Node24&#45;&gt;Node3</title>
<path fill="none" stroke="midnightblue" d="M352.553,-480.055C376.58,-497.848 419.196,-527.16 460,-544 593.643,-599.154 632.424,-617 777,-617 777,-617 777,-617 1210,-617 1378.48,-617 1552.56,-490.188 1616.49,-438.519"/>
<polygon fill="midnightblue" stroke="midnightblue" points="1618.9,-441.071 1624.43,-432.033 1614.47,-435.652 1618.9,-441.071"/>
</g>
<!-- Node24&#45;&gt;Node12 -->
<g id="edge40" class="edge"><title>Node24&#45;&gt;Node12</title>
<path fill="none" stroke="midnightblue" d="M424.146,-464.169C549.068,-463.03 772.276,-460.994 898.106,-459.847"/>
<polygon fill="midnightblue" stroke="midnightblue" points="898.516,-463.344 908.483,-459.752 898.452,-456.344 898.516,-463.344"/>
</g>
<!-- Node24&#45;&gt;Node21 -->
<g id="edge47" class="edge"><title>Node24&#45;&gt;Node21</title>
<path fill="none" stroke="midnightblue" d="M424.064,-473.448C611.091,-489.909 1025.25,-521.446 1076,-483 1120.53,-449.267 1074.44,-400.963 1110.75,-357.635"/>
<polygon fill="midnightblue" stroke="midnightblue" points="1113.52,-359.808 1117.91,-350.169 1108.46,-354.962 1113.52,-359.808"/>
</g>
<!-- Node24&#45;&gt;Node24 -->
<g id="edge48" class="edge"><title>Node24&#45;&gt;Node24</title>
<path fill="none" stroke="midnightblue" d="M292.977,-480.275C284.305,-489.406 297.312,-498 332,-498 352.596,-498 365.548,-494.97 370.858,-490.598"/>
<polygon fill="midnightblue" stroke="midnightblue" points="374.363,-490.33 371.023,-480.275 367.364,-490.218 374.363,-490.33"/>
</g>
<!-- Node25 -->
<g id="node25" class="node"><title>Node25</title>
<g id="a_node25"><a xlink:href="classrepo_1_1programs_1_1pythonpackages_1_1pr_1_1SPDataSet_1_1SPDataSet.html#a2b09966d9ad35b39ea13988a7c361df6" target="_top" xlink:title="Assume it&#39;s a continuously rotating sample. ">
<polygon fill="white" stroke="black" points="684,-532 684,-562 872,-562 872,-532 684,-532"/>
<text text-anchor="start" x="692" y="-550" font-family="Helvetica,sans-Serif" font-size="10.00">repo.programs.pythonpackages.pr.</text>
<text text-anchor="middle" x="778" y="-539" font-family="Helvetica,sans-Serif" font-size="10.00">SPDataSet.SPDataSet.seqAmpFitSplit</text>
</a>
</g>
</g>
<!-- Node24&#45;&gt;Node25 -->
<g id="edge36" class="edge"><title>Node24&#45;&gt;Node25</title>
<path fill="none" stroke="midnightblue" d="M362.695,-480.088C387.912,-492.179 425.415,-508.482 460,-517 530.04,-534.251 611.038,-541.71 673.626,-544.877"/>
<polygon fill="midnightblue" stroke="midnightblue" points="673.748,-548.387 683.903,-545.367 674.081,-541.395 673.748,-548.387"/>
</g>
<!-- Node26 -->
<g id="node26" class="node"><title>Node26</title>
<g id="a_node26"><a xlink:href="classrepo_1_1programs_1_1pythonpackages_1_1pr_1_1SPDataSet_1_1SPDataSet.html#a9eac955cac12a62b72d189aa80b82ec6" target="_top" xlink:title="repo.programs.pythonpackages.pr.\lSPDataSet.SPDataSet.filteredCutAmp">
<polygon fill="white" stroke="black" points="460.5,-406 460.5,-436 647.5,-436 647.5,-406 460.5,-406"/>
<text text-anchor="start" x="468.5" y="-424" font-family="Helvetica,sans-Serif" font-size="10.00">repo.programs.pythonpackages.pr.</text>
<text text-anchor="middle" x="554" y="-413" font-family="Helvetica,sans-Serif" font-size="10.00">SPDataSet.SPDataSet.filteredCutAmp</text>
</a>
</g>
</g>
<!-- Node24&#45;&gt;Node26 -->
<g id="edge42" class="edge"><title>Node24&#45;&gt;Node26</title>
<path fill="none" stroke="midnightblue" d="M408.096,-449.981C427.37,-446.126 448.239,-441.952 467.976,-438.005"/>
<polygon fill="midnightblue" stroke="midnightblue" points="468.75,-441.419 477.869,-436.026 467.377,-434.555 468.75,-441.419"/>
</g>
<!-- Node25&#45;&gt;Node3 -->
<g id="edge39" class="edge"><title>Node25&#45;&gt;Node3</title>
<path fill="none" stroke="midnightblue" d="M872.279,-551.94C930.945,-553.748 1008.12,-553.753 1076,-546 1264.24,-524.499 1481.23,-465.013 1583.24,-434.924"/>
<polygon fill="midnightblue" stroke="midnightblue" points="1584.45,-438.216 1593.04,-432.018 1582.46,-431.504 1584.45,-438.216"/>
</g>
<!-- Node25&#45;&gt;Node4 -->
<g id="edge38" class="edge"><title>Node25&#45;&gt;Node4</title>
<path fill="none" stroke="midnightblue" d="M872.306,-549.343C932.186,-548.023 1010.67,-540.942 1076,-517 1192.44,-474.324 1229.92,-456.938 1306,-359 1334.47,-322.356 1308.05,-292.633 1342,-261 1343.13,-259.945 1344.31,-258.937 1345.52,-257.972"/>
<polygon fill="midnightblue" stroke="midnightblue" points="1347.7,-260.724 1354.03,-252.225 1343.78,-254.924 1347.7,-260.724"/>
</g>
<!-- Node25&#45;&gt;Node12 -->
<g id="edge37" class="edge"><title>Node25&#45;&gt;Node12</title>
<path fill="none" stroke="midnightblue" d="M815.444,-531.872C851.35,-516.968 906.321,-494.15 945.169,-478.024"/>
<polygon fill="midnightblue" stroke="midnightblue" points="946.783,-481.144 954.677,-474.077 944.1,-474.679 946.783,-481.144"/>
</g>
<!-- Node26&#45;&gt;Node2 -->
<g id="edge45" class="edge"><title>Node26&#45;&gt;Node2</title>
<path fill="none" stroke="midnightblue" d="M605.053,-405.93C619.056,-401.423 634.213,-396.27 648,-391 664.355,-384.748 667.831,-381.718 684,-375 697.9,-369.225 713.084,-363.22 727.078,-357.808"/>
<polygon fill="midnightblue" stroke="midnightblue" points="728.469,-361.024 736.545,-354.166 725.955,-354.49 728.469,-361.024"/>
</g>
<!-- Node26&#45;&gt;Node3 -->
<g id="edge43" class="edge"><title>Node26&#45;&gt;Node3</title>
<path fill="none" stroke="midnightblue" d="M647.677,-420.659C852.914,-419.904 1343.8,-418.097 1549.17,-417.342"/>
<polygon fill="midnightblue" stroke="midnightblue" points="1549.34,-420.841 1559.33,-417.304 1549.32,-413.841 1549.34,-420.841"/>
</g>
<!-- Node26&#45;&gt;Node12 -->
<g id="edge44" class="edge"><title>Node26&#45;&gt;Node12</title>
<path fill="none" stroke="midnightblue" d="M647.731,-429.082C721.52,-435.513 824.293,-444.471 898.121,-450.905"/>
<polygon fill="midnightblue" stroke="midnightblue" points="898.074,-454.414 908.34,-451.796 898.682,-447.441 898.074,-454.414"/>
</g>
<!-- Node26&#45;&gt;Node13 -->
<g id="edge46" class="edge"><title>Node26&#45;&gt;Node13</title>
<path fill="none" stroke="midnightblue" d="M568.945,-405.821C591.099,-382.612 636.689,-338.434 684,-314 751.58,-279.098 835.415,-258.005 898.394,-245.971"/>
<polygon fill="midnightblue" stroke="midnightblue" points="899.13,-249.394 908.316,-244.117 897.844,-242.514 899.13,-249.394"/>
</g>
</g>
</svg>
        <g id="navigator" transform="translate(0 0)" fill="#404254">
                <rect fill="#f2f5e9" fill-opacity="0.5" stroke="#606060" stroke-width=".5" x="0" y="0" width="60" height="60"/>
                <use id="zoomplus" xlink:href="#zoomPlus" x="17" y="9" onmousedown="handleZoom(evt,'in')"/>
                <use id="zoomminus" xlink:href="#zoomMin" x="42" y="9" onmousedown="handleZoom(evt,'out')"/>
                <use id="reset" xlink:href="#resetDef" x="30" y="36" onmousedown="handleReset()"/>
                <g id="arrowUp" xlink:href="#dirArrow" transform="translate(30 24)" onmousedown="handlePan(0,-1)">
                  <use xlink:href="#rim" fill="#404040">
                        <set attributeName="fill" to="#808080" begin="arrowUp.mouseover" end="arrowUp.mouseout"/>
                  </use>
                  <path fill="none" stroke="white" stroke-width="1.5" d="M0,-3.0v7 M-2.5,-0.5L0,-3.0L2.5,-0.5"/>
                </g>
                <g id="arrowRight" xlink:href="#dirArrow" transform="rotate(90) translate(36 -43)" onmousedown="handlePan(1,0)">
                  <use xlink:href="#rim" fill="#404040">
                        <set attributeName="fill" to="#808080" begin="arrowRight.mouseover" end="arrowRight.mouseout"/>
                  </use>
                  <path fill="none" stroke="white" stroke-width="1.5" d="M0,-3.0v7 M-2.5,-0.5L0,-3.0L2.5,-0.5"/>
                </g>
                <g id="arrowDown" xlink:href="#dirArrow" transform="rotate(180) translate(-30 -48)" onmousedown="handlePan(0,1)">
                  <use xlink:href="#rim" fill="#404040">
                        <set attributeName="fill" to="#808080" begin="arrowDown.mouseover" end="arrowDown.mouseout"/>
                  </use>
                  <path fill="none" stroke="white" stroke-width="1.5" d="M0,-3.0v7 M-2.5,-0.5L0,-3.0L2.5,-0.5"/>
                </g>
                <g id="arrowLeft" xlink:href="#dirArrow" transform="rotate(270) translate(-36 17)" onmousedown="handlePan(-1,0)">
                  <use xlink:href="#rim" fill="#404040">
                        <set attributeName="fill" to="#808080" begin="arrowLeft.mouseover" end="arrowLeft.mouseout"/>
                  </use>
                  <path fill="none" stroke="white" stroke-width="1.5" d="M0,-3.0v7 M-2.5,-0.5L0,-3.0L2.5,-0.5"/>
                </g>
        </g>
        <svg viewBox="0 0 15 15" width="100%" height="30px" preserveAspectRatio="xMaxYMin meet">
         <g id="arrow_out" transform="scale(0.3 0.3)">
          <a xlink:href="classrepo_1_1programs_1_1pythonpackages_1_1pr_1_1SPDataSet_1_1SPDataSet_a5aad808c592bfdbb665105df2947610f_cgraph_org.svg" target="_base">
           <rect id="button" ry="5" rx="5" y="6" x="6" height="38" width="38"
                fill="#f2f5e9" fill-opacity="0.5" stroke="#606060" stroke-width="1.0"/>
           <path id="arrow"
             d="M 11.500037,31.436501 C 11.940474,20.09759 22.043105,11.32322 32.158766,21.979434 L 37.068811,17.246167 C 37.068811,17.246167 37.088388,32 37.088388,32 L 22.160133,31.978069 C 22.160133,31.978069 26.997745,27.140456 26.997745,27.140456 C 18.528582,18.264221 13.291696,25.230495 11.500037,31.436501 z"
             style="fill:#404040;"/>
          </a>
         </g>
        </svg>
</svg>
