<?xml version="1.0" encoding="UTF-8" standalone="no"?>
<!DOCTYPE svg PUBLIC "-//W3C//DTD SVG 1.1//EN"
 "http://www.w3.org/Graphics/SVG/1.1/DTD/svg11.dtd">
<!-- Generated by graphviz version 2.36.0 (20140111.2315)
 -->
<!-- Title: repo.programs.pythonpackages.pr.SPDataSet.SPDataSet.splitRecArray Pages: 1 -->
<!--zoomable 459 -->
<svg id="main" version="1.1" xmlns="http://www.w3.org/2000/svg" xmlns:xlink="http://www.w3.org/1999/xlink" xml:space="preserve" onload="init(evt)">
<style type="text/css"><![CDATA[
.edge:hover path { stroke: red; }
.edge:hover polygon { stroke: red; fill: red; }
]]></style>
<script type="text/javascript"><![CDATA[
var edges = document.getElementsByTagName('g');
if (edges && edges.length) {
  for (var i=0;i<edges.length;i++) {
    if (edges[i].id.substr(0,4)=='edge') {
      edges[i].setAttribute('class','edge');
    }
  }
}
]]></script>
        <defs>
                <circle id="rim" cx="0" cy="0" r="7"/>
                <circle id="rim2" cx="0" cy="0" r="3.5"/>
                <g id="zoomPlus">
                        <use xlink:href="#rim" fill="#404040">
                                <set attributeName="fill" to="#808080" begin="zoomplus.mouseover" end="zoomplus.mouseout"/>
                        </use>
                        <path d="M-4,0h8M0,-4v8" fill="none" stroke="white" stroke-width="1.5" pointer-events="none"/>
                </g>
                <g id="zoomMin">
                        <use xlink:href="#rim" fill="#404040">
                                <set attributeName="fill" to="#808080" begin="zoomminus.mouseover" end="zoomminus.mouseout"/>
                        </use>
                        <path d="M-4,0h8" fill="none" stroke="white" stroke-width="1.5" pointer-events="none"/>
                </g>
                <g id="dirArrow">
                        <path fill="none" stroke="white" stroke-width="1.5" d="M0,-3.0v7 M-2.5,-0.5L0,-3.0L2.5,-0.5"/>
                </g>
               <g id="resetDef">
                       <use xlink:href="#rim2" fill="#404040">
                               <set attributeName="fill" to="#808080" begin="reset.mouseover" end="reset.mouseout"/>
                       </use>
               </g>
        </defs>

<script type="text/javascript">
var viewWidth = 2174;
var viewHeight = 459;
var sectionId = 'dynsection-41';
</script>
<script xlink:href="svgpan.js"/>
<svg id="graph" class="graph">
<g id="viewport">
<title>repo.programs.pythonpackages.pr.SPDataSet.SPDataSet.splitRecArray</title>
<polygon fill="white" stroke="none" points="-4,4 -4,-455 2170,-455 2170,4 -4,4"/>
<!-- Node1 -->
<g id="node1" class="node"><title>Node1</title>
<polygon fill="#bfbfbf" stroke="black" points="0.5,-82 0.5,-112 181.5,-112 181.5,-82 0.5,-82"/>
<text text-anchor="start" x="8.5" y="-100" font-family="Helvetica,sans-Serif" font-size="10.00">repo.programs.pythonpackages.pr.</text>
<text text-anchor="middle" x="91" y="-89" font-family="Helvetica,sans-Serif" font-size="10.00">SPDataSet.SPDataSet.splitRecArray</text>
</g>
<!-- Node2 -->
<g id="node2" class="node"><title>Node2</title>
<g id="a_node2"><a xlink:href="classrepo_1_1programs_1_1pythonpackages_1_1pr_1_1SPDataSet_1_1SPDataSet.html#a9eef53392c7e7ad757cefde737a6cb69" target="_top" xlink:title="repo.programs.pythonpackages.pr.\lSPDataSet.SPDataSet.medD">
<polygon fill="white" stroke="black" points="442.5,-49 442.5,-79 609.5,-79 609.5,-49 442.5,-49"/>
<text text-anchor="start" x="450.5" y="-67" font-family="Helvetica,sans-Serif" font-size="10.00">repo.programs.pythonpackages.pr.</text>
<text text-anchor="middle" x="526" y="-56" font-family="Helvetica,sans-Serif" font-size="10.00">SPDataSet.SPDataSet.medD</text>
</a>
</g>
</g>
<!-- Node1&#45;&gt;Node2 -->
<g id="edge1" class="edge"><title>Node1&#45;&gt;Node2</title>
<path fill="none" stroke="midnightblue" d="M167,-79.9506C183.705,-76.7606 201.389,-73.8508 218,-72 293.642,-63.5721 380.383,-62.0558 442.325,-62.3636"/>
<polygon fill="midnightblue" stroke="midnightblue" points="165.881,-76.6035 156.743,-81.9662 167.231,-83.4721 165.881,-76.6035"/>
</g>
<!-- Node17 -->
<g id="node17" class="node"><title>Node17</title>
<g id="a_node17"><a xlink:href="classrepo_1_1programs_1_1pythonpackages_1_1pr_1_1SPDataSet_1_1SPDataSet.html#a8f689441aa1ded0237cabae51f95954f" target="_top" xlink:title="repo.programs.pythonpackages.pr.\lSPDataSet.SPDataSet.motorPositions">
<polygon fill="white" stroke="black" points="218.5,-131 218.5,-161 405.5,-161 405.5,-131 218.5,-131"/>
<text text-anchor="start" x="226.5" y="-149" font-family="Helvetica,sans-Serif" font-size="10.00">repo.programs.pythonpackages.pr.</text>
<text text-anchor="middle" x="312" y="-138" font-family="Helvetica,sans-Serif" font-size="10.00">SPDataSet.SPDataSet.motorPositions</text>
</a>
</g>
</g>
<!-- Node1&#45;&gt;Node17 -->
<g id="edge26" class="edge"><title>Node1&#45;&gt;Node17</title>
<path fill="none" stroke="midnightblue" d="M169.133,-114.258C193.535,-119.718 220.294,-125.705 243.932,-130.994"/>
<polygon fill="midnightblue" stroke="midnightblue" points="169.718,-110.803 159.196,-112.035 168.19,-117.634 169.718,-110.803"/>
</g>
<!-- Node18 -->
<g id="node18" class="node"><title>Node18</title>
<g id="a_node18"><a xlink:href="classrepo_1_1programs_1_1pythonpackages_1_1pr_1_1SPDataSet_1_1SPDataSet.html#a1f51629896a09eb4e5d3c09c44b4823b" target="_top" xlink:title="repo.programs.pythonpackages.pr.\lSPDataSet.SPDataSet.motorSensors">
<polygon fill="white" stroke="black" points="221,-82 221,-112 403,-112 403,-82 221,-82"/>
<text text-anchor="start" x="229" y="-100" font-family="Helvetica,sans-Serif" font-size="10.00">repo.programs.pythonpackages.pr.</text>
<text text-anchor="middle" x="312" y="-89" font-family="Helvetica,sans-Serif" font-size="10.00">SPDataSet.SPDataSet.motorSensors</text>
</a>
</g>
</g>
<!-- Node1&#45;&gt;Node18 -->
<g id="edge27" class="edge"><title>Node1&#45;&gt;Node18</title>
<path fill="none" stroke="midnightblue" d="M191.729,-97C201.392,-97 211.159,-97 220.723,-97"/>
<polygon fill="midnightblue" stroke="midnightblue" points="191.708,-93.5001 181.708,-97 191.708,-100.5 191.708,-93.5001"/>
</g>
<!-- Node19 -->
<g id="node19" class="node"><title>Node19</title>
<g id="a_node19"><a xlink:href="classrepo_1_1programs_1_1pythonpackages_1_1pr_1_1SPDataSet_1_1SPDataSet.html#a6478ef339e0e44839e478fec7340c6b0" target="_top" xlink:title="repo.programs.pythonpackages.pr.\lSPDataSet.SPDataSet.relD">
<polygon fill="white" stroke="black" points="442.5,-0 442.5,-30 609.5,-30 609.5,-0 442.5,-0"/>
<text text-anchor="start" x="450.5" y="-18" font-family="Helvetica,sans-Serif" font-size="10.00">repo.programs.pythonpackages.pr.</text>
<text text-anchor="middle" x="526" y="-7" font-family="Helvetica,sans-Serif" font-size="10.00">SPDataSet.SPDataSet.relD</text>
</a>
</g>
</g>
<!-- Node1&#45;&gt;Node19 -->
<g id="edge28" class="edge"><title>Node1&#45;&gt;Node19</title>
<path fill="none" stroke="midnightblue" d="M145.477,-78.9285C167.708,-71.9259 193.903,-64.3288 218,-59 293.18,-42.3752 380.162,-30.5942 442.303,-23.433"/>
<polygon fill="midnightblue" stroke="midnightblue" points="144.35,-75.6142 135.888,-81.9889 146.478,-82.2828 144.35,-75.6142"/>
</g>
<!-- Node20 -->
<g id="node20" class="node"><title>Node20</title>
<g id="a_node20"><a xlink:href="classrepo_1_1programs_1_1pythonpackages_1_1pr_1_1SPDataSet_1_1SPDataSet.html#aa400ad81219e782fe2e29e852b20bb28" target="_top" xlink:title="repo.programs.pythonpackages.pr.\lSPDataSet.SPDataSet.fastD">
<polygon fill="white" stroke="black" points="228.5,-180 228.5,-210 395.5,-210 395.5,-180 228.5,-180"/>
<text text-anchor="start" x="236.5" y="-198" font-family="Helvetica,sans-Serif" font-size="10.00">repo.programs.pythonpackages.pr.</text>
<text text-anchor="middle" x="312" y="-187" font-family="Helvetica,sans-Serif" font-size="10.00">SPDataSet.SPDataSet.fastD</text>
</a>
</g>
</g>
<!-- Node1&#45;&gt;Node20 -->
<g id="edge30" class="edge"><title>Node1&#45;&gt;Node20</title>
<path fill="none" stroke="midnightblue" d="M122.435,-117.692C147.254,-133.799 183.693,-155.743 218,-170 226.955,-173.721 236.625,-177.04 246.228,-179.947"/>
<polygon fill="midnightblue" stroke="midnightblue" points="124.122,-114.612 113.842,-112.046 120.278,-120.463 124.122,-114.612"/>
</g>
<!-- Node3 -->
<g id="node3" class="node"><title>Node3</title>
<g id="a_node3"><a xlink:href="classrepo_1_1programs_1_1pythonpackages_1_1pr_1_1SPDataSet_1_1SPDataSet.html#a14656e508d81193e8c71c09d9444e15f" target="_top" xlink:title="repo.programs.pythonpackages.pr.\lSPDataSet.SPDataSet.trigTimes">
<polygon fill="white" stroke="black" points="659.5,-49 659.5,-79 826.5,-79 826.5,-49 659.5,-49"/>
<text text-anchor="start" x="667.5" y="-67" font-family="Helvetica,sans-Serif" font-size="10.00">repo.programs.pythonpackages.pr.</text>
<text text-anchor="middle" x="743" y="-56" font-family="Helvetica,sans-Serif" font-size="10.00">SPDataSet.SPDataSet.trigTimes</text>
</a>
</g>
</g>
<!-- Node2&#45;&gt;Node3 -->
<g id="edge2" class="edge"><title>Node2&#45;&gt;Node3</title>
<path fill="none" stroke="midnightblue" d="M619.555,-64C632.789,-64 646.33,-64 659.356,-64"/>
<polygon fill="midnightblue" stroke="midnightblue" points="619.51,-60.5001 609.51,-64 619.51,-67.5001 619.51,-60.5001"/>
</g>
<!-- Node4 -->
<g id="node4" class="node"><title>Node4</title>
<g id="a_node4"><a xlink:href="classrepo_1_1programs_1_1pythonpackages_1_1pr_1_1SPDataSet_1_1SPDataSet.html#a5b12a3d9fdb93ccbf79a6b7a7893be3f" target="_top" xlink:title="repo.programs.pythonpackages.pr.\lSPDataSet.SPDataSet.cutAmp">
<polygon fill="white" stroke="black" points="886.5,-175 886.5,-205 1053.5,-205 1053.5,-175 886.5,-175"/>
<text text-anchor="start" x="894.5" y="-193" font-family="Helvetica,sans-Serif" font-size="10.00">repo.programs.pythonpackages.pr.</text>
<text text-anchor="middle" x="970" y="-182" font-family="Helvetica,sans-Serif" font-size="10.00">SPDataSet.SPDataSet.cutAmp</text>
</a>
</g>
</g>
<!-- Node3&#45;&gt;Node4 -->
<g id="edge3" class="edge"><title>Node3&#45;&gt;Node4</title>
<path fill="none" stroke="midnightblue" d="M780.014,-84.1681C825.213,-109.479 901.696,-152.31 942.114,-174.944"/>
<polygon fill="midnightblue" stroke="midnightblue" points="781.575,-81.0309 771.14,-79.1985 778.155,-87.1384 781.575,-81.0309"/>
</g>
<!-- Node13 -->
<g id="node13" class="node"><title>Node13</title>
<g id="a_node13"><a xlink:href="classrepo_1_1programs_1_1pythonpackages_1_1pr_1_1SPDataSet_1_1SPDataSet.html#a5ad35e931371981e41221502928547d5" target="_top" xlink:title="Check that the calculated apparatus directions fit with the available data. ">
<polygon fill="white" stroke="black" points="1754,-131 1754,-161 1946,-161 1946,-131 1754,-131"/>
<text text-anchor="start" x="1762" y="-149" font-family="Helvetica,sans-Serif" font-size="10.00">repo.programs.pythonpackages.pr.</text>
<text text-anchor="middle" x="1850" y="-138" font-family="Helvetica,sans-Serif" font-size="10.00">SPDataSet.SPDataSet.checkDirections</text>
</a>
</g>
</g>
<!-- Node3&#45;&gt;Node13 -->
<g id="edge25" class="edge"><title>Node3&#45;&gt;Node13</title>
<path fill="none" stroke="midnightblue" d="M836.845,-53.2929C925.601,-43.9913 1063.25,-32 1183,-32 1183,-32 1183,-32 1399,-32 1558.37,-32 1740.04,-100.023 1814.46,-130.979"/>
<polygon fill="midnightblue" stroke="midnightblue" points="836.38,-49.8224 826.804,-54.3555 837.117,-56.7835 836.38,-49.8224"/>
</g>
<!-- Node16 -->
<g id="node16" class="node"><title>Node16</title>
<g id="a_node16"><a xlink:href="classrepo_1_1programs_1_1pythonpackages_1_1pr_1_1SPDataSet_1_1SPDataSet.html#a5343a59b34ffebfc31c1dfd06ddfa889" target="_top" xlink:title="repo.programs.pythonpackages.pr.\lSPDataSet.SPDataSet.viewRaw">
<polygon fill="white" stroke="black" points="1100.5,-87 1100.5,-117 1267.5,-117 1267.5,-87 1100.5,-87"/>
<text text-anchor="start" x="1108.5" y="-105" font-family="Helvetica,sans-Serif" font-size="10.00">repo.programs.pythonpackages.pr.</text>
<text text-anchor="middle" x="1184" y="-94" font-family="Helvetica,sans-Serif" font-size="10.00">SPDataSet.SPDataSet.viewRaw</text>
</a>
</g>
</g>
<!-- Node3&#45;&gt;Node16 -->
<g id="edge24" class="edge"><title>Node3&#45;&gt;Node16</title>
<path fill="none" stroke="midnightblue" d="M836.882,-72.0399C914.929,-78.7957 1025.43,-88.3607 1100.43,-94.8523"/>
<polygon fill="midnightblue" stroke="midnightblue" points="836.837,-68.523 826.573,-71.1475 836.233,-75.4969 836.837,-68.523"/>
</g>
<!-- Node4&#45;&gt;Node4 -->
<g id="edge4" class="edge"><title>Node4&#45;&gt;Node4</title>
<path fill="none" stroke="midnightblue" d="M932.542,-215.598C937.66,-219.97 950.146,-223 970,-223 1003.44,-223 1015.98,-214.406 1007.62,-205.275"/>
<polygon fill="midnightblue" stroke="midnightblue" points="936.037,-215.22 932.383,-205.275 929.038,-215.328 936.037,-215.22"/>
</g>
<!-- Node5 -->
<g id="node5" class="node"><title>Node5</title>
<g id="a_node5"><a xlink:href="classrepo_1_1programs_1_1pythonpackages_1_1pr_1_1SPDataSet_1_1SPDataSet.html#a9eac955cac12a62b72d189aa80b82ec6" target="_top" xlink:title="repo.programs.pythonpackages.pr.\lSPDataSet.SPDataSet.filteredCutAmp">
<polygon fill="white" stroke="black" points="1304.5,-254 1304.5,-284 1491.5,-284 1491.5,-254 1304.5,-254"/>
<text text-anchor="start" x="1312.5" y="-272" font-family="Helvetica,sans-Serif" font-size="10.00">repo.programs.pythonpackages.pr.</text>
<text text-anchor="middle" x="1398" y="-261" font-family="Helvetica,sans-Serif" font-size="10.00">SPDataSet.SPDataSet.filteredCutAmp</text>
</a>
</g>
</g>
<!-- Node4&#45;&gt;Node5 -->
<g id="edge5" class="edge"><title>Node4&#45;&gt;Node5</title>
<path fill="none" stroke="midnightblue" d="M1062.08,-206.891C1137.39,-220.857 1243.36,-240.509 1315.81,-253.944"/>
<polygon fill="midnightblue" stroke="midnightblue" points="1062.6,-203.427 1052.13,-205.045 1061.32,-210.31 1062.6,-203.427"/>
</g>
<!-- Node14 -->
<g id="node14" class="node"><title>Node14</title>
<g id="a_node14"><a xlink:href="classrepo_1_1programs_1_1pythonpackages_1_1pr_1_1SPDataSet_1_1SPDataSet.html#a6f2c3de2aa708d686f5835f10e2d096d" target="_top" xlink:title="repo.programs.pythonpackages.pr.\lSPDataSet.SPDataSet.pointAmp">
<polygon fill="white" stroke="black" points="1100.5,-335 1100.5,-365 1267.5,-365 1267.5,-335 1100.5,-335"/>
<text text-anchor="start" x="1108.5" y="-353" font-family="Helvetica,sans-Serif" font-size="10.00">repo.programs.pythonpackages.pr.</text>
<text text-anchor="middle" x="1184" y="-342" font-family="Helvetica,sans-Serif" font-size="10.00">SPDataSet.SPDataSet.pointAmp</text>
</a>
</g>
</g>
<!-- Node4&#45;&gt;Node14 -->
<g id="edge17" class="edge"><title>Node4&#45;&gt;Node14</title>
<path fill="none" stroke="midnightblue" d="M1021.71,-208.978C1035.95,-215.334 1051.07,-223.103 1064,-232 1108.34,-262.511 1150.74,-310.548 1170.85,-334.846"/>
<polygon fill="midnightblue" stroke="midnightblue" points="1023.07,-205.755 1012.51,-205.007 1020.3,-212.182 1023.07,-205.755"/>
</g>
<!-- Node4&#45;&gt;Node16 -->
<g id="edge23" class="edge"><title>Node4&#45;&gt;Node16</title>
<path fill="none" stroke="midnightblue" d="M1016.96,-170.921C1055.85,-154.781 1110.81,-131.964 1146.68,-117.077"/>
<polygon fill="midnightblue" stroke="midnightblue" points="1015.34,-167.806 1007.44,-174.872 1018.02,-174.271 1015.34,-167.806"/>
</g>
<!-- Node6 -->
<g id="node6" class="node"><title>Node6</title>
<g id="a_node6"><a xlink:href="classrepo_1_1programs_1_1pythonpackages_1_1pr_1_1SPDataSet_1_1SPDataSet.html#accbfa0185d4e416038e688fc9b55575b" target="_top" xlink:title="repo.programs.pythonpackages.pr.\lSPDataSet.SPDataSet.sequenceAmp">
<polygon fill="white" stroke="black" points="1528,-265 1528,-295 1712,-295 1712,-265 1528,-265"/>
<text text-anchor="start" x="1536" y="-283" font-family="Helvetica,sans-Serif" font-size="10.00">repo.programs.pythonpackages.pr.</text>
<text text-anchor="middle" x="1620" y="-272" font-family="Helvetica,sans-Serif" font-size="10.00">SPDataSet.SPDataSet.sequenceAmp</text>
</a>
</g>
</g>
<!-- Node5&#45;&gt;Node6 -->
<g id="edge6" class="edge"><title>Node5&#45;&gt;Node6</title>
<path fill="none" stroke="midnightblue" d="M1501.82,-274.141C1510.51,-274.576 1519.26,-275.013 1527.85,-275.443"/>
<polygon fill="midnightblue" stroke="midnightblue" points="1501.82,-270.637 1491.66,-273.633 1501.47,-277.628 1501.82,-270.637"/>
</g>
<!-- Node6&#45;&gt;Node6 -->
<g id="edge7" class="edge"><title>Node6&#45;&gt;Node6</title>
<path fill="none" stroke="midnightblue" d="M1581.14,-305.598C1586.45,-309.97 1599.4,-313 1620,-313 1654.69,-313 1667.7,-304.406 1659.02,-295.275"/>
<polygon fill="midnightblue" stroke="midnightblue" points="1584.64,-305.218 1580.98,-295.275 1577.64,-305.33 1584.64,-305.218"/>
</g>
<!-- Node7 -->
<g id="node7" class="node"><title>Node7</title>
<g id="a_node7"><a xlink:href="classrepo_1_1programs_1_1pythonpackages_1_1pr_1_1SPDataSet_1_1SPDataSet.html#ac0df54b82a9e993d707f0dafd87a19dd" target="_top" xlink:title="repo.programs.pythonpackages.pr.\lSPDataSet.SPDataSet.labAmp">
<polygon fill="white" stroke="black" points="1766.5,-265 1766.5,-295 1933.5,-295 1933.5,-265 1766.5,-265"/>
<text text-anchor="start" x="1774.5" y="-283" font-family="Helvetica,sans-Serif" font-size="10.00">repo.programs.pythonpackages.pr.</text>
<text text-anchor="middle" x="1850" y="-272" font-family="Helvetica,sans-Serif" font-size="10.00">SPDataSet.SPDataSet.labAmp</text>
</a>
</g>
</g>
<!-- Node6&#45;&gt;Node7 -->
<g id="edge8" class="edge"><title>Node6&#45;&gt;Node7</title>
<path fill="none" stroke="midnightblue" d="M1722.21,-280C1736.91,-280 1751.89,-280 1766.17,-280"/>
<polygon fill="midnightblue" stroke="midnightblue" points="1722.09,-276.5 1712.09,-280 1722.09,-283.5 1722.09,-276.5"/>
</g>
<!-- Node8 -->
<g id="node8" class="node"><title>Node8</title>
<g id="a_node8"><a xlink:href="classrepo_1_1programs_1_1pythonpackages_1_1pr_1_1SPDataSet_1_1SPDataSet.html#a3624263a6738178d243635889b719a90" target="_top" xlink:title="repo.programs.pythonpackages.pr.\lSPDataSet.SPDataSet.viewSid">
<polygon fill="white" stroke="black" points="1993.5,-265 1993.5,-295 2160.5,-295 2160.5,-265 1993.5,-265"/>
<text text-anchor="start" x="2001.5" y="-283" font-family="Helvetica,sans-Serif" font-size="10.00">repo.programs.pythonpackages.pr.</text>
<text text-anchor="middle" x="2077" y="-272" font-family="Helvetica,sans-Serif" font-size="10.00">SPDataSet.SPDataSet.viewSid</text>
</a>
</g>
</g>
<!-- Node6&#45;&gt;Node8 -->
<g id="edge14" class="edge"><title>Node6&#45;&gt;Node8</title>
<path fill="none" stroke="midnightblue" d="M1697.71,-263.118C1714.22,-260.156 1731.63,-257.534 1748,-256 1838.27,-247.545 1861.75,-247.346 1952,-256 1971.21,-257.842 1991.86,-261.253 2010.7,-264.938"/>
<polygon fill="midnightblue" stroke="midnightblue" points="1696.76,-259.735 1687.57,-265 1698.04,-266.617 1696.76,-259.735"/>
</g>
<!-- Node9 -->
<g id="node9" class="node"><title>Node9</title>
<g id="a_node9"><a xlink:href="classrepo_1_1programs_1_1pythonpackages_1_1pr_1_1SPDataSet_1_1SPDataSet.html#acf495c99c803a2a1e23cdaeae34da985" target="_top" xlink:title="repo.programs.pythonpackages.pr.\lSPDataSet.SPDataSet.sidAmp">
<polygon fill="white" stroke="black" points="1766.5,-314 1766.5,-344 1933.5,-344 1933.5,-314 1766.5,-314"/>
<text text-anchor="start" x="1774.5" y="-332" font-family="Helvetica,sans-Serif" font-size="10.00">repo.programs.pythonpackages.pr.</text>
<text text-anchor="middle" x="1850" y="-321" font-family="Helvetica,sans-Serif" font-size="10.00">SPDataSet.SPDataSet.sidAmp</text>
</a>
</g>
</g>
<!-- Node6&#45;&gt;Node9 -->
<g id="edge10" class="edge"><title>Node6&#45;&gt;Node9</title>
<path fill="none" stroke="midnightblue" d="M1700.96,-297.185C1726.46,-302.665 1754.46,-308.682 1779.18,-313.994"/>
<polygon fill="midnightblue" stroke="midnightblue" points="1701.47,-293.714 1690.96,-295.035 1700,-300.558 1701.47,-293.714"/>
</g>
<!-- Node10 -->
<g id="node10" class="node"><title>Node10</title>
<g id="a_node10"><a xlink:href="classrepo_1_1programs_1_1pythonpackages_1_1pr_1_1SPDataSet_1_1SPDataSet.html#ac55c6ccc03634d3f670f52e89188779c" target="_top" xlink:title="repo.programs.pythonpackages.pr.\lSPDataSet.SPDataSet.viewSeq">
<polygon fill="white" stroke="black" points="1766.5,-421 1766.5,-451 1933.5,-451 1933.5,-421 1766.5,-421"/>
<text text-anchor="start" x="1774.5" y="-439" font-family="Helvetica,sans-Serif" font-size="10.00">repo.programs.pythonpackages.pr.</text>
<text text-anchor="middle" x="1850" y="-428" font-family="Helvetica,sans-Serif" font-size="10.00">SPDataSet.SPDataSet.viewSeq</text>
</a>
</g>
</g>
<!-- Node6&#45;&gt;Node10 -->
<g id="edge12" class="edge"><title>Node6&#45;&gt;Node10</title>
<path fill="none" stroke="midnightblue" d="M1637.97,-303.415C1660.09,-332.254 1701.49,-380.756 1748,-408 1756.87,-413.196 1766.75,-417.463 1776.75,-420.957"/>
<polygon fill="midnightblue" stroke="midnightblue" points="1640.55,-301.025 1631.74,-295.142 1634.96,-305.236 1640.55,-301.025"/>
</g>
<!-- Node12 -->
<g id="node12" class="node"><title>Node12</title>
<g id="a_node12"><a xlink:href="classrepo_1_1programs_1_1pythonpackages_1_1pr_1_1SPDataSet_1_1SPDataSet.html#a5aad808c592bfdbb665105df2947610f" target="_top" xlink:title="repo.programs.pythonpackages.pr.\lSPDataSet.SPDataSet.viewCorrelationFilt">
<polygon fill="white" stroke="black" points="1748.5,-369 1748.5,-399 1951.5,-399 1951.5,-369 1748.5,-369"/>
<text text-anchor="start" x="1756.5" y="-387" font-family="Helvetica,sans-Serif" font-size="10.00">repo.programs.pythonpackages.pr.</text>
<text text-anchor="middle" x="1850" y="-376" font-family="Helvetica,sans-Serif" font-size="10.00">SPDataSet.SPDataSet.viewCorrelationFilt</text>
</a>
</g>
</g>
<!-- Node6&#45;&gt;Node12 -->
<g id="edge15" class="edge"><title>Node6&#45;&gt;Node12</title>
<path fill="none" stroke="midnightblue" d="M1652.3,-300.638C1677.39,-316.526 1713.93,-338.202 1748,-353 1761.96,-359.065 1777.49,-364.456 1792.1,-368.972"/>
<polygon fill="midnightblue" stroke="midnightblue" points="1653.9,-297.511 1643.6,-295.07 1650.13,-303.408 1653.9,-297.511"/>
</g>
<!-- Node6&#45;&gt;Node13 -->
<g id="edge16" class="edge"><title>Node6&#45;&gt;Node13</title>
<path fill="none" stroke="midnightblue" d="M1655.45,-259.754C1701.56,-232.655 1782.28,-185.212 1823.38,-161.056"/>
<polygon fill="midnightblue" stroke="midnightblue" points="1653.56,-256.805 1646.71,-264.889 1657.11,-262.839 1653.56,-256.805"/>
</g>
<!-- Node7&#45;&gt;Node8 -->
<g id="edge9" class="edge"><title>Node7&#45;&gt;Node8</title>
<path fill="none" stroke="midnightblue" d="M1943.63,-280C1960.03,-280 1977.02,-280 1993.13,-280"/>
<polygon fill="midnightblue" stroke="midnightblue" points="1943.5,-276.5 1933.5,-280 1943.5,-283.5 1943.5,-276.5"/>
</g>
<!-- Node9&#45;&gt;Node8 -->
<g id="edge11" class="edge"><title>Node9&#45;&gt;Node8</title>
<path fill="none" stroke="midnightblue" d="M1929.91,-311.815C1955.07,-306.335 1982.7,-300.318 2007.09,-295.006"/>
<polygon fill="midnightblue" stroke="midnightblue" points="1929.06,-308.418 1920.04,-313.965 1930.55,-315.257 1929.06,-308.418"/>
</g>
<!-- Node11 -->
<g id="node11" class="node"><title>Node11</title>
<g id="a_node11"><a xlink:href="classrepo_1_1programs_1_1pythonpackages_1_1pr_1_1SPDataSet_1_1SPDataSet.html#a0c87af10688edd55eb0aea229e5979bb" target="_top" xlink:title="repo.programs.pythonpackages.pr.\lSPDataSet.SPDataSet.viewSensors">
<polygon fill="white" stroke="black" points="1988,-421 1988,-451 2166,-451 2166,-421 1988,-421"/>
<text text-anchor="start" x="1996" y="-439" font-family="Helvetica,sans-Serif" font-size="10.00">repo.programs.pythonpackages.pr.</text>
<text text-anchor="middle" x="2077" y="-428" font-family="Helvetica,sans-Serif" font-size="10.00">SPDataSet.SPDataSet.viewSensors</text>
</a>
</g>
</g>
<!-- Node10&#45;&gt;Node11 -->
<g id="edge13" class="edge"><title>Node10&#45;&gt;Node11</title>
<path fill="none" stroke="midnightblue" d="M1943.55,-436C1958.19,-436 1973.29,-436 1987.83,-436"/>
<polygon fill="midnightblue" stroke="midnightblue" points="1943.5,-432.5 1933.5,-436 1943.5,-439.5 1943.5,-432.5"/>
</g>
<!-- Node14&#45;&gt;Node5 -->
<g id="edge18" class="edge"><title>Node14&#45;&gt;Node5</title>
<path fill="none" stroke="midnightblue" d="M1227.06,-330.845C1249.66,-320.839 1278.12,-308.695 1304,-299 1317.98,-293.762 1333.34,-288.58 1347.48,-284.035"/>
<polygon fill="midnightblue" stroke="midnightblue" points="1225.46,-327.723 1217.75,-334.989 1228.31,-334.117 1225.46,-327.723"/>
</g>
<!-- Node14&#45;&gt;Node6 -->
<g id="edge19" class="edge"><title>Node14&#45;&gt;Node6</title>
<path fill="none" stroke="midnightblue" d="M1277.87,-335.021C1351.65,-323.122 1454.27,-306.569 1527.65,-294.734"/>
<polygon fill="midnightblue" stroke="midnightblue" points="1276.97,-331.621 1267.65,-336.669 1278.08,-338.532 1276.97,-331.621"/>
</g>
<!-- Node14&#45;&gt;Node10 -->
<g id="edge20" class="edge"><title>Node14&#45;&gt;Node10</title>
<path fill="none" stroke="midnightblue" d="M1221.95,-369.721C1244.89,-380.972 1275.37,-394.16 1304,-401 1464.46,-439.335 1658.57,-441.727 1766.46,-439.327"/>
<polygon fill="midnightblue" stroke="midnightblue" points="1223.43,-366.547 1212.92,-365.202 1220.29,-372.807 1223.43,-366.547"/>
</g>
<!-- Node14&#45;&gt;Node12 -->
<g id="edge21" class="edge"><title>Node14&#45;&gt;Node12</title>
<path fill="none" stroke="midnightblue" d="M1241.36,-367.754C1260.98,-373.11 1283.27,-378.286 1304,-381 1457.98,-401.158 1638.53,-396.702 1748.3,-390.907"/>
<polygon fill="midnightblue" stroke="midnightblue" points="1242.24,-364.366 1231.66,-365.035 1240.35,-371.105 1242.24,-364.366"/>
</g>
<!-- Node15 -->
<g id="node15" class="node"><title>Node15</title>
<g id="a_node15"><a xlink:href="classrepo_1_1programs_1_1pythonpackages_1_1pr_1_1SPDataSet_1_1SPDataSet.html#a2ffa7a6de1e0ebd8172db800621eed20" target="_top" xlink:title="repo.programs.pythonpackages.pr.\lSPDataSet.SPDataSet.test_div">
<polygon fill="white" stroke="black" points="1314.5,-342 1314.5,-372 1481.5,-372 1481.5,-342 1314.5,-342"/>
<text text-anchor="start" x="1322.5" y="-360" font-family="Helvetica,sans-Serif" font-size="10.00">repo.programs.pythonpackages.pr.</text>
<text text-anchor="middle" x="1398" y="-349" font-family="Helvetica,sans-Serif" font-size="10.00">SPDataSet.SPDataSet.test_div</text>
</a>
</g>
</g>
<!-- Node14&#45;&gt;Node15 -->
<g id="edge22" class="edge"><title>Node14&#45;&gt;Node15</title>
<path fill="none" stroke="midnightblue" d="M1277.73,-353.062C1289.9,-353.464 1302.31,-353.874 1314.3,-354.269"/>
<polygon fill="midnightblue" stroke="midnightblue" points="1277.68,-349.558 1267.57,-352.726 1277.45,-356.555 1277.68,-349.558"/>
</g>
<!-- Node19&#45;&gt;Node3 -->
<g id="edge29" class="edge"><title>Node19&#45;&gt;Node3</title>
<path fill="none" stroke="midnightblue" d="M602.724,-32.2581C626.681,-37.718 652.951,-43.705 676.157,-48.9938"/>
<polygon fill="midnightblue" stroke="midnightblue" points="603.496,-28.8443 592.968,-30.0346 601.94,-35.6693 603.496,-28.8443"/>
</g>
<!-- Node20&#45;&gt;Node3 -->
<g id="edge32" class="edge"><title>Node20&#45;&gt;Node3</title>
<path fill="none" stroke="midnightblue" d="M380.36,-177.269C389.004,-174.883 397.722,-172.422 406,-170 513.385,-138.58 539.269,-127.576 646,-94 661.491,-89.1269 678.396,-83.8352 693.644,-79.0722"/>
<polygon fill="midnightblue" stroke="midnightblue" points="379.379,-173.908 370.658,-179.925 381.228,-180.66 379.379,-173.908"/>
</g>
<!-- Node21 -->
<g id="node21" class="node"><title>Node21</title>
<g id="a_node21"><a xlink:href="classrepo_1_1programs_1_1pythonpackages_1_1pr_1_1SPDataSet_1_1SPDataSet.html#a0e6950849790e5787695a807f45b0d51" target="_top" xlink:title="repo.programs.pythonpackages.pr.\lSPDataSet.SPDataSet.tRange">
<polygon fill="white" stroke="black" points="442.5,-226 442.5,-256 609.5,-256 609.5,-226 442.5,-226"/>
<text text-anchor="start" x="450.5" y="-244" font-family="Helvetica,sans-Serif" font-size="10.00">repo.programs.pythonpackages.pr.</text>
<text text-anchor="middle" x="526" y="-233" font-family="Helvetica,sans-Serif" font-size="10.00">SPDataSet.SPDataSet.tRange</text>
</a>
</g>
</g>
<!-- Node20&#45;&gt;Node21 -->
<g id="edge31" class="edge"><title>Node20&#45;&gt;Node21</title>
<path fill="none" stroke="midnightblue" d="M392.215,-212.188C413.103,-216.72 435.475,-221.575 455.79,-225.983"/>
<polygon fill="midnightblue" stroke="midnightblue" points="392.932,-208.762 382.417,-210.062 391.447,-215.603 392.932,-208.762"/>
</g>
<!-- Node22 -->
<g id="node22" class="node"><title>Node22</title>
<g id="a_node22"><a xlink:href="classrepo_1_1programs_1_1pythonpackages_1_1pr_1_1SPDataSet_1_1SPDataSet.html#afe54eeb9f41f503dc478557e4ea2c62a" target="_top" xlink:title="repo.programs.pythonpackages.pr.\lSPDataSet.SPDataSet.rawData">
<polygon fill="white" stroke="black" points="442.5,-177 442.5,-207 609.5,-207 609.5,-177 442.5,-177"/>
<text text-anchor="start" x="450.5" y="-195" font-family="Helvetica,sans-Serif" font-size="10.00">repo.programs.pythonpackages.pr.</text>
<text text-anchor="middle" x="526" y="-184" font-family="Helvetica,sans-Serif" font-size="10.00">SPDataSet.SPDataSet.rawData</text>
</a>
</g>
</g>
<!-- Node20&#45;&gt;Node22 -->
<g id="edge33" class="edge"><title>Node20&#45;&gt;Node22</title>
<path fill="none" stroke="midnightblue" d="M405.728,-193.688C417.901,-193.516 430.312,-193.34 442.305,-193.17"/>
<polygon fill="midnightblue" stroke="midnightblue" points="405.521,-190.19 395.572,-193.832 405.62,-197.19 405.521,-190.19"/>
</g>
<!-- Node22&#45;&gt;Node3 -->
<g id="edge34" class="edge"><title>Node22&#45;&gt;Node3</title>
<path fill="none" stroke="midnightblue" d="M568.389,-171.916C582.438,-164.009 597.681,-154.141 610,-143 630.043,-124.874 624.007,-109.702 646,-94 654.598,-87.8616 664.494,-82.949 674.593,-79.0257"/>
<polygon fill="midnightblue" stroke="midnightblue" points="566.483,-168.968 559.373,-176.823 569.829,-175.117 566.483,-168.968"/>
</g>
<!-- Node22&#45;&gt;Node4 -->
<g id="edge38" class="edge"><title>Node22&#45;&gt;Node4</title>
<path fill="none" stroke="midnightblue" d="M620.025,-191.579C698.823,-191.223 810.738,-190.716 886.413,-190.374"/>
<polygon fill="midnightblue" stroke="midnightblue" points="619.602,-188.081 609.618,-191.626 619.634,-195.081 619.602,-188.081"/>
</g>
<!-- Node22&#45;&gt;Node13 -->
<g id="edge43" class="edge"><title>Node22&#45;&gt;Node13</title>
<path fill="none" stroke="midnightblue" d="M619.919,-176.67C709.16,-163.29 847.911,-146 969,-146 969,-146 969,-146 1399,-146 1521.46,-146 1662.67,-146 1753.75,-146"/>
<polygon fill="midnightblue" stroke="midnightblue" points="619.189,-173.241 609.826,-178.198 620.237,-180.162 619.189,-173.241"/>
</g>
<!-- Node22&#45;&gt;Node14 -->
<g id="edge41" class="edge"><title>Node22&#45;&gt;Node14</title>
<path fill="none" stroke="midnightblue" d="M605.753,-212.623C607.219,-213.693 608.637,-214.817 610,-216 639.448,-241.554 614.899,-272.486 646,-296 781.471,-398.421 994.297,-382.881 1107.03,-365.074"/>
<polygon fill="midnightblue" stroke="midnightblue" points="607.238,-209.423 596.905,-207.084 603.524,-215.357 607.238,-209.423"/>
</g>
<!-- Node22&#45;&gt;Node16 -->
<g id="edge42" class="edge"><title>Node22&#45;&gt;Node16</title>
<path fill="none" stroke="midnightblue" d="M562.552,-172.04C591.141,-156.377 629.21,-136.492 646,-132 729.268,-109.724 971.735,-103.975 1100.47,-102.501"/>
<polygon fill="midnightblue" stroke="midnightblue" points="560.709,-169.059 553.642,-176.952 564.089,-175.189 560.709,-169.059"/>
</g>
<!-- Node23 -->
<g id="node23" class="node"><title>Node23</title>
<g id="a_node23"><a xlink:href="classrepo_1_1programs_1_1pythonpackages_1_1pr_1_1SPDataSet_1_1SPDataSet.html#aa0b687b3c937bfb4aa71c4a09cac5eb5" target="_top" xlink:title="Names should be of the form &quot;med:Total Position Sensor 1&quot; etc. ">
<polygon fill="white" stroke="black" points="646,-219 646,-249 840,-249 840,-219 646,-219"/>
<text text-anchor="start" x="654" y="-237" font-family="Helvetica,sans-Serif" font-size="10.00">repo.programs.pythonpackages.pr.</text>
<text text-anchor="middle" x="743" y="-226" font-family="Helvetica,sans-Serif" font-size="10.00">SPDataSet.SPDataSet.getRawByName</text>
</a>
</g>
</g>
<!-- Node22&#45;&gt;Node23 -->
<g id="edge35" class="edge"><title>Node22&#45;&gt;Node23</title>
<path fill="none" stroke="midnightblue" d="M619.674,-203.411C645.386,-208.234 672.252,-213.805 694.234,-218.947"/>
<polygon fill="midnightblue" stroke="midnightblue" points="619.979,-199.908 609.51,-201.533 618.707,-206.792 619.979,-199.908"/>
</g>
<!-- Node25 -->
<g id="node25" class="node"><title>Node25</title>
<g id="a_node25"><a xlink:href="classrepo_1_1programs_1_1pythonpackages_1_1pr_1_1SPDataSet_1_1SPDataSet.html#a2b09966d9ad35b39ea13988a7c361df6" target="_top" xlink:title="Assume it&#39;s a continuously rotating sample. ">
<polygon fill="white" stroke="black" points="876,-291 876,-321 1064,-321 1064,-291 876,-291"/>
<text text-anchor="start" x="884" y="-309" font-family="Helvetica,sans-Serif" font-size="10.00">repo.programs.pythonpackages.pr.</text>
<text text-anchor="middle" x="970" y="-298" font-family="Helvetica,sans-Serif" font-size="10.00">SPDataSet.SPDataSet.seqAmpFitSplit</text>
</a>
</g>
</g>
<!-- Node22&#45;&gt;Node25 -->
<g id="edge39" class="edge"><title>Node22&#45;&gt;Node25</title>
<path fill="none" stroke="midnightblue" d="M601.987,-211.371C604.751,-212.808 607.434,-214.349 610,-216 630.674,-229.305 624.482,-246.109 646,-258 716.46,-296.937 808.134,-307.447 875.808,-309.086"/>
<polygon fill="midnightblue" stroke="midnightblue" points="603.465,-208.199 592.925,-207.127 600.496,-214.538 603.465,-208.199"/>
</g>
<!-- Node23&#45;&gt;Node22 -->
<g id="edge37" class="edge"><title>Node23&#45;&gt;Node22</title>
<path fill="none" stroke="midnightblue" d="M636.077,-220.057C614.558,-215.871 592.953,-211.308 574.715,-207.041"/>
<polygon fill="midnightblue" stroke="midnightblue" points="635.466,-223.504 645.947,-221.952 636.786,-216.629 635.466,-223.504"/>
</g>
<!-- Node24 -->
<g id="node24" class="node"><title>Node24</title>
<g id="a_node24"><a xlink:href="classrepo_1_1programs_1_1pythonpackages_1_1pr_1_1SPDataSet_1_1SPDataSet.html#a3a649b10dc80a63cbbb7ed141f90519f" target="_top" xlink:title="repo.programs.pythonpackages.pr.\lSPDataSet.SPDataSet.getSensorData">
<polygon fill="white" stroke="black" points="876.5,-242 876.5,-272 1063.5,-272 1063.5,-242 876.5,-242"/>
<text text-anchor="start" x="884.5" y="-260" font-family="Helvetica,sans-Serif" font-size="10.00">repo.programs.pythonpackages.pr.</text>
<text text-anchor="middle" x="970" y="-249" font-family="Helvetica,sans-Serif" font-size="10.00">SPDataSet.SPDataSet.getSensorData</text>
</a>
</g>
</g>
<!-- Node23&#45;&gt;Node24 -->
<g id="edge36" class="edge"><title>Node23&#45;&gt;Node24</title>
<path fill="none" stroke="midnightblue" d="M850.3,-244.866C859.042,-245.76 867.835,-246.659 876.465,-247.541"/>
<polygon fill="midnightblue" stroke="midnightblue" points="850.377,-241.356 840.073,-243.821 849.665,-248.32 850.377,-241.356"/>
</g>
<!-- Node25&#45;&gt;Node6 -->
<g id="edge40" class="edge"><title>Node25&#45;&gt;Node6</title>
<path fill="none" stroke="midnightblue" d="M1034.09,-288.385C1132.17,-263.307 1327.1,-222.693 1492,-245 1520.44,-248.848 1551.52,-257.334 1575.81,-264.987"/>
<polygon fill="midnightblue" stroke="midnightblue" points="1033.13,-285.017 1024.33,-290.911 1034.89,-291.793 1033.13,-285.017"/>
</g>
</g>
</svg>
        <g id="navigator" transform="translate(0 0)" fill="#404254">
                <rect fill="#f2f5e9" fill-opacity="0.5" stroke="#606060" stroke-width=".5" x="0" y="0" width="60" height="60"/>
                <use id="zoomplus" xlink:href="#zoomPlus" x="17" y="9" onmousedown="handleZoom(evt,'in')"/>
                <use id="zoomminus" xlink:href="#zoomMin" x="42" y="9" onmousedown="handleZoom(evt,'out')"/>
                <use id="reset" xlink:href="#resetDef" x="30" y="36" onmousedown="handleReset()"/>
                <g id="arrowUp" xlink:href="#dirArrow" transform="translate(30 24)" onmousedown="handlePan(0,-1)">
                  <use xlink:href="#rim" fill="#404040">
                        <set attributeName="fill" to="#808080" begin="arrowUp.mouseover" end="arrowUp.mouseout"/>
                  </use>
                  <path fill="none" stroke="white" stroke-width="1.5" d="M0,-3.0v7 M-2.5,-0.5L0,-3.0L2.5,-0.5"/>
                </g>
                <g id="arrowRight" xlink:href="#dirArrow" transform="rotate(90) translate(36 -43)" onmousedown="handlePan(1,0)">
                  <use xlink:href="#rim" fill="#404040">
                        <set attributeName="fill" to="#808080" begin="arrowRight.mouseover" end="arrowRight.mouseout"/>
                  </use>
                  <path fill="none" stroke="white" stroke-width="1.5" d="M0,-3.0v7 M-2.5,-0.5L0,-3.0L2.5,-0.5"/>
                </g>
                <g id="arrowDown" xlink:href="#dirArrow" transform="rotate(180) translate(-30 -48)" onmousedown="handlePan(0,1)">
                  <use xlink:href="#rim" fill="#404040">
                        <set attributeName="fill" to="#808080" begin="arrowDown.mouseover" end="arrowDown.mouseout"/>
                  </use>
                  <path fill="none" stroke="white" stroke-width="1.5" d="M0,-3.0v7 M-2.5,-0.5L0,-3.0L2.5,-0.5"/>
                </g>
                <g id="arrowLeft" xlink:href="#dirArrow" transform="rotate(270) translate(-36 17)" onmousedown="handlePan(-1,0)">
                  <use xlink:href="#rim" fill="#404040">
                        <set attributeName="fill" to="#808080" begin="arrowLeft.mouseover" end="arrowLeft.mouseout"/>
                  </use>
                  <path fill="none" stroke="white" stroke-width="1.5" d="M0,-3.0v7 M-2.5,-0.5L0,-3.0L2.5,-0.5"/>
                </g>
        </g>
        <svg viewBox="0 0 15 15" width="100%" height="30px" preserveAspectRatio="xMaxYMin meet">
         <g id="arrow_out" transform="scale(0.3 0.3)">
          <a xlink:href="classrepo_1_1programs_1_1pythonpackages_1_1pr_1_1SPDataSet_1_1SPDataSet_a1e4c1d502ec5ff9a57bf9a330a318a54_icgraph_org.svg" target="_base">
           <rect id="button" ry="5" rx="5" y="6" x="6" height="38" width="38"
                fill="#f2f5e9" fill-opacity="0.5" stroke="#606060" stroke-width="1.0"/>
           <path id="arrow"
             d="M 11.500037,31.436501 C 11.940474,20.09759 22.043105,11.32322 32.158766,21.979434 L 37.068811,17.246167 C 37.068811,17.246167 37.088388,32 37.088388,32 L 22.160133,31.978069 C 22.160133,31.978069 26.997745,27.140456 26.997745,27.140456 C 18.528582,18.264221 13.291696,25.230495 11.500037,31.436501 z"
             style="fill:#404040;"/>
          </a>
         </g>
        </svg>
</svg>
