<?xml version="1.0" encoding="UTF-8" standalone="no"?>
<!DOCTYPE svg PUBLIC "-//W3C//DTD SVG 1.1//EN"
 "http://www.w3.org/Graphics/SVG/1.1/DTD/svg11.dtd">
<!-- Generated by graphviz version 2.36.0 (20140111.2315)
 -->
<!-- Title: repo.programs.pythonpackages.pr.SPDataSet.SPDataSet.pointAmp Pages: 1 -->
<svg width="1074pt" height="312pt"
 viewBox="0.00 0.00 1074.00 312.00" xmlns="http://www.w3.org/2000/svg" xmlns:xlink="http://www.w3.org/1999/xlink">
<g id="graph0" class="graph" transform="scale(1 1) rotate(0) translate(4 308)">
<title>repo.programs.pythonpackages.pr.SPDataSet.SPDataSet.pointAmp</title>
<polygon fill="white" stroke="none" points="-4,4 -4,-308 1070,-308 1070,4 -4,4"/>
<!-- Node1 -->
<g id="node1" class="node"><title>Node1</title>
<polygon fill="#bfbfbf" stroke="black" points="0.5,-82 0.5,-112 167.5,-112 167.5,-82 0.5,-82"/>
<text text-anchor="start" x="8.5" y="-100" font-family="Helvetica,sans-Serif" font-size="10.00">repo.programs.pythonpackages.pr.</text>
<text text-anchor="middle" x="84" y="-89" font-family="Helvetica,sans-Serif" font-size="10.00">SPDataSet.SPDataSet.pointAmp</text>
</g>
<!-- Node2 -->
<g id="node2" class="node"><title>Node2</title>
<g id="a_node2"><a xlink:href="classrepo_1_1programs_1_1pythonpackages_1_1pr_1_1SPDataSet_1_1SPDataSet.html#a9eac955cac12a62b72d189aa80b82ec6" target="_top" xlink:title="repo.programs.pythonpackages.pr.\lSPDataSet.SPDataSet.filteredCutAmp">
<polygon fill="white" stroke="black" points="204.5,-164 204.5,-194 391.5,-194 391.5,-164 204.5,-164"/>
<text text-anchor="start" x="212.5" y="-182" font-family="Helvetica,sans-Serif" font-size="10.00">repo.programs.pythonpackages.pr.</text>
<text text-anchor="middle" x="298" y="-171" font-family="Helvetica,sans-Serif" font-size="10.00">SPDataSet.SPDataSet.filteredCutAmp</text>
</a>
</g>
</g>
<!-- Node1&#45;&gt;Node2 -->
<g id="edge1" class="edge"><title>Node1&#45;&gt;Node2</title>
<path fill="none" stroke="midnightblue" d="M126.297,-116.259C149.002,-126.539 177.802,-139.079 204,-149 217.803,-154.227 232.965,-159.366 246.969,-163.874"/>
<polygon fill="midnightblue" stroke="midnightblue" points="127.516,-112.968 116.965,-112.006 124.613,-119.338 127.516,-112.968"/>
</g>
<!-- Node3 -->
<g id="node3" class="node"><title>Node3</title>
<g id="a_node3"><a xlink:href="classrepo_1_1programs_1_1pythonpackages_1_1pr_1_1SPDataSet_1_1SPDataSet.html#accbfa0185d4e416038e688fc9b55575b" target="_top" xlink:title="repo.programs.pythonpackages.pr.\lSPDataSet.SPDataSet.sequenceAmp">
<polygon fill="white" stroke="black" points="428,-150 428,-180 612,-180 612,-150 428,-150"/>
<text text-anchor="start" x="436" y="-168" font-family="Helvetica,sans-Serif" font-size="10.00">repo.programs.pythonpackages.pr.</text>
<text text-anchor="middle" x="520" y="-157" font-family="Helvetica,sans-Serif" font-size="10.00">SPDataSet.SPDataSet.sequenceAmp</text>
</a>
</g>
</g>
<!-- Node1&#45;&gt;Node3 -->
<g id="edge13" class="edge"><title>Node1&#45;&gt;Node3</title>
<path fill="none" stroke="midnightblue" d="M177.867,-111.551C251.646,-123.11 354.272,-139.19 427.651,-150.687"/>
<polygon fill="midnightblue" stroke="midnightblue" points="178.075,-108.041 167.654,-109.95 176.991,-114.956 178.075,-108.041"/>
</g>
<!-- Node7 -->
<g id="node7" class="node"><title>Node7</title>
<g id="a_node7"><a xlink:href="classrepo_1_1programs_1_1pythonpackages_1_1pr_1_1SPDataSet_1_1SPDataSet.html#ac55c6ccc03634d3f670f52e89188779c" target="_top" xlink:title="repo.programs.pythonpackages.pr.\lSPDataSet.SPDataSet.viewSeq">
<polygon fill="white" stroke="black" points="666.5,-88 666.5,-118 833.5,-118 833.5,-88 666.5,-88"/>
<text text-anchor="start" x="674.5" y="-106" font-family="Helvetica,sans-Serif" font-size="10.00">repo.programs.pythonpackages.pr.</text>
<text text-anchor="middle" x="750" y="-95" font-family="Helvetica,sans-Serif" font-size="10.00">SPDataSet.SPDataSet.viewSeq</text>
</a>
</g>
</g>
<!-- Node1&#45;&gt;Node7 -->
<g id="edge14" class="edge"><title>Node1&#45;&gt;Node7</title>
<path fill="none" stroke="midnightblue" d="M178.083,-97.8411C308.092,-99.0159 542.027,-101.13 666.249,-102.252"/>
<polygon fill="midnightblue" stroke="midnightblue" points="177.785,-94.3384 167.754,-97.7478 177.721,-101.338 177.785,-94.3384"/>
</g>
<!-- Node9 -->
<g id="node9" class="node"><title>Node9</title>
<g id="a_node9"><a xlink:href="classrepo_1_1programs_1_1pythonpackages_1_1pr_1_1SPDataSet_1_1SPDataSet.html#a5aad808c592bfdbb665105df2947610f" target="_top" xlink:title="repo.programs.pythonpackages.pr.\lSPDataSet.SPDataSet.viewCorrelationFilt">
<polygon fill="white" stroke="black" points="648.5,-39 648.5,-69 851.5,-69 851.5,-39 648.5,-39"/>
<text text-anchor="start" x="656.5" y="-57" font-family="Helvetica,sans-Serif" font-size="10.00">repo.programs.pythonpackages.pr.</text>
<text text-anchor="middle" x="750" y="-46" font-family="Helvetica,sans-Serif" font-size="10.00">SPDataSet.SPDataSet.viewCorrelationFilt</text>
</a>
</g>
</g>
<!-- Node1&#45;&gt;Node9 -->
<g id="edge15" class="edge"><title>Node1&#45;&gt;Node9</title>
<path fill="none" stroke="midnightblue" d="M177.982,-90.9786C301.97,-82.9493 520.609,-68.7904 648.36,-60.5174"/>
<polygon fill="midnightblue" stroke="midnightblue" points="177.506,-87.502 167.754,-91.641 177.959,-94.4873 177.506,-87.502"/>
</g>
<!-- Node11 -->
<g id="node11" class="node"><title>Node11</title>
<g id="a_node11"><a xlink:href="classrepo_1_1programs_1_1pythonpackages_1_1pr_1_1SPDataSet_1_1SPDataSet.html#a2ffa7a6de1e0ebd8172db800621eed20" target="_top" xlink:title="repo.programs.pythonpackages.pr.\lSPDataSet.SPDataSet.test_div">
<polygon fill="white" stroke="black" points="214.5,-0 214.5,-30 381.5,-30 381.5,-0 214.5,-0"/>
<text text-anchor="start" x="222.5" y="-18" font-family="Helvetica,sans-Serif" font-size="10.00">repo.programs.pythonpackages.pr.</text>
<text text-anchor="middle" x="298" y="-7" font-family="Helvetica,sans-Serif" font-size="10.00">SPDataSet.SPDataSet.test_div</text>
</a>
</g>
</g>
<!-- Node1&#45;&gt;Node11 -->
<g id="edge16" class="edge"><title>Node1&#45;&gt;Node11</title>
<path fill="none" stroke="midnightblue" d="M126.297,-77.7409C149.002,-67.4611 177.802,-54.921 204,-45 217.803,-39.7729 232.965,-34.6337 246.969,-30.1265"/>
<polygon fill="midnightblue" stroke="midnightblue" points="124.613,-74.6619 116.965,-81.9939 127.516,-81.0316 124.613,-74.6619"/>
</g>
<!-- Node2&#45;&gt;Node3 -->
<g id="edge2" class="edge"><title>Node2&#45;&gt;Node3</title>
<path fill="none" stroke="midnightblue" d="M401.822,-172.457C410.512,-171.904 419.261,-171.347 427.852,-170.8"/>
<polygon fill="midnightblue" stroke="midnightblue" points="401.42,-168.975 391.662,-173.103 401.864,-175.961 401.42,-168.975"/>
</g>
<!-- Node3&#45;&gt;Node3 -->
<g id="edge3" class="edge"><title>Node3&#45;&gt;Node3</title>
<path fill="none" stroke="midnightblue" d="M481.142,-190.598C486.452,-194.97 499.404,-198 520,-198 554.688,-198 567.695,-189.406 559.023,-180.275"/>
<polygon fill="midnightblue" stroke="midnightblue" points="484.636,-190.218 480.977,-180.275 477.637,-190.33 484.636,-190.218"/>
</g>
<!-- Node4 -->
<g id="node4" class="node"><title>Node4</title>
<g id="a_node4"><a xlink:href="classrepo_1_1programs_1_1pythonpackages_1_1pr_1_1SPDataSet_1_1SPDataSet.html#ac0df54b82a9e993d707f0dafd87a19dd" target="_top" xlink:title="repo.programs.pythonpackages.pr.\lSPDataSet.SPDataSet.labAmp">
<polygon fill="white" stroke="black" points="666.5,-137 666.5,-167 833.5,-167 833.5,-137 666.5,-137"/>
<text text-anchor="start" x="674.5" y="-155" font-family="Helvetica,sans-Serif" font-size="10.00">repo.programs.pythonpackages.pr.</text>
<text text-anchor="middle" x="750" y="-144" font-family="Helvetica,sans-Serif" font-size="10.00">SPDataSet.SPDataSet.labAmp</text>
</a>
</g>
</g>
<!-- Node3&#45;&gt;Node4 -->
<g id="edge4" class="edge"><title>Node3&#45;&gt;Node4</title>
<path fill="none" stroke="midnightblue" d="M622.212,-159.229C636.91,-158.391 651.895,-157.537 666.173,-156.723"/>
<polygon fill="midnightblue" stroke="midnightblue" points="621.879,-155.742 612.095,-159.806 622.278,-162.731 621.879,-155.742"/>
</g>
<!-- Node5 -->
<g id="node5" class="node"><title>Node5</title>
<g id="a_node5"><a xlink:href="classrepo_1_1programs_1_1pythonpackages_1_1pr_1_1SPDataSet_1_1SPDataSet.html#a3624263a6738178d243635889b719a90" target="_top" xlink:title="repo.programs.pythonpackages.pr.\lSPDataSet.SPDataSet.viewSid">
<polygon fill="white" stroke="black" points="893.5,-181 893.5,-211 1060.5,-211 1060.5,-181 893.5,-181"/>
<text text-anchor="start" x="901.5" y="-199" font-family="Helvetica,sans-Serif" font-size="10.00">repo.programs.pythonpackages.pr.</text>
<text text-anchor="middle" x="977" y="-188" font-family="Helvetica,sans-Serif" font-size="10.00">SPDataSet.SPDataSet.viewSid</text>
</a>
</g>
</g>
<!-- Node3&#45;&gt;Node5 -->
<g id="edge10" class="edge"><title>Node3&#45;&gt;Node5</title>
<path fill="none" stroke="midnightblue" d="M622.373,-174.013C631.039,-174.713 639.672,-175.386 648,-176 731.494,-182.16 827.047,-187.83 893.396,-191.547"/>
<polygon fill="midnightblue" stroke="midnightblue" points="622.453,-170.508 612.201,-173.181 621.882,-177.485 622.453,-170.508"/>
</g>
<!-- Node6 -->
<g id="node6" class="node"><title>Node6</title>
<g id="a_node6"><a xlink:href="classrepo_1_1programs_1_1pythonpackages_1_1pr_1_1SPDataSet_1_1SPDataSet.html#acf495c99c803a2a1e23cdaeae34da985" target="_top" xlink:title="repo.programs.pythonpackages.pr.\lSPDataSet.SPDataSet.sidAmp">
<polygon fill="white" stroke="black" points="666.5,-274 666.5,-304 833.5,-304 833.5,-274 666.5,-274"/>
<text text-anchor="start" x="674.5" y="-292" font-family="Helvetica,sans-Serif" font-size="10.00">repo.programs.pythonpackages.pr.</text>
<text text-anchor="middle" x="750" y="-281" font-family="Helvetica,sans-Serif" font-size="10.00">SPDataSet.SPDataSet.sidAmp</text>
</a>
</g>
</g>
<!-- Node3&#45;&gt;Node6 -->
<g id="edge6" class="edge"><title>Node3&#45;&gt;Node6</title>
<path fill="none" stroke="midnightblue" d="M543.443,-187.352C567.368,-209.936 607.337,-244.238 648,-264 655.961,-267.869 664.575,-271.173 673.299,-273.986"/>
<polygon fill="midnightblue" stroke="midnightblue" points="545.606,-184.576 535.967,-180.179 540.76,-189.628 545.606,-184.576"/>
</g>
<!-- Node3&#45;&gt;Node7 -->
<g id="edge8" class="edge"><title>Node3&#45;&gt;Node7</title>
<path fill="none" stroke="midnightblue" d="M580.762,-147.044C601.945,-140.824 625.985,-133.929 648,-128 660.471,-124.641 673.855,-121.209 686.668,-118.005"/>
<polygon fill="midnightblue" stroke="midnightblue" points="579.534,-143.757 570.932,-149.942 581.514,-150.471 579.534,-143.757"/>
</g>
<!-- Node3&#45;&gt;Node9 -->
<g id="edge11" class="edge"><title>Node3&#45;&gt;Node9</title>
<path fill="none" stroke="midnightblue" d="M546.792,-143.488C571.369,-124.01 610.138,-95.8602 648,-79 656.581,-75.1789 665.843,-71.8786 675.156,-69.0452"/>
<polygon fill="midnightblue" stroke="midnightblue" points="544.314,-140.989 538.715,-149.983 548.701,-146.444 544.314,-140.989"/>
</g>
<!-- Node10 -->
<g id="node10" class="node"><title>Node10</title>
<g id="a_node10"><a xlink:href="classrepo_1_1programs_1_1pythonpackages_1_1pr_1_1SPDataSet_1_1SPDataSet.html#a5ad35e931371981e41221502928547d5" target="_top" xlink:title="Check that the calculated apparatus directions fit with the available data. ">
<polygon fill="white" stroke="black" points="654,-225 654,-255 846,-255 846,-225 654,-225"/>
<text text-anchor="start" x="662" y="-243" font-family="Helvetica,sans-Serif" font-size="10.00">repo.programs.pythonpackages.pr.</text>
<text text-anchor="middle" x="750" y="-232" font-family="Helvetica,sans-Serif" font-size="10.00">SPDataSet.SPDataSet.checkDirections</text>
</a>
</g>
</g>
<!-- Node3&#45;&gt;Node10 -->
<g id="edge12" class="edge"><title>Node3&#45;&gt;Node10</title>
<path fill="none" stroke="midnightblue" d="M571.356,-183.518C594.592,-191.889 622.601,-201.734 648,-210 663.655,-215.095 680.785,-220.315 696.419,-224.943"/>
<polygon fill="midnightblue" stroke="midnightblue" points="572.305,-180.14 561.711,-180.03 569.925,-186.722 572.305,-180.14"/>
</g>
<!-- Node4&#45;&gt;Node5 -->
<g id="edge5" class="edge"><title>Node4&#45;&gt;Node5</title>
<path fill="none" stroke="midnightblue" d="M837.644,-168.944C857.909,-172.907 879.357,-177.101 899.161,-180.974"/>
<polygon fill="midnightblue" stroke="midnightblue" points="838.289,-165.504 827.803,-167.019 836.945,-172.373 838.289,-165.504"/>
</g>
<!-- Node6&#45;&gt;Node5 -->
<g id="edge7" class="edge"><title>Node6&#45;&gt;Node5</title>
<path fill="none" stroke="midnightblue" d="M831.435,-271.117C838.464,-268.945 845.406,-266.574 852,-264 888.824,-249.627 928.375,-226.437 952.658,-211.205"/>
<polygon fill="midnightblue" stroke="midnightblue" points="830.421,-267.766 821.821,-273.953 832.402,-274.48 830.421,-267.766"/>
</g>
<!-- Node8 -->
<g id="node8" class="node"><title>Node8</title>
<g id="a_node8"><a xlink:href="classrepo_1_1programs_1_1pythonpackages_1_1pr_1_1SPDataSet_1_1SPDataSet.html#a0c87af10688edd55eb0aea229e5979bb" target="_top" xlink:title="repo.programs.pythonpackages.pr.\lSPDataSet.SPDataSet.viewSensors">
<polygon fill="white" stroke="black" points="888,-88 888,-118 1066,-118 1066,-88 888,-88"/>
<text text-anchor="start" x="896" y="-106" font-family="Helvetica,sans-Serif" font-size="10.00">repo.programs.pythonpackages.pr.</text>
<text text-anchor="middle" x="977" y="-95" font-family="Helvetica,sans-Serif" font-size="10.00">SPDataSet.SPDataSet.viewSensors</text>
</a>
</g>
</g>
<!-- Node7&#45;&gt;Node8 -->
<g id="edge9" class="edge"><title>Node7&#45;&gt;Node8</title>
<path fill="none" stroke="midnightblue" d="M843.551,-103C858.19,-103 873.293,-103 887.828,-103"/>
<polygon fill="midnightblue" stroke="midnightblue" points="843.504,-99.5001 833.504,-103 843.504,-106.5 843.504,-99.5001"/>
</g>
</g>
</svg>
