<?xml version="1.0" encoding="UTF-8" standalone="no"?>
<!DOCTYPE svg PUBLIC "-//W3C//DTD SVG 1.1//EN"
 "http://www.w3.org/Graphics/SVG/1.1/DTD/svg11.dtd">
<!-- Generated by graphviz version 2.36.0 (20140111.2315)
 -->
<!-- Title: repo.programs.pythonpackages.pr.SPDataSet.SPDataSet Pages: 1 -->
<svg width="174pt" height="108pt"
 viewBox="0.00 0.00 174.00 108.00" xmlns="http://www.w3.org/2000/svg" xmlns:xlink="http://www.w3.org/1999/xlink">
<g id="graph0" class="graph" transform="scale(1 1) rotate(0) translate(4 104)">
<title>repo.programs.pythonpackages.pr.SPDataSet.SPDataSet</title>
<polygon fill="white" stroke="none" points="-4,4 -4,-104 170,-104 170,4 -4,4"/>
<!-- Node1 -->
<g id="node1" class="node"><title>Node1</title>
<polygon fill="#bfbfbf" stroke="black" points="-0.5,-1 -0.5,-31 166.5,-31 166.5,-1 -0.5,-1"/>
<text text-anchor="start" x="7.5" y="-19" font-family="Helvetica,sans-Serif" font-size="10.00">repo.programs.pythonpackages.pr.</text>
<text text-anchor="middle" x="83" y="-8" font-family="Helvetica,sans-Serif" font-size="10.00">SPDataSet.SPDataSet</text>
</g>
<!-- Node2 -->
<g id="node2" class="node"><title>Node2</title>
<g id="a_node2"><a xlink:href="classobject.html" target="_top" xlink:title="object">
<polygon fill="white" stroke="black" points="27.5,-80.5 27.5,-99.5 70.5,-99.5 70.5,-80.5 27.5,-80.5"/>
<text text-anchor="middle" x="49" y="-87.5" font-family="Helvetica,sans-Serif" font-size="10.00">object</text>
</a>
</g>
</g>
<!-- Node2&#45;&gt;Node1 -->
<g id="edge1" class="edge"><title>Node2&#45;&gt;Node1</title>
<path fill="none" stroke="midnightblue" d="M57.4038,-71.2038C63.2226,-58.8816 70.8649,-42.6978 76.2795,-31.2316"/>
<polygon fill="midnightblue" stroke="midnightblue" points="54.139,-69.9209 53.0338,-80.4579 60.4688,-72.91 54.139,-69.9209"/>
</g>
<!-- Node3 -->
<g id="node3" class="node"><title>Node3</title>
<polygon fill="white" stroke="#bfbfbf" points="88.5,-80.5 88.5,-99.5 147.5,-99.5 147.5,-80.5 88.5,-80.5"/>
<text text-anchor="middle" x="118" y="-87.5" font-family="Helvetica,sans-Serif" font-size="10.00">dictionary</text>
</g>
<!-- Node3&#45;&gt;Node1 -->
<g id="edge2" class="edge"><title>Node3&#45;&gt;Node1</title>
<path fill="none" stroke="#9a32cd" stroke-dasharray="5,2" d="M109.349,-71.2038C103.359,-58.8816 95.492,-42.6978 89.9181,-31.2316"/>
<polygon fill="#9a32cd" stroke="#9a32cd" points="106.328,-72.9944 113.848,-80.4579 112.623,-69.934 106.328,-72.9944"/>
<text text-anchor="middle" x="129.5" y="-53.5" font-family="Helvetica,sans-Serif" font-size="10.00"> setNameD</text>
</g>
</g>
</svg>
