<?xml version="1.0" encoding="UTF-8" standalone="no"?>
<!DOCTYPE svg PUBLIC "-//W3C//DTD SVG 1.1//EN"
 "http://www.w3.org/Graphics/SVG/1.1/DTD/svg11.dtd">
<!-- Generated by graphviz version 2.36.0 (20140111.2315)
 -->
<!-- Title: repo.programs.pythonpackages.pr.SPDataSet.SPDataSet.calArr Pages: 1 -->
<!--zoomable 393 -->
<svg id="main" version="1.1" xmlns="http://www.w3.org/2000/svg" xmlns:xlink="http://www.w3.org/1999/xlink" xml:space="preserve" onload="init(evt)">
<style type="text/css"><![CDATA[
.edge:hover path { stroke: red; }
.edge:hover polygon { stroke: red; fill: red; }
]]></style>
<script type="text/javascript"><![CDATA[
var edges = document.getElementsByTagName('g');
if (edges && edges.length) {
  for (var i=0;i<edges.length;i++) {
    if (edges[i].id.substr(0,4)=='edge') {
      edges[i].setAttribute('class','edge');
    }
  }
}
]]></script>
        <defs>
                <circle id="rim" cx="0" cy="0" r="7"/>
                <circle id="rim2" cx="0" cy="0" r="3.5"/>
                <g id="zoomPlus">
                        <use xlink:href="#rim" fill="#404040">
                                <set attributeName="fill" to="#808080" begin="zoomplus.mouseover" end="zoomplus.mouseout"/>
                        </use>
                        <path d="M-4,0h8M0,-4v8" fill="none" stroke="white" stroke-width="1.5" pointer-events="none"/>
                </g>
                <g id="zoomMin">
                        <use xlink:href="#rim" fill="#404040">
                                <set attributeName="fill" to="#808080" begin="zoomminus.mouseover" end="zoomminus.mouseout"/>
                        </use>
                        <path d="M-4,0h8" fill="none" stroke="white" stroke-width="1.5" pointer-events="none"/>
                </g>
                <g id="dirArrow">
                        <path fill="none" stroke="white" stroke-width="1.5" d="M0,-3.0v7 M-2.5,-0.5L0,-3.0L2.5,-0.5"/>
                </g>
               <g id="resetDef">
                       <use xlink:href="#rim2" fill="#404040">
                               <set attributeName="fill" to="#808080" begin="reset.mouseover" end="reset.mouseout"/>
                       </use>
               </g>
        </defs>

<script type="text/javascript">
var viewWidth = 2140;
var viewHeight = 393;
var sectionId = 'dynsection-6';
</script>
<script xlink:href="svgpan.js"/>
<svg id="graph" class="graph">
<g id="viewport">
<title>repo.programs.pythonpackages.pr.SPDataSet.SPDataSet.calArr</title>
<polygon fill="white" stroke="none" points="-4,4 -4,-388.81 2136,-388.81 2136,4 -4,4"/>
<!-- Node1 -->
<g id="node1" class="node"><title>Node1</title>
<polygon fill="#bfbfbf" stroke="black" points="0.5,-140 0.5,-170 167.5,-170 167.5,-140 0.5,-140"/>
<text text-anchor="start" x="8.5" y="-158" font-family="Helvetica,sans-Serif" font-size="10.00">repo.programs.pythonpackages.pr.</text>
<text text-anchor="middle" x="84" y="-147" font-family="Helvetica,sans-Serif" font-size="10.00">SPDataSet.SPDataSet.calArr</text>
</g>
<!-- Node2 -->
<g id="node2" class="node"><title>Node2</title>
<g id="a_node2"><a xlink:href="classrepo_1_1programs_1_1pythonpackages_1_1pr_1_1SPDataSet_1_1SPDataSet.html#aa400ad81219e782fe2e29e852b20bb28" target="_top" xlink:title="repo.programs.pythonpackages.pr.\lSPDataSet.SPDataSet.fastD">
<polygon fill="white" stroke="black" points="204.5,-140 204.5,-170 371.5,-170 371.5,-140 204.5,-140"/>
<text text-anchor="start" x="212.5" y="-158" font-family="Helvetica,sans-Serif" font-size="10.00">repo.programs.pythonpackages.pr.</text>
<text text-anchor="middle" x="288" y="-147" font-family="Helvetica,sans-Serif" font-size="10.00">SPDataSet.SPDataSet.fastD</text>
</a>
</g>
</g>
<!-- Node1&#45;&gt;Node2 -->
<g id="edge1" class="edge"><title>Node1&#45;&gt;Node2</title>
<path fill="none" stroke="midnightblue" d="M178.018,-155C186.815,-155 195.694,-155 204.385,-155"/>
<polygon fill="midnightblue" stroke="midnightblue" points="177.744,-151.5 167.744,-155 177.744,-158.5 177.744,-151.5"/>
</g>
<!-- Node3 -->
<g id="node3" class="node"><title>Node3</title>
<g id="a_node3"><a xlink:href="classrepo_1_1programs_1_1pythonpackages_1_1pr_1_1SPDataSet_1_1SPDataSet.html#a0e6950849790e5787695a807f45b0d51" target="_top" xlink:title="repo.programs.pythonpackages.pr.\lSPDataSet.SPDataSet.tRange">
<polygon fill="white" stroke="black" points="408.5,-189 408.5,-219 575.5,-219 575.5,-189 408.5,-189"/>
<text text-anchor="start" x="416.5" y="-207" font-family="Helvetica,sans-Serif" font-size="10.00">repo.programs.pythonpackages.pr.</text>
<text text-anchor="middle" x="492" y="-196" font-family="Helvetica,sans-Serif" font-size="10.00">SPDataSet.SPDataSet.tRange</text>
</a>
</g>
</g>
<!-- Node2&#45;&gt;Node3 -->
<g id="edge2" class="edge"><title>Node2&#45;&gt;Node3</title>
<path fill="none" stroke="midnightblue" d="M360.746,-172.404C383.092,-177.824 407.529,-183.752 429.138,-188.994"/>
<polygon fill="midnightblue" stroke="midnightblue" points="361.523,-168.991 350.979,-170.035 359.872,-175.793 361.523,-168.991"/>
</g>
<!-- Node4 -->
<g id="node4" class="node"><title>Node4</title>
<g id="a_node4"><a xlink:href="classrepo_1_1programs_1_1pythonpackages_1_1pr_1_1SPDataSet_1_1SPDataSet.html#a14656e508d81193e8c71c09d9444e15f" target="_top" xlink:title="repo.programs.pythonpackages.pr.\lSPDataSet.SPDataSet.trigTimes">
<polygon fill="white" stroke="black" points="625.5,-17 625.5,-47 792.5,-47 792.5,-17 625.5,-17"/>
<text text-anchor="start" x="633.5" y="-35" font-family="Helvetica,sans-Serif" font-size="10.00">repo.programs.pythonpackages.pr.</text>
<text text-anchor="middle" x="709" y="-24" font-family="Helvetica,sans-Serif" font-size="10.00">SPDataSet.SPDataSet.trigTimes</text>
</a>
</g>
</g>
<!-- Node2&#45;&gt;Node4 -->
<g id="edge3" class="edge"><title>Node2&#45;&gt;Node4</title>
<path fill="none" stroke="midnightblue" d="M350.16,-137.046C433.036,-112.717 579.512,-69.7183 656.858,-47.013"/>
<polygon fill="midnightblue" stroke="midnightblue" points="348.987,-133.743 340.378,-139.918 350.959,-140.459 348.987,-133.743"/>
</g>
<!-- Node18 -->
<g id="node18" class="node"><title>Node18</title>
<g id="a_node18"><a xlink:href="classrepo_1_1programs_1_1pythonpackages_1_1pr_1_1SPDataSet_1_1SPDataSet.html#afe54eeb9f41f503dc478557e4ea2c62a" target="_top" xlink:title="repo.programs.pythonpackages.pr.\lSPDataSet.SPDataSet.rawData">
<polygon fill="white" stroke="black" points="408.5,-140 408.5,-170 575.5,-170 575.5,-140 408.5,-140"/>
<text text-anchor="start" x="416.5" y="-158" font-family="Helvetica,sans-Serif" font-size="10.00">repo.programs.pythonpackages.pr.</text>
<text text-anchor="middle" x="492" y="-147" font-family="Helvetica,sans-Serif" font-size="10.00">SPDataSet.SPDataSet.rawData</text>
</a>
</g>
</g>
<!-- Node2&#45;&gt;Node18 -->
<g id="edge27" class="edge"><title>Node2&#45;&gt;Node18</title>
<path fill="none" stroke="midnightblue" d="M382.018,-155C390.815,-155 399.694,-155 408.385,-155"/>
<polygon fill="midnightblue" stroke="midnightblue" points="381.744,-151.5 371.744,-155 381.744,-158.5 381.744,-151.5"/>
</g>
<!-- Node5 -->
<g id="node5" class="node"><title>Node5</title>
<g id="a_node5"><a xlink:href="classrepo_1_1programs_1_1pythonpackages_1_1pr_1_1SPDataSet_1_1SPDataSet.html#a5b12a3d9fdb93ccbf79a6b7a7893be3f" target="_top" xlink:title="repo.programs.pythonpackages.pr.\lSPDataSet.SPDataSet.cutAmp">
<polygon fill="white" stroke="black" points="852.5,-192 852.5,-222 1019.5,-222 1019.5,-192 852.5,-192"/>
<text text-anchor="start" x="860.5" y="-210" font-family="Helvetica,sans-Serif" font-size="10.00">repo.programs.pythonpackages.pr.</text>
<text text-anchor="middle" x="936" y="-199" font-family="Helvetica,sans-Serif" font-size="10.00">SPDataSet.SPDataSet.cutAmp</text>
</a>
</g>
</g>
<!-- Node4&#45;&gt;Node5 -->
<g id="edge4" class="edge"><title>Node4&#45;&gt;Node5</title>
<path fill="none" stroke="midnightblue" d="M724.6,-56.0792C746.104,-89.4631 789.478,-149.373 842,-182 848.249,-185.882 855.097,-189.168 862.154,-191.948"/>
<polygon fill="midnightblue" stroke="midnightblue" points="727.424,-53.9971 719.125,-47.4113 721.506,-57.7352 727.424,-53.9971"/>
</g>
<!-- Node14 -->
<g id="node14" class="node"><title>Node14</title>
<g id="a_node14"><a xlink:href="classrepo_1_1programs_1_1pythonpackages_1_1pr_1_1SPDataSet_1_1SPDataSet.html#a5ad35e931371981e41221502928547d5" target="_top" xlink:title="Check that the calculated apparatus directions fit with the available data. ">
<polygon fill="white" stroke="black" points="1720,-60 1720,-90 1912,-90 1912,-60 1720,-60"/>
<text text-anchor="start" x="1728" y="-78" font-family="Helvetica,sans-Serif" font-size="10.00">repo.programs.pythonpackages.pr.</text>
<text text-anchor="middle" x="1816" y="-67" font-family="Helvetica,sans-Serif" font-size="10.00">SPDataSet.SPDataSet.checkDirections</text>
</a>
</g>
</g>
<!-- Node4&#45;&gt;Node14 -->
<g id="edge26" class="edge"><title>Node4&#45;&gt;Node14</title>
<path fill="none" stroke="midnightblue" d="M802.845,-21.2929C891.601,-11.9913 1029.25,-0 1149,-0 1149,-0 1149,-0 1365,-0 1509.35,-0 1676.24,-38.0116 1760.42,-59.9129"/>
<polygon fill="midnightblue" stroke="midnightblue" points="802.38,-17.8224 792.804,-22.3555 803.117,-24.7835 802.38,-17.8224"/>
</g>
<!-- Node17 -->
<g id="node17" class="node"><title>Node17</title>
<g id="a_node17"><a xlink:href="classrepo_1_1programs_1_1pythonpackages_1_1pr_1_1SPDataSet_1_1SPDataSet.html#a5343a59b34ffebfc31c1dfd06ddfa889" target="_top" xlink:title="repo.programs.pythonpackages.pr.\lSPDataSet.SPDataSet.viewRaw">
<polygon fill="white" stroke="black" points="1066.5,-104 1066.5,-134 1233.5,-134 1233.5,-104 1066.5,-104"/>
<text text-anchor="start" x="1074.5" y="-122" font-family="Helvetica,sans-Serif" font-size="10.00">repo.programs.pythonpackages.pr.</text>
<text text-anchor="middle" x="1150" y="-111" font-family="Helvetica,sans-Serif" font-size="10.00">SPDataSet.SPDataSet.viewRaw</text>
</a>
</g>
</g>
<!-- Node4&#45;&gt;Node17 -->
<g id="edge25" class="edge"><title>Node4&#45;&gt;Node17</title>
<path fill="none" stroke="midnightblue" d="M796.096,-49.0624C876.747,-65.0456 996.108,-88.7003 1073.23,-103.984"/>
<polygon fill="midnightblue" stroke="midnightblue" points="796.456,-45.5657 785.967,-47.0549 795.096,-52.4322 796.456,-45.5657"/>
</g>
<!-- Node5&#45;&gt;Node5 -->
<g id="edge5" class="edge"><title>Node5&#45;&gt;Node5</title>
<path fill="none" stroke="midnightblue" d="M898.542,-232.598C903.66,-236.97 916.146,-240 936,-240 969.438,-240 981.977,-231.406 973.617,-222.275"/>
<polygon fill="midnightblue" stroke="midnightblue" points="902.037,-232.22 898.383,-222.275 895.038,-232.328 902.037,-232.22"/>
</g>
<!-- Node6 -->
<g id="node6" class="node"><title>Node6</title>
<g id="a_node6"><a xlink:href="classrepo_1_1programs_1_1pythonpackages_1_1pr_1_1SPDataSet_1_1SPDataSet.html#a9eac955cac12a62b72d189aa80b82ec6" target="_top" xlink:title="repo.programs.pythonpackages.pr.\lSPDataSet.SPDataSet.filteredCutAmp">
<polygon fill="white" stroke="black" points="1270.5,-192 1270.5,-222 1457.5,-222 1457.5,-192 1270.5,-192"/>
<text text-anchor="start" x="1278.5" y="-210" font-family="Helvetica,sans-Serif" font-size="10.00">repo.programs.pythonpackages.pr.</text>
<text text-anchor="middle" x="1364" y="-199" font-family="Helvetica,sans-Serif" font-size="10.00">SPDataSet.SPDataSet.filteredCutAmp</text>
</a>
</g>
</g>
<!-- Node5&#45;&gt;Node6 -->
<g id="edge6" class="edge"><title>Node5&#45;&gt;Node6</title>
<path fill="none" stroke="midnightblue" d="M1029.95,-207C1101.19,-207 1199.03,-207 1270.23,-207"/>
<polygon fill="midnightblue" stroke="midnightblue" points="1029.64,-203.5 1019.64,-207 1029.64,-210.5 1029.64,-203.5"/>
</g>
<!-- Node15 -->
<g id="node15" class="node"><title>Node15</title>
<g id="a_node15"><a xlink:href="classrepo_1_1programs_1_1pythonpackages_1_1pr_1_1SPDataSet_1_1SPDataSet.html#a6f2c3de2aa708d686f5835f10e2d096d" target="_top" xlink:title="repo.programs.pythonpackages.pr.\lSPDataSet.SPDataSet.pointAmp">
<polygon fill="white" stroke="black" points="1066.5,-274 1066.5,-304 1233.5,-304 1233.5,-274 1066.5,-274"/>
<text text-anchor="start" x="1074.5" y="-292" font-family="Helvetica,sans-Serif" font-size="10.00">repo.programs.pythonpackages.pr.</text>
<text text-anchor="middle" x="1150" y="-281" font-family="Helvetica,sans-Serif" font-size="10.00">SPDataSet.SPDataSet.pointAmp</text>
</a>
</g>
</g>
<!-- Node5&#45;&gt;Node15 -->
<g id="edge18" class="edge"><title>Node5&#45;&gt;Node15</title>
<path fill="none" stroke="midnightblue" d="M985.644,-225.815C1023.37,-240.407 1074.96,-260.364 1110,-273.917"/>
<polygon fill="midnightblue" stroke="midnightblue" points="986.473,-222.383 975.884,-222.04 983.948,-228.912 986.473,-222.383"/>
</g>
<!-- Node5&#45;&gt;Node17 -->
<g id="edge24" class="edge"><title>Node5&#45;&gt;Node17</title>
<path fill="none" stroke="midnightblue" d="M1010.45,-188.918C1017.13,-186.777 1023.73,-184.467 1030,-182 1063.94,-168.651 1100.7,-148.177 1124.25,-134.218"/>
<polygon fill="midnightblue" stroke="midnightblue" points="1009.18,-185.647 1000.65,-191.933 1011.24,-192.338 1009.18,-185.647"/>
</g>
<!-- Node7 -->
<g id="node7" class="node"><title>Node7</title>
<g id="a_node7"><a xlink:href="classrepo_1_1programs_1_1pythonpackages_1_1pr_1_1SPDataSet_1_1SPDataSet.html#accbfa0185d4e416038e688fc9b55575b" target="_top" xlink:title="repo.programs.pythonpackages.pr.\lSPDataSet.SPDataSet.sequenceAmp">
<polygon fill="white" stroke="black" points="1494,-192 1494,-222 1678,-222 1678,-192 1494,-192"/>
<text text-anchor="start" x="1502" y="-210" font-family="Helvetica,sans-Serif" font-size="10.00">repo.programs.pythonpackages.pr.</text>
<text text-anchor="middle" x="1586" y="-199" font-family="Helvetica,sans-Serif" font-size="10.00">SPDataSet.SPDataSet.sequenceAmp</text>
</a>
</g>
</g>
<!-- Node6&#45;&gt;Node7 -->
<g id="edge7" class="edge"><title>Node6&#45;&gt;Node7</title>
<path fill="none" stroke="midnightblue" d="M1467.82,-207C1476.51,-207 1485.26,-207 1493.85,-207"/>
<polygon fill="midnightblue" stroke="midnightblue" points="1467.66,-203.5 1457.66,-207 1467.66,-210.5 1467.66,-203.5"/>
</g>
<!-- Node7&#45;&gt;Node7 -->
<g id="edge8" class="edge"><title>Node7&#45;&gt;Node7</title>
<path fill="none" stroke="midnightblue" d="M1547.14,-232.598C1552.45,-236.97 1565.4,-240 1586,-240 1620.69,-240 1633.7,-231.406 1625.02,-222.275"/>
<polygon fill="midnightblue" stroke="midnightblue" points="1550.64,-232.218 1546.98,-222.275 1543.64,-232.33 1550.64,-232.218"/>
</g>
<!-- Node8 -->
<g id="node8" class="node"><title>Node8</title>
<g id="a_node8"><a xlink:href="classrepo_1_1programs_1_1pythonpackages_1_1pr_1_1SPDataSet_1_1SPDataSet.html#ac0df54b82a9e993d707f0dafd87a19dd" target="_top" xlink:title="repo.programs.pythonpackages.pr.\lSPDataSet.SPDataSet.labAmp">
<polygon fill="white" stroke="black" points="1732.5,-176 1732.5,-206 1899.5,-206 1899.5,-176 1732.5,-176"/>
<text text-anchor="start" x="1740.5" y="-194" font-family="Helvetica,sans-Serif" font-size="10.00">repo.programs.pythonpackages.pr.</text>
<text text-anchor="middle" x="1816" y="-183" font-family="Helvetica,sans-Serif" font-size="10.00">SPDataSet.SPDataSet.labAmp</text>
</a>
</g>
</g>
<!-- Node7&#45;&gt;Node8 -->
<g id="edge9" class="edge"><title>Node7&#45;&gt;Node8</title>
<path fill="none" stroke="midnightblue" d="M1688.21,-199.897C1702.91,-198.866 1717.89,-197.814 1732.17,-196.812"/>
<polygon fill="midnightblue" stroke="midnightblue" points="1687.83,-196.416 1678.09,-200.607 1688.32,-203.399 1687.83,-196.416"/>
</g>
<!-- Node9 -->
<g id="node9" class="node"><title>Node9</title>
<g id="a_node9"><a xlink:href="classrepo_1_1programs_1_1pythonpackages_1_1pr_1_1SPDataSet_1_1SPDataSet.html#a3624263a6738178d243635889b719a90" target="_top" xlink:title="repo.programs.pythonpackages.pr.\lSPDataSet.SPDataSet.viewSid">
<polygon fill="white" stroke="black" points="1959.5,-176 1959.5,-206 2126.5,-206 2126.5,-176 1959.5,-176"/>
<text text-anchor="start" x="1967.5" y="-194" font-family="Helvetica,sans-Serif" font-size="10.00">repo.programs.pythonpackages.pr.</text>
<text text-anchor="middle" x="2043" y="-183" font-family="Helvetica,sans-Serif" font-size="10.00">SPDataSet.SPDataSet.viewSid</text>
</a>
</g>
</g>
<!-- Node7&#45;&gt;Node9 -->
<g id="edge15" class="edge"><title>Node7&#45;&gt;Node9</title>
<path fill="none" stroke="midnightblue" d="M1632.69,-188.425C1656.49,-179.734 1686.34,-170.354 1714,-166 1803.56,-151.901 1827.78,-156.996 1918,-166 1938.32,-168.028 1960.24,-171.882 1979.92,-175.968"/>
<polygon fill="midnightblue" stroke="midnightblue" points="1631.36,-185.185 1623.21,-191.962 1633.81,-191.743 1631.36,-185.185"/>
</g>
<!-- Node10 -->
<g id="node10" class="node"><title>Node10</title>
<g id="a_node10"><a xlink:href="classrepo_1_1programs_1_1pythonpackages_1_1pr_1_1SPDataSet_1_1SPDataSet.html#acf495c99c803a2a1e23cdaeae34da985" target="_top" xlink:title="repo.programs.pythonpackages.pr.\lSPDataSet.SPDataSet.sidAmp">
<polygon fill="white" stroke="black" points="1732.5,-225 1732.5,-255 1899.5,-255 1899.5,-225 1732.5,-225"/>
<text text-anchor="start" x="1740.5" y="-243" font-family="Helvetica,sans-Serif" font-size="10.00">repo.programs.pythonpackages.pr.</text>
<text text-anchor="middle" x="1816" y="-232" font-family="Helvetica,sans-Serif" font-size="10.00">SPDataSet.SPDataSet.sidAmp</text>
</a>
</g>
</g>
<!-- Node7&#45;&gt;Node10 -->
<g id="edge11" class="edge"><title>Node7&#45;&gt;Node10</title>
<path fill="none" stroke="midnightblue" d="M1688.21,-221.649C1702.91,-223.776 1717.89,-225.945 1732.17,-228.012"/>
<polygon fill="midnightblue" stroke="midnightblue" points="1688.49,-218.153 1678.09,-220.185 1687.49,-225.081 1688.49,-218.153"/>
</g>
<!-- Node11 -->
<g id="node11" class="node"><title>Node11</title>
<g id="a_node11"><a xlink:href="classrepo_1_1programs_1_1pythonpackages_1_1pr_1_1SPDataSet_1_1SPDataSet.html#ac55c6ccc03634d3f670f52e89188779c" target="_top" xlink:title="repo.programs.pythonpackages.pr.\lSPDataSet.SPDataSet.viewSeq">
<polygon fill="white" stroke="black" points="1732.5,-274 1732.5,-304 1899.5,-304 1899.5,-274 1732.5,-274"/>
<text text-anchor="start" x="1740.5" y="-292" font-family="Helvetica,sans-Serif" font-size="10.00">repo.programs.pythonpackages.pr.</text>
<text text-anchor="middle" x="1816" y="-281" font-family="Helvetica,sans-Serif" font-size="10.00">SPDataSet.SPDataSet.viewSeq</text>
</a>
</g>
</g>
<!-- Node7&#45;&gt;Node11 -->
<g id="edge13" class="edge"><title>Node7&#45;&gt;Node11</title>
<path fill="none" stroke="midnightblue" d="M1625.49,-226.448C1650.3,-238.439 1683.51,-253.48 1714,-264 1724.59,-267.653 1735.97,-271.003 1747.14,-273.983"/>
<polygon fill="midnightblue" stroke="midnightblue" points="1626.93,-223.26 1616.41,-222.018 1623.86,-229.55 1626.93,-223.26"/>
</g>
<!-- Node13 -->
<g id="node13" class="node"><title>Node13</title>
<g id="a_node13"><a xlink:href="classrepo_1_1programs_1_1pythonpackages_1_1pr_1_1SPDataSet_1_1SPDataSet.html#a5aad808c592bfdbb665105df2947610f" target="_top" xlink:title="repo.programs.pythonpackages.pr.\lSPDataSet.SPDataSet.viewCorrelationFilt">
<polygon fill="white" stroke="black" points="1714.5,-342 1714.5,-372 1917.5,-372 1917.5,-342 1714.5,-342"/>
<text text-anchor="start" x="1722.5" y="-360" font-family="Helvetica,sans-Serif" font-size="10.00">repo.programs.pythonpackages.pr.</text>
<text text-anchor="middle" x="1816" y="-349" font-family="Helvetica,sans-Serif" font-size="10.00">SPDataSet.SPDataSet.viewCorrelationFilt</text>
</a>
</g>
</g>
<!-- Node7&#45;&gt;Node13 -->
<g id="edge16" class="edge"><title>Node7&#45;&gt;Node13</title>
<path fill="none" stroke="midnightblue" d="M1609.59,-229.312C1633.86,-252.413 1674.31,-288.492 1714,-313 1732.55,-324.456 1754.61,-334.434 1773.37,-341.979"/>
<polygon fill="midnightblue" stroke="midnightblue" points="1611.94,-226.71 1602.3,-222.299 1607.08,-231.754 1611.94,-226.71"/>
</g>
<!-- Node7&#45;&gt;Node14 -->
<g id="edge17" class="edge"><title>Node7&#45;&gt;Node14</title>
<path fill="none" stroke="midnightblue" d="M1621.67,-186.717C1647.19,-171.814 1682.72,-151.094 1714,-133 1739.2,-118.42 1768.01,-101.891 1788.39,-90.219"/>
<polygon fill="midnightblue" stroke="midnightblue" points="1619.62,-183.862 1612.76,-191.929 1623.16,-189.905 1619.62,-183.862"/>
</g>
<!-- Node8&#45;&gt;Node9 -->
<g id="edge10" class="edge"><title>Node8&#45;&gt;Node9</title>
<path fill="none" stroke="midnightblue" d="M1909.63,-191C1926.03,-191 1943.02,-191 1959.13,-191"/>
<polygon fill="midnightblue" stroke="midnightblue" points="1909.5,-187.5 1899.5,-191 1909.5,-194.5 1909.5,-187.5"/>
</g>
<!-- Node10&#45;&gt;Node9 -->
<g id="edge12" class="edge"><title>Node10&#45;&gt;Node9</title>
<path fill="none" stroke="midnightblue" d="M1895.91,-222.815C1921.07,-217.335 1948.7,-211.318 1973.09,-206.006"/>
<polygon fill="midnightblue" stroke="midnightblue" points="1895.06,-219.418 1886.04,-224.965 1896.55,-226.257 1895.06,-219.418"/>
</g>
<!-- Node12 -->
<g id="node12" class="node"><title>Node12</title>
<g id="a_node12"><a xlink:href="classrepo_1_1programs_1_1pythonpackages_1_1pr_1_1SPDataSet_1_1SPDataSet.html#a0c87af10688edd55eb0aea229e5979bb" target="_top" xlink:title="repo.programs.pythonpackages.pr.\lSPDataSet.SPDataSet.viewSensors">
<polygon fill="white" stroke="black" points="1954,-274 1954,-304 2132,-304 2132,-274 1954,-274"/>
<text text-anchor="start" x="1962" y="-292" font-family="Helvetica,sans-Serif" font-size="10.00">repo.programs.pythonpackages.pr.</text>
<text text-anchor="middle" x="2043" y="-281" font-family="Helvetica,sans-Serif" font-size="10.00">SPDataSet.SPDataSet.viewSensors</text>
</a>
</g>
</g>
<!-- Node11&#45;&gt;Node12 -->
<g id="edge14" class="edge"><title>Node11&#45;&gt;Node12</title>
<path fill="none" stroke="midnightblue" d="M1909.55,-289C1924.19,-289 1939.29,-289 1953.83,-289"/>
<polygon fill="midnightblue" stroke="midnightblue" points="1909.5,-285.5 1899.5,-289 1909.5,-292.5 1909.5,-285.5"/>
</g>
<!-- Node15&#45;&gt;Node6 -->
<g id="edge19" class="edge"><title>Node15&#45;&gt;Node6</title>
<path fill="none" stroke="midnightblue" d="M1192.3,-269.741C1215,-259.461 1243.8,-246.921 1270,-237 1283.8,-231.773 1298.97,-226.634 1312.97,-222.126"/>
<polygon fill="midnightblue" stroke="midnightblue" points="1190.61,-266.662 1182.97,-273.994 1193.52,-273.032 1190.61,-266.662"/>
</g>
<!-- Node15&#45;&gt;Node7 -->
<g id="edge20" class="edge"><title>Node15&#45;&gt;Node7</title>
<path fill="none" stroke="midnightblue" d="M1240.9,-272.015C1318.91,-257.276 1430.76,-236.143 1505.54,-222.014"/>
<polygon fill="midnightblue" stroke="midnightblue" points="1239.78,-268.664 1230.6,-273.96 1241.08,-275.542 1239.78,-268.664"/>
</g>
<!-- Node15&#45;&gt;Node11 -->
<g id="edge21" class="edge"><title>Node15&#45;&gt;Node11</title>
<path fill="none" stroke="midnightblue" d="M1244.08,-289C1374.09,-289 1608.03,-289 1732.25,-289"/>
<polygon fill="midnightblue" stroke="midnightblue" points="1243.75,-285.5 1233.75,-289 1243.75,-292.5 1243.75,-285.5"/>
</g>
<!-- Node15&#45;&gt;Node13 -->
<g id="edge22" class="edge"><title>Node15&#45;&gt;Node13</title>
<path fill="none" stroke="midnightblue" d="M1178.46,-310.243C1201.47,-326.622 1235.94,-347.956 1270,-357 1421.58,-397.253 1605.34,-385.382 1716.07,-372.008"/>
<polygon fill="midnightblue" stroke="midnightblue" points="1180.37,-307.303 1170.22,-304.244 1176.24,-312.961 1180.37,-307.303"/>
</g>
<!-- Node16 -->
<g id="node16" class="node"><title>Node16</title>
<g id="a_node16"><a xlink:href="classrepo_1_1programs_1_1pythonpackages_1_1pr_1_1SPDataSet_1_1SPDataSet.html#a2ffa7a6de1e0ebd8172db800621eed20" target="_top" xlink:title="repo.programs.pythonpackages.pr.\lSPDataSet.SPDataSet.test_div">
<polygon fill="white" stroke="black" points="1280.5,-318 1280.5,-348 1447.5,-348 1447.5,-318 1280.5,-318"/>
<text text-anchor="start" x="1288.5" y="-336" font-family="Helvetica,sans-Serif" font-size="10.00">repo.programs.pythonpackages.pr.</text>
<text text-anchor="middle" x="1364" y="-325" font-family="Helvetica,sans-Serif" font-size="10.00">SPDataSet.SPDataSet.test_div</text>
</a>
</g>
</g>
<!-- Node15&#45;&gt;Node16 -->
<g id="edge23" class="edge"><title>Node15&#45;&gt;Node16</title>
<path fill="none" stroke="midnightblue" d="M1233.16,-306.052C1252.1,-309.983 1272.11,-314.136 1290.6,-317.974"/>
<polygon fill="midnightblue" stroke="midnightblue" points="1233.87,-302.625 1223.37,-304.019 1232.45,-309.478 1233.87,-302.625"/>
</g>
<!-- Node18&#45;&gt;Node4 -->
<g id="edge28" class="edge"><title>Node18&#45;&gt;Node4</title>
<path fill="none" stroke="midnightblue" d="M518.876,-132.985C547.627,-108.853 592.557,-72.1994 612,-62 623.211,-56.119 635.771,-51.1629 648.018,-47.0795"/>
<polygon fill="midnightblue" stroke="midnightblue" points="516.266,-130.607 510.875,-139.728 520.777,-135.96 516.266,-130.607"/>
</g>
<!-- Node18&#45;&gt;Node5 -->
<g id="edge32" class="edge"><title>Node18&#45;&gt;Node5</title>
<path fill="none" stroke="midnightblue" d="M585.603,-167.659C594.521,-168.815 603.431,-169.947 612,-171 693.623,-181.035 787.002,-191.312 852.294,-198.304"/>
<polygon fill="midnightblue" stroke="midnightblue" points="585.919,-164.17 575.55,-166.345 585.012,-171.111 585.919,-164.17"/>
</g>
<!-- Node18&#45;&gt;Node14 -->
<g id="edge37" class="edge"><title>Node18&#45;&gt;Node14</title>
<path fill="none" stroke="midnightblue" d="M574.241,-138.094C586.846,-135.82 599.747,-133.692 612,-132 1021.33,-75.4792 1515.59,-72.2547 1719.72,-73.7231"/>
<polygon fill="midnightblue" stroke="midnightblue" points="573.413,-134.687 564.214,-139.943 574.683,-141.571 573.413,-134.687"/>
</g>
<!-- Node18&#45;&gt;Node15 -->
<g id="edge35" class="edge"><title>Node18&#45;&gt;Node15</title>
<path fill="none" stroke="midnightblue" d="M571.768,-175.606C573.229,-176.681 574.642,-177.811 576,-179 605.942,-205.224 580.515,-236.65 612,-261 755.818,-372.227 991.596,-330.428 1096.19,-304.06"/>
<polygon fill="midnightblue" stroke="midnightblue" points="573.266,-172.413 562.94,-170.043 569.534,-178.336 573.266,-172.413"/>
</g>
<!-- Node18&#45;&gt;Node17 -->
<g id="edge36" class="edge"><title>Node18&#45;&gt;Node17</title>
<path fill="none" stroke="midnightblue" d="M585.991,-148.697C656.287,-144.04 755.186,-137.715 842,-133 917.918,-128.876 1004.44,-125.006 1066.24,-122.384"/>
<polygon fill="midnightblue" stroke="midnightblue" points="585.577,-145.217 575.831,-149.372 586.041,-152.201 585.577,-145.217"/>
</g>
<!-- Node19 -->
<g id="node19" class="node"><title>Node19</title>
<g id="a_node19"><a xlink:href="classrepo_1_1programs_1_1pythonpackages_1_1pr_1_1SPDataSet_1_1SPDataSet.html#aa0b687b3c937bfb4aa71c4a09cac5eb5" target="_top" xlink:title="Names should be of the form &quot;med:Total Position Sensor 1&quot; etc. ">
<polygon fill="white" stroke="black" points="612,-222 612,-252 806,-252 806,-222 612,-222"/>
<text text-anchor="start" x="620" y="-240" font-family="Helvetica,sans-Serif" font-size="10.00">repo.programs.pythonpackages.pr.</text>
<text text-anchor="middle" x="709" y="-229" font-family="Helvetica,sans-Serif" font-size="10.00">SPDataSet.SPDataSet.getRawByName</text>
</a>
</g>
</g>
<!-- Node18&#45;&gt;Node19 -->
<g id="edge29" class="edge"><title>Node18&#45;&gt;Node19</title>
<path fill="none" stroke="midnightblue" d="M584.274,-175.087C594.685,-182.728 597.407,-190.366 612,-198 631.805,-208.36 655.805,-215.86 674.854,-221.895"/>
<polygon fill="midnightblue" stroke="midnightblue" points="585.958,-172.014 575.598,-169.796 582.314,-177.991 585.958,-172.014"/>
</g>
<!-- Node21 -->
<g id="node21" class="node"><title>Node21</title>
<g id="a_node21"><a xlink:href="classrepo_1_1programs_1_1pythonpackages_1_1pr_1_1SPDataSet_1_1SPDataSet.html#a2b09966d9ad35b39ea13988a7c361df6" target="_top" xlink:title="Assume it&#39;s a continuously rotating sample. ">
<polygon fill="white" stroke="black" points="842,-143 842,-173 1030,-173 1030,-143 842,-143"/>
<text text-anchor="start" x="850" y="-161" font-family="Helvetica,sans-Serif" font-size="10.00">repo.programs.pythonpackages.pr.</text>
<text text-anchor="middle" x="936" y="-150" font-family="Helvetica,sans-Serif" font-size="10.00">SPDataSet.SPDataSet.seqAmpFitSplit</text>
</a>
</g>
</g>
<!-- Node18&#45;&gt;Node21 -->
<g id="edge33" class="edge"><title>Node18&#45;&gt;Node21</title>
<path fill="none" stroke="midnightblue" d="M586.017,-155.631C661.173,-156.141 766.461,-156.856 841.694,-157.367"/>
<polygon fill="midnightblue" stroke="midnightblue" points="585.642,-152.129 575.618,-155.561 585.594,-159.129 585.642,-152.129"/>
</g>
<!-- Node19&#45;&gt;Node18 -->
<g id="edge31" class="edge"><title>Node19&#45;&gt;Node18</title>
<path fill="none" stroke="midnightblue" d="M615.434,-217.747C614.277,-217.174 613.131,-216.592 612,-216 594.039,-206.605 594.06,-197.203 576,-188 560.764,-180.236 542.638,-174.628 527.218,-170"/>
<polygon fill="midnightblue" stroke="midnightblue" points="613.966,-220.925 624.511,-221.952 616.908,-214.573 613.966,-220.925"/>
</g>
<!-- Node20 -->
<g id="node20" class="node"><title>Node20</title>
<g id="a_node20"><a xlink:href="classrepo_1_1programs_1_1pythonpackages_1_1pr_1_1SPDataSet_1_1SPDataSet.html#a3a649b10dc80a63cbbb7ed141f90519f" target="_top" xlink:title="repo.programs.pythonpackages.pr.\lSPDataSet.SPDataSet.getSensorData">
<polygon fill="white" stroke="black" points="842.5,-259 842.5,-289 1029.5,-289 1029.5,-259 842.5,-259"/>
<text text-anchor="start" x="850.5" y="-277" font-family="Helvetica,sans-Serif" font-size="10.00">repo.programs.pythonpackages.pr.</text>
<text text-anchor="middle" x="936" y="-266" font-family="Helvetica,sans-Serif" font-size="10.00">SPDataSet.SPDataSet.getSensorData</text>
</a>
</g>
</g>
<!-- Node19&#45;&gt;Node20 -->
<g id="edge30" class="edge"><title>Node19&#45;&gt;Node20</title>
<path fill="none" stroke="midnightblue" d="M811.658,-253.717C822.292,-255.466 833.056,-257.236 843.565,-258.964"/>
<polygon fill="midnightblue" stroke="midnightblue" points="811.952,-250.218 801.516,-252.049 810.816,-257.126 811.952,-250.218"/>
</g>
<!-- Node21&#45;&gt;Node7 -->
<g id="edge34" class="edge"><title>Node21&#45;&gt;Node7</title>
<path fill="none" stroke="midnightblue" d="M1040.36,-158.255C1145.76,-159.57 1313.8,-164.584 1458,-182 1477.74,-184.385 1499.01,-188.108 1518.4,-191.96"/>
<polygon fill="midnightblue" stroke="midnightblue" points="1040.09,-154.751 1030.05,-158.135 1040,-161.751 1040.09,-154.751"/>
</g>
</g>
</svg>
        <g id="navigator" transform="translate(0 0)" fill="#404254">
                <rect fill="#f2f5e9" fill-opacity="0.5" stroke="#606060" stroke-width=".5" x="0" y="0" width="60" height="60"/>
                <use id="zoomplus" xlink:href="#zoomPlus" x="17" y="9" onmousedown="handleZoom(evt,'in')"/>
                <use id="zoomminus" xlink:href="#zoomMin" x="42" y="9" onmousedown="handleZoom(evt,'out')"/>
                <use id="reset" xlink:href="#resetDef" x="30" y="36" onmousedown="handleReset()"/>
                <g id="arrowUp" xlink:href="#dirArrow" transform="translate(30 24)" onmousedown="handlePan(0,-1)">
                  <use xlink:href="#rim" fill="#404040">
                        <set attributeName="fill" to="#808080" begin="arrowUp.mouseover" end="arrowUp.mouseout"/>
                  </use>
                  <path fill="none" stroke="white" stroke-width="1.5" d="M0,-3.0v7 M-2.5,-0.5L0,-3.0L2.5,-0.5"/>
                </g>
                <g id="arrowRight" xlink:href="#dirArrow" transform="rotate(90) translate(36 -43)" onmousedown="handlePan(1,0)">
                  <use xlink:href="#rim" fill="#404040">
                        <set attributeName="fill" to="#808080" begin="arrowRight.mouseover" end="arrowRight.mouseout"/>
                  </use>
                  <path fill="none" stroke="white" stroke-width="1.5" d="M0,-3.0v7 M-2.5,-0.5L0,-3.0L2.5,-0.5"/>
                </g>
                <g id="arrowDown" xlink:href="#dirArrow" transform="rotate(180) translate(-30 -48)" onmousedown="handlePan(0,1)">
                  <use xlink:href="#rim" fill="#404040">
                        <set attributeName="fill" to="#808080" begin="arrowDown.mouseover" end="arrowDown.mouseout"/>
                  </use>
                  <path fill="none" stroke="white" stroke-width="1.5" d="M0,-3.0v7 M-2.5,-0.5L0,-3.0L2.5,-0.5"/>
                </g>
                <g id="arrowLeft" xlink:href="#dirArrow" transform="rotate(270) translate(-36 17)" onmousedown="handlePan(-1,0)">
                  <use xlink:href="#rim" fill="#404040">
                        <set attributeName="fill" to="#808080" begin="arrowLeft.mouseover" end="arrowLeft.mouseout"/>
                  </use>
                  <path fill="none" stroke="white" stroke-width="1.5" d="M0,-3.0v7 M-2.5,-0.5L0,-3.0L2.5,-0.5"/>
                </g>
        </g>
        <svg viewBox="0 0 15 15" width="100%" height="30px" preserveAspectRatio="xMaxYMin meet">
         <g id="arrow_out" transform="scale(0.3 0.3)">
          <a xlink:href="classrepo_1_1programs_1_1pythonpackages_1_1pr_1_1SPDataSet_1_1SPDataSet_af0f40f6c14b1ba1c8de9351a839eb511_icgraph_org.svg" target="_base">
           <rect id="button" ry="5" rx="5" y="6" x="6" height="38" width="38"
                fill="#f2f5e9" fill-opacity="0.5" stroke="#606060" stroke-width="1.0"/>
           <path id="arrow"
             d="M 11.500037,31.436501 C 11.940474,20.09759 22.043105,11.32322 32.158766,21.979434 L 37.068811,17.246167 C 37.068811,17.246167 37.088388,32 37.088388,32 L 22.160133,31.978069 C 22.160133,31.978069 26.997745,27.140456 26.997745,27.140456 C 18.528582,18.264221 13.291696,25.230495 11.500037,31.436501 z"
             style="fill:#404040;"/>
          </a>
         </g>
        </svg>
</svg>
