<?xml version="1.0" encoding="UTF-8" standalone="no"?>
<!DOCTYPE svg PUBLIC "-//W3C//DTD SVG 1.1//EN"
 "http://www.w3.org/Graphics/SVG/1.1/DTD/svg11.dtd">
<!-- Generated by graphviz version 2.36.0 (20140111.2315)
 -->
<!-- Title: repo.programs.pythonpackages.pr.SPDataSet.SPDataSet.cutAmp Pages: 1 -->
<svg width="1262pt" height="410pt"
 viewBox="0.00 0.00 1262.00 410.00" xmlns="http://www.w3.org/2000/svg" xmlns:xlink="http://www.w3.org/1999/xlink">
<g id="graph0" class="graph" transform="scale(1 1) rotate(0) translate(4 406)">
<title>repo.programs.pythonpackages.pr.SPDataSet.SPDataSet.cutAmp</title>
<polygon fill="white" stroke="none" points="-4,4 -4,-406 1258,-406 1258,4 -4,4"/>
<!-- Node1 -->
<g id="node1" class="node"><title>Node1</title>
<polygon fill="#bfbfbf" stroke="black" points="0.5,-198 0.5,-228 167.5,-228 167.5,-198 0.5,-198"/>
<text text-anchor="start" x="8.5" y="-216" font-family="Helvetica,sans-Serif" font-size="10.00">repo.programs.pythonpackages.pr.</text>
<text text-anchor="middle" x="84" y="-205" font-family="Helvetica,sans-Serif" font-size="10.00">SPDataSet.SPDataSet.cutAmp</text>
</g>
<!-- Node1&#45;&gt;Node1 -->
<g id="edge23" class="edge"><title>Node1&#45;&gt;Node1</title>
<path fill="none" stroke="midnightblue" d="M46.0312,-228.275C37.5938,-237.406 50.25,-246 84,-246 104.039,-246 116.642,-242.97 121.808,-238.598"/>
<polygon fill="midnightblue" stroke="midnightblue" points="125.313,-238.329 121.969,-228.275 118.313,-238.22 125.313,-238.329"/>
</g>
<!-- Node2 -->
<g id="node2" class="node"><title>Node2</title>
<g id="a_node2"><a xlink:href="classrepo_1_1programs_1_1pythonpackages_1_1pr_1_1SPDataSet_1_1SPDataSet.html#afe54eeb9f41f503dc478557e4ea2c62a" target="_top" xlink:title="repo.programs.pythonpackages.pr.\lSPDataSet.SPDataSet.rawData">
<polygon fill="white" stroke="black" points="434.5,-320 434.5,-350 601.5,-350 601.5,-320 434.5,-320"/>
<text text-anchor="start" x="442.5" y="-338" font-family="Helvetica,sans-Serif" font-size="10.00">repo.programs.pythonpackages.pr.</text>
<text text-anchor="middle" x="518" y="-327" font-family="Helvetica,sans-Serif" font-size="10.00">SPDataSet.SPDataSet.rawData</text>
</a>
</g>
</g>
<!-- Node1&#45;&gt;Node2 -->
<g id="edge1" class="edge"><title>Node1&#45;&gt;Node2</title>
<path fill="none" stroke="midnightblue" d="M138.405,-228.082C218.316,-250.649 368.698,-293.118 453.91,-317.183"/>
<polygon fill="midnightblue" stroke="midnightblue" points="453.142,-320.603 463.717,-319.952 455.045,-313.866 453.142,-320.603"/>
</g>
<!-- Node10 -->
<g id="node10" class="node"><title>Node10</title>
<g id="a_node10"><a xlink:href="classrepo_1_1programs_1_1pythonpackages_1_1pr_1_1SPDataSet_1_1SPDataSet.html#a14656e508d81193e8c71c09d9444e15f" target="_top" xlink:title="repo.programs.pythonpackages.pr.\lSPDataSet.SPDataSet.trigTimes">
<polygon fill="white" stroke="black" points="217.5,-198 217.5,-228 384.5,-228 384.5,-198 217.5,-198"/>
<text text-anchor="start" x="225.5" y="-216" font-family="Helvetica,sans-Serif" font-size="10.00">repo.programs.pythonpackages.pr.</text>
<text text-anchor="middle" x="301" y="-205" font-family="Helvetica,sans-Serif" font-size="10.00">SPDataSet.SPDataSet.trigTimes</text>
</a>
</g>
</g>
<!-- Node1&#45;&gt;Node10 -->
<g id="edge10" class="edge"><title>Node1&#45;&gt;Node10</title>
<path fill="none" stroke="midnightblue" d="M167.51,-213C180.532,-213 194.073,-213 207.308,-213"/>
<polygon fill="midnightblue" stroke="midnightblue" points="207.356,-216.5 217.356,-213 207.356,-209.5 207.356,-216.5"/>
</g>
<!-- Node18 -->
<g id="node18" class="node"><title>Node18</title>
<g id="a_node18"><a xlink:href="classrepo_1_1programs_1_1pythonpackages_1_1pr_1_1SPDataSet_1_1SPDataSet.html#aee6249fe272c46f07d0f2f32f6c188d2" target="_top" xlink:title="repo.programs.pythonpackages.pr.\lSPDataSet.SPDataSet.apparatusAngles">
<polygon fill="white" stroke="black" points="204,-51 204,-81 398,-81 398,-51 204,-51"/>
<text text-anchor="start" x="212" y="-69" font-family="Helvetica,sans-Serif" font-size="10.00">repo.programs.pythonpackages.pr.</text>
<text text-anchor="middle" x="301" y="-58" font-family="Helvetica,sans-Serif" font-size="10.00">SPDataSet.SPDataSet.apparatusAngles</text>
</a>
</g>
</g>
<!-- Node1&#45;&gt;Node18 -->
<g id="edge24" class="edge"><title>Node1&#45;&gt;Node18</title>
<path fill="none" stroke="midnightblue" d="M107.199,-197.822C145.924,-171.345 225.865,-116.688 269.666,-86.7398"/>
<polygon fill="midnightblue" stroke="midnightblue" points="271.642,-89.6287 277.922,-81.0953 267.691,-83.8502 271.642,-89.6287"/>
</g>
<!-- Node3 -->
<g id="node3" class="node"><title>Node3</title>
<g id="a_node3"><a xlink:href="classrepo_1_1programs_1_1pythonpackages_1_1pr_1_1SPDataSet_1_1SPDataSet.html#aa400ad81219e782fe2e29e852b20bb28" target="_top" xlink:title="repo.programs.pythonpackages.pr.\lSPDataSet.SPDataSet.fastD">
<polygon fill="white" stroke="black" points="651.5,-274 651.5,-304 818.5,-304 818.5,-274 651.5,-274"/>
<text text-anchor="start" x="659.5" y="-292" font-family="Helvetica,sans-Serif" font-size="10.00">repo.programs.pythonpackages.pr.</text>
<text text-anchor="middle" x="735" y="-281" font-family="Helvetica,sans-Serif" font-size="10.00">SPDataSet.SPDataSet.fastD</text>
</a>
</g>
</g>
<!-- Node2&#45;&gt;Node3 -->
<g id="edge2" class="edge"><title>Node2&#45;&gt;Node3</title>
<path fill="none" stroke="midnightblue" d="M589.399,-319.938C610.015,-315.527 632.706,-310.672 653.879,-306.142"/>
<polygon fill="midnightblue" stroke="midnightblue" points="654.764,-309.532 663.81,-304.017 653.299,-302.687 654.764,-309.532"/>
</g>
<!-- Node8 -->
<g id="node8" class="node"><title>Node8</title>
<g id="a_node8"><a xlink:href="classrepo_1_1programs_1_1pythonpackages_1_1pr_1_1SPDataSet_1_1SPDataSet.html#aa0b687b3c937bfb4aa71c4a09cac5eb5" target="_top" xlink:title="Names should be of the form &quot;med:Total Position Sensor 1&quot; etc. ">
<polygon fill="white" stroke="black" points="638,-323 638,-353 832,-353 832,-323 638,-323"/>
<text text-anchor="start" x="646" y="-341" font-family="Helvetica,sans-Serif" font-size="10.00">repo.programs.pythonpackages.pr.</text>
<text text-anchor="middle" x="735" y="-330" font-family="Helvetica,sans-Serif" font-size="10.00">SPDataSet.SPDataSet.getRawByName</text>
</a>
</g>
</g>
<!-- Node2&#45;&gt;Node8 -->
<g id="edge7" class="edge"><title>Node2&#45;&gt;Node8</title>
<path fill="none" stroke="midnightblue" d="M601.51,-329.566C610.021,-329.571 618.754,-329.638 627.478,-329.764"/>
<polygon fill="midnightblue" stroke="midnightblue" points="627.643,-333.267 637.702,-329.939 627.763,-326.268 627.643,-333.267"/>
</g>
<!-- Node9 -->
<g id="node9" class="node"><title>Node9</title>
<g id="a_node9"><a xlink:href="classrepo_1_1programs_1_1pythonpackages_1_1pr_1_1SPDataSet_1_1SPDataSet.html#a33ced34e094ccfd1e3891b92478613e7" target="_top" xlink:title="repo.programs.pythonpackages.pr.\lSPDataSet.SPDataSet.clearRaw">
<polygon fill="white" stroke="black" points="651.5,-372 651.5,-402 818.5,-402 818.5,-372 651.5,-372"/>
<text text-anchor="start" x="659.5" y="-390" font-family="Helvetica,sans-Serif" font-size="10.00">repo.programs.pythonpackages.pr.</text>
<text text-anchor="middle" x="735" y="-379" font-family="Helvetica,sans-Serif" font-size="10.00">SPDataSet.SPDataSet.clearRaw</text>
</a>
</g>
</g>
<!-- Node2&#45;&gt;Node9 -->
<g id="edge9" class="edge"><title>Node2&#45;&gt;Node9</title>
<path fill="none" stroke="midnightblue" d="M581.187,-350.041C606.48,-356.158 635.869,-363.266 662.079,-369.605"/>
<polygon fill="midnightblue" stroke="midnightblue" points="661.41,-373.044 671.953,-371.993 663.056,-366.24 661.41,-373.044"/>
</g>
<!-- Node4 -->
<g id="node4" class="node"><title>Node4</title>
<g id="a_node4"><a xlink:href="classrepo_1_1programs_1_1pythonpackages_1_1pr_1_1SPDataSet_1_1SPDataSet.html#a1e4c1d502ec5ff9a57bf9a330a318a54" target="_top" xlink:title="repo.programs.pythonpackages.pr.\lSPDataSet.SPDataSet.splitRecArray">
<polygon fill="white" stroke="black" points="868.5,-227 868.5,-257 1049.5,-257 1049.5,-227 868.5,-227"/>
<text text-anchor="start" x="876.5" y="-245" font-family="Helvetica,sans-Serif" font-size="10.00">repo.programs.pythonpackages.pr.</text>
<text text-anchor="middle" x="959" y="-234" font-family="Helvetica,sans-Serif" font-size="10.00">SPDataSet.SPDataSet.splitRecArray</text>
</a>
</g>
</g>
<!-- Node3&#45;&gt;Node4 -->
<g id="edge3" class="edge"><title>Node3&#45;&gt;Node4</title>
<path fill="none" stroke="midnightblue" d="M806.853,-274C829.181,-269.272 854.014,-264.015 876.994,-259.15"/>
<polygon fill="midnightblue" stroke="midnightblue" points="878.001,-262.514 887.059,-257.019 876.551,-255.666 878.001,-262.514"/>
</g>
<!-- Node5 -->
<g id="node5" class="node"><title>Node5</title>
<g id="a_node5"><a xlink:href="classrepo_1_1programs_1_1pythonpackages_1_1pr_1_1SPDataSet_1_1SPDataSet.html#af0f40f6c14b1ba1c8de9351a839eb511" target="_top" xlink:title="repo.programs.pythonpackages.pr.\lSPDataSet.SPDataSet.calArr">
<polygon fill="white" stroke="black" points="875.5,-276 875.5,-306 1042.5,-306 1042.5,-276 875.5,-276"/>
<text text-anchor="start" x="883.5" y="-294" font-family="Helvetica,sans-Serif" font-size="10.00">repo.programs.pythonpackages.pr.</text>
<text text-anchor="middle" x="959" y="-283" font-family="Helvetica,sans-Serif" font-size="10.00">SPDataSet.SPDataSet.calArr</text>
</a>
</g>
</g>
<!-- Node3&#45;&gt;Node5 -->
<g id="edge4" class="edge"><title>Node3&#45;&gt;Node5</title>
<path fill="none" stroke="midnightblue" d="M818.665,-289.745C833.833,-289.881 849.759,-290.025 865.201,-290.164"/>
<polygon fill="midnightblue" stroke="midnightblue" points="865.235,-293.664 875.266,-290.255 865.298,-286.665 865.235,-293.664"/>
</g>
<!-- Node6 -->
<g id="node6" class="node"><title>Node6</title>
<g id="a_node6"><a xlink:href="classrepo_1_1programs_1_1pythonpackages_1_1pr_1_1SPDataSet_1_1SPDataSet.html#a6e8c2848a25079fc869ab950445213b8" target="_top" xlink:title="repo.programs.pythonpackages.pr.\lSPDataSet.SPDataSet.zeroingD">
<polygon fill="white" stroke="black" points="1086.5,-301 1086.5,-331 1253.5,-331 1253.5,-301 1086.5,-301"/>
<text text-anchor="start" x="1094.5" y="-319" font-family="Helvetica,sans-Serif" font-size="10.00">repo.programs.pythonpackages.pr.</text>
<text text-anchor="middle" x="1170" y="-308" font-family="Helvetica,sans-Serif" font-size="10.00">SPDataSet.SPDataSet.zeroingD</text>
</a>
</g>
</g>
<!-- Node5&#45;&gt;Node6 -->
<g id="edge5" class="edge"><title>Node5&#45;&gt;Node6</title>
<path fill="none" stroke="midnightblue" d="M1042.6,-300.881C1053.61,-302.197 1064.96,-303.555 1076.12,-304.89"/>
<polygon fill="midnightblue" stroke="midnightblue" points="1075.97,-308.397 1086.31,-306.109 1076.8,-301.446 1075.97,-308.397"/>
</g>
<!-- Node7 -->
<g id="node7" class="node"><title>Node7</title>
<g id="a_node7"><a xlink:href="classrepo_1_1programs_1_1pythonpackages_1_1pr_1_1SPDataSet_1_1SPDataSet.html#aa287beda17e46a3969a9321e5904eaed" target="_top" xlink:title="repo.programs.pythonpackages.pr.\lSPDataSet.SPDataSet.cBzCal">
<polygon fill="white" stroke="black" points="1086.5,-252 1086.5,-282 1253.5,-282 1253.5,-252 1086.5,-252"/>
<text text-anchor="start" x="1094.5" y="-270" font-family="Helvetica,sans-Serif" font-size="10.00">repo.programs.pythonpackages.pr.</text>
<text text-anchor="middle" x="1170" y="-259" font-family="Helvetica,sans-Serif" font-size="10.00">SPDataSet.SPDataSet.cBzCal</text>
</a>
</g>
</g>
<!-- Node5&#45;&gt;Node7 -->
<g id="edge6" class="edge"><title>Node5&#45;&gt;Node7</title>
<path fill="none" stroke="midnightblue" d="M1042.6,-281.515C1053.61,-280.251 1064.96,-278.948 1076.12,-277.665"/>
<polygon fill="midnightblue" stroke="midnightblue" points="1076.78,-281.113 1086.31,-276.495 1075.98,-274.159 1076.78,-281.113"/>
</g>
<!-- Node8&#45;&gt;Node2 -->
<g id="edge8" class="edge"><title>Node8&#45;&gt;Node2</title>
<path fill="none" stroke="midnightblue" d="M637.702,-343.374C629.019,-343.303 620.239,-343.172 611.589,-342.984"/>
<polygon fill="midnightblue" stroke="midnightblue" points="611.593,-339.483 601.51,-342.737 611.421,-346.481 611.593,-339.483"/>
</g>
<!-- Node10&#45;&gt;Node2 -->
<g id="edge12" class="edge"><title>Node10&#45;&gt;Node2</title>
<path fill="none" stroke="midnightblue" d="M322.304,-228.087C347.618,-246.49 392.609,-277.875 434,-300 444.667,-305.702 456.465,-311.153 467.736,-315.985"/>
<polygon fill="midnightblue" stroke="midnightblue" points="466.469,-319.249 477.044,-319.89 469.177,-312.794 466.469,-319.249"/>
</g>
<!-- Node10&#45;&gt;Node3 -->
<g id="edge11" class="edge"><title>Node10&#45;&gt;Node3</title>
<path fill="none" stroke="midnightblue" d="M334.89,-228.002C361.152,-239.291 399.191,-254.121 434,-262 502.344,-277.47 581.335,-284.142 641.102,-286.989"/>
<polygon fill="midnightblue" stroke="midnightblue" points="641.129,-290.493 651.276,-287.445 641.443,-283.5 641.129,-290.493"/>
</g>
<!-- Node11 -->
<g id="node11" class="node"><title>Node11</title>
<g id="a_node11"><a xlink:href="classrepo_1_1programs_1_1pythonpackages_1_1pr_1_1SPDataSet_1_1SPDataSet.html#a9eef53392c7e7ad757cefde737a6cb69" target="_top" xlink:title="repo.programs.pythonpackages.pr.\lSPDataSet.SPDataSet.medD">
<polygon fill="white" stroke="black" points="434.5,-223 434.5,-253 601.5,-253 601.5,-223 434.5,-223"/>
<text text-anchor="start" x="442.5" y="-241" font-family="Helvetica,sans-Serif" font-size="10.00">repo.programs.pythonpackages.pr.</text>
<text text-anchor="middle" x="518" y="-230" font-family="Helvetica,sans-Serif" font-size="10.00">SPDataSet.SPDataSet.medD</text>
</a>
</g>
</g>
<!-- Node10&#45;&gt;Node11 -->
<g id="edge13" class="edge"><title>Node10&#45;&gt;Node11</title>
<path fill="none" stroke="midnightblue" d="M384.51,-222.594C397.532,-224.108 411.073,-225.683 424.308,-227.222"/>
<polygon fill="midnightblue" stroke="midnightblue" points="424.018,-230.712 434.356,-228.39 424.827,-223.759 424.018,-230.712"/>
</g>
<!-- Node13 -->
<g id="node13" class="node"><title>Node13</title>
<g id="a_node13"><a xlink:href="classrepo_1_1programs_1_1pythonpackages_1_1pr_1_1SPDataSet_1_1SPDataSet.html#a6478ef339e0e44839e478fec7340c6b0" target="_top" xlink:title="repo.programs.pythonpackages.pr.\lSPDataSet.SPDataSet.relD">
<polygon fill="white" stroke="black" points="434.5,-174 434.5,-204 601.5,-204 601.5,-174 434.5,-174"/>
<text text-anchor="start" x="442.5" y="-192" font-family="Helvetica,sans-Serif" font-size="10.00">repo.programs.pythonpackages.pr.</text>
<text text-anchor="middle" x="518" y="-181" font-family="Helvetica,sans-Serif" font-size="10.00">SPDataSet.SPDataSet.relD</text>
</a>
</g>
</g>
<!-- Node10&#45;&gt;Node13 -->
<g id="edge16" class="edge"><title>Node10&#45;&gt;Node13</title>
<path fill="none" stroke="midnightblue" d="M384.51,-203.79C397.532,-202.336 411.073,-200.824 424.308,-199.347"/>
<polygon fill="midnightblue" stroke="midnightblue" points="424.806,-202.813 434.356,-198.225 424.029,-195.856 424.806,-202.813"/>
</g>
<!-- Node14 -->
<g id="node14" class="node"><title>Node14</title>
<g id="a_node14"><a xlink:href="namespacerepo_1_1programs_1_1pythonpackages_1_1pr_1_1SPfuncs.html#af8a48b74a6d4e725e2409329126076a6" target="_top" xlink:title="Construct a set of triggers by analysing the timing for the signal. ">
<polygon fill="white" stroke="black" points="434.5,-117 434.5,-147 601.5,-147 601.5,-117 434.5,-117"/>
<text text-anchor="start" x="442.5" y="-135" font-family="Helvetica,sans-Serif" font-size="10.00">repo.programs.pythonpackages.pr.</text>
<text text-anchor="middle" x="518" y="-124" font-family="Helvetica,sans-Serif" font-size="10.00">SPfuncs.makeTriggers</text>
</a>
</g>
</g>
<!-- Node10&#45;&gt;Node14 -->
<g id="edge19" class="edge"><title>Node10&#45;&gt;Node14</title>
<path fill="none" stroke="midnightblue" d="M341.936,-197.954C377.424,-184.584 429.433,-164.99 467.543,-150.633"/>
<polygon fill="midnightblue" stroke="midnightblue" points="468.79,-153.903 476.914,-147.102 466.322,-147.353 468.79,-153.903"/>
</g>
<!-- Node16 -->
<g id="node16" class="node"><title>Node16</title>
<g id="a_node16"><a xlink:href="classrepo_1_1programs_1_1pythonpackages_1_1pr_1_1SPDataSet_1_1SPDataSet.html#af6af62c7de4f7bc8f2dd223d05cf2b07" target="_top" xlink:title="repo.programs.pythonpackages.pr.\lSPDataSet.SPDataSet.rSpec">
<polygon fill="white" stroke="black" points="434.5,-51 434.5,-81 601.5,-81 601.5,-51 434.5,-51"/>
<text text-anchor="start" x="442.5" y="-69" font-family="Helvetica,sans-Serif" font-size="10.00">repo.programs.pythonpackages.pr.</text>
<text text-anchor="middle" x="518" y="-58" font-family="Helvetica,sans-Serif" font-size="10.00">SPDataSet.SPDataSet.rSpec</text>
</a>
</g>
</g>
<!-- Node10&#45;&gt;Node16 -->
<g id="edge21" class="edge"><title>Node10&#45;&gt;Node16</title>
<path fill="none" stroke="midnightblue" d="M318.603,-197.677C342.78,-175.841 389.642,-135.288 434,-107 446.213,-99.2116 460.113,-91.8255 473,-85.5237"/>
<polygon fill="midnightblue" stroke="midnightblue" points="474.657,-88.611 482.166,-81.1364 471.634,-82.2971 474.657,-88.611"/>
</g>
<!-- Node11&#45;&gt;Node4 -->
<g id="edge15" class="edge"><title>Node11&#45;&gt;Node4</title>
<path fill="none" stroke="midnightblue" d="M601.573,-238.752C674.309,-239.415 780.446,-240.382 857.979,-241.089"/>
<polygon fill="midnightblue" stroke="midnightblue" points="858.212,-244.591 868.243,-241.182 858.276,-237.591 858.212,-244.591"/>
</g>
<!-- Node12 -->
<g id="node12" class="node"><title>Node12</title>
<g id="a_node12"><a xlink:href="namespacerepo_1_1programs_1_1pythonpackages_1_1pr_1_1SPfuncs.html#acb6d178d4325b6c3d8fec4f8197d6819" target="_top" xlink:title="repo.programs.pythonpackages.pr.\lSPfuncs.renameFieldMaybe">
<polygon fill="white" stroke="black" points="651.5,-186 651.5,-216 818.5,-216 818.5,-186 651.5,-186"/>
<text text-anchor="start" x="659.5" y="-204" font-family="Helvetica,sans-Serif" font-size="10.00">repo.programs.pythonpackages.pr.</text>
<text text-anchor="middle" x="735" y="-193" font-family="Helvetica,sans-Serif" font-size="10.00">SPfuncs.renameFieldMaybe</text>
</a>
</g>
</g>
<!-- Node11&#45;&gt;Node12 -->
<g id="edge14" class="edge"><title>Node11&#45;&gt;Node12</title>
<path fill="none" stroke="midnightblue" d="M601.51,-223.801C614.532,-221.56 628.073,-219.229 641.308,-216.952"/>
<polygon fill="midnightblue" stroke="midnightblue" points="642.094,-220.368 651.356,-215.222 640.907,-213.469 642.094,-220.368"/>
</g>
<!-- Node13&#45;&gt;Node4 -->
<g id="edge18" class="edge"><title>Node13&#45;&gt;Node4</title>
<path fill="none" stroke="midnightblue" d="M595.769,-173.987C659.876,-164.244 753.178,-156.606 832,-176 867.452,-184.723 903.98,-205.383 928.517,-221.283"/>
<polygon fill="midnightblue" stroke="midnightblue" points="926.72,-224.291 936.99,-226.895 930.585,-218.455 926.72,-224.291"/>
</g>
<!-- Node13&#45;&gt;Node12 -->
<g id="edge17" class="edge"><title>Node13&#45;&gt;Node12</title>
<path fill="none" stroke="midnightblue" d="M601.51,-193.605C614.532,-194.332 628.073,-195.088 641.308,-195.826"/>
<polygon fill="midnightblue" stroke="midnightblue" points="641.176,-199.324 651.356,-196.387 641.566,-192.335 641.176,-199.324"/>
</g>
<!-- Node15 -->
<g id="node15" class="node"><title>Node15</title>
<g id="a_node15"><a xlink:href="namespacerepo_1_1programs_1_1pythonpackages_1_1pr_1_1SPfuncs.html#a9d03b1e8bb9325cdab8fa026d6cdbbe3" target="_top" xlink:title="repo.programs.pythonpackages.pr.\lSPfuncs.secs2sd">
<polygon fill="white" stroke="black" points="651.5,-98 651.5,-128 818.5,-128 818.5,-98 651.5,-98"/>
<text text-anchor="start" x="659.5" y="-116" font-family="Helvetica,sans-Serif" font-size="10.00">repo.programs.pythonpackages.pr.</text>
<text text-anchor="middle" x="735" y="-105" font-family="Helvetica,sans-Serif" font-size="10.00">SPfuncs.secs2sd</text>
</a>
</g>
</g>
<!-- Node14&#45;&gt;Node15 -->
<g id="edge20" class="edge"><title>Node14&#45;&gt;Node15</title>
<path fill="none" stroke="midnightblue" d="M601.51,-124.708C614.532,-123.558 628.073,-122.361 641.308,-121.191"/>
<polygon fill="midnightblue" stroke="midnightblue" points="641.703,-124.67 651.356,-120.303 641.087,-117.697 641.703,-124.67"/>
</g>
<!-- Node17 -->
<g id="node17" class="node"><title>Node17</title>
<g id="a_node17"><a xlink:href="classrepo_1_1programs_1_1pythonpackages_1_1pr_1_1SPDataSet_1_1SPDataSet.html#af17c964467367b46a56c14a8c87e84a2" target="_top" xlink:title="Property doc string!! ">
<polygon fill="white" stroke="black" points="651.5,-49 651.5,-79 818.5,-79 818.5,-49 651.5,-49"/>
<text text-anchor="start" x="659.5" y="-67" font-family="Helvetica,sans-Serif" font-size="10.00">repo.programs.pythonpackages.pr.</text>
<text text-anchor="middle" x="735" y="-56" font-family="Helvetica,sans-Serif" font-size="10.00">SPDataSet.SPDataSet.set_info</text>
</a>
</g>
</g>
<!-- Node16&#45;&gt;Node17 -->
<g id="edge22" class="edge"><title>Node16&#45;&gt;Node17</title>
<path fill="none" stroke="midnightblue" d="M601.51,-65.2325C614.532,-65.1113 628.073,-64.9854 641.308,-64.8623"/>
<polygon fill="midnightblue" stroke="midnightblue" points="641.389,-68.3617 651.356,-64.7688 641.324,-61.3621 641.389,-68.3617"/>
</g>
<!-- Node18&#45;&gt;Node16 -->
<g id="edge27" class="edge"><title>Node18&#45;&gt;Node16</title>
<path fill="none" stroke="midnightblue" d="M398.181,-66C406.86,-66 415.638,-66 424.287,-66"/>
<polygon fill="midnightblue" stroke="midnightblue" points="424.365,-69.5001 434.365,-66 424.365,-62.5001 424.365,-69.5001"/>
</g>
<!-- Node19 -->
<g id="node19" class="node"><title>Node19</title>
<g id="a_node19"><a xlink:href="namespacerepo_1_1programs_1_1pythonpackages_1_1pr_1_1SPfuncs.html#a2533afa952ea007cfad4a1deb6a607a5" target="_top" xlink:title="Return angles for the sequence defined by , repeated &#160;times. ">
<polygon fill="white" stroke="black" points="434.5,-2 434.5,-32 601.5,-32 601.5,-2 434.5,-2"/>
<text text-anchor="start" x="442.5" y="-20" font-family="Helvetica,sans-Serif" font-size="10.00">repo.programs.pythonpackages.pr.</text>
<text text-anchor="middle" x="518" y="-9" font-family="Helvetica,sans-Serif" font-size="10.00">SPfuncs.getAnglesFromRSpec</text>
</a>
</g>
</g>
<!-- Node18&#45;&gt;Node19 -->
<g id="edge25" class="edge"><title>Node18&#45;&gt;Node19</title>
<path fill="none" stroke="midnightblue" d="M367.968,-50.9654C391.185,-45.6741 417.456,-39.6867 441.404,-34.2288"/>
<polygon fill="midnightblue" stroke="midnightblue" points="442.184,-37.6409 451.157,-32.0062 440.629,-30.8159 442.184,-37.6409"/>
</g>
<!-- Node20 -->
<g id="node20" class="node"><title>Node20</title>
<g id="a_node20"><a xlink:href="namespacerepo_1_1programs_1_1pythonpackages_1_1pr_1_1SPfuncs.html#aba724f914a5cc838851518564a1f5d84" target="_top" xlink:title="repo.programs.pythonpackages.pr.\lSPfuncs.getRotationsFromRSpec">
<polygon fill="white" stroke="black" points="651.5,-0 651.5,-30 818.5,-30 818.5,-0 651.5,-0"/>
<text text-anchor="start" x="659.5" y="-18" font-family="Helvetica,sans-Serif" font-size="10.00">repo.programs.pythonpackages.pr.</text>
<text text-anchor="middle" x="735" y="-7" font-family="Helvetica,sans-Serif" font-size="10.00">SPfuncs.getRotationsFromRSpec</text>
</a>
</g>
</g>
<!-- Node19&#45;&gt;Node20 -->
<g id="edge26" class="edge"><title>Node19&#45;&gt;Node20</title>
<path fill="none" stroke="midnightblue" d="M601.51,-16.2325C614.532,-16.1113 628.073,-15.9854 641.308,-15.8623"/>
<polygon fill="midnightblue" stroke="midnightblue" points="641.389,-19.3617 651.356,-15.7688 641.324,-12.3621 641.389,-19.3617"/>
</g>
</g>
</svg>
