<?xml version="1.0" encoding="UTF-8" standalone="no"?>
<!DOCTYPE svg PUBLIC "-//W3C//DTD SVG 1.1//EN"
 "http://www.w3.org/Graphics/SVG/1.1/DTD/svg11.dtd">
<!-- Generated by graphviz version 2.36.0 (20140111.2315)
 -->
<!-- Title: repo.programs.pythonpackages.pr.SPDataSet.SPDataSet.medD Pages: 1 -->
<!--zoomable 306 -->
<svg id="main" version="1.1" xmlns="http://www.w3.org/2000/svg" xmlns:xlink="http://www.w3.org/1999/xlink" xml:space="preserve" onload="init(evt)">
<style type="text/css"><![CDATA[
.edge:hover path { stroke: red; }
.edge:hover polygon { stroke: red; fill: red; }
]]></style>
<script type="text/javascript"><![CDATA[
var edges = document.getElementsByTagName('g');
if (edges && edges.length) {
  for (var i=0;i<edges.length;i++) {
    if (edges[i].id.substr(0,4)=='edge') {
      edges[i].setAttribute('class','edge');
    }
  }
}
]]></script>
        <defs>
                <circle id="rim" cx="0" cy="0" r="7"/>
                <circle id="rim2" cx="0" cy="0" r="3.5"/>
                <g id="zoomPlus">
                        <use xlink:href="#rim" fill="#404040">
                                <set attributeName="fill" to="#808080" begin="zoomplus.mouseover" end="zoomplus.mouseout"/>
                        </use>
                        <path d="M-4,0h8M0,-4v8" fill="none" stroke="white" stroke-width="1.5" pointer-events="none"/>
                </g>
                <g id="zoomMin">
                        <use xlink:href="#rim" fill="#404040">
                                <set attributeName="fill" to="#808080" begin="zoomminus.mouseover" end="zoomminus.mouseout"/>
                        </use>
                        <path d="M-4,0h8" fill="none" stroke="white" stroke-width="1.5" pointer-events="none"/>
                </g>
                <g id="dirArrow">
                        <path fill="none" stroke="white" stroke-width="1.5" d="M0,-3.0v7 M-2.5,-0.5L0,-3.0L2.5,-0.5"/>
                </g>
               <g id="resetDef">
                       <use xlink:href="#rim2" fill="#404040">
                               <set attributeName="fill" to="#808080" begin="reset.mouseover" end="reset.mouseout"/>
                       </use>
               </g>
        </defs>

<script type="text/javascript">
var viewWidth = 1686;
var viewHeight = 306;
var sectionId = 'dynsection-22';
</script>
<script xlink:href="svgpan.js"/>
<svg id="graph" class="graph">
<g id="viewport">
<title>repo.programs.pythonpackages.pr.SPDataSet.SPDataSet.medD</title>
<polygon fill="white" stroke="none" points="-4,4 -4,-302 1682,-302 1682,4 -4,4"/>
<!-- Node1 -->
<g id="node1" class="node"><title>Node1</title>
<polygon fill="#bfbfbf" stroke="black" points="0.5,-60 0.5,-90 167.5,-90 167.5,-60 0.5,-60"/>
<text text-anchor="start" x="8.5" y="-78" font-family="Helvetica,sans-Serif" font-size="10.00">repo.programs.pythonpackages.pr.</text>
<text text-anchor="middle" x="84" y="-67" font-family="Helvetica,sans-Serif" font-size="10.00">SPDataSet.SPDataSet.medD</text>
</g>
<!-- Node2 -->
<g id="node2" class="node"><title>Node2</title>
<g id="a_node2"><a xlink:href="classrepo_1_1programs_1_1pythonpackages_1_1pr_1_1SPDataSet_1_1SPDataSet.html#a14656e508d81193e8c71c09d9444e15f" target="_top" xlink:title="repo.programs.pythonpackages.pr.\lSPDataSet.SPDataSet.trigTimes">
<polygon fill="white" stroke="black" points="204.5,-60 204.5,-90 371.5,-90 371.5,-60 204.5,-60"/>
<text text-anchor="start" x="212.5" y="-78" font-family="Helvetica,sans-Serif" font-size="10.00">repo.programs.pythonpackages.pr.</text>
<text text-anchor="middle" x="288" y="-67" font-family="Helvetica,sans-Serif" font-size="10.00">SPDataSet.SPDataSet.trigTimes</text>
</a>
</g>
</g>
<!-- Node1&#45;&gt;Node2 -->
<g id="edge1" class="edge"><title>Node1&#45;&gt;Node2</title>
<path fill="none" stroke="midnightblue" d="M178.018,-75C186.815,-75 195.694,-75 204.385,-75"/>
<polygon fill="midnightblue" stroke="midnightblue" points="177.744,-71.5001 167.744,-75 177.744,-78.5001 177.744,-71.5001"/>
</g>
<!-- Node3 -->
<g id="node3" class="node"><title>Node3</title>
<g id="a_node3"><a xlink:href="classrepo_1_1programs_1_1pythonpackages_1_1pr_1_1SPDataSet_1_1SPDataSet.html#a5b12a3d9fdb93ccbf79a6b7a7893be3f" target="_top" xlink:title="repo.programs.pythonpackages.pr.\lSPDataSet.SPDataSet.cutAmp">
<polygon fill="white" stroke="black" points="408.5,-104 408.5,-134 575.5,-134 575.5,-104 408.5,-104"/>
<text text-anchor="start" x="416.5" y="-122" font-family="Helvetica,sans-Serif" font-size="10.00">repo.programs.pythonpackages.pr.</text>
<text text-anchor="middle" x="492" y="-111" font-family="Helvetica,sans-Serif" font-size="10.00">SPDataSet.SPDataSet.cutAmp</text>
</a>
</g>
</g>
<!-- Node2&#45;&gt;Node3 -->
<g id="edge2" class="edge"><title>Node2&#45;&gt;Node3</title>
<path fill="none" stroke="midnightblue" d="M367.78,-92.1601C385.68,-96.059 404.56,-100.171 422.016,-103.974"/>
<polygon fill="midnightblue" stroke="midnightblue" points="368.468,-88.7278 357.952,-90.0192 366.978,-95.5674 368.468,-88.7278"/>
</g>
<!-- Node12 -->
<g id="node12" class="node"><title>Node12</title>
<g id="a_node12"><a xlink:href="classrepo_1_1programs_1_1pythonpackages_1_1pr_1_1SPDataSet_1_1SPDataSet.html#a5ad35e931371981e41221502928547d5" target="_top" xlink:title="Check that the calculated apparatus directions fit with the available data. ">
<polygon fill="white" stroke="black" points="1266,-0 1266,-30 1458,-30 1458,-0 1266,-0"/>
<text text-anchor="start" x="1274" y="-18" font-family="Helvetica,sans-Serif" font-size="10.00">repo.programs.pythonpackages.pr.</text>
<text text-anchor="middle" x="1362" y="-7" font-family="Helvetica,sans-Serif" font-size="10.00">SPDataSet.SPDataSet.checkDirections</text>
</a>
</g>
</g>
<!-- Node2&#45;&gt;Node12 -->
<g id="edge24" class="edge"><title>Node2&#45;&gt;Node12</title>
<path fill="none" stroke="midnightblue" d="M371.968,-58.0865C453.744,-42.9067 582.443,-23 695,-23 695,-23 695,-23 911,-23 1033.48,-23 1174.68,-20.0007 1265.76,-17.675"/>
<polygon fill="midnightblue" stroke="midnightblue" points="371.168,-54.6754 361.985,-59.9594 372.459,-61.5554 371.168,-54.6754"/>
</g>
<!-- Node15 -->
<g id="node15" class="node"><title>Node15</title>
<g id="a_node15"><a xlink:href="classrepo_1_1programs_1_1pythonpackages_1_1pr_1_1SPDataSet_1_1SPDataSet.html#a5343a59b34ffebfc31c1dfd06ddfa889" target="_top" xlink:title="repo.programs.pythonpackages.pr.\lSPDataSet.SPDataSet.viewRaw">
<polygon fill="white" stroke="black" points="612.5,-60 612.5,-90 779.5,-90 779.5,-60 612.5,-60"/>
<text text-anchor="start" x="620.5" y="-78" font-family="Helvetica,sans-Serif" font-size="10.00">repo.programs.pythonpackages.pr.</text>
<text text-anchor="middle" x="696" y="-67" font-family="Helvetica,sans-Serif" font-size="10.00">SPDataSet.SPDataSet.viewRaw</text>
</a>
</g>
</g>
<!-- Node2&#45;&gt;Node15 -->
<g id="edge23" class="edge"><title>Node2&#45;&gt;Node15</title>
<path fill="none" stroke="midnightblue" d="M381.721,-75C451.242,-75 545.54,-75 612.466,-75"/>
<polygon fill="midnightblue" stroke="midnightblue" points="381.65,-71.5001 371.65,-75 381.649,-78.5001 381.65,-71.5001"/>
</g>
<!-- Node3&#45;&gt;Node3 -->
<g id="edge3" class="edge"><title>Node3&#45;&gt;Node3</title>
<path fill="none" stroke="midnightblue" d="M456.292,-144.598C461.172,-148.97 473.074,-152 492,-152 523.875,-152 535.828,-143.406 527.859,-134.275"/>
<polygon fill="midnightblue" stroke="midnightblue" points="459.787,-144.223 456.141,-134.275 452.788,-144.326 459.787,-144.223"/>
</g>
<!-- Node4 -->
<g id="node4" class="node"><title>Node4</title>
<g id="a_node4"><a xlink:href="classrepo_1_1programs_1_1pythonpackages_1_1pr_1_1SPDataSet_1_1SPDataSet.html#a9eac955cac12a62b72d189aa80b82ec6" target="_top" xlink:title="repo.programs.pythonpackages.pr.\lSPDataSet.SPDataSet.filteredCutAmp">
<polygon fill="white" stroke="black" points="816.5,-104 816.5,-134 1003.5,-134 1003.5,-104 816.5,-104"/>
<text text-anchor="start" x="824.5" y="-122" font-family="Helvetica,sans-Serif" font-size="10.00">repo.programs.pythonpackages.pr.</text>
<text text-anchor="middle" x="910" y="-111" font-family="Helvetica,sans-Serif" font-size="10.00">SPDataSet.SPDataSet.filteredCutAmp</text>
</a>
</g>
</g>
<!-- Node3&#45;&gt;Node4 -->
<g id="edge4" class="edge"><title>Node3&#45;&gt;Node4</title>
<path fill="none" stroke="midnightblue" d="M586.061,-119C654.727,-119 747.754,-119 816.328,-119"/>
<polygon fill="midnightblue" stroke="midnightblue" points="585.686,-115.5 575.686,-119 585.686,-122.5 585.686,-115.5"/>
</g>
<!-- Node13 -->
<g id="node13" class="node"><title>Node13</title>
<g id="a_node13"><a xlink:href="classrepo_1_1programs_1_1pythonpackages_1_1pr_1_1SPDataSet_1_1SPDataSet.html#a6f2c3de2aa708d686f5835f10e2d096d" target="_top" xlink:title="repo.programs.pythonpackages.pr.\lSPDataSet.SPDataSet.pointAmp">
<polygon fill="white" stroke="black" points="612.5,-167 612.5,-197 779.5,-197 779.5,-167 612.5,-167"/>
<text text-anchor="start" x="620.5" y="-185" font-family="Helvetica,sans-Serif" font-size="10.00">repo.programs.pythonpackages.pr.</text>
<text text-anchor="middle" x="696" y="-174" font-family="Helvetica,sans-Serif" font-size="10.00">SPDataSet.SPDataSet.pointAmp</text>
</a>
</g>
</g>
<!-- Node3&#45;&gt;Node13 -->
<g id="edge16" class="edge"><title>Node3&#45;&gt;Node13</title>
<path fill="none" stroke="midnightblue" d="M550.758,-137.014C581.176,-146.5 618.043,-157.999 646.892,-166.996"/>
<polygon fill="midnightblue" stroke="midnightblue" points="551.716,-133.646 541.127,-134.01 549.632,-140.329 551.716,-133.646"/>
</g>
<!-- Node3&#45;&gt;Node15 -->
<g id="edge22" class="edge"><title>Node3&#45;&gt;Node15</title>
<path fill="none" stroke="midnightblue" d="M571.78,-101.84C589.68,-97.941 608.56,-93.8286 626.016,-90.0262"/>
<polygon fill="midnightblue" stroke="midnightblue" points="570.978,-98.4326 561.952,-103.981 572.468,-105.272 570.978,-98.4326"/>
</g>
<!-- Node5 -->
<g id="node5" class="node"><title>Node5</title>
<g id="a_node5"><a xlink:href="classrepo_1_1programs_1_1pythonpackages_1_1pr_1_1SPDataSet_1_1SPDataSet.html#accbfa0185d4e416038e688fc9b55575b" target="_top" xlink:title="repo.programs.pythonpackages.pr.\lSPDataSet.SPDataSet.sequenceAmp">
<polygon fill="white" stroke="black" points="1040,-114 1040,-144 1224,-144 1224,-114 1040,-114"/>
<text text-anchor="start" x="1048" y="-132" font-family="Helvetica,sans-Serif" font-size="10.00">repo.programs.pythonpackages.pr.</text>
<text text-anchor="middle" x="1132" y="-121" font-family="Helvetica,sans-Serif" font-size="10.00">SPDataSet.SPDataSet.sequenceAmp</text>
</a>
</g>
</g>
<!-- Node4&#45;&gt;Node5 -->
<g id="edge5" class="edge"><title>Node4&#45;&gt;Node5</title>
<path fill="none" stroke="midnightblue" d="M1013.82,-123.674C1022.51,-124.069 1031.26,-124.466 1039.85,-124.857"/>
<polygon fill="midnightblue" stroke="midnightblue" points="1013.81,-120.17 1003.66,-123.212 1013.49,-127.162 1013.81,-120.17"/>
</g>
<!-- Node5&#45;&gt;Node5 -->
<g id="edge6" class="edge"><title>Node5&#45;&gt;Node5</title>
<path fill="none" stroke="midnightblue" d="M1093.14,-154.598C1098.45,-158.97 1111.4,-162 1132,-162 1166.69,-162 1179.7,-153.406 1171.02,-144.275"/>
<polygon fill="midnightblue" stroke="midnightblue" points="1096.64,-154.218 1092.98,-144.275 1089.64,-154.33 1096.64,-154.218"/>
</g>
<!-- Node6 -->
<g id="node6" class="node"><title>Node6</title>
<g id="a_node6"><a xlink:href="classrepo_1_1programs_1_1pythonpackages_1_1pr_1_1SPDataSet_1_1SPDataSet.html#ac0df54b82a9e993d707f0dafd87a19dd" target="_top" xlink:title="repo.programs.pythonpackages.pr.\lSPDataSet.SPDataSet.labAmp">
<polygon fill="white" stroke="black" points="1278.5,-98 1278.5,-128 1445.5,-128 1445.5,-98 1278.5,-98"/>
<text text-anchor="start" x="1286.5" y="-116" font-family="Helvetica,sans-Serif" font-size="10.00">repo.programs.pythonpackages.pr.</text>
<text text-anchor="middle" x="1362" y="-105" font-family="Helvetica,sans-Serif" font-size="10.00">SPDataSet.SPDataSet.labAmp</text>
</a>
</g>
</g>
<!-- Node5&#45;&gt;Node6 -->
<g id="edge7" class="edge"><title>Node5&#45;&gt;Node6</title>
<path fill="none" stroke="midnightblue" d="M1234.21,-121.897C1248.91,-120.866 1263.89,-119.814 1278.17,-118.812"/>
<polygon fill="midnightblue" stroke="midnightblue" points="1233.83,-118.416 1224.09,-122.607 1234.32,-125.399 1233.83,-118.416"/>
</g>
<!-- Node7 -->
<g id="node7" class="node"><title>Node7</title>
<g id="a_node7"><a xlink:href="classrepo_1_1programs_1_1pythonpackages_1_1pr_1_1SPDataSet_1_1SPDataSet.html#a3624263a6738178d243635889b719a90" target="_top" xlink:title="repo.programs.pythonpackages.pr.\lSPDataSet.SPDataSet.viewSid">
<polygon fill="white" stroke="black" points="1505.5,-98 1505.5,-128 1672.5,-128 1672.5,-98 1505.5,-98"/>
<text text-anchor="start" x="1513.5" y="-116" font-family="Helvetica,sans-Serif" font-size="10.00">repo.programs.pythonpackages.pr.</text>
<text text-anchor="middle" x="1589" y="-105" font-family="Helvetica,sans-Serif" font-size="10.00">SPDataSet.SPDataSet.viewSid</text>
</a>
</g>
</g>
<!-- Node5&#45;&gt;Node7 -->
<g id="edge13" class="edge"><title>Node5&#45;&gt;Node7</title>
<path fill="none" stroke="midnightblue" d="M1234.52,-137.721C1300.13,-141.812 1387.28,-144.356 1464,-137 1483.21,-135.158 1503.86,-131.747 1522.7,-128.062"/>
<polygon fill="midnightblue" stroke="midnightblue" points="1234.38,-134.205 1224.18,-137.052 1233.93,-141.19 1234.38,-134.205"/>
</g>
<!-- Node8 -->
<g id="node8" class="node"><title>Node8</title>
<g id="a_node8"><a xlink:href="classrepo_1_1programs_1_1pythonpackages_1_1pr_1_1SPDataSet_1_1SPDataSet.html#acf495c99c803a2a1e23cdaeae34da985" target="_top" xlink:title="repo.programs.pythonpackages.pr.\lSPDataSet.SPDataSet.sidAmp">
<polygon fill="white" stroke="black" points="1278.5,-49 1278.5,-79 1445.5,-79 1445.5,-49 1278.5,-49"/>
<text text-anchor="start" x="1286.5" y="-67" font-family="Helvetica,sans-Serif" font-size="10.00">repo.programs.pythonpackages.pr.</text>
<text text-anchor="middle" x="1362" y="-56" font-family="Helvetica,sans-Serif" font-size="10.00">SPDataSet.SPDataSet.sidAmp</text>
</a>
</g>
</g>
<!-- Node5&#45;&gt;Node8 -->
<g id="edge9" class="edge"><title>Node5&#45;&gt;Node8</title>
<path fill="none" stroke="midnightblue" d="M1186.55,-110.676C1209.1,-103.229 1235.7,-94.7968 1260,-88 1271.11,-84.8924 1282.97,-81.8386 1294.53,-79.0059"/>
<polygon fill="midnightblue" stroke="midnightblue" points="1185.21,-107.433 1176.82,-113.909 1187.42,-114.076 1185.21,-107.433"/>
</g>
<!-- Node9 -->
<g id="node9" class="node"><title>Node9</title>
<g id="a_node9"><a xlink:href="classrepo_1_1programs_1_1pythonpackages_1_1pr_1_1SPDataSet_1_1SPDataSet.html#ac55c6ccc03634d3f670f52e89188779c" target="_top" xlink:title="repo.programs.pythonpackages.pr.\lSPDataSet.SPDataSet.viewSeq">
<polygon fill="white" stroke="black" points="1278.5,-235 1278.5,-265 1445.5,-265 1445.5,-235 1278.5,-235"/>
<text text-anchor="start" x="1286.5" y="-253" font-family="Helvetica,sans-Serif" font-size="10.00">repo.programs.pythonpackages.pr.</text>
<text text-anchor="middle" x="1362" y="-242" font-family="Helvetica,sans-Serif" font-size="10.00">SPDataSet.SPDataSet.viewSeq</text>
</a>
</g>
</g>
<!-- Node5&#45;&gt;Node9 -->
<g id="edge11" class="edge"><title>Node5&#45;&gt;Node9</title>
<path fill="none" stroke="midnightblue" d="M1155.97,-151.009C1180.05,-172.888 1219.88,-205.868 1260,-225 1268.07,-228.849 1276.8,-232.144 1285.62,-234.955"/>
<polygon fill="midnightblue" stroke="midnightblue" points="1158.16,-148.263 1148.44,-144.051 1153.41,-153.406 1158.16,-148.263"/>
</g>
<!-- Node11 -->
<g id="node11" class="node"><title>Node11</title>
<g id="a_node11"><a xlink:href="classrepo_1_1programs_1_1pythonpackages_1_1pr_1_1SPDataSet_1_1SPDataSet.html#a5aad808c592bfdbb665105df2947610f" target="_top" xlink:title="repo.programs.pythonpackages.pr.\lSPDataSet.SPDataSet.viewCorrelationFilt">
<polygon fill="white" stroke="black" points="1260.5,-186 1260.5,-216 1463.5,-216 1463.5,-186 1260.5,-186"/>
<text text-anchor="start" x="1268.5" y="-204" font-family="Helvetica,sans-Serif" font-size="10.00">repo.programs.pythonpackages.pr.</text>
<text text-anchor="middle" x="1362" y="-193" font-family="Helvetica,sans-Serif" font-size="10.00">SPDataSet.SPDataSet.viewCorrelationFilt</text>
</a>
</g>
</g>
<!-- Node5&#45;&gt;Node11 -->
<g id="edge14" class="edge"><title>Node5&#45;&gt;Node11</title>
<path fill="none" stroke="midnightblue" d="M1186.99,-147.259C1209.51,-154.77 1235.97,-163.46 1260,-171 1275.97,-176.011 1293.43,-181.272 1309.27,-185.965"/>
<polygon fill="midnightblue" stroke="midnightblue" points="1187.86,-143.861 1177.27,-144.009 1185.64,-150.5 1187.86,-143.861"/>
</g>
<!-- Node5&#45;&gt;Node12 -->
<g id="edge15" class="edge"><title>Node5&#45;&gt;Node12</title>
<path fill="none" stroke="midnightblue" d="M1157.42,-107.318C1181.78,-86.8066 1221.07,-56.6153 1260,-39 1267.55,-35.5823 1275.65,-32.618 1283.86,-30.0544"/>
<polygon fill="midnightblue" stroke="midnightblue" points="1155.09,-104.711 1149.76,-113.87 1159.64,-110.032 1155.09,-104.711"/>
</g>
<!-- Node6&#45;&gt;Node7 -->
<g id="edge8" class="edge"><title>Node6&#45;&gt;Node7</title>
<path fill="none" stroke="midnightblue" d="M1455.63,-113C1472.03,-113 1489.02,-113 1505.13,-113"/>
<polygon fill="midnightblue" stroke="midnightblue" points="1455.5,-109.5 1445.5,-113 1455.5,-116.5 1455.5,-109.5"/>
</g>
<!-- Node8&#45;&gt;Node7 -->
<g id="edge10" class="edge"><title>Node8&#45;&gt;Node7</title>
<path fill="none" stroke="midnightblue" d="M1441.91,-81.1854C1467.07,-86.6647 1494.7,-92.6815 1519.09,-97.9938"/>
<polygon fill="midnightblue" stroke="midnightblue" points="1442.55,-77.7428 1432.04,-79.0346 1441.06,-84.5824 1442.55,-77.7428"/>
</g>
<!-- Node10 -->
<g id="node10" class="node"><title>Node10</title>
<g id="a_node10"><a xlink:href="classrepo_1_1programs_1_1pythonpackages_1_1pr_1_1SPDataSet_1_1SPDataSet.html#a0c87af10688edd55eb0aea229e5979bb" target="_top" xlink:title="repo.programs.pythonpackages.pr.\lSPDataSet.SPDataSet.viewSensors">
<polygon fill="white" stroke="black" points="1500,-235 1500,-265 1678,-265 1678,-235 1500,-235"/>
<text text-anchor="start" x="1508" y="-253" font-family="Helvetica,sans-Serif" font-size="10.00">repo.programs.pythonpackages.pr.</text>
<text text-anchor="middle" x="1589" y="-242" font-family="Helvetica,sans-Serif" font-size="10.00">SPDataSet.SPDataSet.viewSensors</text>
</a>
</g>
</g>
<!-- Node9&#45;&gt;Node10 -->
<g id="edge12" class="edge"><title>Node9&#45;&gt;Node10</title>
<path fill="none" stroke="midnightblue" d="M1455.55,-250C1470.19,-250 1485.29,-250 1499.83,-250"/>
<polygon fill="midnightblue" stroke="midnightblue" points="1455.5,-246.5 1445.5,-250 1455.5,-253.5 1455.5,-246.5"/>
</g>
<!-- Node13&#45;&gt;Node4 -->
<g id="edge17" class="edge"><title>Node13&#45;&gt;Node4</title>
<path fill="none" stroke="midnightblue" d="M757.203,-164.109C789.206,-154.599 828.103,-143.04 858.51,-134.004"/>
<polygon fill="midnightblue" stroke="midnightblue" points="756.099,-160.786 747.51,-166.99 758.093,-167.496 756.099,-160.786"/>
</g>
<!-- Node13&#45;&gt;Node5 -->
<g id="edge18" class="edge"><title>Node13&#45;&gt;Node5</title>
<path fill="none" stroke="midnightblue" d="M789.867,-170.659C863.646,-161.649 966.272,-149.117 1039.65,-140.155"/>
<polygon fill="midnightblue" stroke="midnightblue" points="789.156,-167.22 779.654,-171.906 790.004,-174.168 789.156,-167.22"/>
</g>
<!-- Node13&#45;&gt;Node9 -->
<g id="edge19" class="edge"><title>Node13&#45;&gt;Node9</title>
<path fill="none" stroke="midnightblue" d="M789.76,-198.315C798.615,-199.654 807.47,-200.909 816,-202 979.231,-222.872 1171.14,-237.478 1278.15,-244.739"/>
<polygon fill="midnightblue" stroke="midnightblue" points="790.196,-194.841 779.778,-196.772 789.126,-201.759 790.196,-194.841"/>
</g>
<!-- Node13&#45;&gt;Node11 -->
<g id="edge20" class="edge"><title>Node13&#45;&gt;Node11</title>
<path fill="none" stroke="midnightblue" d="M789.982,-184.661C913.97,-188.208 1132.61,-194.465 1260.36,-198.12"/>
<polygon fill="midnightblue" stroke="midnightblue" points="789.85,-181.156 779.754,-184.368 789.649,-188.153 789.85,-181.156"/>
</g>
<!-- Node14 -->
<g id="node14" class="node"><title>Node14</title>
<g id="a_node14"><a xlink:href="classrepo_1_1programs_1_1pythonpackages_1_1pr_1_1SPDataSet_1_1SPDataSet.html#a2ffa7a6de1e0ebd8172db800621eed20" target="_top" xlink:title="repo.programs.pythonpackages.pr.\lSPDataSet.SPDataSet.test_div">
<polygon fill="white" stroke="black" points="826.5,-268 826.5,-298 993.5,-298 993.5,-268 826.5,-268"/>
<text text-anchor="start" x="834.5" y="-286" font-family="Helvetica,sans-Serif" font-size="10.00">repo.programs.pythonpackages.pr.</text>
<text text-anchor="middle" x="910" y="-275" font-family="Helvetica,sans-Serif" font-size="10.00">SPDataSet.SPDataSet.test_div</text>
</a>
</g>
</g>
<!-- Node13&#45;&gt;Node14 -->
<g id="edge21" class="edge"><title>Node13&#45;&gt;Node14</title>
<path fill="none" stroke="midnightblue" d="M727.451,-202.789C750.896,-218.138 784.516,-238.751 816,-253 828.365,-258.596 842.084,-263.624 855.103,-267.893"/>
<polygon fill="midnightblue" stroke="midnightblue" points="729.26,-199.789 718.989,-197.188 725.396,-205.626 729.26,-199.789"/>
</g>
</g>
</svg>
        <g id="navigator" transform="translate(0 0)" fill="#404254">
                <rect fill="#f2f5e9" fill-opacity="0.5" stroke="#606060" stroke-width=".5" x="0" y="0" width="60" height="60"/>
                <use id="zoomplus" xlink:href="#zoomPlus" x="17" y="9" onmousedown="handleZoom(evt,'in')"/>
                <use id="zoomminus" xlink:href="#zoomMin" x="42" y="9" onmousedown="handleZoom(evt,'out')"/>
                <use id="reset" xlink:href="#resetDef" x="30" y="36" onmousedown="handleReset()"/>
                <g id="arrowUp" xlink:href="#dirArrow" transform="translate(30 24)" onmousedown="handlePan(0,-1)">
                  <use xlink:href="#rim" fill="#404040">
                        <set attributeName="fill" to="#808080" begin="arrowUp.mouseover" end="arrowUp.mouseout"/>
                  </use>
                  <path fill="none" stroke="white" stroke-width="1.5" d="M0,-3.0v7 M-2.5,-0.5L0,-3.0L2.5,-0.5"/>
                </g>
                <g id="arrowRight" xlink:href="#dirArrow" transform="rotate(90) translate(36 -43)" onmousedown="handlePan(1,0)">
                  <use xlink:href="#rim" fill="#404040">
                        <set attributeName="fill" to="#808080" begin="arrowRight.mouseover" end="arrowRight.mouseout"/>
                  </use>
                  <path fill="none" stroke="white" stroke-width="1.5" d="M0,-3.0v7 M-2.5,-0.5L0,-3.0L2.5,-0.5"/>
                </g>
                <g id="arrowDown" xlink:href="#dirArrow" transform="rotate(180) translate(-30 -48)" onmousedown="handlePan(0,1)">
                  <use xlink:href="#rim" fill="#404040">
                        <set attributeName="fill" to="#808080" begin="arrowDown.mouseover" end="arrowDown.mouseout"/>
                  </use>
                  <path fill="none" stroke="white" stroke-width="1.5" d="M0,-3.0v7 M-2.5,-0.5L0,-3.0L2.5,-0.5"/>
                </g>
                <g id="arrowLeft" xlink:href="#dirArrow" transform="rotate(270) translate(-36 17)" onmousedown="handlePan(-1,0)">
                  <use xlink:href="#rim" fill="#404040">
                        <set attributeName="fill" to="#808080" begin="arrowLeft.mouseover" end="arrowLeft.mouseout"/>
                  </use>
                  <path fill="none" stroke="white" stroke-width="1.5" d="M0,-3.0v7 M-2.5,-0.5L0,-3.0L2.5,-0.5"/>
                </g>
        </g>
        <svg viewBox="0 0 15 15" width="100%" height="30px" preserveAspectRatio="xMaxYMin meet">
         <g id="arrow_out" transform="scale(0.3 0.3)">
          <a xlink:href="classrepo_1_1programs_1_1pythonpackages_1_1pr_1_1SPDataSet_1_1SPDataSet_a9eef53392c7e7ad757cefde737a6cb69_icgraph_org.svg" target="_base">
           <rect id="button" ry="5" rx="5" y="6" x="6" height="38" width="38"
                fill="#f2f5e9" fill-opacity="0.5" stroke="#606060" stroke-width="1.0"/>
           <path id="arrow"
             d="M 11.500037,31.436501 C 11.940474,20.09759 22.043105,11.32322 32.158766,21.979434 L 37.068811,17.246167 C 37.068811,17.246167 37.088388,32 37.088388,32 L 22.160133,31.978069 C 22.160133,31.978069 26.997745,27.140456 26.997745,27.140456 C 18.528582,18.264221 13.291696,25.230495 11.500037,31.436501 z"
             style="fill:#404040;"/>
          </a>
         </g>
        </svg>
</svg>
