<?xml version="1.0" encoding="UTF-8" standalone="no"?>
<!DOCTYPE svg PUBLIC "-//W3C//DTD SVG 1.1//EN"
 "http://www.w3.org/Graphics/SVG/1.1/DTD/svg11.dtd">
<!-- Generated by graphviz version 2.36.0 (20140111.2315)
 -->
<!-- Title: repo.programs.pythonpackages.pr.SPDataSet.SPDataSet.getRawByName Pages: 1 -->
<svg width="1956pt" height="391pt"
 viewBox="0.00 0.00 1956.00 391.26" xmlns="http://www.w3.org/2000/svg" xmlns:xlink="http://www.w3.org/1999/xlink">
<g id="graph0" class="graph" transform="scale(1 1) rotate(0) translate(4 387.26)">
<title>repo.programs.pythonpackages.pr.SPDataSet.SPDataSet.getRawByName</title>
<polygon fill="white" stroke="none" points="-4,4 -4,-387.26 1952,-387.26 1952,4 -4,4"/>
<!-- Node1 -->
<g id="node1" class="node"><title>Node1</title>
<polygon fill="#bfbfbf" stroke="black" points="0,-119.26 0,-149.26 194,-149.26 194,-119.26 0,-119.26"/>
<text text-anchor="start" x="8" y="-137.26" font-family="Helvetica,sans-Serif" font-size="10.00">repo.programs.pythonpackages.pr.</text>
<text text-anchor="middle" x="97" y="-126.26" font-family="Helvetica,sans-Serif" font-size="10.00">SPDataSet.SPDataSet.getRawByName</text>
</g>
<!-- Node2 -->
<g id="node2" class="node"><title>Node2</title>
<g id="a_node2"><a xlink:href="classrepo_1_1programs_1_1pythonpackages_1_1pr_1_1SPDataSet_1_1SPDataSet.html#a3a649b10dc80a63cbbb7ed141f90519f" target="_top" xlink:title="repo.programs.pythonpackages.pr.\lSPDataSet.SPDataSet.getSensorData">
<polygon fill="white" stroke="black" points="230.5,-168.26 230.5,-198.26 417.5,-198.26 417.5,-168.26 230.5,-168.26"/>
<text text-anchor="start" x="238.5" y="-186.26" font-family="Helvetica,sans-Serif" font-size="10.00">repo.programs.pythonpackages.pr.</text>
<text text-anchor="middle" x="324" y="-175.26" font-family="Helvetica,sans-Serif" font-size="10.00">SPDataSet.SPDataSet.getSensorData</text>
</a>
</g>
</g>
<!-- Node1&#45;&gt;Node2 -->
<g id="edge1" class="edge"><title>Node1&#45;&gt;Node2</title>
<path fill="none" stroke="midnightblue" d="M176.912,-151.446C202.073,-156.925 229.701,-162.942 254.094,-168.254"/>
<polygon fill="midnightblue" stroke="midnightblue" points="177.552,-148.003 167.037,-149.295 176.063,-154.843 177.552,-148.003"/>
</g>
<!-- Node3 -->
<g id="node3" class="node"><title>Node3</title>
<g id="a_node3"><a xlink:href="classrepo_1_1programs_1_1pythonpackages_1_1pr_1_1SPDataSet_1_1SPDataSet.html#afe54eeb9f41f503dc478557e4ea2c62a" target="_top" xlink:title="repo.programs.pythonpackages.pr.\lSPDataSet.SPDataSet.rawData">
<polygon fill="white" stroke="black" points="240.5,-119.26 240.5,-149.26 407.5,-149.26 407.5,-119.26 240.5,-119.26"/>
<text text-anchor="start" x="248.5" y="-137.26" font-family="Helvetica,sans-Serif" font-size="10.00">repo.programs.pythonpackages.pr.</text>
<text text-anchor="middle" x="324" y="-126.26" font-family="Helvetica,sans-Serif" font-size="10.00">SPDataSet.SPDataSet.rawData</text>
</a>
</g>
</g>
<!-- Node1&#45;&gt;Node3 -->
<g id="edge2" class="edge"><title>Node1&#45;&gt;Node3</title>
<path fill="none" stroke="midnightblue" d="M204.232,-127.52C216.369,-127.484 228.603,-127.553 240.368,-127.726"/>
<polygon fill="midnightblue" stroke="midnightblue" points="204.054,-124.021 194.073,-127.575 204.092,-131.02 204.054,-124.021"/>
</g>
<!-- Node3&#45;&gt;Node1 -->
<g id="edge27" class="edge"><title>Node3&#45;&gt;Node1</title>
<path fill="none" stroke="midnightblue" d="M230.028,-140.919C218.159,-141.031 205.99,-141.04 194.073,-140.946"/>
<polygon fill="midnightblue" stroke="midnightblue" points="230.411,-144.415 240.368,-140.794 230.326,-137.415 230.411,-144.415"/>
</g>
<!-- Node4 -->
<g id="node4" class="node"><title>Node4</title>
<g id="a_node4"><a xlink:href="classrepo_1_1programs_1_1pythonpackages_1_1pr_1_1SPDataSet_1_1SPDataSet.html#a14656e508d81193e8c71c09d9444e15f" target="_top" xlink:title="repo.programs.pythonpackages.pr.\lSPDataSet.SPDataSet.trigTimes">
<polygon fill="white" stroke="black" points="454.5,-55.2604 454.5,-85.2604 621.5,-85.2604 621.5,-55.2604 454.5,-55.2604"/>
<text text-anchor="start" x="462.5" y="-73.2604" font-family="Helvetica,sans-Serif" font-size="10.00">repo.programs.pythonpackages.pr.</text>
<text text-anchor="middle" x="538" y="-62.2604" font-family="Helvetica,sans-Serif" font-size="10.00">SPDataSet.SPDataSet.trigTimes</text>
</a>
</g>
</g>
<!-- Node3&#45;&gt;Node4 -->
<g id="edge3" class="edge"><title>Node3&#45;&gt;Node4</title>
<path fill="none" stroke="midnightblue" d="M384.507,-116.296C416.896,-106.518 456.507,-94.5602 487.24,-85.2823"/>
<polygon fill="midnightblue" stroke="midnightblue" points="383.266,-113.015 374.705,-119.255 385.289,-119.716 383.266,-113.015"/>
</g>
<!-- Node5 -->
<g id="node5" class="node"><title>Node5</title>
<g id="a_node5"><a xlink:href="classrepo_1_1programs_1_1pythonpackages_1_1pr_1_1SPDataSet_1_1SPDataSet.html#a5b12a3d9fdb93ccbf79a6b7a7893be3f" target="_top" xlink:title="repo.programs.pythonpackages.pr.\lSPDataSet.SPDataSet.cutAmp">
<polygon fill="white" stroke="black" points="668.5,-192.26 668.5,-222.26 835.5,-222.26 835.5,-192.26 668.5,-192.26"/>
<text text-anchor="start" x="676.5" y="-210.26" font-family="Helvetica,sans-Serif" font-size="10.00">repo.programs.pythonpackages.pr.</text>
<text text-anchor="middle" x="752" y="-199.26" font-family="Helvetica,sans-Serif" font-size="10.00">SPDataSet.SPDataSet.cutAmp</text>
</a>
</g>
</g>
<!-- Node3&#45;&gt;Node5 -->
<g id="edge28" class="edge"><title>Node3&#45;&gt;Node5</title>
<path fill="none" stroke="midnightblue" d="M407.016,-151.328C422.596,-154.417 438.783,-157.524 454,-160.26 526.189,-173.241 608.599,-186.131 668.267,-195.119"/>
<polygon fill="midnightblue" stroke="midnightblue" points="407.373,-147.83 396.881,-149.304 406.002,-154.694 407.373,-147.83"/>
</g>
<!-- Node14 -->
<g id="node14" class="node"><title>Node14</title>
<g id="a_node14"><a xlink:href="classrepo_1_1programs_1_1pythonpackages_1_1pr_1_1SPDataSet_1_1SPDataSet.html#a5ad35e931371981e41221502928547d5" target="_top" xlink:title="Check that the calculated apparatus directions fit with the available data. ">
<polygon fill="white" stroke="black" points="1536,-23.2604 1536,-53.2604 1728,-53.2604 1728,-23.2604 1536,-23.2604"/>
<text text-anchor="start" x="1544" y="-41.2604" font-family="Helvetica,sans-Serif" font-size="10.00">repo.programs.pythonpackages.pr.</text>
<text text-anchor="middle" x="1632" y="-30.2604" font-family="Helvetica,sans-Serif" font-size="10.00">SPDataSet.SPDataSet.checkDirections</text>
</a>
</g>
</g>
<!-- Node3&#45;&gt;Node14 -->
<g id="edge33" class="edge"><title>Node3&#45;&gt;Node14</title>
<path fill="none" stroke="midnightblue" d="M349.192,-112.482C373.745,-91.6755 413.773,-61.195 454,-45.2604 578.123,3.90645 617.493,-0.26043 751,-0.26043 751,-0.26043 751,-0.26043 1181,-0.26043 1303.9,-0.26043 1445.01,-14.5073 1535.95,-25.5541"/>
<polygon fill="midnightblue" stroke="midnightblue" points="346.768,-109.951 341.48,-119.132 351.339,-115.252 346.768,-109.951"/>
</g>
<!-- Node15 -->
<g id="node15" class="node"><title>Node15</title>
<g id="a_node15"><a xlink:href="classrepo_1_1programs_1_1pythonpackages_1_1pr_1_1SPDataSet_1_1SPDataSet.html#a6f2c3de2aa708d686f5835f10e2d096d" target="_top" xlink:title="repo.programs.pythonpackages.pr.\lSPDataSet.SPDataSet.pointAmp">
<polygon fill="white" stroke="black" points="882.5,-254.26 882.5,-284.26 1049.5,-284.26 1049.5,-254.26 882.5,-254.26"/>
<text text-anchor="start" x="890.5" y="-272.26" font-family="Helvetica,sans-Serif" font-size="10.00">repo.programs.pythonpackages.pr.</text>
<text text-anchor="middle" x="966" y="-261.26" font-family="Helvetica,sans-Serif" font-size="10.00">SPDataSet.SPDataSet.pointAmp</text>
</a>
</g>
</g>
<!-- Node3&#45;&gt;Node15 -->
<g id="edge31" class="edge"><title>Node3&#45;&gt;Node15</title>
<path fill="none" stroke="midnightblue" d="M406.302,-152.913C410.321,-154.556 414.244,-156.335 418,-158.26 436.534,-167.76 435.649,-178.41 454,-188.26 591.113,-261.862 776.68,-272.941 882.32,-272.413"/>
<polygon fill="midnightblue" stroke="midnightblue" points="407.372,-149.576 396.78,-149.321 404.901,-156.125 407.372,-149.576"/>
</g>
<!-- Node17 -->
<g id="node17" class="node"><title>Node17</title>
<g id="a_node17"><a xlink:href="classrepo_1_1programs_1_1pythonpackages_1_1pr_1_1SPDataSet_1_1SPDataSet.html#a5343a59b34ffebfc31c1dfd06ddfa889" target="_top" xlink:title="repo.programs.pythonpackages.pr.\lSPDataSet.SPDataSet.viewRaw">
<polygon fill="white" stroke="black" points="882.5,-99.2604 882.5,-129.26 1049.5,-129.26 1049.5,-99.2604 882.5,-99.2604"/>
<text text-anchor="start" x="890.5" y="-117.26" font-family="Helvetica,sans-Serif" font-size="10.00">repo.programs.pythonpackages.pr.</text>
<text text-anchor="middle" x="966" y="-106.26" font-family="Helvetica,sans-Serif" font-size="10.00">SPDataSet.SPDataSet.viewRaw</text>
</a>
</g>
</g>
<!-- Node3&#45;&gt;Node17 -->
<g id="edge32" class="edge"><title>Node3&#45;&gt;Node17</title>
<path fill="none" stroke="midnightblue" d="M417.989,-131.355C542.882,-127.452 762.89,-120.576 882.293,-116.845"/>
<polygon fill="midnightblue" stroke="midnightblue" points="417.571,-127.866 407.685,-131.677 417.79,-134.862 417.571,-127.866"/>
</g>
<!-- Node18 -->
<g id="node18" class="node"><title>Node18</title>
<g id="a_node18"><a xlink:href="classrepo_1_1programs_1_1pythonpackages_1_1pr_1_1SPDataSet_1_1SPDataSet.html#a2b09966d9ad35b39ea13988a7c361df6" target="_top" xlink:title="Assume it&#39;s a continuously rotating sample. ">
<polygon fill="white" stroke="black" points="658,-143.26 658,-173.26 846,-173.26 846,-143.26 658,-143.26"/>
<text text-anchor="start" x="666" y="-161.26" font-family="Helvetica,sans-Serif" font-size="10.00">repo.programs.pythonpackages.pr.</text>
<text text-anchor="middle" x="752" y="-150.26" font-family="Helvetica,sans-Serif" font-size="10.00">SPDataSet.SPDataSet.seqAmpFitSplit</text>
</a>
</g>
</g>
<!-- Node3&#45;&gt;Node18 -->
<g id="edge29" class="edge"><title>Node3&#45;&gt;Node18</title>
<path fill="none" stroke="midnightblue" d="M417.936,-139.496C489.05,-143.503 586.682,-149.003 657.849,-153.013"/>
<polygon fill="midnightblue" stroke="midnightblue" points="417.823,-135.984 407.642,-138.916 417.429,-142.973 417.823,-135.984"/>
</g>
<!-- Node4&#45;&gt;Node5 -->
<g id="edge4" class="edge"><title>Node4&#45;&gt;Node5</title>
<path fill="none" stroke="midnightblue" d="M557.45,-93.4511C578.949,-118.933 616.819,-159.287 658,-182.26 664.862,-186.089 672.34,-189.354 679.975,-192.134"/>
<polygon fill="midnightblue" stroke="midnightblue" points="559.879,-90.8966 550.806,-85.4262 554.488,-95.3608 559.879,-90.8966"/>
</g>
<!-- Node4&#45;&gt;Node14 -->
<g id="edge26" class="edge"><title>Node4&#45;&gt;Node14</title>
<path fill="none" stroke="midnightblue" d="M631.742,-59.2673C717.937,-50.0078 849.961,-38.2604 965,-38.2604 965,-38.2604 965,-38.2604 1181,-38.2604 1303.46,-38.2604 1444.67,-38.2604 1535.75,-38.2604"/>
<polygon fill="midnightblue" stroke="midnightblue" points="631.287,-55.796 621.723,-60.3546 632.043,-62.7552 631.287,-55.796"/>
</g>
<!-- Node4&#45;&gt;Node17 -->
<g id="edge25" class="edge"><title>Node4&#45;&gt;Node17</title>
<path fill="none" stroke="midnightblue" d="M631.766,-78.8459C692.694,-84.6031 774.127,-92.5217 846,-100.26 857.789,-101.53 870.228,-102.928 882.443,-104.335"/>
<polygon fill="midnightblue" stroke="midnightblue" points="632.07,-75.3592 621.786,-77.9049 631.413,-82.3283 632.07,-75.3592"/>
</g>
<!-- Node5&#45;&gt;Node5 -->
<g id="edge5" class="edge"><title>Node5&#45;&gt;Node5</title>
<path fill="none" stroke="midnightblue" d="M714.542,-232.858C719.66,-237.231 732.146,-240.26 752,-240.26 785.438,-240.26 797.977,-231.667 789.617,-222.536"/>
<polygon fill="midnightblue" stroke="midnightblue" points="718.037,-232.481 714.383,-222.536 711.038,-232.589 718.037,-232.481"/>
</g>
<!-- Node6 -->
<g id="node6" class="node"><title>Node6</title>
<g id="a_node6"><a xlink:href="classrepo_1_1programs_1_1pythonpackages_1_1pr_1_1SPDataSet_1_1SPDataSet.html#a9eac955cac12a62b72d189aa80b82ec6" target="_top" xlink:title="repo.programs.pythonpackages.pr.\lSPDataSet.SPDataSet.filteredCutAmp">
<polygon fill="white" stroke="black" points="1086.5,-187.26 1086.5,-217.26 1273.5,-217.26 1273.5,-187.26 1086.5,-187.26"/>
<text text-anchor="start" x="1094.5" y="-205.26" font-family="Helvetica,sans-Serif" font-size="10.00">repo.programs.pythonpackages.pr.</text>
<text text-anchor="middle" x="1180" y="-194.26" font-family="Helvetica,sans-Serif" font-size="10.00">SPDataSet.SPDataSet.filteredCutAmp</text>
</a>
</g>
</g>
<!-- Node5&#45;&gt;Node6 -->
<g id="edge6" class="edge"><title>Node5&#45;&gt;Node6</title>
<path fill="none" stroke="midnightblue" d="M845.953,-206.169C917.192,-205.333 1015.03,-204.185 1086.23,-203.349"/>
<polygon fill="midnightblue" stroke="midnightblue" points="845.6,-202.673 835.642,-206.29 845.683,-209.673 845.6,-202.673"/>
</g>
<!-- Node5&#45;&gt;Node15 -->
<g id="edge18" class="edge"><title>Node5&#45;&gt;Node15</title>
<path fill="none" stroke="midnightblue" d="M814.274,-225.18C845.687,-234.367 883.517,-245.43 913.419,-254.175"/>
<polygon fill="midnightblue" stroke="midnightblue" points="814.9,-221.717 804.319,-222.269 812.935,-228.435 814.9,-221.717"/>
</g>
<!-- Node5&#45;&gt;Node17 -->
<g id="edge24" class="edge"><title>Node5&#45;&gt;Node17</title>
<path fill="none" stroke="midnightblue" d="M827.651,-189.026C833.926,-186.941 840.116,-184.685 846,-182.26 881.42,-167.664 919.356,-144.532 942.633,-129.373"/>
<polygon fill="midnightblue" stroke="midnightblue" points="826.23,-185.804 817.752,-192.159 828.342,-192.478 826.23,-185.804"/>
</g>
<!-- Node7 -->
<g id="node7" class="node"><title>Node7</title>
<g id="a_node7"><a xlink:href="classrepo_1_1programs_1_1pythonpackages_1_1pr_1_1SPDataSet_1_1SPDataSet.html#accbfa0185d4e416038e688fc9b55575b" target="_top" xlink:title="repo.programs.pythonpackages.pr.\lSPDataSet.SPDataSet.sequenceAmp">
<polygon fill="white" stroke="black" points="1310,-201.26 1310,-231.26 1494,-231.26 1494,-201.26 1310,-201.26"/>
<text text-anchor="start" x="1318" y="-219.26" font-family="Helvetica,sans-Serif" font-size="10.00">repo.programs.pythonpackages.pr.</text>
<text text-anchor="middle" x="1402" y="-208.26" font-family="Helvetica,sans-Serif" font-size="10.00">SPDataSet.SPDataSet.sequenceAmp</text>
</a>
</g>
</g>
<!-- Node6&#45;&gt;Node7 -->
<g id="edge7" class="edge"><title>Node6&#45;&gt;Node7</title>
<path fill="none" stroke="midnightblue" d="M1283.82,-208.804C1292.51,-209.357 1301.26,-209.913 1309.85,-210.46"/>
<polygon fill="midnightblue" stroke="midnightblue" points="1283.86,-205.299 1273.66,-208.157 1283.42,-212.285 1283.86,-205.299"/>
</g>
<!-- Node7&#45;&gt;Node7 -->
<g id="edge8" class="edge"><title>Node7&#45;&gt;Node7</title>
<path fill="none" stroke="midnightblue" d="M1363.14,-241.858C1368.45,-246.231 1381.4,-249.26 1402,-249.26 1436.69,-249.26 1449.7,-240.667 1441.02,-231.536"/>
<polygon fill="midnightblue" stroke="midnightblue" points="1366.64,-241.479 1362.98,-231.536 1359.64,-241.591 1366.64,-241.479"/>
</g>
<!-- Node8 -->
<g id="node8" class="node"><title>Node8</title>
<g id="a_node8"><a xlink:href="classrepo_1_1programs_1_1pythonpackages_1_1pr_1_1SPDataSet_1_1SPDataSet.html#ac0df54b82a9e993d707f0dafd87a19dd" target="_top" xlink:title="repo.programs.pythonpackages.pr.\lSPDataSet.SPDataSet.labAmp">
<polygon fill="white" stroke="black" points="1548.5,-157.26 1548.5,-187.26 1715.5,-187.26 1715.5,-157.26 1548.5,-157.26"/>
<text text-anchor="start" x="1556.5" y="-175.26" font-family="Helvetica,sans-Serif" font-size="10.00">repo.programs.pythonpackages.pr.</text>
<text text-anchor="middle" x="1632" y="-164.26" font-family="Helvetica,sans-Serif" font-size="10.00">SPDataSet.SPDataSet.labAmp</text>
</a>
</g>
</g>
<!-- Node7&#45;&gt;Node8 -->
<g id="edge9" class="edge"><title>Node7&#45;&gt;Node8</title>
<path fill="none" stroke="midnightblue" d="M1490.8,-199.317C1511.33,-195.354 1533.07,-191.159 1553.14,-187.287"/>
<polygon fill="midnightblue" stroke="midnightblue" points="1489.98,-195.91 1480.83,-201.241 1491.31,-202.783 1489.98,-195.91"/>
</g>
<!-- Node9 -->
<g id="node9" class="node"><title>Node9</title>
<g id="a_node9"><a xlink:href="classrepo_1_1programs_1_1pythonpackages_1_1pr_1_1SPDataSet_1_1SPDataSet.html#a3624263a6738178d243635889b719a90" target="_top" xlink:title="repo.programs.pythonpackages.pr.\lSPDataSet.SPDataSet.viewSid">
<polygon fill="white" stroke="black" points="1775.5,-201.26 1775.5,-231.26 1942.5,-231.26 1942.5,-201.26 1775.5,-201.26"/>
<text text-anchor="start" x="1783.5" y="-219.26" font-family="Helvetica,sans-Serif" font-size="10.00">repo.programs.pythonpackages.pr.</text>
<text text-anchor="middle" x="1859" y="-208.26" font-family="Helvetica,sans-Serif" font-size="10.00">SPDataSet.SPDataSet.viewSid</text>
</a>
</g>
</g>
<!-- Node7&#45;&gt;Node9 -->
<g id="edge15" class="edge"><title>Node7&#45;&gt;Node9</title>
<path fill="none" stroke="midnightblue" d="M1504.54,-216.26C1586.11,-216.26 1699.21,-216.26 1775.31,-216.26"/>
<polygon fill="midnightblue" stroke="midnightblue" points="1504.26,-212.761 1494.26,-216.26 1504.26,-219.761 1504.26,-212.761"/>
</g>
<!-- Node10 -->
<g id="node10" class="node"><title>Node10</title>
<g id="a_node10"><a xlink:href="classrepo_1_1programs_1_1pythonpackages_1_1pr_1_1SPDataSet_1_1SPDataSet.html#acf495c99c803a2a1e23cdaeae34da985" target="_top" xlink:title="repo.programs.pythonpackages.pr.\lSPDataSet.SPDataSet.sidAmp">
<polygon fill="white" stroke="black" points="1548.5,-245.26 1548.5,-275.26 1715.5,-275.26 1715.5,-245.26 1548.5,-245.26"/>
<text text-anchor="start" x="1556.5" y="-263.26" font-family="Helvetica,sans-Serif" font-size="10.00">repo.programs.pythonpackages.pr.</text>
<text text-anchor="middle" x="1632" y="-252.26" font-family="Helvetica,sans-Serif" font-size="10.00">SPDataSet.SPDataSet.sidAmp</text>
</a>
</g>
</g>
<!-- Node7&#45;&gt;Node10 -->
<g id="edge11" class="edge"><title>Node7&#45;&gt;Node10</title>
<path fill="none" stroke="midnightblue" d="M1490.8,-233.204C1511.33,-237.167 1533.07,-241.361 1553.14,-245.234"/>
<polygon fill="midnightblue" stroke="midnightblue" points="1491.31,-229.738 1480.83,-231.28 1489.98,-236.611 1491.31,-229.738"/>
</g>
<!-- Node11 -->
<g id="node11" class="node"><title>Node11</title>
<g id="a_node11"><a xlink:href="classrepo_1_1programs_1_1pythonpackages_1_1pr_1_1SPDataSet_1_1SPDataSet.html#ac55c6ccc03634d3f670f52e89188779c" target="_top" xlink:title="repo.programs.pythonpackages.pr.\lSPDataSet.SPDataSet.viewSeq">
<polygon fill="white" stroke="black" points="1548.5,-301.26 1548.5,-331.26 1715.5,-331.26 1715.5,-301.26 1548.5,-301.26"/>
<text text-anchor="start" x="1556.5" y="-319.26" font-family="Helvetica,sans-Serif" font-size="10.00">repo.programs.pythonpackages.pr.</text>
<text text-anchor="middle" x="1632" y="-308.26" font-family="Helvetica,sans-Serif" font-size="10.00">SPDataSet.SPDataSet.viewSeq</text>
</a>
</g>
</g>
<!-- Node7&#45;&gt;Node11 -->
<g id="edge13" class="edge"><title>Node7&#45;&gt;Node11</title>
<path fill="none" stroke="midnightblue" d="M1436.86,-236.613C1461.98,-251.151 1497.37,-270.494 1530,-284.26 1545,-290.588 1561.7,-296.365 1577.13,-301.215"/>
<polygon fill="midnightblue" stroke="midnightblue" points="1438.5,-233.516 1428.1,-231.493 1434.97,-239.56 1438.5,-233.516"/>
</g>
<!-- Node13 -->
<g id="node13" class="node"><title>Node13</title>
<g id="a_node13"><a xlink:href="classrepo_1_1programs_1_1pythonpackages_1_1pr_1_1SPDataSet_1_1SPDataSet.html#a5aad808c592bfdbb665105df2947610f" target="_top" xlink:title="repo.programs.pythonpackages.pr.\lSPDataSet.SPDataSet.viewCorrelationFilt">
<polygon fill="white" stroke="black" points="1530.5,-353.26 1530.5,-383.26 1733.5,-383.26 1733.5,-353.26 1530.5,-353.26"/>
<text text-anchor="start" x="1538.5" y="-371.26" font-family="Helvetica,sans-Serif" font-size="10.00">repo.programs.pythonpackages.pr.</text>
<text text-anchor="middle" x="1632" y="-360.26" font-family="Helvetica,sans-Serif" font-size="10.00">SPDataSet.SPDataSet.viewCorrelationFilt</text>
</a>
</g>
</g>
<!-- Node7&#45;&gt;Node13 -->
<g id="edge16" class="edge"><title>Node7&#45;&gt;Node13</title>
<path fill="none" stroke="midnightblue" d="M1420.49,-239.367C1442.87,-267.335 1484.25,-313.946 1530,-340.26 1538.99,-345.431 1548.99,-349.688 1559.09,-353.181"/>
<polygon fill="midnightblue" stroke="midnightblue" points="1423.1,-237.027 1414.17,-231.329 1417.6,-241.353 1423.1,-237.027"/>
</g>
<!-- Node7&#45;&gt;Node14 -->
<g id="edge17" class="edge"><title>Node7&#45;&gt;Node14</title>
<path fill="none" stroke="midnightblue" d="M1430.6,-194.709C1477.39,-158.187 1571.1,-85.0233 1611.61,-53.3982"/>
<polygon fill="midnightblue" stroke="midnightblue" points="1428.17,-192.172 1422.44,-201.084 1432.48,-197.689 1428.17,-192.172"/>
</g>
<!-- Node8&#45;&gt;Node9 -->
<g id="edge10" class="edge"><title>Node8&#45;&gt;Node9</title>
<path fill="none" stroke="midnightblue" d="M1719.64,-189.204C1739.91,-193.167 1761.36,-197.361 1781.16,-201.234"/>
<polygon fill="midnightblue" stroke="midnightblue" points="1720.29,-185.764 1709.8,-187.28 1718.95,-192.634 1720.29,-185.764"/>
</g>
<!-- Node10&#45;&gt;Node9 -->
<g id="edge12" class="edge"><title>Node10&#45;&gt;Node9</title>
<path fill="none" stroke="midnightblue" d="M1719.64,-243.317C1739.91,-239.354 1761.36,-235.159 1781.16,-231.287"/>
<polygon fill="midnightblue" stroke="midnightblue" points="1718.95,-239.887 1709.8,-245.241 1720.29,-246.757 1718.95,-239.887"/>
</g>
<!-- Node12 -->
<g id="node12" class="node"><title>Node12</title>
<g id="a_node12"><a xlink:href="classrepo_1_1programs_1_1pythonpackages_1_1pr_1_1SPDataSet_1_1SPDataSet.html#a0c87af10688edd55eb0aea229e5979bb" target="_top" xlink:title="repo.programs.pythonpackages.pr.\lSPDataSet.SPDataSet.viewSensors">
<polygon fill="white" stroke="black" points="1770,-301.26 1770,-331.26 1948,-331.26 1948,-301.26 1770,-301.26"/>
<text text-anchor="start" x="1778" y="-319.26" font-family="Helvetica,sans-Serif" font-size="10.00">repo.programs.pythonpackages.pr.</text>
<text text-anchor="middle" x="1859" y="-308.26" font-family="Helvetica,sans-Serif" font-size="10.00">SPDataSet.SPDataSet.viewSensors</text>
</a>
</g>
</g>
<!-- Node11&#45;&gt;Node12 -->
<g id="edge14" class="edge"><title>Node11&#45;&gt;Node12</title>
<path fill="none" stroke="midnightblue" d="M1725.55,-316.26C1740.19,-316.26 1755.29,-316.26 1769.83,-316.26"/>
<polygon fill="midnightblue" stroke="midnightblue" points="1725.5,-312.761 1715.5,-316.26 1725.5,-319.761 1725.5,-312.761"/>
</g>
<!-- Node15&#45;&gt;Node6 -->
<g id="edge19" class="edge"><title>Node15&#45;&gt;Node6</title>
<path fill="none" stroke="midnightblue" d="M1024.23,-251.173C1057.72,-240.59 1099.5,-227.384 1131.22,-217.362"/>
<polygon fill="midnightblue" stroke="midnightblue" points="1023.06,-247.873 1014.58,-254.224 1025.17,-254.548 1023.06,-247.873"/>
</g>
<!-- Node15&#45;&gt;Node7 -->
<g id="edge20" class="edge"><title>Node15&#45;&gt;Node7</title>
<path fill="none" stroke="midnightblue" d="M1059.87,-257.92C1133.65,-248.91 1236.27,-236.377 1309.65,-227.416"/>
<polygon fill="midnightblue" stroke="midnightblue" points="1059.16,-254.48 1049.65,-259.167 1060,-261.429 1059.16,-254.48"/>
</g>
<!-- Node15&#45;&gt;Node11 -->
<g id="edge21" class="edge"><title>Node15&#45;&gt;Node11</title>
<path fill="none" stroke="midnightblue" d="M1007.2,-288.583C1029.78,-298.379 1058.82,-309.242 1086,-314.26 1247.67,-344.113 1440.94,-334.365 1548.44,-325.019"/>
<polygon fill="midnightblue" stroke="midnightblue" points="1008.49,-285.331 997.934,-284.471 1005.65,-291.728 1008.49,-285.331"/>
</g>
<!-- Node15&#45;&gt;Node13 -->
<g id="edge22" class="edge"><title>Node15&#45;&gt;Node13</title>
<path fill="none" stroke="midnightblue" d="M995.017,-290.279C1018.11,-306.323 1052.42,-327.313 1086,-337.26 1236.05,-381.707 1419.27,-381.713 1530.45,-376.117"/>
<polygon fill="midnightblue" stroke="midnightblue" points="996.92,-287.338 986.74,-284.405 992.869,-293.046 996.92,-287.338"/>
</g>
<!-- Node16 -->
<g id="node16" class="node"><title>Node16</title>
<g id="a_node16"><a xlink:href="classrepo_1_1programs_1_1pythonpackages_1_1pr_1_1SPDataSet_1_1SPDataSet.html#a2ffa7a6de1e0ebd8172db800621eed20" target="_top" xlink:title="repo.programs.pythonpackages.pr.\lSPDataSet.SPDataSet.test_div">
<polygon fill="white" stroke="black" points="1096.5,-275.26 1096.5,-305.26 1263.5,-305.26 1263.5,-275.26 1096.5,-275.26"/>
<text text-anchor="start" x="1104.5" y="-293.26" font-family="Helvetica,sans-Serif" font-size="10.00">repo.programs.pythonpackages.pr.</text>
<text text-anchor="middle" x="1180" y="-282.26" font-family="Helvetica,sans-Serif" font-size="10.00">SPDataSet.SPDataSet.test_div</text>
</a>
</g>
</g>
<!-- Node15&#45;&gt;Node16 -->
<g id="edge23" class="edge"><title>Node15&#45;&gt;Node16</title>
<path fill="none" stroke="midnightblue" d="M1059.73,-278.446C1071.9,-279.652 1084.31,-280.881 1096.3,-282.069"/>
<polygon fill="midnightblue" stroke="midnightblue" points="1059.87,-274.943 1049.57,-277.44 1059.18,-281.908 1059.87,-274.943"/>
</g>
<!-- Node18&#45;&gt;Node7 -->
<g id="edge30" class="edge"><title>Node18&#45;&gt;Node7</title>
<path fill="none" stroke="midnightblue" d="M856.476,-154.13C962.189,-151.753 1130.69,-153.074 1274,-177.26 1304.02,-182.327 1336.85,-192.538 1361.61,-201.24"/>
<polygon fill="midnightblue" stroke="midnightblue" points="856.357,-150.632 846.444,-154.371 856.525,-157.63 856.357,-150.632"/>
</g>
</g>
</svg>
