<?xml version="1.0" encoding="UTF-8" standalone="no"?>
<!DOCTYPE svg PUBLIC "-//W3C//DTD SVG 1.1//EN"
 "http://www.w3.org/Graphics/SVG/1.1/DTD/svg11.dtd">
<!-- Generated by graphviz version 2.36.0 (20140111.2315)
 -->
<!-- Title: repo.programs.pythonpackages.pr.SPDataSet.SPDataSet.clearRaw Pages: 1 -->
<svg width="1936pt" height="448pt"
 viewBox="0.00 0.00 1936.00 448.00" xmlns="http://www.w3.org/2000/svg" xmlns:xlink="http://www.w3.org/1999/xlink">
<g id="graph0" class="graph" transform="scale(1 1) rotate(0) translate(4 444)">
<title>repo.programs.pythonpackages.pr.SPDataSet.SPDataSet.clearRaw</title>
<polygon fill="white" stroke="none" points="-4,4 -4,-444 1932,-444 1932,4 -4,4"/>
<!-- Node1 -->
<g id="node1" class="node"><title>Node1</title>
<polygon fill="#bfbfbf" stroke="black" points="0.5,-108 0.5,-138 167.5,-138 167.5,-108 0.5,-108"/>
<text text-anchor="start" x="8.5" y="-126" font-family="Helvetica,sans-Serif" font-size="10.00">repo.programs.pythonpackages.pr.</text>
<text text-anchor="middle" x="84" y="-115" font-family="Helvetica,sans-Serif" font-size="10.00">SPDataSet.SPDataSet.clearRaw</text>
</g>
<!-- Node2 -->
<g id="node2" class="node"><title>Node2</title>
<g id="a_node2"><a xlink:href="classrepo_1_1programs_1_1pythonpackages_1_1pr_1_1SPDataSet_1_1SPDataSet.html#afe54eeb9f41f503dc478557e4ea2c62a" target="_top" xlink:title="repo.programs.pythonpackages.pr.\lSPDataSet.SPDataSet.rawData">
<polygon fill="white" stroke="black" points="204.5,-108 204.5,-138 371.5,-138 371.5,-108 204.5,-108"/>
<text text-anchor="start" x="212.5" y="-126" font-family="Helvetica,sans-Serif" font-size="10.00">repo.programs.pythonpackages.pr.</text>
<text text-anchor="middle" x="288" y="-115" font-family="Helvetica,sans-Serif" font-size="10.00">SPDataSet.SPDataSet.rawData</text>
</a>
</g>
</g>
<!-- Node1&#45;&gt;Node2 -->
<g id="edge1" class="edge"><title>Node1&#45;&gt;Node2</title>
<path fill="none" stroke="midnightblue" d="M178.018,-123C186.815,-123 195.694,-123 204.385,-123"/>
<polygon fill="midnightblue" stroke="midnightblue" points="177.744,-119.5 167.744,-123 177.744,-126.5 177.744,-119.5"/>
</g>
<!-- Node3 -->
<g id="node3" class="node"><title>Node3</title>
<g id="a_node3"><a xlink:href="classrepo_1_1programs_1_1pythonpackages_1_1pr_1_1SPDataSet_1_1SPDataSet.html#a14656e508d81193e8c71c09d9444e15f" target="_top" xlink:title="repo.programs.pythonpackages.pr.\lSPDataSet.SPDataSet.trigTimes">
<polygon fill="white" stroke="black" points="421.5,-134 421.5,-164 588.5,-164 588.5,-134 421.5,-134"/>
<text text-anchor="start" x="429.5" y="-152" font-family="Helvetica,sans-Serif" font-size="10.00">repo.programs.pythonpackages.pr.</text>
<text text-anchor="middle" x="505" y="-141" font-family="Helvetica,sans-Serif" font-size="10.00">SPDataSet.SPDataSet.trigTimes</text>
</a>
</g>
</g>
<!-- Node2&#45;&gt;Node3 -->
<g id="edge2" class="edge"><title>Node2&#45;&gt;Node3</title>
<path fill="none" stroke="midnightblue" d="M381.555,-134.193C394.789,-135.793 408.33,-137.431 421.356,-139.006"/>
<polygon fill="midnightblue" stroke="midnightblue" points="381.858,-130.704 371.51,-132.978 381.017,-137.653 381.858,-130.704"/>
</g>
<!-- Node4 -->
<g id="node4" class="node"><title>Node4</title>
<g id="a_node4"><a xlink:href="classrepo_1_1programs_1_1pythonpackages_1_1pr_1_1SPDataSet_1_1SPDataSet.html#a5b12a3d9fdb93ccbf79a6b7a7893be3f" target="_top" xlink:title="repo.programs.pythonpackages.pr.\lSPDataSet.SPDataSet.cutAmp">
<polygon fill="white" stroke="black" points="648.5,-251 648.5,-281 815.5,-281 815.5,-251 648.5,-251"/>
<text text-anchor="start" x="656.5" y="-269" font-family="Helvetica,sans-Serif" font-size="10.00">repo.programs.pythonpackages.pr.</text>
<text text-anchor="middle" x="732" y="-258" font-family="Helvetica,sans-Serif" font-size="10.00">SPDataSet.SPDataSet.cutAmp</text>
</a>
</g>
</g>
<!-- Node2&#45;&gt;Node4 -->
<g id="edge29" class="edge"><title>Node2&#45;&gt;Node4</title>
<path fill="none" stroke="midnightblue" d="M314.056,-144.595C336.991,-163.202 372.644,-189.316 408,-204 485.913,-236.359 581.483,-252.018 648.375,-259.475"/>
<polygon fill="midnightblue" stroke="midnightblue" points="316.146,-141.782 306.206,-138.114 311.69,-147.18 316.146,-141.782"/>
</g>
<!-- Node13 -->
<g id="node13" class="node"><title>Node13</title>
<g id="a_node13"><a xlink:href="classrepo_1_1programs_1_1pythonpackages_1_1pr_1_1SPDataSet_1_1SPDataSet.html#a5ad35e931371981e41221502928547d5" target="_top" xlink:title="Check that the calculated apparatus directions fit with the available data. ">
<polygon fill="white" stroke="black" points="1516,-158 1516,-188 1708,-188 1708,-158 1516,-158"/>
<text text-anchor="start" x="1524" y="-176" font-family="Helvetica,sans-Serif" font-size="10.00">repo.programs.pythonpackages.pr.</text>
<text text-anchor="middle" x="1612" y="-165" font-family="Helvetica,sans-Serif" font-size="10.00">SPDataSet.SPDataSet.checkDirections</text>
</a>
</g>
</g>
<!-- Node2&#45;&gt;Node13 -->
<g id="edge34" class="edge"><title>Node2&#45;&gt;Node13</title>
<path fill="none" stroke="midnightblue" d="M362.066,-105.845C449.332,-86.8874 599.973,-59 731,-59 731,-59 731,-59 1161,-59 1320.37,-59 1502.04,-127.023 1576.46,-157.979"/>
<polygon fill="midnightblue" stroke="midnightblue" points="361.281,-102.434 352.263,-107.995 362.781,-109.271 361.281,-102.434"/>
</g>
<!-- Node14 -->
<g id="node14" class="node"><title>Node14</title>
<g id="a_node14"><a xlink:href="classrepo_1_1programs_1_1pythonpackages_1_1pr_1_1SPDataSet_1_1SPDataSet.html#a6f2c3de2aa708d686f5835f10e2d096d" target="_top" xlink:title="repo.programs.pythonpackages.pr.\lSPDataSet.SPDataSet.pointAmp">
<polygon fill="white" stroke="black" points="862.5,-313 862.5,-343 1029.5,-343 1029.5,-313 862.5,-313"/>
<text text-anchor="start" x="870.5" y="-331" font-family="Helvetica,sans-Serif" font-size="10.00">repo.programs.pythonpackages.pr.</text>
<text text-anchor="middle" x="946" y="-320" font-family="Helvetica,sans-Serif" font-size="10.00">SPDataSet.SPDataSet.pointAmp</text>
</a>
</g>
</g>
<!-- Node2&#45;&gt;Node14 -->
<g id="edge32" class="edge"><title>Node2&#45;&gt;Node14</title>
<path fill="none" stroke="midnightblue" d="M306.186,-146.562C327.221,-173.73 365.347,-217.865 408,-243 551.124,-327.341 751.269,-335.889 862.383,-332.995"/>
<polygon fill="midnightblue" stroke="midnightblue" points="308.809,-144.229 299.973,-138.383 303.235,-148.463 308.809,-144.229"/>
</g>
<!-- Node16 -->
<g id="node16" class="node"><title>Node16</title>
<g id="a_node16"><a xlink:href="classrepo_1_1programs_1_1pythonpackages_1_1pr_1_1SPDataSet_1_1SPDataSet.html#a5343a59b34ffebfc31c1dfd06ddfa889" target="_top" xlink:title="repo.programs.pythonpackages.pr.\lSPDataSet.SPDataSet.viewRaw">
<polygon fill="white" stroke="black" points="862.5,-114 862.5,-144 1029.5,-144 1029.5,-114 862.5,-114"/>
<text text-anchor="start" x="870.5" y="-132" font-family="Helvetica,sans-Serif" font-size="10.00">repo.programs.pythonpackages.pr.</text>
<text text-anchor="middle" x="946" y="-121" font-family="Helvetica,sans-Serif" font-size="10.00">SPDataSet.SPDataSet.viewRaw</text>
</a>
</g>
</g>
<!-- Node2&#45;&gt;Node16 -->
<g id="edge33" class="edge"><title>Node2&#45;&gt;Node16</title>
<path fill="none" stroke="midnightblue" d="M381.901,-123.02C444.173,-123.102 528.008,-123.343 602,-124 690.882,-124.79 792.711,-126.358 862.18,-127.529"/>
<polygon fill="midnightblue" stroke="midnightblue" points="381.711,-119.52 371.707,-123.008 381.703,-126.52 381.711,-119.52"/>
</g>
<!-- Node17 -->
<g id="node17" class="node"><title>Node17</title>
<g id="a_node17"><a xlink:href="classrepo_1_1programs_1_1pythonpackages_1_1pr_1_1SPDataSet_1_1SPDataSet.html#aa0b687b3c937bfb4aa71c4a09cac5eb5" target="_top" xlink:title="Names should be of the form &quot;med:Total Position Sensor 1&quot; etc. ">
<polygon fill="white" stroke="black" points="408,-0 408,-30 602,-30 602,-0 408,-0"/>
<text text-anchor="start" x="416" y="-18" font-family="Helvetica,sans-Serif" font-size="10.00">repo.programs.pythonpackages.pr.</text>
<text text-anchor="middle" x="505" y="-7" font-family="Helvetica,sans-Serif" font-size="10.00">SPDataSet.SPDataSet.getRawByName</text>
</a>
</g>
</g>
<!-- Node2&#45;&gt;Node17 -->
<g id="edge26" class="edge"><title>Node2&#45;&gt;Node17</title>
<path fill="none" stroke="midnightblue" d="M308.811,-101.003C331.64,-81.2997 370.805,-53.581 408,-36 412.42,-33.9107 417.022,-31.9195 421.713,-30.0417"/>
<polygon fill="midnightblue" stroke="midnightblue" points="306.272,-98.5782 301.173,-107.865 310.951,-103.785 306.272,-98.5782"/>
</g>
<!-- Node19 -->
<g id="node19" class="node"><title>Node19</title>
<g id="a_node19"><a xlink:href="classrepo_1_1programs_1_1pythonpackages_1_1pr_1_1SPDataSet_1_1SPDataSet.html#a2b09966d9ad35b39ea13988a7c361df6" target="_top" xlink:title="Assume it&#39;s a continuously rotating sample. ">
<polygon fill="white" stroke="black" points="638,-202 638,-232 826,-232 826,-202 638,-202"/>
<text text-anchor="start" x="646" y="-220" font-family="Helvetica,sans-Serif" font-size="10.00">repo.programs.pythonpackages.pr.</text>
<text text-anchor="middle" x="732" y="-209" font-family="Helvetica,sans-Serif" font-size="10.00">SPDataSet.SPDataSet.seqAmpFitSplit</text>
</a>
</g>
</g>
<!-- Node2&#45;&gt;Node19 -->
<g id="edge30" class="edge"><title>Node2&#45;&gt;Node19</title>
<path fill="none" stroke="midnightblue" d="M328.351,-142.613C351.102,-153.163 380.573,-165.51 408,-173 483.887,-193.723 572.591,-204.914 637.821,-210.815"/>
<polygon fill="midnightblue" stroke="midnightblue" points="329.574,-139.321 319.037,-138.221 326.589,-145.652 329.574,-139.321"/>
</g>
<!-- Node3&#45;&gt;Node4 -->
<g id="edge3" class="edge"><title>Node3&#45;&gt;Node4</title>
<path fill="none" stroke="midnightblue" d="M531.57,-170.887C557.019,-191.647 597.956,-222.36 638,-241 646.185,-244.81 655.055,-248.125 663.957,-250.984"/>
<polygon fill="midnightblue" stroke="midnightblue" points="533.494,-167.936 523.557,-164.26 529.033,-173.33 533.494,-167.936"/>
</g>
<!-- Node3&#45;&gt;Node13 -->
<g id="edge25" class="edge"><title>Node3&#45;&gt;Node13</title>
<path fill="none" stroke="midnightblue" d="M598.907,-157.03C687.709,-164.007 825.384,-173 945,-173 945,-173 945,-173 1161,-173 1283.46,-173 1424.67,-173 1515.75,-173"/>
<polygon fill="midnightblue" stroke="midnightblue" points="599.107,-153.535 588.862,-156.233 598.553,-160.513 599.107,-153.535"/>
</g>
<!-- Node3&#45;&gt;Node16 -->
<g id="edge24" class="edge"><title>Node3&#45;&gt;Node16</title>
<path fill="none" stroke="midnightblue" d="M598.882,-144.768C676.929,-141.213 787.43,-136.179 862.425,-132.762"/>
<polygon fill="midnightblue" stroke="midnightblue" points="598.403,-141.287 588.573,-145.238 598.722,-148.279 598.403,-141.287"/>
</g>
<!-- Node4&#45;&gt;Node4 -->
<g id="edge4" class="edge"><title>Node4&#45;&gt;Node4</title>
<path fill="none" stroke="midnightblue" d="M694.542,-291.598C699.66,-295.97 712.146,-299 732,-299 765.438,-299 777.977,-290.406 769.617,-281.275"/>
<polygon fill="midnightblue" stroke="midnightblue" points="698.037,-291.22 694.383,-281.275 691.038,-291.328 698.037,-291.22"/>
</g>
<!-- Node5 -->
<g id="node5" class="node"><title>Node5</title>
<g id="a_node5"><a xlink:href="classrepo_1_1programs_1_1pythonpackages_1_1pr_1_1SPDataSet_1_1SPDataSet.html#a9eac955cac12a62b72d189aa80b82ec6" target="_top" xlink:title="repo.programs.pythonpackages.pr.\lSPDataSet.SPDataSet.filteredCutAmp">
<polygon fill="white" stroke="black" points="1066.5,-243 1066.5,-273 1253.5,-273 1253.5,-243 1066.5,-243"/>
<text text-anchor="start" x="1074.5" y="-261" font-family="Helvetica,sans-Serif" font-size="10.00">repo.programs.pythonpackages.pr.</text>
<text text-anchor="middle" x="1160" y="-250" font-family="Helvetica,sans-Serif" font-size="10.00">SPDataSet.SPDataSet.filteredCutAmp</text>
</a>
</g>
</g>
<!-- Node4&#45;&gt;Node5 -->
<g id="edge5" class="edge"><title>Node4&#45;&gt;Node5</title>
<path fill="none" stroke="midnightblue" d="M825.953,-264.254C897.192,-262.917 995.033,-261.079 1066.23,-259.742"/>
<polygon fill="midnightblue" stroke="midnightblue" points="825.575,-260.761 815.642,-264.448 825.706,-267.76 825.575,-260.761"/>
</g>
<!-- Node4&#45;&gt;Node14 -->
<g id="edge17" class="edge"><title>Node4&#45;&gt;Node14</title>
<path fill="none" stroke="midnightblue" d="M794.274,-283.92C825.687,-293.107 863.517,-304.17 893.419,-312.915"/>
<polygon fill="midnightblue" stroke="midnightblue" points="794.9,-280.456 784.319,-281.008 792.935,-287.175 794.9,-280.456"/>
</g>
<!-- Node4&#45;&gt;Node16 -->
<g id="edge23" class="edge"><title>Node4&#45;&gt;Node16</title>
<path fill="none" stroke="midnightblue" d="M813.57,-247.09C817.86,-245.238 822.033,-243.213 826,-241 871.836,-215.43 913.57,-168.327 933.194,-144.166"/>
<polygon fill="midnightblue" stroke="midnightblue" points="812.032,-243.935 804.025,-250.873 814.611,-250.442 812.032,-243.935"/>
</g>
<!-- Node6 -->
<g id="node6" class="node"><title>Node6</title>
<g id="a_node6"><a xlink:href="classrepo_1_1programs_1_1pythonpackages_1_1pr_1_1SPDataSet_1_1SPDataSet.html#accbfa0185d4e416038e688fc9b55575b" target="_top" xlink:title="repo.programs.pythonpackages.pr.\lSPDataSet.SPDataSet.sequenceAmp">
<polygon fill="white" stroke="black" points="1290,-261 1290,-291 1474,-291 1474,-261 1290,-261"/>
<text text-anchor="start" x="1298" y="-279" font-family="Helvetica,sans-Serif" font-size="10.00">repo.programs.pythonpackages.pr.</text>
<text text-anchor="middle" x="1382" y="-268" font-family="Helvetica,sans-Serif" font-size="10.00">SPDataSet.SPDataSet.sequenceAmp</text>
</a>
</g>
</g>
<!-- Node5&#45;&gt;Node6 -->
<g id="edge6" class="edge"><title>Node5&#45;&gt;Node6</title>
<path fill="none" stroke="midnightblue" d="M1263.82,-266.413C1272.51,-267.124 1281.26,-267.84 1289.85,-268.542"/>
<polygon fill="midnightblue" stroke="midnightblue" points="1263.91,-262.909 1253.66,-265.581 1263.34,-269.885 1263.91,-262.909"/>
</g>
<!-- Node6&#45;&gt;Node6 -->
<g id="edge7" class="edge"><title>Node6&#45;&gt;Node6</title>
<path fill="none" stroke="midnightblue" d="M1343.14,-301.598C1348.45,-305.97 1361.4,-309 1382,-309 1416.69,-309 1429.7,-300.406 1421.02,-291.275"/>
<polygon fill="midnightblue" stroke="midnightblue" points="1346.64,-301.218 1342.98,-291.275 1339.64,-301.33 1346.64,-301.218"/>
</g>
<!-- Node7 -->
<g id="node7" class="node"><title>Node7</title>
<g id="a_node7"><a xlink:href="classrepo_1_1programs_1_1pythonpackages_1_1pr_1_1SPDataSet_1_1SPDataSet.html#ac0df54b82a9e993d707f0dafd87a19dd" target="_top" xlink:title="repo.programs.pythonpackages.pr.\lSPDataSet.SPDataSet.labAmp">
<polygon fill="white" stroke="black" points="1528.5,-217 1528.5,-247 1695.5,-247 1695.5,-217 1528.5,-217"/>
<text text-anchor="start" x="1536.5" y="-235" font-family="Helvetica,sans-Serif" font-size="10.00">repo.programs.pythonpackages.pr.</text>
<text text-anchor="middle" x="1612" y="-224" font-family="Helvetica,sans-Serif" font-size="10.00">SPDataSet.SPDataSet.labAmp</text>
</a>
</g>
</g>
<!-- Node6&#45;&gt;Node7 -->
<g id="edge8" class="edge"><title>Node6&#45;&gt;Node7</title>
<path fill="none" stroke="midnightblue" d="M1470.8,-259.056C1491.33,-255.093 1513.07,-250.899 1533.14,-247.026"/>
<polygon fill="midnightblue" stroke="midnightblue" points="1469.98,-255.649 1460.83,-260.981 1471.31,-262.522 1469.98,-255.649"/>
</g>
<!-- Node8 -->
<g id="node8" class="node"><title>Node8</title>
<g id="a_node8"><a xlink:href="classrepo_1_1programs_1_1pythonpackages_1_1pr_1_1SPDataSet_1_1SPDataSet.html#a3624263a6738178d243635889b719a90" target="_top" xlink:title="repo.programs.pythonpackages.pr.\lSPDataSet.SPDataSet.viewSid">
<polygon fill="white" stroke="black" points="1755.5,-261 1755.5,-291 1922.5,-291 1922.5,-261 1755.5,-261"/>
<text text-anchor="start" x="1763.5" y="-279" font-family="Helvetica,sans-Serif" font-size="10.00">repo.programs.pythonpackages.pr.</text>
<text text-anchor="middle" x="1839" y="-268" font-family="Helvetica,sans-Serif" font-size="10.00">SPDataSet.SPDataSet.viewSid</text>
</a>
</g>
</g>
<!-- Node6&#45;&gt;Node8 -->
<g id="edge14" class="edge"><title>Node6&#45;&gt;Node8</title>
<path fill="none" stroke="midnightblue" d="M1484.54,-276C1566.11,-276 1679.21,-276 1755.31,-276"/>
<polygon fill="midnightblue" stroke="midnightblue" points="1484.26,-272.5 1474.26,-276 1484.26,-279.5 1484.26,-272.5"/>
</g>
<!-- Node9 -->
<g id="node9" class="node"><title>Node9</title>
<g id="a_node9"><a xlink:href="classrepo_1_1programs_1_1pythonpackages_1_1pr_1_1SPDataSet_1_1SPDataSet.html#acf495c99c803a2a1e23cdaeae34da985" target="_top" xlink:title="repo.programs.pythonpackages.pr.\lSPDataSet.SPDataSet.sidAmp">
<polygon fill="white" stroke="black" points="1528.5,-305 1528.5,-335 1695.5,-335 1695.5,-305 1528.5,-305"/>
<text text-anchor="start" x="1536.5" y="-323" font-family="Helvetica,sans-Serif" font-size="10.00">repo.programs.pythonpackages.pr.</text>
<text text-anchor="middle" x="1612" y="-312" font-family="Helvetica,sans-Serif" font-size="10.00">SPDataSet.SPDataSet.sidAmp</text>
</a>
</g>
</g>
<!-- Node6&#45;&gt;Node9 -->
<g id="edge10" class="edge"><title>Node6&#45;&gt;Node9</title>
<path fill="none" stroke="midnightblue" d="M1470.8,-292.944C1491.33,-296.907 1513.07,-301.101 1533.14,-304.974"/>
<polygon fill="midnightblue" stroke="midnightblue" points="1471.31,-289.478 1460.83,-291.019 1469.98,-296.351 1471.31,-289.478"/>
</g>
<!-- Node10 -->
<g id="node10" class="node"><title>Node10</title>
<g id="a_node10"><a xlink:href="classrepo_1_1programs_1_1pythonpackages_1_1pr_1_1SPDataSet_1_1SPDataSet.html#ac55c6ccc03634d3f670f52e89188779c" target="_top" xlink:title="repo.programs.pythonpackages.pr.\lSPDataSet.SPDataSet.viewSeq">
<polygon fill="white" stroke="black" points="1528.5,-359 1528.5,-389 1695.5,-389 1695.5,-359 1528.5,-359"/>
<text text-anchor="start" x="1536.5" y="-377" font-family="Helvetica,sans-Serif" font-size="10.00">repo.programs.pythonpackages.pr.</text>
<text text-anchor="middle" x="1612" y="-366" font-family="Helvetica,sans-Serif" font-size="10.00">SPDataSet.SPDataSet.viewSeq</text>
</a>
</g>
</g>
<!-- Node6&#45;&gt;Node10 -->
<g id="edge12" class="edge"><title>Node6&#45;&gt;Node10</title>
<path fill="none" stroke="midnightblue" d="M1416.32,-296.254C1441.42,-310.911 1477.04,-330.445 1510,-344 1523.62,-349.6 1538.66,-354.645 1552.88,-358.93"/>
<polygon fill="midnightblue" stroke="midnightblue" points="1417.96,-293.16 1407.57,-291.095 1414.41,-299.189 1417.96,-293.16"/>
</g>
<!-- Node12 -->
<g id="node12" class="node"><title>Node12</title>
<g id="a_node12"><a xlink:href="classrepo_1_1programs_1_1pythonpackages_1_1pr_1_1SPDataSet_1_1SPDataSet.html#a5aad808c592bfdbb665105df2947610f" target="_top" xlink:title="repo.programs.pythonpackages.pr.\lSPDataSet.SPDataSet.viewCorrelationFilt">
<polygon fill="white" stroke="black" points="1510.5,-410 1510.5,-440 1713.5,-440 1713.5,-410 1510.5,-410"/>
<text text-anchor="start" x="1518.5" y="-428" font-family="Helvetica,sans-Serif" font-size="10.00">repo.programs.pythonpackages.pr.</text>
<text text-anchor="middle" x="1612" y="-417" font-family="Helvetica,sans-Serif" font-size="10.00">SPDataSet.SPDataSet.viewCorrelationFilt</text>
</a>
</g>
</g>
<!-- Node6&#45;&gt;Node12 -->
<g id="edge15" class="edge"><title>Node6&#45;&gt;Node12</title>
<path fill="none" stroke="midnightblue" d="M1400.89,-299.231C1423.39,-326.853 1464.62,-372.422 1510,-398 1518.46,-402.768 1527.79,-406.723 1537.27,-409.995"/>
<polygon fill="midnightblue" stroke="midnightblue" points="1403.5,-296.897 1394.52,-291.277 1398.04,-301.271 1403.5,-296.897"/>
</g>
<!-- Node6&#45;&gt;Node13 -->
<g id="edge16" class="edge"><title>Node6&#45;&gt;Node13</title>
<path fill="none" stroke="midnightblue" d="M1416.43,-255.766C1441.59,-241.053 1477.22,-221.293 1510,-207 1526.2,-199.937 1544.36,-193.413 1560.78,-188.007"/>
<polygon fill="midnightblue" stroke="midnightblue" points="1414.49,-252.843 1407.66,-260.938 1418.05,-258.873 1414.49,-252.843"/>
</g>
<!-- Node7&#45;&gt;Node8 -->
<g id="edge9" class="edge"><title>Node7&#45;&gt;Node8</title>
<path fill="none" stroke="midnightblue" d="M1699.64,-248.944C1719.91,-252.907 1741.36,-257.101 1761.16,-260.974"/>
<polygon fill="midnightblue" stroke="midnightblue" points="1700.29,-245.504 1689.8,-247.019 1698.95,-252.373 1700.29,-245.504"/>
</g>
<!-- Node9&#45;&gt;Node8 -->
<g id="edge11" class="edge"><title>Node9&#45;&gt;Node8</title>
<path fill="none" stroke="midnightblue" d="M1699.64,-303.056C1719.91,-299.093 1741.36,-294.899 1761.16,-291.026"/>
<polygon fill="midnightblue" stroke="midnightblue" points="1698.95,-299.627 1689.8,-304.981 1700.29,-306.496 1698.95,-299.627"/>
</g>
<!-- Node11 -->
<g id="node11" class="node"><title>Node11</title>
<g id="a_node11"><a xlink:href="classrepo_1_1programs_1_1pythonpackages_1_1pr_1_1SPDataSet_1_1SPDataSet.html#a0c87af10688edd55eb0aea229e5979bb" target="_top" xlink:title="repo.programs.pythonpackages.pr.\lSPDataSet.SPDataSet.viewSensors">
<polygon fill="white" stroke="black" points="1750,-359 1750,-389 1928,-389 1928,-359 1750,-359"/>
<text text-anchor="start" x="1758" y="-377" font-family="Helvetica,sans-Serif" font-size="10.00">repo.programs.pythonpackages.pr.</text>
<text text-anchor="middle" x="1839" y="-366" font-family="Helvetica,sans-Serif" font-size="10.00">SPDataSet.SPDataSet.viewSensors</text>
</a>
</g>
</g>
<!-- Node10&#45;&gt;Node11 -->
<g id="edge13" class="edge"><title>Node10&#45;&gt;Node11</title>
<path fill="none" stroke="midnightblue" d="M1705.55,-374C1720.19,-374 1735.29,-374 1749.83,-374"/>
<polygon fill="midnightblue" stroke="midnightblue" points="1705.5,-370.5 1695.5,-374 1705.5,-377.5 1705.5,-370.5"/>
</g>
<!-- Node14&#45;&gt;Node5 -->
<g id="edge18" class="edge"><title>Node14&#45;&gt;Node5</title>
<path fill="none" stroke="midnightblue" d="M1001.04,-309.679C1021.39,-302.823 1044.74,-295.002 1066,-288 1080.82,-283.118 1097,-277.87 1111.65,-273.15"/>
<polygon fill="midnightblue" stroke="midnightblue" points="999.674,-306.447 991.318,-312.96 1001.91,-313.079 999.674,-306.447"/>
</g>
<!-- Node14&#45;&gt;Node6 -->
<g id="edge19" class="edge"><title>Node14&#45;&gt;Node6</title>
<path fill="none" stroke="midnightblue" d="M1039.87,-316.873C1113.65,-308.033 1216.27,-295.737 1289.65,-286.945"/>
<polygon fill="midnightblue" stroke="midnightblue" points="1039.17,-313.432 1029.65,-318.097 1040,-320.382 1039.17,-313.432"/>
</g>
<!-- Node14&#45;&gt;Node10 -->
<g id="edge20" class="edge"><title>Node14&#45;&gt;Node10</title>
<path fill="none" stroke="midnightblue" d="M989.546,-346.889C1011.84,-355.782 1039.87,-365.425 1066,-370 1227.71,-398.31 1420.56,-390.084 1528.06,-381.842"/>
<polygon fill="midnightblue" stroke="midnightblue" points="990.633,-343.552 980.052,-343.009 987.985,-350.032 990.633,-343.552"/>
</g>
<!-- Node14&#45;&gt;Node12 -->
<g id="edge21" class="edge"><title>Node14&#45;&gt;Node12</title>
<path fill="none" stroke="midnightblue" d="M976.008,-348.623C999.172,-363.873 1033.09,-383.563 1066,-393 1216.33,-436.112 1399.28,-436.944 1510.35,-432.087"/>
<polygon fill="midnightblue" stroke="midnightblue" points="977.934,-345.7 967.682,-343.027 974.029,-351.51 977.934,-345.7"/>
</g>
<!-- Node15 -->
<g id="node15" class="node"><title>Node15</title>
<g id="a_node15"><a xlink:href="classrepo_1_1programs_1_1pythonpackages_1_1pr_1_1SPDataSet_1_1SPDataSet.html#a2ffa7a6de1e0ebd8172db800621eed20" target="_top" xlink:title="repo.programs.pythonpackages.pr.\lSPDataSet.SPDataSet.test_div">
<polygon fill="white" stroke="black" points="1076.5,-331 1076.5,-361 1243.5,-361 1243.5,-331 1076.5,-331"/>
<text text-anchor="start" x="1084.5" y="-349" font-family="Helvetica,sans-Serif" font-size="10.00">repo.programs.pythonpackages.pr.</text>
<text text-anchor="middle" x="1160" y="-338" font-family="Helvetica,sans-Serif" font-size="10.00">SPDataSet.SPDataSet.test_div</text>
</a>
</g>
</g>
<!-- Node14&#45;&gt;Node15 -->
<g id="edge22" class="edge"><title>Node14&#45;&gt;Node15</title>
<path fill="none" stroke="midnightblue" d="M1039.73,-335.873C1051.9,-336.907 1064.31,-337.96 1076.3,-338.979"/>
<polygon fill="midnightblue" stroke="midnightblue" points="1039.83,-332.369 1029.57,-335.011 1039.24,-339.344 1039.83,-332.369"/>
</g>
<!-- Node17&#45;&gt;Node2 -->
<g id="edge28" class="edge"><title>Node17&#45;&gt;Node2</title>
<path fill="none" stroke="midnightblue" d="M463.049,-33.3667C445.658,-39.0568 425.42,-45.7662 408,-54 375.617,-69.3065 341.741,-92.2972 318.452,-107.721"/>
<polygon fill="midnightblue" stroke="midnightblue" points="464.505,-36.5726 472.917,-30.1305 462.324,-29.9212 464.505,-36.5726"/>
</g>
<!-- Node18 -->
<g id="node18" class="node"><title>Node18</title>
<g id="a_node18"><a xlink:href="classrepo_1_1programs_1_1pythonpackages_1_1pr_1_1SPDataSet_1_1SPDataSet.html#a3a649b10dc80a63cbbb7ed141f90519f" target="_top" xlink:title="repo.programs.pythonpackages.pr.\lSPDataSet.SPDataSet.getSensorData">
<polygon fill="white" stroke="black" points="638.5,-0 638.5,-30 825.5,-30 825.5,-0 638.5,-0"/>
<text text-anchor="start" x="646.5" y="-18" font-family="Helvetica,sans-Serif" font-size="10.00">repo.programs.pythonpackages.pr.</text>
<text text-anchor="middle" x="732" y="-7" font-family="Helvetica,sans-Serif" font-size="10.00">SPDataSet.SPDataSet.getSensorData</text>
</a>
</g>
</g>
<!-- Node17&#45;&gt;Node18 -->
<g id="edge27" class="edge"><title>Node17&#45;&gt;Node18</title>
<path fill="none" stroke="midnightblue" d="M612.3,-15C621.042,-15 629.835,-15 638.465,-15"/>
<polygon fill="midnightblue" stroke="midnightblue" points="612.073,-11.5001 602.073,-15 612.073,-18.5001 612.073,-11.5001"/>
</g>
<!-- Node19&#45;&gt;Node6 -->
<g id="edge31" class="edge"><title>Node19&#45;&gt;Node6</title>
<path fill="none" stroke="midnightblue" d="M836.127,-211.269C941.913,-207.462 1110.79,-207.149 1254,-233 1285.96,-238.768 1320.8,-251.019 1345.89,-260.973"/>
<polygon fill="midnightblue" stroke="midnightblue" points="835.951,-207.773 826.09,-211.648 836.215,-214.768 835.951,-207.773"/>
</g>
</g>
</svg>
