<?xml version="1.0" encoding="UTF-8" standalone="no"?>
<!DOCTYPE svg PUBLIC "-//W3C//DTD SVG 1.1//EN"
 "http://www.w3.org/Graphics/SVG/1.1/DTD/svg11.dtd">
<!-- Generated by graphviz version 2.36.0 (20140111.2315)
 -->
<!-- Title: repo.programs.pythonpackages.pr.SPDataSet.SPDataSet.labAmp Pages: 1 -->
<svg width="2134pt" height="568pt"
 viewBox="0.00 0.00 2134.00 568.00" xmlns="http://www.w3.org/2000/svg" xmlns:xlink="http://www.w3.org/1999/xlink">
<g id="graph0" class="graph" transform="scale(1 1) rotate(0) translate(4 564)">
<title>repo.programs.pythonpackages.pr.SPDataSet.SPDataSet.labAmp</title>
<polygon fill="white" stroke="none" points="-4,4 -4,-564 2130,-564 2130,4 -4,4"/>
<!-- Node1 -->
<g id="node1" class="node"><title>Node1</title>
<polygon fill="#bfbfbf" stroke="black" points="0.5,-491 0.5,-521 167.5,-521 167.5,-491 0.5,-491"/>
<text text-anchor="start" x="8.5" y="-509" font-family="Helvetica,sans-Serif" font-size="10.00">repo.programs.pythonpackages.pr.</text>
<text text-anchor="middle" x="84" y="-498" font-family="Helvetica,sans-Serif" font-size="10.00">SPDataSet.SPDataSet.labAmp</text>
</g>
<!-- Node2 -->
<g id="node2" class="node"><title>Node2</title>
<g id="a_node2"><a xlink:href="namespacerepo_1_1programs_1_1pythonpackages_1_1pr_1_1SPDataSet.html#a9d0e07e3e1f4360be4f8c59927abe142" target="_top" xlink:title="Helpful for calling work_func(following_func(**remaining_args), **work_args)) work_args are the entri...">
<polygon fill="white" stroke="black" points="872.5,-529 872.5,-559 1039.5,-559 1039.5,-529 872.5,-529"/>
<text text-anchor="start" x="880.5" y="-547" font-family="Helvetica,sans-Serif" font-size="10.00">repo.programs.pythonpackages.pr.</text>
<text text-anchor="middle" x="956" y="-536" font-family="Helvetica,sans-Serif" font-size="10.00">SPDataSet.divide_args</text>
</a>
</g>
</g>
<!-- Node1&#45;&gt;Node2 -->
<g id="edge1" class="edge"><title>Node1&#45;&gt;Node2</title>
<path fill="none" stroke="midnightblue" d="M167.879,-514.318C277.574,-524.87 477.066,-542.482 648,-549 731.495,-552.184 752.463,-550.754 836,-549 844.562,-548.82 853.468,-548.568 862.382,-548.271"/>
<polygon fill="midnightblue" stroke="midnightblue" points="862.562,-551.767 872.433,-547.918 862.316,-544.771 862.562,-551.767"/>
</g>
<!-- Node3 -->
<g id="node3" class="node"><title>Node3</title>
<g id="a_node3"><a xlink:href="classrepo_1_1programs_1_1pythonpackages_1_1pr_1_1SPDataSet_1_1SPDataSet.html#accbfa0185d4e416038e688fc9b55575b" target="_top" xlink:title="repo.programs.pythonpackages.pr.\lSPDataSet.SPDataSet.sequenceAmp">
<polygon fill="white" stroke="black" points="204,-409 204,-439 388,-439 388,-409 204,-409"/>
<text text-anchor="start" x="212" y="-427" font-family="Helvetica,sans-Serif" font-size="10.00">repo.programs.pythonpackages.pr.</text>
<text text-anchor="middle" x="296" y="-416" font-family="Helvetica,sans-Serif" font-size="10.00">SPDataSet.SPDataSet.sequenceAmp</text>
</a>
</g>
</g>
<!-- Node1&#45;&gt;Node3 -->
<g id="edge2" class="edge"><title>Node1&#45;&gt;Node3</title>
<path fill="none" stroke="midnightblue" d="M123.517,-490.96C158.191,-477.421 209.297,-457.465 246.696,-442.862"/>
<polygon fill="midnightblue" stroke="midnightblue" points="248.33,-445.981 256.372,-439.083 245.784,-439.46 248.33,-445.981"/>
</g>
<!-- Node3&#45;&gt;Node2 -->
<g id="edge16" class="edge"><title>Node3&#45;&gt;Node2</title>
<path fill="none" stroke="midnightblue" d="M348.592,-439.044C371.661,-445.768 399.191,-453.787 424,-461 523.54,-489.942 545.841,-508.412 648,-526 719.273,-538.271 801.075,-542.595 862.309,-543.948"/>
<polygon fill="midnightblue" stroke="midnightblue" points="862.271,-547.447 872.339,-544.147 862.41,-540.449 862.271,-547.447"/>
</g>
<!-- Node3&#45;&gt;Node3 -->
<g id="edge48" class="edge"><title>Node3&#45;&gt;Node3</title>
<path fill="none" stroke="midnightblue" d="M258.734,-439.275C250.453,-448.406 262.875,-457 296,-457 315.668,-457 328.037,-453.97 333.108,-449.598"/>
<polygon fill="midnightblue" stroke="midnightblue" points="336.612,-449.328 333.266,-439.275 329.613,-449.221 336.612,-449.328"/>
</g>
<!-- Node4 -->
<g id="node4" class="node"><title>Node4</title>
<g id="a_node4"><a xlink:href="classrepo_1_1programs_1_1pythonpackages_1_1pr_1_1SPDataSet_1_1SPDataSet.html#af17c964467367b46a56c14a8c87e84a2" target="_top" xlink:title="Property doc string!! ">
<polygon fill="white" stroke="black" points="1523.5,-372 1523.5,-402 1690.5,-402 1690.5,-372 1523.5,-372"/>
<text text-anchor="start" x="1531.5" y="-390" font-family="Helvetica,sans-Serif" font-size="10.00">repo.programs.pythonpackages.pr.</text>
<text text-anchor="middle" x="1607" y="-379" font-family="Helvetica,sans-Serif" font-size="10.00">SPDataSet.SPDataSet.set_info</text>
</a>
</g>
</g>
<!-- Node3&#45;&gt;Node4 -->
<g id="edge3" class="edge"><title>Node3&#45;&gt;Node4</title>
<path fill="none" stroke="midnightblue" d="M388.303,-424.889C586.295,-426.23 1069.87,-426.333 1474,-401 1486.74,-400.202 1500.14,-399.093 1513.33,-397.847"/>
<polygon fill="midnightblue" stroke="midnightblue" points="1513.74,-401.323 1523.36,-396.869 1513.06,-394.356 1513.74,-401.323"/>
</g>
<!-- Node5 -->
<g id="node5" class="node"><title>Node5</title>
<g id="a_node5"><a xlink:href="classrepo_1_1programs_1_1pythonpackages_1_1pr_1_1SPDataSet_1_1SPDataSet.html#a2b09966d9ad35b39ea13988a7c361df6" target="_top" xlink:title="Assume it&#39;s a continuously rotating sample. ">
<polygon fill="white" stroke="black" points="648,-453 648,-483 836,-483 836,-453 648,-453"/>
<text text-anchor="start" x="656" y="-471" font-family="Helvetica,sans-Serif" font-size="10.00">repo.programs.pythonpackages.pr.</text>
<text text-anchor="middle" x="742" y="-460" font-family="Helvetica,sans-Serif" font-size="10.00">SPDataSet.SPDataSet.seqAmpFitSplit</text>
</a>
</g>
</g>
<!-- Node3&#45;&gt;Node5 -->
<g id="edge4" class="edge"><title>Node3&#45;&gt;Node5</title>
<path fill="none" stroke="midnightblue" d="M388.205,-434.226C400.24,-435.525 412.415,-436.813 424,-438 495.237,-445.297 575.547,-452.891 637.509,-458.612"/>
<polygon fill="midnightblue" stroke="midnightblue" points="637.402,-462.117 647.682,-459.55 638.045,-455.147 637.402,-462.117"/>
</g>
<!-- Node14 -->
<g id="node14" class="node"><title>Node14</title>
<g id="a_node14"><a xlink:href="classrepo_1_1programs_1_1pythonpackages_1_1pr_1_1SPDataSet_1_1SPDataSet.html#a6f2c3de2aa708d686f5835f10e2d096d" target="_top" xlink:title="repo.programs.pythonpackages.pr.\lSPDataSet.SPDataSet.pointAmp">
<polygon fill="white" stroke="black" points="658.5,-321 658.5,-351 825.5,-351 825.5,-321 658.5,-321"/>
<text text-anchor="start" x="666.5" y="-339" font-family="Helvetica,sans-Serif" font-size="10.00">repo.programs.pythonpackages.pr.</text>
<text text-anchor="middle" x="742" y="-328" font-family="Helvetica,sans-Serif" font-size="10.00">SPDataSet.SPDataSet.pointAmp</text>
</a>
</g>
</g>
<!-- Node3&#45;&gt;Node14 -->
<g id="edge17" class="edge"><title>Node3&#45;&gt;Node14</title>
<path fill="none" stroke="midnightblue" d="M317.769,-408.961C341.943,-392.381 383.713,-366.531 424,-355 497.332,-334.01 583.985,-330.158 648.145,-331.051"/>
<polygon fill="midnightblue" stroke="midnightblue" points="648.182,-334.552 658.244,-331.233 648.308,-327.553 648.182,-334.552"/>
</g>
<!-- Node23 -->
<g id="node23" class="node"><title>Node23</title>
<g id="a_node23"><a xlink:href="classrepo_1_1programs_1_1pythonpackages_1_1pr_1_1SPDataSet_1_1SPDataSet.html#aee6249fe272c46f07d0f2f32f6c188d2" target="_top" xlink:title="repo.programs.pythonpackages.pr.\lSPDataSet.SPDataSet.apparatusAngles">
<polygon fill="white" stroke="black" points="1076,-157 1076,-187 1270,-187 1270,-157 1076,-157"/>
<text text-anchor="start" x="1084" y="-175" font-family="Helvetica,sans-Serif" font-size="10.00">repo.programs.pythonpackages.pr.</text>
<text text-anchor="middle" x="1173" y="-164" font-family="Helvetica,sans-Serif" font-size="10.00">SPDataSet.SPDataSet.apparatusAngles</text>
</a>
</g>
</g>
<!-- Node3&#45;&gt;Node23 -->
<g id="edge47" class="edge"><title>Node3&#45;&gt;Node23</title>
<path fill="none" stroke="midnightblue" d="M313.416,-408.659C336.495,-387.812 380.588,-350.553 424,-328 609.593,-231.582 666.068,-220.514 872,-184 935.548,-172.732 1007.8,-169.557 1065.48,-169.282"/>
<polygon fill="midnightblue" stroke="midnightblue" points="1065.71,-172.781 1075.7,-169.262 1065.69,-165.781 1065.71,-172.781"/>
</g>
<!-- Node26 -->
<g id="node26" class="node"><title>Node26</title>
<g id="a_node26"><a xlink:href="classrepo_1_1programs_1_1pythonpackages_1_1pr_1_1SPDataSet_1_1SPDataSet.html#a9eac955cac12a62b72d189aa80b82ec6" target="_top" xlink:title="repo.programs.pythonpackages.pr.\lSPDataSet.SPDataSet.filteredCutAmp">
<polygon fill="white" stroke="black" points="424.5,-365 424.5,-395 611.5,-395 611.5,-365 424.5,-365"/>
<text text-anchor="start" x="432.5" y="-383" font-family="Helvetica,sans-Serif" font-size="10.00">repo.programs.pythonpackages.pr.</text>
<text text-anchor="middle" x="518" y="-372" font-family="Helvetica,sans-Serif" font-size="10.00">SPDataSet.SPDataSet.filteredCutAmp</text>
</a>
</g>
</g>
<!-- Node3&#45;&gt;Node26 -->
<g id="edge42" class="edge"><title>Node3&#45;&gt;Node26</title>
<path fill="none" stroke="midnightblue" d="M372.096,-408.981C391.37,-405.126 412.239,-400.952 431.976,-397.005"/>
<polygon fill="midnightblue" stroke="midnightblue" points="432.75,-400.419 441.869,-395.026 431.377,-393.555 432.75,-400.419"/>
</g>
<!-- Node5&#45;&gt;Node2 -->
<g id="edge5" class="edge"><title>Node5&#45;&gt;Node2</title>
<path fill="none" stroke="midnightblue" d="M793.053,-483.07C807.056,-487.577 822.213,-492.73 836,-498 852.355,-504.252 855.756,-507.464 872,-514 881.587,-517.857 891.884,-521.765 901.85,-525.428"/>
<polygon fill="midnightblue" stroke="midnightblue" points="900.677,-528.725 911.271,-528.855 903.07,-522.147 900.677,-528.725"/>
</g>
<!-- Node5&#45;&gt;Node4 -->
<g id="edge15" class="edge"><title>Node5&#45;&gt;Node4</title>
<path fill="none" stroke="midnightblue" d="M815.874,-483.037C949.743,-507.578 1242.33,-546.807 1474,-476 1516.75,-462.936 1558.16,-430.861 1582.87,-409.007"/>
<polygon fill="midnightblue" stroke="midnightblue" points="1585.52,-411.333 1590.59,-402.03 1580.82,-406.141 1585.52,-411.333"/>
</g>
<!-- Node6 -->
<g id="node6" class="node"><title>Node6</title>
<g id="a_node6"><a xlink:href="classrepo_1_1programs_1_1pythonpackages_1_1pr_1_1SPDataSet_1_1SPDataSet.html#afe54eeb9f41f503dc478557e4ea2c62a" target="_top" xlink:title="repo.programs.pythonpackages.pr.\lSPDataSet.SPDataSet.rawData">
<polygon fill="white" stroke="black" points="1306.5,-289 1306.5,-319 1473.5,-319 1473.5,-289 1306.5,-289"/>
<text text-anchor="start" x="1314.5" y="-307" font-family="Helvetica,sans-Serif" font-size="10.00">repo.programs.pythonpackages.pr.</text>
<text text-anchor="middle" x="1390" y="-296" font-family="Helvetica,sans-Serif" font-size="10.00">SPDataSet.SPDataSet.rawData</text>
</a>
</g>
</g>
<!-- Node5&#45;&gt;Node6 -->
<g id="edge6" class="edge"><title>Node5&#45;&gt;Node6</title>
<path fill="none" stroke="midnightblue" d="M802.328,-452.938C921.981,-422.562 1191.67,-354.096 1319.4,-321.669"/>
<polygon fill="midnightblue" stroke="midnightblue" points="1320.63,-324.968 1329.46,-319.115 1318.91,-318.183 1320.63,-324.968"/>
</g>
<!-- Node7 -->
<g id="node7" class="node"><title>Node7</title>
<g id="a_node7"><a xlink:href="classrepo_1_1programs_1_1pythonpackages_1_1pr_1_1SPDataSet_1_1SPDataSet.html#aa400ad81219e782fe2e29e852b20bb28" target="_top" xlink:title="repo.programs.pythonpackages.pr.\lSPDataSet.SPDataSet.fastD">
<polygon fill="white" stroke="black" points="1523.5,-225 1523.5,-255 1690.5,-255 1690.5,-225 1523.5,-225"/>
<text text-anchor="start" x="1531.5" y="-243" font-family="Helvetica,sans-Serif" font-size="10.00">repo.programs.pythonpackages.pr.</text>
<text text-anchor="middle" x="1607" y="-232" font-family="Helvetica,sans-Serif" font-size="10.00">SPDataSet.SPDataSet.fastD</text>
</a>
</g>
</g>
<!-- Node6&#45;&gt;Node7 -->
<g id="edge7" class="edge"><title>Node6&#45;&gt;Node7</title>
<path fill="none" stroke="midnightblue" d="M1443.95,-288.934C1453.99,-285.828 1464.36,-282.448 1474,-279 1490.32,-273.16 1493.55,-269.451 1510,-264 1516.52,-261.84 1523.34,-259.77 1530.22,-257.814"/>
<polygon fill="midnightblue" stroke="midnightblue" points="1531.59,-261.066 1540.3,-255.032 1529.73,-254.318 1531.59,-261.066"/>
</g>
<!-- Node12 -->
<g id="node12" class="node"><title>Node12</title>
<g id="a_node12"><a xlink:href="classrepo_1_1programs_1_1pythonpackages_1_1pr_1_1SPDataSet_1_1SPDataSet.html#aa0b687b3c937bfb4aa71c4a09cac5eb5" target="_top" xlink:title="Names should be of the form &quot;med:Total Position Sensor 1&quot; etc. ">
<polygon fill="white" stroke="black" points="1510,-323 1510,-353 1704,-353 1704,-323 1510,-323"/>
<text text-anchor="start" x="1518" y="-341" font-family="Helvetica,sans-Serif" font-size="10.00">repo.programs.pythonpackages.pr.</text>
<text text-anchor="middle" x="1607" y="-330" font-family="Helvetica,sans-Serif" font-size="10.00">SPDataSet.SPDataSet.getRawByName</text>
</a>
</g>
</g>
<!-- Node6&#45;&gt;Node12 -->
<g id="edge12" class="edge"><title>Node6&#45;&gt;Node12</title>
<path fill="none" stroke="midnightblue" d="M1473.51,-310.463C1495.19,-313.6 1518.3,-317.349 1539.05,-321.108"/>
<polygon fill="midnightblue" stroke="midnightblue" points="1538.56,-324.577 1549.03,-322.952 1539.83,-317.694 1538.56,-324.577"/>
</g>
<!-- Node13 -->
<g id="node13" class="node"><title>Node13</title>
<g id="a_node13"><a xlink:href="classrepo_1_1programs_1_1pythonpackages_1_1pr_1_1SPDataSet_1_1SPDataSet.html#a33ced34e094ccfd1e3891b92478613e7" target="_top" xlink:title="repo.programs.pythonpackages.pr.\lSPDataSet.SPDataSet.clearRaw">
<polygon fill="white" stroke="black" points="1523.5,-274 1523.5,-304 1690.5,-304 1690.5,-274 1523.5,-274"/>
<text text-anchor="start" x="1531.5" y="-292" font-family="Helvetica,sans-Serif" font-size="10.00">repo.programs.pythonpackages.pr.</text>
<text text-anchor="middle" x="1607" y="-281" font-family="Helvetica,sans-Serif" font-size="10.00">SPDataSet.SPDataSet.clearRaw</text>
</a>
</g>
</g>
<!-- Node6&#45;&gt;Node13 -->
<g id="edge14" class="edge"><title>Node6&#45;&gt;Node13</title>
<path fill="none" stroke="midnightblue" d="M1473.51,-298.244C1486.53,-297.335 1500.07,-296.39 1513.31,-295.467"/>
<polygon fill="midnightblue" stroke="midnightblue" points="1513.62,-298.953 1523.36,-294.766 1513.14,-291.97 1513.62,-298.953"/>
</g>
<!-- Node8 -->
<g id="node8" class="node"><title>Node8</title>
<g id="a_node8"><a xlink:href="classrepo_1_1programs_1_1pythonpackages_1_1pr_1_1SPDataSet_1_1SPDataSet.html#a1e4c1d502ec5ff9a57bf9a330a318a54" target="_top" xlink:title="repo.programs.pythonpackages.pr.\lSPDataSet.SPDataSet.splitRecArray">
<polygon fill="white" stroke="black" points="1740.5,-178 1740.5,-208 1921.5,-208 1921.5,-178 1740.5,-178"/>
<text text-anchor="start" x="1748.5" y="-196" font-family="Helvetica,sans-Serif" font-size="10.00">repo.programs.pythonpackages.pr.</text>
<text text-anchor="middle" x="1831" y="-185" font-family="Helvetica,sans-Serif" font-size="10.00">SPDataSet.SPDataSet.splitRecArray</text>
</a>
</g>
</g>
<!-- Node7&#45;&gt;Node8 -->
<g id="edge8" class="edge"><title>Node7&#45;&gt;Node8</title>
<path fill="none" stroke="midnightblue" d="M1678.85,-225C1701.18,-220.272 1726.01,-215.015 1748.99,-210.15"/>
<polygon fill="midnightblue" stroke="midnightblue" points="1750,-213.514 1759.06,-208.019 1748.55,-206.666 1750,-213.514"/>
</g>
<!-- Node9 -->
<g id="node9" class="node"><title>Node9</title>
<g id="a_node9"><a xlink:href="classrepo_1_1programs_1_1pythonpackages_1_1pr_1_1SPDataSet_1_1SPDataSet.html#af0f40f6c14b1ba1c8de9351a839eb511" target="_top" xlink:title="repo.programs.pythonpackages.pr.\lSPDataSet.SPDataSet.calArr">
<polygon fill="white" stroke="black" points="1747.5,-227 1747.5,-257 1914.5,-257 1914.5,-227 1747.5,-227"/>
<text text-anchor="start" x="1755.5" y="-245" font-family="Helvetica,sans-Serif" font-size="10.00">repo.programs.pythonpackages.pr.</text>
<text text-anchor="middle" x="1831" y="-234" font-family="Helvetica,sans-Serif" font-size="10.00">SPDataSet.SPDataSet.calArr</text>
</a>
</g>
</g>
<!-- Node7&#45;&gt;Node9 -->
<g id="edge9" class="edge"><title>Node7&#45;&gt;Node9</title>
<path fill="none" stroke="midnightblue" d="M1690.66,-240.745C1705.83,-240.881 1721.76,-241.025 1737.2,-241.164"/>
<polygon fill="midnightblue" stroke="midnightblue" points="1737.24,-244.664 1747.27,-241.255 1737.3,-237.665 1737.24,-244.664"/>
</g>
<!-- Node10 -->
<g id="node10" class="node"><title>Node10</title>
<g id="a_node10"><a xlink:href="classrepo_1_1programs_1_1pythonpackages_1_1pr_1_1SPDataSet_1_1SPDataSet.html#a6e8c2848a25079fc869ab950445213b8" target="_top" xlink:title="repo.programs.pythonpackages.pr.\lSPDataSet.SPDataSet.zeroingD">
<polygon fill="white" stroke="black" points="1958.5,-252 1958.5,-282 2125.5,-282 2125.5,-252 1958.5,-252"/>
<text text-anchor="start" x="1966.5" y="-270" font-family="Helvetica,sans-Serif" font-size="10.00">repo.programs.pythonpackages.pr.</text>
<text text-anchor="middle" x="2042" y="-259" font-family="Helvetica,sans-Serif" font-size="10.00">SPDataSet.SPDataSet.zeroingD</text>
</a>
</g>
</g>
<!-- Node9&#45;&gt;Node10 -->
<g id="edge10" class="edge"><title>Node9&#45;&gt;Node10</title>
<path fill="none" stroke="midnightblue" d="M1914.6,-251.881C1925.61,-253.197 1936.96,-254.555 1948.12,-255.89"/>
<polygon fill="midnightblue" stroke="midnightblue" points="1947.97,-259.397 1958.31,-257.109 1948.8,-252.446 1947.97,-259.397"/>
</g>
<!-- Node11 -->
<g id="node11" class="node"><title>Node11</title>
<g id="a_node11"><a xlink:href="classrepo_1_1programs_1_1pythonpackages_1_1pr_1_1SPDataSet_1_1SPDataSet.html#aa287beda17e46a3969a9321e5904eaed" target="_top" xlink:title="repo.programs.pythonpackages.pr.\lSPDataSet.SPDataSet.cBzCal">
<polygon fill="white" stroke="black" points="1958.5,-203 1958.5,-233 2125.5,-233 2125.5,-203 1958.5,-203"/>
<text text-anchor="start" x="1966.5" y="-221" font-family="Helvetica,sans-Serif" font-size="10.00">repo.programs.pythonpackages.pr.</text>
<text text-anchor="middle" x="2042" y="-210" font-family="Helvetica,sans-Serif" font-size="10.00">SPDataSet.SPDataSet.cBzCal</text>
</a>
</g>
</g>
<!-- Node9&#45;&gt;Node11 -->
<g id="edge11" class="edge"><title>Node9&#45;&gt;Node11</title>
<path fill="none" stroke="midnightblue" d="M1914.6,-232.515C1925.61,-231.251 1936.96,-229.948 1948.12,-228.665"/>
<polygon fill="midnightblue" stroke="midnightblue" points="1948.78,-232.113 1958.31,-227.495 1947.98,-225.159 1948.78,-232.113"/>
</g>
<!-- Node12&#45;&gt;Node6 -->
<g id="edge13" class="edge"><title>Node12&#45;&gt;Node6</title>
<path fill="none" stroke="midnightblue" d="M1509.79,-329.502C1492.24,-326.83 1474.28,-323.851 1457.81,-320.866"/>
<polygon fill="midnightblue" stroke="midnightblue" points="1458.24,-317.386 1447.77,-319.009 1456.97,-324.269 1458.24,-317.386"/>
</g>
<!-- Node14&#45;&gt;Node2 -->
<g id="edge20" class="edge"><title>Node14&#45;&gt;Node2</title>
<path fill="none" stroke="midnightblue" d="M758.589,-351.295C795.664,-387.67 889.22,-479.461 932.454,-521.879"/>
<polygon fill="midnightblue" stroke="midnightblue" points="930.085,-524.458 939.674,-528.963 934.987,-519.462 930.085,-524.458"/>
</g>
<!-- Node14&#45;&gt;Node4 -->
<g id="edge18" class="edge"><title>Node14&#45;&gt;Node4</title>
<path fill="none" stroke="midnightblue" d="M825.606,-338.347C961.164,-342.585 1239.23,-352.9 1474,-372 1486.73,-373.036 1500.13,-374.325 1513.32,-375.711"/>
<polygon fill="midnightblue" stroke="midnightblue" points="1513.03,-379.2 1523.34,-376.786 1513.77,-372.239 1513.03,-379.2"/>
</g>
<!-- Node14&#45;&gt;Node6 -->
<g id="edge19" class="edge"><title>Node14&#45;&gt;Node6</title>
<path fill="none" stroke="midnightblue" d="M825.801,-331.898C946.543,-325.917 1170.23,-314.837 1296.32,-308.591"/>
<polygon fill="midnightblue" stroke="midnightblue" points="1296.53,-312.085 1306.35,-308.094 1296.19,-305.093 1296.53,-312.085"/>
</g>
<!-- Node15 -->
<g id="node15" class="node"><title>Node15</title>
<g id="a_node15"><a xlink:href="classrepo_1_1programs_1_1pythonpackages_1_1pr_1_1SPDataSet_1_1SPDataSet.html#a5b12a3d9fdb93ccbf79a6b7a7893be3f" target="_top" xlink:title="repo.programs.pythonpackages.pr.\lSPDataSet.SPDataSet.cutAmp">
<polygon fill="white" stroke="black" points="872.5,-233 872.5,-263 1039.5,-263 1039.5,-233 872.5,-233"/>
<text text-anchor="start" x="880.5" y="-251" font-family="Helvetica,sans-Serif" font-size="10.00">repo.programs.pythonpackages.pr.</text>
<text text-anchor="middle" x="956" y="-240" font-family="Helvetica,sans-Serif" font-size="10.00">SPDataSet.SPDataSet.cutAmp</text>
</a>
</g>
</g>
<!-- Node14&#45;&gt;Node15 -->
<g id="edge21" class="edge"><title>Node14&#45;&gt;Node15</title>
<path fill="none" stroke="midnightblue" d="M779.444,-320.872C815.35,-305.968 870.321,-283.15 909.169,-267.024"/>
<polygon fill="midnightblue" stroke="midnightblue" points="910.783,-270.144 918.677,-263.077 908.1,-263.679 910.783,-270.144"/>
</g>
<!-- Node14&#45;&gt;Node23 -->
<g id="edge41" class="edge"><title>Node14&#45;&gt;Node23</title>
<path fill="none" stroke="midnightblue" d="M755.443,-320.608C776.552,-295.658 821.989,-246.782 872,-223 905.72,-206.965 993.665,-193.089 1065.67,-183.876"/>
<polygon fill="midnightblue" stroke="midnightblue" points="1066.24,-187.333 1075.72,-182.608 1065.36,-180.388 1066.24,-187.333"/>
</g>
<!-- Node15&#45;&gt;Node6 -->
<g id="edge22" class="edge"><title>Node15&#45;&gt;Node6</title>
<path fill="none" stroke="midnightblue" d="M1039.53,-258.698C1112.89,-268.208 1220.03,-282.097 1296.32,-291.985"/>
<polygon fill="midnightblue" stroke="midnightblue" points="1296.03,-295.478 1306.4,-293.292 1296.93,-288.536 1296.03,-295.478"/>
</g>
<!-- Node15&#45;&gt;Node15 -->
<g id="edge36" class="edge"><title>Node15&#45;&gt;Node15</title>
<path fill="none" stroke="midnightblue" d="M918.383,-263.275C910.023,-272.406 922.562,-281 956,-281 975.854,-281 988.34,-277.97 993.458,-273.598"/>
<polygon fill="midnightblue" stroke="midnightblue" points="996.962,-273.328 993.617,-263.275 989.963,-273.22 996.962,-273.328"/>
</g>
<!-- Node16 -->
<g id="node16" class="node"><title>Node16</title>
<g id="a_node16"><a xlink:href="classrepo_1_1programs_1_1pythonpackages_1_1pr_1_1SPDataSet_1_1SPDataSet.html#a14656e508d81193e8c71c09d9444e15f" target="_top" xlink:title="repo.programs.pythonpackages.pr.\lSPDataSet.SPDataSet.trigTimes">
<polygon fill="white" stroke="black" points="1089.5,-206 1089.5,-236 1256.5,-236 1256.5,-206 1089.5,-206"/>
<text text-anchor="start" x="1097.5" y="-224" font-family="Helvetica,sans-Serif" font-size="10.00">repo.programs.pythonpackages.pr.</text>
<text text-anchor="middle" x="1173" y="-213" font-family="Helvetica,sans-Serif" font-size="10.00">SPDataSet.SPDataSet.trigTimes</text>
</a>
</g>
</g>
<!-- Node15&#45;&gt;Node16 -->
<g id="edge23" class="edge"><title>Node15&#45;&gt;Node16</title>
<path fill="none" stroke="midnightblue" d="M1039.51,-237.638C1052.53,-236.003 1066.07,-234.302 1079.31,-232.64"/>
<polygon fill="midnightblue" stroke="midnightblue" points="1079.87,-236.097 1089.36,-231.379 1079,-229.152 1079.87,-236.097"/>
</g>
<!-- Node15&#45;&gt;Node23 -->
<g id="edge37" class="edge"><title>Node15&#45;&gt;Node23</title>
<path fill="none" stroke="midnightblue" d="M1003.78,-232.958C1015.78,-228.594 1028.54,-223.505 1040,-218 1056.9,-209.883 1058.71,-203.246 1076,-196 1081.05,-193.884 1086.33,-191.923 1091.71,-190.111"/>
<polygon fill="midnightblue" stroke="midnightblue" points="1092.99,-193.376 1101.46,-187.009 1090.87,-186.705 1092.99,-193.376"/>
</g>
<!-- Node16&#45;&gt;Node6 -->
<g id="edge25" class="edge"><title>Node16&#45;&gt;Node6</title>
<path fill="none" stroke="midnightblue" d="M1223.81,-236.016C1238.97,-241.278 1255.45,-247.717 1270,-255 1287.19,-263.609 1288.6,-270.804 1306,-279 1310.94,-281.325 1316.14,-283.493 1321.43,-285.501"/>
<polygon fill="midnightblue" stroke="midnightblue" points="1320.43,-288.86 1331.02,-288.944 1322.79,-282.271 1320.43,-288.86"/>
</g>
<!-- Node16&#45;&gt;Node7 -->
<g id="edge24" class="edge"><title>Node16&#45;&gt;Node7</title>
<path fill="none" stroke="midnightblue" d="M1256.81,-222.469C1317.08,-223.786 1400.63,-226.122 1474,-230 1486.71,-230.672 1500.1,-231.521 1513.28,-232.439"/>
<polygon fill="midnightblue" stroke="midnightblue" points="1513.08,-235.934 1523.3,-233.153 1513.57,-228.951 1513.08,-235.934"/>
</g>
<!-- Node17 -->
<g id="node17" class="node"><title>Node17</title>
<g id="a_node17"><a xlink:href="classrepo_1_1programs_1_1pythonpackages_1_1pr_1_1SPDataSet_1_1SPDataSet.html#a9eef53392c7e7ad757cefde737a6cb69" target="_top" xlink:title="repo.programs.pythonpackages.pr.\lSPDataSet.SPDataSet.medD">
<polygon fill="white" stroke="black" points="1306.5,-152 1306.5,-182 1473.5,-182 1473.5,-152 1306.5,-152"/>
<text text-anchor="start" x="1314.5" y="-170" font-family="Helvetica,sans-Serif" font-size="10.00">repo.programs.pythonpackages.pr.</text>
<text text-anchor="middle" x="1390" y="-159" font-family="Helvetica,sans-Serif" font-size="10.00">SPDataSet.SPDataSet.medD</text>
</a>
</g>
</g>
<!-- Node16&#45;&gt;Node17 -->
<g id="edge26" class="edge"><title>Node16&#45;&gt;Node17</title>
<path fill="none" stroke="midnightblue" d="M1233.89,-205.958C1260.34,-199.315 1291.6,-191.462 1319.11,-184.554"/>
<polygon fill="midnightblue" stroke="midnightblue" points="1320.21,-187.886 1329.06,-182.055 1318.51,-181.096 1320.21,-187.886"/>
</g>
<!-- Node19 -->
<g id="node19" class="node"><title>Node19</title>
<g id="a_node19"><a xlink:href="classrepo_1_1programs_1_1pythonpackages_1_1pr_1_1SPDataSet_1_1SPDataSet.html#a6478ef339e0e44839e478fec7340c6b0" target="_top" xlink:title="repo.programs.pythonpackages.pr.\lSPDataSet.SPDataSet.relD">
<polygon fill="white" stroke="black" points="1306.5,-103 1306.5,-133 1473.5,-133 1473.5,-103 1306.5,-103"/>
<text text-anchor="start" x="1314.5" y="-121" font-family="Helvetica,sans-Serif" font-size="10.00">repo.programs.pythonpackages.pr.</text>
<text text-anchor="middle" x="1390" y="-110" font-family="Helvetica,sans-Serif" font-size="10.00">SPDataSet.SPDataSet.relD</text>
</a>
</g>
</g>
<!-- Node16&#45;&gt;Node19 -->
<g id="edge29" class="edge"><title>Node16&#45;&gt;Node19</title>
<path fill="none" stroke="midnightblue" d="M1252.2,-205.962C1258.5,-203.185 1264.53,-199.896 1270,-196 1293.5,-179.269 1282.73,-159.043 1306,-142 1308.06,-140.488 1310.22,-139.07 1312.45,-137.742"/>
<polygon fill="midnightblue" stroke="midnightblue" points="1314.15,-140.805 1321.37,-133.048 1310.89,-134.612 1314.15,-140.805"/>
</g>
<!-- Node20 -->
<g id="node20" class="node"><title>Node20</title>
<g id="a_node20"><a xlink:href="namespacerepo_1_1programs_1_1pythonpackages_1_1pr_1_1SPfuncs.html#af8a48b74a6d4e725e2409329126076a6" target="_top" xlink:title="Construct a set of triggers by analysing the timing for the signal. ">
<polygon fill="white" stroke="black" points="1306.5,-51 1306.5,-81 1473.5,-81 1473.5,-51 1306.5,-51"/>
<text text-anchor="start" x="1314.5" y="-69" font-family="Helvetica,sans-Serif" font-size="10.00">repo.programs.pythonpackages.pr.</text>
<text text-anchor="middle" x="1390" y="-58" font-family="Helvetica,sans-Serif" font-size="10.00">SPfuncs.makeTriggers</text>
</a>
</g>
</g>
<!-- Node16&#45;&gt;Node20 -->
<g id="edge32" class="edge"><title>Node16&#45;&gt;Node20</title>
<path fill="none" stroke="midnightblue" d="M1256.11,-205.907C1261.12,-203.126 1265.82,-199.852 1270,-196 1305.66,-163.135 1271.34,-126.915 1306,-93 1308.51,-90.541 1311.25,-88.306 1314.16,-86.2745"/>
<polygon fill="midnightblue" stroke="midnightblue" points="1315.99,-89.2533 1322.73,-81.0713 1312.36,-83.27 1315.99,-89.2533"/>
</g>
<!-- Node22 -->
<g id="node22" class="node"><title>Node22</title>
<g id="a_node22"><a xlink:href="classrepo_1_1programs_1_1pythonpackages_1_1pr_1_1SPDataSet_1_1SPDataSet.html#af6af62c7de4f7bc8f2dd223d05cf2b07" target="_top" xlink:title="repo.programs.pythonpackages.pr.\lSPDataSet.SPDataSet.rSpec">
<polygon fill="white" stroke="black" points="1306.5,-240 1306.5,-270 1473.5,-270 1473.5,-240 1306.5,-240"/>
<text text-anchor="start" x="1314.5" y="-258" font-family="Helvetica,sans-Serif" font-size="10.00">repo.programs.pythonpackages.pr.</text>
<text text-anchor="middle" x="1390" y="-247" font-family="Helvetica,sans-Serif" font-size="10.00">SPDataSet.SPDataSet.rSpec</text>
</a>
</g>
</g>
<!-- Node16&#45;&gt;Node22 -->
<g id="edge34" class="edge"><title>Node16&#45;&gt;Node22</title>
<path fill="none" stroke="midnightblue" d="M1256.51,-234.048C1269.53,-236.107 1283.07,-238.249 1296.31,-240.342"/>
<polygon fill="midnightblue" stroke="midnightblue" points="1295.93,-243.826 1306.36,-241.931 1297.03,-236.912 1295.93,-243.826"/>
</g>
<!-- Node17&#45;&gt;Node8 -->
<g id="edge28" class="edge"><title>Node17&#45;&gt;Node8</title>
<path fill="none" stroke="midnightblue" d="M1473.56,-173.485C1485.78,-174.374 1498.21,-175.241 1510,-176 1583.63,-180.739 1666.85,-185.131 1729.96,-188.262"/>
<polygon fill="midnightblue" stroke="midnightblue" points="1730.15,-191.776 1740.31,-188.774 1730.5,-184.784 1730.15,-191.776"/>
</g>
<!-- Node18 -->
<g id="node18" class="node"><title>Node18</title>
<g id="a_node18"><a xlink:href="namespacerepo_1_1programs_1_1pythonpackages_1_1pr_1_1SPfuncs.html#acb6d178d4325b6c3d8fec4f8197d6819" target="_top" xlink:title="repo.programs.pythonpackages.pr.\lSPfuncs.renameFieldMaybe">
<polygon fill="white" stroke="black" points="1523.5,-137 1523.5,-167 1690.5,-167 1690.5,-137 1523.5,-137"/>
<text text-anchor="start" x="1531.5" y="-155" font-family="Helvetica,sans-Serif" font-size="10.00">repo.programs.pythonpackages.pr.</text>
<text text-anchor="middle" x="1607" y="-144" font-family="Helvetica,sans-Serif" font-size="10.00">SPfuncs.renameFieldMaybe</text>
</a>
</g>
</g>
<!-- Node17&#45;&gt;Node18 -->
<g id="edge27" class="edge"><title>Node17&#45;&gt;Node18</title>
<path fill="none" stroke="midnightblue" d="M1473.51,-161.244C1486.53,-160.335 1500.07,-159.39 1513.31,-158.467"/>
<polygon fill="midnightblue" stroke="midnightblue" points="1513.62,-161.953 1523.36,-157.766 1513.14,-154.97 1513.62,-161.953"/>
</g>
<!-- Node19&#45;&gt;Node8 -->
<g id="edge31" class="edge"><title>Node19&#45;&gt;Node8</title>
<path fill="none" stroke="midnightblue" d="M1473.82,-110.349C1537.76,-106.829 1627.87,-107.103 1704,-127 1739.11,-136.176 1775.43,-156.565 1800,-172.271"/>
<polygon fill="midnightblue" stroke="midnightblue" points="1798.21,-175.282 1808.5,-177.816 1802.04,-169.42 1798.21,-175.282"/>
</g>
<!-- Node19&#45;&gt;Node18 -->
<g id="edge30" class="edge"><title>Node19&#45;&gt;Node18</title>
<path fill="none" stroke="midnightblue" d="M1473.51,-131.048C1486.53,-133.107 1500.07,-135.249 1513.31,-137.342"/>
<polygon fill="midnightblue" stroke="midnightblue" points="1512.93,-140.826 1523.36,-138.931 1514.03,-133.912 1512.93,-140.826"/>
</g>
<!-- Node21 -->
<g id="node21" class="node"><title>Node21</title>
<g id="a_node21"><a xlink:href="namespacerepo_1_1programs_1_1pythonpackages_1_1pr_1_1SPfuncs.html#a9d03b1e8bb9325cdab8fa026d6cdbbe3" target="_top" xlink:title="repo.programs.pythonpackages.pr.\lSPfuncs.secs2sd">
<polygon fill="white" stroke="black" points="1523.5,-49 1523.5,-79 1690.5,-79 1690.5,-49 1523.5,-49"/>
<text text-anchor="start" x="1531.5" y="-67" font-family="Helvetica,sans-Serif" font-size="10.00">repo.programs.pythonpackages.pr.</text>
<text text-anchor="middle" x="1607" y="-56" font-family="Helvetica,sans-Serif" font-size="10.00">SPfuncs.secs2sd</text>
</a>
</g>
</g>
<!-- Node20&#45;&gt;Node21 -->
<g id="edge33" class="edge"><title>Node20&#45;&gt;Node21</title>
<path fill="none" stroke="midnightblue" d="M1473.51,-65.2325C1486.53,-65.1113 1500.07,-64.9854 1513.31,-64.8623"/>
<polygon fill="midnightblue" stroke="midnightblue" points="1513.39,-68.3617 1523.36,-64.7688 1513.32,-61.3621 1513.39,-68.3617"/>
</g>
<!-- Node22&#45;&gt;Node4 -->
<g id="edge35" class="edge"><title>Node22&#45;&gt;Node4</title>
<path fill="none" stroke="midnightblue" d="M1460.96,-270.024C1465.64,-272.564 1470.06,-275.532 1474,-279 1504.19,-305.559 1479.46,-335.847 1510,-362 1511.81,-363.547 1513.7,-365 1515.66,-366.365"/>
<polygon fill="midnightblue" stroke="midnightblue" points="1514.29,-369.629 1524.66,-371.798 1517.91,-363.635 1514.29,-369.629"/>
</g>
<!-- Node23&#45;&gt;Node22 -->
<g id="edge40" class="edge"><title>Node23&#45;&gt;Node22</title>
<path fill="none" stroke="midnightblue" d="M1241.95,-187.045C1251.47,-189.714 1261.05,-192.707 1270,-196 1299.23,-206.757 1330.74,-222.587 1353.99,-235.143"/>
<polygon fill="midnightblue" stroke="midnightblue" points="1352.34,-238.226 1362.79,-239.95 1355.69,-232.083 1352.34,-238.226"/>
</g>
<!-- Node24 -->
<g id="node24" class="node"><title>Node24</title>
<g id="a_node24"><a xlink:href="namespacerepo_1_1programs_1_1pythonpackages_1_1pr_1_1SPfuncs.html#a2533afa952ea007cfad4a1deb6a607a5" target="_top" xlink:title="Return angles for the sequence defined by , repeated &#160;times. ">
<polygon fill="white" stroke="black" points="1306.5,-1 1306.5,-31 1473.5,-31 1473.5,-1 1306.5,-1"/>
<text text-anchor="start" x="1314.5" y="-19" font-family="Helvetica,sans-Serif" font-size="10.00">repo.programs.pythonpackages.pr.</text>
<text text-anchor="middle" x="1390" y="-8" font-family="Helvetica,sans-Serif" font-size="10.00">SPfuncs.getAnglesFromRSpec</text>
</a>
</g>
</g>
<!-- Node23&#45;&gt;Node24 -->
<g id="edge38" class="edge"><title>Node23&#45;&gt;Node24</title>
<path fill="none" stroke="midnightblue" d="M1185.29,-156.626C1206.11,-129.344 1253.29,-72.3855 1306,-41 1309.64,-38.8345 1313.48,-36.8431 1317.43,-35.0136"/>
<polygon fill="midnightblue" stroke="midnightblue" points="1318.98,-38.1581 1326.82,-31.033 1316.25,-31.7132 1318.98,-38.1581"/>
</g>
<!-- Node25 -->
<g id="node25" class="node"><title>Node25</title>
<g id="a_node25"><a xlink:href="namespacerepo_1_1programs_1_1pythonpackages_1_1pr_1_1SPfuncs.html#aba724f914a5cc838851518564a1f5d84" target="_top" xlink:title="repo.programs.pythonpackages.pr.\lSPfuncs.getRotationsFromRSpec">
<polygon fill="white" stroke="black" points="1523.5,-0 1523.5,-30 1690.5,-30 1690.5,-0 1523.5,-0"/>
<text text-anchor="start" x="1531.5" y="-18" font-family="Helvetica,sans-Serif" font-size="10.00">repo.programs.pythonpackages.pr.</text>
<text text-anchor="middle" x="1607" y="-7" font-family="Helvetica,sans-Serif" font-size="10.00">SPfuncs.getRotationsFromRSpec</text>
</a>
</g>
</g>
<!-- Node24&#45;&gt;Node25 -->
<g id="edge39" class="edge"><title>Node24&#45;&gt;Node25</title>
<path fill="none" stroke="midnightblue" d="M1473.51,-15.6162C1486.53,-15.5557 1500.07,-15.4927 1513.31,-15.4311"/>
<polygon fill="midnightblue" stroke="midnightblue" points="1513.37,-18.931 1523.36,-15.3844 1513.34,-11.931 1513.37,-18.931"/>
</g>
<!-- Node26&#45;&gt;Node2 -->
<g id="edge44" class="edge"><title>Node26&#45;&gt;Node2</title>
<path fill="none" stroke="midnightblue" d="M531.473,-395.257C552.624,-419.988 598.121,-468.434 648,-492 685.071,-509.515 785.998,-524.53 862.091,-533.859"/>
<polygon fill="midnightblue" stroke="midnightblue" points="861.834,-537.354 872.182,-535.081 862.675,-530.404 861.834,-537.354"/>
</g>
<!-- Node26&#45;&gt;Node4 -->
<g id="edge43" class="edge"><title>Node26&#45;&gt;Node4</title>
<path fill="none" stroke="midnightblue" d="M611.703,-382.015C699.963,-383.758 836.527,-386 955,-386 955,-386 955,-386 1174,-386 1290.87,-386 1425.53,-386.371 1513.02,-386.66"/>
<polygon fill="midnightblue" stroke="midnightblue" points="1513.17,-390.161 1523.18,-386.695 1513.19,-383.161 1513.17,-390.161"/>
</g>
<!-- Node26&#45;&gt;Node14 -->
<g id="edge45" class="edge"><title>Node26&#45;&gt;Node14</title>
<path fill="none" stroke="midnightblue" d="M594.779,-364.981C614.228,-361.126 635.287,-356.952 655.203,-353.005"/>
<polygon fill="midnightblue" stroke="midnightblue" points="656.057,-356.404 665.186,-351.026 654.696,-349.537 656.057,-356.404"/>
</g>
<!-- Node26&#45;&gt;Node15 -->
<g id="edge46" class="edge"><title>Node26&#45;&gt;Node15</title>
<path fill="none" stroke="midnightblue" d="M542.289,-364.869C567.413,-349.196 609.065,-325.071 648,-311 717.8,-285.775 800.378,-269.545 862.299,-259.886"/>
<polygon fill="midnightblue" stroke="midnightblue" points="863.087,-263.306 872.443,-258.334 862.028,-256.387 863.087,-263.306"/>
</g>
</g>
</svg>
