<?xml version="1.0" encoding="UTF-8" standalone="no"?>
<!DOCTYPE svg PUBLIC "-//W3C//DTD SVG 1.1//EN"
 "http://www.w3.org/Graphics/SVG/1.1/DTD/svg11.dtd">
<!-- Generated by graphviz version 2.36.0 (20140111.2315)
 -->
<!-- Title: repo.programs.pythonpackages.pr.SPDataSet.SPDataSet.pointAmp Pages: 1 -->
<svg width="1466pt" height="420pt"
 viewBox="0.00 0.00 1466.00 420.00" xmlns="http://www.w3.org/2000/svg" xmlns:xlink="http://www.w3.org/1999/xlink">
<g id="graph0" class="graph" transform="scale(1 1) rotate(0) translate(4 416)">
<title>repo.programs.pythonpackages.pr.SPDataSet.SPDataSet.pointAmp</title>
<polygon fill="white" stroke="none" points="-4,4 -4,-416 1462,-416 1462,4 -4,4"/>
<!-- Node1 -->
<g id="node1" class="node"><title>Node1</title>
<polygon fill="#bfbfbf" stroke="black" points="0.5,-191 0.5,-221 167.5,-221 167.5,-191 0.5,-191"/>
<text text-anchor="start" x="8.5" y="-209" font-family="Helvetica,sans-Serif" font-size="10.00">repo.programs.pythonpackages.pr.</text>
<text text-anchor="middle" x="84" y="-198" font-family="Helvetica,sans-Serif" font-size="10.00">SPDataSet.SPDataSet.pointAmp</text>
</g>
<!-- Node2 -->
<g id="node2" class="node"><title>Node2</title>
<g id="a_node2"><a xlink:href="classrepo_1_1programs_1_1pythonpackages_1_1pr_1_1SPDataSet_1_1SPDataSet.html#af17c964467367b46a56c14a8c87e84a2" target="_top" xlink:title="Property doc string!! ">
<polygon fill="white" stroke="black" points="855.5,-382 855.5,-412 1022.5,-412 1022.5,-382 855.5,-382"/>
<text text-anchor="start" x="863.5" y="-400" font-family="Helvetica,sans-Serif" font-size="10.00">repo.programs.pythonpackages.pr.</text>
<text text-anchor="middle" x="939" y="-389" font-family="Helvetica,sans-Serif" font-size="10.00">SPDataSet.SPDataSet.set_info</text>
</a>
</g>
</g>
<!-- Node1&#45;&gt;Node2 -->
<g id="edge1" class="edge"><title>Node1&#45;&gt;Node2</title>
<path fill="none" stroke="midnightblue" d="M105.877,-221.217C128.851,-237.285 167.392,-262.285 204,-277 422.639,-364.886 702.563,-388.452 845.287,-394.739"/>
<polygon fill="midnightblue" stroke="midnightblue" points="845.184,-398.237 855.323,-395.162 845.479,-391.244 845.184,-398.237"/>
</g>
<!-- Node3 -->
<g id="node3" class="node"><title>Node3</title>
<g id="a_node3"><a xlink:href="classrepo_1_1programs_1_1pythonpackages_1_1pr_1_1SPDataSet_1_1SPDataSet.html#afe54eeb9f41f503dc478557e4ea2c62a" target="_top" xlink:title="repo.programs.pythonpackages.pr.\lSPDataSet.SPDataSet.rawData">
<polygon fill="white" stroke="black" points="638.5,-54 638.5,-84 805.5,-84 805.5,-54 638.5,-54"/>
<text text-anchor="start" x="646.5" y="-72" font-family="Helvetica,sans-Serif" font-size="10.00">repo.programs.pythonpackages.pr.</text>
<text text-anchor="middle" x="722" y="-61" font-family="Helvetica,sans-Serif" font-size="10.00">SPDataSet.SPDataSet.rawData</text>
</a>
</g>
</g>
<!-- Node1&#45;&gt;Node3 -->
<g id="edge2" class="edge"><title>Node1&#45;&gt;Node3</title>
<path fill="none" stroke="midnightblue" d="M154.882,-190.947C273.956,-165.297 515.453,-113.277 641.057,-86.2204"/>
<polygon fill="midnightblue" stroke="midnightblue" points="641.963,-89.6056 651.002,-84.0782 640.489,-82.7625 641.963,-89.6056"/>
</g>
<!-- Node11 -->
<g id="node11" class="node"><title>Node11</title>
<g id="a_node11"><a xlink:href="namespacerepo_1_1programs_1_1pythonpackages_1_1pr_1_1SPDataSet.html#a9d0e07e3e1f4360be4f8c59927abe142" target="_top" xlink:title="Helpful for calling work_func(following_func(**remaining_args), **work_args)) work_args are the entri...">
<polygon fill="white" stroke="black" points="204.5,-65 204.5,-95 371.5,-95 371.5,-65 204.5,-65"/>
<text text-anchor="start" x="212.5" y="-83" font-family="Helvetica,sans-Serif" font-size="10.00">repo.programs.pythonpackages.pr.</text>
<text text-anchor="middle" x="288" y="-72" font-family="Helvetica,sans-Serif" font-size="10.00">SPDataSet.divide_args</text>
</a>
</g>
</g>
<!-- Node1&#45;&gt;Node11 -->
<g id="edge11" class="edge"><title>Node1&#45;&gt;Node11</title>
<path fill="none" stroke="midnightblue" d="M100.307,-190.802C121.846,-170.12 163.061,-133.052 204,-110 211.389,-105.839 219.462,-102.076 227.579,-98.7316"/>
<polygon fill="midnightblue" stroke="midnightblue" points="229.058,-101.911 237.088,-95.0001 226.501,-95.3949 229.058,-101.911"/>
</g>
<!-- Node12 -->
<g id="node12" class="node"><title>Node12</title>
<g id="a_node12"><a xlink:href="classrepo_1_1programs_1_1pythonpackages_1_1pr_1_1SPDataSet_1_1SPDataSet.html#a5b12a3d9fdb93ccbf79a6b7a7893be3f" target="_top" xlink:title="repo.programs.pythonpackages.pr.\lSPDataSet.SPDataSet.cutAmp">
<polygon fill="white" stroke="black" points="204.5,-191 204.5,-221 371.5,-221 371.5,-191 204.5,-191"/>
<text text-anchor="start" x="212.5" y="-209" font-family="Helvetica,sans-Serif" font-size="10.00">repo.programs.pythonpackages.pr.</text>
<text text-anchor="middle" x="288" y="-198" font-family="Helvetica,sans-Serif" font-size="10.00">SPDataSet.SPDataSet.cutAmp</text>
</a>
</g>
</g>
<!-- Node1&#45;&gt;Node12 -->
<g id="edge12" class="edge"><title>Node1&#45;&gt;Node12</title>
<path fill="none" stroke="midnightblue" d="M167.744,-206C176.437,-206 185.316,-206 194.112,-206"/>
<polygon fill="midnightblue" stroke="midnightblue" points="194.385,-209.5 204.385,-206 194.385,-202.5 194.385,-209.5"/>
</g>
<!-- Node20 -->
<g id="node20" class="node"><title>Node20</title>
<g id="a_node20"><a xlink:href="classrepo_1_1programs_1_1pythonpackages_1_1pr_1_1SPDataSet_1_1SPDataSet.html#aee6249fe272c46f07d0f2f32f6c188d2" target="_top" xlink:title="repo.programs.pythonpackages.pr.\lSPDataSet.SPDataSet.apparatusAngles">
<polygon fill="white" stroke="black" points="408,-280 408,-310 602,-310 602,-280 408,-280"/>
<text text-anchor="start" x="416" y="-298" font-family="Helvetica,sans-Serif" font-size="10.00">repo.programs.pythonpackages.pr.</text>
<text text-anchor="middle" x="505" y="-287" font-family="Helvetica,sans-Serif" font-size="10.00">SPDataSet.SPDataSet.apparatusAngles</text>
</a>
</g>
</g>
<!-- Node1&#45;&gt;Node20 -->
<g id="edge32" class="edge"><title>Node1&#45;&gt;Node20</title>
<path fill="none" stroke="midnightblue" d="M121.976,-221.032C145.198,-229.974 175.961,-240.92 204,-248 267.408,-264.012 339.808,-275.542 397.597,-283.174"/>
<polygon fill="midnightblue" stroke="midnightblue" points="397.475,-286.688 407.843,-284.507 398.378,-279.746 397.475,-286.688"/>
</g>
<!-- Node4 -->
<g id="node4" class="node"><title>Node4</title>
<g id="a_node4"><a xlink:href="classrepo_1_1programs_1_1pythonpackages_1_1pr_1_1SPDataSet_1_1SPDataSet.html#aa400ad81219e782fe2e29e852b20bb28" target="_top" xlink:title="repo.programs.pythonpackages.pr.\lSPDataSet.SPDataSet.fastD">
<polygon fill="white" stroke="black" points="855.5,-98 855.5,-128 1022.5,-128 1022.5,-98 855.5,-98"/>
<text text-anchor="start" x="863.5" y="-116" font-family="Helvetica,sans-Serif" font-size="10.00">repo.programs.pythonpackages.pr.</text>
<text text-anchor="middle" x="939" y="-105" font-family="Helvetica,sans-Serif" font-size="10.00">SPDataSet.SPDataSet.fastD</text>
</a>
</g>
</g>
<!-- Node3&#45;&gt;Node4 -->
<g id="edge3" class="edge"><title>Node3&#45;&gt;Node4</title>
<path fill="none" stroke="midnightblue" d="M796.389,-84.0192C815.139,-87.8564 835.434,-92.0097 854.644,-95.9411"/>
<polygon fill="midnightblue" stroke="midnightblue" points="854.078,-99.3977 864.576,-97.9738 855.481,-92.5398 854.078,-99.3977"/>
</g>
<!-- Node9 -->
<g id="node9" class="node"><title>Node9</title>
<g id="a_node9"><a xlink:href="classrepo_1_1programs_1_1pythonpackages_1_1pr_1_1SPDataSet_1_1SPDataSet.html#aa0b687b3c937bfb4aa71c4a09cac5eb5" target="_top" xlink:title="Names should be of the form &quot;med:Total Position Sensor 1&quot; etc. ">
<polygon fill="white" stroke="black" points="842,-49 842,-79 1036,-79 1036,-49 842,-49"/>
<text text-anchor="start" x="850" y="-67" font-family="Helvetica,sans-Serif" font-size="10.00">repo.programs.pythonpackages.pr.</text>
<text text-anchor="middle" x="939" y="-56" font-family="Helvetica,sans-Serif" font-size="10.00">SPDataSet.SPDataSet.getRawByName</text>
</a>
</g>
</g>
<!-- Node3&#45;&gt;Node9 -->
<g id="edge8" class="edge"><title>Node3&#45;&gt;Node9</title>
<path fill="none" stroke="midnightblue" d="M805.51,-60.496C814.021,-60.1839 822.754,-59.926 831.478,-59.7275"/>
<polygon fill="midnightblue" stroke="midnightblue" points="831.774,-63.2224 841.702,-59.5222 831.633,-56.2238 831.774,-63.2224"/>
</g>
<!-- Node10 -->
<g id="node10" class="node"><title>Node10</title>
<g id="a_node10"><a xlink:href="classrepo_1_1programs_1_1pythonpackages_1_1pr_1_1SPDataSet_1_1SPDataSet.html#a33ced34e094ccfd1e3891b92478613e7" target="_top" xlink:title="repo.programs.pythonpackages.pr.\lSPDataSet.SPDataSet.clearRaw">
<polygon fill="white" stroke="black" points="855.5,-0 855.5,-30 1022.5,-30 1022.5,-0 855.5,-0"/>
<text text-anchor="start" x="863.5" y="-18" font-family="Helvetica,sans-Serif" font-size="10.00">repo.programs.pythonpackages.pr.</text>
<text text-anchor="middle" x="939" y="-7" font-family="Helvetica,sans-Serif" font-size="10.00">SPDataSet.SPDataSet.clearRaw</text>
</a>
</g>
</g>
<!-- Node3&#45;&gt;Node10 -->
<g id="edge10" class="edge"><title>Node3&#45;&gt;Node10</title>
<path fill="none" stroke="midnightblue" d="M782.617,-53.9458C801.596,-49.16 822.678,-43.8507 842,-39 850.414,-36.8877 859.244,-34.6749 867.998,-32.4834"/>
<polygon fill="midnightblue" stroke="midnightblue" points="868.972,-35.8477 877.823,-30.0248 867.273,-29.057 868.972,-35.8477"/>
</g>
<!-- Node5 -->
<g id="node5" class="node"><title>Node5</title>
<g id="a_node5"><a xlink:href="classrepo_1_1programs_1_1pythonpackages_1_1pr_1_1SPDataSet_1_1SPDataSet.html#a1e4c1d502ec5ff9a57bf9a330a318a54" target="_top" xlink:title="repo.programs.pythonpackages.pr.\lSPDataSet.SPDataSet.splitRecArray">
<polygon fill="white" stroke="black" points="1072.5,-145 1072.5,-175 1253.5,-175 1253.5,-145 1072.5,-145"/>
<text text-anchor="start" x="1080.5" y="-163" font-family="Helvetica,sans-Serif" font-size="10.00">repo.programs.pythonpackages.pr.</text>
<text text-anchor="middle" x="1163" y="-152" font-family="Helvetica,sans-Serif" font-size="10.00">SPDataSet.SPDataSet.splitRecArray</text>
</a>
</g>
</g>
<!-- Node4&#45;&gt;Node5 -->
<g id="edge4" class="edge"><title>Node4&#45;&gt;Node5</title>
<path fill="none" stroke="midnightblue" d="M1010.85,-128C1033.18,-132.728 1058.01,-137.985 1080.99,-142.85"/>
<polygon fill="midnightblue" stroke="midnightblue" points="1080.55,-146.334 1091.06,-144.981 1082,-139.486 1080.55,-146.334"/>
</g>
<!-- Node6 -->
<g id="node6" class="node"><title>Node6</title>
<g id="a_node6"><a xlink:href="classrepo_1_1programs_1_1pythonpackages_1_1pr_1_1SPDataSet_1_1SPDataSet.html#af0f40f6c14b1ba1c8de9351a839eb511" target="_top" xlink:title="repo.programs.pythonpackages.pr.\lSPDataSet.SPDataSet.calArr">
<polygon fill="white" stroke="black" points="1079.5,-96 1079.5,-126 1246.5,-126 1246.5,-96 1079.5,-96"/>
<text text-anchor="start" x="1087.5" y="-114" font-family="Helvetica,sans-Serif" font-size="10.00">repo.programs.pythonpackages.pr.</text>
<text text-anchor="middle" x="1163" y="-103" font-family="Helvetica,sans-Serif" font-size="10.00">SPDataSet.SPDataSet.calArr</text>
</a>
</g>
</g>
<!-- Node4&#45;&gt;Node6 -->
<g id="edge5" class="edge"><title>Node4&#45;&gt;Node6</title>
<path fill="none" stroke="midnightblue" d="M1022.66,-112.255C1037.83,-112.119 1053.76,-111.975 1069.2,-111.836"/>
<polygon fill="midnightblue" stroke="midnightblue" points="1069.3,-115.335 1079.27,-111.745 1069.24,-108.336 1069.3,-115.335"/>
</g>
<!-- Node7 -->
<g id="node7" class="node"><title>Node7</title>
<g id="a_node7"><a xlink:href="classrepo_1_1programs_1_1pythonpackages_1_1pr_1_1SPDataSet_1_1SPDataSet.html#a6e8c2848a25079fc869ab950445213b8" target="_top" xlink:title="repo.programs.pythonpackages.pr.\lSPDataSet.SPDataSet.zeroingD">
<polygon fill="white" stroke="black" points="1290.5,-121 1290.5,-151 1457.5,-151 1457.5,-121 1290.5,-121"/>
<text text-anchor="start" x="1298.5" y="-139" font-family="Helvetica,sans-Serif" font-size="10.00">repo.programs.pythonpackages.pr.</text>
<text text-anchor="middle" x="1374" y="-128" font-family="Helvetica,sans-Serif" font-size="10.00">SPDataSet.SPDataSet.zeroingD</text>
</a>
</g>
</g>
<!-- Node6&#45;&gt;Node7 -->
<g id="edge6" class="edge"><title>Node6&#45;&gt;Node7</title>
<path fill="none" stroke="midnightblue" d="M1246.6,-120.881C1257.61,-122.197 1268.96,-123.555 1280.12,-124.89"/>
<polygon fill="midnightblue" stroke="midnightblue" points="1279.97,-128.397 1290.31,-126.109 1280.8,-121.446 1279.97,-128.397"/>
</g>
<!-- Node8 -->
<g id="node8" class="node"><title>Node8</title>
<g id="a_node8"><a xlink:href="classrepo_1_1programs_1_1pythonpackages_1_1pr_1_1SPDataSet_1_1SPDataSet.html#aa287beda17e46a3969a9321e5904eaed" target="_top" xlink:title="repo.programs.pythonpackages.pr.\lSPDataSet.SPDataSet.cBzCal">
<polygon fill="white" stroke="black" points="1290.5,-72 1290.5,-102 1457.5,-102 1457.5,-72 1290.5,-72"/>
<text text-anchor="start" x="1298.5" y="-90" font-family="Helvetica,sans-Serif" font-size="10.00">repo.programs.pythonpackages.pr.</text>
<text text-anchor="middle" x="1374" y="-79" font-family="Helvetica,sans-Serif" font-size="10.00">SPDataSet.SPDataSet.cBzCal</text>
</a>
</g>
</g>
<!-- Node6&#45;&gt;Node8 -->
<g id="edge7" class="edge"><title>Node6&#45;&gt;Node8</title>
<path fill="none" stroke="midnightblue" d="M1246.6,-101.515C1257.61,-100.251 1268.96,-98.9477 1280.12,-97.6653"/>
<polygon fill="midnightblue" stroke="midnightblue" points="1280.78,-101.113 1290.31,-96.4951 1279.98,-94.1589 1280.78,-101.113"/>
</g>
<!-- Node9&#45;&gt;Node3 -->
<g id="edge9" class="edge"><title>Node9&#45;&gt;Node3</title>
<path fill="none" stroke="midnightblue" d="M841.702,-72.9568C833.019,-73.2096 824.239,-73.4053 815.589,-73.5387"/>
<polygon fill="midnightblue" stroke="midnightblue" points="815.465,-70.0399 805.51,-73.6664 815.553,-77.0394 815.465,-70.0399"/>
</g>
<!-- Node12&#45;&gt;Node3 -->
<g id="edge13" class="edge"><title>Node12&#45;&gt;Node3</title>
<path fill="none" stroke="midnightblue" d="M363.889,-190.977C453.167,-172.883 591.704,-144.145 602,-138 623.112,-125.401 617.548,-109.644 638,-96 642.302,-93.1302 646.931,-90.5458 651.725,-88.2216"/>
<polygon fill="midnightblue" stroke="midnightblue" points="653.378,-91.3173 661.103,-84.0662 650.542,-84.9175 653.378,-91.3173"/>
</g>
<!-- Node12&#45;&gt;Node12 -->
<g id="edge27" class="edge"><title>Node12&#45;&gt;Node12</title>
<path fill="none" stroke="midnightblue" d="M252.141,-221.275C244.172,-230.406 256.125,-239 288,-239 306.926,-239 318.828,-235.97 323.708,-231.598"/>
<polygon fill="midnightblue" stroke="midnightblue" points="327.212,-231.326 323.859,-221.275 320.213,-231.223 327.212,-231.326"/>
</g>
<!-- Node13 -->
<g id="node13" class="node"><title>Node13</title>
<g id="a_node13"><a xlink:href="classrepo_1_1programs_1_1pythonpackages_1_1pr_1_1SPDataSet_1_1SPDataSet.html#a14656e508d81193e8c71c09d9444e15f" target="_top" xlink:title="repo.programs.pythonpackages.pr.\lSPDataSet.SPDataSet.trigTimes">
<polygon fill="white" stroke="black" points="421.5,-191 421.5,-221 588.5,-221 588.5,-191 421.5,-191"/>
<text text-anchor="start" x="429.5" y="-209" font-family="Helvetica,sans-Serif" font-size="10.00">repo.programs.pythonpackages.pr.</text>
<text text-anchor="middle" x="505" y="-198" font-family="Helvetica,sans-Serif" font-size="10.00">SPDataSet.SPDataSet.trigTimes</text>
</a>
</g>
</g>
<!-- Node12&#45;&gt;Node13 -->
<g id="edge14" class="edge"><title>Node12&#45;&gt;Node13</title>
<path fill="none" stroke="midnightblue" d="M371.51,-206C384.532,-206 398.073,-206 411.308,-206"/>
<polygon fill="midnightblue" stroke="midnightblue" points="411.356,-209.5 421.356,-206 411.356,-202.5 411.356,-209.5"/>
</g>
<!-- Node12&#45;&gt;Node20 -->
<g id="edge28" class="edge"><title>Node12&#45;&gt;Node20</title>
<path fill="none" stroke="midnightblue" d="M325.472,-221.098C362.107,-236.263 418.662,-259.674 458.276,-276.072"/>
<polygon fill="midnightblue" stroke="midnightblue" points="457.13,-279.386 467.709,-279.977 459.808,-272.918 457.13,-279.386"/>
</g>
<!-- Node13&#45;&gt;Node3 -->
<g id="edge16" class="edge"><title>Node13&#45;&gt;Node3</title>
<path fill="none" stroke="midnightblue" d="M578.214,-190.813C586.833,-186.944 595.031,-182.09 602,-176 630.447,-151.142 610.106,-124.477 638,-99 642.172,-95.1896 646.864,-91.8545 651.84,-88.9369"/>
<polygon fill="midnightblue" stroke="midnightblue" points="653.81,-91.8565 661.052,-84.1233 650.568,-85.6524 653.81,-91.8565"/>
</g>
<!-- Node13&#45;&gt;Node4 -->
<g id="edge15" class="edge"><title>Node13&#45;&gt;Node4</title>
<path fill="none" stroke="midnightblue" d="M571.816,-190.966C582.388,-187.022 592.849,-182.105 602,-176 622.734,-162.168 615.78,-144.292 638,-133 701.807,-100.574 783.327,-97.1463 845.28,-100.955"/>
<polygon fill="midnightblue" stroke="midnightblue" points="845.221,-104.459 855.438,-101.655 845.702,-97.4758 845.221,-104.459"/>
</g>
<!-- Node14 -->
<g id="node14" class="node"><title>Node14</title>
<g id="a_node14"><a xlink:href="classrepo_1_1programs_1_1pythonpackages_1_1pr_1_1SPDataSet_1_1SPDataSet.html#a9eef53392c7e7ad757cefde737a6cb69" target="_top" xlink:title="repo.programs.pythonpackages.pr.\lSPDataSet.SPDataSet.medD">
<polygon fill="white" stroke="black" points="638.5,-191 638.5,-221 805.5,-221 805.5,-191 638.5,-191"/>
<text text-anchor="start" x="646.5" y="-209" font-family="Helvetica,sans-Serif" font-size="10.00">repo.programs.pythonpackages.pr.</text>
<text text-anchor="middle" x="722" y="-198" font-family="Helvetica,sans-Serif" font-size="10.00">SPDataSet.SPDataSet.medD</text>
</a>
</g>
</g>
<!-- Node13&#45;&gt;Node14 -->
<g id="edge17" class="edge"><title>Node13&#45;&gt;Node14</title>
<path fill="none" stroke="midnightblue" d="M588.51,-206C601.532,-206 615.073,-206 628.308,-206"/>
<polygon fill="midnightblue" stroke="midnightblue" points="628.356,-209.5 638.356,-206 628.356,-202.5 628.356,-209.5"/>
</g>
<!-- Node16 -->
<g id="node16" class="node"><title>Node16</title>
<g id="a_node16"><a xlink:href="classrepo_1_1programs_1_1pythonpackages_1_1pr_1_1SPDataSet_1_1SPDataSet.html#a6478ef339e0e44839e478fec7340c6b0" target="_top" xlink:title="repo.programs.pythonpackages.pr.\lSPDataSet.SPDataSet.relD">
<polygon fill="white" stroke="black" points="638.5,-142 638.5,-172 805.5,-172 805.5,-142 638.5,-142"/>
<text text-anchor="start" x="646.5" y="-160" font-family="Helvetica,sans-Serif" font-size="10.00">repo.programs.pythonpackages.pr.</text>
<text text-anchor="middle" x="722" y="-149" font-family="Helvetica,sans-Serif" font-size="10.00">SPDataSet.SPDataSet.relD</text>
</a>
</g>
</g>
<!-- Node13&#45;&gt;Node16 -->
<g id="edge20" class="edge"><title>Node13&#45;&gt;Node16</title>
<path fill="none" stroke="midnightblue" d="M571.968,-190.965C595.185,-185.674 621.456,-179.687 645.404,-174.229"/>
<polygon fill="midnightblue" stroke="midnightblue" points="646.184,-177.641 655.157,-172.006 644.629,-170.816 646.184,-177.641"/>
</g>
<!-- Node17 -->
<g id="node17" class="node"><title>Node17</title>
<g id="a_node17"><a xlink:href="namespacerepo_1_1programs_1_1pythonpackages_1_1pr_1_1SPfuncs.html#af8a48b74a6d4e725e2409329126076a6" target="_top" xlink:title="Construct a set of triggers by analysing the timing for the signal. ">
<polygon fill="white" stroke="black" points="638.5,-240 638.5,-270 805.5,-270 805.5,-240 638.5,-240"/>
<text text-anchor="start" x="646.5" y="-258" font-family="Helvetica,sans-Serif" font-size="10.00">repo.programs.pythonpackages.pr.</text>
<text text-anchor="middle" x="722" y="-247" font-family="Helvetica,sans-Serif" font-size="10.00">SPfuncs.makeTriggers</text>
</a>
</g>
</g>
<!-- Node13&#45;&gt;Node17 -->
<g id="edge23" class="edge"><title>Node13&#45;&gt;Node17</title>
<path fill="none" stroke="midnightblue" d="M571.968,-221.035C595.185,-226.326 621.456,-232.313 645.404,-237.771"/>
<polygon fill="midnightblue" stroke="midnightblue" points="644.629,-241.184 655.157,-239.994 646.184,-234.359 644.629,-241.184"/>
</g>
<!-- Node19 -->
<g id="node19" class="node"><title>Node19</title>
<g id="a_node19"><a xlink:href="classrepo_1_1programs_1_1pythonpackages_1_1pr_1_1SPDataSet_1_1SPDataSet.html#af6af62c7de4f7bc8f2dd223d05cf2b07" target="_top" xlink:title="repo.programs.pythonpackages.pr.\lSPDataSet.SPDataSet.rSpec">
<polygon fill="white" stroke="black" points="638.5,-289 638.5,-319 805.5,-319 805.5,-289 638.5,-289"/>
<text text-anchor="start" x="646.5" y="-307" font-family="Helvetica,sans-Serif" font-size="10.00">repo.programs.pythonpackages.pr.</text>
<text text-anchor="middle" x="722" y="-296" font-family="Helvetica,sans-Serif" font-size="10.00">SPDataSet.SPDataSet.rSpec</text>
</a>
</g>
</g>
<!-- Node13&#45;&gt;Node19 -->
<g id="edge25" class="edge"><title>Node13&#45;&gt;Node19</title>
<path fill="none" stroke="midnightblue" d="M529.556,-221.045C555.382,-237.052 598.424,-262.32 638,-279 643.508,-281.321 649.305,-283.524 655.169,-285.59"/>
<polygon fill="midnightblue" stroke="midnightblue" points="654.466,-289.046 665.06,-288.932 656.707,-282.415 654.466,-289.046"/>
</g>
<!-- Node14&#45;&gt;Node5 -->
<g id="edge19" class="edge"><title>Node14&#45;&gt;Node5</title>
<path fill="none" stroke="midnightblue" d="M788.133,-221.026C852.144,-233.221 952.147,-245.354 1036,-225 1071.15,-216.468 1107.46,-196.312 1132.02,-180.69"/>
<polygon fill="midnightblue" stroke="midnightblue" points="1134.04,-183.554 1140.52,-175.169 1130.22,-177.685 1134.04,-183.554"/>
</g>
<!-- Node15 -->
<g id="node15" class="node"><title>Node15</title>
<g id="a_node15"><a xlink:href="namespacerepo_1_1programs_1_1pythonpackages_1_1pr_1_1SPfuncs.html#acb6d178d4325b6c3d8fec4f8197d6819" target="_top" xlink:title="repo.programs.pythonpackages.pr.\lSPfuncs.renameFieldMaybe">
<polygon fill="white" stroke="black" points="855.5,-186 855.5,-216 1022.5,-216 1022.5,-186 855.5,-186"/>
<text text-anchor="start" x="863.5" y="-204" font-family="Helvetica,sans-Serif" font-size="10.00">repo.programs.pythonpackages.pr.</text>
<text text-anchor="middle" x="939" y="-193" font-family="Helvetica,sans-Serif" font-size="10.00">SPfuncs.renameFieldMaybe</text>
</a>
</g>
</g>
<!-- Node14&#45;&gt;Node15 -->
<g id="edge18" class="edge"><title>Node14&#45;&gt;Node15</title>
<path fill="none" stroke="midnightblue" d="M805.51,-204.081C818.532,-203.778 832.073,-203.463 845.308,-203.156"/>
<polygon fill="midnightblue" stroke="midnightblue" points="845.44,-206.654 855.356,-202.922 845.277,-199.655 845.44,-206.654"/>
</g>
<!-- Node16&#45;&gt;Node5 -->
<g id="edge22" class="edge"><title>Node16&#45;&gt;Node5</title>
<path fill="none" stroke="midnightblue" d="M805.573,-157.564C878.309,-158.061 984.446,-158.787 1061.98,-159.316"/>
<polygon fill="midnightblue" stroke="midnightblue" points="1062.22,-162.818 1072.24,-159.387 1062.27,-155.818 1062.22,-162.818"/>
</g>
<!-- Node16&#45;&gt;Node15 -->
<g id="edge21" class="edge"><title>Node16&#45;&gt;Node15</title>
<path fill="none" stroke="midnightblue" d="M796.389,-172.019C815.139,-175.856 835.434,-180.01 854.644,-183.941"/>
<polygon fill="midnightblue" stroke="midnightblue" points="854.078,-187.398 864.576,-185.974 855.481,-180.54 854.078,-187.398"/>
</g>
<!-- Node18 -->
<g id="node18" class="node"><title>Node18</title>
<g id="a_node18"><a xlink:href="namespacerepo_1_1programs_1_1pythonpackages_1_1pr_1_1SPfuncs.html#a9d03b1e8bb9325cdab8fa026d6cdbbe3" target="_top" xlink:title="repo.programs.pythonpackages.pr.\lSPfuncs.secs2sd">
<polygon fill="white" stroke="black" points="855.5,-274 855.5,-304 1022.5,-304 1022.5,-274 855.5,-274"/>
<text text-anchor="start" x="863.5" y="-292" font-family="Helvetica,sans-Serif" font-size="10.00">repo.programs.pythonpackages.pr.</text>
<text text-anchor="middle" x="939" y="-281" font-family="Helvetica,sans-Serif" font-size="10.00">SPfuncs.secs2sd</text>
</a>
</g>
</g>
<!-- Node17&#45;&gt;Node18 -->
<g id="edge24" class="edge"><title>Node17&#45;&gt;Node18</title>
<path fill="none" stroke="midnightblue" d="M805.51,-268.048C818.532,-270.107 832.073,-272.249 845.308,-274.342"/>
<polygon fill="midnightblue" stroke="midnightblue" points="844.932,-277.826 855.356,-275.931 846.025,-270.912 844.932,-277.826"/>
</g>
<!-- Node19&#45;&gt;Node2 -->
<g id="edge26" class="edge"><title>Node19&#45;&gt;Node2</title>
<path fill="none" stroke="midnightblue" d="M787.258,-319.173C793.84,-321.939 800.222,-325.188 806,-329 826.805,-342.725 820.939,-358.67 842,-372 845.343,-374.116 848.858,-376.053 852.489,-377.827"/>
<polygon fill="midnightblue" stroke="midnightblue" points="851.156,-381.064 861.717,-381.908 853.987,-374.662 851.156,-381.064"/>
</g>
<!-- Node20&#45;&gt;Node19 -->
<g id="edge31" class="edge"><title>Node20&#45;&gt;Node19</title>
<path fill="none" stroke="midnightblue" d="M602.181,-299.026C610.86,-299.389 619.638,-299.757 628.287,-300.119"/>
<polygon fill="midnightblue" stroke="midnightblue" points="628.228,-303.619 638.365,-300.541 628.521,-296.626 628.228,-303.619"/>
</g>
<!-- Node21 -->
<g id="node21" class="node"><title>Node21</title>
<g id="a_node21"><a xlink:href="namespacerepo_1_1programs_1_1pythonpackages_1_1pr_1_1SPfuncs.html#a2533afa952ea007cfad4a1deb6a607a5" target="_top" xlink:title="Return angles for the sequence defined by , repeated &#160;times. ">
<polygon fill="white" stroke="black" points="638.5,-338 638.5,-368 805.5,-368 805.5,-338 638.5,-338"/>
<text text-anchor="start" x="646.5" y="-356" font-family="Helvetica,sans-Serif" font-size="10.00">repo.programs.pythonpackages.pr.</text>
<text text-anchor="middle" x="722" y="-345" font-family="Helvetica,sans-Serif" font-size="10.00">SPfuncs.getAnglesFromRSpec</text>
</a>
</g>
</g>
<!-- Node20&#45;&gt;Node21 -->
<g id="edge29" class="edge"><title>Node20&#45;&gt;Node21</title>
<path fill="none" stroke="midnightblue" d="M561.647,-310.012C590.264,-317.732 625.328,-327.191 655.271,-335.268"/>
<polygon fill="midnightblue" stroke="midnightblue" points="654.646,-338.725 665.213,-337.95 656.469,-331.967 654.646,-338.725"/>
</g>
<!-- Node22 -->
<g id="node22" class="node"><title>Node22</title>
<g id="a_node22"><a xlink:href="namespacerepo_1_1programs_1_1pythonpackages_1_1pr_1_1SPfuncs.html#aba724f914a5cc838851518564a1f5d84" target="_top" xlink:title="repo.programs.pythonpackages.pr.\lSPfuncs.getRotationsFromRSpec">
<polygon fill="white" stroke="black" points="855.5,-333 855.5,-363 1022.5,-363 1022.5,-333 855.5,-333"/>
<text text-anchor="start" x="863.5" y="-351" font-family="Helvetica,sans-Serif" font-size="10.00">repo.programs.pythonpackages.pr.</text>
<text text-anchor="middle" x="939" y="-340" font-family="Helvetica,sans-Serif" font-size="10.00">SPfuncs.getRotationsFromRSpec</text>
</a>
</g>
</g>
<!-- Node21&#45;&gt;Node22 -->
<g id="edge30" class="edge"><title>Node21&#45;&gt;Node22</title>
<path fill="none" stroke="midnightblue" d="M805.51,-351.081C818.532,-350.778 832.073,-350.463 845.308,-350.156"/>
<polygon fill="midnightblue" stroke="midnightblue" points="845.44,-353.654 855.356,-349.922 845.277,-346.655 845.44,-353.654"/>
</g>
</g>
</svg>
