<?xml version="1.0" encoding="UTF-8" standalone="no"?>
<!DOCTYPE svg PUBLIC "-//W3C//DTD SVG 1.1//EN"
 "http://www.w3.org/Graphics/SVG/1.1/DTD/svg11.dtd">
<!-- Generated by graphviz version 2.36.0 (20140111.2315)
 -->
<!-- Title: repo.programs.pythonpackages.pr.SPDataSet.SPDataSet.rawData Pages: 1 -->
<!--zoomable 448 -->
<svg id="main" version="1.1" xmlns="http://www.w3.org/2000/svg" xmlns:xlink="http://www.w3.org/1999/xlink" xml:space="preserve" onload="init(evt)">
<style type="text/css"><![CDATA[
.edge:hover path { stroke: red; }
.edge:hover polygon { stroke: red; fill: red; }
]]></style>
<script type="text/javascript"><![CDATA[
var edges = document.getElementsByTagName('g');
if (edges && edges.length) {
  for (var i=0;i<edges.length;i++) {
    if (edges[i].id.substr(0,4)=='edge') {
      edges[i].setAttribute('class','edge');
    }
  }
}
]]></script>
        <defs>
                <circle id="rim" cx="0" cy="0" r="7"/>
                <circle id="rim2" cx="0" cy="0" r="3.5"/>
                <g id="zoomPlus">
                        <use xlink:href="#rim" fill="#404040">
                                <set attributeName="fill" to="#808080" begin="zoomplus.mouseover" end="zoomplus.mouseout"/>
                        </use>
                        <path d="M-4,0h8M0,-4v8" fill="none" stroke="white" stroke-width="1.5" pointer-events="none"/>
                </g>
                <g id="zoomMin">
                        <use xlink:href="#rim" fill="#404040">
                                <set attributeName="fill" to="#808080" begin="zoomminus.mouseover" end="zoomminus.mouseout"/>
                        </use>
                        <path d="M-4,0h8" fill="none" stroke="white" stroke-width="1.5" pointer-events="none"/>
                </g>
                <g id="dirArrow">
                        <path fill="none" stroke="white" stroke-width="1.5" d="M0,-3.0v7 M-2.5,-0.5L0,-3.0L2.5,-0.5"/>
                </g>
               <g id="resetDef">
                       <use xlink:href="#rim2" fill="#404040">
                               <set attributeName="fill" to="#808080" begin="reset.mouseover" end="reset.mouseout"/>
                       </use>
               </g>
        </defs>

<script type="text/javascript">
var viewWidth = 1732;
var viewHeight = 448;
var sectionId = 'dynsection-29';
</script>
<script xlink:href="svgpan.js"/>
<svg id="graph" class="graph">
<g id="viewport">
<title>repo.programs.pythonpackages.pr.SPDataSet.SPDataSet.rawData</title>
<polygon fill="white" stroke="none" points="-4,4 -4,-444 1728,-444 1728,4 -4,4"/>
<!-- Node1 -->
<g id="node1" class="node"><title>Node1</title>
<polygon fill="#bfbfbf" stroke="black" points="0.5,-108 0.5,-138 167.5,-138 167.5,-108 0.5,-108"/>
<text text-anchor="start" x="8.5" y="-126" font-family="Helvetica,sans-Serif" font-size="10.00">repo.programs.pythonpackages.pr.</text>
<text text-anchor="middle" x="84" y="-115" font-family="Helvetica,sans-Serif" font-size="10.00">SPDataSet.SPDataSet.rawData</text>
</g>
<!-- Node2 -->
<g id="node2" class="node"><title>Node2</title>
<g id="a_node2"><a xlink:href="classrepo_1_1programs_1_1pythonpackages_1_1pr_1_1SPDataSet_1_1SPDataSet.html#a14656e508d81193e8c71c09d9444e15f" target="_top" xlink:title="repo.programs.pythonpackages.pr.\lSPDataSet.SPDataSet.trigTimes">
<polygon fill="white" stroke="black" points="217.5,-134 217.5,-164 384.5,-164 384.5,-134 217.5,-134"/>
<text text-anchor="start" x="225.5" y="-152" font-family="Helvetica,sans-Serif" font-size="10.00">repo.programs.pythonpackages.pr.</text>
<text text-anchor="middle" x="301" y="-141" font-family="Helvetica,sans-Serif" font-size="10.00">SPDataSet.SPDataSet.trigTimes</text>
</a>
</g>
</g>
<!-- Node1&#45;&gt;Node2 -->
<g id="edge1" class="edge"><title>Node1&#45;&gt;Node2</title>
<path fill="none" stroke="midnightblue" d="M177.555,-134.193C190.789,-135.793 204.33,-137.431 217.356,-139.006"/>
<polygon fill="midnightblue" stroke="midnightblue" points="177.858,-130.704 167.51,-132.978 177.017,-137.653 177.858,-130.704"/>
</g>
<!-- Node3 -->
<g id="node3" class="node"><title>Node3</title>
<g id="a_node3"><a xlink:href="classrepo_1_1programs_1_1pythonpackages_1_1pr_1_1SPDataSet_1_1SPDataSet.html#a5b12a3d9fdb93ccbf79a6b7a7893be3f" target="_top" xlink:title="repo.programs.pythonpackages.pr.\lSPDataSet.SPDataSet.cutAmp">
<polygon fill="white" stroke="black" points="444.5,-251 444.5,-281 611.5,-281 611.5,-251 444.5,-251"/>
<text text-anchor="start" x="452.5" y="-269" font-family="Helvetica,sans-Serif" font-size="10.00">repo.programs.pythonpackages.pr.</text>
<text text-anchor="middle" x="528" y="-258" font-family="Helvetica,sans-Serif" font-size="10.00">SPDataSet.SPDataSet.cutAmp</text>
</a>
</g>
</g>
<!-- Node1&#45;&gt;Node3 -->
<g id="edge28" class="edge"><title>Node1&#45;&gt;Node3</title>
<path fill="none" stroke="midnightblue" d="M110.056,-144.595C132.991,-163.202 168.644,-189.316 204,-204 281.913,-236.359 377.483,-252.018 444.375,-259.475"/>
<polygon fill="midnightblue" stroke="midnightblue" points="112.146,-141.782 102.206,-138.114 107.69,-147.18 112.146,-141.782"/>
</g>
<!-- Node12 -->
<g id="node12" class="node"><title>Node12</title>
<g id="a_node12"><a xlink:href="classrepo_1_1programs_1_1pythonpackages_1_1pr_1_1SPDataSet_1_1SPDataSet.html#a5ad35e931371981e41221502928547d5" target="_top" xlink:title="Check that the calculated apparatus directions fit with the available data. ">
<polygon fill="white" stroke="black" points="1312,-158 1312,-188 1504,-188 1504,-158 1312,-158"/>
<text text-anchor="start" x="1320" y="-176" font-family="Helvetica,sans-Serif" font-size="10.00">repo.programs.pythonpackages.pr.</text>
<text text-anchor="middle" x="1408" y="-165" font-family="Helvetica,sans-Serif" font-size="10.00">SPDataSet.SPDataSet.checkDirections</text>
</a>
</g>
</g>
<!-- Node1&#45;&gt;Node12 -->
<g id="edge33" class="edge"><title>Node1&#45;&gt;Node12</title>
<path fill="none" stroke="midnightblue" d="M158.066,-105.845C245.332,-86.8874 395.973,-59 527,-59 527,-59 527,-59 957,-59 1116.37,-59 1298.04,-127.023 1372.46,-157.979"/>
<polygon fill="midnightblue" stroke="midnightblue" points="157.281,-102.434 148.263,-107.995 158.781,-109.271 157.281,-102.434"/>
</g>
<!-- Node13 -->
<g id="node13" class="node"><title>Node13</title>
<g id="a_node13"><a xlink:href="classrepo_1_1programs_1_1pythonpackages_1_1pr_1_1SPDataSet_1_1SPDataSet.html#a6f2c3de2aa708d686f5835f10e2d096d" target="_top" xlink:title="repo.programs.pythonpackages.pr.\lSPDataSet.SPDataSet.pointAmp">
<polygon fill="white" stroke="black" points="658.5,-313 658.5,-343 825.5,-343 825.5,-313 658.5,-313"/>
<text text-anchor="start" x="666.5" y="-331" font-family="Helvetica,sans-Serif" font-size="10.00">repo.programs.pythonpackages.pr.</text>
<text text-anchor="middle" x="742" y="-320" font-family="Helvetica,sans-Serif" font-size="10.00">SPDataSet.SPDataSet.pointAmp</text>
</a>
</g>
</g>
<!-- Node1&#45;&gt;Node13 -->
<g id="edge31" class="edge"><title>Node1&#45;&gt;Node13</title>
<path fill="none" stroke="midnightblue" d="M102.186,-146.562C123.221,-173.73 161.347,-217.865 204,-243 347.124,-327.341 547.269,-335.889 658.383,-332.995"/>
<polygon fill="midnightblue" stroke="midnightblue" points="104.809,-144.229 95.9729,-138.383 99.235,-148.463 104.809,-144.229"/>
</g>
<!-- Node15 -->
<g id="node15" class="node"><title>Node15</title>
<g id="a_node15"><a xlink:href="classrepo_1_1programs_1_1pythonpackages_1_1pr_1_1SPDataSet_1_1SPDataSet.html#a5343a59b34ffebfc31c1dfd06ddfa889" target="_top" xlink:title="repo.programs.pythonpackages.pr.\lSPDataSet.SPDataSet.viewRaw">
<polygon fill="white" stroke="black" points="658.5,-114 658.5,-144 825.5,-144 825.5,-114 658.5,-114"/>
<text text-anchor="start" x="666.5" y="-132" font-family="Helvetica,sans-Serif" font-size="10.00">repo.programs.pythonpackages.pr.</text>
<text text-anchor="middle" x="742" y="-121" font-family="Helvetica,sans-Serif" font-size="10.00">SPDataSet.SPDataSet.viewRaw</text>
</a>
</g>
</g>
<!-- Node1&#45;&gt;Node15 -->
<g id="edge32" class="edge"><title>Node1&#45;&gt;Node15</title>
<path fill="none" stroke="midnightblue" d="M177.901,-123.02C240.173,-123.102 324.008,-123.343 398,-124 486.882,-124.79 588.711,-126.358 658.18,-127.529"/>
<polygon fill="midnightblue" stroke="midnightblue" points="177.711,-119.52 167.707,-123.008 177.703,-126.52 177.711,-119.52"/>
</g>
<!-- Node16 -->
<g id="node16" class="node"><title>Node16</title>
<g id="a_node16"><a xlink:href="classrepo_1_1programs_1_1pythonpackages_1_1pr_1_1SPDataSet_1_1SPDataSet.html#aa0b687b3c937bfb4aa71c4a09cac5eb5" target="_top" xlink:title="Names should be of the form &quot;med:Total Position Sensor 1&quot; etc. ">
<polygon fill="white" stroke="black" points="204,-0 204,-30 398,-30 398,-0 204,-0"/>
<text text-anchor="start" x="212" y="-18" font-family="Helvetica,sans-Serif" font-size="10.00">repo.programs.pythonpackages.pr.</text>
<text text-anchor="middle" x="301" y="-7" font-family="Helvetica,sans-Serif" font-size="10.00">SPDataSet.SPDataSet.getRawByName</text>
</a>
</g>
</g>
<!-- Node1&#45;&gt;Node16 -->
<g id="edge25" class="edge"><title>Node1&#45;&gt;Node16</title>
<path fill="none" stroke="midnightblue" d="M104.811,-101.003C127.64,-81.2997 166.805,-53.581 204,-36 208.42,-33.9107 213.022,-31.9195 217.713,-30.0417"/>
<polygon fill="midnightblue" stroke="midnightblue" points="102.272,-98.5782 97.173,-107.865 106.951,-103.785 102.272,-98.5782"/>
</g>
<!-- Node18 -->
<g id="node18" class="node"><title>Node18</title>
<g id="a_node18"><a xlink:href="classrepo_1_1programs_1_1pythonpackages_1_1pr_1_1SPDataSet_1_1SPDataSet.html#a2b09966d9ad35b39ea13988a7c361df6" target="_top" xlink:title="Assume it&#39;s a continuously rotating sample. ">
<polygon fill="white" stroke="black" points="434,-202 434,-232 622,-232 622,-202 434,-202"/>
<text text-anchor="start" x="442" y="-220" font-family="Helvetica,sans-Serif" font-size="10.00">repo.programs.pythonpackages.pr.</text>
<text text-anchor="middle" x="528" y="-209" font-family="Helvetica,sans-Serif" font-size="10.00">SPDataSet.SPDataSet.seqAmpFitSplit</text>
</a>
</g>
</g>
<!-- Node1&#45;&gt;Node18 -->
<g id="edge29" class="edge"><title>Node1&#45;&gt;Node18</title>
<path fill="none" stroke="midnightblue" d="M124.351,-142.613C147.102,-153.163 176.573,-165.51 204,-173 279.887,-193.723 368.591,-204.914 433.821,-210.815"/>
<polygon fill="midnightblue" stroke="midnightblue" points="125.574,-139.321 115.037,-138.221 122.589,-145.652 125.574,-139.321"/>
</g>
<!-- Node2&#45;&gt;Node3 -->
<g id="edge2" class="edge"><title>Node2&#45;&gt;Node3</title>
<path fill="none" stroke="midnightblue" d="M327.57,-170.887C353.019,-191.647 393.956,-222.36 434,-241 442.185,-244.81 451.055,-248.125 459.957,-250.984"/>
<polygon fill="midnightblue" stroke="midnightblue" points="329.494,-167.936 319.557,-164.26 325.033,-173.33 329.494,-167.936"/>
</g>
<!-- Node2&#45;&gt;Node12 -->
<g id="edge24" class="edge"><title>Node2&#45;&gt;Node12</title>
<path fill="none" stroke="midnightblue" d="M394.907,-157.03C483.709,-164.007 621.384,-173 741,-173 741,-173 741,-173 957,-173 1079.46,-173 1220.67,-173 1311.75,-173"/>
<polygon fill="midnightblue" stroke="midnightblue" points="395.107,-153.535 384.862,-156.233 394.553,-160.513 395.107,-153.535"/>
</g>
<!-- Node2&#45;&gt;Node15 -->
<g id="edge23" class="edge"><title>Node2&#45;&gt;Node15</title>
<path fill="none" stroke="midnightblue" d="M394.882,-144.768C472.929,-141.213 583.43,-136.179 658.425,-132.762"/>
<polygon fill="midnightblue" stroke="midnightblue" points="394.403,-141.287 384.573,-145.238 394.722,-148.279 394.403,-141.287"/>
</g>
<!-- Node3&#45;&gt;Node3 -->
<g id="edge3" class="edge"><title>Node3&#45;&gt;Node3</title>
<path fill="none" stroke="midnightblue" d="M490.542,-291.598C495.66,-295.97 508.146,-299 528,-299 561.438,-299 573.977,-290.406 565.617,-281.275"/>
<polygon fill="midnightblue" stroke="midnightblue" points="494.037,-291.22 490.383,-281.275 487.038,-291.328 494.037,-291.22"/>
</g>
<!-- Node4 -->
<g id="node4" class="node"><title>Node4</title>
<g id="a_node4"><a xlink:href="classrepo_1_1programs_1_1pythonpackages_1_1pr_1_1SPDataSet_1_1SPDataSet.html#a9eac955cac12a62b72d189aa80b82ec6" target="_top" xlink:title="repo.programs.pythonpackages.pr.\lSPDataSet.SPDataSet.filteredCutAmp">
<polygon fill="white" stroke="black" points="862.5,-243 862.5,-273 1049.5,-273 1049.5,-243 862.5,-243"/>
<text text-anchor="start" x="870.5" y="-261" font-family="Helvetica,sans-Serif" font-size="10.00">repo.programs.pythonpackages.pr.</text>
<text text-anchor="middle" x="956" y="-250" font-family="Helvetica,sans-Serif" font-size="10.00">SPDataSet.SPDataSet.filteredCutAmp</text>
</a>
</g>
</g>
<!-- Node3&#45;&gt;Node4 -->
<g id="edge4" class="edge"><title>Node3&#45;&gt;Node4</title>
<path fill="none" stroke="midnightblue" d="M621.953,-264.254C693.192,-262.917 791.033,-261.079 862.227,-259.742"/>
<polygon fill="midnightblue" stroke="midnightblue" points="621.575,-260.761 611.642,-264.448 621.706,-267.76 621.575,-260.761"/>
</g>
<!-- Node3&#45;&gt;Node13 -->
<g id="edge16" class="edge"><title>Node3&#45;&gt;Node13</title>
<path fill="none" stroke="midnightblue" d="M590.274,-283.92C621.687,-293.107 659.517,-304.17 689.419,-312.915"/>
<polygon fill="midnightblue" stroke="midnightblue" points="590.9,-280.456 580.319,-281.008 588.935,-287.175 590.9,-280.456"/>
</g>
<!-- Node3&#45;&gt;Node15 -->
<g id="edge22" class="edge"><title>Node3&#45;&gt;Node15</title>
<path fill="none" stroke="midnightblue" d="M609.57,-247.09C613.86,-245.238 618.033,-243.213 622,-241 667.836,-215.43 709.57,-168.327 729.194,-144.166"/>
<polygon fill="midnightblue" stroke="midnightblue" points="608.032,-243.935 600.025,-250.873 610.611,-250.442 608.032,-243.935"/>
</g>
<!-- Node5 -->
<g id="node5" class="node"><title>Node5</title>
<g id="a_node5"><a xlink:href="classrepo_1_1programs_1_1pythonpackages_1_1pr_1_1SPDataSet_1_1SPDataSet.html#accbfa0185d4e416038e688fc9b55575b" target="_top" xlink:title="repo.programs.pythonpackages.pr.\lSPDataSet.SPDataSet.sequenceAmp">
<polygon fill="white" stroke="black" points="1086,-261 1086,-291 1270,-291 1270,-261 1086,-261"/>
<text text-anchor="start" x="1094" y="-279" font-family="Helvetica,sans-Serif" font-size="10.00">repo.programs.pythonpackages.pr.</text>
<text text-anchor="middle" x="1178" y="-268" font-family="Helvetica,sans-Serif" font-size="10.00">SPDataSet.SPDataSet.sequenceAmp</text>
</a>
</g>
</g>
<!-- Node4&#45;&gt;Node5 -->
<g id="edge5" class="edge"><title>Node4&#45;&gt;Node5</title>
<path fill="none" stroke="midnightblue" d="M1059.82,-266.413C1068.51,-267.124 1077.26,-267.84 1085.85,-268.542"/>
<polygon fill="midnightblue" stroke="midnightblue" points="1059.91,-262.909 1049.66,-265.581 1059.34,-269.885 1059.91,-262.909"/>
</g>
<!-- Node5&#45;&gt;Node5 -->
<g id="edge6" class="edge"><title>Node5&#45;&gt;Node5</title>
<path fill="none" stroke="midnightblue" d="M1139.14,-301.598C1144.45,-305.97 1157.4,-309 1178,-309 1212.69,-309 1225.7,-300.406 1217.02,-291.275"/>
<polygon fill="midnightblue" stroke="midnightblue" points="1142.64,-301.218 1138.98,-291.275 1135.64,-301.33 1142.64,-301.218"/>
</g>
<!-- Node6 -->
<g id="node6" class="node"><title>Node6</title>
<g id="a_node6"><a xlink:href="classrepo_1_1programs_1_1pythonpackages_1_1pr_1_1SPDataSet_1_1SPDataSet.html#ac0df54b82a9e993d707f0dafd87a19dd" target="_top" xlink:title="repo.programs.pythonpackages.pr.\lSPDataSet.SPDataSet.labAmp">
<polygon fill="white" stroke="black" points="1324.5,-217 1324.5,-247 1491.5,-247 1491.5,-217 1324.5,-217"/>
<text text-anchor="start" x="1332.5" y="-235" font-family="Helvetica,sans-Serif" font-size="10.00">repo.programs.pythonpackages.pr.</text>
<text text-anchor="middle" x="1408" y="-224" font-family="Helvetica,sans-Serif" font-size="10.00">SPDataSet.SPDataSet.labAmp</text>
</a>
</g>
</g>
<!-- Node5&#45;&gt;Node6 -->
<g id="edge7" class="edge"><title>Node5&#45;&gt;Node6</title>
<path fill="none" stroke="midnightblue" d="M1266.8,-259.056C1287.33,-255.093 1309.07,-250.899 1329.14,-247.026"/>
<polygon fill="midnightblue" stroke="midnightblue" points="1265.98,-255.649 1256.83,-260.981 1267.31,-262.522 1265.98,-255.649"/>
</g>
<!-- Node7 -->
<g id="node7" class="node"><title>Node7</title>
<g id="a_node7"><a xlink:href="classrepo_1_1programs_1_1pythonpackages_1_1pr_1_1SPDataSet_1_1SPDataSet.html#a3624263a6738178d243635889b719a90" target="_top" xlink:title="repo.programs.pythonpackages.pr.\lSPDataSet.SPDataSet.viewSid">
<polygon fill="white" stroke="black" points="1551.5,-261 1551.5,-291 1718.5,-291 1718.5,-261 1551.5,-261"/>
<text text-anchor="start" x="1559.5" y="-279" font-family="Helvetica,sans-Serif" font-size="10.00">repo.programs.pythonpackages.pr.</text>
<text text-anchor="middle" x="1635" y="-268" font-family="Helvetica,sans-Serif" font-size="10.00">SPDataSet.SPDataSet.viewSid</text>
</a>
</g>
</g>
<!-- Node5&#45;&gt;Node7 -->
<g id="edge13" class="edge"><title>Node5&#45;&gt;Node7</title>
<path fill="none" stroke="midnightblue" d="M1280.54,-276C1362.11,-276 1475.21,-276 1551.31,-276"/>
<polygon fill="midnightblue" stroke="midnightblue" points="1280.26,-272.5 1270.26,-276 1280.26,-279.5 1280.26,-272.5"/>
</g>
<!-- Node8 -->
<g id="node8" class="node"><title>Node8</title>
<g id="a_node8"><a xlink:href="classrepo_1_1programs_1_1pythonpackages_1_1pr_1_1SPDataSet_1_1SPDataSet.html#acf495c99c803a2a1e23cdaeae34da985" target="_top" xlink:title="repo.programs.pythonpackages.pr.\lSPDataSet.SPDataSet.sidAmp">
<polygon fill="white" stroke="black" points="1324.5,-305 1324.5,-335 1491.5,-335 1491.5,-305 1324.5,-305"/>
<text text-anchor="start" x="1332.5" y="-323" font-family="Helvetica,sans-Serif" font-size="10.00">repo.programs.pythonpackages.pr.</text>
<text text-anchor="middle" x="1408" y="-312" font-family="Helvetica,sans-Serif" font-size="10.00">SPDataSet.SPDataSet.sidAmp</text>
</a>
</g>
</g>
<!-- Node5&#45;&gt;Node8 -->
<g id="edge9" class="edge"><title>Node5&#45;&gt;Node8</title>
<path fill="none" stroke="midnightblue" d="M1266.8,-292.944C1287.33,-296.907 1309.07,-301.101 1329.14,-304.974"/>
<polygon fill="midnightblue" stroke="midnightblue" points="1267.31,-289.478 1256.83,-291.019 1265.98,-296.351 1267.31,-289.478"/>
</g>
<!-- Node9 -->
<g id="node9" class="node"><title>Node9</title>
<g id="a_node9"><a xlink:href="classrepo_1_1programs_1_1pythonpackages_1_1pr_1_1SPDataSet_1_1SPDataSet.html#ac55c6ccc03634d3f670f52e89188779c" target="_top" xlink:title="repo.programs.pythonpackages.pr.\lSPDataSet.SPDataSet.viewSeq">
<polygon fill="white" stroke="black" points="1324.5,-359 1324.5,-389 1491.5,-389 1491.5,-359 1324.5,-359"/>
<text text-anchor="start" x="1332.5" y="-377" font-family="Helvetica,sans-Serif" font-size="10.00">repo.programs.pythonpackages.pr.</text>
<text text-anchor="middle" x="1408" y="-366" font-family="Helvetica,sans-Serif" font-size="10.00">SPDataSet.SPDataSet.viewSeq</text>
</a>
</g>
</g>
<!-- Node5&#45;&gt;Node9 -->
<g id="edge11" class="edge"><title>Node5&#45;&gt;Node9</title>
<path fill="none" stroke="midnightblue" d="M1212.32,-296.254C1237.42,-310.911 1273.04,-330.445 1306,-344 1319.62,-349.6 1334.66,-354.645 1348.88,-358.93"/>
<polygon fill="midnightblue" stroke="midnightblue" points="1213.96,-293.16 1203.57,-291.095 1210.41,-299.189 1213.96,-293.16"/>
</g>
<!-- Node11 -->
<g id="node11" class="node"><title>Node11</title>
<g id="a_node11"><a xlink:href="classrepo_1_1programs_1_1pythonpackages_1_1pr_1_1SPDataSet_1_1SPDataSet.html#a5aad808c592bfdbb665105df2947610f" target="_top" xlink:title="repo.programs.pythonpackages.pr.\lSPDataSet.SPDataSet.viewCorrelationFilt">
<polygon fill="white" stroke="black" points="1306.5,-410 1306.5,-440 1509.5,-440 1509.5,-410 1306.5,-410"/>
<text text-anchor="start" x="1314.5" y="-428" font-family="Helvetica,sans-Serif" font-size="10.00">repo.programs.pythonpackages.pr.</text>
<text text-anchor="middle" x="1408" y="-417" font-family="Helvetica,sans-Serif" font-size="10.00">SPDataSet.SPDataSet.viewCorrelationFilt</text>
</a>
</g>
</g>
<!-- Node5&#45;&gt;Node11 -->
<g id="edge14" class="edge"><title>Node5&#45;&gt;Node11</title>
<path fill="none" stroke="midnightblue" d="M1196.89,-299.231C1219.39,-326.853 1260.62,-372.422 1306,-398 1314.46,-402.768 1323.79,-406.723 1333.27,-409.995"/>
<polygon fill="midnightblue" stroke="midnightblue" points="1199.5,-296.897 1190.52,-291.277 1194.04,-301.271 1199.5,-296.897"/>
</g>
<!-- Node5&#45;&gt;Node12 -->
<g id="edge15" class="edge"><title>Node5&#45;&gt;Node12</title>
<path fill="none" stroke="midnightblue" d="M1212.43,-255.766C1237.59,-241.053 1273.22,-221.293 1306,-207 1322.2,-199.937 1340.36,-193.413 1356.78,-188.007"/>
<polygon fill="midnightblue" stroke="midnightblue" points="1210.49,-252.843 1203.66,-260.938 1214.05,-258.873 1210.49,-252.843"/>
</g>
<!-- Node6&#45;&gt;Node7 -->
<g id="edge8" class="edge"><title>Node6&#45;&gt;Node7</title>
<path fill="none" stroke="midnightblue" d="M1495.64,-248.944C1515.91,-252.907 1537.36,-257.101 1557.16,-260.974"/>
<polygon fill="midnightblue" stroke="midnightblue" points="1496.29,-245.504 1485.8,-247.019 1494.95,-252.373 1496.29,-245.504"/>
</g>
<!-- Node8&#45;&gt;Node7 -->
<g id="edge10" class="edge"><title>Node8&#45;&gt;Node7</title>
<path fill="none" stroke="midnightblue" d="M1495.64,-303.056C1515.91,-299.093 1537.36,-294.899 1557.16,-291.026"/>
<polygon fill="midnightblue" stroke="midnightblue" points="1494.95,-299.627 1485.8,-304.981 1496.29,-306.496 1494.95,-299.627"/>
</g>
<!-- Node10 -->
<g id="node10" class="node"><title>Node10</title>
<g id="a_node10"><a xlink:href="classrepo_1_1programs_1_1pythonpackages_1_1pr_1_1SPDataSet_1_1SPDataSet.html#a0c87af10688edd55eb0aea229e5979bb" target="_top" xlink:title="repo.programs.pythonpackages.pr.\lSPDataSet.SPDataSet.viewSensors">
<polygon fill="white" stroke="black" points="1546,-359 1546,-389 1724,-389 1724,-359 1546,-359"/>
<text text-anchor="start" x="1554" y="-377" font-family="Helvetica,sans-Serif" font-size="10.00">repo.programs.pythonpackages.pr.</text>
<text text-anchor="middle" x="1635" y="-366" font-family="Helvetica,sans-Serif" font-size="10.00">SPDataSet.SPDataSet.viewSensors</text>
</a>
</g>
</g>
<!-- Node9&#45;&gt;Node10 -->
<g id="edge12" class="edge"><title>Node9&#45;&gt;Node10</title>
<path fill="none" stroke="midnightblue" d="M1501.55,-374C1516.19,-374 1531.29,-374 1545.83,-374"/>
<polygon fill="midnightblue" stroke="midnightblue" points="1501.5,-370.5 1491.5,-374 1501.5,-377.5 1501.5,-370.5"/>
</g>
<!-- Node13&#45;&gt;Node4 -->
<g id="edge17" class="edge"><title>Node13&#45;&gt;Node4</title>
<path fill="none" stroke="midnightblue" d="M797.042,-309.679C817.387,-302.823 840.74,-295.002 862,-288 876.825,-283.118 893.005,-277.87 907.652,-273.15"/>
<polygon fill="midnightblue" stroke="midnightblue" points="795.674,-306.447 787.318,-312.96 797.912,-313.079 795.674,-306.447"/>
</g>
<!-- Node13&#45;&gt;Node5 -->
<g id="edge18" class="edge"><title>Node13&#45;&gt;Node5</title>
<path fill="none" stroke="midnightblue" d="M835.867,-316.873C909.646,-308.033 1012.27,-295.737 1085.65,-286.945"/>
<polygon fill="midnightblue" stroke="midnightblue" points="835.166,-313.432 825.654,-318.097 835.999,-320.382 835.166,-313.432"/>
</g>
<!-- Node13&#45;&gt;Node9 -->
<g id="edge19" class="edge"><title>Node13&#45;&gt;Node9</title>
<path fill="none" stroke="midnightblue" d="M785.546,-346.889C807.837,-355.782 835.87,-365.425 862,-370 1023.71,-398.31 1216.56,-390.084 1324.06,-381.842"/>
<polygon fill="midnightblue" stroke="midnightblue" points="786.633,-343.552 776.052,-343.009 783.985,-350.032 786.633,-343.552"/>
</g>
<!-- Node13&#45;&gt;Node11 -->
<g id="edge20" class="edge"><title>Node13&#45;&gt;Node11</title>
<path fill="none" stroke="midnightblue" d="M772.008,-348.623C795.172,-363.873 829.093,-383.563 862,-393 1012.33,-436.112 1195.28,-436.944 1306.35,-432.087"/>
<polygon fill="midnightblue" stroke="midnightblue" points="773.934,-345.7 763.682,-343.027 770.029,-351.51 773.934,-345.7"/>
</g>
<!-- Node14 -->
<g id="node14" class="node"><title>Node14</title>
<g id="a_node14"><a xlink:href="classrepo_1_1programs_1_1pythonpackages_1_1pr_1_1SPDataSet_1_1SPDataSet.html#a2ffa7a6de1e0ebd8172db800621eed20" target="_top" xlink:title="repo.programs.pythonpackages.pr.\lSPDataSet.SPDataSet.test_div">
<polygon fill="white" stroke="black" points="872.5,-331 872.5,-361 1039.5,-361 1039.5,-331 872.5,-331"/>
<text text-anchor="start" x="880.5" y="-349" font-family="Helvetica,sans-Serif" font-size="10.00">repo.programs.pythonpackages.pr.</text>
<text text-anchor="middle" x="956" y="-338" font-family="Helvetica,sans-Serif" font-size="10.00">SPDataSet.SPDataSet.test_div</text>
</a>
</g>
</g>
<!-- Node13&#45;&gt;Node14 -->
<g id="edge21" class="edge"><title>Node13&#45;&gt;Node14</title>
<path fill="none" stroke="midnightblue" d="M835.728,-335.873C847.901,-336.907 860.312,-337.96 872.305,-338.979"/>
<polygon fill="midnightblue" stroke="midnightblue" points="835.832,-332.369 825.572,-335.011 835.24,-339.344 835.832,-332.369"/>
</g>
<!-- Node16&#45;&gt;Node1 -->
<g id="edge27" class="edge"><title>Node16&#45;&gt;Node1</title>
<path fill="none" stroke="midnightblue" d="M259.049,-33.3667C241.658,-39.0568 221.42,-45.7662 204,-54 171.617,-69.3065 137.741,-92.2972 114.452,-107.721"/>
<polygon fill="midnightblue" stroke="midnightblue" points="260.505,-36.5726 268.917,-30.1305 258.324,-29.9212 260.505,-36.5726"/>
</g>
<!-- Node17 -->
<g id="node17" class="node"><title>Node17</title>
<g id="a_node17"><a xlink:href="classrepo_1_1programs_1_1pythonpackages_1_1pr_1_1SPDataSet_1_1SPDataSet.html#a3a649b10dc80a63cbbb7ed141f90519f" target="_top" xlink:title="repo.programs.pythonpackages.pr.\lSPDataSet.SPDataSet.getSensorData">
<polygon fill="white" stroke="black" points="434.5,-0 434.5,-30 621.5,-30 621.5,-0 434.5,-0"/>
<text text-anchor="start" x="442.5" y="-18" font-family="Helvetica,sans-Serif" font-size="10.00">repo.programs.pythonpackages.pr.</text>
<text text-anchor="middle" x="528" y="-7" font-family="Helvetica,sans-Serif" font-size="10.00">SPDataSet.SPDataSet.getSensorData</text>
</a>
</g>
</g>
<!-- Node16&#45;&gt;Node17 -->
<g id="edge26" class="edge"><title>Node16&#45;&gt;Node17</title>
<path fill="none" stroke="midnightblue" d="M408.3,-15C417.042,-15 425.835,-15 434.465,-15"/>
<polygon fill="midnightblue" stroke="midnightblue" points="408.073,-11.5001 398.073,-15 408.073,-18.5001 408.073,-11.5001"/>
</g>
<!-- Node18&#45;&gt;Node5 -->
<g id="edge30" class="edge"><title>Node18&#45;&gt;Node5</title>
<path fill="none" stroke="midnightblue" d="M632.127,-211.269C737.913,-207.462 906.789,-207.149 1050,-233 1081.96,-238.768 1116.8,-251.019 1141.89,-260.973"/>
<polygon fill="midnightblue" stroke="midnightblue" points="631.951,-207.773 622.09,-211.648 632.215,-214.768 631.951,-207.773"/>
</g>
</g>
</svg>
        <g id="navigator" transform="translate(0 0)" fill="#404254">
                <rect fill="#f2f5e9" fill-opacity="0.5" stroke="#606060" stroke-width=".5" x="0" y="0" width="60" height="60"/>
                <use id="zoomplus" xlink:href="#zoomPlus" x="17" y="9" onmousedown="handleZoom(evt,'in')"/>
                <use id="zoomminus" xlink:href="#zoomMin" x="42" y="9" onmousedown="handleZoom(evt,'out')"/>
                <use id="reset" xlink:href="#resetDef" x="30" y="36" onmousedown="handleReset()"/>
                <g id="arrowUp" xlink:href="#dirArrow" transform="translate(30 24)" onmousedown="handlePan(0,-1)">
                  <use xlink:href="#rim" fill="#404040">
                        <set attributeName="fill" to="#808080" begin="arrowUp.mouseover" end="arrowUp.mouseout"/>
                  </use>
                  <path fill="none" stroke="white" stroke-width="1.5" d="M0,-3.0v7 M-2.5,-0.5L0,-3.0L2.5,-0.5"/>
                </g>
                <g id="arrowRight" xlink:href="#dirArrow" transform="rotate(90) translate(36 -43)" onmousedown="handlePan(1,0)">
                  <use xlink:href="#rim" fill="#404040">
                        <set attributeName="fill" to="#808080" begin="arrowRight.mouseover" end="arrowRight.mouseout"/>
                  </use>
                  <path fill="none" stroke="white" stroke-width="1.5" d="M0,-3.0v7 M-2.5,-0.5L0,-3.0L2.5,-0.5"/>
                </g>
                <g id="arrowDown" xlink:href="#dirArrow" transform="rotate(180) translate(-30 -48)" onmousedown="handlePan(0,1)">
                  <use xlink:href="#rim" fill="#404040">
                        <set attributeName="fill" to="#808080" begin="arrowDown.mouseover" end="arrowDown.mouseout"/>
                  </use>
                  <path fill="none" stroke="white" stroke-width="1.5" d="M0,-3.0v7 M-2.5,-0.5L0,-3.0L2.5,-0.5"/>
                </g>
                <g id="arrowLeft" xlink:href="#dirArrow" transform="rotate(270) translate(-36 17)" onmousedown="handlePan(-1,0)">
                  <use xlink:href="#rim" fill="#404040">
                        <set attributeName="fill" to="#808080" begin="arrowLeft.mouseover" end="arrowLeft.mouseout"/>
                  </use>
                  <path fill="none" stroke="white" stroke-width="1.5" d="M0,-3.0v7 M-2.5,-0.5L0,-3.0L2.5,-0.5"/>
                </g>
        </g>
        <svg viewBox="0 0 15 15" width="100%" height="30px" preserveAspectRatio="xMaxYMin meet">
         <g id="arrow_out" transform="scale(0.3 0.3)">
          <a xlink:href="classrepo_1_1programs_1_1pythonpackages_1_1pr_1_1SPDataSet_1_1SPDataSet_afe54eeb9f41f503dc478557e4ea2c62a_icgraph_org.svg" target="_base">
           <rect id="button" ry="5" rx="5" y="6" x="6" height="38" width="38"
                fill="#f2f5e9" fill-opacity="0.5" stroke="#606060" stroke-width="1.0"/>
           <path id="arrow"
             d="M 11.500037,31.436501 C 11.940474,20.09759 22.043105,11.32322 32.158766,21.979434 L 37.068811,17.246167 C 37.068811,17.246167 37.088388,32 37.088388,32 L 22.160133,31.978069 C 22.160133,31.978069 26.997745,27.140456 26.997745,27.140456 C 18.528582,18.264221 13.291696,25.230495 11.500037,31.436501 z"
             style="fill:#404040;"/>
          </a>
         </g>
        </svg>
</svg>
