<?xml version="1.0" encoding="UTF-8" standalone="no"?>
<!DOCTYPE svg PUBLIC "-//W3C//DTD SVG 1.1//EN"
 "http://www.w3.org/Graphics/SVG/1.1/DTD/svg11.dtd">
<!-- Generated by graphviz version 2.36.0 (20140111.2315)
 -->
<!-- Title: repo.programs.pythonpackages.pr.SPDataSet.SPDataSet.fastD Pages: 1 -->
<!--zoomable 393 -->
<svg id="main" version="1.1" xmlns="http://www.w3.org/2000/svg" xmlns:xlink="http://www.w3.org/1999/xlink" xml:space="preserve" onload="init(evt)">
<style type="text/css"><![CDATA[
.edge:hover path { stroke: red; }
.edge:hover polygon { stroke: red; fill: red; }
]]></style>
<script type="text/javascript"><![CDATA[
var edges = document.getElementsByTagName('g');
if (edges && edges.length) {
  for (var i=0;i<edges.length;i++) {
    if (edges[i].id.substr(0,4)=='edge') {
      edges[i].setAttribute('class','edge');
    }
  }
}
]]></script>
        <defs>
                <circle id="rim" cx="0" cy="0" r="7"/>
                <circle id="rim2" cx="0" cy="0" r="3.5"/>
                <g id="zoomPlus">
                        <use xlink:href="#rim" fill="#404040">
                                <set attributeName="fill" to="#808080" begin="zoomplus.mouseover" end="zoomplus.mouseout"/>
                        </use>
                        <path d="M-4,0h8M0,-4v8" fill="none" stroke="white" stroke-width="1.5" pointer-events="none"/>
                </g>
                <g id="zoomMin">
                        <use xlink:href="#rim" fill="#404040">
                                <set attributeName="fill" to="#808080" begin="zoomminus.mouseover" end="zoomminus.mouseout"/>
                        </use>
                        <path d="M-4,0h8" fill="none" stroke="white" stroke-width="1.5" pointer-events="none"/>
                </g>
                <g id="dirArrow">
                        <path fill="none" stroke="white" stroke-width="1.5" d="M0,-3.0v7 M-2.5,-0.5L0,-3.0L2.5,-0.5"/>
                </g>
               <g id="resetDef">
                       <use xlink:href="#rim2" fill="#404040">
                               <set attributeName="fill" to="#808080" begin="reset.mouseover" end="reset.mouseout"/>
                       </use>
               </g>
        </defs>

<script type="text/javascript">
var viewWidth = 1936;
var viewHeight = 393;
var sectionId = 'dynsection-13';
</script>
<script xlink:href="svgpan.js"/>
<svg id="graph" class="graph">
<g id="viewport">
<title>repo.programs.pythonpackages.pr.SPDataSet.SPDataSet.fastD</title>
<polygon fill="white" stroke="none" points="-4,4 -4,-388.81 1932,-388.81 1932,4 -4,4"/>
<!-- Node1 -->
<g id="node1" class="node"><title>Node1</title>
<polygon fill="#bfbfbf" stroke="black" points="0.5,-140 0.5,-170 167.5,-170 167.5,-140 0.5,-140"/>
<text text-anchor="start" x="8.5" y="-158" font-family="Helvetica,sans-Serif" font-size="10.00">repo.programs.pythonpackages.pr.</text>
<text text-anchor="middle" x="84" y="-147" font-family="Helvetica,sans-Serif" font-size="10.00">SPDataSet.SPDataSet.fastD</text>
</g>
<!-- Node2 -->
<g id="node2" class="node"><title>Node2</title>
<g id="a_node2"><a xlink:href="classrepo_1_1programs_1_1pythonpackages_1_1pr_1_1SPDataSet_1_1SPDataSet.html#a0e6950849790e5787695a807f45b0d51" target="_top" xlink:title="repo.programs.pythonpackages.pr.\lSPDataSet.SPDataSet.tRange">
<polygon fill="white" stroke="black" points="204.5,-189 204.5,-219 371.5,-219 371.5,-189 204.5,-189"/>
<text text-anchor="start" x="212.5" y="-207" font-family="Helvetica,sans-Serif" font-size="10.00">repo.programs.pythonpackages.pr.</text>
<text text-anchor="middle" x="288" y="-196" font-family="Helvetica,sans-Serif" font-size="10.00">SPDataSet.SPDataSet.tRange</text>
</a>
</g>
</g>
<!-- Node1&#45;&gt;Node2 -->
<g id="edge1" class="edge"><title>Node1&#45;&gt;Node2</title>
<path fill="none" stroke="midnightblue" d="M156.746,-172.404C179.092,-177.824 203.529,-183.752 225.138,-188.994"/>
<polygon fill="midnightblue" stroke="midnightblue" points="157.523,-168.991 146.979,-170.035 155.872,-175.793 157.523,-168.991"/>
</g>
<!-- Node3 -->
<g id="node3" class="node"><title>Node3</title>
<g id="a_node3"><a xlink:href="classrepo_1_1programs_1_1pythonpackages_1_1pr_1_1SPDataSet_1_1SPDataSet.html#a14656e508d81193e8c71c09d9444e15f" target="_top" xlink:title="repo.programs.pythonpackages.pr.\lSPDataSet.SPDataSet.trigTimes">
<polygon fill="white" stroke="black" points="421.5,-17 421.5,-47 588.5,-47 588.5,-17 421.5,-17"/>
<text text-anchor="start" x="429.5" y="-35" font-family="Helvetica,sans-Serif" font-size="10.00">repo.programs.pythonpackages.pr.</text>
<text text-anchor="middle" x="505" y="-24" font-family="Helvetica,sans-Serif" font-size="10.00">SPDataSet.SPDataSet.trigTimes</text>
</a>
</g>
</g>
<!-- Node1&#45;&gt;Node3 -->
<g id="edge2" class="edge"><title>Node1&#45;&gt;Node3</title>
<path fill="none" stroke="midnightblue" d="M146.16,-137.046C229.036,-112.717 375.512,-69.7183 452.858,-47.013"/>
<polygon fill="midnightblue" stroke="midnightblue" points="144.987,-133.743 136.378,-139.918 146.959,-140.459 144.987,-133.743"/>
</g>
<!-- Node17 -->
<g id="node17" class="node"><title>Node17</title>
<g id="a_node17"><a xlink:href="classrepo_1_1programs_1_1pythonpackages_1_1pr_1_1SPDataSet_1_1SPDataSet.html#afe54eeb9f41f503dc478557e4ea2c62a" target="_top" xlink:title="repo.programs.pythonpackages.pr.\lSPDataSet.SPDataSet.rawData">
<polygon fill="white" stroke="black" points="204.5,-140 204.5,-170 371.5,-170 371.5,-140 204.5,-140"/>
<text text-anchor="start" x="212.5" y="-158" font-family="Helvetica,sans-Serif" font-size="10.00">repo.programs.pythonpackages.pr.</text>
<text text-anchor="middle" x="288" y="-147" font-family="Helvetica,sans-Serif" font-size="10.00">SPDataSet.SPDataSet.rawData</text>
</a>
</g>
</g>
<!-- Node1&#45;&gt;Node17 -->
<g id="edge26" class="edge"><title>Node1&#45;&gt;Node17</title>
<path fill="none" stroke="midnightblue" d="M178.018,-155C186.815,-155 195.694,-155 204.385,-155"/>
<polygon fill="midnightblue" stroke="midnightblue" points="177.744,-151.5 167.744,-155 177.744,-158.5 177.744,-151.5"/>
</g>
<!-- Node4 -->
<g id="node4" class="node"><title>Node4</title>
<g id="a_node4"><a xlink:href="classrepo_1_1programs_1_1pythonpackages_1_1pr_1_1SPDataSet_1_1SPDataSet.html#a5b12a3d9fdb93ccbf79a6b7a7893be3f" target="_top" xlink:title="repo.programs.pythonpackages.pr.\lSPDataSet.SPDataSet.cutAmp">
<polygon fill="white" stroke="black" points="648.5,-192 648.5,-222 815.5,-222 815.5,-192 648.5,-192"/>
<text text-anchor="start" x="656.5" y="-210" font-family="Helvetica,sans-Serif" font-size="10.00">repo.programs.pythonpackages.pr.</text>
<text text-anchor="middle" x="732" y="-199" font-family="Helvetica,sans-Serif" font-size="10.00">SPDataSet.SPDataSet.cutAmp</text>
</a>
</g>
</g>
<!-- Node3&#45;&gt;Node4 -->
<g id="edge3" class="edge"><title>Node3&#45;&gt;Node4</title>
<path fill="none" stroke="midnightblue" d="M520.6,-56.0792C542.104,-89.4631 585.478,-149.373 638,-182 644.249,-185.882 651.097,-189.168 658.154,-191.948"/>
<polygon fill="midnightblue" stroke="midnightblue" points="523.424,-53.9971 515.125,-47.4113 517.506,-57.7352 523.424,-53.9971"/>
</g>
<!-- Node13 -->
<g id="node13" class="node"><title>Node13</title>
<g id="a_node13"><a xlink:href="classrepo_1_1programs_1_1pythonpackages_1_1pr_1_1SPDataSet_1_1SPDataSet.html#a5ad35e931371981e41221502928547d5" target="_top" xlink:title="Check that the calculated apparatus directions fit with the available data. ">
<polygon fill="white" stroke="black" points="1516,-60 1516,-90 1708,-90 1708,-60 1516,-60"/>
<text text-anchor="start" x="1524" y="-78" font-family="Helvetica,sans-Serif" font-size="10.00">repo.programs.pythonpackages.pr.</text>
<text text-anchor="middle" x="1612" y="-67" font-family="Helvetica,sans-Serif" font-size="10.00">SPDataSet.SPDataSet.checkDirections</text>
</a>
</g>
</g>
<!-- Node3&#45;&gt;Node13 -->
<g id="edge25" class="edge"><title>Node3&#45;&gt;Node13</title>
<path fill="none" stroke="midnightblue" d="M598.845,-21.2929C687.601,-11.9913 825.246,-0 945,-0 945,-0 945,-0 1161,-0 1305.35,-0 1472.24,-38.0116 1556.42,-59.9129"/>
<polygon fill="midnightblue" stroke="midnightblue" points="598.38,-17.8224 588.804,-22.3555 599.117,-24.7835 598.38,-17.8224"/>
</g>
<!-- Node16 -->
<g id="node16" class="node"><title>Node16</title>
<g id="a_node16"><a xlink:href="classrepo_1_1programs_1_1pythonpackages_1_1pr_1_1SPDataSet_1_1SPDataSet.html#a5343a59b34ffebfc31c1dfd06ddfa889" target="_top" xlink:title="repo.programs.pythonpackages.pr.\lSPDataSet.SPDataSet.viewRaw">
<polygon fill="white" stroke="black" points="862.5,-104 862.5,-134 1029.5,-134 1029.5,-104 862.5,-104"/>
<text text-anchor="start" x="870.5" y="-122" font-family="Helvetica,sans-Serif" font-size="10.00">repo.programs.pythonpackages.pr.</text>
<text text-anchor="middle" x="946" y="-111" font-family="Helvetica,sans-Serif" font-size="10.00">SPDataSet.SPDataSet.viewRaw</text>
</a>
</g>
</g>
<!-- Node3&#45;&gt;Node16 -->
<g id="edge24" class="edge"><title>Node3&#45;&gt;Node16</title>
<path fill="none" stroke="midnightblue" d="M592.096,-49.0624C672.747,-65.0456 792.108,-88.7003 869.229,-103.984"/>
<polygon fill="midnightblue" stroke="midnightblue" points="592.456,-45.5657 581.967,-47.0549 591.096,-52.4322 592.456,-45.5657"/>
</g>
<!-- Node4&#45;&gt;Node4 -->
<g id="edge4" class="edge"><title>Node4&#45;&gt;Node4</title>
<path fill="none" stroke="midnightblue" d="M694.542,-232.598C699.66,-236.97 712.146,-240 732,-240 765.438,-240 777.977,-231.406 769.617,-222.275"/>
<polygon fill="midnightblue" stroke="midnightblue" points="698.037,-232.22 694.383,-222.275 691.038,-232.328 698.037,-232.22"/>
</g>
<!-- Node5 -->
<g id="node5" class="node"><title>Node5</title>
<g id="a_node5"><a xlink:href="classrepo_1_1programs_1_1pythonpackages_1_1pr_1_1SPDataSet_1_1SPDataSet.html#a9eac955cac12a62b72d189aa80b82ec6" target="_top" xlink:title="repo.programs.pythonpackages.pr.\lSPDataSet.SPDataSet.filteredCutAmp">
<polygon fill="white" stroke="black" points="1066.5,-192 1066.5,-222 1253.5,-222 1253.5,-192 1066.5,-192"/>
<text text-anchor="start" x="1074.5" y="-210" font-family="Helvetica,sans-Serif" font-size="10.00">repo.programs.pythonpackages.pr.</text>
<text text-anchor="middle" x="1160" y="-199" font-family="Helvetica,sans-Serif" font-size="10.00">SPDataSet.SPDataSet.filteredCutAmp</text>
</a>
</g>
</g>
<!-- Node4&#45;&gt;Node5 -->
<g id="edge5" class="edge"><title>Node4&#45;&gt;Node5</title>
<path fill="none" stroke="midnightblue" d="M825.953,-207C897.192,-207 995.033,-207 1066.23,-207"/>
<polygon fill="midnightblue" stroke="midnightblue" points="825.642,-203.5 815.642,-207 825.642,-210.5 825.642,-203.5"/>
</g>
<!-- Node14 -->
<g id="node14" class="node"><title>Node14</title>
<g id="a_node14"><a xlink:href="classrepo_1_1programs_1_1pythonpackages_1_1pr_1_1SPDataSet_1_1SPDataSet.html#a6f2c3de2aa708d686f5835f10e2d096d" target="_top" xlink:title="repo.programs.pythonpackages.pr.\lSPDataSet.SPDataSet.pointAmp">
<polygon fill="white" stroke="black" points="862.5,-274 862.5,-304 1029.5,-304 1029.5,-274 862.5,-274"/>
<text text-anchor="start" x="870.5" y="-292" font-family="Helvetica,sans-Serif" font-size="10.00">repo.programs.pythonpackages.pr.</text>
<text text-anchor="middle" x="946" y="-281" font-family="Helvetica,sans-Serif" font-size="10.00">SPDataSet.SPDataSet.pointAmp</text>
</a>
</g>
</g>
<!-- Node4&#45;&gt;Node14 -->
<g id="edge17" class="edge"><title>Node4&#45;&gt;Node14</title>
<path fill="none" stroke="midnightblue" d="M781.644,-225.815C819.37,-240.407 870.965,-260.364 906.004,-273.917"/>
<polygon fill="midnightblue" stroke="midnightblue" points="782.473,-222.383 771.884,-222.04 779.948,-228.912 782.473,-222.383"/>
</g>
<!-- Node4&#45;&gt;Node16 -->
<g id="edge23" class="edge"><title>Node4&#45;&gt;Node16</title>
<path fill="none" stroke="midnightblue" d="M806.451,-188.918C813.125,-186.777 819.728,-184.467 826,-182 859.936,-168.651 896.702,-148.177 920.247,-134.218"/>
<polygon fill="midnightblue" stroke="midnightblue" points="805.181,-185.647 796.652,-191.933 807.239,-192.338 805.181,-185.647"/>
</g>
<!-- Node6 -->
<g id="node6" class="node"><title>Node6</title>
<g id="a_node6"><a xlink:href="classrepo_1_1programs_1_1pythonpackages_1_1pr_1_1SPDataSet_1_1SPDataSet.html#accbfa0185d4e416038e688fc9b55575b" target="_top" xlink:title="repo.programs.pythonpackages.pr.\lSPDataSet.SPDataSet.sequenceAmp">
<polygon fill="white" stroke="black" points="1290,-192 1290,-222 1474,-222 1474,-192 1290,-192"/>
<text text-anchor="start" x="1298" y="-210" font-family="Helvetica,sans-Serif" font-size="10.00">repo.programs.pythonpackages.pr.</text>
<text text-anchor="middle" x="1382" y="-199" font-family="Helvetica,sans-Serif" font-size="10.00">SPDataSet.SPDataSet.sequenceAmp</text>
</a>
</g>
</g>
<!-- Node5&#45;&gt;Node6 -->
<g id="edge6" class="edge"><title>Node5&#45;&gt;Node6</title>
<path fill="none" stroke="midnightblue" d="M1263.82,-207C1272.51,-207 1281.26,-207 1289.85,-207"/>
<polygon fill="midnightblue" stroke="midnightblue" points="1263.66,-203.5 1253.66,-207 1263.66,-210.5 1263.66,-203.5"/>
</g>
<!-- Node6&#45;&gt;Node6 -->
<g id="edge7" class="edge"><title>Node6&#45;&gt;Node6</title>
<path fill="none" stroke="midnightblue" d="M1343.14,-232.598C1348.45,-236.97 1361.4,-240 1382,-240 1416.69,-240 1429.7,-231.406 1421.02,-222.275"/>
<polygon fill="midnightblue" stroke="midnightblue" points="1346.64,-232.218 1342.98,-222.275 1339.64,-232.33 1346.64,-232.218"/>
</g>
<!-- Node7 -->
<g id="node7" class="node"><title>Node7</title>
<g id="a_node7"><a xlink:href="classrepo_1_1programs_1_1pythonpackages_1_1pr_1_1SPDataSet_1_1SPDataSet.html#ac0df54b82a9e993d707f0dafd87a19dd" target="_top" xlink:title="repo.programs.pythonpackages.pr.\lSPDataSet.SPDataSet.labAmp">
<polygon fill="white" stroke="black" points="1528.5,-176 1528.5,-206 1695.5,-206 1695.5,-176 1528.5,-176"/>
<text text-anchor="start" x="1536.5" y="-194" font-family="Helvetica,sans-Serif" font-size="10.00">repo.programs.pythonpackages.pr.</text>
<text text-anchor="middle" x="1612" y="-183" font-family="Helvetica,sans-Serif" font-size="10.00">SPDataSet.SPDataSet.labAmp</text>
</a>
</g>
</g>
<!-- Node6&#45;&gt;Node7 -->
<g id="edge8" class="edge"><title>Node6&#45;&gt;Node7</title>
<path fill="none" stroke="midnightblue" d="M1484.21,-199.897C1498.91,-198.866 1513.89,-197.814 1528.17,-196.812"/>
<polygon fill="midnightblue" stroke="midnightblue" points="1483.83,-196.416 1474.09,-200.607 1484.32,-203.399 1483.83,-196.416"/>
</g>
<!-- Node8 -->
<g id="node8" class="node"><title>Node8</title>
<g id="a_node8"><a xlink:href="classrepo_1_1programs_1_1pythonpackages_1_1pr_1_1SPDataSet_1_1SPDataSet.html#a3624263a6738178d243635889b719a90" target="_top" xlink:title="repo.programs.pythonpackages.pr.\lSPDataSet.SPDataSet.viewSid">
<polygon fill="white" stroke="black" points="1755.5,-176 1755.5,-206 1922.5,-206 1922.5,-176 1755.5,-176"/>
<text text-anchor="start" x="1763.5" y="-194" font-family="Helvetica,sans-Serif" font-size="10.00">repo.programs.pythonpackages.pr.</text>
<text text-anchor="middle" x="1839" y="-183" font-family="Helvetica,sans-Serif" font-size="10.00">SPDataSet.SPDataSet.viewSid</text>
</a>
</g>
</g>
<!-- Node6&#45;&gt;Node8 -->
<g id="edge14" class="edge"><title>Node6&#45;&gt;Node8</title>
<path fill="none" stroke="midnightblue" d="M1428.69,-188.425C1452.49,-179.734 1482.34,-170.354 1510,-166 1599.56,-151.901 1623.78,-156.996 1714,-166 1734.32,-168.028 1756.24,-171.882 1775.92,-175.968"/>
<polygon fill="midnightblue" stroke="midnightblue" points="1427.36,-185.185 1419.21,-191.962 1429.81,-191.743 1427.36,-185.185"/>
</g>
<!-- Node9 -->
<g id="node9" class="node"><title>Node9</title>
<g id="a_node9"><a xlink:href="classrepo_1_1programs_1_1pythonpackages_1_1pr_1_1SPDataSet_1_1SPDataSet.html#acf495c99c803a2a1e23cdaeae34da985" target="_top" xlink:title="repo.programs.pythonpackages.pr.\lSPDataSet.SPDataSet.sidAmp">
<polygon fill="white" stroke="black" points="1528.5,-225 1528.5,-255 1695.5,-255 1695.5,-225 1528.5,-225"/>
<text text-anchor="start" x="1536.5" y="-243" font-family="Helvetica,sans-Serif" font-size="10.00">repo.programs.pythonpackages.pr.</text>
<text text-anchor="middle" x="1612" y="-232" font-family="Helvetica,sans-Serif" font-size="10.00">SPDataSet.SPDataSet.sidAmp</text>
</a>
</g>
</g>
<!-- Node6&#45;&gt;Node9 -->
<g id="edge10" class="edge"><title>Node6&#45;&gt;Node9</title>
<path fill="none" stroke="midnightblue" d="M1484.21,-221.649C1498.91,-223.776 1513.89,-225.945 1528.17,-228.012"/>
<polygon fill="midnightblue" stroke="midnightblue" points="1484.49,-218.153 1474.09,-220.185 1483.49,-225.081 1484.49,-218.153"/>
</g>
<!-- Node10 -->
<g id="node10" class="node"><title>Node10</title>
<g id="a_node10"><a xlink:href="classrepo_1_1programs_1_1pythonpackages_1_1pr_1_1SPDataSet_1_1SPDataSet.html#ac55c6ccc03634d3f670f52e89188779c" target="_top" xlink:title="repo.programs.pythonpackages.pr.\lSPDataSet.SPDataSet.viewSeq">
<polygon fill="white" stroke="black" points="1528.5,-274 1528.5,-304 1695.5,-304 1695.5,-274 1528.5,-274"/>
<text text-anchor="start" x="1536.5" y="-292" font-family="Helvetica,sans-Serif" font-size="10.00">repo.programs.pythonpackages.pr.</text>
<text text-anchor="middle" x="1612" y="-281" font-family="Helvetica,sans-Serif" font-size="10.00">SPDataSet.SPDataSet.viewSeq</text>
</a>
</g>
</g>
<!-- Node6&#45;&gt;Node10 -->
<g id="edge12" class="edge"><title>Node6&#45;&gt;Node10</title>
<path fill="none" stroke="midnightblue" d="M1421.49,-226.448C1446.3,-238.439 1479.51,-253.48 1510,-264 1520.59,-267.653 1531.97,-271.003 1543.14,-273.983"/>
<polygon fill="midnightblue" stroke="midnightblue" points="1422.93,-223.26 1412.41,-222.018 1419.86,-229.55 1422.93,-223.26"/>
</g>
<!-- Node12 -->
<g id="node12" class="node"><title>Node12</title>
<g id="a_node12"><a xlink:href="classrepo_1_1programs_1_1pythonpackages_1_1pr_1_1SPDataSet_1_1SPDataSet.html#a5aad808c592bfdbb665105df2947610f" target="_top" xlink:title="repo.programs.pythonpackages.pr.\lSPDataSet.SPDataSet.viewCorrelationFilt">
<polygon fill="white" stroke="black" points="1510.5,-342 1510.5,-372 1713.5,-372 1713.5,-342 1510.5,-342"/>
<text text-anchor="start" x="1518.5" y="-360" font-family="Helvetica,sans-Serif" font-size="10.00">repo.programs.pythonpackages.pr.</text>
<text text-anchor="middle" x="1612" y="-349" font-family="Helvetica,sans-Serif" font-size="10.00">SPDataSet.SPDataSet.viewCorrelationFilt</text>
</a>
</g>
</g>
<!-- Node6&#45;&gt;Node12 -->
<g id="edge15" class="edge"><title>Node6&#45;&gt;Node12</title>
<path fill="none" stroke="midnightblue" d="M1405.59,-229.312C1429.86,-252.413 1470.31,-288.492 1510,-313 1528.55,-324.456 1550.61,-334.434 1569.37,-341.979"/>
<polygon fill="midnightblue" stroke="midnightblue" points="1407.94,-226.71 1398.3,-222.299 1403.08,-231.754 1407.94,-226.71"/>
</g>
<!-- Node6&#45;&gt;Node13 -->
<g id="edge16" class="edge"><title>Node6&#45;&gt;Node13</title>
<path fill="none" stroke="midnightblue" d="M1417.67,-186.717C1443.19,-171.814 1478.72,-151.094 1510,-133 1535.2,-118.42 1564.01,-101.891 1584.39,-90.219"/>
<polygon fill="midnightblue" stroke="midnightblue" points="1415.62,-183.862 1408.76,-191.929 1419.16,-189.905 1415.62,-183.862"/>
</g>
<!-- Node7&#45;&gt;Node8 -->
<g id="edge9" class="edge"><title>Node7&#45;&gt;Node8</title>
<path fill="none" stroke="midnightblue" d="M1705.63,-191C1722.03,-191 1739.02,-191 1755.13,-191"/>
<polygon fill="midnightblue" stroke="midnightblue" points="1705.5,-187.5 1695.5,-191 1705.5,-194.5 1705.5,-187.5"/>
</g>
<!-- Node9&#45;&gt;Node8 -->
<g id="edge11" class="edge"><title>Node9&#45;&gt;Node8</title>
<path fill="none" stroke="midnightblue" d="M1691.91,-222.815C1717.07,-217.335 1744.7,-211.318 1769.09,-206.006"/>
<polygon fill="midnightblue" stroke="midnightblue" points="1691.06,-219.418 1682.04,-224.965 1692.55,-226.257 1691.06,-219.418"/>
</g>
<!-- Node11 -->
<g id="node11" class="node"><title>Node11</title>
<g id="a_node11"><a xlink:href="classrepo_1_1programs_1_1pythonpackages_1_1pr_1_1SPDataSet_1_1SPDataSet.html#a0c87af10688edd55eb0aea229e5979bb" target="_top" xlink:title="repo.programs.pythonpackages.pr.\lSPDataSet.SPDataSet.viewSensors">
<polygon fill="white" stroke="black" points="1750,-274 1750,-304 1928,-304 1928,-274 1750,-274"/>
<text text-anchor="start" x="1758" y="-292" font-family="Helvetica,sans-Serif" font-size="10.00">repo.programs.pythonpackages.pr.</text>
<text text-anchor="middle" x="1839" y="-281" font-family="Helvetica,sans-Serif" font-size="10.00">SPDataSet.SPDataSet.viewSensors</text>
</a>
</g>
</g>
<!-- Node10&#45;&gt;Node11 -->
<g id="edge13" class="edge"><title>Node10&#45;&gt;Node11</title>
<path fill="none" stroke="midnightblue" d="M1705.55,-289C1720.19,-289 1735.29,-289 1749.83,-289"/>
<polygon fill="midnightblue" stroke="midnightblue" points="1705.5,-285.5 1695.5,-289 1705.5,-292.5 1705.5,-285.5"/>
</g>
<!-- Node14&#45;&gt;Node5 -->
<g id="edge18" class="edge"><title>Node14&#45;&gt;Node5</title>
<path fill="none" stroke="midnightblue" d="M988.297,-269.741C1011,-259.461 1039.8,-246.921 1066,-237 1079.8,-231.773 1094.97,-226.634 1108.97,-222.126"/>
<polygon fill="midnightblue" stroke="midnightblue" points="986.613,-266.662 978.965,-273.994 989.516,-273.032 986.613,-266.662"/>
</g>
<!-- Node14&#45;&gt;Node6 -->
<g id="edge19" class="edge"><title>Node14&#45;&gt;Node6</title>
<path fill="none" stroke="midnightblue" d="M1036.9,-272.015C1114.91,-257.276 1226.76,-236.143 1301.54,-222.014"/>
<polygon fill="midnightblue" stroke="midnightblue" points="1035.78,-268.664 1026.6,-273.96 1037.08,-275.542 1035.78,-268.664"/>
</g>
<!-- Node14&#45;&gt;Node10 -->
<g id="edge20" class="edge"><title>Node14&#45;&gt;Node10</title>
<path fill="none" stroke="midnightblue" d="M1040.08,-289C1170.09,-289 1404.03,-289 1528.25,-289"/>
<polygon fill="midnightblue" stroke="midnightblue" points="1039.75,-285.5 1029.75,-289 1039.75,-292.5 1039.75,-285.5"/>
</g>
<!-- Node14&#45;&gt;Node12 -->
<g id="edge21" class="edge"><title>Node14&#45;&gt;Node12</title>
<path fill="none" stroke="midnightblue" d="M974.457,-310.243C997.47,-326.622 1031.94,-347.956 1066,-357 1217.58,-397.253 1401.34,-385.382 1512.07,-372.008"/>
<polygon fill="midnightblue" stroke="midnightblue" points="976.366,-307.303 966.222,-304.244 972.244,-312.961 976.366,-307.303"/>
</g>
<!-- Node15 -->
<g id="node15" class="node"><title>Node15</title>
<g id="a_node15"><a xlink:href="classrepo_1_1programs_1_1pythonpackages_1_1pr_1_1SPDataSet_1_1SPDataSet.html#a2ffa7a6de1e0ebd8172db800621eed20" target="_top" xlink:title="repo.programs.pythonpackages.pr.\lSPDataSet.SPDataSet.test_div">
<polygon fill="white" stroke="black" points="1076.5,-318 1076.5,-348 1243.5,-348 1243.5,-318 1076.5,-318"/>
<text text-anchor="start" x="1084.5" y="-336" font-family="Helvetica,sans-Serif" font-size="10.00">repo.programs.pythonpackages.pr.</text>
<text text-anchor="middle" x="1160" y="-325" font-family="Helvetica,sans-Serif" font-size="10.00">SPDataSet.SPDataSet.test_div</text>
</a>
</g>
</g>
<!-- Node14&#45;&gt;Node15 -->
<g id="edge22" class="edge"><title>Node14&#45;&gt;Node15</title>
<path fill="none" stroke="midnightblue" d="M1029.16,-306.052C1048.1,-309.983 1068.11,-314.136 1086.6,-317.974"/>
<polygon fill="midnightblue" stroke="midnightblue" points="1029.87,-302.625 1019.37,-304.019 1028.45,-309.478 1029.87,-302.625"/>
</g>
<!-- Node17&#45;&gt;Node3 -->
<g id="edge27" class="edge"><title>Node17&#45;&gt;Node3</title>
<path fill="none" stroke="midnightblue" d="M314.876,-132.985C343.627,-108.853 388.557,-72.1994 408,-62 419.211,-56.119 431.771,-51.1629 444.018,-47.0795"/>
<polygon fill="midnightblue" stroke="midnightblue" points="312.266,-130.607 306.875,-139.728 316.777,-135.96 312.266,-130.607"/>
</g>
<!-- Node17&#45;&gt;Node4 -->
<g id="edge31" class="edge"><title>Node17&#45;&gt;Node4</title>
<path fill="none" stroke="midnightblue" d="M381.603,-167.659C390.521,-168.815 399.431,-169.947 408,-171 489.623,-181.035 583.002,-191.312 648.294,-198.304"/>
<polygon fill="midnightblue" stroke="midnightblue" points="381.919,-164.17 371.55,-166.345 381.012,-171.111 381.919,-164.17"/>
</g>
<!-- Node17&#45;&gt;Node13 -->
<g id="edge36" class="edge"><title>Node17&#45;&gt;Node13</title>
<path fill="none" stroke="midnightblue" d="M370.241,-138.094C382.846,-135.82 395.747,-133.692 408,-132 817.327,-75.4792 1311.59,-72.2547 1515.72,-73.7231"/>
<polygon fill="midnightblue" stroke="midnightblue" points="369.413,-134.687 360.214,-139.943 370.683,-141.571 369.413,-134.687"/>
</g>
<!-- Node17&#45;&gt;Node14 -->
<g id="edge34" class="edge"><title>Node17&#45;&gt;Node14</title>
<path fill="none" stroke="midnightblue" d="M367.768,-175.606C369.229,-176.681 370.642,-177.811 372,-179 401.942,-205.224 376.515,-236.65 408,-261 551.818,-372.227 787.596,-330.428 892.187,-304.06"/>
<polygon fill="midnightblue" stroke="midnightblue" points="369.266,-172.413 358.94,-170.043 365.534,-178.336 369.266,-172.413"/>
</g>
<!-- Node17&#45;&gt;Node16 -->
<g id="edge35" class="edge"><title>Node17&#45;&gt;Node16</title>
<path fill="none" stroke="midnightblue" d="M381.991,-148.697C452.287,-144.04 551.186,-137.715 638,-133 713.918,-128.876 800.441,-125.006 862.24,-122.384"/>
<polygon fill="midnightblue" stroke="midnightblue" points="381.577,-145.217 371.831,-149.372 382.041,-152.201 381.577,-145.217"/>
</g>
<!-- Node18 -->
<g id="node18" class="node"><title>Node18</title>
<g id="a_node18"><a xlink:href="classrepo_1_1programs_1_1pythonpackages_1_1pr_1_1SPDataSet_1_1SPDataSet.html#aa0b687b3c937bfb4aa71c4a09cac5eb5" target="_top" xlink:title="Names should be of the form &quot;med:Total Position Sensor 1&quot; etc. ">
<polygon fill="white" stroke="black" points="408,-222 408,-252 602,-252 602,-222 408,-222"/>
<text text-anchor="start" x="416" y="-240" font-family="Helvetica,sans-Serif" font-size="10.00">repo.programs.pythonpackages.pr.</text>
<text text-anchor="middle" x="505" y="-229" font-family="Helvetica,sans-Serif" font-size="10.00">SPDataSet.SPDataSet.getRawByName</text>
</a>
</g>
</g>
<!-- Node17&#45;&gt;Node18 -->
<g id="edge28" class="edge"><title>Node17&#45;&gt;Node18</title>
<path fill="none" stroke="midnightblue" d="M380.274,-175.087C390.685,-182.728 393.407,-190.366 408,-198 427.805,-208.36 451.805,-215.86 470.854,-221.895"/>
<polygon fill="midnightblue" stroke="midnightblue" points="381.958,-172.014 371.598,-169.796 378.314,-177.991 381.958,-172.014"/>
</g>
<!-- Node20 -->
<g id="node20" class="node"><title>Node20</title>
<g id="a_node20"><a xlink:href="classrepo_1_1programs_1_1pythonpackages_1_1pr_1_1SPDataSet_1_1SPDataSet.html#a2b09966d9ad35b39ea13988a7c361df6" target="_top" xlink:title="Assume it&#39;s a continuously rotating sample. ">
<polygon fill="white" stroke="black" points="638,-143 638,-173 826,-173 826,-143 638,-143"/>
<text text-anchor="start" x="646" y="-161" font-family="Helvetica,sans-Serif" font-size="10.00">repo.programs.pythonpackages.pr.</text>
<text text-anchor="middle" x="732" y="-150" font-family="Helvetica,sans-Serif" font-size="10.00">SPDataSet.SPDataSet.seqAmpFitSplit</text>
</a>
</g>
</g>
<!-- Node17&#45;&gt;Node20 -->
<g id="edge32" class="edge"><title>Node17&#45;&gt;Node20</title>
<path fill="none" stroke="midnightblue" d="M382.017,-155.631C457.173,-156.141 562.461,-156.856 637.694,-157.367"/>
<polygon fill="midnightblue" stroke="midnightblue" points="381.642,-152.129 371.618,-155.561 381.594,-159.129 381.642,-152.129"/>
</g>
<!-- Node18&#45;&gt;Node17 -->
<g id="edge30" class="edge"><title>Node18&#45;&gt;Node17</title>
<path fill="none" stroke="midnightblue" d="M411.434,-217.747C410.277,-217.174 409.131,-216.592 408,-216 390.039,-206.605 390.06,-197.203 372,-188 356.764,-180.236 338.638,-174.628 323.218,-170"/>
<polygon fill="midnightblue" stroke="midnightblue" points="409.966,-220.925 420.511,-221.952 412.908,-214.573 409.966,-220.925"/>
</g>
<!-- Node19 -->
<g id="node19" class="node"><title>Node19</title>
<g id="a_node19"><a xlink:href="classrepo_1_1programs_1_1pythonpackages_1_1pr_1_1SPDataSet_1_1SPDataSet.html#a3a649b10dc80a63cbbb7ed141f90519f" target="_top" xlink:title="repo.programs.pythonpackages.pr.\lSPDataSet.SPDataSet.getSensorData">
<polygon fill="white" stroke="black" points="638.5,-259 638.5,-289 825.5,-289 825.5,-259 638.5,-259"/>
<text text-anchor="start" x="646.5" y="-277" font-family="Helvetica,sans-Serif" font-size="10.00">repo.programs.pythonpackages.pr.</text>
<text text-anchor="middle" x="732" y="-266" font-family="Helvetica,sans-Serif" font-size="10.00">SPDataSet.SPDataSet.getSensorData</text>
</a>
</g>
</g>
<!-- Node18&#45;&gt;Node19 -->
<g id="edge29" class="edge"><title>Node18&#45;&gt;Node19</title>
<path fill="none" stroke="midnightblue" d="M607.658,-253.717C618.292,-255.466 629.056,-257.236 639.565,-258.964"/>
<polygon fill="midnightblue" stroke="midnightblue" points="607.952,-250.218 597.516,-252.049 606.816,-257.126 607.952,-250.218"/>
</g>
<!-- Node20&#45;&gt;Node6 -->
<g id="edge33" class="edge"><title>Node20&#45;&gt;Node6</title>
<path fill="none" stroke="midnightblue" d="M836.363,-158.255C941.756,-159.57 1109.8,-164.584 1254,-182 1273.74,-184.385 1295.01,-188.108 1314.4,-191.96"/>
<polygon fill="midnightblue" stroke="midnightblue" points="836.086,-154.751 826.046,-158.135 836.005,-161.751 836.086,-154.751"/>
</g>
</g>
</svg>
        <g id="navigator" transform="translate(0 0)" fill="#404254">
                <rect fill="#f2f5e9" fill-opacity="0.5" stroke="#606060" stroke-width=".5" x="0" y="0" width="60" height="60"/>
                <use id="zoomplus" xlink:href="#zoomPlus" x="17" y="9" onmousedown="handleZoom(evt,'in')"/>
                <use id="zoomminus" xlink:href="#zoomMin" x="42" y="9" onmousedown="handleZoom(evt,'out')"/>
                <use id="reset" xlink:href="#resetDef" x="30" y="36" onmousedown="handleReset()"/>
                <g id="arrowUp" xlink:href="#dirArrow" transform="translate(30 24)" onmousedown="handlePan(0,-1)">
                  <use xlink:href="#rim" fill="#404040">
                        <set attributeName="fill" to="#808080" begin="arrowUp.mouseover" end="arrowUp.mouseout"/>
                  </use>
                  <path fill="none" stroke="white" stroke-width="1.5" d="M0,-3.0v7 M-2.5,-0.5L0,-3.0L2.5,-0.5"/>
                </g>
                <g id="arrowRight" xlink:href="#dirArrow" transform="rotate(90) translate(36 -43)" onmousedown="handlePan(1,0)">
                  <use xlink:href="#rim" fill="#404040">
                        <set attributeName="fill" to="#808080" begin="arrowRight.mouseover" end="arrowRight.mouseout"/>
                  </use>
                  <path fill="none" stroke="white" stroke-width="1.5" d="M0,-3.0v7 M-2.5,-0.5L0,-3.0L2.5,-0.5"/>
                </g>
                <g id="arrowDown" xlink:href="#dirArrow" transform="rotate(180) translate(-30 -48)" onmousedown="handlePan(0,1)">
                  <use xlink:href="#rim" fill="#404040">
                        <set attributeName="fill" to="#808080" begin="arrowDown.mouseover" end="arrowDown.mouseout"/>
                  </use>
                  <path fill="none" stroke="white" stroke-width="1.5" d="M0,-3.0v7 M-2.5,-0.5L0,-3.0L2.5,-0.5"/>
                </g>
                <g id="arrowLeft" xlink:href="#dirArrow" transform="rotate(270) translate(-36 17)" onmousedown="handlePan(-1,0)">
                  <use xlink:href="#rim" fill="#404040">
                        <set attributeName="fill" to="#808080" begin="arrowLeft.mouseover" end="arrowLeft.mouseout"/>
                  </use>
                  <path fill="none" stroke="white" stroke-width="1.5" d="M0,-3.0v7 M-2.5,-0.5L0,-3.0L2.5,-0.5"/>
                </g>
        </g>
        <svg viewBox="0 0 15 15" width="100%" height="30px" preserveAspectRatio="xMaxYMin meet">
         <g id="arrow_out" transform="scale(0.3 0.3)">
          <a xlink:href="classrepo_1_1programs_1_1pythonpackages_1_1pr_1_1SPDataSet_1_1SPDataSet_aa400ad81219e782fe2e29e852b20bb28_icgraph_org.svg" target="_base">
           <rect id="button" ry="5" rx="5" y="6" x="6" height="38" width="38"
                fill="#f2f5e9" fill-opacity="0.5" stroke="#606060" stroke-width="1.0"/>
           <path id="arrow"
             d="M 11.500037,31.436501 C 11.940474,20.09759 22.043105,11.32322 32.158766,21.979434 L 37.068811,17.246167 C 37.068811,17.246167 37.088388,32 37.088388,32 L 22.160133,31.978069 C 22.160133,31.978069 26.997745,27.140456 26.997745,27.140456 C 18.528582,18.264221 13.291696,25.230495 11.500037,31.436501 z"
             style="fill:#404040;"/>
          </a>
         </g>
        </svg>
</svg>
