<?xml version="1.0" encoding="UTF-8" standalone="no"?>
<!DOCTYPE svg PUBLIC "-//W3C//DTD SVG 1.1//EN"
 "http://www.w3.org/Graphics/SVG/1.1/DTD/svg11.dtd">
<!-- Generated by graphviz version 2.36.0 (20140111.2315)
 -->
<!-- Title: repo.programs.pythonpackages.pr.SPDataSet.SPDataSet.viewSid Pages: 1 -->
<!--zoomable 537 -->
<svg id="main" version="1.1" xmlns="http://www.w3.org/2000/svg" xmlns:xlink="http://www.w3.org/1999/xlink" xml:space="preserve" onload="init(evt)">
<style type="text/css"><![CDATA[
.edge:hover path { stroke: red; }
.edge:hover polygon { stroke: red; fill: red; }
]]></style>
<script type="text/javascript"><![CDATA[
var edges = document.getElementsByTagName('g');
if (edges && edges.length) {
  for (var i=0;i<edges.length;i++) {
    if (edges[i].id.substr(0,4)=='edge') {
      edges[i].setAttribute('class','edge');
    }
  }
}
]]></script>
        <defs>
                <circle id="rim" cx="0" cy="0" r="7"/>
                <circle id="rim2" cx="0" cy="0" r="3.5"/>
                <g id="zoomPlus">
                        <use xlink:href="#rim" fill="#404040">
                                <set attributeName="fill" to="#808080" begin="zoomplus.mouseover" end="zoomplus.mouseout"/>
                        </use>
                        <path d="M-4,0h8M0,-4v8" fill="none" stroke="white" stroke-width="1.5" pointer-events="none"/>
                </g>
                <g id="zoomMin">
                        <use xlink:href="#rim" fill="#404040">
                                <set attributeName="fill" to="#808080" begin="zoomminus.mouseover" end="zoomminus.mouseout"/>
                        </use>
                        <path d="M-4,0h8" fill="none" stroke="white" stroke-width="1.5" pointer-events="none"/>
                </g>
                <g id="dirArrow">
                        <path fill="none" stroke="white" stroke-width="1.5" d="M0,-3.0v7 M-2.5,-0.5L0,-3.0L2.5,-0.5"/>
                </g>
               <g id="resetDef">
                       <use xlink:href="#rim2" fill="#404040">
                               <set attributeName="fill" to="#808080" begin="reset.mouseover" end="reset.mouseout"/>
                       </use>
               </g>
        </defs>

<script type="text/javascript">
var viewWidth = 2338;
var viewHeight = 537;
var sectionId = 'dynsection-52';
</script>
<script xlink:href="svgpan.js"/>
<svg id="graph" class="graph">
<g id="viewport">
<title>repo.programs.pythonpackages.pr.SPDataSet.SPDataSet.viewSid</title>
<polygon fill="white" stroke="none" points="-4,4 -4,-532.873 2334,-532.873 2334,4 -4,4"/>
<!-- Node1 -->
<g id="node1" class="node"><title>Node1</title>
<polygon fill="#bfbfbf" stroke="black" points="0.5,-149 0.5,-179 167.5,-179 167.5,-149 0.5,-149"/>
<text text-anchor="start" x="8.5" y="-167" font-family="Helvetica,sans-Serif" font-size="10.00">repo.programs.pythonpackages.pr.</text>
<text text-anchor="middle" x="84" y="-156" font-family="Helvetica,sans-Serif" font-size="10.00">SPDataSet.SPDataSet.viewSid</text>
</g>
<!-- Node2 -->
<g id="node2" class="node"><title>Node2</title>
<g id="a_node2"><a xlink:href="classrepo_1_1programs_1_1pythonpackages_1_1pr_1_1SPDataSet_1_1SPDataSet.html#acf495c99c803a2a1e23cdaeae34da985" target="_top" xlink:title="repo.programs.pythonpackages.pr.\lSPDataSet.SPDataSet.sidAmp">
<polygon fill="white" stroke="black" points="204.5,-149 204.5,-179 371.5,-179 371.5,-149 204.5,-149"/>
<text text-anchor="start" x="212.5" y="-167" font-family="Helvetica,sans-Serif" font-size="10.00">repo.programs.pythonpackages.pr.</text>
<text text-anchor="middle" x="288" y="-156" font-family="Helvetica,sans-Serif" font-size="10.00">SPDataSet.SPDataSet.sidAmp</text>
</a>
</g>
</g>
<!-- Node1&#45;&gt;Node2 -->
<g id="edge1" class="edge"><title>Node1&#45;&gt;Node2</title>
<path fill="none" stroke="midnightblue" d="M167.744,-164C176.437,-164 185.316,-164 194.112,-164"/>
<polygon fill="midnightblue" stroke="midnightblue" points="194.385,-167.5 204.385,-164 194.385,-160.5 194.385,-167.5"/>
</g>
<!-- Node4 -->
<g id="node4" class="node"><title>Node4</title>
<g id="a_node4"><a xlink:href="classrepo_1_1programs_1_1pythonpackages_1_1pr_1_1SPDataSet_1_1SPDataSet.html#accbfa0185d4e416038e688fc9b55575b" target="_top" xlink:title="repo.programs.pythonpackages.pr.\lSPDataSet.SPDataSet.sequenceAmp">
<polygon fill="white" stroke="black" points="408,-193 408,-223 592,-223 592,-193 408,-193"/>
<text text-anchor="start" x="416" y="-211" font-family="Helvetica,sans-Serif" font-size="10.00">repo.programs.pythonpackages.pr.</text>
<text text-anchor="middle" x="500" y="-200" font-family="Helvetica,sans-Serif" font-size="10.00">SPDataSet.SPDataSet.sequenceAmp</text>
</a>
</g>
</g>
<!-- Node1&#45;&gt;Node4 -->
<g id="edge50" class="edge"><title>Node1&#45;&gt;Node4</title>
<path fill="none" stroke="midnightblue" d="M151.454,-179.006C168.506,-182.414 186.871,-185.702 204,-188 268.194,-196.611 340.771,-201.593 397.873,-204.43"/>
<polygon fill="midnightblue" stroke="midnightblue" points="397.829,-207.932 407.986,-204.918 398.167,-200.94 397.829,-207.932"/>
</g>
<!-- Node28 -->
<g id="node28" class="node"><title>Node28</title>
<g id="a_node28"><a xlink:href="classrepo_1_1programs_1_1pythonpackages_1_1pr_1_1SPDataSet_1_1SPDataSet.html#ac0df54b82a9e993d707f0dafd87a19dd" target="_top" xlink:title="repo.programs.pythonpackages.pr.\lSPDataSet.SPDataSet.labAmp">
<polygon fill="white" stroke="black" points="204.5,-100 204.5,-130 371.5,-130 371.5,-100 204.5,-100"/>
<text text-anchor="start" x="212.5" y="-118" font-family="Helvetica,sans-Serif" font-size="10.00">repo.programs.pythonpackages.pr.</text>
<text text-anchor="middle" x="288" y="-107" font-family="Helvetica,sans-Serif" font-size="10.00">SPDataSet.SPDataSet.labAmp</text>
</a>
</g>
</g>
<!-- Node1&#45;&gt;Node28 -->
<g id="edge51" class="edge"><title>Node1&#45;&gt;Node28</title>
<path fill="none" stroke="midnightblue" d="M146.979,-148.965C168.599,-143.721 193.037,-137.793 215.375,-132.374"/>
<polygon fill="midnightblue" stroke="midnightblue" points="216.245,-135.765 225.138,-130.006 214.594,-128.962 216.245,-135.765"/>
</g>
<!-- Node3 -->
<g id="node3" class="node"><title>Node3</title>
<g id="a_node3"><a xlink:href="namespacerepo_1_1programs_1_1pythonpackages_1_1pr_1_1SPDataSet.html#a9d0e07e3e1f4360be4f8c59927abe142" target="_top" xlink:title="Helpful for calling work_func(following_func(**remaining_args), **work_args)) work_args are the entri...">
<polygon fill="white" stroke="black" points="1076.5,-75 1076.5,-105 1243.5,-105 1243.5,-75 1076.5,-75"/>
<text text-anchor="start" x="1084.5" y="-93" font-family="Helvetica,sans-Serif" font-size="10.00">repo.programs.pythonpackages.pr.</text>
<text text-anchor="middle" x="1160" y="-82" font-family="Helvetica,sans-Serif" font-size="10.00">SPDataSet.divide_args</text>
</a>
</g>
</g>
<!-- Node2&#45;&gt;Node3 -->
<g id="edge2" class="edge"><title>Node2&#45;&gt;Node3</title>
<path fill="none" stroke="midnightblue" d="M371.729,-151.081C481.26,-134.616 680.572,-106.868 852,-95 923.761,-90.0322 1005.17,-88.9124 1066.12,-88.9642"/>
<polygon fill="midnightblue" stroke="midnightblue" points="1066.48,-92.4648 1076.48,-88.9844 1066.49,-85.4648 1066.48,-92.4648"/>
</g>
<!-- Node2&#45;&gt;Node4 -->
<g id="edge3" class="edge"><title>Node2&#45;&gt;Node4</title>
<path fill="none" stroke="midnightblue" d="M360.683,-179.019C378.913,-182.839 398.637,-186.972 417.324,-190.887"/>
<polygon fill="midnightblue" stroke="midnightblue" points="416.779,-194.349 427.284,-192.974 418.214,-187.497 416.779,-194.349"/>
</g>
<!-- Node4&#45;&gt;Node3 -->
<g id="edge17" class="edge"><title>Node4&#45;&gt;Node3</title>
<path fill="none" stroke="midnightblue" d="M551.961,-192.94C619.831,-173.445 743.904,-139.756 852,-121 923.497,-108.594 1005.29,-100.638 1066.46,-95.8953"/>
<polygon fill="midnightblue" stroke="midnightblue" points="1066.77,-99.3817 1076.48,-95.1329 1066.24,-92.4018 1066.77,-99.3817"/>
</g>
<!-- Node4&#45;&gt;Node4 -->
<g id="edge49" class="edge"><title>Node4&#45;&gt;Node4</title>
<path fill="none" stroke="midnightblue" d="M462.734,-223.275C454.453,-232.406 466.875,-241 500,-241 519.668,-241 532.037,-237.97 537.108,-233.598"/>
<polygon fill="midnightblue" stroke="midnightblue" points="540.612,-233.328 537.266,-223.275 533.613,-233.221 540.612,-233.328"/>
</g>
<!-- Node5 -->
<g id="node5" class="node"><title>Node5</title>
<g id="a_node5"><a xlink:href="classrepo_1_1programs_1_1pythonpackages_1_1pr_1_1SPDataSet_1_1SPDataSet.html#af17c964467367b46a56c14a8c87e84a2" target="_top" xlink:title="Property doc string!! ">
<polygon fill="white" stroke="black" points="1727.5,-372 1727.5,-402 1894.5,-402 1894.5,-372 1727.5,-372"/>
<text text-anchor="start" x="1735.5" y="-390" font-family="Helvetica,sans-Serif" font-size="10.00">repo.programs.pythonpackages.pr.</text>
<text text-anchor="middle" x="1811" y="-379" font-family="Helvetica,sans-Serif" font-size="10.00">SPDataSet.SPDataSet.set_info</text>
</a>
</g>
</g>
<!-- Node4&#45;&gt;Node5 -->
<g id="edge4" class="edge"><title>Node4&#45;&gt;Node5</title>
<path fill="none" stroke="midnightblue" d="M511.72,-223.175C556.718,-284.919 737.639,-514 945,-514 945,-514 945,-514 1378,-514 1511.63,-514 1560.53,-557.705 1678,-494 1701.44,-481.287 1694.29,-463.965 1714,-446 1730.62,-430.849 1751.67,-417.408 1769.82,-407.196"/>
<polygon fill="midnightblue" stroke="midnightblue" points="1771.93,-410.035 1779.01,-402.158 1768.56,-403.896 1771.93,-410.035"/>
</g>
<!-- Node6 -->
<g id="node6" class="node"><title>Node6</title>
<g id="a_node6"><a xlink:href="classrepo_1_1programs_1_1pythonpackages_1_1pr_1_1SPDataSet_1_1SPDataSet.html#a2b09966d9ad35b39ea13988a7c361df6" target="_top" xlink:title="Assume it&#39;s a continuously rotating sample. ">
<polygon fill="white" stroke="black" points="852,-174 852,-204 1040,-204 1040,-174 852,-174"/>
<text text-anchor="start" x="860" y="-192" font-family="Helvetica,sans-Serif" font-size="10.00">repo.programs.pythonpackages.pr.</text>
<text text-anchor="middle" x="946" y="-181" font-family="Helvetica,sans-Serif" font-size="10.00">SPDataSet.SPDataSet.seqAmpFitSplit</text>
</a>
</g>
</g>
<!-- Node4&#45;&gt;Node6 -->
<g id="edge5" class="edge"><title>Node4&#45;&gt;Node6</title>
<path fill="none" stroke="midnightblue" d="M592.19,-204.098C664.689,-200.995 766.121,-196.655 841.629,-193.424"/>
<polygon fill="midnightblue" stroke="midnightblue" points="841.796,-196.92 851.637,-192.995 841.497,-189.926 841.796,-196.92"/>
</g>
<!-- Node15 -->
<g id="node15" class="node"><title>Node15</title>
<g id="a_node15"><a xlink:href="classrepo_1_1programs_1_1pythonpackages_1_1pr_1_1SPDataSet_1_1SPDataSet.html#a6f2c3de2aa708d686f5835f10e2d096d" target="_top" xlink:title="repo.programs.pythonpackages.pr.\lSPDataSet.SPDataSet.pointAmp">
<polygon fill="white" stroke="black" points="862.5,-223 862.5,-253 1029.5,-253 1029.5,-223 862.5,-223"/>
<text text-anchor="start" x="870.5" y="-241" font-family="Helvetica,sans-Serif" font-size="10.00">repo.programs.pythonpackages.pr.</text>
<text text-anchor="middle" x="946" y="-230" font-family="Helvetica,sans-Serif" font-size="10.00">SPDataSet.SPDataSet.pointAmp</text>
</a>
</g>
</g>
<!-- Node4&#45;&gt;Node15 -->
<g id="edge18" class="edge"><title>Node4&#45;&gt;Node15</title>
<path fill="none" stroke="midnightblue" d="M592.19,-214.161C668.089,-219.29 775.699,-226.561 852.076,-231.721"/>
<polygon fill="midnightblue" stroke="midnightblue" points="851.956,-235.221 862.169,-232.403 852.428,-228.237 851.956,-235.221"/>
</g>
<!-- Node24 -->
<g id="node24" class="node"><title>Node24</title>
<g id="a_node24"><a xlink:href="classrepo_1_1programs_1_1pythonpackages_1_1pr_1_1SPDataSet_1_1SPDataSet.html#aee6249fe272c46f07d0f2f32f6c188d2" target="_top" xlink:title="repo.programs.pythonpackages.pr.\lSPDataSet.SPDataSet.apparatusAngles">
<polygon fill="white" stroke="black" points="1280,-365 1280,-395 1474,-395 1474,-365 1280,-365"/>
<text text-anchor="start" x="1288" y="-383" font-family="Helvetica,sans-Serif" font-size="10.00">repo.programs.pythonpackages.pr.</text>
<text text-anchor="middle" x="1377" y="-372" font-family="Helvetica,sans-Serif" font-size="10.00">SPDataSet.SPDataSet.apparatusAngles</text>
</a>
</g>
</g>
<!-- Node4&#45;&gt;Node24 -->
<g id="edge48" class="edge"><title>Node4&#45;&gt;Node24</title>
<path fill="none" stroke="midnightblue" d="M517.647,-223.095C540.647,-243.034 584.28,-277.649 628,-295 843.979,-380.716 1120.74,-388.371 1269.69,-385.048"/>
<polygon fill="midnightblue" stroke="midnightblue" points="1269.84,-388.545 1279.75,-384.802 1269.67,-381.547 1269.84,-388.545"/>
</g>
<!-- Node27 -->
<g id="node27" class="node"><title>Node27</title>
<g id="a_node27"><a xlink:href="classrepo_1_1programs_1_1pythonpackages_1_1pr_1_1SPDataSet_1_1SPDataSet.html#a9eac955cac12a62b72d189aa80b82ec6" target="_top" xlink:title="repo.programs.pythonpackages.pr.\lSPDataSet.SPDataSet.filteredCutAmp">
<polygon fill="white" stroke="black" points="628.5,-256 628.5,-286 815.5,-286 815.5,-256 628.5,-256"/>
<text text-anchor="start" x="636.5" y="-274" font-family="Helvetica,sans-Serif" font-size="10.00">repo.programs.pythonpackages.pr.</text>
<text text-anchor="middle" x="722" y="-263" font-family="Helvetica,sans-Serif" font-size="10.00">SPDataSet.SPDataSet.filteredCutAmp</text>
</a>
</g>
</g>
<!-- Node4&#45;&gt;Node27 -->
<g id="edge43" class="edge"><title>Node4&#45;&gt;Node27</title>
<path fill="none" stroke="midnightblue" d="M553.416,-223.01C585.111,-232.086 625.688,-243.706 658.976,-253.238"/>
<polygon fill="midnightblue" stroke="midnightblue" points="658.028,-256.608 668.605,-255.996 659.955,-249.878 658.028,-256.608"/>
</g>
<!-- Node6&#45;&gt;Node3 -->
<g id="edge6" class="edge"><title>Node6&#45;&gt;Node3</title>
<path fill="none" stroke="midnightblue" d="M1009.05,-173.919C1019.81,-169.945 1030.57,-165.03 1040,-159 1059.88,-146.296 1056.35,-133.048 1076,-120 1082.14,-115.921 1088.91,-112.316 1095.85,-109.15"/>
<polygon fill="midnightblue" stroke="midnightblue" points="1097.54,-112.235 1105.37,-105.102 1094.8,-105.792 1097.54,-112.235"/>
</g>
<!-- Node6&#45;&gt;Node5 -->
<g id="edge16" class="edge"><title>Node6&#45;&gt;Node5</title>
<path fill="none" stroke="midnightblue" d="M1040.13,-183.316C1101.95,-183.729 1182.7,-192.628 1244,-229 1267.24,-242.79 1256.53,-264.604 1280,-278 1434.4,-366.129 1507.69,-267.008 1678,-318 1714.78,-329.014 1753.31,-350.466 1779.18,-366.541"/>
<polygon fill="midnightblue" stroke="midnightblue" points="1777.45,-369.592 1787.77,-371.977 1781.19,-363.675 1777.45,-369.592"/>
</g>
<!-- Node7 -->
<g id="node7" class="node"><title>Node7</title>
<g id="a_node7"><a xlink:href="classrepo_1_1programs_1_1pythonpackages_1_1pr_1_1SPDataSet_1_1SPDataSet.html#afe54eeb9f41f503dc478557e4ea2c62a" target="_top" xlink:title="repo.programs.pythonpackages.pr.\lSPDataSet.SPDataSet.rawData">
<polygon fill="white" stroke="black" points="1510.5,-54 1510.5,-84 1677.5,-84 1677.5,-54 1510.5,-54"/>
<text text-anchor="start" x="1518.5" y="-72" font-family="Helvetica,sans-Serif" font-size="10.00">repo.programs.pythonpackages.pr.</text>
<text text-anchor="middle" x="1594" y="-61" font-family="Helvetica,sans-Serif" font-size="10.00">SPDataSet.SPDataSet.rawData</text>
</a>
</g>
</g>
<!-- Node6&#45;&gt;Node7 -->
<g id="edge7" class="edge"><title>Node6&#45;&gt;Node7</title>
<path fill="none" stroke="midnightblue" d="M1005.9,-173.988C1027.84,-168.624 1052.99,-162.74 1076,-158 1223.62,-127.59 1396.43,-99.3044 1500.18,-83.1048"/>
<polygon fill="midnightblue" stroke="midnightblue" points="1500.97,-86.5243 1510.31,-81.5271 1499.89,-79.6077 1500.97,-86.5243"/>
</g>
<!-- Node8 -->
<g id="node8" class="node"><title>Node8</title>
<g id="a_node8"><a xlink:href="classrepo_1_1programs_1_1pythonpackages_1_1pr_1_1SPDataSet_1_1SPDataSet.html#aa400ad81219e782fe2e29e852b20bb28" target="_top" xlink:title="repo.programs.pythonpackages.pr.\lSPDataSet.SPDataSet.fastD">
<polygon fill="white" stroke="black" points="1727.5,-98 1727.5,-128 1894.5,-128 1894.5,-98 1727.5,-98"/>
<text text-anchor="start" x="1735.5" y="-116" font-family="Helvetica,sans-Serif" font-size="10.00">repo.programs.pythonpackages.pr.</text>
<text text-anchor="middle" x="1811" y="-105" font-family="Helvetica,sans-Serif" font-size="10.00">SPDataSet.SPDataSet.fastD</text>
</a>
</g>
</g>
<!-- Node7&#45;&gt;Node8 -->
<g id="edge8" class="edge"><title>Node7&#45;&gt;Node8</title>
<path fill="none" stroke="midnightblue" d="M1668.39,-84.0192C1687.14,-87.8564 1707.43,-92.0097 1726.64,-95.9411"/>
<polygon fill="midnightblue" stroke="midnightblue" points="1726.08,-99.3977 1736.58,-97.9738 1727.48,-92.5398 1726.08,-99.3977"/>
</g>
<!-- Node13 -->
<g id="node13" class="node"><title>Node13</title>
<g id="a_node13"><a xlink:href="classrepo_1_1programs_1_1pythonpackages_1_1pr_1_1SPDataSet_1_1SPDataSet.html#aa0b687b3c937bfb4aa71c4a09cac5eb5" target="_top" xlink:title="Names should be of the form &quot;med:Total Position Sensor 1&quot; etc. ">
<polygon fill="white" stroke="black" points="1714,-49 1714,-79 1908,-79 1908,-49 1714,-49"/>
<text text-anchor="start" x="1722" y="-67" font-family="Helvetica,sans-Serif" font-size="10.00">repo.programs.pythonpackages.pr.</text>
<text text-anchor="middle" x="1811" y="-56" font-family="Helvetica,sans-Serif" font-size="10.00">SPDataSet.SPDataSet.getRawByName</text>
</a>
</g>
</g>
<!-- Node7&#45;&gt;Node13 -->
<g id="edge13" class="edge"><title>Node7&#45;&gt;Node13</title>
<path fill="none" stroke="midnightblue" d="M1677.51,-60.496C1686.02,-60.1839 1694.75,-59.926 1703.48,-59.7275"/>
<polygon fill="midnightblue" stroke="midnightblue" points="1703.77,-63.2224 1713.7,-59.5222 1703.63,-56.2238 1703.77,-63.2224"/>
</g>
<!-- Node14 -->
<g id="node14" class="node"><title>Node14</title>
<g id="a_node14"><a xlink:href="classrepo_1_1programs_1_1pythonpackages_1_1pr_1_1SPDataSet_1_1SPDataSet.html#a33ced34e094ccfd1e3891b92478613e7" target="_top" xlink:title="repo.programs.pythonpackages.pr.\lSPDataSet.SPDataSet.clearRaw">
<polygon fill="white" stroke="black" points="1727.5,-0 1727.5,-30 1894.5,-30 1894.5,-0 1727.5,-0"/>
<text text-anchor="start" x="1735.5" y="-18" font-family="Helvetica,sans-Serif" font-size="10.00">repo.programs.pythonpackages.pr.</text>
<text text-anchor="middle" x="1811" y="-7" font-family="Helvetica,sans-Serif" font-size="10.00">SPDataSet.SPDataSet.clearRaw</text>
</a>
</g>
</g>
<!-- Node7&#45;&gt;Node14 -->
<g id="edge15" class="edge"><title>Node7&#45;&gt;Node14</title>
<path fill="none" stroke="midnightblue" d="M1654.62,-53.9458C1673.6,-49.16 1694.68,-43.8507 1714,-39 1722.41,-36.8877 1731.24,-34.6749 1740,-32.4834"/>
<polygon fill="midnightblue" stroke="midnightblue" points="1740.97,-35.8477 1749.82,-30.0248 1739.27,-29.057 1740.97,-35.8477"/>
</g>
<!-- Node9 -->
<g id="node9" class="node"><title>Node9</title>
<g id="a_node9"><a xlink:href="classrepo_1_1programs_1_1pythonpackages_1_1pr_1_1SPDataSet_1_1SPDataSet.html#a1e4c1d502ec5ff9a57bf9a330a318a54" target="_top" xlink:title="repo.programs.pythonpackages.pr.\lSPDataSet.SPDataSet.splitRecArray">
<polygon fill="white" stroke="black" points="1944.5,-145 1944.5,-175 2125.5,-175 2125.5,-145 1944.5,-145"/>
<text text-anchor="start" x="1952.5" y="-163" font-family="Helvetica,sans-Serif" font-size="10.00">repo.programs.pythonpackages.pr.</text>
<text text-anchor="middle" x="2035" y="-152" font-family="Helvetica,sans-Serif" font-size="10.00">SPDataSet.SPDataSet.splitRecArray</text>
</a>
</g>
</g>
<!-- Node8&#45;&gt;Node9 -->
<g id="edge9" class="edge"><title>Node8&#45;&gt;Node9</title>
<path fill="none" stroke="midnightblue" d="M1882.85,-128C1905.18,-132.728 1930.01,-137.985 1952.99,-142.85"/>
<polygon fill="midnightblue" stroke="midnightblue" points="1952.55,-146.334 1963.06,-144.981 1954,-139.486 1952.55,-146.334"/>
</g>
<!-- Node10 -->
<g id="node10" class="node"><title>Node10</title>
<g id="a_node10"><a xlink:href="classrepo_1_1programs_1_1pythonpackages_1_1pr_1_1SPDataSet_1_1SPDataSet.html#af0f40f6c14b1ba1c8de9351a839eb511" target="_top" xlink:title="repo.programs.pythonpackages.pr.\lSPDataSet.SPDataSet.calArr">
<polygon fill="white" stroke="black" points="1951.5,-96 1951.5,-126 2118.5,-126 2118.5,-96 1951.5,-96"/>
<text text-anchor="start" x="1959.5" y="-114" font-family="Helvetica,sans-Serif" font-size="10.00">repo.programs.pythonpackages.pr.</text>
<text text-anchor="middle" x="2035" y="-103" font-family="Helvetica,sans-Serif" font-size="10.00">SPDataSet.SPDataSet.calArr</text>
</a>
</g>
</g>
<!-- Node8&#45;&gt;Node10 -->
<g id="edge10" class="edge"><title>Node8&#45;&gt;Node10</title>
<path fill="none" stroke="midnightblue" d="M1894.66,-112.255C1909.83,-112.119 1925.76,-111.975 1941.2,-111.836"/>
<polygon fill="midnightblue" stroke="midnightblue" points="1941.3,-115.335 1951.27,-111.745 1941.24,-108.336 1941.3,-115.335"/>
</g>
<!-- Node11 -->
<g id="node11" class="node"><title>Node11</title>
<g id="a_node11"><a xlink:href="classrepo_1_1programs_1_1pythonpackages_1_1pr_1_1SPDataSet_1_1SPDataSet.html#a6e8c2848a25079fc869ab950445213b8" target="_top" xlink:title="repo.programs.pythonpackages.pr.\lSPDataSet.SPDataSet.zeroingD">
<polygon fill="white" stroke="black" points="2162.5,-121 2162.5,-151 2329.5,-151 2329.5,-121 2162.5,-121"/>
<text text-anchor="start" x="2170.5" y="-139" font-family="Helvetica,sans-Serif" font-size="10.00">repo.programs.pythonpackages.pr.</text>
<text text-anchor="middle" x="2246" y="-128" font-family="Helvetica,sans-Serif" font-size="10.00">SPDataSet.SPDataSet.zeroingD</text>
</a>
</g>
</g>
<!-- Node10&#45;&gt;Node11 -->
<g id="edge11" class="edge"><title>Node10&#45;&gt;Node11</title>
<path fill="none" stroke="midnightblue" d="M2118.6,-120.881C2129.61,-122.197 2140.96,-123.555 2152.12,-124.89"/>
<polygon fill="midnightblue" stroke="midnightblue" points="2151.97,-128.397 2162.31,-126.109 2152.8,-121.446 2151.97,-128.397"/>
</g>
<!-- Node12 -->
<g id="node12" class="node"><title>Node12</title>
<g id="a_node12"><a xlink:href="classrepo_1_1programs_1_1pythonpackages_1_1pr_1_1SPDataSet_1_1SPDataSet.html#aa287beda17e46a3969a9321e5904eaed" target="_top" xlink:title="repo.programs.pythonpackages.pr.\lSPDataSet.SPDataSet.cBzCal">
<polygon fill="white" stroke="black" points="2162.5,-72 2162.5,-102 2329.5,-102 2329.5,-72 2162.5,-72"/>
<text text-anchor="start" x="2170.5" y="-90" font-family="Helvetica,sans-Serif" font-size="10.00">repo.programs.pythonpackages.pr.</text>
<text text-anchor="middle" x="2246" y="-79" font-family="Helvetica,sans-Serif" font-size="10.00">SPDataSet.SPDataSet.cBzCal</text>
</a>
</g>
</g>
<!-- Node10&#45;&gt;Node12 -->
<g id="edge12" class="edge"><title>Node10&#45;&gt;Node12</title>
<path fill="none" stroke="midnightblue" d="M2118.6,-101.515C2129.61,-100.251 2140.96,-98.9477 2152.12,-97.6653"/>
<polygon fill="midnightblue" stroke="midnightblue" points="2152.78,-101.113 2162.31,-96.4951 2151.98,-94.1589 2152.78,-101.113"/>
</g>
<!-- Node13&#45;&gt;Node7 -->
<g id="edge14" class="edge"><title>Node13&#45;&gt;Node7</title>
<path fill="none" stroke="midnightblue" d="M1713.7,-72.9568C1705.02,-73.2096 1696.24,-73.4053 1687.59,-73.5387"/>
<polygon fill="midnightblue" stroke="midnightblue" points="1687.46,-70.0399 1677.51,-73.6664 1687.55,-77.0394 1687.46,-70.0399"/>
</g>
<!-- Node15&#45;&gt;Node3 -->
<g id="edge21" class="edge"><title>Node15&#45;&gt;Node3</title>
<path fill="none" stroke="midnightblue" d="M1019.18,-222.827C1026.44,-220.066 1033.52,-216.818 1040,-213 1083.66,-187.284 1121.96,-141.244 1142.67,-113.371"/>
<polygon fill="midnightblue" stroke="midnightblue" points="1145.7,-115.153 1148.76,-105.009 1140.04,-111.033 1145.7,-115.153"/>
</g>
<!-- Node15&#45;&gt;Node5 -->
<g id="edge19" class="edge"><title>Node15&#45;&gt;Node5</title>
<path fill="none" stroke="midnightblue" d="M974.834,-253.225C1000.4,-266.543 1039.71,-285.373 1076,-296 1247.62,-346.251 1300.07,-313.456 1474,-355 1490.4,-358.918 1493.45,-363.746 1510,-367 1578.63,-380.495 1657.61,-385.343 1717.3,-386.898"/>
<polygon fill="midnightblue" stroke="midnightblue" points="1717.38,-390.4 1727.46,-387.135 1717.54,-383.402 1717.38,-390.4"/>
</g>
<!-- Node15&#45;&gt;Node7 -->
<g id="edge20" class="edge"><title>Node15&#45;&gt;Node7</title>
<path fill="none" stroke="midnightblue" d="M1029.84,-223.569C1134.61,-204.311 1319.94,-166.883 1474,-118 1481.58,-115.596 1517.49,-100.729 1547.9,-87.9939"/>
<polygon fill="midnightblue" stroke="midnightblue" points="1549.26,-91.2209 1557.12,-84.1264 1546.55,-84.7654 1549.26,-91.2209"/>
</g>
<!-- Node16 -->
<g id="node16" class="node"><title>Node16</title>
<g id="a_node16"><a xlink:href="classrepo_1_1programs_1_1pythonpackages_1_1pr_1_1SPDataSet_1_1SPDataSet.html#a5b12a3d9fdb93ccbf79a6b7a7893be3f" target="_top" xlink:title="repo.programs.pythonpackages.pr.\lSPDataSet.SPDataSet.cutAmp">
<polygon fill="white" stroke="black" points="1076.5,-239 1076.5,-269 1243.5,-269 1243.5,-239 1076.5,-239"/>
<text text-anchor="start" x="1084.5" y="-257" font-family="Helvetica,sans-Serif" font-size="10.00">repo.programs.pythonpackages.pr.</text>
<text text-anchor="middle" x="1160" y="-246" font-family="Helvetica,sans-Serif" font-size="10.00">SPDataSet.SPDataSet.cutAmp</text>
</a>
</g>
</g>
<!-- Node15&#45;&gt;Node16 -->
<g id="edge22" class="edge"><title>Node15&#45;&gt;Node16</title>
<path fill="none" stroke="midnightblue" d="M1029.57,-244.232C1041.56,-245.137 1053.97,-246.073 1066.15,-246.992"/>
<polygon fill="midnightblue" stroke="midnightblue" points="1066.07,-250.496 1076.3,-247.759 1066.6,-243.516 1066.07,-250.496"/>
</g>
<!-- Node15&#45;&gt;Node24 -->
<g id="edge42" class="edge"><title>Node15&#45;&gt;Node24</title>
<path fill="none" stroke="midnightblue" d="M963.029,-253.204C986.063,-274.114 1030.76,-311.279 1076,-330 1137.34,-355.382 1210.79,-367.893 1269.66,-374.053"/>
<polygon fill="midnightblue" stroke="midnightblue" points="1269.43,-377.547 1279.72,-375.06 1270.12,-370.582 1269.43,-377.547"/>
</g>
<!-- Node16&#45;&gt;Node7 -->
<g id="edge23" class="edge"><title>Node16&#45;&gt;Node7</title>
<path fill="none" stroke="midnightblue" d="M1232.12,-238.961C1323.74,-219.529 1471.63,-187.942 1474,-186 1504.81,-160.802 1481.65,-131.938 1510,-104 1516.23,-97.8589 1523.7,-92.7304 1531.58,-88.4652"/>
<polygon fill="midnightblue" stroke="midnightblue" points="1533.18,-91.5782 1540.59,-84.0085 1530.07,-85.3033 1533.18,-91.5782"/>
</g>
<!-- Node16&#45;&gt;Node16 -->
<g id="edge37" class="edge"><title>Node16&#45;&gt;Node16</title>
<path fill="none" stroke="midnightblue" d="M1122.38,-269.275C1114.02,-278.406 1126.56,-287 1160,-287 1179.85,-287 1192.34,-283.97 1197.46,-279.598"/>
<polygon fill="midnightblue" stroke="midnightblue" points="1200.96,-279.328 1197.62,-269.275 1193.96,-279.22 1200.96,-279.328"/>
</g>
<!-- Node17 -->
<g id="node17" class="node"><title>Node17</title>
<g id="a_node17"><a xlink:href="classrepo_1_1programs_1_1pythonpackages_1_1pr_1_1SPDataSet_1_1SPDataSet.html#a14656e508d81193e8c71c09d9444e15f" target="_top" xlink:title="repo.programs.pythonpackages.pr.\lSPDataSet.SPDataSet.trigTimes">
<polygon fill="white" stroke="black" points="1293.5,-239 1293.5,-269 1460.5,-269 1460.5,-239 1293.5,-239"/>
<text text-anchor="start" x="1301.5" y="-257" font-family="Helvetica,sans-Serif" font-size="10.00">repo.programs.pythonpackages.pr.</text>
<text text-anchor="middle" x="1377" y="-246" font-family="Helvetica,sans-Serif" font-size="10.00">SPDataSet.SPDataSet.trigTimes</text>
</a>
</g>
</g>
<!-- Node16&#45;&gt;Node17 -->
<g id="edge24" class="edge"><title>Node16&#45;&gt;Node17</title>
<path fill="none" stroke="midnightblue" d="M1243.51,-254C1256.53,-254 1270.07,-254 1283.31,-254"/>
<polygon fill="midnightblue" stroke="midnightblue" points="1283.36,-257.5 1293.36,-254 1283.36,-250.5 1283.36,-257.5"/>
</g>
<!-- Node16&#45;&gt;Node24 -->
<g id="edge38" class="edge"><title>Node16&#45;&gt;Node24</title>
<path fill="none" stroke="midnightblue" d="M1186.93,-269.199C1225.62,-291.869 1298.49,-334.574 1341.59,-359.832"/>
<polygon fill="midnightblue" stroke="midnightblue" points="1339.91,-362.907 1350.31,-364.944 1343.45,-356.868 1339.91,-362.907"/>
</g>
<!-- Node17&#45;&gt;Node7 -->
<g id="edge26" class="edge"><title>Node17&#45;&gt;Node7</title>
<path fill="none" stroke="midnightblue" d="M1453.06,-238.876C1460.81,-234.993 1468.02,-230.118 1474,-224 1514.42,-182.663 1470.5,-141.215 1510,-99 1513.51,-95.2502 1517.52,-91.9681 1521.85,-89.0954"/>
<polygon fill="midnightblue" stroke="midnightblue" points="1523.61,-92.116 1530.5,-84.0605 1520.09,-86.0662 1523.61,-92.116"/>
</g>
<!-- Node17&#45;&gt;Node8 -->
<g id="edge25" class="edge"><title>Node17&#45;&gt;Node8</title>
<path fill="none" stroke="midnightblue" d="M1451.56,-238.78C1459.76,-234.916 1467.49,-230.073 1474,-224 1506.12,-194.06 1474.53,-157.887 1510,-132 1542.02,-108.627 1641.7,-106.304 1717.45,-108.279"/>
<polygon fill="midnightblue" stroke="midnightblue" points="1717.4,-111.779 1727.5,-108.569 1717.6,-104.782 1717.4,-111.779"/>
</g>
<!-- Node18 -->
<g id="node18" class="node"><title>Node18</title>
<g id="a_node18"><a xlink:href="classrepo_1_1programs_1_1pythonpackages_1_1pr_1_1SPDataSet_1_1SPDataSet.html#a9eef53392c7e7ad757cefde737a6cb69" target="_top" xlink:title="repo.programs.pythonpackages.pr.\lSPDataSet.SPDataSet.medD">
<polygon fill="white" stroke="black" points="1510.5,-191 1510.5,-221 1677.5,-221 1677.5,-191 1510.5,-191"/>
<text text-anchor="start" x="1518.5" y="-209" font-family="Helvetica,sans-Serif" font-size="10.00">repo.programs.pythonpackages.pr.</text>
<text text-anchor="middle" x="1594" y="-198" font-family="Helvetica,sans-Serif" font-size="10.00">SPDataSet.SPDataSet.medD</text>
</a>
</g>
</g>
<!-- Node17&#45;&gt;Node18 -->
<g id="edge27" class="edge"><title>Node17&#45;&gt;Node18</title>
<path fill="none" stroke="midnightblue" d="M1445.44,-238.944C1467.75,-233.963 1492.75,-228.381 1515.74,-223.248"/>
<polygon fill="midnightblue" stroke="midnightblue" points="1516.8,-226.597 1525.8,-221.002 1515.28,-219.765 1516.8,-226.597"/>
</g>
<!-- Node20 -->
<g id="node20" class="node"><title>Node20</title>
<g id="a_node20"><a xlink:href="classrepo_1_1programs_1_1pythonpackages_1_1pr_1_1SPDataSet_1_1SPDataSet.html#a6478ef339e0e44839e478fec7340c6b0" target="_top" xlink:title="repo.programs.pythonpackages.pr.\lSPDataSet.SPDataSet.relD">
<polygon fill="white" stroke="black" points="1510.5,-142 1510.5,-172 1677.5,-172 1677.5,-142 1510.5,-142"/>
<text text-anchor="start" x="1518.5" y="-160" font-family="Helvetica,sans-Serif" font-size="10.00">repo.programs.pythonpackages.pr.</text>
<text text-anchor="middle" x="1594" y="-149" font-family="Helvetica,sans-Serif" font-size="10.00">SPDataSet.SPDataSet.relD</text>
</a>
</g>
</g>
<!-- Node17&#45;&gt;Node20 -->
<g id="edge30" class="edge"><title>Node17&#45;&gt;Node20</title>
<path fill="none" stroke="midnightblue" d="M1443.82,-238.966C1454.39,-235.022 1464.85,-230.105 1474,-224 1494.73,-210.168 1489.12,-194.61 1510,-181 1512.56,-179.334 1515.23,-177.781 1517.99,-176.334"/>
<polygon fill="midnightblue" stroke="midnightblue" points="1519.49,-179.497 1527.03,-172.062 1516.5,-173.167 1519.49,-179.497"/>
</g>
<!-- Node21 -->
<g id="node21" class="node"><title>Node21</title>
<g id="a_node21"><a xlink:href="namespacerepo_1_1programs_1_1pythonpackages_1_1pr_1_1SPfuncs.html#af8a48b74a6d4e725e2409329126076a6" target="_top" xlink:title="Construct a set of triggers by analysing the timing for the signal. ">
<polygon fill="white" stroke="black" points="1510.5,-240 1510.5,-270 1677.5,-270 1677.5,-240 1510.5,-240"/>
<text text-anchor="start" x="1518.5" y="-258" font-family="Helvetica,sans-Serif" font-size="10.00">repo.programs.pythonpackages.pr.</text>
<text text-anchor="middle" x="1594" y="-247" font-family="Helvetica,sans-Serif" font-size="10.00">SPfuncs.makeTriggers</text>
</a>
</g>
</g>
<!-- Node17&#45;&gt;Node21 -->
<g id="edge33" class="edge"><title>Node17&#45;&gt;Node21</title>
<path fill="none" stroke="midnightblue" d="M1460.51,-254.384C1473.53,-254.444 1487.07,-254.507 1500.31,-254.569"/>
<polygon fill="midnightblue" stroke="midnightblue" points="1500.34,-258.069 1510.36,-254.616 1500.37,-251.069 1500.34,-258.069"/>
</g>
<!-- Node23 -->
<g id="node23" class="node"><title>Node23</title>
<g id="a_node23"><a xlink:href="classrepo_1_1programs_1_1pythonpackages_1_1pr_1_1SPDataSet_1_1SPDataSet.html#af6af62c7de4f7bc8f2dd223d05cf2b07" target="_top" xlink:title="repo.programs.pythonpackages.pr.\lSPDataSet.SPDataSet.rSpec">
<polygon fill="white" stroke="black" points="1510.5,-328 1510.5,-358 1677.5,-358 1677.5,-328 1510.5,-328"/>
<text text-anchor="start" x="1518.5" y="-346" font-family="Helvetica,sans-Serif" font-size="10.00">repo.programs.pythonpackages.pr.</text>
<text text-anchor="middle" x="1594" y="-335" font-family="Helvetica,sans-Serif" font-size="10.00">SPDataSet.SPDataSet.rSpec</text>
</a>
</g>
</g>
<!-- Node17&#45;&gt;Node23 -->
<g id="edge35" class="edge"><title>Node17&#45;&gt;Node23</title>
<path fill="none" stroke="midnightblue" d="M1414.47,-269.098C1451.11,-284.263 1507.66,-307.674 1547.28,-324.072"/>
<polygon fill="midnightblue" stroke="midnightblue" points="1546.13,-327.386 1556.71,-327.977 1548.81,-320.918 1546.13,-327.386"/>
</g>
<!-- Node18&#45;&gt;Node9 -->
<g id="edge29" class="edge"><title>Node18&#45;&gt;Node9</title>
<path fill="none" stroke="midnightblue" d="M1660.13,-221.026C1724.14,-233.221 1824.15,-245.354 1908,-225 1943.15,-216.468 1979.46,-196.312 2004.02,-180.69"/>
<polygon fill="midnightblue" stroke="midnightblue" points="2006.04,-183.554 2012.52,-175.169 2002.22,-177.685 2006.04,-183.554"/>
</g>
<!-- Node19 -->
<g id="node19" class="node"><title>Node19</title>
<g id="a_node19"><a xlink:href="namespacerepo_1_1programs_1_1pythonpackages_1_1pr_1_1SPfuncs.html#acb6d178d4325b6c3d8fec4f8197d6819" target="_top" xlink:title="repo.programs.pythonpackages.pr.\lSPfuncs.renameFieldMaybe">
<polygon fill="white" stroke="black" points="1727.5,-186 1727.5,-216 1894.5,-216 1894.5,-186 1727.5,-186"/>
<text text-anchor="start" x="1735.5" y="-204" font-family="Helvetica,sans-Serif" font-size="10.00">repo.programs.pythonpackages.pr.</text>
<text text-anchor="middle" x="1811" y="-193" font-family="Helvetica,sans-Serif" font-size="10.00">SPfuncs.renameFieldMaybe</text>
</a>
</g>
</g>
<!-- Node18&#45;&gt;Node19 -->
<g id="edge28" class="edge"><title>Node18&#45;&gt;Node19</title>
<path fill="none" stroke="midnightblue" d="M1677.51,-204.081C1690.53,-203.778 1704.07,-203.463 1717.31,-203.156"/>
<polygon fill="midnightblue" stroke="midnightblue" points="1717.44,-206.654 1727.36,-202.922 1717.28,-199.655 1717.44,-206.654"/>
</g>
<!-- Node20&#45;&gt;Node9 -->
<g id="edge32" class="edge"><title>Node20&#45;&gt;Node9</title>
<path fill="none" stroke="midnightblue" d="M1677.57,-157.564C1750.31,-158.061 1856.45,-158.787 1933.98,-159.316"/>
<polygon fill="midnightblue" stroke="midnightblue" points="1934.22,-162.818 1944.24,-159.387 1934.27,-155.818 1934.22,-162.818"/>
</g>
<!-- Node20&#45;&gt;Node19 -->
<g id="edge31" class="edge"><title>Node20&#45;&gt;Node19</title>
<path fill="none" stroke="midnightblue" d="M1668.39,-172.019C1687.14,-175.856 1707.43,-180.01 1726.64,-183.941"/>
<polygon fill="midnightblue" stroke="midnightblue" points="1726.08,-187.398 1736.58,-185.974 1727.48,-180.54 1726.08,-187.398"/>
</g>
<!-- Node22 -->
<g id="node22" class="node"><title>Node22</title>
<g id="a_node22"><a xlink:href="namespacerepo_1_1programs_1_1pythonpackages_1_1pr_1_1SPfuncs.html#a9d03b1e8bb9325cdab8fa026d6cdbbe3" target="_top" xlink:title="repo.programs.pythonpackages.pr.\lSPfuncs.secs2sd">
<polygon fill="white" stroke="black" points="1727.5,-274 1727.5,-304 1894.5,-304 1894.5,-274 1727.5,-274"/>
<text text-anchor="start" x="1735.5" y="-292" font-family="Helvetica,sans-Serif" font-size="10.00">repo.programs.pythonpackages.pr.</text>
<text text-anchor="middle" x="1811" y="-281" font-family="Helvetica,sans-Serif" font-size="10.00">SPfuncs.secs2sd</text>
</a>
</g>
</g>
<!-- Node21&#45;&gt;Node22 -->
<g id="edge34" class="edge"><title>Node21&#45;&gt;Node22</title>
<path fill="none" stroke="midnightblue" d="M1677.51,-268.048C1690.53,-270.107 1704.07,-272.249 1717.31,-274.342"/>
<polygon fill="midnightblue" stroke="midnightblue" points="1716.93,-277.826 1727.36,-275.931 1718.03,-270.912 1716.93,-277.826"/>
</g>
<!-- Node23&#45;&gt;Node5 -->
<g id="edge36" class="edge"><title>Node23&#45;&gt;Node5</title>
<path fill="none" stroke="midnightblue" d="M1668.39,-358.019C1687.14,-361.856 1707.43,-366.01 1726.64,-369.941"/>
<polygon fill="midnightblue" stroke="midnightblue" points="1726.08,-373.398 1736.58,-371.974 1727.48,-366.54 1726.08,-373.398"/>
</g>
<!-- Node24&#45;&gt;Node23 -->
<g id="edge41" class="edge"><title>Node24&#45;&gt;Node23</title>
<path fill="none" stroke="midnightblue" d="M1465.45,-364.951C1476.96,-362.97 1488.79,-360.935 1500.38,-358.94"/>
<polygon fill="midnightblue" stroke="midnightblue" points="1501.23,-362.345 1510.49,-357.199 1500.04,-355.446 1501.23,-362.345"/>
</g>
<!-- Node25 -->
<g id="node25" class="node"><title>Node25</title>
<g id="a_node25"><a xlink:href="namespacerepo_1_1programs_1_1pythonpackages_1_1pr_1_1SPfuncs.html#a2533afa952ea007cfad4a1deb6a607a5" target="_top" xlink:title="Return angles for the sequence defined by , repeated &#160;times. ">
<polygon fill="white" stroke="black" points="1510.5,-455 1510.5,-485 1677.5,-485 1677.5,-455 1510.5,-455"/>
<text text-anchor="start" x="1518.5" y="-473" font-family="Helvetica,sans-Serif" font-size="10.00">repo.programs.pythonpackages.pr.</text>
<text text-anchor="middle" x="1594" y="-462" font-family="Helvetica,sans-Serif" font-size="10.00">SPfuncs.getAnglesFromRSpec</text>
</a>
</g>
</g>
<!-- Node24&#45;&gt;Node25 -->
<g id="edge39" class="edge"><title>Node24&#45;&gt;Node25</title>
<path fill="none" stroke="midnightblue" d="M1413.99,-395.064C1450.65,-410.412 1507.63,-434.263 1547.42,-450.922"/>
<polygon fill="midnightblue" stroke="midnightblue" points="1546.32,-454.254 1556.9,-454.887 1549.02,-447.797 1546.32,-454.254"/>
</g>
<!-- Node26 -->
<g id="node26" class="node"><title>Node26</title>
<g id="a_node26"><a xlink:href="namespacerepo_1_1programs_1_1pythonpackages_1_1pr_1_1SPfuncs.html#aba724f914a5cc838851518564a1f5d84" target="_top" xlink:title="repo.programs.pythonpackages.pr.\lSPfuncs.getRotationsFromRSpec">
<polygon fill="white" stroke="black" points="1727.5,-455 1727.5,-485 1894.5,-485 1894.5,-455 1727.5,-455"/>
<text text-anchor="start" x="1735.5" y="-473" font-family="Helvetica,sans-Serif" font-size="10.00">repo.programs.pythonpackages.pr.</text>
<text text-anchor="middle" x="1811" y="-462" font-family="Helvetica,sans-Serif" font-size="10.00">SPfuncs.getRotationsFromRSpec</text>
</a>
</g>
</g>
<!-- Node25&#45;&gt;Node26 -->
<g id="edge40" class="edge"><title>Node25&#45;&gt;Node26</title>
<path fill="none" stroke="midnightblue" d="M1677.51,-470C1690.53,-470 1704.07,-470 1717.31,-470"/>
<polygon fill="midnightblue" stroke="midnightblue" points="1717.36,-473.5 1727.36,-470 1717.36,-466.5 1717.36,-473.5"/>
</g>
<!-- Node27&#45;&gt;Node3 -->
<g id="edge45" class="edge"><title>Node27&#45;&gt;Node3</title>
<path fill="none" stroke="midnightblue" d="M736.48,-255.994C758.355,-232.61 803.994,-187.704 852,-164 928.855,-126.051 956.74,-141.362 1040,-121 1057.16,-116.803 1075.66,-112.08 1092.85,-107.609"/>
<polygon fill="midnightblue" stroke="midnightblue" points="1094,-110.926 1102.79,-105.012 1092.23,-104.153 1094,-110.926"/>
</g>
<!-- Node27&#45;&gt;Node5 -->
<g id="edge44" class="edge"><title>Node27&#45;&gt;Node5</title>
<path fill="none" stroke="midnightblue" d="M774.748,-286.022C843.289,-305.633 968.11,-340.355 1076,-365 1165.99,-385.556 1188.1,-395.295 1280,-404 1365.84,-412.131 1387.81,-406.179 1474,-404 1556.2,-401.922 1649.6,-396.989 1717.02,-392.969"/>
<polygon fill="midnightblue" stroke="midnightblue" points="1717.42,-396.451 1727.2,-392.358 1717,-389.464 1717.42,-396.451"/>
</g>
<!-- Node27&#45;&gt;Node15 -->
<g id="edge46" class="edge"><title>Node27&#45;&gt;Node15</title>
<path fill="none" stroke="midnightblue" d="M815.54,-257.244C827.624,-255.448 840.007,-253.607 852.096,-251.81"/>
<polygon fill="midnightblue" stroke="midnightblue" points="852.792,-255.245 862.169,-250.313 851.763,-248.321 852.792,-255.245"/>
</g>
<!-- Node27&#45;&gt;Node16 -->
<g id="edge47" class="edge"><title>Node27&#45;&gt;Node16</title>
<path fill="none" stroke="midnightblue" d="M815.625,-269.315C878.857,-267.934 964.521,-265.607 1040,-262 1048.57,-261.591 1057.47,-261.104 1066.39,-260.577"/>
<polygon fill="midnightblue" stroke="midnightblue" points="1066.67,-264.066 1076.44,-259.965 1066.25,-257.079 1066.67,-264.066"/>
</g>
<!-- Node28&#45;&gt;Node3 -->
<g id="edge52" class="edge"><title>Node28&#45;&gt;Node3</title>
<path fill="none" stroke="midnightblue" d="M311.028,-99.9054C334.036,-85.1285 371.76,-63.6193 408,-55 681.266,9.99363 761.979,-14.9625 1040,-55 1063.09,-58.3256 1087.95,-65.1051 1108.95,-71.8194"/>
<polygon fill="midnightblue" stroke="midnightblue" points="1108.02,-75.1975 1118.61,-74.9905 1110.2,-68.5466 1108.02,-75.1975"/>
</g>
<!-- Node28&#45;&gt;Node4 -->
<g id="edge53" class="edge"><title>Node28&#45;&gt;Node4</title>
<path fill="none" stroke="midnightblue" d="M347.15,-130.074C355.589,-132.762 364.091,-135.753 372,-139 405.284,-152.666 441.127,-172.67 466.219,-187.625"/>
<polygon fill="midnightblue" stroke="midnightblue" points="464.58,-190.724 474.952,-192.885 468.192,-184.728 464.58,-190.724"/>
</g>
</g>
</svg>
        <g id="navigator" transform="translate(0 0)" fill="#404254">
                <rect fill="#f2f5e9" fill-opacity="0.5" stroke="#606060" stroke-width=".5" x="0" y="0" width="60" height="60"/>
                <use id="zoomplus" xlink:href="#zoomPlus" x="17" y="9" onmousedown="handleZoom(evt,'in')"/>
                <use id="zoomminus" xlink:href="#zoomMin" x="42" y="9" onmousedown="handleZoom(evt,'out')"/>
                <use id="reset" xlink:href="#resetDef" x="30" y="36" onmousedown="handleReset()"/>
                <g id="arrowUp" xlink:href="#dirArrow" transform="translate(30 24)" onmousedown="handlePan(0,-1)">
                  <use xlink:href="#rim" fill="#404040">
                        <set attributeName="fill" to="#808080" begin="arrowUp.mouseover" end="arrowUp.mouseout"/>
                  </use>
                  <path fill="none" stroke="white" stroke-width="1.5" d="M0,-3.0v7 M-2.5,-0.5L0,-3.0L2.5,-0.5"/>
                </g>
                <g id="arrowRight" xlink:href="#dirArrow" transform="rotate(90) translate(36 -43)" onmousedown="handlePan(1,0)">
                  <use xlink:href="#rim" fill="#404040">
                        <set attributeName="fill" to="#808080" begin="arrowRight.mouseover" end="arrowRight.mouseout"/>
                  </use>
                  <path fill="none" stroke="white" stroke-width="1.5" d="M0,-3.0v7 M-2.5,-0.5L0,-3.0L2.5,-0.5"/>
                </g>
                <g id="arrowDown" xlink:href="#dirArrow" transform="rotate(180) translate(-30 -48)" onmousedown="handlePan(0,1)">
                  <use xlink:href="#rim" fill="#404040">
                        <set attributeName="fill" to="#808080" begin="arrowDown.mouseover" end="arrowDown.mouseout"/>
                  </use>
                  <path fill="none" stroke="white" stroke-width="1.5" d="M0,-3.0v7 M-2.5,-0.5L0,-3.0L2.5,-0.5"/>
                </g>
                <g id="arrowLeft" xlink:href="#dirArrow" transform="rotate(270) translate(-36 17)" onmousedown="handlePan(-1,0)">
                  <use xlink:href="#rim" fill="#404040">
                        <set attributeName="fill" to="#808080" begin="arrowLeft.mouseover" end="arrowLeft.mouseout"/>
                  </use>
                  <path fill="none" stroke="white" stroke-width="1.5" d="M0,-3.0v7 M-2.5,-0.5L0,-3.0L2.5,-0.5"/>
                </g>
        </g>
        <svg viewBox="0 0 15 15" width="100%" height="30px" preserveAspectRatio="xMaxYMin meet">
         <g id="arrow_out" transform="scale(0.3 0.3)">
          <a xlink:href="classrepo_1_1programs_1_1pythonpackages_1_1pr_1_1SPDataSet_1_1SPDataSet_a3624263a6738178d243635889b719a90_cgraph_org.svg" target="_base">
           <rect id="button" ry="5" rx="5" y="6" x="6" height="38" width="38"
                fill="#f2f5e9" fill-opacity="0.5" stroke="#606060" stroke-width="1.0"/>
           <path id="arrow"
             d="M 11.500037,31.436501 C 11.940474,20.09759 22.043105,11.32322 32.158766,21.979434 L 37.068811,17.246167 C 37.068811,17.246167 37.088388,32 37.088388,32 L 22.160133,31.978069 C 22.160133,31.978069 26.997745,27.140456 26.997745,27.140456 C 18.528582,18.264221 13.291696,25.230495 11.500037,31.436501 z"
             style="fill:#404040;"/>
          </a>
         </g>
        </svg>
</svg>
