<?xml version="1.0" encoding="UTF-8" standalone="no"?>
<!DOCTYPE svg PUBLIC "-//W3C//DTD SVG 1.1//EN"
 "http://www.w3.org/Graphics/SVG/1.1/DTD/svg11.dtd">
<!-- Generated by graphviz version 2.36.0 (20140111.2315)
 -->
<!-- Title: repo.programs.pythonpackages.pr.SPDataSet.SPDataSet.viewSeq Pages: 1 -->
<!--zoomable 553 -->
<svg id="main" version="1.1" xmlns="http://www.w3.org/2000/svg" xmlns:xlink="http://www.w3.org/1999/xlink" xml:space="preserve" onload="init(evt)">
<style type="text/css"><![CDATA[
.edge:hover path { stroke: red; }
.edge:hover polygon { stroke: red; fill: red; }
]]></style>
<script type="text/javascript"><![CDATA[
var edges = document.getElementsByTagName('g');
if (edges && edges.length) {
  for (var i=0;i<edges.length;i++) {
    if (edges[i].id.substr(0,4)=='edge') {
      edges[i].setAttribute('class','edge');
    }
  }
}
]]></script>
        <defs>
                <circle id="rim" cx="0" cy="0" r="7"/>
                <circle id="rim2" cx="0" cy="0" r="3.5"/>
                <g id="zoomPlus">
                        <use xlink:href="#rim" fill="#404040">
                                <set attributeName="fill" to="#808080" begin="zoomplus.mouseover" end="zoomplus.mouseout"/>
                        </use>
                        <path d="M-4,0h8M0,-4v8" fill="none" stroke="white" stroke-width="1.5" pointer-events="none"/>
                </g>
                <g id="zoomMin">
                        <use xlink:href="#rim" fill="#404040">
                                <set attributeName="fill" to="#808080" begin="zoomminus.mouseover" end="zoomminus.mouseout"/>
                        </use>
                        <path d="M-4,0h8" fill="none" stroke="white" stroke-width="1.5" pointer-events="none"/>
                </g>
                <g id="dirArrow">
                        <path fill="none" stroke="white" stroke-width="1.5" d="M0,-3.0v7 M-2.5,-0.5L0,-3.0L2.5,-0.5"/>
                </g>
               <g id="resetDef">
                       <use xlink:href="#rim2" fill="#404040">
                               <set attributeName="fill" to="#808080" begin="reset.mouseover" end="reset.mouseout"/>
                       </use>
               </g>
        </defs>

<script type="text/javascript">
var viewWidth = 2134;
var viewHeight = 553;
var sectionId = 'dynsection-50';
</script>
<script xlink:href="svgpan.js"/>
<svg id="graph" class="graph">
<g id="viewport">
<title>repo.programs.pythonpackages.pr.SPDataSet.SPDataSet.viewSeq</title>
<polygon fill="white" stroke="none" points="-4,4 -4,-549 2130,-549 2130,4 -4,4"/>
<!-- Node1 -->
<g id="node1" class="node"><title>Node1</title>
<polygon fill="#bfbfbf" stroke="black" points="0.5,-221 0.5,-251 167.5,-251 167.5,-221 0.5,-221"/>
<text text-anchor="start" x="8.5" y="-239" font-family="Helvetica,sans-Serif" font-size="10.00">repo.programs.pythonpackages.pr.</text>
<text text-anchor="middle" x="84" y="-228" font-family="Helvetica,sans-Serif" font-size="10.00">SPDataSet.SPDataSet.viewSeq</text>
</g>
<!-- Node2 -->
<g id="node2" class="node"><title>Node2</title>
<g id="a_node2"><a xlink:href="classrepo_1_1programs_1_1pythonpackages_1_1pr_1_1SPDataSet_1_1SPDataSet.html#accbfa0185d4e416038e688fc9b55575b" target="_top" xlink:title="repo.programs.pythonpackages.pr.\lSPDataSet.SPDataSet.sequenceAmp">
<polygon fill="white" stroke="black" points="204,-334 204,-364 388,-364 388,-334 204,-334"/>
<text text-anchor="start" x="212" y="-352" font-family="Helvetica,sans-Serif" font-size="10.00">repo.programs.pythonpackages.pr.</text>
<text text-anchor="middle" x="296" y="-341" font-family="Helvetica,sans-Serif" font-size="10.00">SPDataSet.SPDataSet.sequenceAmp</text>
</a>
</g>
</g>
<!-- Node1&#45;&gt;Node2 -->
<g id="edge1" class="edge"><title>Node1&#45;&gt;Node2</title>
<path fill="none" stroke="midnightblue" d="M112.886,-251.006C150.228,-271.099 216.568,-306.796 258.039,-329.111"/>
<polygon fill="midnightblue" stroke="midnightblue" points="256.534,-332.276 266.998,-333.932 259.851,-326.112 256.534,-332.276"/>
</g>
<!-- Node14 -->
<g id="node14" class="node"><title>Node14</title>
<g id="a_node14"><a xlink:href="classrepo_1_1programs_1_1pythonpackages_1_1pr_1_1SPDataSet_1_1SPDataSet.html#a6f2c3de2aa708d686f5835f10e2d096d" target="_top" xlink:title="repo.programs.pythonpackages.pr.\lSPDataSet.SPDataSet.pointAmp">
<polygon fill="white" stroke="black" points="658.5,-290 658.5,-320 825.5,-320 825.5,-290 658.5,-290"/>
<text text-anchor="start" x="666.5" y="-308" font-family="Helvetica,sans-Serif" font-size="10.00">repo.programs.pythonpackages.pr.</text>
<text text-anchor="middle" x="742" y="-297" font-family="Helvetica,sans-Serif" font-size="10.00">SPDataSet.SPDataSet.pointAmp</text>
</a>
</g>
</g>
<!-- Node1&#45;&gt;Node14 -->
<g id="edge48" class="edge"><title>Node1&#45;&gt;Node14</title>
<path fill="none" stroke="midnightblue" d="M167.75,-244.704C290.492,-257.614 520.066,-281.762 648.306,-295.25"/>
<polygon fill="midnightblue" stroke="midnightblue" points="648.186,-298.757 658.497,-296.322 648.918,-291.795 648.186,-298.757"/>
</g>
<!-- Node2&#45;&gt;Node2 -->
<g id="edge47" class="edge"><title>Node2&#45;&gt;Node2</title>
<path fill="none" stroke="midnightblue" d="M258.734,-364.275C250.453,-373.406 262.875,-382 296,-382 315.668,-382 328.037,-378.97 333.108,-374.598"/>
<polygon fill="midnightblue" stroke="midnightblue" points="336.612,-374.328 333.266,-364.275 329.613,-374.221 336.612,-374.328"/>
</g>
<!-- Node3 -->
<g id="node3" class="node"><title>Node3</title>
<g id="a_node3"><a xlink:href="classrepo_1_1programs_1_1pythonpackages_1_1pr_1_1SPDataSet_1_1SPDataSet.html#af17c964467367b46a56c14a8c87e84a2" target="_top" xlink:title="Property doc string!! ">
<polygon fill="white" stroke="black" points="1523.5,-376 1523.5,-406 1690.5,-406 1690.5,-376 1523.5,-376"/>
<text text-anchor="start" x="1531.5" y="-394" font-family="Helvetica,sans-Serif" font-size="10.00">repo.programs.pythonpackages.pr.</text>
<text text-anchor="middle" x="1607" y="-383" font-family="Helvetica,sans-Serif" font-size="10.00">SPDataSet.SPDataSet.set_info</text>
</a>
</g>
</g>
<!-- Node2&#45;&gt;Node3 -->
<g id="edge2" class="edge"><title>Node2&#45;&gt;Node3</title>
<path fill="none" stroke="midnightblue" d="M308.468,-364.301C328.769,-390.248 373.667,-442.714 424,-470 551.279,-538.999 596.222,-545 741,-545 741,-545 741,-545 1174,-545 1331.36,-545 1503.21,-453.223 1573.4,-411.369"/>
<polygon fill="midnightblue" stroke="midnightblue" points="1575.48,-414.207 1582.23,-406.047 1571.86,-408.212 1575.48,-414.207"/>
</g>
<!-- Node4 -->
<g id="node4" class="node"><title>Node4</title>
<g id="a_node4"><a xlink:href="classrepo_1_1programs_1_1pythonpackages_1_1pr_1_1SPDataSet_1_1SPDataSet.html#a2b09966d9ad35b39ea13988a7c361df6" target="_top" xlink:title="Assume it&#39;s a continuously rotating sample. ">
<polygon fill="white" stroke="black" points="648,-454 648,-484 836,-484 836,-454 648,-454"/>
<text text-anchor="start" x="656" y="-472" font-family="Helvetica,sans-Serif" font-size="10.00">repo.programs.pythonpackages.pr.</text>
<text text-anchor="middle" x="742" y="-461" font-family="Helvetica,sans-Serif" font-size="10.00">SPDataSet.SPDataSet.seqAmpFitSplit</text>
</a>
</g>
</g>
<!-- Node2&#45;&gt;Node4 -->
<g id="edge3" class="edge"><title>Node2&#45;&gt;Node4</title>
<path fill="none" stroke="midnightblue" d="M312.626,-364.312C335.121,-385.288 378.904,-422.26 424,-439 492.256,-464.337 574.184,-471.544 637.65,-472.57"/>
<polygon fill="midnightblue" stroke="midnightblue" points="637.634,-476.07 647.673,-472.683 637.713,-469.07 637.634,-476.07"/>
</g>
<!-- Node5 -->
<g id="node5" class="node"><title>Node5</title>
<g id="a_node5"><a xlink:href="namespacerepo_1_1programs_1_1pythonpackages_1_1pr_1_1SPDataSet.html#a9d0e07e3e1f4360be4f8c59927abe142" target="_top" xlink:title="Helpful for calling work_func(following_func(**remaining_args), **work_args)) work_args are the entri...">
<polygon fill="white" stroke="black" points="872.5,-410 872.5,-440 1039.5,-440 1039.5,-410 872.5,-410"/>
<text text-anchor="start" x="880.5" y="-428" font-family="Helvetica,sans-Serif" font-size="10.00">repo.programs.pythonpackages.pr.</text>
<text text-anchor="middle" x="956" y="-417" font-family="Helvetica,sans-Serif" font-size="10.00">SPDataSet.divide_args</text>
</a>
</g>
</g>
<!-- Node2&#45;&gt;Node5 -->
<g id="edge15" class="edge"><title>Node2&#45;&gt;Node5</title>
<path fill="none" stroke="midnightblue" d="M372.769,-364.007C389.606,-367.15 407.386,-370.32 424,-373 523.162,-388.998 548.081,-392.739 648,-403 719.878,-410.382 801.478,-416.103 862.475,-419.859"/>
<polygon fill="midnightblue" stroke="midnightblue" points="862.27,-423.353 872.465,-420.468 862.696,-416.366 862.27,-423.353"/>
</g>
<!-- Node2&#45;&gt;Node14 -->
<g id="edge16" class="edge"><title>Node2&#45;&gt;Node14</title>
<path fill="none" stroke="midnightblue" d="M364.612,-333.94C383.728,-330.16 404.607,-326.478 424,-324 498.987,-314.416 584.587,-309.648 647.919,-307.286"/>
<polygon fill="midnightblue" stroke="midnightblue" points="648.416,-310.771 658.284,-306.914 648.164,-303.775 648.416,-310.771"/>
</g>
<!-- Node23 -->
<g id="node23" class="node"><title>Node23</title>
<g id="a_node23"><a xlink:href="classrepo_1_1programs_1_1pythonpackages_1_1pr_1_1SPDataSet_1_1SPDataSet.html#aee6249fe272c46f07d0f2f32f6c188d2" target="_top" xlink:title="repo.programs.pythonpackages.pr.\lSPDataSet.SPDataSet.apparatusAngles">
<polygon fill="white" stroke="black" points="1076,-150 1076,-180 1270,-180 1270,-150 1076,-150"/>
<text text-anchor="start" x="1084" y="-168" font-family="Helvetica,sans-Serif" font-size="10.00">repo.programs.pythonpackages.pr.</text>
<text text-anchor="middle" x="1173" y="-157" font-family="Helvetica,sans-Serif" font-size="10.00">SPDataSet.SPDataSet.apparatusAngles</text>
</a>
</g>
</g>
<!-- Node2&#45;&gt;Node23 -->
<g id="edge46" class="edge"><title>Node2&#45;&gt;Node23</title>
<path fill="none" stroke="midnightblue" d="M334.184,-333.89C424.467,-298.062 663.202,-208.46 872,-175 935.71,-164.79 1007.97,-162.117 1065.61,-162.079"/>
<polygon fill="midnightblue" stroke="midnightblue" points="1065.82,-165.579 1075.82,-162.1 1065.83,-158.579 1065.82,-165.579"/>
</g>
<!-- Node26 -->
<g id="node26" class="node"><title>Node26</title>
<g id="a_node26"><a xlink:href="classrepo_1_1programs_1_1pythonpackages_1_1pr_1_1SPDataSet_1_1SPDataSet.html#a9eac955cac12a62b72d189aa80b82ec6" target="_top" xlink:title="repo.programs.pythonpackages.pr.\lSPDataSet.SPDataSet.filteredCutAmp">
<polygon fill="white" stroke="black" points="424.5,-334 424.5,-364 611.5,-364 611.5,-334 424.5,-334"/>
<text text-anchor="start" x="432.5" y="-352" font-family="Helvetica,sans-Serif" font-size="10.00">repo.programs.pythonpackages.pr.</text>
<text text-anchor="middle" x="518" y="-341" font-family="Helvetica,sans-Serif" font-size="10.00">SPDataSet.SPDataSet.filteredCutAmp</text>
</a>
</g>
</g>
<!-- Node2&#45;&gt;Node26 -->
<g id="edge41" class="edge"><title>Node2&#45;&gt;Node26</title>
<path fill="none" stroke="midnightblue" d="M388.07,-349C396.652,-349 405.392,-349 414.072,-349"/>
<polygon fill="midnightblue" stroke="midnightblue" points="414.223,-352.5 424.223,-349 414.223,-345.5 414.223,-352.5"/>
</g>
<!-- Node4&#45;&gt;Node3 -->
<g id="edge14" class="edge"><title>Node4&#45;&gt;Node3</title>
<path fill="none" stroke="midnightblue" d="M836.346,-473.046C848.342,-473.44 860.46,-473.776 872,-474 946.653,-475.446 965.531,-479.431 1040,-474 1210.49,-461.566 1407.6,-428.33 1518.45,-407.886"/>
<polygon fill="midnightblue" stroke="midnightblue" points="1519.38,-411.273 1528.57,-406.01 1518.1,-404.39 1519.38,-411.273"/>
</g>
<!-- Node4&#45;&gt;Node5 -->
<g id="edge4" class="edge"><title>Node4&#45;&gt;Node5</title>
<path fill="none" stroke="midnightblue" d="M815.365,-453.981C833.854,-450.144 853.865,-445.99 872.807,-442.059"/>
<polygon fill="midnightblue" stroke="midnightblue" points="873.521,-445.485 882.601,-440.026 872.098,-438.631 873.521,-445.485"/>
</g>
<!-- Node6 -->
<g id="node6" class="node"><title>Node6</title>
<g id="a_node6"><a xlink:href="classrepo_1_1programs_1_1pythonpackages_1_1pr_1_1SPDataSet_1_1SPDataSet.html#afe54eeb9f41f503dc478557e4ea2c62a" target="_top" xlink:title="repo.programs.pythonpackages.pr.\lSPDataSet.SPDataSet.rawData">
<polygon fill="white" stroke="black" points="1306.5,-284 1306.5,-314 1473.5,-314 1473.5,-284 1306.5,-284"/>
<text text-anchor="start" x="1314.5" y="-302" font-family="Helvetica,sans-Serif" font-size="10.00">repo.programs.pythonpackages.pr.</text>
<text text-anchor="middle" x="1390" y="-291" font-family="Helvetica,sans-Serif" font-size="10.00">SPDataSet.SPDataSet.rawData</text>
</a>
</g>
</g>
<!-- Node4&#45;&gt;Node6 -->
<g id="edge5" class="edge"><title>Node4&#45;&gt;Node6</title>
<path fill="none" stroke="midnightblue" d="M836.195,-470.747C895.336,-469.897 973.056,-465.14 1040,-449 1160.44,-419.962 1292.05,-352.769 1353.58,-319.054"/>
<polygon fill="midnightblue" stroke="midnightblue" points="1355.43,-322.032 1362.49,-314.136 1352.05,-315.904 1355.43,-322.032"/>
</g>
<!-- Node7 -->
<g id="node7" class="node"><title>Node7</title>
<g id="a_node7"><a xlink:href="classrepo_1_1programs_1_1pythonpackages_1_1pr_1_1SPDataSet_1_1SPDataSet.html#aa400ad81219e782fe2e29e852b20bb28" target="_top" xlink:title="repo.programs.pythonpackages.pr.\lSPDataSet.SPDataSet.fastD">
<polygon fill="white" stroke="black" points="1523.5,-229 1523.5,-259 1690.5,-259 1690.5,-229 1523.5,-229"/>
<text text-anchor="start" x="1531.5" y="-247" font-family="Helvetica,sans-Serif" font-size="10.00">repo.programs.pythonpackages.pr.</text>
<text text-anchor="middle" x="1607" y="-236" font-family="Helvetica,sans-Serif" font-size="10.00">SPDataSet.SPDataSet.fastD</text>
</a>
</g>
</g>
<!-- Node6&#45;&gt;Node7 -->
<g id="edge6" class="edge"><title>Node6&#45;&gt;Node7</title>
<path fill="none" stroke="midnightblue" d="M1448.17,-283.985C1467.76,-278.871 1489.83,-273.148 1510,-268 1518.35,-265.87 1527.1,-263.654 1535.79,-261.467"/>
<polygon fill="midnightblue" stroke="midnightblue" points="1536.7,-264.847 1545.55,-259.016 1535,-258.058 1536.7,-264.847"/>
</g>
<!-- Node12 -->
<g id="node12" class="node"><title>Node12</title>
<g id="a_node12"><a xlink:href="classrepo_1_1programs_1_1pythonpackages_1_1pr_1_1SPDataSet_1_1SPDataSet.html#aa0b687b3c937bfb4aa71c4a09cac5eb5" target="_top" xlink:title="Names should be of the form &quot;med:Total Position Sensor 1&quot; etc. ">
<polygon fill="white" stroke="black" points="1510,-327 1510,-357 1704,-357 1704,-327 1510,-327"/>
<text text-anchor="start" x="1518" y="-345" font-family="Helvetica,sans-Serif" font-size="10.00">repo.programs.pythonpackages.pr.</text>
<text text-anchor="middle" x="1607" y="-334" font-family="Helvetica,sans-Serif" font-size="10.00">SPDataSet.SPDataSet.getRawByName</text>
</a>
</g>
</g>
<!-- Node6&#45;&gt;Node12 -->
<g id="edge11" class="edge"><title>Node6&#45;&gt;Node12</title>
<path fill="none" stroke="midnightblue" d="M1473.51,-308.917C1498.78,-313.632 1526.01,-319.261 1549.16,-324.599"/>
<polygon fill="midnightblue" stroke="midnightblue" points="1548.62,-328.067 1559.16,-326.946 1550.22,-321.252 1548.62,-328.067"/>
</g>
<!-- Node13 -->
<g id="node13" class="node"><title>Node13</title>
<g id="a_node13"><a xlink:href="classrepo_1_1programs_1_1pythonpackages_1_1pr_1_1SPDataSet_1_1SPDataSet.html#a33ced34e094ccfd1e3891b92478613e7" target="_top" xlink:title="repo.programs.pythonpackages.pr.\lSPDataSet.SPDataSet.clearRaw">
<polygon fill="white" stroke="black" points="1523.5,-278 1523.5,-308 1690.5,-308 1690.5,-278 1523.5,-278"/>
<text text-anchor="start" x="1531.5" y="-296" font-family="Helvetica,sans-Serif" font-size="10.00">repo.programs.pythonpackages.pr.</text>
<text text-anchor="middle" x="1607" y="-285" font-family="Helvetica,sans-Serif" font-size="10.00">SPDataSet.SPDataSet.clearRaw</text>
</a>
</g>
</g>
<!-- Node6&#45;&gt;Node13 -->
<g id="edge13" class="edge"><title>Node6&#45;&gt;Node13</title>
<path fill="none" stroke="midnightblue" d="M1473.51,-296.697C1486.53,-296.334 1500.07,-295.956 1513.31,-295.587"/>
<polygon fill="midnightblue" stroke="midnightblue" points="1513.46,-299.084 1523.36,-295.306 1513.26,-292.087 1513.46,-299.084"/>
</g>
<!-- Node8 -->
<g id="node8" class="node"><title>Node8</title>
<g id="a_node8"><a xlink:href="classrepo_1_1programs_1_1pythonpackages_1_1pr_1_1SPDataSet_1_1SPDataSet.html#a1e4c1d502ec5ff9a57bf9a330a318a54" target="_top" xlink:title="repo.programs.pythonpackages.pr.\lSPDataSet.SPDataSet.splitRecArray">
<polygon fill="white" stroke="black" points="1740.5,-181 1740.5,-211 1921.5,-211 1921.5,-181 1740.5,-181"/>
<text text-anchor="start" x="1748.5" y="-199" font-family="Helvetica,sans-Serif" font-size="10.00">repo.programs.pythonpackages.pr.</text>
<text text-anchor="middle" x="1831" y="-188" font-family="Helvetica,sans-Serif" font-size="10.00">SPDataSet.SPDataSet.splitRecArray</text>
</a>
</g>
</g>
<!-- Node7&#45;&gt;Node8 -->
<g id="edge7" class="edge"><title>Node7&#45;&gt;Node8</title>
<path fill="none" stroke="midnightblue" d="M1677.63,-228.944C1700.78,-223.94 1726.72,-218.331 1750.55,-213.179"/>
<polygon fill="midnightblue" stroke="midnightblue" points="1751.58,-216.537 1760.61,-211.002 1750.1,-209.695 1751.58,-216.537"/>
</g>
<!-- Node9 -->
<g id="node9" class="node"><title>Node9</title>
<g id="a_node9"><a xlink:href="classrepo_1_1programs_1_1pythonpackages_1_1pr_1_1SPDataSet_1_1SPDataSet.html#af0f40f6c14b1ba1c8de9351a839eb511" target="_top" xlink:title="repo.programs.pythonpackages.pr.\lSPDataSet.SPDataSet.calArr">
<polygon fill="white" stroke="black" points="1747.5,-230 1747.5,-260 1914.5,-260 1914.5,-230 1747.5,-230"/>
<text text-anchor="start" x="1755.5" y="-248" font-family="Helvetica,sans-Serif" font-size="10.00">repo.programs.pythonpackages.pr.</text>
<text text-anchor="middle" x="1831" y="-237" font-family="Helvetica,sans-Serif" font-size="10.00">SPDataSet.SPDataSet.calArr</text>
</a>
</g>
</g>
<!-- Node7&#45;&gt;Node9 -->
<g id="edge8" class="edge"><title>Node7&#45;&gt;Node9</title>
<path fill="none" stroke="midnightblue" d="M1690.66,-244.372C1705.83,-244.441 1721.76,-244.512 1737.2,-244.582"/>
<polygon fill="midnightblue" stroke="midnightblue" points="1737.25,-248.082 1747.27,-244.627 1737.28,-241.082 1737.25,-248.082"/>
</g>
<!-- Node10 -->
<g id="node10" class="node"><title>Node10</title>
<g id="a_node10"><a xlink:href="classrepo_1_1programs_1_1pythonpackages_1_1pr_1_1SPDataSet_1_1SPDataSet.html#a6e8c2848a25079fc869ab950445213b8" target="_top" xlink:title="repo.programs.pythonpackages.pr.\lSPDataSet.SPDataSet.zeroingD">
<polygon fill="white" stroke="black" points="1958.5,-255 1958.5,-285 2125.5,-285 2125.5,-255 1958.5,-255"/>
<text text-anchor="start" x="1966.5" y="-273" font-family="Helvetica,sans-Serif" font-size="10.00">repo.programs.pythonpackages.pr.</text>
<text text-anchor="middle" x="2042" y="-262" font-family="Helvetica,sans-Serif" font-size="10.00">SPDataSet.SPDataSet.zeroingD</text>
</a>
</g>
</g>
<!-- Node9&#45;&gt;Node10 -->
<g id="edge9" class="edge"><title>Node9&#45;&gt;Node10</title>
<path fill="none" stroke="midnightblue" d="M1914.6,-254.881C1925.61,-256.197 1936.96,-257.555 1948.12,-258.89"/>
<polygon fill="midnightblue" stroke="midnightblue" points="1947.97,-262.397 1958.31,-260.109 1948.8,-255.446 1947.97,-262.397"/>
</g>
<!-- Node11 -->
<g id="node11" class="node"><title>Node11</title>
<g id="a_node11"><a xlink:href="classrepo_1_1programs_1_1pythonpackages_1_1pr_1_1SPDataSet_1_1SPDataSet.html#aa287beda17e46a3969a9321e5904eaed" target="_top" xlink:title="repo.programs.pythonpackages.pr.\lSPDataSet.SPDataSet.cBzCal">
<polygon fill="white" stroke="black" points="1958.5,-206 1958.5,-236 2125.5,-236 2125.5,-206 1958.5,-206"/>
<text text-anchor="start" x="1966.5" y="-224" font-family="Helvetica,sans-Serif" font-size="10.00">repo.programs.pythonpackages.pr.</text>
<text text-anchor="middle" x="2042" y="-213" font-family="Helvetica,sans-Serif" font-size="10.00">SPDataSet.SPDataSet.cBzCal</text>
</a>
</g>
</g>
<!-- Node9&#45;&gt;Node11 -->
<g id="edge10" class="edge"><title>Node9&#45;&gt;Node11</title>
<path fill="none" stroke="midnightblue" d="M1914.6,-235.515C1925.61,-234.251 1936.96,-232.948 1948.12,-231.665"/>
<polygon fill="midnightblue" stroke="midnightblue" points="1948.78,-235.113 1958.31,-230.495 1947.98,-228.159 1948.78,-235.113"/>
</g>
<!-- Node12&#45;&gt;Node6 -->
<g id="edge12" class="edge"><title>Node12&#45;&gt;Node6</title>
<path fill="none" stroke="midnightblue" d="M1509.99,-329.513C1488.59,-325.363 1466.59,-320.729 1447.41,-316.302"/>
<polygon fill="midnightblue" stroke="midnightblue" points="1448.19,-312.89 1437.65,-314.009 1446.59,-319.704 1448.19,-312.89"/>
</g>
<!-- Node14&#45;&gt;Node3 -->
<g id="edge17" class="edge"><title>Node14&#45;&gt;Node3</title>
<path fill="none" stroke="midnightblue" d="M825.57,-312.803C840.998,-314.227 856.988,-315.678 872,-317 1139.44,-340.545 1207.84,-331.834 1474,-367 1489.06,-368.99 1505.01,-371.523 1520.43,-374.194"/>
<polygon fill="midnightblue" stroke="midnightblue" points="1520.01,-377.674 1530.46,-375.965 1521.22,-370.781 1520.01,-377.674"/>
</g>
<!-- Node14&#45;&gt;Node5 -->
<g id="edge19" class="edge"><title>Node14&#45;&gt;Node5</title>
<path fill="none" stroke="midnightblue" d="M769.85,-320.198C807.841,-341.703 877.349,-381.047 919.544,-404.931"/>
<polygon fill="midnightblue" stroke="midnightblue" points="917.941,-408.045 928.368,-409.925 921.39,-401.953 917.941,-408.045"/>
</g>
<!-- Node14&#45;&gt;Node6 -->
<g id="edge18" class="edge"><title>Node14&#45;&gt;Node6</title>
<path fill="none" stroke="midnightblue" d="M825.801,-304.231C946.543,-303.11 1170.23,-301.032 1296.32,-299.861"/>
<polygon fill="midnightblue" stroke="midnightblue" points="1296.38,-303.36 1306.35,-299.768 1296.32,-296.361 1296.38,-303.36"/>
</g>
<!-- Node15 -->
<g id="node15" class="node"><title>Node15</title>
<g id="a_node15"><a xlink:href="classrepo_1_1programs_1_1pythonpackages_1_1pr_1_1SPDataSet_1_1SPDataSet.html#a5b12a3d9fdb93ccbf79a6b7a7893be3f" target="_top" xlink:title="repo.programs.pythonpackages.pr.\lSPDataSet.SPDataSet.cutAmp">
<polygon fill="white" stroke="black" points="872.5,-228 872.5,-258 1039.5,-258 1039.5,-228 872.5,-228"/>
<text text-anchor="start" x="880.5" y="-246" font-family="Helvetica,sans-Serif" font-size="10.00">repo.programs.pythonpackages.pr.</text>
<text text-anchor="middle" x="956" y="-235" font-family="Helvetica,sans-Serif" font-size="10.00">SPDataSet.SPDataSet.cutAmp</text>
</a>
</g>
</g>
<!-- Node14&#45;&gt;Node15 -->
<g id="edge20" class="edge"><title>Node14&#45;&gt;Node15</title>
<path fill="none" stroke="midnightblue" d="M794.319,-289.992C824.175,-281.26 862,-270.198 893.45,-261.001"/>
<polygon fill="midnightblue" stroke="midnightblue" points="894.803,-264.251 903.419,-258.085 892.838,-257.533 894.803,-264.251"/>
</g>
<!-- Node14&#45;&gt;Node23 -->
<g id="edge40" class="edge"><title>Node14&#45;&gt;Node23</title>
<path fill="none" stroke="midnightblue" d="M760.408,-289.703C783.983,-269.865 828.172,-235.715 872,-218 933.651,-193.082 1007.11,-179.856 1065.9,-172.847"/>
<polygon fill="midnightblue" stroke="midnightblue" points="1066.42,-176.311 1075.95,-171.693 1065.62,-169.357 1066.42,-176.311"/>
</g>
<!-- Node15&#45;&gt;Node6 -->
<g id="edge21" class="edge"><title>Node15&#45;&gt;Node6</title>
<path fill="none" stroke="midnightblue" d="M1039.53,-253.698C1112.89,-263.208 1220.03,-277.097 1296.32,-286.985"/>
<polygon fill="midnightblue" stroke="midnightblue" points="1296.03,-290.478 1306.4,-288.292 1296.93,-283.536 1296.03,-290.478"/>
</g>
<!-- Node15&#45;&gt;Node15 -->
<g id="edge35" class="edge"><title>Node15&#45;&gt;Node15</title>
<path fill="none" stroke="midnightblue" d="M918.383,-258.275C910.023,-267.406 922.562,-276 956,-276 975.854,-276 988.34,-272.97 993.458,-268.598"/>
<polygon fill="midnightblue" stroke="midnightblue" points="996.962,-268.328 993.617,-258.275 989.963,-268.22 996.962,-268.328"/>
</g>
<!-- Node16 -->
<g id="node16" class="node"><title>Node16</title>
<g id="a_node16"><a xlink:href="classrepo_1_1programs_1_1pythonpackages_1_1pr_1_1SPDataSet_1_1SPDataSet.html#a14656e508d81193e8c71c09d9444e15f" target="_top" xlink:title="repo.programs.pythonpackages.pr.\lSPDataSet.SPDataSet.trigTimes">
<polygon fill="white" stroke="black" points="1089.5,-199 1089.5,-229 1256.5,-229 1256.5,-199 1089.5,-199"/>
<text text-anchor="start" x="1097.5" y="-217" font-family="Helvetica,sans-Serif" font-size="10.00">repo.programs.pythonpackages.pr.</text>
<text text-anchor="middle" x="1173" y="-206" font-family="Helvetica,sans-Serif" font-size="10.00">SPDataSet.SPDataSet.trigTimes</text>
</a>
</g>
</g>
<!-- Node15&#45;&gt;Node16 -->
<g id="edge22" class="edge"><title>Node15&#45;&gt;Node16</title>
<path fill="none" stroke="midnightblue" d="M1039.51,-231.871C1052.53,-230.114 1066.07,-228.288 1079.31,-226.503"/>
<polygon fill="midnightblue" stroke="midnightblue" points="1079.91,-229.953 1089.36,-225.147 1078.98,-223.016 1079.91,-229.953"/>
</g>
<!-- Node15&#45;&gt;Node23 -->
<g id="edge36" class="edge"><title>Node15&#45;&gt;Node23</title>
<path fill="none" stroke="midnightblue" d="M1004.8,-227.949C1016.54,-223.649 1028.92,-218.592 1040,-213 1057.17,-204.335 1058.41,-196.779 1076,-189 1080.69,-186.925 1085.59,-185.007 1090.6,-183.239"/>
<polygon fill="midnightblue" stroke="midnightblue" points="1091.91,-186.488 1100.31,-180.019 1089.71,-179.844 1091.91,-186.488"/>
</g>
<!-- Node16&#45;&gt;Node6 -->
<g id="edge24" class="edge"><title>Node16&#45;&gt;Node6</title>
<path fill="none" stroke="midnightblue" d="M1224.64,-229.113C1239.52,-234.163 1255.65,-240.247 1270,-247 1286.97,-254.984 1289.1,-260.883 1306,-269 1314.51,-273.086 1323.73,-276.942 1332.82,-280.444"/>
<polygon fill="midnightblue" stroke="midnightblue" points="1331.63,-283.734 1342.22,-283.958 1334.08,-277.177 1331.63,-283.734"/>
</g>
<!-- Node16&#45;&gt;Node7 -->
<g id="edge23" class="edge"><title>Node16&#45;&gt;Node7</title>
<path fill="none" stroke="midnightblue" d="M1256.53,-228.79C1272.88,-231.249 1289.94,-233.488 1306,-235 1375.27,-241.522 1453.89,-243.689 1513.27,-244.27"/>
<polygon fill="midnightblue" stroke="midnightblue" points="1513.35,-247.77 1523.38,-244.355 1513.41,-240.771 1513.35,-247.77"/>
</g>
<!-- Node17 -->
<g id="node17" class="node"><title>Node17</title>
<g id="a_node17"><a xlink:href="classrepo_1_1programs_1_1pythonpackages_1_1pr_1_1SPDataSet_1_1SPDataSet.html#a9eef53392c7e7ad757cefde737a6cb69" target="_top" xlink:title="repo.programs.pythonpackages.pr.\lSPDataSet.SPDataSet.medD">
<polygon fill="white" stroke="black" points="1306.5,-98 1306.5,-128 1473.5,-128 1473.5,-98 1306.5,-98"/>
<text text-anchor="start" x="1314.5" y="-116" font-family="Helvetica,sans-Serif" font-size="10.00">repo.programs.pythonpackages.pr.</text>
<text text-anchor="middle" x="1390" y="-105" font-family="Helvetica,sans-Serif" font-size="10.00">SPDataSet.SPDataSet.medD</text>
</a>
</g>
</g>
<!-- Node16&#45;&gt;Node17 -->
<g id="edge25" class="edge"><title>Node16&#45;&gt;Node17</title>
<path fill="none" stroke="midnightblue" d="M1252.13,-198.858C1258.44,-196.104 1264.49,-192.848 1270,-189 1293.04,-172.897 1283.18,-153.409 1306,-137 1308.08,-135.506 1310.25,-134.104 1312.49,-132.79"/>
<polygon fill="midnightblue" stroke="midnightblue" points="1314.17,-135.858 1321.43,-128.137 1310.94,-129.648 1314.17,-135.858"/>
</g>
<!-- Node19 -->
<g id="node19" class="node"><title>Node19</title>
<g id="a_node19"><a xlink:href="classrepo_1_1programs_1_1pythonpackages_1_1pr_1_1SPDataSet_1_1SPDataSet.html#a6478ef339e0e44839e478fec7340c6b0" target="_top" xlink:title="repo.programs.pythonpackages.pr.\lSPDataSet.SPDataSet.relD">
<polygon fill="white" stroke="black" points="1306.5,-147 1306.5,-177 1473.5,-177 1473.5,-147 1306.5,-147"/>
<text text-anchor="start" x="1314.5" y="-165" font-family="Helvetica,sans-Serif" font-size="10.00">repo.programs.pythonpackages.pr.</text>
<text text-anchor="middle" x="1390" y="-154" font-family="Helvetica,sans-Serif" font-size="10.00">SPDataSet.SPDataSet.relD</text>
</a>
</g>
</g>
<!-- Node16&#45;&gt;Node19 -->
<g id="edge28" class="edge"><title>Node16&#45;&gt;Node19</title>
<path fill="none" stroke="midnightblue" d="M1236.19,-198.959C1261.48,-192.842 1290.87,-185.734 1317.08,-179.395"/>
<polygon fill="midnightblue" stroke="midnightblue" points="1318.06,-182.76 1326.95,-177.007 1316.41,-175.956 1318.06,-182.76"/>
</g>
<!-- Node20 -->
<g id="node20" class="node"><title>Node20</title>
<g id="a_node20"><a xlink:href="namespacerepo_1_1programs_1_1pythonpackages_1_1pr_1_1SPfuncs.html#af8a48b74a6d4e725e2409329126076a6" target="_top" xlink:title="Construct a set of triggers by analysing the timing for the signal. ">
<polygon fill="white" stroke="black" points="1306.5,-49 1306.5,-79 1473.5,-79 1473.5,-49 1306.5,-49"/>
<text text-anchor="start" x="1314.5" y="-67" font-family="Helvetica,sans-Serif" font-size="10.00">repo.programs.pythonpackages.pr.</text>
<text text-anchor="middle" x="1390" y="-56" font-family="Helvetica,sans-Serif" font-size="10.00">SPfuncs.makeTriggers</text>
</a>
</g>
</g>
<!-- Node16&#45;&gt;Node20 -->
<g id="edge31" class="edge"><title>Node16&#45;&gt;Node20</title>
<path fill="none" stroke="midnightblue" d="M1256.09,-198.878C1261.1,-196.103 1265.81,-192.839 1270,-189 1305.14,-156.811 1271.29,-120.655 1306,-88 1307.13,-86.94 1308.3,-85.9265 1309.51,-84.9574"/>
<polygon fill="midnightblue" stroke="midnightblue" points="1311.69,-87.7045 1317.99,-79.1849 1307.75,-81.9173 1311.69,-87.7045"/>
</g>
<!-- Node22 -->
<g id="node22" class="node"><title>Node22</title>
<g id="a_node22"><a xlink:href="classrepo_1_1programs_1_1pythonpackages_1_1pr_1_1SPDataSet_1_1SPDataSet.html#af6af62c7de4f7bc8f2dd223d05cf2b07" target="_top" xlink:title="repo.programs.pythonpackages.pr.\lSPDataSet.SPDataSet.rSpec">
<polygon fill="white" stroke="black" points="1306.5,-196 1306.5,-226 1473.5,-226 1473.5,-196 1306.5,-196"/>
<text text-anchor="start" x="1314.5" y="-214" font-family="Helvetica,sans-Serif" font-size="10.00">repo.programs.pythonpackages.pr.</text>
<text text-anchor="middle" x="1390" y="-203" font-family="Helvetica,sans-Serif" font-size="10.00">SPDataSet.SPDataSet.rSpec</text>
</a>
</g>
</g>
<!-- Node16&#45;&gt;Node22 -->
<g id="edge33" class="edge"><title>Node16&#45;&gt;Node22</title>
<path fill="none" stroke="midnightblue" d="M1256.51,-212.849C1269.53,-212.667 1283.07,-212.478 1296.31,-212.293"/>
<polygon fill="midnightblue" stroke="midnightblue" points="1296.41,-215.792 1306.36,-212.153 1296.31,-208.793 1296.41,-215.792"/>
</g>
<!-- Node17&#45;&gt;Node8 -->
<g id="edge27" class="edge"><title>Node17&#45;&gt;Node8</title>
<path fill="none" stroke="midnightblue" d="M1473.62,-107.551C1537.64,-105.625 1627.96,-107.964 1704,-129 1739.09,-138.708 1775.41,-159.348 1799.99,-175.17"/>
<polygon fill="midnightblue" stroke="midnightblue" points="1798.21,-178.188 1808.49,-180.753 1802.05,-172.338 1798.21,-178.188"/>
</g>
<!-- Node18 -->
<g id="node18" class="node"><title>Node18</title>
<g id="a_node18"><a xlink:href="namespacerepo_1_1programs_1_1pythonpackages_1_1pr_1_1SPfuncs.html#acb6d178d4325b6c3d8fec4f8197d6819" target="_top" xlink:title="repo.programs.pythonpackages.pr.\lSPfuncs.renameFieldMaybe">
<polygon fill="white" stroke="black" points="1523.5,-139 1523.5,-169 1690.5,-169 1690.5,-139 1523.5,-139"/>
<text text-anchor="start" x="1531.5" y="-157" font-family="Helvetica,sans-Serif" font-size="10.00">repo.programs.pythonpackages.pr.</text>
<text text-anchor="middle" x="1607" y="-146" font-family="Helvetica,sans-Serif" font-size="10.00">SPfuncs.renameFieldMaybe</text>
</a>
</g>
</g>
<!-- Node17&#45;&gt;Node18 -->
<g id="edge26" class="edge"><title>Node17&#45;&gt;Node18</title>
<path fill="none" stroke="midnightblue" d="M1469.84,-128.034C1485.17,-130.959 1501.35,-134.043 1516.99,-137.026"/>
<polygon fill="midnightblue" stroke="midnightblue" points="1516.69,-140.532 1527.17,-138.968 1518,-133.656 1516.69,-140.532"/>
</g>
<!-- Node19&#45;&gt;Node8 -->
<g id="edge30" class="edge"><title>Node19&#45;&gt;Node8</title>
<path fill="none" stroke="midnightblue" d="M1473.81,-173.972C1485.93,-175.481 1498.28,-176.884 1510,-178 1583.46,-184.994 1666.69,-189.572 1729.85,-192.361"/>
<polygon fill="midnightblue" stroke="midnightblue" points="1730.06,-195.873 1740.2,-192.81 1730.36,-188.88 1730.06,-195.873"/>
</g>
<!-- Node19&#45;&gt;Node18 -->
<g id="edge29" class="edge"><title>Node19&#45;&gt;Node18</title>
<path fill="none" stroke="midnightblue" d="M1473.51,-158.93C1486.53,-158.445 1500.07,-157.941 1513.31,-157.449"/>
<polygon fill="midnightblue" stroke="midnightblue" points="1513.49,-160.945 1523.36,-157.075 1513.23,-153.949 1513.49,-160.945"/>
</g>
<!-- Node21 -->
<g id="node21" class="node"><title>Node21</title>
<g id="a_node21"><a xlink:href="namespacerepo_1_1programs_1_1pythonpackages_1_1pr_1_1SPfuncs.html#a9d03b1e8bb9325cdab8fa026d6cdbbe3" target="_top" xlink:title="repo.programs.pythonpackages.pr.\lSPfuncs.secs2sd">
<polygon fill="white" stroke="black" points="1523.5,-49 1523.5,-79 1690.5,-79 1690.5,-49 1523.5,-49"/>
<text text-anchor="start" x="1531.5" y="-67" font-family="Helvetica,sans-Serif" font-size="10.00">repo.programs.pythonpackages.pr.</text>
<text text-anchor="middle" x="1607" y="-56" font-family="Helvetica,sans-Serif" font-size="10.00">SPfuncs.secs2sd</text>
</a>
</g>
</g>
<!-- Node20&#45;&gt;Node21 -->
<g id="edge32" class="edge"><title>Node20&#45;&gt;Node21</title>
<path fill="none" stroke="midnightblue" d="M1473.51,-64C1486.53,-64 1500.07,-64 1513.31,-64"/>
<polygon fill="midnightblue" stroke="midnightblue" points="1513.36,-67.5001 1523.36,-64 1513.36,-60.5001 1513.36,-67.5001"/>
</g>
<!-- Node22&#45;&gt;Node3 -->
<g id="edge34" class="edge"><title>Node22&#45;&gt;Node3</title>
<path fill="none" stroke="midnightblue" d="M1418.05,-226.122C1436,-237.333 1458.95,-254.084 1474,-274 1500.48,-309.027 1477.17,-336.841 1510,-366 1511.78,-367.58 1513.64,-369.062 1515.58,-370.452"/>
<polygon fill="midnightblue" stroke="midnightblue" points="1514.16,-373.689 1524.51,-375.979 1517.85,-367.738 1514.16,-373.689"/>
</g>
<!-- Node23&#45;&gt;Node22 -->
<g id="edge39" class="edge"><title>Node23&#45;&gt;Node22</title>
<path fill="none" stroke="midnightblue" d="M1244.4,-180.062C1265.02,-184.473 1287.71,-189.328 1308.88,-193.858"/>
<polygon fill="midnightblue" stroke="midnightblue" points="1308.3,-197.313 1318.81,-195.983 1309.76,-190.468 1308.3,-197.313"/>
</g>
<!-- Node24 -->
<g id="node24" class="node"><title>Node24</title>
<g id="a_node24"><a xlink:href="namespacerepo_1_1programs_1_1pythonpackages_1_1pr_1_1SPfuncs.html#a2533afa952ea007cfad4a1deb6a607a5" target="_top" xlink:title="Return angles for the sequence defined by , repeated &#160;times. ">
<polygon fill="white" stroke="black" points="1306.5,-0 1306.5,-30 1473.5,-30 1473.5,-0 1306.5,-0"/>
<text text-anchor="start" x="1314.5" y="-18" font-family="Helvetica,sans-Serif" font-size="10.00">repo.programs.pythonpackages.pr.</text>
<text text-anchor="middle" x="1390" y="-7" font-family="Helvetica,sans-Serif" font-size="10.00">SPfuncs.getAnglesFromRSpec</text>
</a>
</g>
</g>
<!-- Node23&#45;&gt;Node24 -->
<g id="edge37" class="edge"><title>Node23&#45;&gt;Node24</title>
<path fill="none" stroke="midnightblue" d="M1185.73,-149.759C1206.88,-123.3 1254.09,-68.8459 1306,-39 1309.18,-37.1729 1312.51,-35.4758 1315.92,-33.9008"/>
<polygon fill="midnightblue" stroke="midnightblue" points="1317.3,-37.1206 1325.15,-30.0107 1314.58,-30.6704 1317.3,-37.1206"/>
</g>
<!-- Node25 -->
<g id="node25" class="node"><title>Node25</title>
<g id="a_node25"><a xlink:href="namespacerepo_1_1programs_1_1pythonpackages_1_1pr_1_1SPfuncs.html#aba724f914a5cc838851518564a1f5d84" target="_top" xlink:title="repo.programs.pythonpackages.pr.\lSPfuncs.getRotationsFromRSpec">
<polygon fill="white" stroke="black" points="1523.5,-0 1523.5,-30 1690.5,-30 1690.5,-0 1523.5,-0"/>
<text text-anchor="start" x="1531.5" y="-18" font-family="Helvetica,sans-Serif" font-size="10.00">repo.programs.pythonpackages.pr.</text>
<text text-anchor="middle" x="1607" y="-7" font-family="Helvetica,sans-Serif" font-size="10.00">SPfuncs.getRotationsFromRSpec</text>
</a>
</g>
</g>
<!-- Node24&#45;&gt;Node25 -->
<g id="edge38" class="edge"><title>Node24&#45;&gt;Node25</title>
<path fill="none" stroke="midnightblue" d="M1473.51,-15C1486.53,-15 1500.07,-15 1513.31,-15"/>
<polygon fill="midnightblue" stroke="midnightblue" points="1513.36,-18.5001 1523.36,-15 1513.36,-11.5001 1513.36,-18.5001"/>
</g>
<!-- Node26&#45;&gt;Node3 -->
<g id="edge42" class="edge"><title>Node26&#45;&gt;Node3</title>
<path fill="none" stroke="midnightblue" d="M611.677,-352.581C816.914,-360.511 1307.8,-379.478 1513.17,-387.413"/>
<polygon fill="midnightblue" stroke="midnightblue" points="1513.2,-390.917 1523.33,-387.806 1513.47,-383.922 1513.2,-390.917"/>
</g>
<!-- Node26&#45;&gt;Node5 -->
<g id="edge43" class="edge"><title>Node26&#45;&gt;Node5</title>
<path fill="none" stroke="midnightblue" d="M605.14,-364.015C679.361,-376.953 786.246,-395.584 862.311,-408.843"/>
<polygon fill="midnightblue" stroke="midnightblue" points="861.912,-412.326 872.365,-410.596 863.114,-405.43 861.912,-412.326"/>
</g>
<!-- Node26&#45;&gt;Node14 -->
<g id="edge44" class="edge"><title>Node26&#45;&gt;Node14</title>
<path fill="none" stroke="midnightblue" d="M594.779,-333.981C614.228,-330.126 635.287,-325.952 655.203,-322.005"/>
<polygon fill="midnightblue" stroke="midnightblue" points="656.057,-325.404 665.186,-320.026 654.696,-318.537 656.057,-325.404"/>
</g>
<!-- Node26&#45;&gt;Node15 -->
<g id="edge45" class="edge"><title>Node26&#45;&gt;Node15</title>
<path fill="none" stroke="midnightblue" d="M541.162,-333.821C565.997,-317.626 608.034,-292.607 648,-280 717.837,-257.971 800.412,-248.913 862.324,-245.257"/>
<polygon fill="midnightblue" stroke="midnightblue" points="862.674,-248.743 872.465,-244.696 862.287,-241.754 862.674,-248.743"/>
</g>
</g>
</svg>
        <g id="navigator" transform="translate(0 0)" fill="#404254">
                <rect fill="#f2f5e9" fill-opacity="0.5" stroke="#606060" stroke-width=".5" x="0" y="0" width="60" height="60"/>
                <use id="zoomplus" xlink:href="#zoomPlus" x="17" y="9" onmousedown="handleZoom(evt,'in')"/>
                <use id="zoomminus" xlink:href="#zoomMin" x="42" y="9" onmousedown="handleZoom(evt,'out')"/>
                <use id="reset" xlink:href="#resetDef" x="30" y="36" onmousedown="handleReset()"/>
                <g id="arrowUp" xlink:href="#dirArrow" transform="translate(30 24)" onmousedown="handlePan(0,-1)">
                  <use xlink:href="#rim" fill="#404040">
                        <set attributeName="fill" to="#808080" begin="arrowUp.mouseover" end="arrowUp.mouseout"/>
                  </use>
                  <path fill="none" stroke="white" stroke-width="1.5" d="M0,-3.0v7 M-2.5,-0.5L0,-3.0L2.5,-0.5"/>
                </g>
                <g id="arrowRight" xlink:href="#dirArrow" transform="rotate(90) translate(36 -43)" onmousedown="handlePan(1,0)">
                  <use xlink:href="#rim" fill="#404040">
                        <set attributeName="fill" to="#808080" begin="arrowRight.mouseover" end="arrowRight.mouseout"/>
                  </use>
                  <path fill="none" stroke="white" stroke-width="1.5" d="M0,-3.0v7 M-2.5,-0.5L0,-3.0L2.5,-0.5"/>
                </g>
                <g id="arrowDown" xlink:href="#dirArrow" transform="rotate(180) translate(-30 -48)" onmousedown="handlePan(0,1)">
                  <use xlink:href="#rim" fill="#404040">
                        <set attributeName="fill" to="#808080" begin="arrowDown.mouseover" end="arrowDown.mouseout"/>
                  </use>
                  <path fill="none" stroke="white" stroke-width="1.5" d="M0,-3.0v7 M-2.5,-0.5L0,-3.0L2.5,-0.5"/>
                </g>
                <g id="arrowLeft" xlink:href="#dirArrow" transform="rotate(270) translate(-36 17)" onmousedown="handlePan(-1,0)">
                  <use xlink:href="#rim" fill="#404040">
                        <set attributeName="fill" to="#808080" begin="arrowLeft.mouseover" end="arrowLeft.mouseout"/>
                  </use>
                  <path fill="none" stroke="white" stroke-width="1.5" d="M0,-3.0v7 M-2.5,-0.5L0,-3.0L2.5,-0.5"/>
                </g>
        </g>
        <svg viewBox="0 0 15 15" width="100%" height="30px" preserveAspectRatio="xMaxYMin meet">
         <g id="arrow_out" transform="scale(0.3 0.3)">
          <a xlink:href="classrepo_1_1programs_1_1pythonpackages_1_1pr_1_1SPDataSet_1_1SPDataSet_ac55c6ccc03634d3f670f52e89188779c_cgraph_org.svg" target="_base">
           <rect id="button" ry="5" rx="5" y="6" x="6" height="38" width="38"
                fill="#f2f5e9" fill-opacity="0.5" stroke="#606060" stroke-width="1.0"/>
           <path id="arrow"
             d="M 11.500037,31.436501 C 11.940474,20.09759 22.043105,11.32322 32.158766,21.979434 L 37.068811,17.246167 C 37.068811,17.246167 37.088388,32 37.088388,32 L 22.160133,31.978069 C 22.160133,31.978069 26.997745,27.140456 26.997745,27.140456 C 18.528582,18.264221 13.291696,25.230495 11.500037,31.436501 z"
             style="fill:#404040;"/>
          </a>
         </g>
        </svg>
</svg>
