<?xml version="1.0" encoding="UTF-8" standalone="no"?>
<!DOCTYPE svg PUBLIC "-//W3C//DTD SVG 1.1//EN"
 "http://www.w3.org/Graphics/SVG/1.1/DTD/svg11.dtd">
<!-- Generated by graphviz version 2.36.0 (20140111.2315)
 -->
<!-- Title: repo.programs.pythonpackages.pr.SPDataSet.SPDataSet.zeroingD Pages: 1 -->
<!--zoomable 393 -->
<svg id="main" version="1.1" xmlns="http://www.w3.org/2000/svg" xmlns:xlink="http://www.w3.org/1999/xlink" xml:space="preserve" onload="init(evt)">
<style type="text/css"><![CDATA[
.edge:hover path { stroke: red; }
.edge:hover polygon { stroke: red; fill: red; }
]]></style>
<script type="text/javascript"><![CDATA[
var edges = document.getElementsByTagName('g');
if (edges && edges.length) {
  for (var i=0;i<edges.length;i++) {
    if (edges[i].id.substr(0,4)=='edge') {
      edges[i].setAttribute('class','edge');
    }
  }
}
]]></script>
        <defs>
                <circle id="rim" cx="0" cy="0" r="7"/>
                <circle id="rim2" cx="0" cy="0" r="3.5"/>
                <g id="zoomPlus">
                        <use xlink:href="#rim" fill="#404040">
                                <set attributeName="fill" to="#808080" begin="zoomplus.mouseover" end="zoomplus.mouseout"/>
                        </use>
                        <path d="M-4,0h8M0,-4v8" fill="none" stroke="white" stroke-width="1.5" pointer-events="none"/>
                </g>
                <g id="zoomMin">
                        <use xlink:href="#rim" fill="#404040">
                                <set attributeName="fill" to="#808080" begin="zoomminus.mouseover" end="zoomminus.mouseout"/>
                        </use>
                        <path d="M-4,0h8" fill="none" stroke="white" stroke-width="1.5" pointer-events="none"/>
                </g>
                <g id="dirArrow">
                        <path fill="none" stroke="white" stroke-width="1.5" d="M0,-3.0v7 M-2.5,-0.5L0,-3.0L2.5,-0.5"/>
                </g>
               <g id="resetDef">
                       <use xlink:href="#rim2" fill="#404040">
                               <set attributeName="fill" to="#808080" begin="reset.mouseover" end="reset.mouseout"/>
                       </use>
               </g>
        </defs>

<script type="text/javascript">
var viewWidth = 2344;
var viewHeight = 393;
var sectionId = 'dynsection-53';
</script>
<script xlink:href="svgpan.js"/>
<svg id="graph" class="graph">
<g id="viewport">
<title>repo.programs.pythonpackages.pr.SPDataSet.SPDataSet.zeroingD</title>
<polygon fill="white" stroke="none" points="-4,4 -4,-388.81 2340,-388.81 2340,4 -4,4"/>
<!-- Node1 -->
<g id="node1" class="node"><title>Node1</title>
<polygon fill="#bfbfbf" stroke="black" points="0.5,-115 0.5,-145 167.5,-145 167.5,-115 0.5,-115"/>
<text text-anchor="start" x="8.5" y="-133" font-family="Helvetica,sans-Serif" font-size="10.00">repo.programs.pythonpackages.pr.</text>
<text text-anchor="middle" x="84" y="-122" font-family="Helvetica,sans-Serif" font-size="10.00">SPDataSet.SPDataSet.zeroingD</text>
</g>
<!-- Node2 -->
<g id="node2" class="node"><title>Node2</title>
<g id="a_node2"><a xlink:href="classrepo_1_1programs_1_1pythonpackages_1_1pr_1_1SPDataSet_1_1SPDataSet.html#af0f40f6c14b1ba1c8de9351a839eb511" target="_top" xlink:title="repo.programs.pythonpackages.pr.\lSPDataSet.SPDataSet.calArr">
<polygon fill="white" stroke="black" points="204.5,-140 204.5,-170 371.5,-170 371.5,-140 204.5,-140"/>
<text text-anchor="start" x="212.5" y="-158" font-family="Helvetica,sans-Serif" font-size="10.00">repo.programs.pythonpackages.pr.</text>
<text text-anchor="middle" x="288" y="-147" font-family="Helvetica,sans-Serif" font-size="10.00">SPDataSet.SPDataSet.calArr</text>
</a>
</g>
</g>
<!-- Node1&#45;&gt;Node2 -->
<g id="edge1" class="edge"><title>Node1&#45;&gt;Node2</title>
<path fill="none" stroke="midnightblue" d="M177.731,-141.477C186.622,-142.577 195.6,-143.688 204.385,-144.775"/>
<polygon fill="midnightblue" stroke="midnightblue" points="178.098,-137.995 167.744,-140.241 177.238,-144.942 178.098,-137.995"/>
</g>
<!-- Node23 -->
<g id="node23" class="node"><title>Node23</title>
<g id="a_node23"><a xlink:href="classrepo_1_1programs_1_1pythonpackages_1_1pr_1_1SPDataSet_1_1SPDataSet.html#a2e98e78e34f1dabc50fa44aa6a96d6f2" target="_top" xlink:title="repo.programs.pythonpackages.pr.\lSPDataSet.SPDataSet.pol">
<polygon fill="white" stroke="black" points="204.5,-91 204.5,-121 371.5,-121 371.5,-91 204.5,-91"/>
<text text-anchor="start" x="212.5" y="-109" font-family="Helvetica,sans-Serif" font-size="10.00">repo.programs.pythonpackages.pr.</text>
<text text-anchor="middle" x="288" y="-98" font-family="Helvetica,sans-Serif" font-size="10.00">SPDataSet.SPDataSet.pol</text>
</a>
</g>
</g>
<!-- Node1&#45;&gt;Node23 -->
<g id="edge39" class="edge"><title>Node1&#45;&gt;Node23</title>
<path fill="none" stroke="midnightblue" d="M177.731,-118.982C186.622,-117.926 195.6,-116.859 204.385,-115.816"/>
<polygon fill="midnightblue" stroke="midnightblue" points="177.261,-115.514 167.744,-120.169 178.087,-122.465 177.261,-115.514"/>
</g>
<!-- Node3 -->
<g id="node3" class="node"><title>Node3</title>
<g id="a_node3"><a xlink:href="classrepo_1_1programs_1_1pythonpackages_1_1pr_1_1SPDataSet_1_1SPDataSet.html#aa400ad81219e782fe2e29e852b20bb28" target="_top" xlink:title="repo.programs.pythonpackages.pr.\lSPDataSet.SPDataSet.fastD">
<polygon fill="white" stroke="black" points="408.5,-140 408.5,-170 575.5,-170 575.5,-140 408.5,-140"/>
<text text-anchor="start" x="416.5" y="-158" font-family="Helvetica,sans-Serif" font-size="10.00">repo.programs.pythonpackages.pr.</text>
<text text-anchor="middle" x="492" y="-147" font-family="Helvetica,sans-Serif" font-size="10.00">SPDataSet.SPDataSet.fastD</text>
</a>
</g>
</g>
<!-- Node2&#45;&gt;Node3 -->
<g id="edge2" class="edge"><title>Node2&#45;&gt;Node3</title>
<path fill="none" stroke="midnightblue" d="M382.018,-155C390.815,-155 399.694,-155 408.385,-155"/>
<polygon fill="midnightblue" stroke="midnightblue" points="381.744,-151.5 371.744,-155 381.744,-158.5 381.744,-151.5"/>
</g>
<!-- Node4 -->
<g id="node4" class="node"><title>Node4</title>
<g id="a_node4"><a xlink:href="classrepo_1_1programs_1_1pythonpackages_1_1pr_1_1SPDataSet_1_1SPDataSet.html#a0e6950849790e5787695a807f45b0d51" target="_top" xlink:title="repo.programs.pythonpackages.pr.\lSPDataSet.SPDataSet.tRange">
<polygon fill="white" stroke="black" points="612.5,-189 612.5,-219 779.5,-219 779.5,-189 612.5,-189"/>
<text text-anchor="start" x="620.5" y="-207" font-family="Helvetica,sans-Serif" font-size="10.00">repo.programs.pythonpackages.pr.</text>
<text text-anchor="middle" x="696" y="-196" font-family="Helvetica,sans-Serif" font-size="10.00">SPDataSet.SPDataSet.tRange</text>
</a>
</g>
</g>
<!-- Node3&#45;&gt;Node4 -->
<g id="edge3" class="edge"><title>Node3&#45;&gt;Node4</title>
<path fill="none" stroke="midnightblue" d="M564.746,-172.404C587.092,-177.824 611.529,-183.752 633.138,-188.994"/>
<polygon fill="midnightblue" stroke="midnightblue" points="565.523,-168.991 554.979,-170.035 563.872,-175.793 565.523,-168.991"/>
</g>
<!-- Node5 -->
<g id="node5" class="node"><title>Node5</title>
<g id="a_node5"><a xlink:href="classrepo_1_1programs_1_1pythonpackages_1_1pr_1_1SPDataSet_1_1SPDataSet.html#a14656e508d81193e8c71c09d9444e15f" target="_top" xlink:title="repo.programs.pythonpackages.pr.\lSPDataSet.SPDataSet.trigTimes">
<polygon fill="white" stroke="black" points="829.5,-17 829.5,-47 996.5,-47 996.5,-17 829.5,-17"/>
<text text-anchor="start" x="837.5" y="-35" font-family="Helvetica,sans-Serif" font-size="10.00">repo.programs.pythonpackages.pr.</text>
<text text-anchor="middle" x="913" y="-24" font-family="Helvetica,sans-Serif" font-size="10.00">SPDataSet.SPDataSet.trigTimes</text>
</a>
</g>
</g>
<!-- Node3&#45;&gt;Node5 -->
<g id="edge4" class="edge"><title>Node3&#45;&gt;Node5</title>
<path fill="none" stroke="midnightblue" d="M554.16,-137.046C637.036,-112.717 783.512,-69.7183 860.858,-47.013"/>
<polygon fill="midnightblue" stroke="midnightblue" points="552.987,-133.743 544.378,-139.918 554.959,-140.459 552.987,-133.743"/>
</g>
<!-- Node19 -->
<g id="node19" class="node"><title>Node19</title>
<g id="a_node19"><a xlink:href="classrepo_1_1programs_1_1pythonpackages_1_1pr_1_1SPDataSet_1_1SPDataSet.html#afe54eeb9f41f503dc478557e4ea2c62a" target="_top" xlink:title="repo.programs.pythonpackages.pr.\lSPDataSet.SPDataSet.rawData">
<polygon fill="white" stroke="black" points="612.5,-140 612.5,-170 779.5,-170 779.5,-140 612.5,-140"/>
<text text-anchor="start" x="620.5" y="-158" font-family="Helvetica,sans-Serif" font-size="10.00">repo.programs.pythonpackages.pr.</text>
<text text-anchor="middle" x="696" y="-147" font-family="Helvetica,sans-Serif" font-size="10.00">SPDataSet.SPDataSet.rawData</text>
</a>
</g>
</g>
<!-- Node3&#45;&gt;Node19 -->
<g id="edge28" class="edge"><title>Node3&#45;&gt;Node19</title>
<path fill="none" stroke="midnightblue" d="M586.018,-155C594.815,-155 603.694,-155 612.385,-155"/>
<polygon fill="midnightblue" stroke="midnightblue" points="585.744,-151.5 575.744,-155 585.744,-158.5 585.744,-151.5"/>
</g>
<!-- Node6 -->
<g id="node6" class="node"><title>Node6</title>
<g id="a_node6"><a xlink:href="classrepo_1_1programs_1_1pythonpackages_1_1pr_1_1SPDataSet_1_1SPDataSet.html#a5b12a3d9fdb93ccbf79a6b7a7893be3f" target="_top" xlink:title="repo.programs.pythonpackages.pr.\lSPDataSet.SPDataSet.cutAmp">
<polygon fill="white" stroke="black" points="1056.5,-192 1056.5,-222 1223.5,-222 1223.5,-192 1056.5,-192"/>
<text text-anchor="start" x="1064.5" y="-210" font-family="Helvetica,sans-Serif" font-size="10.00">repo.programs.pythonpackages.pr.</text>
<text text-anchor="middle" x="1140" y="-199" font-family="Helvetica,sans-Serif" font-size="10.00">SPDataSet.SPDataSet.cutAmp</text>
</a>
</g>
</g>
<!-- Node5&#45;&gt;Node6 -->
<g id="edge5" class="edge"><title>Node5&#45;&gt;Node6</title>
<path fill="none" stroke="midnightblue" d="M928.6,-56.0792C950.104,-89.4631 993.478,-149.373 1046,-182 1052.25,-185.882 1059.1,-189.168 1066.15,-191.948"/>
<polygon fill="midnightblue" stroke="midnightblue" points="931.424,-53.9971 923.125,-47.4113 925.506,-57.7352 931.424,-53.9971"/>
</g>
<!-- Node15 -->
<g id="node15" class="node"><title>Node15</title>
<g id="a_node15"><a xlink:href="classrepo_1_1programs_1_1pythonpackages_1_1pr_1_1SPDataSet_1_1SPDataSet.html#a5ad35e931371981e41221502928547d5" target="_top" xlink:title="Check that the calculated apparatus directions fit with the available data. ">
<polygon fill="white" stroke="black" points="1924,-60 1924,-90 2116,-90 2116,-60 1924,-60"/>
<text text-anchor="start" x="1932" y="-78" font-family="Helvetica,sans-Serif" font-size="10.00">repo.programs.pythonpackages.pr.</text>
<text text-anchor="middle" x="2020" y="-67" font-family="Helvetica,sans-Serif" font-size="10.00">SPDataSet.SPDataSet.checkDirections</text>
</a>
</g>
</g>
<!-- Node5&#45;&gt;Node15 -->
<g id="edge27" class="edge"><title>Node5&#45;&gt;Node15</title>
<path fill="none" stroke="midnightblue" d="M1006.84,-21.2929C1095.6,-11.9913 1233.25,-1.42109e-14 1353,-0 1353,-0 1353,-0 1569,-0 1713.35,-0 1880.24,-38.0116 1964.42,-59.9129"/>
<polygon fill="midnightblue" stroke="midnightblue" points="1006.38,-17.8224 996.804,-22.3555 1007.12,-24.7835 1006.38,-17.8224"/>
</g>
<!-- Node18 -->
<g id="node18" class="node"><title>Node18</title>
<g id="a_node18"><a xlink:href="classrepo_1_1programs_1_1pythonpackages_1_1pr_1_1SPDataSet_1_1SPDataSet.html#a5343a59b34ffebfc31c1dfd06ddfa889" target="_top" xlink:title="repo.programs.pythonpackages.pr.\lSPDataSet.SPDataSet.viewRaw">
<polygon fill="white" stroke="black" points="1270.5,-104 1270.5,-134 1437.5,-134 1437.5,-104 1270.5,-104"/>
<text text-anchor="start" x="1278.5" y="-122" font-family="Helvetica,sans-Serif" font-size="10.00">repo.programs.pythonpackages.pr.</text>
<text text-anchor="middle" x="1354" y="-111" font-family="Helvetica,sans-Serif" font-size="10.00">SPDataSet.SPDataSet.viewRaw</text>
</a>
</g>
</g>
<!-- Node5&#45;&gt;Node18 -->
<g id="edge26" class="edge"><title>Node5&#45;&gt;Node18</title>
<path fill="none" stroke="midnightblue" d="M1000.1,-49.0624C1080.75,-65.0456 1200.11,-88.7003 1277.23,-103.984"/>
<polygon fill="midnightblue" stroke="midnightblue" points="1000.46,-45.5657 989.967,-47.0549 999.096,-52.4322 1000.46,-45.5657"/>
</g>
<!-- Node6&#45;&gt;Node6 -->
<g id="edge6" class="edge"><title>Node6&#45;&gt;Node6</title>
<path fill="none" stroke="midnightblue" d="M1102.54,-232.598C1107.66,-236.97 1120.15,-240 1140,-240 1173.44,-240 1185.98,-231.406 1177.62,-222.275"/>
<polygon fill="midnightblue" stroke="midnightblue" points="1106.04,-232.22 1102.38,-222.275 1099.04,-232.328 1106.04,-232.22"/>
</g>
<!-- Node7 -->
<g id="node7" class="node"><title>Node7</title>
<g id="a_node7"><a xlink:href="classrepo_1_1programs_1_1pythonpackages_1_1pr_1_1SPDataSet_1_1SPDataSet.html#a9eac955cac12a62b72d189aa80b82ec6" target="_top" xlink:title="repo.programs.pythonpackages.pr.\lSPDataSet.SPDataSet.filteredCutAmp">
<polygon fill="white" stroke="black" points="1474.5,-192 1474.5,-222 1661.5,-222 1661.5,-192 1474.5,-192"/>
<text text-anchor="start" x="1482.5" y="-210" font-family="Helvetica,sans-Serif" font-size="10.00">repo.programs.pythonpackages.pr.</text>
<text text-anchor="middle" x="1568" y="-199" font-family="Helvetica,sans-Serif" font-size="10.00">SPDataSet.SPDataSet.filteredCutAmp</text>
</a>
</g>
</g>
<!-- Node6&#45;&gt;Node7 -->
<g id="edge7" class="edge"><title>Node6&#45;&gt;Node7</title>
<path fill="none" stroke="midnightblue" d="M1233.95,-207C1305.19,-207 1403.03,-207 1474.23,-207"/>
<polygon fill="midnightblue" stroke="midnightblue" points="1233.64,-203.5 1223.64,-207 1233.64,-210.5 1233.64,-203.5"/>
</g>
<!-- Node16 -->
<g id="node16" class="node"><title>Node16</title>
<g id="a_node16"><a xlink:href="classrepo_1_1programs_1_1pythonpackages_1_1pr_1_1SPDataSet_1_1SPDataSet.html#a6f2c3de2aa708d686f5835f10e2d096d" target="_top" xlink:title="repo.programs.pythonpackages.pr.\lSPDataSet.SPDataSet.pointAmp">
<polygon fill="white" stroke="black" points="1270.5,-274 1270.5,-304 1437.5,-304 1437.5,-274 1270.5,-274"/>
<text text-anchor="start" x="1278.5" y="-292" font-family="Helvetica,sans-Serif" font-size="10.00">repo.programs.pythonpackages.pr.</text>
<text text-anchor="middle" x="1354" y="-281" font-family="Helvetica,sans-Serif" font-size="10.00">SPDataSet.SPDataSet.pointAmp</text>
</a>
</g>
</g>
<!-- Node6&#45;&gt;Node16 -->
<g id="edge19" class="edge"><title>Node6&#45;&gt;Node16</title>
<path fill="none" stroke="midnightblue" d="M1189.64,-225.815C1227.37,-240.407 1278.96,-260.364 1314,-273.917"/>
<polygon fill="midnightblue" stroke="midnightblue" points="1190.47,-222.383 1179.88,-222.04 1187.95,-228.912 1190.47,-222.383"/>
</g>
<!-- Node6&#45;&gt;Node18 -->
<g id="edge25" class="edge"><title>Node6&#45;&gt;Node18</title>
<path fill="none" stroke="midnightblue" d="M1214.45,-188.918C1221.13,-186.777 1227.73,-184.467 1234,-182 1267.94,-168.651 1304.7,-148.177 1328.25,-134.218"/>
<polygon fill="midnightblue" stroke="midnightblue" points="1213.18,-185.647 1204.65,-191.933 1215.24,-192.338 1213.18,-185.647"/>
</g>
<!-- Node8 -->
<g id="node8" class="node"><title>Node8</title>
<g id="a_node8"><a xlink:href="classrepo_1_1programs_1_1pythonpackages_1_1pr_1_1SPDataSet_1_1SPDataSet.html#accbfa0185d4e416038e688fc9b55575b" target="_top" xlink:title="repo.programs.pythonpackages.pr.\lSPDataSet.SPDataSet.sequenceAmp">
<polygon fill="white" stroke="black" points="1698,-192 1698,-222 1882,-222 1882,-192 1698,-192"/>
<text text-anchor="start" x="1706" y="-210" font-family="Helvetica,sans-Serif" font-size="10.00">repo.programs.pythonpackages.pr.</text>
<text text-anchor="middle" x="1790" y="-199" font-family="Helvetica,sans-Serif" font-size="10.00">SPDataSet.SPDataSet.sequenceAmp</text>
</a>
</g>
</g>
<!-- Node7&#45;&gt;Node8 -->
<g id="edge8" class="edge"><title>Node7&#45;&gt;Node8</title>
<path fill="none" stroke="midnightblue" d="M1671.82,-207C1680.51,-207 1689.26,-207 1697.85,-207"/>
<polygon fill="midnightblue" stroke="midnightblue" points="1671.66,-203.5 1661.66,-207 1671.66,-210.5 1671.66,-203.5"/>
</g>
<!-- Node8&#45;&gt;Node8 -->
<g id="edge9" class="edge"><title>Node8&#45;&gt;Node8</title>
<path fill="none" stroke="midnightblue" d="M1751.14,-232.598C1756.45,-236.97 1769.4,-240 1790,-240 1824.69,-240 1837.7,-231.406 1829.02,-222.275"/>
<polygon fill="midnightblue" stroke="midnightblue" points="1754.64,-232.218 1750.98,-222.275 1747.64,-232.33 1754.64,-232.218"/>
</g>
<!-- Node9 -->
<g id="node9" class="node"><title>Node9</title>
<g id="a_node9"><a xlink:href="classrepo_1_1programs_1_1pythonpackages_1_1pr_1_1SPDataSet_1_1SPDataSet.html#ac0df54b82a9e993d707f0dafd87a19dd" target="_top" xlink:title="repo.programs.pythonpackages.pr.\lSPDataSet.SPDataSet.labAmp">
<polygon fill="white" stroke="black" points="1936.5,-176 1936.5,-206 2103.5,-206 2103.5,-176 1936.5,-176"/>
<text text-anchor="start" x="1944.5" y="-194" font-family="Helvetica,sans-Serif" font-size="10.00">repo.programs.pythonpackages.pr.</text>
<text text-anchor="middle" x="2020" y="-183" font-family="Helvetica,sans-Serif" font-size="10.00">SPDataSet.SPDataSet.labAmp</text>
</a>
</g>
</g>
<!-- Node8&#45;&gt;Node9 -->
<g id="edge10" class="edge"><title>Node8&#45;&gt;Node9</title>
<path fill="none" stroke="midnightblue" d="M1892.21,-199.897C1906.91,-198.866 1921.89,-197.814 1936.17,-196.812"/>
<polygon fill="midnightblue" stroke="midnightblue" points="1891.83,-196.416 1882.09,-200.607 1892.32,-203.399 1891.83,-196.416"/>
</g>
<!-- Node10 -->
<g id="node10" class="node"><title>Node10</title>
<g id="a_node10"><a xlink:href="classrepo_1_1programs_1_1pythonpackages_1_1pr_1_1SPDataSet_1_1SPDataSet.html#a3624263a6738178d243635889b719a90" target="_top" xlink:title="repo.programs.pythonpackages.pr.\lSPDataSet.SPDataSet.viewSid">
<polygon fill="white" stroke="black" points="2163.5,-176 2163.5,-206 2330.5,-206 2330.5,-176 2163.5,-176"/>
<text text-anchor="start" x="2171.5" y="-194" font-family="Helvetica,sans-Serif" font-size="10.00">repo.programs.pythonpackages.pr.</text>
<text text-anchor="middle" x="2247" y="-183" font-family="Helvetica,sans-Serif" font-size="10.00">SPDataSet.SPDataSet.viewSid</text>
</a>
</g>
</g>
<!-- Node8&#45;&gt;Node10 -->
<g id="edge16" class="edge"><title>Node8&#45;&gt;Node10</title>
<path fill="none" stroke="midnightblue" d="M1837.77,-188.505C1861.41,-180.131 1890.79,-171.184 1918,-167 2007.61,-153.221 2031.75,-158.346 2122,-167 2141.21,-168.842 2161.86,-172.253 2180.7,-175.938"/>
<polygon fill="midnightblue" stroke="midnightblue" points="1836.56,-185.223 1828.35,-191.92 1838.94,-191.804 1836.56,-185.223"/>
</g>
<!-- Node11 -->
<g id="node11" class="node"><title>Node11</title>
<g id="a_node11"><a xlink:href="classrepo_1_1programs_1_1pythonpackages_1_1pr_1_1SPDataSet_1_1SPDataSet.html#acf495c99c803a2a1e23cdaeae34da985" target="_top" xlink:title="repo.programs.pythonpackages.pr.\lSPDataSet.SPDataSet.sidAmp">
<polygon fill="white" stroke="black" points="1936.5,-225 1936.5,-255 2103.5,-255 2103.5,-225 1936.5,-225"/>
<text text-anchor="start" x="1944.5" y="-243" font-family="Helvetica,sans-Serif" font-size="10.00">repo.programs.pythonpackages.pr.</text>
<text text-anchor="middle" x="2020" y="-232" font-family="Helvetica,sans-Serif" font-size="10.00">SPDataSet.SPDataSet.sidAmp</text>
</a>
</g>
</g>
<!-- Node8&#45;&gt;Node11 -->
<g id="edge12" class="edge"><title>Node8&#45;&gt;Node11</title>
<path fill="none" stroke="midnightblue" d="M1892.21,-221.649C1906.91,-223.776 1921.89,-225.945 1936.17,-228.012"/>
<polygon fill="midnightblue" stroke="midnightblue" points="1892.49,-218.153 1882.09,-220.185 1891.49,-225.081 1892.49,-218.153"/>
</g>
<!-- Node12 -->
<g id="node12" class="node"><title>Node12</title>
<g id="a_node12"><a xlink:href="classrepo_1_1programs_1_1pythonpackages_1_1pr_1_1SPDataSet_1_1SPDataSet.html#ac55c6ccc03634d3f670f52e89188779c" target="_top" xlink:title="repo.programs.pythonpackages.pr.\lSPDataSet.SPDataSet.viewSeq">
<polygon fill="white" stroke="black" points="1936.5,-274 1936.5,-304 2103.5,-304 2103.5,-274 1936.5,-274"/>
<text text-anchor="start" x="1944.5" y="-292" font-family="Helvetica,sans-Serif" font-size="10.00">repo.programs.pythonpackages.pr.</text>
<text text-anchor="middle" x="2020" y="-281" font-family="Helvetica,sans-Serif" font-size="10.00">SPDataSet.SPDataSet.viewSeq</text>
</a>
</g>
</g>
<!-- Node8&#45;&gt;Node12 -->
<g id="edge14" class="edge"><title>Node8&#45;&gt;Node12</title>
<path fill="none" stroke="midnightblue" d="M1829.49,-226.448C1854.3,-238.439 1887.51,-253.48 1918,-264 1928.59,-267.653 1939.97,-271.003 1951.14,-273.983"/>
<polygon fill="midnightblue" stroke="midnightblue" points="1830.93,-223.26 1820.41,-222.018 1827.86,-229.55 1830.93,-223.26"/>
</g>
<!-- Node14 -->
<g id="node14" class="node"><title>Node14</title>
<g id="a_node14"><a xlink:href="classrepo_1_1programs_1_1pythonpackages_1_1pr_1_1SPDataSet_1_1SPDataSet.html#a5aad808c592bfdbb665105df2947610f" target="_top" xlink:title="repo.programs.pythonpackages.pr.\lSPDataSet.SPDataSet.viewCorrelationFilt">
<polygon fill="white" stroke="black" points="1918.5,-342 1918.5,-372 2121.5,-372 2121.5,-342 1918.5,-342"/>
<text text-anchor="start" x="1926.5" y="-360" font-family="Helvetica,sans-Serif" font-size="10.00">repo.programs.pythonpackages.pr.</text>
<text text-anchor="middle" x="2020" y="-349" font-family="Helvetica,sans-Serif" font-size="10.00">SPDataSet.SPDataSet.viewCorrelationFilt</text>
</a>
</g>
</g>
<!-- Node8&#45;&gt;Node14 -->
<g id="edge17" class="edge"><title>Node8&#45;&gt;Node14</title>
<path fill="none" stroke="midnightblue" d="M1813.59,-229.312C1837.86,-252.413 1878.31,-288.492 1918,-313 1936.55,-324.456 1958.61,-334.434 1977.37,-341.979"/>
<polygon fill="midnightblue" stroke="midnightblue" points="1815.94,-226.71 1806.3,-222.299 1811.08,-231.754 1815.94,-226.71"/>
</g>
<!-- Node8&#45;&gt;Node15 -->
<g id="edge18" class="edge"><title>Node8&#45;&gt;Node15</title>
<path fill="none" stroke="midnightblue" d="M1825.67,-186.717C1851.19,-171.814 1886.72,-151.094 1918,-133 1943.2,-118.42 1972.01,-101.891 1992.39,-90.219"/>
<polygon fill="midnightblue" stroke="midnightblue" points="1823.62,-183.862 1816.76,-191.929 1827.16,-189.905 1823.62,-183.862"/>
</g>
<!-- Node9&#45;&gt;Node10 -->
<g id="edge11" class="edge"><title>Node9&#45;&gt;Node10</title>
<path fill="none" stroke="midnightblue" d="M2113.63,-191C2130.03,-191 2147.02,-191 2163.13,-191"/>
<polygon fill="midnightblue" stroke="midnightblue" points="2113.5,-187.5 2103.5,-191 2113.5,-194.5 2113.5,-187.5"/>
</g>
<!-- Node11&#45;&gt;Node10 -->
<g id="edge13" class="edge"><title>Node11&#45;&gt;Node10</title>
<path fill="none" stroke="midnightblue" d="M2099.91,-222.815C2125.07,-217.335 2152.7,-211.318 2177.09,-206.006"/>
<polygon fill="midnightblue" stroke="midnightblue" points="2099.06,-219.418 2090.04,-224.965 2100.55,-226.257 2099.06,-219.418"/>
</g>
<!-- Node13 -->
<g id="node13" class="node"><title>Node13</title>
<g id="a_node13"><a xlink:href="classrepo_1_1programs_1_1pythonpackages_1_1pr_1_1SPDataSet_1_1SPDataSet.html#a0c87af10688edd55eb0aea229e5979bb" target="_top" xlink:title="repo.programs.pythonpackages.pr.\lSPDataSet.SPDataSet.viewSensors">
<polygon fill="white" stroke="black" points="2158,-274 2158,-304 2336,-304 2336,-274 2158,-274"/>
<text text-anchor="start" x="2166" y="-292" font-family="Helvetica,sans-Serif" font-size="10.00">repo.programs.pythonpackages.pr.</text>
<text text-anchor="middle" x="2247" y="-281" font-family="Helvetica,sans-Serif" font-size="10.00">SPDataSet.SPDataSet.viewSensors</text>
</a>
</g>
</g>
<!-- Node12&#45;&gt;Node13 -->
<g id="edge15" class="edge"><title>Node12&#45;&gt;Node13</title>
<path fill="none" stroke="midnightblue" d="M2113.55,-289C2128.19,-289 2143.29,-289 2157.83,-289"/>
<polygon fill="midnightblue" stroke="midnightblue" points="2113.5,-285.5 2103.5,-289 2113.5,-292.5 2113.5,-285.5"/>
</g>
<!-- Node16&#45;&gt;Node7 -->
<g id="edge20" class="edge"><title>Node16&#45;&gt;Node7</title>
<path fill="none" stroke="midnightblue" d="M1396.3,-269.741C1419,-259.461 1447.8,-246.921 1474,-237 1487.8,-231.773 1502.97,-226.634 1516.97,-222.126"/>
<polygon fill="midnightblue" stroke="midnightblue" points="1394.61,-266.662 1386.97,-273.994 1397.52,-273.032 1394.61,-266.662"/>
</g>
<!-- Node16&#45;&gt;Node8 -->
<g id="edge21" class="edge"><title>Node16&#45;&gt;Node8</title>
<path fill="none" stroke="midnightblue" d="M1444.9,-272.015C1522.91,-257.276 1634.76,-236.143 1709.54,-222.014"/>
<polygon fill="midnightblue" stroke="midnightblue" points="1443.78,-268.664 1434.6,-273.96 1445.08,-275.542 1443.78,-268.664"/>
</g>
<!-- Node16&#45;&gt;Node12 -->
<g id="edge22" class="edge"><title>Node16&#45;&gt;Node12</title>
<path fill="none" stroke="midnightblue" d="M1448.08,-289C1578.09,-289 1812.03,-289 1936.25,-289"/>
<polygon fill="midnightblue" stroke="midnightblue" points="1447.75,-285.5 1437.75,-289 1447.75,-292.5 1447.75,-285.5"/>
</g>
<!-- Node16&#45;&gt;Node14 -->
<g id="edge23" class="edge"><title>Node16&#45;&gt;Node14</title>
<path fill="none" stroke="midnightblue" d="M1382.46,-310.243C1405.47,-326.622 1439.94,-347.956 1474,-357 1625.58,-397.253 1809.34,-385.382 1920.07,-372.008"/>
<polygon fill="midnightblue" stroke="midnightblue" points="1384.37,-307.303 1374.22,-304.244 1380.24,-312.961 1384.37,-307.303"/>
</g>
<!-- Node17 -->
<g id="node17" class="node"><title>Node17</title>
<g id="a_node17"><a xlink:href="classrepo_1_1programs_1_1pythonpackages_1_1pr_1_1SPDataSet_1_1SPDataSet.html#a2ffa7a6de1e0ebd8172db800621eed20" target="_top" xlink:title="repo.programs.pythonpackages.pr.\lSPDataSet.SPDataSet.test_div">
<polygon fill="white" stroke="black" points="1484.5,-318 1484.5,-348 1651.5,-348 1651.5,-318 1484.5,-318"/>
<text text-anchor="start" x="1492.5" y="-336" font-family="Helvetica,sans-Serif" font-size="10.00">repo.programs.pythonpackages.pr.</text>
<text text-anchor="middle" x="1568" y="-325" font-family="Helvetica,sans-Serif" font-size="10.00">SPDataSet.SPDataSet.test_div</text>
</a>
</g>
</g>
<!-- Node16&#45;&gt;Node17 -->
<g id="edge24" class="edge"><title>Node16&#45;&gt;Node17</title>
<path fill="none" stroke="midnightblue" d="M1437.16,-306.052C1456.1,-309.983 1476.11,-314.136 1494.6,-317.974"/>
<polygon fill="midnightblue" stroke="midnightblue" points="1437.87,-302.625 1427.37,-304.019 1436.45,-309.478 1437.87,-302.625"/>
</g>
<!-- Node19&#45;&gt;Node5 -->
<g id="edge29" class="edge"><title>Node19&#45;&gt;Node5</title>
<path fill="none" stroke="midnightblue" d="M722.876,-132.985C751.627,-108.853 796.557,-72.1994 816,-62 827.211,-56.119 839.771,-51.1629 852.018,-47.0795"/>
<polygon fill="midnightblue" stroke="midnightblue" points="720.266,-130.607 714.875,-139.728 724.777,-135.96 720.266,-130.607"/>
</g>
<!-- Node19&#45;&gt;Node6 -->
<g id="edge33" class="edge"><title>Node19&#45;&gt;Node6</title>
<path fill="none" stroke="midnightblue" d="M789.617,-166.778C798.532,-167.881 807.438,-168.97 816,-170 897.677,-179.825 991.049,-190.456 1056.32,-197.791"/>
<polygon fill="midnightblue" stroke="midnightblue" points="789.921,-163.289 779.566,-165.53 789.059,-170.236 789.921,-163.289"/>
</g>
<!-- Node19&#45;&gt;Node15 -->
<g id="edge38" class="edge"><title>Node19&#45;&gt;Node15</title>
<path fill="none" stroke="midnightblue" d="M777.984,-138.116C790.67,-135.827 803.663,-133.69 816,-132 1225.39,-75.927 1719.62,-72.459 1923.73,-73.7929"/>
<polygon fill="midnightblue" stroke="midnightblue" points="777.094,-134.721 767.895,-139.977 778.364,-141.605 777.094,-134.721"/>
</g>
<!-- Node19&#45;&gt;Node16 -->
<g id="edge36" class="edge"><title>Node19&#45;&gt;Node16</title>
<path fill="none" stroke="midnightblue" d="M773.909,-175.244C776.036,-176.719 778.074,-178.302 780,-180 809.551,-206.053 784.782,-236.97 816,-261 960.069,-371.901 1195.72,-330.272 1300.23,-304.004"/>
<polygon fill="midnightblue" stroke="midnightblue" points="775.69,-172.231 765.318,-170.07 772.079,-178.227 775.69,-172.231"/>
</g>
<!-- Node19&#45;&gt;Node18 -->
<g id="edge37" class="edge"><title>Node19&#45;&gt;Node18</title>
<path fill="none" stroke="midnightblue" d="M790,-149.118C860.301,-144.741 959.202,-138.732 1046,-134 1121.93,-129.861 1208.45,-125.682 1270.25,-122.79"/>
<polygon fill="midnightblue" stroke="midnightblue" points="789.603,-145.636 779.84,-149.752 790.039,-152.622 789.603,-145.636"/>
</g>
<!-- Node20 -->
<g id="node20" class="node"><title>Node20</title>
<g id="a_node20"><a xlink:href="classrepo_1_1programs_1_1pythonpackages_1_1pr_1_1SPDataSet_1_1SPDataSet.html#aa0b687b3c937bfb4aa71c4a09cac5eb5" target="_top" xlink:title="Names should be of the form &quot;med:Total Position Sensor 1&quot; etc. ">
<polygon fill="white" stroke="black" points="816,-222 816,-252 1010,-252 1010,-222 816,-222"/>
<text text-anchor="start" x="824" y="-240" font-family="Helvetica,sans-Serif" font-size="10.00">repo.programs.pythonpackages.pr.</text>
<text text-anchor="middle" x="913" y="-229" font-family="Helvetica,sans-Serif" font-size="10.00">SPDataSet.SPDataSet.getRawByName</text>
</a>
</g>
</g>
<!-- Node19&#45;&gt;Node20 -->
<g id="edge30" class="edge"><title>Node19&#45;&gt;Node20</title>
<path fill="none" stroke="midnightblue" d="M787.234,-175.405C798.538,-183.216 801.397,-190.523 816,-198 836.05,-208.265 860.27,-215.803 879.366,-221.907"/>
<polygon fill="midnightblue" stroke="midnightblue" points="788.772,-172.249 778.378,-170.192 785.221,-178.281 788.772,-172.249"/>
</g>
<!-- Node22 -->
<g id="node22" class="node"><title>Node22</title>
<g id="a_node22"><a xlink:href="classrepo_1_1programs_1_1pythonpackages_1_1pr_1_1SPDataSet_1_1SPDataSet.html#a2b09966d9ad35b39ea13988a7c361df6" target="_top" xlink:title="Assume it&#39;s a continuously rotating sample. ">
<polygon fill="white" stroke="black" points="1046,-143 1046,-173 1234,-173 1234,-143 1046,-143"/>
<text text-anchor="start" x="1054" y="-161" font-family="Helvetica,sans-Serif" font-size="10.00">repo.programs.pythonpackages.pr.</text>
<text text-anchor="middle" x="1140" y="-150" font-family="Helvetica,sans-Serif" font-size="10.00">SPDataSet.SPDataSet.seqAmpFitSplit</text>
</a>
</g>
</g>
<!-- Node19&#45;&gt;Node22 -->
<g id="edge34" class="edge"><title>Node19&#45;&gt;Node22</title>
<path fill="none" stroke="midnightblue" d="M790.017,-155.631C865.173,-156.141 970.461,-156.856 1045.69,-157.367"/>
<polygon fill="midnightblue" stroke="midnightblue" points="789.642,-152.129 779.618,-155.561 789.594,-159.129 789.642,-152.129"/>
</g>
<!-- Node20&#45;&gt;Node19 -->
<g id="edge32" class="edge"><title>Node20&#45;&gt;Node19</title>
<path fill="none" stroke="midnightblue" d="M819.448,-217.719C818.287,-217.155 817.137,-216.582 816,-216 798.198,-206.885 797.849,-198.023 780,-189 764.152,-180.989 745.279,-175.051 729.537,-170.097"/>
<polygon fill="midnightblue" stroke="midnightblue" points="818.004,-220.907 828.555,-221.866 820.905,-214.537 818.004,-220.907"/>
</g>
<!-- Node21 -->
<g id="node21" class="node"><title>Node21</title>
<g id="a_node21"><a xlink:href="classrepo_1_1programs_1_1pythonpackages_1_1pr_1_1SPDataSet_1_1SPDataSet.html#a3a649b10dc80a63cbbb7ed141f90519f" target="_top" xlink:title="repo.programs.pythonpackages.pr.\lSPDataSet.SPDataSet.getSensorData">
<polygon fill="white" stroke="black" points="1046.5,-259 1046.5,-289 1233.5,-289 1233.5,-259 1046.5,-259"/>
<text text-anchor="start" x="1054.5" y="-277" font-family="Helvetica,sans-Serif" font-size="10.00">repo.programs.pythonpackages.pr.</text>
<text text-anchor="middle" x="1140" y="-266" font-family="Helvetica,sans-Serif" font-size="10.00">SPDataSet.SPDataSet.getSensorData</text>
</a>
</g>
</g>
<!-- Node20&#45;&gt;Node21 -->
<g id="edge31" class="edge"><title>Node20&#45;&gt;Node21</title>
<path fill="none" stroke="midnightblue" d="M1015.66,-253.717C1026.29,-255.466 1037.06,-257.236 1047.56,-258.964"/>
<polygon fill="midnightblue" stroke="midnightblue" points="1015.95,-250.218 1005.52,-252.049 1014.82,-257.126 1015.95,-250.218"/>
</g>
<!-- Node22&#45;&gt;Node8 -->
<g id="edge35" class="edge"><title>Node22&#45;&gt;Node8</title>
<path fill="none" stroke="midnightblue" d="M1244.34,-158.74C1349.71,-160.482 1517.74,-165.991 1662,-183 1680.61,-185.194 1700.59,-188.51 1719.07,-191.983"/>
<polygon fill="midnightblue" stroke="midnightblue" points="1244.08,-155.235 1234.02,-158.578 1243.97,-162.234 1244.08,-155.235"/>
</g>
</g>
</svg>
        <g id="navigator" transform="translate(0 0)" fill="#404254">
                <rect fill="#f2f5e9" fill-opacity="0.5" stroke="#606060" stroke-width=".5" x="0" y="0" width="60" height="60"/>
                <use id="zoomplus" xlink:href="#zoomPlus" x="17" y="9" onmousedown="handleZoom(evt,'in')"/>
                <use id="zoomminus" xlink:href="#zoomMin" x="42" y="9" onmousedown="handleZoom(evt,'out')"/>
                <use id="reset" xlink:href="#resetDef" x="30" y="36" onmousedown="handleReset()"/>
                <g id="arrowUp" xlink:href="#dirArrow" transform="translate(30 24)" onmousedown="handlePan(0,-1)">
                  <use xlink:href="#rim" fill="#404040">
                        <set attributeName="fill" to="#808080" begin="arrowUp.mouseover" end="arrowUp.mouseout"/>
                  </use>
                  <path fill="none" stroke="white" stroke-width="1.5" d="M0,-3.0v7 M-2.5,-0.5L0,-3.0L2.5,-0.5"/>
                </g>
                <g id="arrowRight" xlink:href="#dirArrow" transform="rotate(90) translate(36 -43)" onmousedown="handlePan(1,0)">
                  <use xlink:href="#rim" fill="#404040">
                        <set attributeName="fill" to="#808080" begin="arrowRight.mouseover" end="arrowRight.mouseout"/>
                  </use>
                  <path fill="none" stroke="white" stroke-width="1.5" d="M0,-3.0v7 M-2.5,-0.5L0,-3.0L2.5,-0.5"/>
                </g>
                <g id="arrowDown" xlink:href="#dirArrow" transform="rotate(180) translate(-30 -48)" onmousedown="handlePan(0,1)">
                  <use xlink:href="#rim" fill="#404040">
                        <set attributeName="fill" to="#808080" begin="arrowDown.mouseover" end="arrowDown.mouseout"/>
                  </use>
                  <path fill="none" stroke="white" stroke-width="1.5" d="M0,-3.0v7 M-2.5,-0.5L0,-3.0L2.5,-0.5"/>
                </g>
                <g id="arrowLeft" xlink:href="#dirArrow" transform="rotate(270) translate(-36 17)" onmousedown="handlePan(-1,0)">
                  <use xlink:href="#rim" fill="#404040">
                        <set attributeName="fill" to="#808080" begin="arrowLeft.mouseover" end="arrowLeft.mouseout"/>
                  </use>
                  <path fill="none" stroke="white" stroke-width="1.5" d="M0,-3.0v7 M-2.5,-0.5L0,-3.0L2.5,-0.5"/>
                </g>
        </g>
        <svg viewBox="0 0 15 15" width="100%" height="30px" preserveAspectRatio="xMaxYMin meet">
         <g id="arrow_out" transform="scale(0.3 0.3)">
          <a xlink:href="classrepo_1_1programs_1_1pythonpackages_1_1pr_1_1SPDataSet_1_1SPDataSet_a6e8c2848a25079fc869ab950445213b8_icgraph_org.svg" target="_base">
           <rect id="button" ry="5" rx="5" y="6" x="6" height="38" width="38"
                fill="#f2f5e9" fill-opacity="0.5" stroke="#606060" stroke-width="1.0"/>
           <path id="arrow"
             d="M 11.500037,31.436501 C 11.940474,20.09759 22.043105,11.32322 32.158766,21.979434 L 37.068811,17.246167 C 37.068811,17.246167 37.088388,32 37.088388,32 L 22.160133,31.978069 C 22.160133,31.978069 26.997745,27.140456 26.997745,27.140456 C 18.528582,18.264221 13.291696,25.230495 11.500037,31.436501 z"
             style="fill:#404040;"/>
          </a>
         </g>
        </svg>
</svg>
