<?xml version="1.0" encoding="UTF-8" standalone="no"?>
<!DOCTYPE svg PUBLIC "-//W3C//DTD SVG 1.1//EN"
 "http://www.w3.org/Graphics/SVG/1.1/DTD/svg11.dtd">
<!-- Generated by graphviz version 2.36.0 (20140111.2315)
 -->
<!-- Title: repo.programs.pythonpackages.pr.SPDataSet.SPDataSet.cutAmp Pages: 1 -->
<svg width="1278pt" height="273pt"
 viewBox="0.00 0.00 1278.00 273.00" xmlns="http://www.w3.org/2000/svg" xmlns:xlink="http://www.w3.org/1999/xlink">
<g id="graph0" class="graph" transform="scale(1 1) rotate(0) translate(4 269)">
<title>repo.programs.pythonpackages.pr.SPDataSet.SPDataSet.cutAmp</title>
<polygon fill="white" stroke="none" points="-4,4 -4,-269 1274,-269 1274,4 -4,4"/>
<!-- Node1 -->
<g id="node1" class="node"><title>Node1</title>
<polygon fill="#bfbfbf" stroke="black" points="0.5,-141 0.5,-171 167.5,-171 167.5,-141 0.5,-141"/>
<text text-anchor="start" x="8.5" y="-159" font-family="Helvetica,sans-Serif" font-size="10.00">repo.programs.pythonpackages.pr.</text>
<text text-anchor="middle" x="84" y="-148" font-family="Helvetica,sans-Serif" font-size="10.00">SPDataSet.SPDataSet.cutAmp</text>
</g>
<!-- Node1&#45;&gt;Node1 -->
<g id="edge1" class="edge"><title>Node1&#45;&gt;Node1</title>
<path fill="none" stroke="midnightblue" d="M48.2924,-181.598C53.1717,-185.97 65.0742,-189 84,-189 115.875,-189 127.828,-180.406 119.859,-171.275"/>
<polygon fill="midnightblue" stroke="midnightblue" points="51.7873,-181.223 48.1406,-171.275 44.7881,-181.326 51.7873,-181.223"/>
</g>
<!-- Node2 -->
<g id="node2" class="node"><title>Node2</title>
<g id="a_node2"><a xlink:href="classrepo_1_1programs_1_1pythonpackages_1_1pr_1_1SPDataSet_1_1SPDataSet.html#a9eac955cac12a62b72d189aa80b82ec6" target="_top" xlink:title="repo.programs.pythonpackages.pr.\lSPDataSet.SPDataSet.filteredCutAmp">
<polygon fill="white" stroke="black" points="408.5,-222 408.5,-252 595.5,-252 595.5,-222 408.5,-222"/>
<text text-anchor="start" x="416.5" y="-240" font-family="Helvetica,sans-Serif" font-size="10.00">repo.programs.pythonpackages.pr.</text>
<text text-anchor="middle" x="502" y="-229" font-family="Helvetica,sans-Serif" font-size="10.00">SPDataSet.SPDataSet.filteredCutAmp</text>
</a>
</g>
</g>
<!-- Node1&#45;&gt;Node2 -->
<g id="edge2" class="edge"><title>Node1&#45;&gt;Node2</title>
<path fill="none" stroke="midnightblue" d="M168.797,-173.003C180.613,-175.371 192.61,-177.759 204,-180 277.667,-194.497 361.706,-210.584 421.544,-221.961"/>
<polygon fill="midnightblue" stroke="midnightblue" points="169.425,-169.559 158.932,-171.023 168.047,-176.422 169.425,-169.559"/>
</g>
<!-- Node11 -->
<g id="node11" class="node"><title>Node11</title>
<g id="a_node11"><a xlink:href="classrepo_1_1programs_1_1pythonpackages_1_1pr_1_1SPDataSet_1_1SPDataSet.html#a6f2c3de2aa708d686f5835f10e2d096d" target="_top" xlink:title="repo.programs.pythonpackages.pr.\lSPDataSet.SPDataSet.pointAmp">
<polygon fill="white" stroke="black" points="204.5,-141 204.5,-171 371.5,-171 371.5,-141 204.5,-141"/>
<text text-anchor="start" x="212.5" y="-159" font-family="Helvetica,sans-Serif" font-size="10.00">repo.programs.pythonpackages.pr.</text>
<text text-anchor="middle" x="288" y="-148" font-family="Helvetica,sans-Serif" font-size="10.00">SPDataSet.SPDataSet.pointAmp</text>
</a>
</g>
</g>
<!-- Node1&#45;&gt;Node11 -->
<g id="edge14" class="edge"><title>Node1&#45;&gt;Node11</title>
<path fill="none" stroke="midnightblue" d="M178.018,-156C186.815,-156 195.694,-156 204.385,-156"/>
<polygon fill="midnightblue" stroke="midnightblue" points="177.744,-152.5 167.744,-156 177.744,-159.5 177.744,-152.5"/>
</g>
<!-- Node13 -->
<g id="node13" class="node"><title>Node13</title>
<g id="a_node13"><a xlink:href="classrepo_1_1programs_1_1pythonpackages_1_1pr_1_1SPDataSet_1_1SPDataSet.html#a5343a59b34ffebfc31c1dfd06ddfa889" target="_top" xlink:title="repo.programs.pythonpackages.pr.\lSPDataSet.SPDataSet.viewRaw">
<polygon fill="white" stroke="black" points="204.5,-92 204.5,-122 371.5,-122 371.5,-92 204.5,-92"/>
<text text-anchor="start" x="212.5" y="-110" font-family="Helvetica,sans-Serif" font-size="10.00">repo.programs.pythonpackages.pr.</text>
<text text-anchor="middle" x="288" y="-99" font-family="Helvetica,sans-Serif" font-size="10.00">SPDataSet.SPDataSet.viewRaw</text>
</a>
</g>
</g>
<!-- Node1&#45;&gt;Node13 -->
<g id="edge20" class="edge"><title>Node1&#45;&gt;Node13</title>
<path fill="none" stroke="midnightblue" d="M156.746,-138.596C179.092,-133.176 203.529,-127.248 225.138,-122.006"/>
<polygon fill="midnightblue" stroke="midnightblue" points="155.872,-135.207 146.979,-140.965 157.523,-142.009 155.872,-135.207"/>
</g>
<!-- Node3 -->
<g id="node3" class="node"><title>Node3</title>
<g id="a_node3"><a xlink:href="classrepo_1_1programs_1_1pythonpackages_1_1pr_1_1SPDataSet_1_1SPDataSet.html#accbfa0185d4e416038e688fc9b55575b" target="_top" xlink:title="repo.programs.pythonpackages.pr.\lSPDataSet.SPDataSet.sequenceAmp">
<polygon fill="white" stroke="black" points="632,-122 632,-152 816,-152 816,-122 632,-122"/>
<text text-anchor="start" x="640" y="-140" font-family="Helvetica,sans-Serif" font-size="10.00">repo.programs.pythonpackages.pr.</text>
<text text-anchor="middle" x="724" y="-129" font-family="Helvetica,sans-Serif" font-size="10.00">SPDataSet.SPDataSet.sequenceAmp</text>
</a>
</g>
</g>
<!-- Node2&#45;&gt;Node3 -->
<g id="edge3" class="edge"><title>Node2&#45;&gt;Node3</title>
<path fill="none" stroke="midnightblue" d="M545.596,-217.638C587.786,-198.461 651.504,-169.498 689.993,-152.003"/>
<polygon fill="midnightblue" stroke="midnightblue" points="544.069,-214.488 536.413,-221.812 546.965,-220.86 544.069,-214.488"/>
</g>
<!-- Node3&#45;&gt;Node3 -->
<g id="edge4" class="edge"><title>Node3&#45;&gt;Node3</title>
<path fill="none" stroke="midnightblue" d="M685.142,-162.598C690.452,-166.97 703.404,-170 724,-170 758.688,-170 771.695,-161.406 763.023,-152.275"/>
<polygon fill="midnightblue" stroke="midnightblue" points="688.636,-162.218 684.977,-152.275 681.637,-162.33 688.636,-162.218"/>
</g>
<!-- Node4 -->
<g id="node4" class="node"><title>Node4</title>
<g id="a_node4"><a xlink:href="classrepo_1_1programs_1_1pythonpackages_1_1pr_1_1SPDataSet_1_1SPDataSet.html#ac0df54b82a9e993d707f0dafd87a19dd" target="_top" xlink:title="repo.programs.pythonpackages.pr.\lSPDataSet.SPDataSet.labAmp">
<polygon fill="white" stroke="black" points="870.5,-147 870.5,-177 1037.5,-177 1037.5,-147 870.5,-147"/>
<text text-anchor="start" x="878.5" y="-165" font-family="Helvetica,sans-Serif" font-size="10.00">repo.programs.pythonpackages.pr.</text>
<text text-anchor="middle" x="954" y="-154" font-family="Helvetica,sans-Serif" font-size="10.00">SPDataSet.SPDataSet.labAmp</text>
</a>
</g>
</g>
<!-- Node3&#45;&gt;Node4 -->
<g id="edge5" class="edge"><title>Node3&#45;&gt;Node4</title>
<path fill="none" stroke="midnightblue" d="M826.212,-148.098C840.91,-149.709 855.895,-151.352 870.173,-152.918"/>
<polygon fill="midnightblue" stroke="midnightblue" points="826.417,-144.599 816.095,-146.988 825.653,-151.558 826.417,-144.599"/>
</g>
<!-- Node5 -->
<g id="node5" class="node"><title>Node5</title>
<g id="a_node5"><a xlink:href="classrepo_1_1programs_1_1pythonpackages_1_1pr_1_1SPDataSet_1_1SPDataSet.html#a3624263a6738178d243635889b719a90" target="_top" xlink:title="repo.programs.pythonpackages.pr.\lSPDataSet.SPDataSet.viewSid">
<polygon fill="white" stroke="black" points="1097.5,-147 1097.5,-177 1264.5,-177 1264.5,-147 1097.5,-147"/>
<text text-anchor="start" x="1105.5" y="-165" font-family="Helvetica,sans-Serif" font-size="10.00">repo.programs.pythonpackages.pr.</text>
<text text-anchor="middle" x="1181" y="-154" font-family="Helvetica,sans-Serif" font-size="10.00">SPDataSet.SPDataSet.viewSid</text>
</a>
</g>
</g>
<!-- Node3&#45;&gt;Node5 -->
<g id="edge11" class="edge"><title>Node3&#45;&gt;Node5</title>
<path fill="none" stroke="midnightblue" d="M763.949,-156.337C788.535,-167.444 821.336,-180.29 852,-186 941.134,-202.599 965.747,-194.654 1056,-186 1075.21,-184.158 1095.86,-180.747 1114.7,-177.062"/>
<polygon fill="midnightblue" stroke="midnightblue" points="765.163,-153.043 754.617,-152.027 762.228,-159.397 765.163,-153.043"/>
</g>
<!-- Node6 -->
<g id="node6" class="node"><title>Node6</title>
<g id="a_node6"><a xlink:href="classrepo_1_1programs_1_1pythonpackages_1_1pr_1_1SPDataSet_1_1SPDataSet.html#acf495c99c803a2a1e23cdaeae34da985" target="_top" xlink:title="repo.programs.pythonpackages.pr.\lSPDataSet.SPDataSet.sidAmp">
<polygon fill="white" stroke="black" points="870.5,-98 870.5,-128 1037.5,-128 1037.5,-98 870.5,-98"/>
<text text-anchor="start" x="878.5" y="-116" font-family="Helvetica,sans-Serif" font-size="10.00">repo.programs.pythonpackages.pr.</text>
<text text-anchor="middle" x="954" y="-105" font-family="Helvetica,sans-Serif" font-size="10.00">SPDataSet.SPDataSet.sidAmp</text>
</a>
</g>
</g>
<!-- Node3&#45;&gt;Node6 -->
<g id="edge7" class="edge"><title>Node3&#45;&gt;Node6</title>
<path fill="none" stroke="midnightblue" d="M826.212,-126.346C840.91,-124.799 855.895,-123.222 870.173,-121.719"/>
<polygon fill="midnightblue" stroke="midnightblue" points="825.673,-122.883 816.095,-127.411 826.406,-129.845 825.673,-122.883"/>
</g>
<!-- Node7 -->
<g id="node7" class="node"><title>Node7</title>
<g id="a_node7"><a xlink:href="classrepo_1_1programs_1_1pythonpackages_1_1pr_1_1SPDataSet_1_1SPDataSet.html#ac55c6ccc03634d3f670f52e89188779c" target="_top" xlink:title="repo.programs.pythonpackages.pr.\lSPDataSet.SPDataSet.viewSeq">
<polygon fill="white" stroke="black" points="870.5,-235 870.5,-265 1037.5,-265 1037.5,-235 870.5,-235"/>
<text text-anchor="start" x="878.5" y="-253" font-family="Helvetica,sans-Serif" font-size="10.00">repo.programs.pythonpackages.pr.</text>
<text text-anchor="middle" x="954" y="-242" font-family="Helvetica,sans-Serif" font-size="10.00">SPDataSet.SPDataSet.viewSeq</text>
</a>
</g>
</g>
<!-- Node3&#45;&gt;Node7 -->
<g id="edge9" class="edge"><title>Node3&#45;&gt;Node7</title>
<path fill="none" stroke="midnightblue" d="M768.179,-156.589C783.826,-164.498 801.263,-174.292 816,-185 834.053,-198.117 832.746,-208.718 852,-220 862.337,-226.057 873.997,-230.979 885.625,-234.949"/>
<polygon fill="midnightblue" stroke="midnightblue" points="769.722,-153.448 759.206,-152.158 766.622,-159.724 769.722,-153.448"/>
</g>
<!-- Node9 -->
<g id="node9" class="node"><title>Node9</title>
<g id="a_node9"><a xlink:href="classrepo_1_1programs_1_1pythonpackages_1_1pr_1_1SPDataSet_1_1SPDataSet.html#a5aad808c592bfdbb665105df2947610f" target="_top" xlink:title="repo.programs.pythonpackages.pr.\lSPDataSet.SPDataSet.viewCorrelationFilt">
<polygon fill="white" stroke="black" points="852.5,-0 852.5,-30 1055.5,-30 1055.5,-0 852.5,-0"/>
<text text-anchor="start" x="860.5" y="-18" font-family="Helvetica,sans-Serif" font-size="10.00">repo.programs.pythonpackages.pr.</text>
<text text-anchor="middle" x="954" y="-7" font-family="Helvetica,sans-Serif" font-size="10.00">SPDataSet.SPDataSet.viewCorrelationFilt</text>
</a>
</g>
</g>
<!-- Node3&#45;&gt;Node9 -->
<g id="edge12" class="edge"><title>Node3&#45;&gt;Node9</title>
<path fill="none" stroke="midnightblue" d="M800.339,-117.515C805.937,-114.496 811.245,-111.014 816,-107 842.129,-84.9395 824.956,-59.9284 852,-39 856.419,-35.5806 861.248,-32.6375 866.324,-30.1053"/>
<polygon fill="midnightblue" stroke="midnightblue" points="798.805,-114.369 791.341,-121.888 801.865,-120.665 798.805,-114.369"/>
</g>
<!-- Node10 -->
<g id="node10" class="node"><title>Node10</title>
<g id="a_node10"><a xlink:href="classrepo_1_1programs_1_1pythonpackages_1_1pr_1_1SPDataSet_1_1SPDataSet.html#a5ad35e931371981e41221502928547d5" target="_top" xlink:title="Check that the calculated apparatus directions fit with the available data. ">
<polygon fill="white" stroke="black" points="858,-49 858,-79 1050,-79 1050,-49 858,-49"/>
<text text-anchor="start" x="866" y="-67" font-family="Helvetica,sans-Serif" font-size="10.00">repo.programs.pythonpackages.pr.</text>
<text text-anchor="middle" x="954" y="-56" font-family="Helvetica,sans-Serif" font-size="10.00">SPDataSet.SPDataSet.checkDirections</text>
</a>
</g>
</g>
<!-- Node3&#45;&gt;Node10 -->
<g id="edge13" class="edge"><title>Node3&#45;&gt;Node10</title>
<path fill="none" stroke="midnightblue" d="M784.647,-118.716C795.191,-115.093 805.991,-111.126 816,-107 832.538,-100.182 835.215,-95.1868 852,-89 862.085,-85.2828 872.938,-81.943 883.657,-79.006"/>
<polygon fill="midnightblue" stroke="midnightblue" points="783.429,-115.433 775.067,-121.94 785.661,-122.067 783.429,-115.433"/>
</g>
<!-- Node4&#45;&gt;Node5 -->
<g id="edge6" class="edge"><title>Node4&#45;&gt;Node5</title>
<path fill="none" stroke="midnightblue" d="M1047.63,-162C1064.03,-162 1081.02,-162 1097.13,-162"/>
<polygon fill="midnightblue" stroke="midnightblue" points="1047.5,-158.5 1037.5,-162 1047.5,-165.5 1047.5,-158.5"/>
</g>
<!-- Node6&#45;&gt;Node5 -->
<g id="edge8" class="edge"><title>Node6&#45;&gt;Node5</title>
<path fill="none" stroke="midnightblue" d="M1033.91,-130.185C1059.07,-135.665 1086.7,-141.682 1111.09,-146.994"/>
<polygon fill="midnightblue" stroke="midnightblue" points="1034.55,-126.743 1024.04,-128.035 1033.06,-133.582 1034.55,-126.743"/>
</g>
<!-- Node8 -->
<g id="node8" class="node"><title>Node8</title>
<g id="a_node8"><a xlink:href="classrepo_1_1programs_1_1pythonpackages_1_1pr_1_1SPDataSet_1_1SPDataSet.html#a0c87af10688edd55eb0aea229e5979bb" target="_top" xlink:title="repo.programs.pythonpackages.pr.\lSPDataSet.SPDataSet.viewSensors">
<polygon fill="white" stroke="black" points="1092,-235 1092,-265 1270,-265 1270,-235 1092,-235"/>
<text text-anchor="start" x="1100" y="-253" font-family="Helvetica,sans-Serif" font-size="10.00">repo.programs.pythonpackages.pr.</text>
<text text-anchor="middle" x="1181" y="-242" font-family="Helvetica,sans-Serif" font-size="10.00">SPDataSet.SPDataSet.viewSensors</text>
</a>
</g>
</g>
<!-- Node7&#45;&gt;Node8 -->
<g id="edge10" class="edge"><title>Node7&#45;&gt;Node8</title>
<path fill="none" stroke="midnightblue" d="M1047.55,-250C1062.19,-250 1077.29,-250 1091.83,-250"/>
<polygon fill="midnightblue" stroke="midnightblue" points="1047.5,-246.5 1037.5,-250 1047.5,-253.5 1047.5,-246.5"/>
</g>
<!-- Node11&#45;&gt;Node2 -->
<g id="edge15" class="edge"><title>Node11&#45;&gt;Node2</title>
<path fill="none" stroke="midnightblue" d="M331.055,-175.155C353.657,-185.161 382.124,-197.305 408,-207 421.98,-212.238 437.338,-217.42 451.475,-221.965"/>
<polygon fill="midnightblue" stroke="midnightblue" points="332.312,-171.883 321.753,-171.011 329.463,-178.277 332.312,-171.883"/>
</g>
<!-- Node11&#45;&gt;Node3 -->
<g id="edge16" class="edge"><title>Node11&#45;&gt;Node3</title>
<path fill="none" stroke="midnightblue" d="M381.867,-151.934C455.646,-148.704 558.272,-144.212 631.651,-140.999"/>
<polygon fill="midnightblue" stroke="midnightblue" points="381.491,-148.447 371.654,-152.382 381.797,-155.441 381.491,-148.447"/>
</g>
<!-- Node11&#45;&gt;Node7 -->
<g id="edge17" class="edge"><title>Node11&#45;&gt;Node7</title>
<path fill="none" stroke="midnightblue" d="M381.692,-169.122C511.623,-187.516 745.903,-220.682 870.249,-238.285"/>
<polygon fill="midnightblue" stroke="midnightblue" points="382.145,-165.651 371.754,-167.715 381.164,-172.582 382.145,-165.651"/>
</g>
<!-- Node11&#45;&gt;Node9 -->
<g id="edge18" class="edge"><title>Node11&#45;&gt;Node9</title>
<path fill="none" stroke="midnightblue" d="M369.727,-138.858C500.788,-111.027 757.698,-56.4723 882.121,-30.0511"/>
<polygon fill="midnightblue" stroke="midnightblue" points="368.8,-135.476 359.745,-140.977 370.254,-142.324 368.8,-135.476"/>
</g>
<!-- Node12 -->
<g id="node12" class="node"><title>Node12</title>
<g id="a_node12"><a xlink:href="classrepo_1_1programs_1_1pythonpackages_1_1pr_1_1SPDataSet_1_1SPDataSet.html#a2ffa7a6de1e0ebd8172db800621eed20" target="_top" xlink:title="repo.programs.pythonpackages.pr.\lSPDataSet.SPDataSet.test_div">
<polygon fill="white" stroke="black" points="418.5,-34 418.5,-64 585.5,-64 585.5,-34 418.5,-34"/>
<text text-anchor="start" x="426.5" y="-52" font-family="Helvetica,sans-Serif" font-size="10.00">repo.programs.pythonpackages.pr.</text>
<text text-anchor="middle" x="502" y="-41" font-family="Helvetica,sans-Serif" font-size="10.00">SPDataSet.SPDataSet.test_div</text>
</a>
</g>
</g>
<!-- Node11&#45;&gt;Node12 -->
<g id="edge19" class="edge"><title>Node11&#45;&gt;Node12</title>
<path fill="none" stroke="midnightblue" d="M363.556,-136.404C366.492,-134.745 369.323,-132.948 372,-131 394.731,-114.464 385.431,-95.7561 408,-79 416.173,-72.9322 425.623,-68.0607 435.303,-64.1581"/>
<polygon fill="midnightblue" stroke="midnightblue" points="361.83,-133.354 354.47,-140.976 364.977,-139.607 361.83,-133.354"/>
</g>
</g>
</svg>
