<?xml version="1.0" encoding="UTF-8" standalone="no"?>
<!DOCTYPE svg PUBLIC "-//W3C//DTD SVG 1.1//EN"
 "http://www.w3.org/Graphics/SVG/1.1/DTD/svg11.dtd">
<!-- Generated by graphviz version 2.36.0 (20140111.2315)
 -->
<!-- Title: repo.programs.pythonpackages.pr.SPDataSet.SPDataSet.sequenceAmp Pages: 1 -->
<svg width="646pt" height="273pt"
 viewBox="0.00 0.00 646.00 273.00" xmlns="http://www.w3.org/2000/svg" xmlns:xlink="http://www.w3.org/1999/xlink">
<g id="graph0" class="graph" transform="scale(1 1) rotate(0) translate(4 269)">
<title>repo.programs.pythonpackages.pr.SPDataSet.SPDataSet.sequenceAmp</title>
<polygon fill="white" stroke="none" points="-4,4 -4,-269 642,-269 642,4 -4,4"/>
<!-- Node1 -->
<g id="node1" class="node"><title>Node1</title>
<polygon fill="#bfbfbf" stroke="black" points="0,-122 0,-152 184,-152 184,-122 0,-122"/>
<text text-anchor="start" x="8" y="-140" font-family="Helvetica,sans-Serif" font-size="10.00">repo.programs.pythonpackages.pr.</text>
<text text-anchor="middle" x="92" y="-129" font-family="Helvetica,sans-Serif" font-size="10.00">SPDataSet.SPDataSet.sequenceAmp</text>
</g>
<!-- Node1&#45;&gt;Node1 -->
<g id="edge1" class="edge"><title>Node1&#45;&gt;Node1</title>
<path fill="none" stroke="midnightblue" d="M51.7414,-162.598C57.2426,-166.97 70.6621,-170 92,-170 127.938,-170 141.414,-161.406 132.43,-152.275"/>
<polygon fill="midnightblue" stroke="midnightblue" points="55.2357,-162.216 51.5703,-152.275 48.2366,-162.332 55.2357,-162.216"/>
</g>
<!-- Node2 -->
<g id="node2" class="node"><title>Node2</title>
<g id="a_node2"><a xlink:href="classrepo_1_1programs_1_1pythonpackages_1_1pr_1_1SPDataSet_1_1SPDataSet.html#ac0df54b82a9e993d707f0dafd87a19dd" target="_top" xlink:title="repo.programs.pythonpackages.pr.\lSPDataSet.SPDataSet.labAmp">
<polygon fill="white" stroke="black" points="238.5,-235 238.5,-265 405.5,-265 405.5,-235 238.5,-235"/>
<text text-anchor="start" x="246.5" y="-253" font-family="Helvetica,sans-Serif" font-size="10.00">repo.programs.pythonpackages.pr.</text>
<text text-anchor="middle" x="322" y="-242" font-family="Helvetica,sans-Serif" font-size="10.00">SPDataSet.SPDataSet.labAmp</text>
</a>
</g>
</g>
<!-- Node1&#45;&gt;Node2 -->
<g id="edge2" class="edge"><title>Node1&#45;&gt;Node2</title>
<path fill="none" stroke="midnightblue" d="M120.392,-158.283C145.229,-176.735 183.441,-203.065 220,-220 232.531,-225.805 246.456,-230.795 259.862,-234.946"/>
<polygon fill="midnightblue" stroke="midnightblue" points="122.284,-155.327 112.189,-152.113 118.077,-160.921 122.284,-155.327"/>
</g>
<!-- Node3 -->
<g id="node3" class="node"><title>Node3</title>
<g id="a_node3"><a xlink:href="classrepo_1_1programs_1_1pythonpackages_1_1pr_1_1SPDataSet_1_1SPDataSet.html#a3624263a6738178d243635889b719a90" target="_top" xlink:title="repo.programs.pythonpackages.pr.\lSPDataSet.SPDataSet.viewSid">
<polygon fill="white" stroke="black" points="465.5,-191 465.5,-221 632.5,-221 632.5,-191 465.5,-191"/>
<text text-anchor="start" x="473.5" y="-209" font-family="Helvetica,sans-Serif" font-size="10.00">repo.programs.pythonpackages.pr.</text>
<text text-anchor="middle" x="549" y="-198" font-family="Helvetica,sans-Serif" font-size="10.00">SPDataSet.SPDataSet.viewSid</text>
</a>
</g>
</g>
<!-- Node1&#45;&gt;Node3 -->
<g id="edge8" class="edge"><title>Node1&#45;&gt;Node3</title>
<path fill="none" stroke="midnightblue" d="M133.324,-156.228C157.813,-166.969 190.034,-179.47 220,-186 302.219,-203.917 398.581,-207.827 465.494,-207.923"/>
<polygon fill="midnightblue" stroke="midnightblue" points="134.562,-152.948 124.004,-152.062 131.705,-159.338 134.562,-152.948"/>
</g>
<!-- Node4 -->
<g id="node4" class="node"><title>Node4</title>
<g id="a_node4"><a xlink:href="classrepo_1_1programs_1_1pythonpackages_1_1pr_1_1SPDataSet_1_1SPDataSet.html#acf495c99c803a2a1e23cdaeae34da985" target="_top" xlink:title="repo.programs.pythonpackages.pr.\lSPDataSet.SPDataSet.sidAmp">
<polygon fill="white" stroke="black" points="238.5,-147 238.5,-177 405.5,-177 405.5,-147 238.5,-147"/>
<text text-anchor="start" x="246.5" y="-165" font-family="Helvetica,sans-Serif" font-size="10.00">repo.programs.pythonpackages.pr.</text>
<text text-anchor="middle" x="322" y="-154" font-family="Helvetica,sans-Serif" font-size="10.00">SPDataSet.SPDataSet.sidAmp</text>
</a>
</g>
</g>
<!-- Node1&#45;&gt;Node4 -->
<g id="edge4" class="edge"><title>Node1&#45;&gt;Node4</title>
<path fill="none" stroke="midnightblue" d="M194.212,-148.098C208.91,-149.709 223.895,-151.352 238.173,-152.918"/>
<polygon fill="midnightblue" stroke="midnightblue" points="194.417,-144.599 184.095,-146.988 193.653,-151.558 194.417,-144.599"/>
</g>
<!-- Node5 -->
<g id="node5" class="node"><title>Node5</title>
<g id="a_node5"><a xlink:href="classrepo_1_1programs_1_1pythonpackages_1_1pr_1_1SPDataSet_1_1SPDataSet.html#ac55c6ccc03634d3f670f52e89188779c" target="_top" xlink:title="repo.programs.pythonpackages.pr.\lSPDataSet.SPDataSet.viewSeq">
<polygon fill="white" stroke="black" points="238.5,-98 238.5,-128 405.5,-128 405.5,-98 238.5,-98"/>
<text text-anchor="start" x="246.5" y="-116" font-family="Helvetica,sans-Serif" font-size="10.00">repo.programs.pythonpackages.pr.</text>
<text text-anchor="middle" x="322" y="-105" font-family="Helvetica,sans-Serif" font-size="10.00">SPDataSet.SPDataSet.viewSeq</text>
</a>
</g>
</g>
<!-- Node1&#45;&gt;Node5 -->
<g id="edge6" class="edge"><title>Node1&#45;&gt;Node5</title>
<path fill="none" stroke="midnightblue" d="M194.212,-126.346C208.91,-124.799 223.895,-123.222 238.173,-121.719"/>
<polygon fill="midnightblue" stroke="midnightblue" points="193.673,-122.883 184.095,-127.411 194.406,-129.845 193.673,-122.883"/>
</g>
<!-- Node7 -->
<g id="node7" class="node"><title>Node7</title>
<g id="a_node7"><a xlink:href="classrepo_1_1programs_1_1pythonpackages_1_1pr_1_1SPDataSet_1_1SPDataSet.html#a5aad808c592bfdbb665105df2947610f" target="_top" xlink:title="repo.programs.pythonpackages.pr.\lSPDataSet.SPDataSet.viewCorrelationFilt">
<polygon fill="white" stroke="black" points="220.5,-49 220.5,-79 423.5,-79 423.5,-49 220.5,-49"/>
<text text-anchor="start" x="228.5" y="-67" font-family="Helvetica,sans-Serif" font-size="10.00">repo.programs.pythonpackages.pr.</text>
<text text-anchor="middle" x="322" y="-56" font-family="Helvetica,sans-Serif" font-size="10.00">SPDataSet.SPDataSet.viewCorrelationFilt</text>
</a>
</g>
</g>
<!-- Node1&#45;&gt;Node7 -->
<g id="edge9" class="edge"><title>Node1&#45;&gt;Node7</title>
<path fill="none" stroke="midnightblue" d="M138.815,-118.178C162.766,-108.724 192.705,-97.5033 220,-89 231.383,-85.454 243.609,-82.0747 255.488,-79.0118"/>
<polygon fill="midnightblue" stroke="midnightblue" points="137.276,-115.023 129.279,-121.973 139.865,-121.527 137.276,-115.023"/>
</g>
<!-- Node8 -->
<g id="node8" class="node"><title>Node8</title>
<g id="a_node8"><a xlink:href="classrepo_1_1programs_1_1pythonpackages_1_1pr_1_1SPDataSet_1_1SPDataSet.html#a5ad35e931371981e41221502928547d5" target="_top" xlink:title="Check that the calculated apparatus directions fit with the available data. ">
<polygon fill="white" stroke="black" points="226,-0 226,-30 418,-30 418,-0 226,-0"/>
<text text-anchor="start" x="234" y="-18" font-family="Helvetica,sans-Serif" font-size="10.00">repo.programs.pythonpackages.pr.</text>
<text text-anchor="middle" x="322" y="-7" font-family="Helvetica,sans-Serif" font-size="10.00">SPDataSet.SPDataSet.checkDirections</text>
</a>
</g>
</g>
<!-- Node1&#45;&gt;Node8 -->
<g id="edge10" class="edge"><title>Node1&#45;&gt;Node8</title>
<path fill="none" stroke="midnightblue" d="M115.931,-114.751C139.969,-92.6352 179.774,-59.305 220,-40 228.061,-36.1312 236.781,-32.8238 245.604,-30.0055"/>
<polygon fill="midnightblue" stroke="midnightblue" points="113.321,-112.399 108.405,-121.784 118.101,-117.513 113.321,-112.399"/>
</g>
<!-- Node2&#45;&gt;Node3 -->
<g id="edge3" class="edge"><title>Node2&#45;&gt;Node3</title>
<path fill="none" stroke="midnightblue" d="M409.644,-233.056C429.909,-229.093 451.357,-224.899 471.161,-221.026"/>
<polygon fill="midnightblue" stroke="midnightblue" points="408.945,-229.627 399.803,-234.981 410.289,-236.496 408.945,-229.627"/>
</g>
<!-- Node4&#45;&gt;Node3 -->
<g id="edge5" class="edge"><title>Node4&#45;&gt;Node3</title>
<path fill="none" stroke="midnightblue" d="M409.644,-178.944C429.909,-182.907 451.357,-187.101 471.161,-190.974"/>
<polygon fill="midnightblue" stroke="midnightblue" points="410.289,-175.504 399.803,-177.019 408.945,-182.373 410.289,-175.504"/>
</g>
<!-- Node6 -->
<g id="node6" class="node"><title>Node6</title>
<g id="a_node6"><a xlink:href="classrepo_1_1programs_1_1pythonpackages_1_1pr_1_1SPDataSet_1_1SPDataSet.html#a0c87af10688edd55eb0aea229e5979bb" target="_top" xlink:title="repo.programs.pythonpackages.pr.\lSPDataSet.SPDataSet.viewSensors">
<polygon fill="white" stroke="black" points="460,-98 460,-128 638,-128 638,-98 460,-98"/>
<text text-anchor="start" x="468" y="-116" font-family="Helvetica,sans-Serif" font-size="10.00">repo.programs.pythonpackages.pr.</text>
<text text-anchor="middle" x="549" y="-105" font-family="Helvetica,sans-Serif" font-size="10.00">SPDataSet.SPDataSet.viewSensors</text>
</a>
</g>
</g>
<!-- Node5&#45;&gt;Node6 -->
<g id="edge7" class="edge"><title>Node5&#45;&gt;Node6</title>
<path fill="none" stroke="midnightblue" d="M415.551,-113C430.19,-113 445.293,-113 459.828,-113"/>
<polygon fill="midnightblue" stroke="midnightblue" points="415.504,-109.5 405.504,-113 415.504,-116.5 415.504,-109.5"/>
</g>
</g>
</svg>
