<?xml version="1.0" encoding="UTF-8" standalone="no"?>
<!DOCTYPE svg PUBLIC "-//W3C//DTD SVG 1.1//EN"
 "http://www.w3.org/Graphics/SVG/1.1/DTD/svg11.dtd">
<!-- Generated by graphviz version 2.36.0 (20140111.2315)
 -->
<!-- Title: repo.programs.pythonpackages.pr.SPDataSet.SPDataSet.sequenceAmp Pages: 1 -->
<!--zoomable 608 -->
<svg id="main" version="1.1" xmlns="http://www.w3.org/2000/svg" xmlns:xlink="http://www.w3.org/1999/xlink" xml:space="preserve" onload="init(evt)">
<style type="text/css"><![CDATA[
.edge:hover path { stroke: red; }
.edge:hover polygon { stroke: red; fill: red; }
]]></style>
<script type="text/javascript"><![CDATA[
var edges = document.getElementsByTagName('g');
if (edges && edges.length) {
  for (var i=0;i<edges.length;i++) {
    if (edges[i].id.substr(0,4)=='edge') {
      edges[i].setAttribute('class','edge');
    }
  }
}
]]></script>
        <defs>
                <circle id="rim" cx="0" cy="0" r="7"/>
                <circle id="rim2" cx="0" cy="0" r="3.5"/>
                <g id="zoomPlus">
                        <use xlink:href="#rim" fill="#404040">
                                <set attributeName="fill" to="#808080" begin="zoomplus.mouseover" end="zoomplus.mouseout"/>
                        </use>
                        <path d="M-4,0h8M0,-4v8" fill="none" stroke="white" stroke-width="1.5" pointer-events="none"/>
                </g>
                <g id="zoomMin">
                        <use xlink:href="#rim" fill="#404040">
                                <set attributeName="fill" to="#808080" begin="zoomminus.mouseover" end="zoomminus.mouseout"/>
                        </use>
                        <path d="M-4,0h8" fill="none" stroke="white" stroke-width="1.5" pointer-events="none"/>
                </g>
                <g id="dirArrow">
                        <path fill="none" stroke="white" stroke-width="1.5" d="M0,-3.0v7 M-2.5,-0.5L0,-3.0L2.5,-0.5"/>
                </g>
               <g id="resetDef">
                       <use xlink:href="#rim2" fill="#404040">
                               <set attributeName="fill" to="#808080" begin="reset.mouseover" end="reset.mouseout"/>
                       </use>
               </g>
        </defs>

<script type="text/javascript">
var viewWidth = 1930;
var viewHeight = 608;
var sectionId = 'dynsection-36';
</script>
<script xlink:href="svgpan.js"/>
<svg id="graph" class="graph">
<g id="viewport">
<title>repo.programs.pythonpackages.pr.SPDataSet.SPDataSet.sequenceAmp</title>
<polygon fill="white" stroke="none" points="-4,4 -4,-603.849 1926,-603.849 1926,4 -4,4"/>
<!-- Node1 -->
<g id="node1" class="node"><title>Node1</title>
<polygon fill="#bfbfbf" stroke="black" points="0,-451.849 0,-481.849 184,-481.849 184,-451.849 0,-451.849"/>
<text text-anchor="start" x="8" y="-469.849" font-family="Helvetica,sans-Serif" font-size="10.00">repo.programs.pythonpackages.pr.</text>
<text text-anchor="middle" x="92" y="-458.849" font-family="Helvetica,sans-Serif" font-size="10.00">SPDataSet.SPDataSet.sequenceAmp</text>
</g>
<!-- Node1&#45;&gt;Node1 -->
<g id="edge46" class="edge"><title>Node1&#45;&gt;Node1</title>
<path fill="none" stroke="midnightblue" d="M52.9766,-482.124C44.3047,-491.255 57.3125,-499.849 92,-499.849 112.596,-499.849 125.548,-496.819 130.858,-492.446"/>
<polygon fill="midnightblue" stroke="midnightblue" points="134.363,-492.179 131.023,-482.124 127.364,-492.067 134.363,-492.179"/>
</g>
<!-- Node2 -->
<g id="node2" class="node"><title>Node2</title>
<g id="a_node2"><a xlink:href="classrepo_1_1programs_1_1pythonpackages_1_1pr_1_1SPDataSet_1_1SPDataSet.html#af17c964467367b46a56c14a8c87e84a2" target="_top" xlink:title="Property doc string!! ">
<polygon fill="white" stroke="black" points="1319.5,-384.849 1319.5,-414.849 1486.5,-414.849 1486.5,-384.849 1319.5,-384.849"/>
<text text-anchor="start" x="1327.5" y="-402.849" font-family="Helvetica,sans-Serif" font-size="10.00">repo.programs.pythonpackages.pr.</text>
<text text-anchor="middle" x="1403" y="-391.849" font-family="Helvetica,sans-Serif" font-size="10.00">SPDataSet.SPDataSet.set_info</text>
</a>
</g>
</g>
<!-- Node1&#45;&gt;Node2 -->
<g id="edge1" class="edge"><title>Node1&#45;&gt;Node2</title>
<path fill="none" stroke="midnightblue" d="M121.977,-481.976C191.532,-516.835 374.255,-599.849 537,-599.849 537,-599.849 537,-599.849 970,-599.849 1138.48,-599.849 1312.56,-473.036 1376.49,-421.368"/>
<polygon fill="midnightblue" stroke="midnightblue" points="1378.9,-423.92 1384.43,-414.881 1374.47,-418.5 1378.9,-423.92"/>
</g>
<!-- Node3 -->
<g id="node3" class="node"><title>Node3</title>
<g id="a_node3"><a xlink:href="classrepo_1_1programs_1_1pythonpackages_1_1pr_1_1SPDataSet_1_1SPDataSet.html#a2b09966d9ad35b39ea13988a7c361df6" target="_top" xlink:title="Assume it&#39;s a continuously rotating sample. ">
<polygon fill="white" stroke="black" points="444,-514.849 444,-544.849 632,-544.849 632,-514.849 444,-514.849"/>
<text text-anchor="start" x="452" y="-532.849" font-family="Helvetica,sans-Serif" font-size="10.00">repo.programs.pythonpackages.pr.</text>
<text text-anchor="middle" x="538" y="-521.849" font-family="Helvetica,sans-Serif" font-size="10.00">SPDataSet.SPDataSet.seqAmpFitSplit</text>
</a>
</g>
</g>
<!-- Node1&#45;&gt;Node3 -->
<g id="edge2" class="edge"><title>Node1&#45;&gt;Node3</title>
<path fill="none" stroke="midnightblue" d="M143.268,-481.888C166.441,-488.309 194.423,-495.345 220,-499.849 290.783,-512.312 371.431,-519.853 433.668,-524.258"/>
<polygon fill="midnightblue" stroke="midnightblue" points="433.669,-527.766 443.886,-524.965 434.152,-520.783 433.669,-527.766"/>
</g>
<!-- Node4 -->
<g id="node4" class="node"><title>Node4</title>
<g id="a_node4"><a xlink:href="namespacerepo_1_1programs_1_1pythonpackages_1_1pr_1_1SPDataSet.html#a9d0e07e3e1f4360be4f8c59927abe142" target="_top" xlink:title="Helpful for calling work_func(following_func(**remaining_args), **work_args)) work_args are the entri...">
<polygon fill="white" stroke="black" points="668.5,-426.849 668.5,-456.849 835.5,-456.849 835.5,-426.849 668.5,-426.849"/>
<text text-anchor="start" x="676.5" y="-444.849" font-family="Helvetica,sans-Serif" font-size="10.00">repo.programs.pythonpackages.pr.</text>
<text text-anchor="middle" x="752" y="-433.849" font-family="Helvetica,sans-Serif" font-size="10.00">SPDataSet.divide_args</text>
</a>
</g>
</g>
<!-- Node1&#45;&gt;Node4 -->
<g id="edge14" class="edge"><title>Node1&#45;&gt;Node4</title>
<path fill="none" stroke="midnightblue" d="M184.146,-463.386C309.194,-458.635 532.724,-450.142 658.485,-445.364"/>
<polygon fill="midnightblue" stroke="midnightblue" points="658.623,-448.861 668.483,-444.984 658.358,-441.866 658.623,-448.861"/>
</g>
<!-- Node13 -->
<g id="node13" class="node"><title>Node13</title>
<g id="a_node13"><a xlink:href="classrepo_1_1programs_1_1pythonpackages_1_1pr_1_1SPDataSet_1_1SPDataSet.html#a6f2c3de2aa708d686f5835f10e2d096d" target="_top" xlink:title="repo.programs.pythonpackages.pr.\lSPDataSet.SPDataSet.pointAmp">
<polygon fill="white" stroke="black" points="454.5,-312.849 454.5,-342.849 621.5,-342.849 621.5,-312.849 454.5,-312.849"/>
<text text-anchor="start" x="462.5" y="-330.849" font-family="Helvetica,sans-Serif" font-size="10.00">repo.programs.pythonpackages.pr.</text>
<text text-anchor="middle" x="538" y="-319.849" font-family="Helvetica,sans-Serif" font-size="10.00">SPDataSet.SPDataSet.pointAmp</text>
</a>
</g>
</g>
<!-- Node1&#45;&gt;Node13 -->
<g id="edge15" class="edge"><title>Node1&#45;&gt;Node13</title>
<path fill="none" stroke="midnightblue" d="M103.424,-451.598C122.77,-424.754 167.106,-369.741 220,-346.849 290.722,-316.24 378.715,-313.391 444.038,-317.114"/>
<polygon fill="midnightblue" stroke="midnightblue" points="444.12,-320.626 454.321,-317.764 444.562,-313.64 444.12,-320.626"/>
</g>
<!-- Node22 -->
<g id="node22" class="node"><title>Node22</title>
<g id="a_node22"><a xlink:href="classrepo_1_1programs_1_1pythonpackages_1_1pr_1_1SPDataSet_1_1SPDataSet.html#aee6249fe272c46f07d0f2f32f6c188d2" target="_top" xlink:title="repo.programs.pythonpackages.pr.\lSPDataSet.SPDataSet.apparatusAngles">
<polygon fill="white" stroke="black" points="872,-302.849 872,-332.849 1066,-332.849 1066,-302.849 872,-302.849"/>
<text text-anchor="start" x="880" y="-320.849" font-family="Helvetica,sans-Serif" font-size="10.00">repo.programs.pythonpackages.pr.</text>
<text text-anchor="middle" x="969" y="-309.849" font-family="Helvetica,sans-Serif" font-size="10.00">SPDataSet.SPDataSet.apparatusAngles</text>
</a>
</g>
</g>
<!-- Node1&#45;&gt;Node22 -->
<g id="edge45" class="edge"><title>Node1&#45;&gt;Node22</title>
<path fill="none" stroke="midnightblue" d="M184.109,-472.818C371.221,-484.209 785.535,-504.638 836,-465.849 880.292,-431.804 834.411,-383.778 870.748,-340.481"/>
<polygon fill="midnightblue" stroke="midnightblue" points="873.512,-342.655 877.913,-333.018 868.463,-337.807 873.512,-342.655"/>
</g>
<!-- Node25 -->
<g id="node25" class="node"><title>Node25</title>
<g id="a_node25"><a xlink:href="classrepo_1_1programs_1_1pythonpackages_1_1pr_1_1SPDataSet_1_1SPDataSet.html#a9eac955cac12a62b72d189aa80b82ec6" target="_top" xlink:title="repo.programs.pythonpackages.pr.\lSPDataSet.SPDataSet.filteredCutAmp">
<polygon fill="white" stroke="black" points="220.5,-356.849 220.5,-386.849 407.5,-386.849 407.5,-356.849 220.5,-356.849"/>
<text text-anchor="start" x="228.5" y="-374.849" font-family="Helvetica,sans-Serif" font-size="10.00">repo.programs.pythonpackages.pr.</text>
<text text-anchor="middle" x="314" y="-363.849" font-family="Helvetica,sans-Serif" font-size="10.00">SPDataSet.SPDataSet.filteredCutAmp</text>
</a>
</g>
</g>
<!-- Node1&#45;&gt;Node25 -->
<g id="edge40" class="edge"><title>Node1&#45;&gt;Node25</title>
<path fill="none" stroke="midnightblue" d="M127.86,-451.796C165.965,-435.341 227.114,-408.936 268.619,-391.013"/>
<polygon fill="midnightblue" stroke="midnightblue" points="270.147,-394.166 277.94,-386.988 267.372,-387.739 270.147,-394.166"/>
</g>
<!-- Node3&#45;&gt;Node2 -->
<g id="edge13" class="edge"><title>Node3&#45;&gt;Node2</title>
<path fill="none" stroke="midnightblue" d="M632.275,-535.222C690.939,-537.274 768.115,-537.545 836,-529.849 1024.57,-508.471 1241.84,-448.248 1343.65,-417.861"/>
<polygon fill="midnightblue" stroke="midnightblue" points="1344.86,-421.153 1353.43,-414.927 1342.85,-414.448 1344.86,-421.153"/>
</g>
<!-- Node3&#45;&gt;Node4 -->
<g id="edge3" class="edge"><title>Node3&#45;&gt;Node4</title>
<path fill="none" stroke="midnightblue" d="M575.444,-514.721C611.35,-499.816 666.321,-476.999 705.169,-460.873"/>
<polygon fill="midnightblue" stroke="midnightblue" points="706.783,-463.992 714.677,-456.926 704.1,-457.527 706.783,-463.992"/>
</g>
<!-- Node5 -->
<g id="node5" class="node"><title>Node5</title>
<g id="a_node5"><a xlink:href="classrepo_1_1programs_1_1pythonpackages_1_1pr_1_1SPDataSet_1_1SPDataSet.html#afe54eeb9f41f503dc478557e4ea2c62a" target="_top" xlink:title="repo.programs.pythonpackages.pr.\lSPDataSet.SPDataSet.rawData">
<polygon fill="white" stroke="black" points="1102.5,-204.849 1102.5,-234.849 1269.5,-234.849 1269.5,-204.849 1102.5,-204.849"/>
<text text-anchor="start" x="1110.5" y="-222.849" font-family="Helvetica,sans-Serif" font-size="10.00">repo.programs.pythonpackages.pr.</text>
<text text-anchor="middle" x="1186" y="-211.849" font-family="Helvetica,sans-Serif" font-size="10.00">SPDataSet.SPDataSet.rawData</text>
</a>
</g>
</g>
<!-- Node3&#45;&gt;Node5 -->
<g id="edge4" class="edge"><title>Node3&#45;&gt;Node5</title>
<path fill="none" stroke="midnightblue" d="M632.306,-532.192C692.186,-530.872 770.674,-523.79 836,-499.849 952.444,-457.172 989.917,-439.787 1066,-341.849 1094.47,-305.205 1068.05,-275.482 1102,-243.849 1103.13,-242.794 1104.31,-241.786 1105.52,-240.821"/>
<polygon fill="midnightblue" stroke="midnightblue" points="1107.7,-243.572 1114.03,-235.073 1103.78,-237.772 1107.7,-243.572"/>
</g>
<!-- Node6 -->
<g id="node6" class="node"><title>Node6</title>
<g id="a_node6"><a xlink:href="classrepo_1_1programs_1_1pythonpackages_1_1pr_1_1SPDataSet_1_1SPDataSet.html#aa400ad81219e782fe2e29e852b20bb28" target="_top" xlink:title="repo.programs.pythonpackages.pr.\lSPDataSet.SPDataSet.fastD">
<polygon fill="white" stroke="black" points="1319.5,-158.849 1319.5,-188.849 1486.5,-188.849 1486.5,-158.849 1319.5,-158.849"/>
<text text-anchor="start" x="1327.5" y="-176.849" font-family="Helvetica,sans-Serif" font-size="10.00">repo.programs.pythonpackages.pr.</text>
<text text-anchor="middle" x="1403" y="-165.849" font-family="Helvetica,sans-Serif" font-size="10.00">SPDataSet.SPDataSet.fastD</text>
</a>
</g>
</g>
<!-- Node5&#45;&gt;Node6 -->
<g id="edge5" class="edge"><title>Node5&#45;&gt;Node6</title>
<path fill="none" stroke="midnightblue" d="M1257.4,-204.787C1278.02,-200.376 1300.71,-195.521 1321.88,-190.991"/>
<polygon fill="midnightblue" stroke="midnightblue" points="1322.76,-194.381 1331.81,-188.866 1321.3,-187.536 1322.76,-194.381"/>
</g>
<!-- Node11 -->
<g id="node11" class="node"><title>Node11</title>
<g id="a_node11"><a xlink:href="classrepo_1_1programs_1_1pythonpackages_1_1pr_1_1SPDataSet_1_1SPDataSet.html#aa0b687b3c937bfb4aa71c4a09cac5eb5" target="_top" xlink:title="Names should be of the form &quot;med:Total Position Sensor 1&quot; etc. ">
<polygon fill="white" stroke="black" points="1306,-207.849 1306,-237.849 1500,-237.849 1500,-207.849 1306,-207.849"/>
<text text-anchor="start" x="1314" y="-225.849" font-family="Helvetica,sans-Serif" font-size="10.00">repo.programs.pythonpackages.pr.</text>
<text text-anchor="middle" x="1403" y="-214.849" font-family="Helvetica,sans-Serif" font-size="10.00">SPDataSet.SPDataSet.getRawByName</text>
</a>
</g>
</g>
<!-- Node5&#45;&gt;Node11 -->
<g id="edge10" class="edge"><title>Node5&#45;&gt;Node11</title>
<path fill="none" stroke="midnightblue" d="M1269.51,-214.415C1278.02,-214.419 1286.75,-214.486 1295.48,-214.613"/>
<polygon fill="midnightblue" stroke="midnightblue" points="1295.64,-218.116 1305.7,-214.788 1295.76,-211.117 1295.64,-218.116"/>
</g>
<!-- Node12 -->
<g id="node12" class="node"><title>Node12</title>
<g id="a_node12"><a xlink:href="classrepo_1_1programs_1_1pythonpackages_1_1pr_1_1SPDataSet_1_1SPDataSet.html#a33ced34e094ccfd1e3891b92478613e7" target="_top" xlink:title="repo.programs.pythonpackages.pr.\lSPDataSet.SPDataSet.clearRaw">
<polygon fill="white" stroke="black" points="1319.5,-256.849 1319.5,-286.849 1486.5,-286.849 1486.5,-256.849 1319.5,-256.849"/>
<text text-anchor="start" x="1327.5" y="-274.849" font-family="Helvetica,sans-Serif" font-size="10.00">repo.programs.pythonpackages.pr.</text>
<text text-anchor="middle" x="1403" y="-263.849" font-family="Helvetica,sans-Serif" font-size="10.00">SPDataSet.SPDataSet.clearRaw</text>
</a>
</g>
</g>
<!-- Node5&#45;&gt;Node12 -->
<g id="edge12" class="edge"><title>Node5&#45;&gt;Node12</title>
<path fill="none" stroke="midnightblue" d="M1249.19,-234.889C1274.48,-241.007 1303.87,-248.115 1330.08,-254.454"/>
<polygon fill="midnightblue" stroke="midnightblue" points="1329.41,-257.893 1339.95,-256.842 1331.06,-251.089 1329.41,-257.893"/>
</g>
<!-- Node7 -->
<g id="node7" class="node"><title>Node7</title>
<g id="a_node7"><a xlink:href="classrepo_1_1programs_1_1pythonpackages_1_1pr_1_1SPDataSet_1_1SPDataSet.html#a1e4c1d502ec5ff9a57bf9a330a318a54" target="_top" xlink:title="repo.programs.pythonpackages.pr.\lSPDataSet.SPDataSet.splitRecArray">
<polygon fill="white" stroke="black" points="1536.5,-65.8487 1536.5,-95.8487 1717.5,-95.8487 1717.5,-65.8487 1536.5,-65.8487"/>
<text text-anchor="start" x="1544.5" y="-83.8487" font-family="Helvetica,sans-Serif" font-size="10.00">repo.programs.pythonpackages.pr.</text>
<text text-anchor="middle" x="1627" y="-72.8487" font-family="Helvetica,sans-Serif" font-size="10.00">SPDataSet.SPDataSet.splitRecArray</text>
</a>
</g>
</g>
<!-- Node6&#45;&gt;Node7 -->
<g id="edge6" class="edge"><title>Node6&#45;&gt;Node7</title>
<path fill="none" stroke="midnightblue" d="M1470.25,-158.829C1480.35,-155.902 1490.54,-152.569 1500,-148.849 1533.17,-135.799 1568.71,-116.035 1593.56,-101.171"/>
<polygon fill="midnightblue" stroke="midnightblue" points="1595.47,-104.11 1602.21,-95.9385 1591.84,-98.1211 1595.47,-104.11"/>
</g>
<!-- Node8 -->
<g id="node8" class="node"><title>Node8</title>
<g id="a_node8"><a xlink:href="classrepo_1_1programs_1_1pythonpackages_1_1pr_1_1SPDataSet_1_1SPDataSet.html#af0f40f6c14b1ba1c8de9351a839eb511" target="_top" xlink:title="repo.programs.pythonpackages.pr.\lSPDataSet.SPDataSet.calArr">
<polygon fill="white" stroke="black" points="1543.5,-158.849 1543.5,-188.849 1710.5,-188.849 1710.5,-158.849 1543.5,-158.849"/>
<text text-anchor="start" x="1551.5" y="-176.849" font-family="Helvetica,sans-Serif" font-size="10.00">repo.programs.pythonpackages.pr.</text>
<text text-anchor="middle" x="1627" y="-165.849" font-family="Helvetica,sans-Serif" font-size="10.00">SPDataSet.SPDataSet.calArr</text>
</a>
</g>
</g>
<!-- Node6&#45;&gt;Node8 -->
<g id="edge7" class="edge"><title>Node6&#45;&gt;Node8</title>
<path fill="none" stroke="midnightblue" d="M1486.66,-173.849C1501.83,-173.849 1517.76,-173.849 1533.2,-173.849"/>
<polygon fill="midnightblue" stroke="midnightblue" points="1533.27,-177.349 1543.27,-173.849 1533.27,-170.349 1533.27,-177.349"/>
</g>
<!-- Node9 -->
<g id="node9" class="node"><title>Node9</title>
<g id="a_node9"><a xlink:href="classrepo_1_1programs_1_1pythonpackages_1_1pr_1_1SPDataSet_1_1SPDataSet.html#a6e8c2848a25079fc869ab950445213b8" target="_top" xlink:title="repo.programs.pythonpackages.pr.\lSPDataSet.SPDataSet.zeroingD">
<polygon fill="white" stroke="black" points="1754.5,-183.849 1754.5,-213.849 1921.5,-213.849 1921.5,-183.849 1754.5,-183.849"/>
<text text-anchor="start" x="1762.5" y="-201.849" font-family="Helvetica,sans-Serif" font-size="10.00">repo.programs.pythonpackages.pr.</text>
<text text-anchor="middle" x="1838" y="-190.849" font-family="Helvetica,sans-Serif" font-size="10.00">SPDataSet.SPDataSet.zeroingD</text>
</a>
</g>
</g>
<!-- Node8&#45;&gt;Node9 -->
<g id="edge8" class="edge"><title>Node8&#45;&gt;Node9</title>
<path fill="none" stroke="midnightblue" d="M1710.6,-183.729C1721.61,-185.046 1732.96,-186.403 1744.12,-187.739"/>
<polygon fill="midnightblue" stroke="midnightblue" points="1743.97,-191.245 1754.31,-188.958 1744.8,-184.295 1743.97,-191.245"/>
</g>
<!-- Node10 -->
<g id="node10" class="node"><title>Node10</title>
<g id="a_node10"><a xlink:href="classrepo_1_1programs_1_1pythonpackages_1_1pr_1_1SPDataSet_1_1SPDataSet.html#aa287beda17e46a3969a9321e5904eaed" target="_top" xlink:title="repo.programs.pythonpackages.pr.\lSPDataSet.SPDataSet.cBzCal">
<polygon fill="white" stroke="black" points="1754.5,-134.849 1754.5,-164.849 1921.5,-164.849 1921.5,-134.849 1754.5,-134.849"/>
<text text-anchor="start" x="1762.5" y="-152.849" font-family="Helvetica,sans-Serif" font-size="10.00">repo.programs.pythonpackages.pr.</text>
<text text-anchor="middle" x="1838" y="-141.849" font-family="Helvetica,sans-Serif" font-size="10.00">SPDataSet.SPDataSet.cBzCal</text>
</a>
</g>
</g>
<!-- Node8&#45;&gt;Node10 -->
<g id="edge9" class="edge"><title>Node8&#45;&gt;Node10</title>
<path fill="none" stroke="midnightblue" d="M1710.6,-164.363C1721.61,-163.099 1732.96,-161.796 1744.12,-160.514"/>
<polygon fill="midnightblue" stroke="midnightblue" points="1744.78,-163.962 1754.31,-159.344 1743.98,-157.008 1744.78,-163.962"/>
</g>
<!-- Node11&#45;&gt;Node5 -->
<g id="edge11" class="edge"><title>Node11&#45;&gt;Node5</title>
<path fill="none" stroke="midnightblue" d="M1305.7,-228.222C1297.02,-228.152 1288.24,-228.021 1279.59,-227.833"/>
<polygon fill="midnightblue" stroke="midnightblue" points="1279.59,-224.332 1269.51,-227.585 1279.42,-231.33 1279.59,-224.332"/>
</g>
<!-- Node13&#45;&gt;Node2 -->
<g id="edge16" class="edge"><title>Node13&#45;&gt;Node2</title>
<path fill="none" stroke="midnightblue" d="M621.555,-333.683C757.041,-343.419 1035.01,-364.068 1270,-385.849 1282.71,-387.027 1296.1,-388.35 1309.27,-389.701"/>
<polygon fill="midnightblue" stroke="midnightblue" points="1308.99,-393.19 1319.3,-390.738 1309.71,-386.227 1308.99,-393.19"/>
</g>
<!-- Node13&#45;&gt;Node4 -->
<g id="edge18" class="edge"><title>Node13&#45;&gt;Node4</title>
<path fill="none" stroke="midnightblue" d="M567.152,-342.987C604.954,-363.314 672.194,-399.472 714.035,-421.971"/>
<polygon fill="midnightblue" stroke="midnightblue" points="712.604,-425.176 723.069,-426.829 715.92,-419.011 712.604,-425.176"/>
</g>
<!-- Node13&#45;&gt;Node5 -->
<g id="edge17" class="edge"><title>Node13&#45;&gt;Node5</title>
<path fill="none" stroke="midnightblue" d="M621.801,-314.006C742.543,-293.82 966.233,-256.423 1092.32,-235.343"/>
<polygon fill="midnightblue" stroke="midnightblue" points="1093.06,-238.768 1102.35,-233.667 1091.91,-231.864 1093.06,-238.768"/>
</g>
<!-- Node14 -->
<g id="node14" class="node"><title>Node14</title>
<g id="a_node14"><a xlink:href="classrepo_1_1programs_1_1pythonpackages_1_1pr_1_1SPDataSet_1_1SPDataSet.html#a5b12a3d9fdb93ccbf79a6b7a7893be3f" target="_top" xlink:title="repo.programs.pythonpackages.pr.\lSPDataSet.SPDataSet.cutAmp">
<polygon fill="white" stroke="black" points="668.5,-199.849 668.5,-229.849 835.5,-229.849 835.5,-199.849 668.5,-199.849"/>
<text text-anchor="start" x="676.5" y="-217.849" font-family="Helvetica,sans-Serif" font-size="10.00">repo.programs.pythonpackages.pr.</text>
<text text-anchor="middle" x="752" y="-206.849" font-family="Helvetica,sans-Serif" font-size="10.00">SPDataSet.SPDataSet.cutAmp</text>
</a>
</g>
</g>
<!-- Node13&#45;&gt;Node14 -->
<g id="edge19" class="edge"><title>Node13&#45;&gt;Node14</title>
<path fill="none" stroke="midnightblue" d="M567.152,-312.843C604.849,-292.75 671.821,-257.052 713.687,-234.737"/>
<polygon fill="midnightblue" stroke="midnightblue" points="715.553,-237.709 722.732,-229.916 712.261,-231.531 715.553,-237.709"/>
</g>
<!-- Node13&#45;&gt;Node22 -->
<g id="edge39" class="edge"><title>Node13&#45;&gt;Node22</title>
<path fill="none" stroke="midnightblue" d="M621.716,-325.921C689.967,-324.33 787.282,-322.061 861.378,-320.334"/>
<polygon fill="midnightblue" stroke="midnightblue" points="861.758,-323.826 871.674,-320.094 861.595,-316.828 861.758,-323.826"/>
</g>
<!-- Node14&#45;&gt;Node5 -->
<g id="edge20" class="edge"><title>Node14&#45;&gt;Node5</title>
<path fill="none" stroke="midnightblue" d="M835.528,-215.804C908.888,-216.653 1016.03,-217.893 1092.32,-218.776"/>
<polygon fill="midnightblue" stroke="midnightblue" points="1092.36,-222.277 1102.4,-218.893 1092.44,-215.277 1092.36,-222.277"/>
</g>
<!-- Node14&#45;&gt;Node14 -->
<g id="edge34" class="edge"><title>Node14&#45;&gt;Node14</title>
<path fill="none" stroke="midnightblue" d="M714.383,-230.124C706.023,-239.255 718.562,-247.849 752,-247.849 771.854,-247.849 784.34,-244.819 789.458,-240.446"/>
<polygon fill="midnightblue" stroke="midnightblue" points="792.962,-240.177 789.617,-230.124 785.963,-240.069 792.962,-240.177"/>
</g>
<!-- Node15 -->
<g id="node15" class="node"><title>Node15</title>
<g id="a_node15"><a xlink:href="classrepo_1_1programs_1_1pythonpackages_1_1pr_1_1SPDataSet_1_1SPDataSet.html#a14656e508d81193e8c71c09d9444e15f" target="_top" xlink:title="repo.programs.pythonpackages.pr.\lSPDataSet.SPDataSet.trigTimes">
<polygon fill="white" stroke="black" points="885.5,-158.849 885.5,-188.849 1052.5,-188.849 1052.5,-158.849 885.5,-158.849"/>
<text text-anchor="start" x="893.5" y="-176.849" font-family="Helvetica,sans-Serif" font-size="10.00">repo.programs.pythonpackages.pr.</text>
<text text-anchor="middle" x="969" y="-165.849" font-family="Helvetica,sans-Serif" font-size="10.00">SPDataSet.SPDataSet.trigTimes</text>
</a>
</g>
</g>
<!-- Node14&#45;&gt;Node15 -->
<g id="edge21" class="edge"><title>Node14&#45;&gt;Node15</title>
<path fill="none" stroke="midnightblue" d="M831.837,-199.815C847.174,-196.89 863.35,-193.805 878.988,-190.823"/>
<polygon fill="midnightblue" stroke="midnightblue" points="880.005,-194.192 889.172,-188.881 878.694,-187.316 880.005,-194.192"/>
</g>
<!-- Node14&#45;&gt;Node22 -->
<g id="edge35" class="edge"><title>Node14&#45;&gt;Node22</title>
<path fill="none" stroke="midnightblue" d="M784.724,-230.047C822.544,-248.165 885.824,-278.481 927.239,-298.321"/>
<polygon fill="midnightblue" stroke="midnightblue" points="925.965,-301.592 936.496,-302.756 928.99,-295.279 925.965,-301.592"/>
</g>
<!-- Node15&#45;&gt;Node5 -->
<g id="edge23" class="edge"><title>Node15&#45;&gt;Node5</title>
<path fill="none" stroke="midnightblue" d="M1040.4,-188.911C1061.02,-193.322 1083.71,-198.177 1104.88,-202.707"/>
<polygon fill="midnightblue" stroke="midnightblue" points="1104.3,-206.162 1114.81,-204.831 1105.76,-199.317 1104.3,-206.162"/>
</g>
<!-- Node15&#45;&gt;Node6 -->
<g id="edge22" class="edge"><title>Node15&#45;&gt;Node6</title>
<path fill="none" stroke="midnightblue" d="M1052.53,-173.849C1125.89,-173.849 1233.03,-173.849 1309.32,-173.849"/>
<polygon fill="midnightblue" stroke="midnightblue" points="1309.4,-177.349 1319.4,-173.849 1309.4,-170.349 1309.4,-177.349"/>
</g>
<!-- Node16 -->
<g id="node16" class="node"><title>Node16</title>
<g id="a_node16"><a xlink:href="classrepo_1_1programs_1_1pythonpackages_1_1pr_1_1SPDataSet_1_1SPDataSet.html#a9eef53392c7e7ad757cefde737a6cb69" target="_top" xlink:title="repo.programs.pythonpackages.pr.\lSPDataSet.SPDataSet.medD">
<polygon fill="white" stroke="black" points="1102.5,-65.8487 1102.5,-95.8487 1269.5,-95.8487 1269.5,-65.8487 1102.5,-65.8487"/>
<text text-anchor="start" x="1110.5" y="-83.8487" font-family="Helvetica,sans-Serif" font-size="10.00">repo.programs.pythonpackages.pr.</text>
<text text-anchor="middle" x="1186" y="-72.8487" font-family="Helvetica,sans-Serif" font-size="10.00">SPDataSet.SPDataSet.medD</text>
</a>
</g>
</g>
<!-- Node15&#45;&gt;Node16 -->
<g id="edge24" class="edge"><title>Node15&#45;&gt;Node16</title>
<path fill="none" stroke="midnightblue" d="M995.079,-158.8C1021.11,-143.646 1063.36,-120.352 1102,-104.849 1107.05,-102.824 1112.33,-100.891 1117.68,-99.0654"/>
<polygon fill="midnightblue" stroke="midnightblue" points="1118.93,-102.338 1127.34,-95.8971 1116.75,-95.6865 1118.93,-102.338"/>
</g>
<!-- Node18 -->
<g id="node18" class="node"><title>Node18</title>
<g id="a_node18"><a xlink:href="classrepo_1_1programs_1_1pythonpackages_1_1pr_1_1SPDataSet_1_1SPDataSet.html#a6478ef339e0e44839e478fec7340c6b0" target="_top" xlink:title="repo.programs.pythonpackages.pr.\lSPDataSet.SPDataSet.relD">
<polygon fill="white" stroke="black" points="1102.5,-16.8487 1102.5,-46.8487 1269.5,-46.8487 1269.5,-16.8487 1102.5,-16.8487"/>
<text text-anchor="start" x="1110.5" y="-34.8487" font-family="Helvetica,sans-Serif" font-size="10.00">repo.programs.pythonpackages.pr.</text>
<text text-anchor="middle" x="1186" y="-23.8487" font-family="Helvetica,sans-Serif" font-size="10.00">SPDataSet.SPDataSet.relD</text>
</a>
</g>
</g>
<!-- Node15&#45;&gt;Node18 -->
<g id="edge27" class="edge"><title>Node15&#45;&gt;Node18</title>
<path fill="none" stroke="midnightblue" d="M982.638,-158.819C1004.46,-133.816 1051.71,-83.682 1102,-55.8487 1105.28,-54.0351 1108.7,-52.3471 1112.22,-50.7772"/>
<polygon fill="midnightblue" stroke="midnightblue" points="1113.77,-53.9236 1121.7,-46.8929 1111.12,-47.4464 1113.77,-53.9236"/>
</g>
<!-- Node19 -->
<g id="node19" class="node"><title>Node19</title>
<g id="a_node19"><a xlink:href="namespacerepo_1_1programs_1_1pythonpackages_1_1pr_1_1SPfuncs.html#af8a48b74a6d4e725e2409329126076a6" target="_top" xlink:title="Construct a set of triggers by analysing the timing for the signal. ">
<polygon fill="white" stroke="black" points="1102.5,-114.849 1102.5,-144.849 1269.5,-144.849 1269.5,-114.849 1102.5,-114.849"/>
<text text-anchor="start" x="1110.5" y="-132.849" font-family="Helvetica,sans-Serif" font-size="10.00">repo.programs.pythonpackages.pr.</text>
<text text-anchor="middle" x="1186" y="-121.849" font-family="Helvetica,sans-Serif" font-size="10.00">SPfuncs.makeTriggers</text>
</a>
</g>
</g>
<!-- Node15&#45;&gt;Node19 -->
<g id="edge30" class="edge"><title>Node15&#45;&gt;Node19</title>
<path fill="none" stroke="midnightblue" d="M1043.39,-158.829C1062.14,-154.992 1082.43,-150.839 1101.64,-146.908"/>
<polygon fill="midnightblue" stroke="midnightblue" points="1102.48,-150.309 1111.58,-144.875 1101.08,-143.451 1102.48,-150.309"/>
</g>
<!-- Node21 -->
<g id="node21" class="node"><title>Node21</title>
<g id="a_node21"><a xlink:href="classrepo_1_1programs_1_1pythonpackages_1_1pr_1_1SPDataSet_1_1SPDataSet.html#af6af62c7de4f7bc8f2dd223d05cf2b07" target="_top" xlink:title="repo.programs.pythonpackages.pr.\lSPDataSet.SPDataSet.rSpec">
<polygon fill="white" stroke="black" points="1102.5,-253.849 1102.5,-283.849 1269.5,-283.849 1269.5,-253.849 1102.5,-253.849"/>
<text text-anchor="start" x="1110.5" y="-271.849" font-family="Helvetica,sans-Serif" font-size="10.00">repo.programs.pythonpackages.pr.</text>
<text text-anchor="middle" x="1186" y="-260.849" font-family="Helvetica,sans-Serif" font-size="10.00">SPDataSet.SPDataSet.rSpec</text>
</a>
</g>
</g>
<!-- Node15&#45;&gt;Node21 -->
<g id="edge32" class="edge"><title>Node15&#45;&gt;Node21</title>
<path fill="none" stroke="midnightblue" d="M995.085,-189.053C1021.12,-204.376 1063.37,-227.968 1102,-243.849 1107.75,-246.215 1113.82,-248.468 1119.93,-250.585"/>
<polygon fill="midnightblue" stroke="midnightblue" points="1118.96,-253.951 1129.56,-253.793 1121.18,-247.31 1118.96,-253.951"/>
</g>
<!-- Node16&#45;&gt;Node7 -->
<g id="edge26" class="edge"><title>Node16&#45;&gt;Node7</title>
<path fill="none" stroke="midnightblue" d="M1269.57,-80.8487C1342.31,-80.8487 1448.45,-80.8487 1525.98,-80.8487"/>
<polygon fill="midnightblue" stroke="midnightblue" points="1526.24,-84.3488 1536.24,-80.8487 1526.24,-77.3488 1526.24,-84.3488"/>
</g>
<!-- Node17 -->
<g id="node17" class="node"><title>Node17</title>
<g id="a_node17"><a xlink:href="namespacerepo_1_1programs_1_1pythonpackages_1_1pr_1_1SPfuncs.html#acb6d178d4325b6c3d8fec4f8197d6819" target="_top" xlink:title="repo.programs.pythonpackages.pr.\lSPfuncs.renameFieldMaybe">
<polygon fill="white" stroke="black" points="1319.5,-21.8487 1319.5,-51.8487 1486.5,-51.8487 1486.5,-21.8487 1319.5,-21.8487"/>
<text text-anchor="start" x="1327.5" y="-39.8487" font-family="Helvetica,sans-Serif" font-size="10.00">repo.programs.pythonpackages.pr.</text>
<text text-anchor="middle" x="1403" y="-28.8487" font-family="Helvetica,sans-Serif" font-size="10.00">SPfuncs.renameFieldMaybe</text>
</a>
</g>
</g>
<!-- Node16&#45;&gt;Node17 -->
<g id="edge25" class="edge"><title>Node16&#45;&gt;Node17</title>
<path fill="none" stroke="midnightblue" d="M1260.39,-65.8295C1279.14,-61.9923 1299.43,-57.839 1318.64,-53.9076"/>
<polygon fill="midnightblue" stroke="midnightblue" points="1319.48,-57.3089 1328.58,-51.8749 1318.08,-50.451 1319.48,-57.3089"/>
</g>
<!-- Node18&#45;&gt;Node7 -->
<g id="edge29" class="edge"><title>Node18&#45;&gt;Node7</title>
<path fill="none" stroke="midnightblue" d="M1248.34,-16.834C1312.22,-3.75659 1414.67,9.98456 1500,-11.8487 1536.15,-21.0994 1573.09,-43.1075 1597.54,-59.8002"/>
<polygon fill="midnightblue" stroke="midnightblue" points="1595.76,-62.8233 1605.96,-65.6761 1599.76,-57.0829 1595.76,-62.8233"/>
</g>
<!-- Node18&#45;&gt;Node17 -->
<g id="edge28" class="edge"><title>Node18&#45;&gt;Node17</title>
<path fill="none" stroke="midnightblue" d="M1269.51,-33.7675C1282.53,-34.0704 1296.07,-34.3853 1309.31,-34.6931"/>
<polygon fill="midnightblue" stroke="midnightblue" points="1309.28,-38.1932 1319.36,-34.9267 1309.44,-31.1951 1309.28,-38.1932"/>
</g>
<!-- Node20 -->
<g id="node20" class="node"><title>Node20</title>
<g id="a_node20"><a xlink:href="namespacerepo_1_1programs_1_1pythonpackages_1_1pr_1_1SPfuncs.html#a9d03b1e8bb9325cdab8fa026d6cdbbe3" target="_top" xlink:title="repo.programs.pythonpackages.pr.\lSPfuncs.secs2sd">
<polygon fill="white" stroke="black" points="1319.5,-109.849 1319.5,-139.849 1486.5,-139.849 1486.5,-109.849 1319.5,-109.849"/>
<text text-anchor="start" x="1327.5" y="-127.849" font-family="Helvetica,sans-Serif" font-size="10.00">repo.programs.pythonpackages.pr.</text>
<text text-anchor="middle" x="1403" y="-116.849" font-family="Helvetica,sans-Serif" font-size="10.00">SPfuncs.secs2sd</text>
</a>
</g>
</g>
<!-- Node19&#45;&gt;Node20 -->
<g id="edge31" class="edge"><title>Node19&#45;&gt;Node20</title>
<path fill="none" stroke="midnightblue" d="M1269.51,-127.93C1282.53,-127.627 1296.07,-127.312 1309.31,-127.004"/>
<polygon fill="midnightblue" stroke="midnightblue" points="1309.44,-130.502 1319.36,-126.771 1309.28,-123.504 1309.44,-130.502"/>
</g>
<!-- Node21&#45;&gt;Node2 -->
<g id="edge33" class="edge"><title>Node21&#45;&gt;Node2</title>
<path fill="none" stroke="midnightblue" d="M1254.57,-283.986C1260.02,-286.502 1265.25,-289.434 1270,-292.849 1292.82,-309.258 1285.29,-325.838 1306,-344.849 1321.42,-359.009 1341.12,-371.082 1358.65,-380.278"/>
<polygon fill="midnightblue" stroke="midnightblue" points="1357.08,-383.409 1367.58,-384.82 1360.25,-377.169 1357.08,-383.409"/>
</g>
<!-- Node22&#45;&gt;Node21 -->
<g id="edge38" class="edge"><title>Node22&#45;&gt;Node21</title>
<path fill="none" stroke="midnightblue" d="M1035.97,-302.814C1059.19,-297.523 1085.46,-291.535 1109.4,-286.077"/>
<polygon fill="midnightblue" stroke="midnightblue" points="1110.18,-289.49 1119.16,-283.855 1108.63,-282.665 1110.18,-289.49"/>
</g>
<!-- Node23 -->
<g id="node23" class="node"><title>Node23</title>
<g id="a_node23"><a xlink:href="namespacerepo_1_1programs_1_1pythonpackages_1_1pr_1_1SPfuncs.html#a2533afa952ea007cfad4a1deb6a607a5" target="_top" xlink:title="Return angles for the sequence defined by , repeated &#160;times. ">
<polygon fill="white" stroke="black" points="1102.5,-302.849 1102.5,-332.849 1269.5,-332.849 1269.5,-302.849 1102.5,-302.849"/>
<text text-anchor="start" x="1110.5" y="-320.849" font-family="Helvetica,sans-Serif" font-size="10.00">repo.programs.pythonpackages.pr.</text>
<text text-anchor="middle" x="1186" y="-309.849" font-family="Helvetica,sans-Serif" font-size="10.00">SPfuncs.getAnglesFromRSpec</text>
</a>
</g>
</g>
<!-- Node22&#45;&gt;Node23 -->
<g id="edge36" class="edge"><title>Node22&#45;&gt;Node23</title>
<path fill="none" stroke="midnightblue" d="M1066.18,-317.849C1074.86,-317.849 1083.64,-317.849 1092.29,-317.849"/>
<polygon fill="midnightblue" stroke="midnightblue" points="1092.37,-321.349 1102.37,-317.849 1092.37,-314.349 1092.37,-321.349"/>
</g>
<!-- Node24 -->
<g id="node24" class="node"><title>Node24</title>
<g id="a_node24"><a xlink:href="namespacerepo_1_1programs_1_1pythonpackages_1_1pr_1_1SPfuncs.html#aba724f914a5cc838851518564a1f5d84" target="_top" xlink:title="repo.programs.pythonpackages.pr.\lSPfuncs.getRotationsFromRSpec">
<polygon fill="white" stroke="black" points="1319.5,-305.849 1319.5,-335.849 1486.5,-335.849 1486.5,-305.849 1319.5,-305.849"/>
<text text-anchor="start" x="1327.5" y="-323.849" font-family="Helvetica,sans-Serif" font-size="10.00">repo.programs.pythonpackages.pr.</text>
<text text-anchor="middle" x="1403" y="-312.849" font-family="Helvetica,sans-Serif" font-size="10.00">SPfuncs.getRotationsFromRSpec</text>
</a>
</g>
</g>
<!-- Node23&#45;&gt;Node24 -->
<g id="edge37" class="edge"><title>Node23&#45;&gt;Node24</title>
<path fill="none" stroke="midnightblue" d="M1269.51,-319C1282.53,-319.182 1296.07,-319.371 1309.31,-319.555"/>
<polygon fill="midnightblue" stroke="midnightblue" points="1309.31,-323.056 1319.36,-319.696 1309.41,-316.056 1309.31,-323.056"/>
</g>
<!-- Node25&#45;&gt;Node2 -->
<g id="edge41" class="edge"><title>Node25&#45;&gt;Node2</title>
<path fill="none" stroke="midnightblue" d="M407.677,-374.236C612.914,-379.523 1103.8,-392.167 1309.17,-397.458"/>
<polygon fill="midnightblue" stroke="midnightblue" points="1309.24,-400.96 1319.33,-397.719 1309.42,-393.963 1309.24,-400.96"/>
</g>
<!-- Node25&#45;&gt;Node4 -->
<g id="edge42" class="edge"><title>Node25&#45;&gt;Node4</title>
<path fill="none" stroke="midnightblue" d="M407.731,-386.737C481.52,-398.584 584.293,-415.084 658.121,-426.937"/>
<polygon fill="midnightblue" stroke="midnightblue" points="657.912,-430.448 668.34,-428.578 659.022,-423.537 657.912,-430.448"/>
</g>
<!-- Node25&#45;&gt;Node13 -->
<g id="edge43" class="edge"><title>Node25&#45;&gt;Node13</title>
<path fill="none" stroke="midnightblue" d="M390.779,-356.829C410.228,-352.975 431.287,-348.801 451.203,-344.854"/>
<polygon fill="midnightblue" stroke="midnightblue" points="452.057,-348.252 461.186,-342.875 450.696,-341.386 452.057,-348.252"/>
</g>
<!-- Node25&#45;&gt;Node14 -->
<g id="edge44" class="edge"><title>Node25&#45;&gt;Node14</title>
<path fill="none" stroke="midnightblue" d="M339.453,-356.742C364.852,-341.542 406.105,-318.212 444,-302.849 519.843,-272.101 610.287,-247.555 673.281,-232.282"/>
<polygon fill="midnightblue" stroke="midnightblue" points="674.243,-235.65 683.149,-229.91 672.608,-228.844 674.243,-235.65"/>
</g>
</g>
</svg>
        <g id="navigator" transform="translate(0 0)" fill="#404254">
                <rect fill="#f2f5e9" fill-opacity="0.5" stroke="#606060" stroke-width=".5" x="0" y="0" width="60" height="60"/>
                <use id="zoomplus" xlink:href="#zoomPlus" x="17" y="9" onmousedown="handleZoom(evt,'in')"/>
                <use id="zoomminus" xlink:href="#zoomMin" x="42" y="9" onmousedown="handleZoom(evt,'out')"/>
                <use id="reset" xlink:href="#resetDef" x="30" y="36" onmousedown="handleReset()"/>
                <g id="arrowUp" xlink:href="#dirArrow" transform="translate(30 24)" onmousedown="handlePan(0,-1)">
                  <use xlink:href="#rim" fill="#404040">
                        <set attributeName="fill" to="#808080" begin="arrowUp.mouseover" end="arrowUp.mouseout"/>
                  </use>
                  <path fill="none" stroke="white" stroke-width="1.5" d="M0,-3.0v7 M-2.5,-0.5L0,-3.0L2.5,-0.5"/>
                </g>
                <g id="arrowRight" xlink:href="#dirArrow" transform="rotate(90) translate(36 -43)" onmousedown="handlePan(1,0)">
                  <use xlink:href="#rim" fill="#404040">
                        <set attributeName="fill" to="#808080" begin="arrowRight.mouseover" end="arrowRight.mouseout"/>
                  </use>
                  <path fill="none" stroke="white" stroke-width="1.5" d="M0,-3.0v7 M-2.5,-0.5L0,-3.0L2.5,-0.5"/>
                </g>
                <g id="arrowDown" xlink:href="#dirArrow" transform="rotate(180) translate(-30 -48)" onmousedown="handlePan(0,1)">
                  <use xlink:href="#rim" fill="#404040">
                        <set attributeName="fill" to="#808080" begin="arrowDown.mouseover" end="arrowDown.mouseout"/>
                  </use>
                  <path fill="none" stroke="white" stroke-width="1.5" d="M0,-3.0v7 M-2.5,-0.5L0,-3.0L2.5,-0.5"/>
                </g>
                <g id="arrowLeft" xlink:href="#dirArrow" transform="rotate(270) translate(-36 17)" onmousedown="handlePan(-1,0)">
                  <use xlink:href="#rim" fill="#404040">
                        <set attributeName="fill" to="#808080" begin="arrowLeft.mouseover" end="arrowLeft.mouseout"/>
                  </use>
                  <path fill="none" stroke="white" stroke-width="1.5" d="M0,-3.0v7 M-2.5,-0.5L0,-3.0L2.5,-0.5"/>
                </g>
        </g>
        <svg viewBox="0 0 15 15" width="100%" height="30px" preserveAspectRatio="xMaxYMin meet">
         <g id="arrow_out" transform="scale(0.3 0.3)">
          <a xlink:href="classrepo_1_1programs_1_1pythonpackages_1_1pr_1_1SPDataSet_1_1SPDataSet_accbfa0185d4e416038e688fc9b55575b_cgraph_org.svg" target="_base">
           <rect id="button" ry="5" rx="5" y="6" x="6" height="38" width="38"
                fill="#f2f5e9" fill-opacity="0.5" stroke="#606060" stroke-width="1.0"/>
           <path id="arrow"
             d="M 11.500037,31.436501 C 11.940474,20.09759 22.043105,11.32322 32.158766,21.979434 L 37.068811,17.246167 C 37.068811,17.246167 37.088388,32 37.088388,32 L 22.160133,31.978069 C 22.160133,31.978069 26.997745,27.140456 26.997745,27.140456 C 18.528582,18.264221 13.291696,25.230495 11.500037,31.436501 z"
             style="fill:#404040;"/>
          </a>
         </g>
        </svg>
</svg>
