<?xml version="1.0" encoding="UTF-8" standalone="no"?>
<!DOCTYPE svg PUBLIC "-//W3C//DTD SVG 1.1//EN"
 "http://www.w3.org/Graphics/SVG/1.1/DTD/svg11.dtd">
<!-- Generated by graphviz version 2.36.0 (20140111.2315)
 -->
<!-- Title: repo.programs.pythonpackages.pr.SPfuncs.secs2sd Pages: 1 -->
<svg width="1890pt" height="423pt"
 viewBox="0.00 0.00 1890.00 423.00" xmlns="http://www.w3.org/2000/svg" xmlns:xlink="http://www.w3.org/1999/xlink">
<g id="graph0" class="graph" transform="scale(1 1) rotate(0) translate(4 418.997)">
<title>repo.programs.pythonpackages.pr.SPfuncs.secs2sd</title>
<polygon fill="white" stroke="none" points="-4,4 -4,-418.997 1886,-418.997 1886,4 -4,4"/>
<!-- Node1 -->
<g id="node1" class="node"><title>Node1</title>
<polygon fill="#bfbfbf" stroke="black" points="0.5,-71 0.5,-101 167.5,-101 167.5,-71 0.5,-71"/>
<text text-anchor="start" x="8.5" y="-89" font-family="Helvetica,sans-Serif" font-size="10.00">repo.programs.pythonpackages.pr.</text>
<text text-anchor="middle" x="84" y="-78" font-family="Helvetica,sans-Serif" font-size="10.00">SPfuncs.secs2sd</text>
</g>
<!-- Node2 -->
<g id="node2" class="node"><title>Node2</title>
<g id="a_node2"><a xlink:href="namespacerepo_1_1programs_1_1pythonpackages_1_1pr_1_1SPfuncs.html#af8a48b74a6d4e725e2409329126076a6" target="_top" xlink:title="Construct a set of triggers by analysing the timing for the signal. ">
<polygon fill="white" stroke="black" points="204.5,-137 204.5,-167 371.5,-167 371.5,-137 204.5,-137"/>
<text text-anchor="start" x="212.5" y="-155" font-family="Helvetica,sans-Serif" font-size="10.00">repo.programs.pythonpackages.pr.</text>
<text text-anchor="middle" x="288" y="-144" font-family="Helvetica,sans-Serif" font-size="10.00">SPfuncs.makeTriggers</text>
</a>
</g>
</g>
<!-- Node1&#45;&gt;Node2 -->
<g id="edge1" class="edge"><title>Node1&#45;&gt;Node2</title>
<path fill="none" stroke="midnightblue" d="M140.6,-104.166C172.072,-114.449 210.97,-127.158 240.759,-136.892"/>
<polygon fill="midnightblue" stroke="midnightblue" points="141.682,-100.838 131.09,-101.059 139.508,-107.492 141.682,-100.838"/>
</g>
<!-- Node17 -->
<g id="node17" class="node"><title>Node17</title>
<g id="a_node17"><a xlink:href="namespacerepo_1_1programs_1_1pythonpackages_1_1pr_1_1SPfuncs.html#ae90ba18ae292290722e197cf242d8721" target="_top" xlink:title="Make up some data that the experiment might have measured. ">
<polygon fill="white" stroke="black" points="408.5,-98 408.5,-128 575.5,-128 575.5,-98 408.5,-98"/>
<text text-anchor="start" x="416.5" y="-116" font-family="Helvetica,sans-Serif" font-size="10.00">repo.programs.pythonpackages.pr.</text>
<text text-anchor="middle" x="492" y="-105" font-family="Helvetica,sans-Serif" font-size="10.00">SPfuncs.makeTestData</text>
</a>
</g>
</g>
<!-- Node1&#45;&gt;Node17 -->
<g id="edge30" class="edge"><title>Node1&#45;&gt;Node17</title>
<path fill="none" stroke="midnightblue" d="M177.721,-92.1662C247.242,-96.7895 341.54,-103.061 408.466,-107.511"/>
<polygon fill="midnightblue" stroke="midnightblue" points="177.86,-88.6678 167.65,-91.4964 177.395,-95.6523 177.86,-88.6678"/>
</g>
<!-- Node21 -->
<g id="node21" class="node"><title>Node21</title>
<g id="a_node21"><a xlink:href="namespacerepo_1_1programs_1_1pythonpackages_1_1pr_1_1SPfuncs.html#aa45dbb6291e4944f3ba2718a3d0ee001" target="_top" xlink:title="repo.programs.pythonpackages.pr.\lSPfuncs.preprocess_raw">
<polygon fill="white" stroke="black" points="204.5,-49 204.5,-79 371.5,-79 371.5,-49 204.5,-49"/>
<text text-anchor="start" x="212.5" y="-67" font-family="Helvetica,sans-Serif" font-size="10.00">repo.programs.pythonpackages.pr.</text>
<text text-anchor="middle" x="288" y="-56" font-family="Helvetica,sans-Serif" font-size="10.00">SPfuncs.preprocess_raw</text>
</a>
</g>
</g>
<!-- Node1&#45;&gt;Node21 -->
<g id="edge31" class="edge"><title>Node1&#45;&gt;Node21</title>
<path fill="none" stroke="midnightblue" d="M177.731,-75.9006C186.622,-74.9322 195.6,-73.9545 204.385,-72.9977"/>
<polygon fill="midnightblue" stroke="midnightblue" points="177.306,-72.4261 167.744,-76.9883 178.064,-79.3849 177.306,-72.4261"/>
</g>
<!-- Node22 -->
<g id="node22" class="node"><title>Node22</title>
<g id="a_node22"><a xlink:href="namespacerepo_1_1programs_1_1pythonpackages_1_1pr_1_1SPfuncs.html#a9ae89d50fa931a7cc863400505be38b1" target="_top" xlink:title="repo.programs.pythonpackages.pr.\lSPfuncs.process_continuous_raw">
<polygon fill="white" stroke="black" points="204.5,-0 204.5,-30 371.5,-30 371.5,-0 204.5,-0"/>
<text text-anchor="start" x="212.5" y="-18" font-family="Helvetica,sans-Serif" font-size="10.00">repo.programs.pythonpackages.pr.</text>
<text text-anchor="middle" x="288" y="-7" font-family="Helvetica,sans-Serif" font-size="10.00">SPfuncs.process_continuous_raw</text>
</a>
</g>
</g>
<!-- Node1&#45;&gt;Node22 -->
<g id="edge33" class="edge"><title>Node1&#45;&gt;Node22</title>
<path fill="none" stroke="midnightblue" d="M130.059,-67.0381C152.158,-58.0386 179.278,-47.4353 204,-39 213.086,-35.8999 222.816,-32.8499 232.301,-30.0186"/>
<polygon fill="midnightblue" stroke="midnightblue" points="128.527,-63.8834 120.603,-70.9158 131.183,-70.3601 128.527,-63.8834"/>
</g>
<!-- Node3 -->
<g id="node3" class="node"><title>Node3</title>
<g id="a_node3"><a xlink:href="classrepo_1_1programs_1_1pythonpackages_1_1pr_1_1SPDataSet_1_1SPDataSet.html#a14656e508d81193e8c71c09d9444e15f" target="_top" xlink:title="repo.programs.pythonpackages.pr.\lSPDataSet.SPDataSet.trigTimes">
<polygon fill="white" stroke="black" points="408.5,-166 408.5,-196 575.5,-196 575.5,-166 408.5,-166"/>
<text text-anchor="start" x="416.5" y="-184" font-family="Helvetica,sans-Serif" font-size="10.00">repo.programs.pythonpackages.pr.</text>
<text text-anchor="middle" x="492" y="-173" font-family="Helvetica,sans-Serif" font-size="10.00">SPDataSet.SPDataSet.trigTimes</text>
</a>
</g>
</g>
<!-- Node2&#45;&gt;Node3 -->
<g id="edge2" class="edge"><title>Node2&#45;&gt;Node3</title>
<path fill="none" stroke="midnightblue" d="M381.731,-165.313C390.622,-166.589 399.6,-167.878 408.385,-169.139"/>
<polygon fill="midnightblue" stroke="midnightblue" points="382.14,-161.836 371.744,-163.879 381.145,-168.765 382.14,-161.836"/>
</g>
<!-- Node2&#45;&gt;Node17 -->
<g id="edge26" class="edge"><title>Node2&#45;&gt;Node17</title>
<path fill="none" stroke="midnightblue" d="M376.893,-135.031C388.987,-132.696 401.336,-130.311 413.231,-128.015"/>
<polygon fill="midnightblue" stroke="midnightblue" points="375.965,-131.645 366.81,-136.977 377.292,-138.518 375.965,-131.645"/>
</g>
<!-- Node20 -->
<g id="node20" class="node"><title>Node20</title>
<g id="a_node20"><a xlink:href="namespacerepo_1_1programs_1_1pythonpackages_1_1pr_1_1SPfuncs.html#a1aca1da7012fa44af8ba6fb057c7ed1b" target="_top" xlink:title="Todos: ">
<polygon fill="white" stroke="black" points="408.5,-49 408.5,-79 575.5,-79 575.5,-49 408.5,-49"/>
<text text-anchor="start" x="416.5" y="-67" font-family="Helvetica,sans-Serif" font-size="10.00">repo.programs.pythonpackages.pr.</text>
<text text-anchor="middle" x="492" y="-56" font-family="Helvetica,sans-Serif" font-size="10.00">SPfuncs.spSearchSet</text>
</a>
</g>
</g>
<!-- Node2&#45;&gt;Node20 -->
<g id="edge29" class="edge"><title>Node2&#45;&gt;Node20</title>
<path fill="none" stroke="midnightblue" d="M322.133,-131.717C345.508,-118.027 377.897,-100.285 408,-88 415.916,-84.7695 424.422,-81.7877 432.862,-79.1041"/>
<polygon fill="midnightblue" stroke="midnightblue" points="320.147,-128.825 313.327,-136.932 323.714,-134.848 320.147,-128.825"/>
</g>
<!-- Node4 -->
<g id="node4" class="node"><title>Node4</title>
<g id="a_node4"><a xlink:href="classrepo_1_1programs_1_1pythonpackages_1_1pr_1_1SPDataSet_1_1SPDataSet.html#a5b12a3d9fdb93ccbf79a6b7a7893be3f" target="_top" xlink:title="repo.programs.pythonpackages.pr.\lSPDataSet.SPDataSet.cutAmp">
<polygon fill="white" stroke="black" points="612.5,-201 612.5,-231 779.5,-231 779.5,-201 612.5,-201"/>
<text text-anchor="start" x="620.5" y="-219" font-family="Helvetica,sans-Serif" font-size="10.00">repo.programs.pythonpackages.pr.</text>
<text text-anchor="middle" x="696" y="-208" font-family="Helvetica,sans-Serif" font-size="10.00">SPDataSet.SPDataSet.cutAmp</text>
</a>
</g>
</g>
<!-- Node3&#45;&gt;Node4 -->
<g id="edge3" class="edge"><title>Node3&#45;&gt;Node4</title>
<path fill="none" stroke="midnightblue" d="M585.731,-197.067C594.622,-198.608 603.6,-200.163 612.385,-201.685"/>
<polygon fill="midnightblue" stroke="midnightblue" points="586.195,-193.596 575.744,-195.337 585,-200.493 586.195,-193.596"/>
</g>
<!-- Node13 -->
<g id="node13" class="node"><title>Node13</title>
<g id="a_node13"><a xlink:href="classrepo_1_1programs_1_1pythonpackages_1_1pr_1_1SPDataSet_1_1SPDataSet.html#a5ad35e931371981e41221502928547d5" target="_top" xlink:title="Check that the calculated apparatus directions fit with the available data. ">
<polygon fill="white" stroke="black" points="1470,-132 1470,-162 1662,-162 1662,-132 1470,-132"/>
<text text-anchor="start" x="1478" y="-150" font-family="Helvetica,sans-Serif" font-size="10.00">repo.programs.pythonpackages.pr.</text>
<text text-anchor="middle" x="1566" y="-139" font-family="Helvetica,sans-Serif" font-size="10.00">SPDataSet.SPDataSet.checkDirections</text>
</a>
</g>
</g>
<!-- Node3&#45;&gt;Node13 -->
<g id="edge25" class="edge"><title>Node3&#45;&gt;Node13</title>
<path fill="none" stroke="midnightblue" d="M585.798,-172.389C668.029,-165.505 791.396,-157 899,-157 899,-157 899,-157 1115,-157 1237.49,-157 1378.69,-153.251 1469.76,-150.344"/>
<polygon fill="midnightblue" stroke="midnightblue" points="585.397,-168.91 575.728,-173.241 585.987,-175.885 585.397,-168.91"/>
</g>
<!-- Node16 -->
<g id="node16" class="node"><title>Node16</title>
<g id="a_node16"><a xlink:href="classrepo_1_1programs_1_1pythonpackages_1_1pr_1_1SPDataSet_1_1SPDataSet.html#a5343a59b34ffebfc31c1dfd06ddfa889" target="_top" xlink:title="repo.programs.pythonpackages.pr.\lSPDataSet.SPDataSet.viewRaw">
<polygon fill="white" stroke="black" points="816.5,-279 816.5,-309 983.5,-309 983.5,-279 816.5,-279"/>
<text text-anchor="start" x="824.5" y="-297" font-family="Helvetica,sans-Serif" font-size="10.00">repo.programs.pythonpackages.pr.</text>
<text text-anchor="middle" x="900" y="-286" font-family="Helvetica,sans-Serif" font-size="10.00">SPDataSet.SPDataSet.viewRaw</text>
</a>
</g>
</g>
<!-- Node3&#45;&gt;Node16 -->
<g id="edge24" class="edge"><title>Node3&#45;&gt;Node16</title>
<path fill="none" stroke="midnightblue" d="M518.428,-202.351C541.357,-220.35 576.79,-245.165 612,-258 678.052,-282.077 757.694,-290.586 816.307,-293.354"/>
<polygon fill="midnightblue" stroke="midnightblue" points="520.565,-199.578 510.57,-196.063 516.191,-205.044 520.565,-199.578"/>
</g>
<!-- Node4&#45;&gt;Node4 -->
<g id="edge4" class="edge"><title>Node4&#45;&gt;Node4</title>
<path fill="none" stroke="midnightblue" d="M660.292,-241.598C665.172,-245.97 677.074,-249 696,-249 727.875,-249 739.828,-240.406 731.859,-231.275"/>
<polygon fill="midnightblue" stroke="midnightblue" points="663.787,-241.223 660.141,-231.275 656.788,-241.326 663.787,-241.223"/>
</g>
<!-- Node5 -->
<g id="node5" class="node"><title>Node5</title>
<g id="a_node5"><a xlink:href="classrepo_1_1programs_1_1pythonpackages_1_1pr_1_1SPDataSet_1_1SPDataSet.html#a9eac955cac12a62b72d189aa80b82ec6" target="_top" xlink:title="repo.programs.pythonpackages.pr.\lSPDataSet.SPDataSet.filteredCutAmp">
<polygon fill="white" stroke="black" points="1020.5,-186 1020.5,-216 1207.5,-216 1207.5,-186 1020.5,-186"/>
<text text-anchor="start" x="1028.5" y="-204" font-family="Helvetica,sans-Serif" font-size="10.00">repo.programs.pythonpackages.pr.</text>
<text text-anchor="middle" x="1114" y="-193" font-family="Helvetica,sans-Serif" font-size="10.00">SPDataSet.SPDataSet.filteredCutAmp</text>
</a>
</g>
</g>
<!-- Node4&#45;&gt;Node5 -->
<g id="edge5" class="edge"><title>Node4&#45;&gt;Node5</title>
<path fill="none" stroke="midnightblue" d="M790.061,-212.644C858.727,-210.168 951.754,-206.814 1020.33,-204.342"/>
<polygon fill="midnightblue" stroke="midnightblue" points="789.553,-209.16 779.686,-213.019 789.805,-216.156 789.553,-209.16"/>
</g>
<!-- Node14 -->
<g id="node14" class="node"><title>Node14</title>
<g id="a_node14"><a xlink:href="classrepo_1_1programs_1_1pythonpackages_1_1pr_1_1SPDataSet_1_1SPDataSet.html#a6f2c3de2aa708d686f5835f10e2d096d" target="_top" xlink:title="repo.programs.pythonpackages.pr.\lSPDataSet.SPDataSet.pointAmp">
<polygon fill="white" stroke="black" points="816.5,-230 816.5,-260 983.5,-260 983.5,-230 816.5,-230"/>
<text text-anchor="start" x="824.5" y="-248" font-family="Helvetica,sans-Serif" font-size="10.00">repo.programs.pythonpackages.pr.</text>
<text text-anchor="middle" x="900" y="-237" font-family="Helvetica,sans-Serif" font-size="10.00">SPDataSet.SPDataSet.pointAmp</text>
</a>
</g>
</g>
<!-- Node4&#45;&gt;Node14 -->
<g id="edge17" class="edge"><title>Node4&#45;&gt;Node14</title>
<path fill="none" stroke="midnightblue" d="M789.731,-229.313C798.622,-230.589 807.6,-231.878 816.385,-233.139"/>
<polygon fill="midnightblue" stroke="midnightblue" points="790.14,-225.836 779.744,-227.879 789.145,-232.765 790.14,-225.836"/>
</g>
<!-- Node4&#45;&gt;Node16 -->
<g id="edge23" class="edge"><title>Node4&#45;&gt;Node16</title>
<path fill="none" stroke="midnightblue" d="M736.925,-235.3C759.782,-245.964 789.169,-259.03 816,-269 825.452,-272.512 835.641,-275.898 845.535,-278.984"/>
<polygon fill="midnightblue" stroke="midnightblue" points="738.411,-232.131 727.872,-231.043 735.432,-238.466 738.411,-232.131"/>
</g>
<!-- Node6 -->
<g id="node6" class="node"><title>Node6</title>
<g id="a_node6"><a xlink:href="classrepo_1_1programs_1_1pythonpackages_1_1pr_1_1SPDataSet_1_1SPDataSet.html#accbfa0185d4e416038e688fc9b55575b" target="_top" xlink:title="repo.programs.pythonpackages.pr.\lSPDataSet.SPDataSet.sequenceAmp">
<polygon fill="white" stroke="black" points="1244,-230 1244,-260 1428,-260 1428,-230 1244,-230"/>
<text text-anchor="start" x="1252" y="-248" font-family="Helvetica,sans-Serif" font-size="10.00">repo.programs.pythonpackages.pr.</text>
<text text-anchor="middle" x="1336" y="-237" font-family="Helvetica,sans-Serif" font-size="10.00">SPDataSet.SPDataSet.sequenceAmp</text>
</a>
</g>
</g>
<!-- Node5&#45;&gt;Node6 -->
<g id="edge6" class="edge"><title>Node5&#45;&gt;Node6</title>
<path fill="none" stroke="midnightblue" d="M1199.99,-217.998C1219.72,-221.945 1240.59,-226.119 1259.87,-229.974"/>
<polygon fill="midnightblue" stroke="midnightblue" points="1200.59,-214.548 1190.1,-216.019 1199.22,-221.413 1200.59,-214.548"/>
</g>
<!-- Node6&#45;&gt;Node6 -->
<g id="edge7" class="edge"><title>Node6&#45;&gt;Node6</title>
<path fill="none" stroke="midnightblue" d="M1297.14,-270.598C1302.45,-274.97 1315.4,-278 1336,-278 1370.69,-278 1383.7,-269.406 1375.02,-260.275"/>
<polygon fill="midnightblue" stroke="midnightblue" points="1300.64,-270.218 1296.98,-260.275 1293.64,-270.33 1300.64,-270.218"/>
</g>
<!-- Node7 -->
<g id="node7" class="node"><title>Node7</title>
<g id="a_node7"><a xlink:href="classrepo_1_1programs_1_1pythonpackages_1_1pr_1_1SPDataSet_1_1SPDataSet.html#ac0df54b82a9e993d707f0dafd87a19dd" target="_top" xlink:title="repo.programs.pythonpackages.pr.\lSPDataSet.SPDataSet.labAmp">
<polygon fill="white" stroke="black" points="1482.5,-230 1482.5,-260 1649.5,-260 1649.5,-230 1482.5,-230"/>
<text text-anchor="start" x="1490.5" y="-248" font-family="Helvetica,sans-Serif" font-size="10.00">repo.programs.pythonpackages.pr.</text>
<text text-anchor="middle" x="1566" y="-237" font-family="Helvetica,sans-Serif" font-size="10.00">SPDataSet.SPDataSet.labAmp</text>
</a>
</g>
</g>
<!-- Node6&#45;&gt;Node7 -->
<g id="edge8" class="edge"><title>Node6&#45;&gt;Node7</title>
<path fill="none" stroke="midnightblue" d="M1438.21,-245C1452.91,-245 1467.89,-245 1482.17,-245"/>
<polygon fill="midnightblue" stroke="midnightblue" points="1438.09,-241.5 1428.09,-245 1438.09,-248.5 1438.09,-241.5"/>
</g>
<!-- Node8 -->
<g id="node8" class="node"><title>Node8</title>
<g id="a_node8"><a xlink:href="classrepo_1_1programs_1_1pythonpackages_1_1pr_1_1SPDataSet_1_1SPDataSet.html#a3624263a6738178d243635889b719a90" target="_top" xlink:title="repo.programs.pythonpackages.pr.\lSPDataSet.SPDataSet.viewSid">
<polygon fill="white" stroke="black" points="1709.5,-230 1709.5,-260 1876.5,-260 1876.5,-230 1709.5,-230"/>
<text text-anchor="start" x="1717.5" y="-248" font-family="Helvetica,sans-Serif" font-size="10.00">repo.programs.pythonpackages.pr.</text>
<text text-anchor="middle" x="1793" y="-237" font-family="Helvetica,sans-Serif" font-size="10.00">SPDataSet.SPDataSet.viewSid</text>
</a>
</g>
</g>
<!-- Node6&#45;&gt;Node8 -->
<g id="edge14" class="edge"><title>Node6&#45;&gt;Node8</title>
<path fill="none" stroke="midnightblue" d="M1413.71,-261.882C1430.22,-264.844 1447.63,-267.466 1464,-269 1554.27,-277.455 1577.75,-277.654 1668,-269 1687.21,-267.158 1707.86,-263.747 1726.7,-260.062"/>
<polygon fill="midnightblue" stroke="midnightblue" points="1414.04,-258.383 1403.57,-260 1412.76,-265.265 1414.04,-258.383"/>
</g>
<!-- Node9 -->
<g id="node9" class="node"><title>Node9</title>
<g id="a_node9"><a xlink:href="classrepo_1_1programs_1_1pythonpackages_1_1pr_1_1SPDataSet_1_1SPDataSet.html#acf495c99c803a2a1e23cdaeae34da985" target="_top" xlink:title="repo.programs.pythonpackages.pr.\lSPDataSet.SPDataSet.sidAmp">
<polygon fill="white" stroke="black" points="1482.5,-181 1482.5,-211 1649.5,-211 1649.5,-181 1482.5,-181"/>
<text text-anchor="start" x="1490.5" y="-199" font-family="Helvetica,sans-Serif" font-size="10.00">repo.programs.pythonpackages.pr.</text>
<text text-anchor="middle" x="1566" y="-188" font-family="Helvetica,sans-Serif" font-size="10.00">SPDataSet.SPDataSet.sidAmp</text>
</a>
</g>
</g>
<!-- Node6&#45;&gt;Node9 -->
<g id="edge10" class="edge"><title>Node6&#45;&gt;Node9</title>
<path fill="none" stroke="midnightblue" d="M1416.96,-227.815C1442.46,-222.335 1470.46,-216.318 1495.18,-211.006"/>
<polygon fill="midnightblue" stroke="midnightblue" points="1416,-224.442 1406.96,-229.965 1417.47,-231.286 1416,-224.442"/>
</g>
<!-- Node10 -->
<g id="node10" class="node"><title>Node10</title>
<g id="a_node10"><a xlink:href="classrepo_1_1programs_1_1pythonpackages_1_1pr_1_1SPDataSet_1_1SPDataSet.html#ac55c6ccc03634d3f670f52e89188779c" target="_top" xlink:title="repo.programs.pythonpackages.pr.\lSPDataSet.SPDataSet.viewSeq">
<polygon fill="white" stroke="black" points="1482.5,-367 1482.5,-397 1649.5,-397 1649.5,-367 1482.5,-367"/>
<text text-anchor="start" x="1490.5" y="-385" font-family="Helvetica,sans-Serif" font-size="10.00">repo.programs.pythonpackages.pr.</text>
<text text-anchor="middle" x="1566" y="-374" font-family="Helvetica,sans-Serif" font-size="10.00">SPDataSet.SPDataSet.viewSeq</text>
</a>
</g>
</g>
<!-- Node6&#45;&gt;Node10 -->
<g id="edge12" class="edge"><title>Node6&#45;&gt;Node10</title>
<path fill="none" stroke="midnightblue" d="M1356.64,-267.966C1379.75,-293.526 1420.53,-334.222 1464,-357 1471.36,-360.857 1479.34,-364.135 1487.47,-366.917"/>
<polygon fill="midnightblue" stroke="midnightblue" points="1359.03,-265.391 1349.77,-260.241 1353.8,-270.041 1359.03,-265.391"/>
</g>
<!-- Node12 -->
<g id="node12" class="node"><title>Node12</title>
<g id="a_node12"><a xlink:href="classrepo_1_1programs_1_1pythonpackages_1_1pr_1_1SPDataSet_1_1SPDataSet.html#a5aad808c592bfdbb665105df2947610f" target="_top" xlink:title="repo.programs.pythonpackages.pr.\lSPDataSet.SPDataSet.viewCorrelationFilt">
<polygon fill="white" stroke="black" points="1464.5,-318 1464.5,-348 1667.5,-348 1667.5,-318 1464.5,-318"/>
<text text-anchor="start" x="1472.5" y="-336" font-family="Helvetica,sans-Serif" font-size="10.00">repo.programs.pythonpackages.pr.</text>
<text text-anchor="middle" x="1566" y="-325" font-family="Helvetica,sans-Serif" font-size="10.00">SPDataSet.SPDataSet.viewCorrelationFilt</text>
</a>
</g>
</g>
<!-- Node6&#45;&gt;Node12 -->
<g id="edge15" class="edge"><title>Node6&#45;&gt;Node12</title>
<path fill="none" stroke="midnightblue" d="M1375.87,-264.464C1400.71,-276.472 1433.81,-291.686 1464,-303 1478.47,-308.424 1494.4,-313.536 1509.23,-317.951"/>
<polygon fill="midnightblue" stroke="midnightblue" points="1377.3,-261.268 1366.78,-260.034 1374.24,-267.561 1377.3,-261.268"/>
</g>
<!-- Node6&#45;&gt;Node13 -->
<g id="edge16" class="edge"><title>Node6&#45;&gt;Node13</title>
<path fill="none" stroke="midnightblue" d="M1367.09,-224.037C1392.04,-207.518 1428.97,-185.009 1464,-171 1472.45,-167.62 1481.5,-164.64 1490.58,-162.033"/>
<polygon fill="midnightblue" stroke="midnightblue" points="1364.82,-221.346 1358.47,-229.825 1368.72,-227.158 1364.82,-221.346"/>
</g>
<!-- Node7&#45;&gt;Node8 -->
<g id="edge9" class="edge"><title>Node7&#45;&gt;Node8</title>
<path fill="none" stroke="midnightblue" d="M1659.63,-245C1676.03,-245 1693.02,-245 1709.13,-245"/>
<polygon fill="midnightblue" stroke="midnightblue" points="1659.5,-241.5 1649.5,-245 1659.5,-248.5 1659.5,-241.5"/>
</g>
<!-- Node9&#45;&gt;Node8 -->
<g id="edge11" class="edge"><title>Node9&#45;&gt;Node8</title>
<path fill="none" stroke="midnightblue" d="M1645.91,-213.185C1671.07,-218.665 1698.7,-224.682 1723.09,-229.994"/>
<polygon fill="midnightblue" stroke="midnightblue" points="1646.55,-209.743 1636.04,-211.035 1645.06,-216.582 1646.55,-209.743"/>
</g>
<!-- Node11 -->
<g id="node11" class="node"><title>Node11</title>
<g id="a_node11"><a xlink:href="classrepo_1_1programs_1_1pythonpackages_1_1pr_1_1SPDataSet_1_1SPDataSet.html#a0c87af10688edd55eb0aea229e5979bb" target="_top" xlink:title="repo.programs.pythonpackages.pr.\lSPDataSet.SPDataSet.viewSensors">
<polygon fill="white" stroke="black" points="1704,-367 1704,-397 1882,-397 1882,-367 1704,-367"/>
<text text-anchor="start" x="1712" y="-385" font-family="Helvetica,sans-Serif" font-size="10.00">repo.programs.pythonpackages.pr.</text>
<text text-anchor="middle" x="1793" y="-374" font-family="Helvetica,sans-Serif" font-size="10.00">SPDataSet.SPDataSet.viewSensors</text>
</a>
</g>
</g>
<!-- Node10&#45;&gt;Node11 -->
<g id="edge13" class="edge"><title>Node10&#45;&gt;Node11</title>
<path fill="none" stroke="midnightblue" d="M1659.55,-382C1674.19,-382 1689.29,-382 1703.83,-382"/>
<polygon fill="midnightblue" stroke="midnightblue" points="1659.5,-378.5 1649.5,-382 1659.5,-385.5 1659.5,-378.5"/>
</g>
<!-- Node14&#45;&gt;Node5 -->
<g id="edge18" class="edge"><title>Node14&#45;&gt;Node5</title>
<path fill="none" stroke="midnightblue" d="M983.159,-227.948C1002.1,-224.017 1022.11,-219.864 1040.6,-216.026"/>
<polygon fill="midnightblue" stroke="midnightblue" points="982.445,-224.522 973.365,-229.981 983.868,-231.375 982.445,-224.522"/>
</g>
<!-- Node14&#45;&gt;Node6 -->
<g id="edge19" class="edge"><title>Node14&#45;&gt;Node6</title>
<path fill="none" stroke="midnightblue" d="M993.867,-245C1067.65,-245 1170.27,-245 1243.65,-245"/>
<polygon fill="midnightblue" stroke="midnightblue" points="993.654,-241.5 983.654,-245 993.654,-248.5 993.654,-241.5"/>
</g>
<!-- Node14&#45;&gt;Node10 -->
<g id="edge20" class="edge"><title>Node14&#45;&gt;Node10</title>
<path fill="none" stroke="midnightblue" d="M979.152,-265.307C980.828,-266.47 982.447,-267.7 984,-269 1011.74,-292.223 990,-321.785 1020,-342 1165.75,-440.212 1385.95,-417.231 1496.53,-397.027"/>
<polygon fill="midnightblue" stroke="midnightblue" points="980.739,-262.178 970.364,-260.029 977.135,-268.178 980.739,-262.178"/>
</g>
<!-- Node14&#45;&gt;Node12 -->
<g id="edge21" class="edge"><title>Node14&#45;&gt;Node12</title>
<path fill="none" stroke="midnightblue" d="M976.302,-264.438C978.958,-265.855 981.535,-267.374 984,-269 1005.09,-282.916 997.369,-301.763 1020,-313 1095.37,-350.423 1328.82,-345.52 1464.49,-339.026"/>
<polygon fill="midnightblue" stroke="midnightblue" points="977.539,-261.151 967.007,-260 974.523,-267.467 977.539,-261.151"/>
</g>
<!-- Node15 -->
<g id="node15" class="node"><title>Node15</title>
<g id="a_node15"><a xlink:href="classrepo_1_1programs_1_1pythonpackages_1_1pr_1_1SPDataSet_1_1SPDataSet.html#a2ffa7a6de1e0ebd8172db800621eed20" target="_top" xlink:title="repo.programs.pythonpackages.pr.\lSPDataSet.SPDataSet.test_div">
<polygon fill="white" stroke="black" points="1030.5,-274 1030.5,-304 1197.5,-304 1197.5,-274 1030.5,-274"/>
<text text-anchor="start" x="1038.5" y="-292" font-family="Helvetica,sans-Serif" font-size="10.00">repo.programs.pythonpackages.pr.</text>
<text text-anchor="middle" x="1114" y="-281" font-family="Helvetica,sans-Serif" font-size="10.00">SPDataSet.SPDataSet.test_div</text>
</a>
</g>
</g>
<!-- Node14&#45;&gt;Node15 -->
<g id="edge22" class="edge"><title>Node14&#45;&gt;Node15</title>
<path fill="none" stroke="midnightblue" d="M983.159,-262.052C1002.1,-265.983 1022.11,-270.136 1040.6,-273.974"/>
<polygon fill="midnightblue" stroke="midnightblue" points="983.868,-258.625 973.365,-260.019 982.445,-265.478 983.868,-258.625"/>
</g>
<!-- Node18 -->
<g id="node18" class="node"><title>Node18</title>
<g id="a_node18"><a xlink:href="namespacerepo_1_1programs_1_1pythonpackages_1_1pr_1_1SPDataSet.html#ab3e94a5db004f2a1cbe3b89005731d7c" target="_top" xlink:title="repo.programs.pythonpackages.pr.\lSPDataSet.testDS">
<polygon fill="white" stroke="black" points="612.5,-98 612.5,-128 779.5,-128 779.5,-98 612.5,-98"/>
<text text-anchor="start" x="620.5" y="-116" font-family="Helvetica,sans-Serif" font-size="10.00">repo.programs.pythonpackages.pr.</text>
<text text-anchor="middle" x="696" y="-105" font-family="Helvetica,sans-Serif" font-size="10.00">SPDataSet.testDS</text>
</a>
</g>
</g>
<!-- Node17&#45;&gt;Node18 -->
<g id="edge27" class="edge"><title>Node17&#45;&gt;Node18</title>
<path fill="none" stroke="midnightblue" d="M586.018,-113C594.815,-113 603.694,-113 612.385,-113"/>
<polygon fill="midnightblue" stroke="midnightblue" points="585.744,-109.5 575.744,-113 585.744,-116.5 585.744,-109.5"/>
</g>
<!-- Node19 -->
<g id="node19" class="node"><title>Node19</title>
<g id="a_node19"><a xlink:href="namespacerepo_1_1programs_1_1pythonpackages_1_1pr_1_1SPDataSet.html#ae343b1ec862928d74ae9f6e140008b0d" target="_top" xlink:title="repo.programs.pythonpackages.pr.\lSPDataSet.testDS2">
<polygon fill="white" stroke="black" points="612.5,-49 612.5,-79 779.5,-79 779.5,-49 612.5,-49"/>
<text text-anchor="start" x="620.5" y="-67" font-family="Helvetica,sans-Serif" font-size="10.00">repo.programs.pythonpackages.pr.</text>
<text text-anchor="middle" x="696" y="-56" font-family="Helvetica,sans-Serif" font-size="10.00">SPDataSet.testDS2</text>
</a>
</g>
</g>
<!-- Node17&#45;&gt;Node19 -->
<g id="edge28" class="edge"><title>Node17&#45;&gt;Node19</title>
<path fill="none" stroke="midnightblue" d="M564.746,-95.5962C587.092,-90.1757 611.529,-84.248 633.138,-79.0062"/>
<polygon fill="midnightblue" stroke="midnightblue" points="563.872,-92.2066 554.979,-97.9654 565.523,-99.0093 563.872,-92.2066"/>
</g>
<!-- Node21&#45;&gt;Node20 -->
<g id="edge32" class="edge"><title>Node21&#45;&gt;Node20</title>
<path fill="none" stroke="midnightblue" d="M382.018,-64C390.815,-64 399.694,-64 408.385,-64"/>
<polygon fill="midnightblue" stroke="midnightblue" points="381.744,-60.5001 371.744,-64 381.744,-67.5001 381.744,-60.5001"/>
</g>
</g>
</svg>
