<?xml version="1.0" encoding="UTF-8" standalone="no"?>
<!DOCTYPE svg PUBLIC "-//W3C//DTD SVG 1.1//EN"
 "http://www.w3.org/Graphics/SVG/1.1/DTD/svg11.dtd">
<!-- Generated by graphviz version 2.36.0 (20140111.2315)
 -->
<!-- Title: repo.programs.pythonpackages.pr.loadSPFiles.getAllSPSensor Pages: 1 -->
<svg width="638pt" height="87pt"
 viewBox="0.00 0.00 638.00 87.00" xmlns="http://www.w3.org/2000/svg" xmlns:xlink="http://www.w3.org/1999/xlink">
<g id="graph0" class="graph" transform="scale(1 1) rotate(0) translate(4 83)">
<title>repo.programs.pythonpackages.pr.loadSPFiles.getAllSPSensor</title>
<polygon fill="white" stroke="none" points="-4,4 -4,-83 634,-83 634,4 -4,4"/>
<!-- Node1 -->
<g id="node1" class="node"><title>Node1</title>
<polygon fill="#bfbfbf" stroke="black" points="0.5,-24 0.5,-54 185.5,-54 185.5,-24 0.5,-24"/>
<text text-anchor="start" x="8.5" y="-42" font-family="Helvetica,sans-Serif" font-size="10.00">repo.programs.pythonpackages.pr.load</text>
<text text-anchor="middle" x="93" y="-31" font-family="Helvetica,sans-Serif" font-size="10.00">SPFiles.getAllSPSensor</text>
</g>
<!-- Node2 -->
<g id="node2" class="node"><title>Node2</title>
<g id="a_node2"><a xlink:href="namespacerepo_1_1programs_1_1pythonpackages_1_1pr_1_1loadSPFiles.html#ac05316301b88456778eaedde597c8ed5" target="_top" xlink:title="OLD Load all the data associated with . ">
<polygon fill="white" stroke="black" points="222.5,-24 222.5,-54 407.5,-54 407.5,-24 222.5,-24"/>
<text text-anchor="start" x="230.5" y="-42" font-family="Helvetica,sans-Serif" font-size="10.00">repo.programs.pythonpackages.pr.load</text>
<text text-anchor="middle" x="315" y="-31" font-family="Helvetica,sans-Serif" font-size="10.00">SPFiles.loadSet</text>
</a>
</g>
</g>
<!-- Node1&#45;&gt;Node2 -->
<g id="edge1" class="edge"><title>Node1&#45;&gt;Node2</title>
<path fill="none" stroke="midnightblue" d="M185.707,-39C194.53,-39 203.515,-39 212.425,-39"/>
<polygon fill="midnightblue" stroke="midnightblue" points="212.442,-42.5001 222.442,-39 212.442,-35.5001 212.442,-42.5001"/>
</g>
<!-- Node3 -->
<g id="node3" class="node"><title>Node3</title>
<g id="a_node3"><a xlink:href="namespacerepo_1_1programs_1_1pythonpackages_1_1pr_1_1loadSPFiles.html#ad67a85b681c64920ca3d127dcbb8693a" target="_top" xlink:title="repo.programs.pythonpackages.pr.load\lSPFiles.getSpinningDataNames">
<polygon fill="white" stroke="black" points="444.5,-49 444.5,-79 629.5,-79 629.5,-49 444.5,-49"/>
<text text-anchor="start" x="452.5" y="-67" font-family="Helvetica,sans-Serif" font-size="10.00">repo.programs.pythonpackages.pr.load</text>
<text text-anchor="middle" x="537" y="-56" font-family="Helvetica,sans-Serif" font-size="10.00">SPFiles.getSpinningDataNames</text>
</a>
</g>
</g>
<!-- Node2&#45;&gt;Node3 -->
<g id="edge2" class="edge"><title>Node2&#45;&gt;Node3</title>
<path fill="none" stroke="midnightblue" d="M407.707,-49.4212C416.53,-50.4239 425.515,-51.4449 434.425,-52.4574"/>
<polygon fill="midnightblue" stroke="midnightblue" points="434.111,-55.9441 444.442,-53.5957 434.901,-48.9889 434.111,-55.9441"/>
</g>
<!-- Node4 -->
<g id="node4" class="node"><title>Node4</title>
<g id="a_node4"><a xlink:href="namespacerepo_1_1programs_1_1pythonpackages_1_1pr_1_1SPfuncs.html#acb6d178d4325b6c3d8fec4f8197d6819" target="_top" xlink:title="repo.programs.pythonpackages.pr.\lSPfuncs.renameFieldMaybe">
<polygon fill="white" stroke="black" points="453.5,-0 453.5,-30 620.5,-30 620.5,-0 453.5,-0"/>
<text text-anchor="start" x="461.5" y="-18" font-family="Helvetica,sans-Serif" font-size="10.00">repo.programs.pythonpackages.pr.</text>
<text text-anchor="middle" x="537" y="-7" font-family="Helvetica,sans-Serif" font-size="10.00">SPfuncs.renameFieldMaybe</text>
</a>
</g>
</g>
<!-- Node2&#45;&gt;Node4 -->
<g id="edge3" class="edge"><title>Node2&#45;&gt;Node4</title>
<path fill="none" stroke="midnightblue" d="M407.707,-28.9956C419.379,-27.7223 431.334,-26.4181 443.026,-25.1426"/>
<polygon fill="midnightblue" stroke="midnightblue" points="443.658,-28.5945 453.219,-24.0306 442.899,-21.6358 443.658,-28.5945"/>
</g>
</g>
</svg>
