<?xml version="1.0" encoding="UTF-8" standalone="no"?>
<!DOCTYPE svg PUBLIC "-//W3C//DTD SVG 1.1//EN"
 "http://www.w3.org/Graphics/SVG/1.1/DTD/svg11.dtd">
<!-- Generated by graphviz version 2.36.0 (20140111.2315)
 -->
<!-- Title: repo.programs.pythonpackages.pr.SPDataSet.seqFiltFuncAxisInterleave Pages: 1 -->
<svg width="394pt" height="87pt"
 viewBox="0.00 0.00 394.00 87.00" xmlns="http://www.w3.org/2000/svg" xmlns:xlink="http://www.w3.org/1999/xlink">
<g id="graph0" class="graph" transform="scale(1 1) rotate(0) translate(4 83)">
<title>repo.programs.pythonpackages.pr.SPDataSet.seqFiltFuncAxisInterleave</title>
<polygon fill="white" stroke="none" points="-4,4 -4,-83 390,-83 390,4 -4,4"/>
<!-- Node1 -->
<g id="node1" class="node"><title>Node1</title>
<polygon fill="#bfbfbf" stroke="black" points="0,-24 0,-54 182,-54 182,-24 0,-24"/>
<text text-anchor="start" x="8" y="-42" font-family="Helvetica,sans-Serif" font-size="10.00">repo.programs.pythonpackages.pr.</text>
<text text-anchor="middle" x="91" y="-31" font-family="Helvetica,sans-Serif" font-size="10.00">SPDataSet.seqFiltFuncAxisInterleave</text>
</g>
<!-- Node2 -->
<g id="node2" class="node"><title>Node2</title>
<g id="a_node2"><a xlink:href="namespacerepo_1_1programs_1_1pythonpackages_1_1pr_1_1SPDataSet.html#ae9bed330120419db29ade2d021ca34d7" target="_top" xlink:title="repo.programs.pythonpackages.pr.\lSPDataSet.seqFiltFuncInterleave">
<polygon fill="white" stroke="black" points="218.5,-49 218.5,-79 385.5,-79 385.5,-49 218.5,-49"/>
<text text-anchor="start" x="226.5" y="-67" font-family="Helvetica,sans-Serif" font-size="10.00">repo.programs.pythonpackages.pr.</text>
<text text-anchor="middle" x="302" y="-56" font-family="Helvetica,sans-Serif" font-size="10.00">SPDataSet.seqFiltFuncInterleave</text>
</a>
</g>
</g>
<!-- Node1&#45;&gt;Node2 -->
<g id="edge1" class="edge"><title>Node1&#45;&gt;Node2</title>
<path fill="none" stroke="midnightblue" d="M182.151,-49.7836C190.807,-50.819 199.596,-51.8703 208.275,-52.9085"/>
<polygon fill="midnightblue" stroke="midnightblue" points="208.054,-56.407 218.399,-54.1195 208.886,-49.4565 208.054,-56.407"/>
</g>
<!-- Node3 -->
<g id="node3" class="node"><title>Node3</title>
<g id="a_node3"><a xlink:href="namespacerepo_1_1programs_1_1pythonpackages_1_1pr_1_1SPDataSet.html#acf5db24745ff3b8a02816869e9b10482" target="_top" xlink:title="repo.programs.pythonpackages.pr.\lSPDataSet.seqFiltFuncAxis">
<polygon fill="white" stroke="black" points="218.5,-0 218.5,-30 385.5,-30 385.5,-0 218.5,-0"/>
<text text-anchor="start" x="226.5" y="-18" font-family="Helvetica,sans-Serif" font-size="10.00">repo.programs.pythonpackages.pr.</text>
<text text-anchor="middle" x="302" y="-7" font-family="Helvetica,sans-Serif" font-size="10.00">SPDataSet.seqFiltFuncAxis</text>
</a>
</g>
</g>
<!-- Node1&#45;&gt;Node3 -->
<g id="edge2" class="edge"><title>Node1&#45;&gt;Node3</title>
<path fill="none" stroke="midnightblue" d="M182.151,-28.6477C190.807,-27.6538 199.596,-26.6445 208.275,-25.6478"/>
<polygon fill="midnightblue" stroke="midnightblue" points="208.864,-29.1033 218.399,-24.4852 208.065,-22.149 208.864,-29.1033"/>
</g>
</g>
</svg>
