<?xml version="1.0" encoding="UTF-8" standalone="no"?>
<!DOCTYPE svg PUBLIC "-//W3C//DTD SVG 1.1//EN"
 "http://www.w3.org/Graphics/SVG/1.1/DTD/svg11.dtd">
<!-- Generated by graphviz version 2.36.0 (20140111.2315)
 -->
<!-- Title: repo.programs.pythonpackages.pr.SPfuncs.getRotationsFromRSpec Pages: 1 -->
<svg width="1954pt" height="380pt"
 viewBox="0.00 0.00 1954.00 380.01" xmlns="http://www.w3.org/2000/svg" xmlns:xlink="http://www.w3.org/1999/xlink">
<g id="graph0" class="graph" transform="scale(1 1) rotate(0) translate(4 376.009)">
<title>repo.programs.pythonpackages.pr.SPfuncs.getRotationsFromRSpec</title>
<polygon fill="white" stroke="none" points="-4,4 -4,-376.009 1950,-376.009 1950,4 -4,4"/>
<!-- Node1 -->
<g id="node1" class="node"><title>Node1</title>
<polygon fill="#bfbfbf" stroke="black" points="0.5,-114 0.5,-144 167.5,-144 167.5,-114 0.5,-114"/>
<text text-anchor="start" x="8.5" y="-132" font-family="Helvetica,sans-Serif" font-size="10.00">repo.programs.pythonpackages.pr.</text>
<text text-anchor="middle" x="84" y="-121" font-family="Helvetica,sans-Serif" font-size="10.00">SPfuncs.getRotationsFromRSpec</text>
</g>
<!-- Node2 -->
<g id="node2" class="node"><title>Node2</title>
<g id="a_node2"><a xlink:href="classrepo_1_1programs_1_1pythonpackages_1_1pr_1_1SPDataSet_1_1SPDataSet.html#a7482cde5c58c574e2c1ade31e06fcdb4" target="_top" xlink:title="repo.programs.pythonpackages.pr.\lSPDataSet.SPDataSet.apparatusRotations">
<polygon fill="white" stroke="black" points="204,-139 204,-169 410,-169 410,-139 204,-139"/>
<text text-anchor="start" x="212" y="-157" font-family="Helvetica,sans-Serif" font-size="10.00">repo.programs.pythonpackages.pr.</text>
<text text-anchor="middle" x="307" y="-146" font-family="Helvetica,sans-Serif" font-size="10.00">SPDataSet.SPDataSet.apparatusRotations</text>
</a>
</g>
</g>
<!-- Node1&#45;&gt;Node2 -->
<g id="edge1" class="edge"><title>Node1&#45;&gt;Node2</title>
<path fill="none" stroke="midnightblue" d="M177.631,-139.479C186.24,-140.453 194.998,-141.443 203.688,-142.426"/>
<polygon fill="midnightblue" stroke="midnightblue" points="177.937,-135.991 167.607,-138.345 177.15,-142.947 177.937,-135.991"/>
</g>
<!-- Node3 -->
<g id="node3" class="node"><title>Node3</title>
<g id="a_node3"><a xlink:href="namespacerepo_1_1programs_1_1pythonpackages_1_1pr_1_1SPfuncs.html#a2533afa952ea007cfad4a1deb6a607a5" target="_top" xlink:title="Return angles for the sequence defined by , repeated &#160;times. ">
<polygon fill="white" stroke="black" points="223.5,-90 223.5,-120 390.5,-120 390.5,-90 223.5,-90"/>
<text text-anchor="start" x="231.5" y="-108" font-family="Helvetica,sans-Serif" font-size="10.00">repo.programs.pythonpackages.pr.</text>
<text text-anchor="middle" x="307" y="-97" font-family="Helvetica,sans-Serif" font-size="10.00">SPfuncs.getAnglesFromRSpec</text>
</a>
</g>
</g>
<!-- Node1&#45;&gt;Node3 -->
<g id="edge2" class="edge"><title>Node1&#45;&gt;Node3</title>
<path fill="none" stroke="midnightblue" d="M177.982,-118.902C193.094,-117.261 208.654,-115.571 223.494,-113.96"/>
<polygon fill="midnightblue" stroke="midnightblue" points="177.17,-115.47 167.607,-120.029 177.926,-122.429 177.17,-115.47"/>
</g>
<!-- Node4 -->
<g id="node4" class="node"><title>Node4</title>
<g id="a_node4"><a xlink:href="classrepo_1_1programs_1_1pythonpackages_1_1pr_1_1SPDataSet_1_1SPDataSet.html#aee6249fe272c46f07d0f2f32f6c188d2" target="_top" xlink:title="repo.programs.pythonpackages.pr.\lSPDataSet.SPDataSet.apparatusAngles">
<polygon fill="white" stroke="black" points="446,-131 446,-161 640,-161 640,-131 446,-131"/>
<text text-anchor="start" x="454" y="-149" font-family="Helvetica,sans-Serif" font-size="10.00">repo.programs.pythonpackages.pr.</text>
<text text-anchor="middle" x="543" y="-138" font-family="Helvetica,sans-Serif" font-size="10.00">SPDataSet.SPDataSet.apparatusAngles</text>
</a>
</g>
</g>
<!-- Node3&#45;&gt;Node4 -->
<g id="edge3" class="edge"><title>Node3&#45;&gt;Node4</title>
<path fill="none" stroke="midnightblue" d="M400.859,-121.27C419.086,-124.464 438.13,-127.801 456.116,-130.952"/>
<polygon fill="midnightblue" stroke="midnightblue" points="401.283,-117.791 390.829,-119.513 400.075,-124.686 401.283,-117.791"/>
</g>
<!-- Node18 -->
<g id="node18" class="node"><title>Node18</title>
<g id="a_node18"><a xlink:href="namespacerepo_1_1programs_1_1pythonpackages_1_1pr_1_1SPfuncs.html#ae90ba18ae292290722e197cf242d8721" target="_top" xlink:title="Make up some data that the experiment might have measured. ">
<polygon fill="white" stroke="black" points="459.5,-49 459.5,-79 626.5,-79 626.5,-49 459.5,-49"/>
<text text-anchor="start" x="467.5" y="-67" font-family="Helvetica,sans-Serif" font-size="10.00">repo.programs.pythonpackages.pr.</text>
<text text-anchor="middle" x="543" y="-56" font-family="Helvetica,sans-Serif" font-size="10.00">SPfuncs.makeTestData</text>
</a>
</g>
</g>
<!-- Node3&#45;&gt;Node18 -->
<g id="edge28" class="edge"><title>Node3&#45;&gt;Node18</title>
<path fill="none" stroke="midnightblue" d="M400.831,-88.7348C420.139,-85.3516 440.367,-81.8076 459.282,-78.4933"/>
<polygon fill="midnightblue" stroke="midnightblue" points="400.075,-85.3138 390.829,-90.4872 401.283,-92.2088 400.075,-85.3138"/>
</g>
<!-- Node5 -->
<g id="node5" class="node"><title>Node5</title>
<g id="a_node5"><a xlink:href="classrepo_1_1programs_1_1pythonpackages_1_1pr_1_1SPDataSet_1_1SPDataSet.html#a5b12a3d9fdb93ccbf79a6b7a7893be3f" target="_top" xlink:title="repo.programs.pythonpackages.pr.\lSPDataSet.SPDataSet.cutAmp">
<polygon fill="white" stroke="black" points="676.5,-187 676.5,-217 843.5,-217 843.5,-187 676.5,-187"/>
<text text-anchor="start" x="684.5" y="-205" font-family="Helvetica,sans-Serif" font-size="10.00">repo.programs.pythonpackages.pr.</text>
<text text-anchor="middle" x="760" y="-194" font-family="Helvetica,sans-Serif" font-size="10.00">SPDataSet.SPDataSet.cutAmp</text>
</a>
</g>
</g>
<!-- Node4&#45;&gt;Node5 -->
<g id="edge4" class="edge"><title>Node4&#45;&gt;Node5</title>
<path fill="none" stroke="midnightblue" d="M611.595,-163.606C640.378,-171.103 673.609,-179.759 701.225,-186.952"/>
<polygon fill="midnightblue" stroke="midnightblue" points="612.175,-160.141 601.616,-161.007 610.411,-166.915 612.175,-160.141"/>
</g>
<!-- Node7 -->
<g id="node7" class="node"><title>Node7</title>
<g id="a_node7"><a xlink:href="classrepo_1_1programs_1_1pythonpackages_1_1pr_1_1SPDataSet_1_1SPDataSet.html#accbfa0185d4e416038e688fc9b55575b" target="_top" xlink:title="repo.programs.pythonpackages.pr.\lSPDataSet.SPDataSet.sequenceAmp">
<polygon fill="white" stroke="black" points="1308,-182 1308,-212 1492,-212 1492,-182 1308,-182"/>
<text text-anchor="start" x="1316" y="-200" font-family="Helvetica,sans-Serif" font-size="10.00">repo.programs.pythonpackages.pr.</text>
<text text-anchor="middle" x="1400" y="-189" font-family="Helvetica,sans-Serif" font-size="10.00">SPDataSet.SPDataSet.sequenceAmp</text>
</a>
</g>
</g>
<!-- Node4&#45;&gt;Node7 -->
<g id="edge26" class="edge"><title>Node4&#45;&gt;Node7</title>
<path fill="none" stroke="midnightblue" d="M650.217,-142.345C792.463,-138.98 1052.39,-138.199 1272,-167 1296.6,-170.226 1323.39,-176.181 1345.99,-181.94"/>
<polygon fill="midnightblue" stroke="midnightblue" points="650.092,-138.847 640.181,-142.591 650.263,-145.845 650.092,-138.847"/>
</g>
<!-- Node14 -->
<g id="node14" class="node"><title>Node14</title>
<g id="a_node14"><a xlink:href="classrepo_1_1programs_1_1pythonpackages_1_1pr_1_1SPDataSet_1_1SPDataSet.html#a5ad35e931371981e41221502928547d5" target="_top" xlink:title="Check that the calculated apparatus directions fit with the available data. ">
<polygon fill="white" stroke="black" points="1534,-89 1534,-119 1726,-119 1726,-89 1534,-89"/>
<text text-anchor="start" x="1542" y="-107" font-family="Helvetica,sans-Serif" font-size="10.00">repo.programs.pythonpackages.pr.</text>
<text text-anchor="middle" x="1630" y="-96" font-family="Helvetica,sans-Serif" font-size="10.00">SPDataSet.SPDataSet.checkDirections</text>
</a>
</g>
</g>
<!-- Node4&#45;&gt;Node14 -->
<g id="edge27" class="edge"><title>Node4&#45;&gt;Node14</title>
<path fill="none" stroke="midnightblue" d="M650.424,-130.995C734.969,-120.37 856.314,-108 963,-108 963,-108 963,-108 1179,-108 1301.47,-108 1442.67,-106.5 1533.75,-105.338"/>
<polygon fill="midnightblue" stroke="midnightblue" points="649.778,-127.549 640.299,-132.281 650.66,-134.493 649.778,-127.549"/>
</g>
<!-- Node15 -->
<g id="node15" class="node"><title>Node15</title>
<g id="a_node15"><a xlink:href="classrepo_1_1programs_1_1pythonpackages_1_1pr_1_1SPDataSet_1_1SPDataSet.html#a6f2c3de2aa708d686f5835f10e2d096d" target="_top" xlink:title="repo.programs.pythonpackages.pr.\lSPDataSet.SPDataSet.pointAmp">
<polygon fill="white" stroke="black" points="880.5,-262 880.5,-292 1047.5,-292 1047.5,-262 880.5,-262"/>
<text text-anchor="start" x="888.5" y="-280" font-family="Helvetica,sans-Serif" font-size="10.00">repo.programs.pythonpackages.pr.</text>
<text text-anchor="middle" x="964" y="-269" font-family="Helvetica,sans-Serif" font-size="10.00">SPDataSet.SPDataSet.pointAmp</text>
</a>
</g>
</g>
<!-- Node4&#45;&gt;Node15 -->
<g id="edge25" class="edge"><title>Node4&#45;&gt;Node15</title>
<path fill="none" stroke="midnightblue" d="M565.923,-168.108C590.425,-191.311 632.411,-226.764 676,-244 741.53,-269.912 821.579,-277.322 880.471,-278.733"/>
<polygon fill="midnightblue" stroke="midnightblue" points="568.229,-165.469 558.603,-161.043 563.368,-170.506 568.229,-165.469"/>
</g>
<!-- Node5&#45;&gt;Node5 -->
<g id="edge5" class="edge"><title>Node5&#45;&gt;Node5</title>
<path fill="none" stroke="midnightblue" d="M724.292,-227.598C729.172,-231.97 741.074,-235 760,-235 791.875,-235 803.828,-226.406 795.859,-217.275"/>
<polygon fill="midnightblue" stroke="midnightblue" points="727.787,-227.223 724.141,-217.275 720.788,-227.326 727.787,-227.223"/>
</g>
<!-- Node6 -->
<g id="node6" class="node"><title>Node6</title>
<g id="a_node6"><a xlink:href="classrepo_1_1programs_1_1pythonpackages_1_1pr_1_1SPDataSet_1_1SPDataSet.html#a9eac955cac12a62b72d189aa80b82ec6" target="_top" xlink:title="repo.programs.pythonpackages.pr.\lSPDataSet.SPDataSet.filteredCutAmp">
<polygon fill="white" stroke="black" points="1084.5,-177 1084.5,-207 1271.5,-207 1271.5,-177 1084.5,-177"/>
<text text-anchor="start" x="1092.5" y="-195" font-family="Helvetica,sans-Serif" font-size="10.00">repo.programs.pythonpackages.pr.</text>
<text text-anchor="middle" x="1178" y="-184" font-family="Helvetica,sans-Serif" font-size="10.00">SPDataSet.SPDataSet.filteredCutAmp</text>
</a>
</g>
</g>
<!-- Node5&#45;&gt;Node6 -->
<g id="edge6" class="edge"><title>Node5&#45;&gt;Node6</title>
<path fill="none" stroke="midnightblue" d="M854.061,-199.763C922.727,-198.112 1015.75,-195.876 1084.33,-194.228"/>
<polygon fill="midnightblue" stroke="midnightblue" points="853.599,-196.273 843.686,-200.012 853.767,-203.271 853.599,-196.273"/>
</g>
<!-- Node5&#45;&gt;Node15 -->
<g id="edge18" class="edge"><title>Node5&#45;&gt;Node15</title>
<path fill="none" stroke="midnightblue" d="M803.5,-221.138C826.012,-230.948 854.26,-242.745 880,-252 889.63,-255.463 900,-258.849 910.038,-261.957"/>
<polygon fill="midnightblue" stroke="midnightblue" points="804.79,-217.882 794.226,-217.068 801.977,-224.292 804.79,-217.882"/>
</g>
<!-- Node17 -->
<g id="node17" class="node"><title>Node17</title>
<g id="a_node17"><a xlink:href="classrepo_1_1programs_1_1pythonpackages_1_1pr_1_1SPDataSet_1_1SPDataSet.html#a5343a59b34ffebfc31c1dfd06ddfa889" target="_top" xlink:title="repo.programs.pythonpackages.pr.\lSPDataSet.SPDataSet.viewRaw">
<polygon fill="white" stroke="black" points="880.5,-213 880.5,-243 1047.5,-243 1047.5,-213 880.5,-213"/>
<text text-anchor="start" x="888.5" y="-231" font-family="Helvetica,sans-Serif" font-size="10.00">repo.programs.pythonpackages.pr.</text>
<text text-anchor="middle" x="964" y="-220" font-family="Helvetica,sans-Serif" font-size="10.00">SPDataSet.SPDataSet.viewRaw</text>
</a>
</g>
</g>
<!-- Node5&#45;&gt;Node17 -->
<g id="edge24" class="edge"><title>Node5&#45;&gt;Node17</title>
<path fill="none" stroke="midnightblue" d="M853.731,-213.936C862.622,-215.08 871.6,-216.236 880.385,-217.366"/>
<polygon fill="midnightblue" stroke="midnightblue" points="854.109,-210.456 843.744,-212.65 853.215,-217.398 854.109,-210.456"/>
</g>
<!-- Node6&#45;&gt;Node7 -->
<g id="edge7" class="edge"><title>Node6&#45;&gt;Node7</title>
<path fill="none" stroke="midnightblue" d="M1281.82,-194.337C1290.51,-194.534 1299.26,-194.733 1307.85,-194.928"/>
<polygon fill="midnightblue" stroke="midnightblue" points="1281.74,-190.834 1271.66,-194.106 1281.58,-197.832 1281.74,-190.834"/>
</g>
<!-- Node7&#45;&gt;Node7 -->
<g id="edge8" class="edge"><title>Node7&#45;&gt;Node7</title>
<path fill="none" stroke="midnightblue" d="M1361.14,-222.598C1366.45,-226.97 1379.4,-230 1400,-230 1434.69,-230 1447.7,-221.406 1439.02,-212.275"/>
<polygon fill="midnightblue" stroke="midnightblue" points="1364.64,-222.218 1360.98,-212.275 1357.64,-222.33 1364.64,-222.218"/>
</g>
<!-- Node8 -->
<g id="node8" class="node"><title>Node8</title>
<g id="a_node8"><a xlink:href="classrepo_1_1programs_1_1pythonpackages_1_1pr_1_1SPDataSet_1_1SPDataSet.html#ac0df54b82a9e993d707f0dafd87a19dd" target="_top" xlink:title="repo.programs.pythonpackages.pr.\lSPDataSet.SPDataSet.labAmp">
<polygon fill="white" stroke="black" points="1546.5,-226 1546.5,-256 1713.5,-256 1713.5,-226 1546.5,-226"/>
<text text-anchor="start" x="1554.5" y="-244" font-family="Helvetica,sans-Serif" font-size="10.00">repo.programs.pythonpackages.pr.</text>
<text text-anchor="middle" x="1630" y="-233" font-family="Helvetica,sans-Serif" font-size="10.00">SPDataSet.SPDataSet.labAmp</text>
</a>
</g>
</g>
<!-- Node7&#45;&gt;Node8 -->
<g id="edge9" class="edge"><title>Node7&#45;&gt;Node8</title>
<path fill="none" stroke="midnightblue" d="M1488.8,-213.944C1509.33,-217.907 1531.07,-222.101 1551.14,-225.974"/>
<polygon fill="midnightblue" stroke="midnightblue" points="1489.31,-210.478 1478.83,-212.019 1487.98,-217.351 1489.31,-210.478"/>
</g>
<!-- Node9 -->
<g id="node9" class="node"><title>Node9</title>
<g id="a_node9"><a xlink:href="classrepo_1_1programs_1_1pythonpackages_1_1pr_1_1SPDataSet_1_1SPDataSet.html#a3624263a6738178d243635889b719a90" target="_top" xlink:title="repo.programs.pythonpackages.pr.\lSPDataSet.SPDataSet.viewSid">
<polygon fill="white" stroke="black" points="1773.5,-182 1773.5,-212 1940.5,-212 1940.5,-182 1773.5,-182"/>
<text text-anchor="start" x="1781.5" y="-200" font-family="Helvetica,sans-Serif" font-size="10.00">repo.programs.pythonpackages.pr.</text>
<text text-anchor="middle" x="1857" y="-189" font-family="Helvetica,sans-Serif" font-size="10.00">SPDataSet.SPDataSet.viewSid</text>
</a>
</g>
</g>
<!-- Node7&#45;&gt;Node9 -->
<g id="edge15" class="edge"><title>Node7&#45;&gt;Node9</title>
<path fill="none" stroke="midnightblue" d="M1502.54,-197C1584.11,-197 1697.21,-197 1773.31,-197"/>
<polygon fill="midnightblue" stroke="midnightblue" points="1502.26,-193.5 1492.26,-197 1502.26,-200.5 1502.26,-193.5"/>
</g>
<!-- Node10 -->
<g id="node10" class="node"><title>Node10</title>
<g id="a_node10"><a xlink:href="classrepo_1_1programs_1_1pythonpackages_1_1pr_1_1SPDataSet_1_1SPDataSet.html#acf495c99c803a2a1e23cdaeae34da985" target="_top" xlink:title="repo.programs.pythonpackages.pr.\lSPDataSet.SPDataSet.sidAmp">
<polygon fill="white" stroke="black" points="1546.5,-138 1546.5,-168 1713.5,-168 1713.5,-138 1546.5,-138"/>
<text text-anchor="start" x="1554.5" y="-156" font-family="Helvetica,sans-Serif" font-size="10.00">repo.programs.pythonpackages.pr.</text>
<text text-anchor="middle" x="1630" y="-145" font-family="Helvetica,sans-Serif" font-size="10.00">SPDataSet.SPDataSet.sidAmp</text>
</a>
</g>
</g>
<!-- Node7&#45;&gt;Node10 -->
<g id="edge11" class="edge"><title>Node7&#45;&gt;Node10</title>
<path fill="none" stroke="midnightblue" d="M1488.8,-180.056C1509.33,-176.093 1531.07,-171.899 1551.14,-168.026"/>
<polygon fill="midnightblue" stroke="midnightblue" points="1487.98,-176.649 1478.83,-181.981 1489.31,-183.522 1487.98,-176.649"/>
</g>
<!-- Node11 -->
<g id="node11" class="node"><title>Node11</title>
<g id="a_node11"><a xlink:href="classrepo_1_1programs_1_1pythonpackages_1_1pr_1_1SPDataSet_1_1SPDataSet.html#ac55c6ccc03634d3f670f52e89188779c" target="_top" xlink:title="repo.programs.pythonpackages.pr.\lSPDataSet.SPDataSet.viewSeq">
<polygon fill="white" stroke="black" points="1546.5,-335 1546.5,-365 1713.5,-365 1713.5,-335 1546.5,-335"/>
<text text-anchor="start" x="1554.5" y="-353" font-family="Helvetica,sans-Serif" font-size="10.00">repo.programs.pythonpackages.pr.</text>
<text text-anchor="middle" x="1630" y="-342" font-family="Helvetica,sans-Serif" font-size="10.00">SPDataSet.SPDataSet.viewSeq</text>
</a>
</g>
</g>
<!-- Node7&#45;&gt;Node11 -->
<g id="edge13" class="edge"><title>Node7&#45;&gt;Node11</title>
<path fill="none" stroke="midnightblue" d="M1420.56,-219.899C1443.84,-245.881 1484.98,-288.012 1528,-314 1542.18,-322.567 1558.71,-329.528 1574.24,-334.965"/>
<polygon fill="midnightblue" stroke="midnightblue" points="1423.18,-217.569 1413.93,-212.389 1417.93,-222.202 1423.18,-217.569"/>
</g>
<!-- Node13 -->
<g id="node13" class="node"><title>Node13</title>
<g id="a_node13"><a xlink:href="classrepo_1_1programs_1_1pythonpackages_1_1pr_1_1SPDataSet_1_1SPDataSet.html#a5aad808c592bfdbb665105df2947610f" target="_top" xlink:title="repo.programs.pythonpackages.pr.\lSPDataSet.SPDataSet.viewCorrelationFilt">
<polygon fill="white" stroke="black" points="1528.5,-275 1528.5,-305 1731.5,-305 1731.5,-275 1528.5,-275"/>
<text text-anchor="start" x="1536.5" y="-293" font-family="Helvetica,sans-Serif" font-size="10.00">repo.programs.pythonpackages.pr.</text>
<text text-anchor="middle" x="1630" y="-282" font-family="Helvetica,sans-Serif" font-size="10.00">SPDataSet.SPDataSet.viewCorrelationFilt</text>
</a>
</g>
</g>
<!-- Node7&#45;&gt;Node13 -->
<g id="edge16" class="edge"><title>Node7&#45;&gt;Node13</title>
<path fill="none" stroke="midnightblue" d="M1433.67,-217.425C1458.71,-232.342 1494.53,-252.128 1528,-265 1537.69,-268.728 1548.13,-272.043 1558.48,-274.941"/>
<polygon fill="midnightblue" stroke="midnightblue" points="1435.33,-214.339 1424.96,-212.172 1431.72,-220.333 1435.33,-214.339"/>
</g>
<!-- Node7&#45;&gt;Node14 -->
<g id="edge17" class="edge"><title>Node7&#45;&gt;Node14</title>
<path fill="none" stroke="midnightblue" d="M1433.13,-176.44C1458.15,-161.211 1494.19,-140.94 1528,-128 1536.75,-124.65 1546.12,-121.671 1555.48,-119.05"/>
<polygon fill="midnightblue" stroke="midnightblue" points="1431.11,-173.572 1424.44,-181.799 1434.79,-179.531 1431.11,-173.572"/>
</g>
<!-- Node8&#45;&gt;Node9 -->
<g id="edge10" class="edge"><title>Node8&#45;&gt;Node9</title>
<path fill="none" stroke="midnightblue" d="M1717.64,-224.056C1737.91,-220.093 1759.36,-215.899 1779.16,-212.026"/>
<polygon fill="midnightblue" stroke="midnightblue" points="1716.95,-220.627 1707.8,-225.981 1718.29,-227.496 1716.95,-220.627"/>
</g>
<!-- Node10&#45;&gt;Node9 -->
<g id="edge12" class="edge"><title>Node10&#45;&gt;Node9</title>
<path fill="none" stroke="midnightblue" d="M1717.64,-169.944C1737.91,-173.907 1759.36,-178.101 1779.16,-181.974"/>
<polygon fill="midnightblue" stroke="midnightblue" points="1718.29,-166.504 1707.8,-168.019 1716.95,-173.373 1718.29,-166.504"/>
</g>
<!-- Node12 -->
<g id="node12" class="node"><title>Node12</title>
<g id="a_node12"><a xlink:href="classrepo_1_1programs_1_1pythonpackages_1_1pr_1_1SPDataSet_1_1SPDataSet.html#a0c87af10688edd55eb0aea229e5979bb" target="_top" xlink:title="repo.programs.pythonpackages.pr.\lSPDataSet.SPDataSet.viewSensors">
<polygon fill="white" stroke="black" points="1768,-335 1768,-365 1946,-365 1946,-335 1768,-335"/>
<text text-anchor="start" x="1776" y="-353" font-family="Helvetica,sans-Serif" font-size="10.00">repo.programs.pythonpackages.pr.</text>
<text text-anchor="middle" x="1857" y="-342" font-family="Helvetica,sans-Serif" font-size="10.00">SPDataSet.SPDataSet.viewSensors</text>
</a>
</g>
</g>
<!-- Node11&#45;&gt;Node12 -->
<g id="edge14" class="edge"><title>Node11&#45;&gt;Node12</title>
<path fill="none" stroke="midnightblue" d="M1723.55,-350C1738.19,-350 1753.29,-350 1767.83,-350"/>
<polygon fill="midnightblue" stroke="midnightblue" points="1723.5,-346.5 1713.5,-350 1723.5,-353.5 1723.5,-346.5"/>
</g>
<!-- Node15&#45;&gt;Node6 -->
<g id="edge19" class="edge"><title>Node15&#45;&gt;Node6</title>
<path fill="none" stroke="midnightblue" d="M1034.92,-258.219C1039.43,-256.314 1043.83,-254.244 1048,-252 1066.34,-242.131 1065.76,-232.047 1084,-222 1094.7,-216.108 1106.74,-211.157 1118.51,-207.084"/>
<polygon fill="midnightblue" stroke="midnightblue" points="1033.58,-254.986 1025.55,-261.9 1036.14,-261.502 1033.58,-254.986"/>
</g>
<!-- Node15&#45;&gt;Node7 -->
<g id="edge20" class="edge"><title>Node15&#45;&gt;Node7</title>
<path fill="none" stroke="midnightblue" d="M1056.57,-260.121C1133.7,-245.902 1243.05,-225.747 1317.27,-212.066"/>
<polygon fill="midnightblue" stroke="midnightblue" points="1055.58,-256.745 1046.38,-262 1056.85,-263.629 1055.58,-256.745"/>
</g>
<!-- Node15&#45;&gt;Node11 -->
<g id="edge21" class="edge"><title>Node15&#45;&gt;Node11</title>
<path fill="none" stroke="midnightblue" d="M993.475,-297.747C1016.59,-313.258 1050.69,-333.235 1084,-342 1243.23,-383.9 1437.78,-372.538 1546.08,-360.96"/>
<polygon fill="midnightblue" stroke="midnightblue" points="995.406,-294.827 985.18,-292.054 991.445,-300.598 995.406,-294.827"/>
</g>
<!-- Node15&#45;&gt;Node13 -->
<g id="edge22" class="edge"><title>Node15&#45;&gt;Node13</title>
<path fill="none" stroke="midnightblue" d="M1057.98,-278.82C1181.97,-281.248 1400.61,-285.528 1528.36,-288.03"/>
<polygon fill="midnightblue" stroke="midnightblue" points="1057.82,-275.317 1047.75,-278.62 1057.68,-282.315 1057.82,-275.317"/>
</g>
<!-- Node16 -->
<g id="node16" class="node"><title>Node16</title>
<g id="a_node16"><a xlink:href="classrepo_1_1programs_1_1pythonpackages_1_1pr_1_1SPDataSet_1_1SPDataSet.html#a2ffa7a6de1e0ebd8172db800621eed20" target="_top" xlink:title="repo.programs.pythonpackages.pr.\lSPDataSet.SPDataSet.test_div">
<polygon fill="white" stroke="black" points="1094.5,-303 1094.5,-333 1261.5,-333 1261.5,-303 1094.5,-303"/>
<text text-anchor="start" x="1102.5" y="-321" font-family="Helvetica,sans-Serif" font-size="10.00">repo.programs.pythonpackages.pr.</text>
<text text-anchor="middle" x="1178" y="-310" font-family="Helvetica,sans-Serif" font-size="10.00">SPDataSet.SPDataSet.test_div</text>
</a>
</g>
</g>
<!-- Node15&#45;&gt;Node16 -->
<g id="edge23" class="edge"><title>Node15&#45;&gt;Node16</title>
<path fill="none" stroke="midnightblue" d="M1052.78,-293.976C1068.2,-296.958 1084.15,-300.043 1099.27,-302.968"/>
<polygon fill="midnightblue" stroke="midnightblue" points="1053.22,-290.497 1042.74,-292.034 1051.89,-297.369 1053.22,-290.497"/>
</g>
<!-- Node19 -->
<g id="node19" class="node"><title>Node19</title>
<g id="a_node19"><a xlink:href="namespacerepo_1_1programs_1_1pythonpackages_1_1pr_1_1SPDataSet.html#ab3e94a5db004f2a1cbe3b89005731d7c" target="_top" xlink:title="repo.programs.pythonpackages.pr.\lSPDataSet.testDS">
<polygon fill="white" stroke="black" points="676.5,-49 676.5,-79 843.5,-79 843.5,-49 676.5,-49"/>
<text text-anchor="start" x="684.5" y="-67" font-family="Helvetica,sans-Serif" font-size="10.00">repo.programs.pythonpackages.pr.</text>
<text text-anchor="middle" x="760" y="-56" font-family="Helvetica,sans-Serif" font-size="10.00">SPDataSet.testDS</text>
</a>
</g>
</g>
<!-- Node18&#45;&gt;Node19 -->
<g id="edge29" class="edge"><title>Node18&#45;&gt;Node19</title>
<path fill="none" stroke="midnightblue" d="M636.555,-64C649.789,-64 663.33,-64 676.356,-64"/>
<polygon fill="midnightblue" stroke="midnightblue" points="636.51,-60.5001 626.51,-64 636.51,-67.5001 636.51,-60.5001"/>
</g>
<!-- Node20 -->
<g id="node20" class="node"><title>Node20</title>
<g id="a_node20"><a xlink:href="namespacerepo_1_1programs_1_1pythonpackages_1_1pr_1_1SPDataSet.html#ae343b1ec862928d74ae9f6e140008b0d" target="_top" xlink:title="repo.programs.pythonpackages.pr.\lSPDataSet.testDS2">
<polygon fill="white" stroke="black" points="676.5,-0 676.5,-30 843.5,-30 843.5,-0 676.5,-0"/>
<text text-anchor="start" x="684.5" y="-18" font-family="Helvetica,sans-Serif" font-size="10.00">repo.programs.pythonpackages.pr.</text>
<text text-anchor="middle" x="760" y="-7" font-family="Helvetica,sans-Serif" font-size="10.00">SPDataSet.testDS2</text>
</a>
</g>
</g>
<!-- Node18&#45;&gt;Node20 -->
<g id="edge30" class="edge"><title>Node18&#45;&gt;Node20</title>
<path fill="none" stroke="midnightblue" d="M619.724,-46.7419C643.681,-41.282 669.951,-35.295 693.157,-30.0062"/>
<polygon fill="midnightblue" stroke="midnightblue" points="618.94,-43.3307 609.968,-48.9654 620.496,-50.1557 618.94,-43.3307"/>
</g>
</g>
</svg>
