<?xml version="1.0" encoding="UTF-8" standalone="no"?>
<!DOCTYPE svg PUBLIC "-//W3C//DTD SVG 1.1//EN"
 "http://www.w3.org/Graphics/SVG/1.1/DTD/svg11.dtd">
<!-- Generated by graphviz version 2.36.0 (20140111.2315)
 -->
<!-- Title: repo.programs.pythonpackages.pr.sdtime.secs2sd Pages: 1 -->
<svg width="510pt" height="66pt"
 viewBox="0.00 0.00 510.00 66.00" xmlns="http://www.w3.org/2000/svg" xmlns:xlink="http://www.w3.org/1999/xlink">
<g id="graph0" class="graph" transform="scale(1 1) rotate(0) translate(4 62)">
<title>repo.programs.pythonpackages.pr.sdtime.secs2sd</title>
<polygon fill="white" stroke="none" points="-4,4 -4,-62 506,-62 506,4 -4,4"/>
<!-- Node1 -->
<g id="node1" class="node"><title>Node1</title>
<polygon fill="#bfbfbf" stroke="black" points="0,-19.5 0,-38.5 236,-38.5 236,-19.5 0,-19.5"/>
<text text-anchor="middle" x="118" y="-26.5" font-family="Helvetica,sans-Serif" font-size="10.00">repo.programs.pythonpackages.pr.sdtime.secs2sd</text>
</g>
<!-- Node2 -->
<g id="node2" class="node"><title>Node2</title>
<g id="a_node2"><a xlink:href="namespacerepo_1_1programs_1_1pythonpackages_1_1pr_1_1sdtime.html#ace685a49213778d5d1d332877d6aba88" target="_top" xlink:title="repo.programs.pythonpackages.pr.sdtime.sdNow">
<polygon fill="white" stroke="black" points="272,-38.5 272,-57.5 502,-57.5 502,-38.5 272,-38.5"/>
<text text-anchor="middle" x="387" y="-45.5" font-family="Helvetica,sans-Serif" font-size="10.00">repo.programs.pythonpackages.pr.sdtime.sdNow</text>
</a>
</g>
</g>
<!-- Node1&#45;&gt;Node2 -->
<g id="edge1" class="edge"><title>Node1&#45;&gt;Node2</title>
<path fill="none" stroke="midnightblue" d="M246.192,-38.0511C254.802,-38.6638 263.447,-39.279 271.983,-39.8864"/>
<polygon fill="midnightblue" stroke="midnightblue" points="246.333,-34.5524 236.11,-37.3337 245.836,-41.5348 246.333,-34.5524"/>
</g>
<!-- Node3 -->
<g id="node3" class="node"><title>Node3</title>
<g id="a_node3"><a xlink:href="namespacerepo_1_1programs_1_1pythonpackages_1_1pr_1_1sdtime.html#a5d2548fae8d4ed6901f999ff428401f4" target="_top" xlink:title="repo.programs.pythonpackages.pr.sdtime.loc2sd">
<polygon fill="white" stroke="black" points="273,-0.5 273,-19.5 501,-19.5 501,-0.5 273,-0.5"/>
<text text-anchor="middle" x="387" y="-7.5" font-family="Helvetica,sans-Serif" font-size="10.00">repo.programs.pythonpackages.pr.sdtime.loc2sd</text>
</a>
</g>
</g>
<!-- Node1&#45;&gt;Node3 -->
<g id="edge2" class="edge"><title>Node1&#45;&gt;Node3</title>
<path fill="none" stroke="midnightblue" d="M246.143,-19.9524C255.051,-19.3185 263.996,-18.6819 272.821,-18.0539"/>
<polygon fill="midnightblue" stroke="midnightblue" points="245.836,-16.4652 236.11,-20.6663 246.333,-23.4476 245.836,-16.4652"/>
</g>
</g>
</svg>
