<?xml version="1.0" encoding="UTF-8" standalone="no"?>
<!DOCTYPE svg PUBLIC "-//W3C//DTD SVG 1.1//EN"
 "http://www.w3.org/Graphics/SVG/1.1/DTD/svg11.dtd">
<!-- Generated by graphviz version 2.36.0 (20140111.2315)
 -->
<!-- Title: repo.programs.pythonpackages.pr.SPfuncs.renameFieldMaybe Pages: 1 -->
<svg width="1928pt" height="368pt"
 viewBox="0.00 0.00 1928.00 368.00" xmlns="http://www.w3.org/2000/svg" xmlns:xlink="http://www.w3.org/1999/xlink">
<g id="graph0" class="graph" transform="scale(1 1) rotate(0) translate(4 364)">
<title>repo.programs.pythonpackages.pr.SPfuncs.renameFieldMaybe</title>
<polygon fill="white" stroke="none" points="-4,4 -4,-364 1924,-364 1924,4 -4,4"/>
<!-- Node1 -->
<g id="node1" class="node"><title>Node1</title>
<polygon fill="#bfbfbf" stroke="black" points="0.5,-98 0.5,-128 167.5,-128 167.5,-98 0.5,-98"/>
<text text-anchor="start" x="8.5" y="-116" font-family="Helvetica,sans-Serif" font-size="10.00">repo.programs.pythonpackages.pr.</text>
<text text-anchor="middle" x="84" y="-105" font-family="Helvetica,sans-Serif" font-size="10.00">SPfuncs.renameFieldMaybe</text>
</g>
<!-- Node2 -->
<g id="node2" class="node"><title>Node2</title>
<g id="a_node2"><a xlink:href="namespacerepo_1_1programs_1_1pythonpackages_1_1pr_1_1loadSPFiles.html#ac05316301b88456778eaedde597c8ed5" target="_top" xlink:title="OLD Load all the data associated with . ">
<polygon fill="white" stroke="black" points="205.5,-196 205.5,-226 390.5,-226 390.5,-196 205.5,-196"/>
<text text-anchor="start" x="213.5" y="-214" font-family="Helvetica,sans-Serif" font-size="10.00">repo.programs.pythonpackages.pr.load</text>
<text text-anchor="middle" x="298" y="-203" font-family="Helvetica,sans-Serif" font-size="10.00">SPFiles.loadSet</text>
</a>
</g>
</g>
<!-- Node1&#45;&gt;Node2 -->
<g id="edge1" class="edge"><title>Node1&#45;&gt;Node2</title>
<path fill="none" stroke="midnightblue" d="M113.88,-134.001C137.217,-150.142 171.428,-171.981 204,-186 212.754,-189.767 222.22,-193.097 231.647,-195.996"/>
<polygon fill="midnightblue" stroke="midnightblue" points="115.692,-130.996 105.495,-128.122 111.674,-136.728 115.692,-130.996"/>
</g>
<!-- Node4 -->
<g id="node4" class="node"><title>Node4</title>
<g id="a_node4"><a xlink:href="classrepo_1_1programs_1_1pythonpackages_1_1pr_1_1SPDataSet_1_1SPDataSet.html#a9eef53392c7e7ad757cefde737a6cb69" target="_top" xlink:title="repo.programs.pythonpackages.pr.\lSPDataSet.SPDataSet.medD">
<polygon fill="white" stroke="black" points="214.5,-98 214.5,-128 381.5,-128 381.5,-98 214.5,-98"/>
<text text-anchor="start" x="222.5" y="-116" font-family="Helvetica,sans-Serif" font-size="10.00">repo.programs.pythonpackages.pr.</text>
<text text-anchor="middle" x="298" y="-105" font-family="Helvetica,sans-Serif" font-size="10.00">SPDataSet.SPDataSet.medD</text>
</a>
</g>
</g>
<!-- Node1&#45;&gt;Node4 -->
<g id="edge3" class="edge"><title>Node1&#45;&gt;Node4</title>
<path fill="none" stroke="midnightblue" d="M177.728,-113C189.901,-113 202.312,-113 214.305,-113"/>
<polygon fill="midnightblue" stroke="midnightblue" points="177.572,-109.5 167.572,-113 177.572,-116.5 177.572,-109.5"/>
</g>
<!-- Node19 -->
<g id="node19" class="node"><title>Node19</title>
<g id="a_node19"><a xlink:href="classrepo_1_1programs_1_1pythonpackages_1_1pr_1_1SPDataSet_1_1SPDataSet.html#a8f689441aa1ded0237cabae51f95954f" target="_top" xlink:title="repo.programs.pythonpackages.pr.\lSPDataSet.SPDataSet.motorPositions">
<polygon fill="white" stroke="black" points="204.5,-49 204.5,-79 391.5,-79 391.5,-49 204.5,-49"/>
<text text-anchor="start" x="212.5" y="-67" font-family="Helvetica,sans-Serif" font-size="10.00">repo.programs.pythonpackages.pr.</text>
<text text-anchor="middle" x="298" y="-56" font-family="Helvetica,sans-Serif" font-size="10.00">SPDataSet.SPDataSet.motorPositions</text>
</a>
</g>
</g>
<!-- Node1&#45;&gt;Node19 -->
<g id="edge28" class="edge"><title>Node1&#45;&gt;Node19</title>
<path fill="none" stroke="midnightblue" d="M159.983,-95.6691C183.52,-90.2288 209.295,-84.2715 232.075,-79.0062"/>
<polygon fill="midnightblue" stroke="midnightblue" points="159.003,-92.3033 150.048,-97.9654 160.579,-99.1235 159.003,-92.3033"/>
</g>
<!-- Node20 -->
<g id="node20" class="node"><title>Node20</title>
<g id="a_node20"><a xlink:href="classrepo_1_1programs_1_1pythonpackages_1_1pr_1_1SPDataSet_1_1SPDataSet.html#a1f51629896a09eb4e5d3c09c44b4823b" target="_top" xlink:title="repo.programs.pythonpackages.pr.\lSPDataSet.SPDataSet.motorSensors">
<polygon fill="white" stroke="black" points="207,-0 207,-30 389,-30 389,-0 207,-0"/>
<text text-anchor="start" x="215" y="-18" font-family="Helvetica,sans-Serif" font-size="10.00">repo.programs.pythonpackages.pr.</text>
<text text-anchor="middle" x="298" y="-7" font-family="Helvetica,sans-Serif" font-size="10.00">SPDataSet.SPDataSet.motorSensors</text>
</a>
</g>
</g>
<!-- Node1&#45;&gt;Node20 -->
<g id="edge29" class="edge"><title>Node1&#45;&gt;Node20</title>
<path fill="none" stroke="midnightblue" d="M113.88,-91.9993C137.217,-75.8579 171.428,-54.0189 204,-40 212.754,-36.2326 222.22,-32.9034 231.647,-30.0041"/>
<polygon fill="midnightblue" stroke="midnightblue" points="111.674,-89.2719 105.495,-97.8785 115.692,-95.0036 111.674,-89.2719"/>
</g>
<!-- Node21 -->
<g id="node21" class="node"><title>Node21</title>
<g id="a_node21"><a xlink:href="classrepo_1_1programs_1_1pythonpackages_1_1pr_1_1SPDataSet_1_1SPDataSet.html#a6478ef339e0e44839e478fec7340c6b0" target="_top" xlink:title="repo.programs.pythonpackages.pr.\lSPDataSet.SPDataSet.relD">
<polygon fill="white" stroke="black" points="214.5,-147 214.5,-177 381.5,-177 381.5,-147 214.5,-147"/>
<text text-anchor="start" x="222.5" y="-165" font-family="Helvetica,sans-Serif" font-size="10.00">repo.programs.pythonpackages.pr.</text>
<text text-anchor="middle" x="298" y="-154" font-family="Helvetica,sans-Serif" font-size="10.00">SPDataSet.SPDataSet.relD</text>
</a>
</g>
</g>
<!-- Node1&#45;&gt;Node21 -->
<g id="edge30" class="edge"><title>Node1&#45;&gt;Node21</title>
<path fill="none" stroke="midnightblue" d="M159.983,-130.331C183.52,-135.771 209.295,-141.729 232.075,-146.994"/>
<polygon fill="midnightblue" stroke="midnightblue" points="160.579,-126.877 150.048,-128.035 159.003,-133.697 160.579,-126.877"/>
</g>
<!-- Node3 -->
<g id="node3" class="node"><title>Node3</title>
<g id="a_node3"><a xlink:href="namespacerepo_1_1programs_1_1pythonpackages_1_1pr_1_1loadSPFiles.html#ad96607a97fb1364b1b8f5a96a6537818" target="_top" xlink:title="repo.programs.pythonpackages.pr.load\lSPFiles.getAllSPSensor">
<polygon fill="white" stroke="black" points="428.5,-196 428.5,-226 613.5,-226 613.5,-196 428.5,-196"/>
<text text-anchor="start" x="436.5" y="-214" font-family="Helvetica,sans-Serif" font-size="10.00">repo.programs.pythonpackages.pr.load</text>
<text text-anchor="middle" x="521" y="-203" font-family="Helvetica,sans-Serif" font-size="10.00">SPFiles.getAllSPSensor</text>
</a>
</g>
</g>
<!-- Node2&#45;&gt;Node3 -->
<g id="edge2" class="edge"><title>Node2&#45;&gt;Node3</title>
<path fill="none" stroke="midnightblue" d="M401.078,-211C410.22,-211 419.438,-211 428.482,-211"/>
<polygon fill="midnightblue" stroke="midnightblue" points="400.804,-207.5 390.804,-211 400.804,-214.5 400.804,-207.5"/>
</g>
<!-- Node5 -->
<g id="node5" class="node"><title>Node5</title>
<g id="a_node5"><a xlink:href="classrepo_1_1programs_1_1pythonpackages_1_1pr_1_1SPDataSet_1_1SPDataSet.html#a14656e508d81193e8c71c09d9444e15f" target="_top" xlink:title="repo.programs.pythonpackages.pr.\lSPDataSet.SPDataSet.trigTimes">
<polygon fill="white" stroke="black" points="437.5,-122 437.5,-152 604.5,-152 604.5,-122 437.5,-122"/>
<text text-anchor="start" x="445.5" y="-140" font-family="Helvetica,sans-Serif" font-size="10.00">repo.programs.pythonpackages.pr.</text>
<text text-anchor="middle" x="521" y="-129" font-family="Helvetica,sans-Serif" font-size="10.00">SPDataSet.SPDataSet.trigTimes</text>
</a>
</g>
</g>
<!-- Node4&#45;&gt;Node5 -->
<g id="edge4" class="edge"><title>Node4&#45;&gt;Node5</title>
<path fill="none" stroke="midnightblue" d="M391.982,-123.098C407.094,-124.739 422.654,-126.429 437.494,-128.04"/>
<polygon fill="midnightblue" stroke="midnightblue" points="391.926,-119.571 381.607,-121.971 391.17,-126.53 391.926,-119.571"/>
</g>
<!-- Node6 -->
<g id="node6" class="node"><title>Node6</title>
<g id="a_node6"><a xlink:href="classrepo_1_1programs_1_1pythonpackages_1_1pr_1_1SPDataSet_1_1SPDataSet.html#a5b12a3d9fdb93ccbf79a6b7a7893be3f" target="_top" xlink:title="repo.programs.pythonpackages.pr.\lSPDataSet.SPDataSet.cutAmp">
<polygon fill="white" stroke="black" points="650.5,-166 650.5,-196 817.5,-196 817.5,-166 650.5,-166"/>
<text text-anchor="start" x="658.5" y="-184" font-family="Helvetica,sans-Serif" font-size="10.00">repo.programs.pythonpackages.pr.</text>
<text text-anchor="middle" x="734" y="-173" font-family="Helvetica,sans-Serif" font-size="10.00">SPDataSet.SPDataSet.cutAmp</text>
</a>
</g>
</g>
<!-- Node5&#45;&gt;Node6 -->
<g id="edge5" class="edge"><title>Node5&#45;&gt;Node6</title>
<path fill="none" stroke="midnightblue" d="M604.031,-154.106C622.805,-158.021 642.624,-162.154 660.943,-165.974"/>
<polygon fill="midnightblue" stroke="midnightblue" points="604.528,-150.634 594.024,-152.019 603.099,-157.487 604.528,-150.634"/>
</g>
<!-- Node15 -->
<g id="node15" class="node"><title>Node15</title>
<g id="a_node15"><a xlink:href="classrepo_1_1programs_1_1pythonpackages_1_1pr_1_1SPDataSet_1_1SPDataSet.html#a5ad35e931371981e41221502928547d5" target="_top" xlink:title="Check that the calculated apparatus directions fit with the available data. ">
<polygon fill="white" stroke="black" points="1508,-62 1508,-92 1700,-92 1700,-62 1508,-62"/>
<text text-anchor="start" x="1516" y="-80" font-family="Helvetica,sans-Serif" font-size="10.00">repo.programs.pythonpackages.pr.</text>
<text text-anchor="middle" x="1604" y="-69" font-family="Helvetica,sans-Serif" font-size="10.00">SPDataSet.SPDataSet.checkDirections</text>
</a>
</g>
</g>
<!-- Node5&#45;&gt;Node15 -->
<g id="edge27" class="edge"><title>Node5&#45;&gt;Node15</title>
<path fill="none" stroke="midnightblue" d="M606.569,-120.133C690.159,-104.947 821.87,-85 937,-85 937,-85 937,-85 1153,-85 1275.48,-85 1416.68,-82.0007 1507.76,-79.675"/>
<polygon fill="midnightblue" stroke="midnightblue" points="605.822,-116.711 596.618,-121.959 607.086,-123.596 605.822,-116.711"/>
</g>
<!-- Node18 -->
<g id="node18" class="node"><title>Node18</title>
<g id="a_node18"><a xlink:href="classrepo_1_1programs_1_1pythonpackages_1_1pr_1_1SPDataSet_1_1SPDataSet.html#a5343a59b34ffebfc31c1dfd06ddfa889" target="_top" xlink:title="repo.programs.pythonpackages.pr.\lSPDataSet.SPDataSet.viewRaw">
<polygon fill="white" stroke="black" points="854.5,-122 854.5,-152 1021.5,-152 1021.5,-122 854.5,-122"/>
<text text-anchor="start" x="862.5" y="-140" font-family="Helvetica,sans-Serif" font-size="10.00">repo.programs.pythonpackages.pr.</text>
<text text-anchor="middle" x="938" y="-129" font-family="Helvetica,sans-Serif" font-size="10.00">SPDataSet.SPDataSet.viewRaw</text>
</a>
</g>
</g>
<!-- Node5&#45;&gt;Node18 -->
<g id="edge26" class="edge"><title>Node5&#45;&gt;Node18</title>
<path fill="none" stroke="midnightblue" d="M615.367,-137C687.087,-137 785.212,-137 854.16,-137"/>
<polygon fill="midnightblue" stroke="midnightblue" points="614.984,-133.5 604.984,-137 614.984,-140.5 614.984,-133.5"/>
</g>
<!-- Node6&#45;&gt;Node6 -->
<g id="edge6" class="edge"><title>Node6&#45;&gt;Node6</title>
<path fill="none" stroke="midnightblue" d="M698.292,-206.598C703.172,-210.97 715.074,-214 734,-214 765.875,-214 777.828,-205.406 769.859,-196.275"/>
<polygon fill="midnightblue" stroke="midnightblue" points="701.787,-206.223 698.141,-196.275 694.788,-206.326 701.787,-206.223"/>
</g>
<!-- Node7 -->
<g id="node7" class="node"><title>Node7</title>
<g id="a_node7"><a xlink:href="classrepo_1_1programs_1_1pythonpackages_1_1pr_1_1SPDataSet_1_1SPDataSet.html#a9eac955cac12a62b72d189aa80b82ec6" target="_top" xlink:title="repo.programs.pythonpackages.pr.\lSPDataSet.SPDataSet.filteredCutAmp">
<polygon fill="white" stroke="black" points="1058.5,-166 1058.5,-196 1245.5,-196 1245.5,-166 1058.5,-166"/>
<text text-anchor="start" x="1066.5" y="-184" font-family="Helvetica,sans-Serif" font-size="10.00">repo.programs.pythonpackages.pr.</text>
<text text-anchor="middle" x="1152" y="-173" font-family="Helvetica,sans-Serif" font-size="10.00">SPDataSet.SPDataSet.filteredCutAmp</text>
</a>
</g>
</g>
<!-- Node6&#45;&gt;Node7 -->
<g id="edge7" class="edge"><title>Node6&#45;&gt;Node7</title>
<path fill="none" stroke="midnightblue" d="M828.061,-181C896.727,-181 989.754,-181 1058.33,-181"/>
<polygon fill="midnightblue" stroke="midnightblue" points="827.686,-177.5 817.686,-181 827.686,-184.5 827.686,-177.5"/>
</g>
<!-- Node16 -->
<g id="node16" class="node"><title>Node16</title>
<g id="a_node16"><a xlink:href="classrepo_1_1programs_1_1pythonpackages_1_1pr_1_1SPDataSet_1_1SPDataSet.html#a6f2c3de2aa708d686f5835f10e2d096d" target="_top" xlink:title="repo.programs.pythonpackages.pr.\lSPDataSet.SPDataSet.pointAmp">
<polygon fill="white" stroke="black" points="854.5,-229 854.5,-259 1021.5,-259 1021.5,-229 854.5,-229"/>
<text text-anchor="start" x="862.5" y="-247" font-family="Helvetica,sans-Serif" font-size="10.00">repo.programs.pythonpackages.pr.</text>
<text text-anchor="middle" x="938" y="-236" font-family="Helvetica,sans-Serif" font-size="10.00">SPDataSet.SPDataSet.pointAmp</text>
</a>
</g>
</g>
<!-- Node6&#45;&gt;Node16 -->
<g id="edge19" class="edge"><title>Node6&#45;&gt;Node16</title>
<path fill="none" stroke="midnightblue" d="M792.758,-199.014C823.176,-208.5 860.043,-219.999 888.892,-228.996"/>
<polygon fill="midnightblue" stroke="midnightblue" points="793.716,-195.646 783.127,-196.01 791.632,-202.329 793.716,-195.646"/>
</g>
<!-- Node6&#45;&gt;Node18 -->
<g id="edge25" class="edge"><title>Node6&#45;&gt;Node18</title>
<path fill="none" stroke="midnightblue" d="M813.78,-163.84C831.68,-159.941 850.56,-155.829 868.016,-152.026"/>
<polygon fill="midnightblue" stroke="midnightblue" points="812.978,-160.433 803.952,-165.981 814.468,-167.272 812.978,-160.433"/>
</g>
<!-- Node8 -->
<g id="node8" class="node"><title>Node8</title>
<g id="a_node8"><a xlink:href="classrepo_1_1programs_1_1pythonpackages_1_1pr_1_1SPDataSet_1_1SPDataSet.html#accbfa0185d4e416038e688fc9b55575b" target="_top" xlink:title="repo.programs.pythonpackages.pr.\lSPDataSet.SPDataSet.sequenceAmp">
<polygon fill="white" stroke="black" points="1282,-176 1282,-206 1466,-206 1466,-176 1282,-176"/>
<text text-anchor="start" x="1290" y="-194" font-family="Helvetica,sans-Serif" font-size="10.00">repo.programs.pythonpackages.pr.</text>
<text text-anchor="middle" x="1374" y="-183" font-family="Helvetica,sans-Serif" font-size="10.00">SPDataSet.SPDataSet.sequenceAmp</text>
</a>
</g>
</g>
<!-- Node7&#45;&gt;Node8 -->
<g id="edge8" class="edge"><title>Node7&#45;&gt;Node8</title>
<path fill="none" stroke="midnightblue" d="M1255.82,-185.674C1264.51,-186.069 1273.26,-186.466 1281.85,-186.857"/>
<polygon fill="midnightblue" stroke="midnightblue" points="1255.81,-182.17 1245.66,-185.212 1255.49,-189.162 1255.81,-182.17"/>
</g>
<!-- Node8&#45;&gt;Node8 -->
<g id="edge9" class="edge"><title>Node8&#45;&gt;Node8</title>
<path fill="none" stroke="midnightblue" d="M1335.14,-216.598C1340.45,-220.97 1353.4,-224 1374,-224 1408.69,-224 1421.7,-215.406 1413.02,-206.275"/>
<polygon fill="midnightblue" stroke="midnightblue" points="1338.64,-216.218 1334.98,-206.275 1331.64,-216.33 1338.64,-216.218"/>
</g>
<!-- Node9 -->
<g id="node9" class="node"><title>Node9</title>
<g id="a_node9"><a xlink:href="classrepo_1_1programs_1_1pythonpackages_1_1pr_1_1SPDataSet_1_1SPDataSet.html#ac0df54b82a9e993d707f0dafd87a19dd" target="_top" xlink:title="repo.programs.pythonpackages.pr.\lSPDataSet.SPDataSet.labAmp">
<polygon fill="white" stroke="black" points="1520.5,-160 1520.5,-190 1687.5,-190 1687.5,-160 1520.5,-160"/>
<text text-anchor="start" x="1528.5" y="-178" font-family="Helvetica,sans-Serif" font-size="10.00">repo.programs.pythonpackages.pr.</text>
<text text-anchor="middle" x="1604" y="-167" font-family="Helvetica,sans-Serif" font-size="10.00">SPDataSet.SPDataSet.labAmp</text>
</a>
</g>
</g>
<!-- Node8&#45;&gt;Node9 -->
<g id="edge10" class="edge"><title>Node8&#45;&gt;Node9</title>
<path fill="none" stroke="midnightblue" d="M1476.21,-183.897C1490.91,-182.866 1505.89,-181.814 1520.17,-180.812"/>
<polygon fill="midnightblue" stroke="midnightblue" points="1475.83,-180.416 1466.09,-184.607 1476.32,-187.399 1475.83,-180.416"/>
</g>
<!-- Node10 -->
<g id="node10" class="node"><title>Node10</title>
<g id="a_node10"><a xlink:href="classrepo_1_1programs_1_1pythonpackages_1_1pr_1_1SPDataSet_1_1SPDataSet.html#a3624263a6738178d243635889b719a90" target="_top" xlink:title="repo.programs.pythonpackages.pr.\lSPDataSet.SPDataSet.viewSid">
<polygon fill="white" stroke="black" points="1747.5,-160 1747.5,-190 1914.5,-190 1914.5,-160 1747.5,-160"/>
<text text-anchor="start" x="1755.5" y="-178" font-family="Helvetica,sans-Serif" font-size="10.00">repo.programs.pythonpackages.pr.</text>
<text text-anchor="middle" x="1831" y="-167" font-family="Helvetica,sans-Serif" font-size="10.00">SPDataSet.SPDataSet.viewSid</text>
</a>
</g>
</g>
<!-- Node8&#45;&gt;Node10 -->
<g id="edge16" class="edge"><title>Node8&#45;&gt;Node10</title>
<path fill="none" stroke="midnightblue" d="M1476.52,-199.721C1542.13,-203.812 1629.28,-206.356 1706,-199 1725.21,-197.158 1745.86,-193.747 1764.7,-190.062"/>
<polygon fill="midnightblue" stroke="midnightblue" points="1476.38,-196.205 1466.18,-199.052 1475.93,-203.19 1476.38,-196.205"/>
</g>
<!-- Node11 -->
<g id="node11" class="node"><title>Node11</title>
<g id="a_node11"><a xlink:href="classrepo_1_1programs_1_1pythonpackages_1_1pr_1_1SPDataSet_1_1SPDataSet.html#acf495c99c803a2a1e23cdaeae34da985" target="_top" xlink:title="repo.programs.pythonpackages.pr.\lSPDataSet.SPDataSet.sidAmp">
<polygon fill="white" stroke="black" points="1520.5,-111 1520.5,-141 1687.5,-141 1687.5,-111 1520.5,-111"/>
<text text-anchor="start" x="1528.5" y="-129" font-family="Helvetica,sans-Serif" font-size="10.00">repo.programs.pythonpackages.pr.</text>
<text text-anchor="middle" x="1604" y="-118" font-family="Helvetica,sans-Serif" font-size="10.00">SPDataSet.SPDataSet.sidAmp</text>
</a>
</g>
</g>
<!-- Node8&#45;&gt;Node11 -->
<g id="edge12" class="edge"><title>Node8&#45;&gt;Node11</title>
<path fill="none" stroke="midnightblue" d="M1429.97,-172.863C1452.24,-165.732 1478.25,-157.672 1502,-151 1514.09,-147.604 1527.05,-144.21 1539.53,-141.066"/>
<polygon fill="midnightblue" stroke="midnightblue" points="1428.79,-169.564 1420.35,-175.96 1430.94,-176.227 1428.79,-169.564"/>
</g>
<!-- Node12 -->
<g id="node12" class="node"><title>Node12</title>
<g id="a_node12"><a xlink:href="classrepo_1_1programs_1_1pythonpackages_1_1pr_1_1SPDataSet_1_1SPDataSet.html#ac55c6ccc03634d3f670f52e89188779c" target="_top" xlink:title="repo.programs.pythonpackages.pr.\lSPDataSet.SPDataSet.viewSeq">
<polygon fill="white" stroke="black" points="1520.5,-297 1520.5,-327 1687.5,-327 1687.5,-297 1520.5,-297"/>
<text text-anchor="start" x="1528.5" y="-315" font-family="Helvetica,sans-Serif" font-size="10.00">repo.programs.pythonpackages.pr.</text>
<text text-anchor="middle" x="1604" y="-304" font-family="Helvetica,sans-Serif" font-size="10.00">SPDataSet.SPDataSet.viewSeq</text>
</a>
</g>
</g>
<!-- Node8&#45;&gt;Node12 -->
<g id="edge14" class="edge"><title>Node8&#45;&gt;Node12</title>
<path fill="none" stroke="midnightblue" d="M1397.97,-213.009C1422.05,-234.888 1461.88,-267.868 1502,-287 1510.07,-290.849 1518.8,-294.144 1527.62,-296.955"/>
<polygon fill="midnightblue" stroke="midnightblue" points="1400.16,-210.263 1390.44,-206.051 1395.41,-215.406 1400.16,-210.263"/>
</g>
<!-- Node14 -->
<g id="node14" class="node"><title>Node14</title>
<g id="a_node14"><a xlink:href="classrepo_1_1programs_1_1pythonpackages_1_1pr_1_1SPDataSet_1_1SPDataSet.html#a5aad808c592bfdbb665105df2947610f" target="_top" xlink:title="repo.programs.pythonpackages.pr.\lSPDataSet.SPDataSet.viewCorrelationFilt">
<polygon fill="white" stroke="black" points="1502.5,-248 1502.5,-278 1705.5,-278 1705.5,-248 1502.5,-248"/>
<text text-anchor="start" x="1510.5" y="-266" font-family="Helvetica,sans-Serif" font-size="10.00">repo.programs.pythonpackages.pr.</text>
<text text-anchor="middle" x="1604" y="-255" font-family="Helvetica,sans-Serif" font-size="10.00">SPDataSet.SPDataSet.viewCorrelationFilt</text>
</a>
</g>
</g>
<!-- Node8&#45;&gt;Node14 -->
<g id="edge17" class="edge"><title>Node8&#45;&gt;Node14</title>
<path fill="none" stroke="midnightblue" d="M1428.99,-209.259C1451.51,-216.77 1477.97,-225.46 1502,-233 1517.97,-238.011 1535.43,-243.272 1551.27,-247.965"/>
<polygon fill="midnightblue" stroke="midnightblue" points="1429.86,-205.861 1419.27,-206.009 1427.64,-212.5 1429.86,-205.861"/>
</g>
<!-- Node8&#45;&gt;Node15 -->
<g id="edge18" class="edge"><title>Node8&#45;&gt;Node15</title>
<path fill="none" stroke="midnightblue" d="M1399.92,-169.305C1424.36,-149.098 1463.47,-119.529 1502,-102 1510.39,-98.1851 1519.44,-94.898 1528.56,-92.0798"/>
<polygon fill="midnightblue" stroke="midnightblue" points="1397.63,-166.66 1392.22,-175.768 1402.13,-172.023 1397.63,-166.66"/>
</g>
<!-- Node9&#45;&gt;Node10 -->
<g id="edge11" class="edge"><title>Node9&#45;&gt;Node10</title>
<path fill="none" stroke="midnightblue" d="M1697.63,-175C1714.03,-175 1731.02,-175 1747.13,-175"/>
<polygon fill="midnightblue" stroke="midnightblue" points="1697.5,-171.5 1687.5,-175 1697.5,-178.5 1697.5,-171.5"/>
</g>
<!-- Node11&#45;&gt;Node10 -->
<g id="edge13" class="edge"><title>Node11&#45;&gt;Node10</title>
<path fill="none" stroke="midnightblue" d="M1683.91,-143.185C1709.07,-148.665 1736.7,-154.682 1761.09,-159.994"/>
<polygon fill="midnightblue" stroke="midnightblue" points="1684.55,-139.743 1674.04,-141.035 1683.06,-146.582 1684.55,-139.743"/>
</g>
<!-- Node13 -->
<g id="node13" class="node"><title>Node13</title>
<g id="a_node13"><a xlink:href="classrepo_1_1programs_1_1pythonpackages_1_1pr_1_1SPDataSet_1_1SPDataSet.html#a0c87af10688edd55eb0aea229e5979bb" target="_top" xlink:title="repo.programs.pythonpackages.pr.\lSPDataSet.SPDataSet.viewSensors">
<polygon fill="white" stroke="black" points="1742,-297 1742,-327 1920,-327 1920,-297 1742,-297"/>
<text text-anchor="start" x="1750" y="-315" font-family="Helvetica,sans-Serif" font-size="10.00">repo.programs.pythonpackages.pr.</text>
<text text-anchor="middle" x="1831" y="-304" font-family="Helvetica,sans-Serif" font-size="10.00">SPDataSet.SPDataSet.viewSensors</text>
</a>
</g>
</g>
<!-- Node12&#45;&gt;Node13 -->
<g id="edge15" class="edge"><title>Node12&#45;&gt;Node13</title>
<path fill="none" stroke="midnightblue" d="M1697.55,-312C1712.19,-312 1727.29,-312 1741.83,-312"/>
<polygon fill="midnightblue" stroke="midnightblue" points="1697.5,-308.5 1687.5,-312 1697.5,-315.5 1697.5,-308.5"/>
</g>
<!-- Node16&#45;&gt;Node7 -->
<g id="edge20" class="edge"><title>Node16&#45;&gt;Node7</title>
<path fill="none" stroke="midnightblue" d="M999.203,-226.109C1031.21,-216.599 1070.1,-205.04 1100.51,-196.004"/>
<polygon fill="midnightblue" stroke="midnightblue" points="998.099,-222.786 989.51,-228.99 1000.09,-229.496 998.099,-222.786"/>
</g>
<!-- Node16&#45;&gt;Node8 -->
<g id="edge21" class="edge"><title>Node16&#45;&gt;Node8</title>
<path fill="none" stroke="midnightblue" d="M1031.87,-232.659C1105.65,-223.649 1208.27,-211.117 1281.65,-202.155"/>
<polygon fill="midnightblue" stroke="midnightblue" points="1031.16,-229.22 1021.65,-233.906 1032,-236.168 1031.16,-229.22"/>
</g>
<!-- Node16&#45;&gt;Node12 -->
<g id="edge22" class="edge"><title>Node16&#45;&gt;Node12</title>
<path fill="none" stroke="midnightblue" d="M1031.76,-260.315C1040.61,-261.654 1049.47,-262.909 1058,-264 1221.23,-284.872 1413.14,-299.478 1520.15,-306.739"/>
<polygon fill="midnightblue" stroke="midnightblue" points="1032.2,-256.841 1021.78,-258.772 1031.13,-263.759 1032.2,-256.841"/>
</g>
<!-- Node16&#45;&gt;Node14 -->
<g id="edge23" class="edge"><title>Node16&#45;&gt;Node14</title>
<path fill="none" stroke="midnightblue" d="M1031.98,-246.661C1155.97,-250.208 1374.61,-256.465 1502.36,-260.12"/>
<polygon fill="midnightblue" stroke="midnightblue" points="1031.85,-243.156 1021.75,-246.368 1031.65,-250.153 1031.85,-243.156"/>
</g>
<!-- Node17 -->
<g id="node17" class="node"><title>Node17</title>
<g id="a_node17"><a xlink:href="classrepo_1_1programs_1_1pythonpackages_1_1pr_1_1SPDataSet_1_1SPDataSet.html#a2ffa7a6de1e0ebd8172db800621eed20" target="_top" xlink:title="repo.programs.pythonpackages.pr.\lSPDataSet.SPDataSet.test_div">
<polygon fill="white" stroke="black" points="1068.5,-330 1068.5,-360 1235.5,-360 1235.5,-330 1068.5,-330"/>
<text text-anchor="start" x="1076.5" y="-348" font-family="Helvetica,sans-Serif" font-size="10.00">repo.programs.pythonpackages.pr.</text>
<text text-anchor="middle" x="1152" y="-337" font-family="Helvetica,sans-Serif" font-size="10.00">SPDataSet.SPDataSet.test_div</text>
</a>
</g>
</g>
<!-- Node16&#45;&gt;Node17 -->
<g id="edge24" class="edge"><title>Node16&#45;&gt;Node17</title>
<path fill="none" stroke="midnightblue" d="M969.451,-264.789C992.896,-280.138 1026.52,-300.751 1058,-315 1070.36,-320.596 1084.08,-325.624 1097.1,-329.893"/>
<polygon fill="midnightblue" stroke="midnightblue" points="971.26,-261.789 960.989,-259.188 967.396,-267.626 971.26,-261.789"/>
</g>
<!-- Node21&#45;&gt;Node5 -->
<g id="edge31" class="edge"><title>Node21&#45;&gt;Node5</title>
<path fill="none" stroke="midnightblue" d="M391.547,-151.531C406.795,-149.806 422.512,-148.028 437.494,-146.333"/>
<polygon fill="midnightblue" stroke="midnightblue" points="391.15,-148.053 381.607,-152.655 391.937,-155.009 391.15,-148.053"/>
</g>
</g>
</svg>
