<?xml version="1.0" encoding="UTF-8" standalone="no"?>
<!DOCTYPE svg PUBLIC "-//W3C//DTD SVG 1.1//EN"
 "http://www.w3.org/Graphics/SVG/1.1/DTD/svg11.dtd">
<!-- Generated by graphviz version 2.36.0 (20140111.2315)
 -->
<!-- Title: repo.programs.pythonpackages.pr.sdtime.sd2secs Pages: 1 -->
<svg width="516pt" height="66pt"
 viewBox="0.00 0.00 516.00 66.00" xmlns="http://www.w3.org/2000/svg" xmlns:xlink="http://www.w3.org/1999/xlink">
<g id="graph0" class="graph" transform="scale(1 1) rotate(0) translate(4 62)">
<title>repo.programs.pythonpackages.pr.sdtime.sd2secs</title>
<polygon fill="white" stroke="none" points="-4,4 -4,-62 512,-62 512,4 -4,4"/>
<!-- Node1 -->
<g id="node1" class="node"><title>Node1</title>
<polygon fill="#bfbfbf" stroke="black" points="0,-19.5 0,-38.5 236,-38.5 236,-19.5 0,-19.5"/>
<text text-anchor="middle" x="118" y="-26.5" font-family="Helvetica,sans-Serif" font-size="10.00">repo.programs.pythonpackages.pr.sdtime.sd2secs</text>
</g>
<!-- Node2 -->
<g id="node2" class="node"><title>Node2</title>
<g id="a_node2"><a xlink:href="namespacerepo_1_1programs_1_1pythonpackages_1_1pr_1_1sdtime.html#a9988d76304d783450b792ae158a393e3" target="_top" xlink:title="repo.programs.pythonpackages.pr.sdtime.sd2gm">
<polygon fill="white" stroke="black" points="275.5,-38.5 275.5,-57.5 504.5,-57.5 504.5,-38.5 275.5,-38.5"/>
<text text-anchor="middle" x="390" y="-45.5" font-family="Helvetica,sans-Serif" font-size="10.00">repo.programs.pythonpackages.pr.sdtime.sd2gm</text>
</a>
</g>
</g>
<!-- Node1&#45;&gt;Node2 -->
<g id="edge1" class="edge"><title>Node1&#45;&gt;Node2</title>
<path fill="none" stroke="midnightblue" d="M246.3,-37.9582C255.973,-38.6388 265.699,-39.3232 275.277,-39.9973"/>
<polygon fill="midnightblue" stroke="midnightblue" points="246.469,-34.4615 236.248,-37.2508 245.978,-41.4442 246.469,-34.4615"/>
</g>
<!-- Node3 -->
<g id="node3" class="node"><title>Node3</title>
<g id="a_node3"><a xlink:href="namespacerepo_1_1programs_1_1pythonpackages_1_1pr_1_1sdtime.html#a59ed699fb07f9e8b979643c5b26e3797" target="_top" xlink:title="repo.programs.pythonpackages.pr.sdtime.sd2local">
<polygon fill="white" stroke="black" points="272,-0.5 272,-19.5 508,-19.5 508,-0.5 272,-0.5"/>
<text text-anchor="middle" x="390" y="-7.5" font-family="Helvetica,sans-Serif" font-size="10.00">repo.programs.pythonpackages.pr.sdtime.sd2local</text>
</a>
</g>
</g>
<!-- Node1&#45;&gt;Node3 -->
<g id="edge2" class="edge"><title>Node1&#45;&gt;Node3</title>
<path fill="none" stroke="midnightblue" d="M246.25,-20.0454C254.794,-19.4442 263.379,-18.84 271.868,-18.2426"/>
<polygon fill="midnightblue" stroke="midnightblue" points="245.978,-16.5558 236.248,-20.7492 246.469,-23.5385 245.978,-16.5558"/>
</g>
</g>
</svg>
