<?xml version="1.0" encoding="UTF-8" standalone="no"?>
<!DOCTYPE svg PUBLIC "-//W3C//DTD SVG 1.1//EN"
 "http://www.w3.org/Graphics/SVG/1.1/DTD/svg11.dtd">
<!-- Generated by graphviz version 2.36.0 (20140111.2315)
 -->
<!-- Title: repo.programs.pythonpackages.pr.SPfuncs.spSearchSet Pages: 1 -->
<!--zoomable 391 -->
<svg id="main" version="1.1" xmlns="http://www.w3.org/2000/svg" xmlns:xlink="http://www.w3.org/1999/xlink" xml:space="preserve" onload="init(evt)">
<style type="text/css"><![CDATA[
.edge:hover path { stroke: red; }
.edge:hover polygon { stroke: red; fill: red; }
]]></style>
<script type="text/javascript"><![CDATA[
var edges = document.getElementsByTagName('g');
if (edges && edges.length) {
  for (var i=0;i<edges.length;i++) {
    if (edges[i].id.substr(0,4)=='edge') {
      edges[i].setAttribute('class','edge');
    }
  }
}
]]></script>
        <defs>
                <circle id="rim" cx="0" cy="0" r="7"/>
                <circle id="rim2" cx="0" cy="0" r="3.5"/>
                <g id="zoomPlus">
                        <use xlink:href="#rim" fill="#404040">
                                <set attributeName="fill" to="#808080" begin="zoomplus.mouseover" end="zoomplus.mouseout"/>
                        </use>
                        <path d="M-4,0h8M0,-4v8" fill="none" stroke="white" stroke-width="1.5" pointer-events="none"/>
                </g>
                <g id="zoomMin">
                        <use xlink:href="#rim" fill="#404040">
                                <set attributeName="fill" to="#808080" begin="zoomminus.mouseover" end="zoomminus.mouseout"/>
                        </use>
                        <path d="M-4,0h8" fill="none" stroke="white" stroke-width="1.5" pointer-events="none"/>
                </g>
                <g id="dirArrow">
                        <path fill="none" stroke="white" stroke-width="1.5" d="M0,-3.0v7 M-2.5,-0.5L0,-3.0L2.5,-0.5"/>
                </g>
               <g id="resetDef">
                       <use xlink:href="#rim2" fill="#404040">
                               <set attributeName="fill" to="#808080" begin="reset.mouseover" end="reset.mouseout"/>
                       </use>
               </g>
        </defs>

<script type="text/javascript">
var viewWidth = 788;
var viewHeight = 391;
var sectionId = 'dynsection-30';
</script>
<script xlink:href="svgpan.js"/>
<svg id="graph" class="graph">
<g id="viewport">
<title>repo.programs.pythonpackages.pr.SPfuncs.spSearchSet</title>
<polygon fill="white" stroke="none" points="-4,4 -4,-387 784,-387 784,4 -4,4"/>
<!-- Node1 -->
<g id="node1" class="node"><title>Node1</title>
<polygon fill="#bfbfbf" stroke="black" points="0.5,-181 0.5,-211 167.5,-211 167.5,-181 0.5,-181"/>
<text text-anchor="start" x="8.5" y="-199" font-family="Helvetica,sans-Serif" font-size="10.00">repo.programs.pythonpackages.pr.</text>
<text text-anchor="middle" x="84" y="-188" font-family="Helvetica,sans-Serif" font-size="10.00">SPfuncs.spSearchSet</text>
</g>
<!-- Node2 -->
<g id="node2" class="node"><title>Node2</title>
<g id="a_node2"><a xlink:href="namespacerepo_1_1programs_1_1pythonpackages_1_1pr_1_1SPfuncs.html#af8a48b74a6d4e725e2409329126076a6" target="_top" xlink:title="Construct a set of triggers by analysing the timing for the signal. ">
<polygon fill="white" stroke="black" points="204.5,-353 204.5,-383 371.5,-383 371.5,-353 204.5,-353"/>
<text text-anchor="start" x="212.5" y="-371" font-family="Helvetica,sans-Serif" font-size="10.00">repo.programs.pythonpackages.pr.</text>
<text text-anchor="middle" x="288" y="-360" font-family="Helvetica,sans-Serif" font-size="10.00">SPfuncs.makeTriggers</text>
</a>
</g>
</g>
<!-- Node1&#45;&gt;Node2 -->
<g id="edge1" class="edge"><title>Node1&#45;&gt;Node2</title>
<path fill="none" stroke="midnightblue" d="M93.2538,-211.441C110.047,-241.378 151.119,-307.485 204,-343 207.053,-345.05 210.279,-346.937 213.618,-348.673"/>
<polygon fill="midnightblue" stroke="midnightblue" points="212.138,-351.844 222.678,-352.923 215.111,-345.507 212.138,-351.844"/>
</g>
<!-- Node4 -->
<g id="node4" class="node"><title>Node4</title>
<g id="a_node4"><a xlink:href="namespacerepo_1_1programs_1_1pythonpackages_1_1pr_1_1SPfuncs.html#aa45dbb6291e4944f3ba2718a3d0ee001" target="_top" xlink:title="repo.programs.pythonpackages.pr.\lSPfuncs.preprocess_raw">
<polygon fill="white" stroke="black" points="204.5,-304 204.5,-334 371.5,-334 371.5,-304 204.5,-304"/>
<text text-anchor="start" x="212.5" y="-322" font-family="Helvetica,sans-Serif" font-size="10.00">repo.programs.pythonpackages.pr.</text>
<text text-anchor="middle" x="288" y="-311" font-family="Helvetica,sans-Serif" font-size="10.00">SPfuncs.preprocess_raw</text>
</a>
</g>
</g>
<!-- Node1&#45;&gt;Node4 -->
<g id="edge3" class="edge"><title>Node1&#45;&gt;Node4</title>
<path fill="none" stroke="midnightblue" d="M99.3534,-211.137C120.402,-232.505 161.747,-271.422 204,-294 208.177,-296.232 212.581,-298.293 217.094,-300.191"/>
<polygon fill="midnightblue" stroke="midnightblue" points="215.882,-303.475 226.47,-303.862 218.434,-296.957 215.882,-303.475"/>
</g>
<!-- Node6 -->
<g id="node6" class="node"><title>Node6</title>
<g id="a_node6"><a xlink:href="namespacerepo_1_1programs_1_1pythonpackages_1_1pr_1_1SPfuncs.html#a5d91f2e7930fdc007f010659068307f9" target="_top" xlink:title="repo.programs.pythonpackages.pr.\lSPfuncs.process_raw">
<polygon fill="white" stroke="black" points="204.5,-255 204.5,-285 371.5,-285 371.5,-255 204.5,-255"/>
<text text-anchor="start" x="212.5" y="-273" font-family="Helvetica,sans-Serif" font-size="10.00">repo.programs.pythonpackages.pr.</text>
<text text-anchor="middle" x="288" y="-262" font-family="Helvetica,sans-Serif" font-size="10.00">SPfuncs.process_raw</text>
</a>
</g>
</g>
<!-- Node1&#45;&gt;Node6 -->
<g id="edge6" class="edge"><title>Node1&#45;&gt;Node6</title>
<path fill="none" stroke="midnightblue" d="M119.024,-211.052C142.638,-221.24 174.949,-234.672 204,-245 210.478,-247.303 217.288,-249.581 224.104,-251.768"/>
<polygon fill="midnightblue" stroke="midnightblue" points="223.468,-255.237 234.058,-254.901 225.57,-248.56 223.468,-255.237"/>
</g>
<!-- Node7 -->
<g id="node7" class="node"><title>Node7</title>
<g id="a_node7"><a xlink:href="namespacerepo_1_1programs_1_1pythonpackages_1_1pr_1_1SPfuncs.html#a9c4d4bc9bf9302d2690f560af0d9982b" target="_top" xlink:title="repo.programs.pythonpackages.pr.\lSPfuncs.view_raw">
<polygon fill="white" stroke="black" points="204.5,-206 204.5,-236 371.5,-236 371.5,-206 204.5,-206"/>
<text text-anchor="start" x="212.5" y="-224" font-family="Helvetica,sans-Serif" font-size="10.00">repo.programs.pythonpackages.pr.</text>
<text text-anchor="middle" x="288" y="-213" font-family="Helvetica,sans-Serif" font-size="10.00">SPfuncs.view_raw</text>
</a>
</g>
</g>
<!-- Node1&#45;&gt;Node7 -->
<g id="edge7" class="edge"><title>Node1&#45;&gt;Node7</title>
<path fill="none" stroke="midnightblue" d="M167.744,-206.241C176.531,-207.328 185.509,-208.439 194.399,-209.54"/>
<polygon fill="midnightblue" stroke="midnightblue" points="194.031,-213.02 204.385,-210.775 194.89,-206.073 194.031,-213.02"/>
</g>
<!-- Node8 -->
<g id="node8" class="node"><title>Node8</title>
<g id="a_node8"><a xlink:href="namespacerepo_1_1programs_1_1pythonpackages_1_1pr_1_1SPfuncs.html#aefa37b595edec764011c69c3202787f6" target="_top" xlink:title="repo.programs.pythonpackages.pr.\lSPfuncs.filterBySensors">
<polygon fill="white" stroke="black" points="204.5,-157 204.5,-187 371.5,-187 371.5,-157 204.5,-157"/>
<text text-anchor="start" x="212.5" y="-175" font-family="Helvetica,sans-Serif" font-size="10.00">repo.programs.pythonpackages.pr.</text>
<text text-anchor="middle" x="288" y="-164" font-family="Helvetica,sans-Serif" font-size="10.00">SPfuncs.filterBySensors</text>
</a>
</g>
</g>
<!-- Node1&#45;&gt;Node8 -->
<g id="edge8" class="edge"><title>Node1&#45;&gt;Node8</title>
<path fill="none" stroke="midnightblue" d="M167.744,-186.169C176.531,-185.125 185.509,-184.058 194.399,-183.002"/>
<polygon fill="midnightblue" stroke="midnightblue" points="194.868,-186.471 204.385,-181.816 194.042,-179.52 194.868,-186.471"/>
</g>
<!-- Node9 -->
<g id="node9" class="node"><title>Node9</title>
<g id="a_node9"><a xlink:href="namespacerepo_1_1programs_1_1pythonpackages_1_1pr_1_1SPfuncs.html#a7265a1148ca13e5fb7961b297a214d13" target="_top" xlink:title="Turn groups of points into sequences&#45; except currently we go directly from a a group of &#39;cuts&#39; (i...">
<polygon fill="white" stroke="black" points="204.5,-108 204.5,-138 371.5,-138 371.5,-108 204.5,-108"/>
<text text-anchor="start" x="212.5" y="-126" font-family="Helvetica,sans-Serif" font-size="10.00">repo.programs.pythonpackages.pr.</text>
<text text-anchor="middle" x="288" y="-115" font-family="Helvetica,sans-Serif" font-size="10.00">SPfuncs.process_points</text>
</a>
</g>
</g>
<!-- Node1&#45;&gt;Node9 -->
<g id="edge9" class="edge"><title>Node1&#45;&gt;Node9</title>
<path fill="none" stroke="midnightblue" d="M119.829,-180.978C143.385,-171.06 175.312,-158.083 204,-148 210.735,-145.633 217.824,-143.285 224.905,-141.029"/>
<polygon fill="midnightblue" stroke="midnightblue" points="226.023,-144.347 234.52,-138.019 223.932,-137.667 226.023,-144.347"/>
</g>
<!-- Node13 -->
<g id="node13" class="node"><title>Node13</title>
<g id="a_node13"><a xlink:href="namespacerepo_1_1programs_1_1pythonpackages_1_1pr_1_1SPfuncs.html#ae43119e40ee34e8e5f67a1088548adb6" target="_top" xlink:title="repo.programs.pythonpackages.pr.\lSPfuncs.split_and_process\l_sequences">
<polygon fill="white" stroke="black" points="204.5,-48.5 204.5,-89.5 371.5,-89.5 371.5,-48.5 204.5,-48.5"/>
<text text-anchor="start" x="212.5" y="-77.5" font-family="Helvetica,sans-Serif" font-size="10.00">repo.programs.pythonpackages.pr.</text>
<text text-anchor="start" x="212.5" y="-66.5" font-family="Helvetica,sans-Serif" font-size="10.00">SPfuncs.split_and_process</text>
<text text-anchor="middle" x="288" y="-55.5" font-family="Helvetica,sans-Serif" font-size="10.00">_sequences</text>
</a>
</g>
</g>
<!-- Node1&#45;&gt;Node13 -->
<g id="edge13" class="edge"><title>Node1&#45;&gt;Node13</title>
<path fill="none" stroke="midnightblue" d="M99.913,-180.985C121.313,-160.144 162.719,-122.383 204,-99 207.187,-97.1947 210.503,-95.465 213.895,-93.8124"/>
<polygon fill="midnightblue" stroke="midnightblue" points="215.394,-96.9756 223.019,-89.6194 212.471,-90.6151 215.394,-96.9756"/>
</g>
<!-- Node17 -->
<g id="node17" class="node"><title>Node17</title>
<g id="a_node17"><a xlink:href="namespacerepo_1_1programs_1_1pythonpackages_1_1pr_1_1SPfuncs.html#a40e964ab0b81bcee6065cfa0b5bde422" target="_top" xlink:title="Not functional anymore. ">
<polygon fill="white" stroke="black" points="204.5,-0 204.5,-30 371.5,-30 371.5,-0 204.5,-0"/>
<text text-anchor="start" x="212.5" y="-18" font-family="Helvetica,sans-Serif" font-size="10.00">repo.programs.pythonpackages.pr.</text>
<text text-anchor="middle" x="288" y="-7" font-family="Helvetica,sans-Serif" font-size="10.00">SPfuncs.view_sidereal</text>
</a>
</g>
</g>
<!-- Node1&#45;&gt;Node17 -->
<g id="edge17" class="edge"><title>Node1&#45;&gt;Node17</title>
<path fill="none" stroke="midnightblue" d="M92.1989,-180.905C107.931,-149.555 148.461,-77.147 204,-39 206.164,-37.5138 208.42,-36.1187 210.745,-34.809"/>
<polygon fill="midnightblue" stroke="midnightblue" points="212.634,-37.7772 220.009,-30.1701 209.5,-31.5181 212.634,-37.7772"/>
</g>
<!-- Node3 -->
<g id="node3" class="node"><title>Node3</title>
<g id="a_node3"><a xlink:href="namespacerepo_1_1programs_1_1pythonpackages_1_1pr_1_1SPfuncs.html#a9d03b1e8bb9325cdab8fa026d6cdbbe3" target="_top" xlink:title="repo.programs.pythonpackages.pr.\lSPfuncs.secs2sd">
<polygon fill="white" stroke="black" points="408.5,-353 408.5,-383 575.5,-383 575.5,-353 408.5,-353"/>
<text text-anchor="start" x="416.5" y="-371" font-family="Helvetica,sans-Serif" font-size="10.00">repo.programs.pythonpackages.pr.</text>
<text text-anchor="middle" x="492" y="-360" font-family="Helvetica,sans-Serif" font-size="10.00">SPfuncs.secs2sd</text>
</a>
</g>
</g>
<!-- Node2&#45;&gt;Node3 -->
<g id="edge2" class="edge"><title>Node2&#45;&gt;Node3</title>
<path fill="none" stroke="midnightblue" d="M371.744,-368C380.437,-368 389.316,-368 398.112,-368"/>
<polygon fill="midnightblue" stroke="midnightblue" points="398.385,-371.5 408.385,-368 398.385,-364.5 398.385,-371.5"/>
</g>
<!-- Node4&#45;&gt;Node3 -->
<g id="edge5" class="edge"><title>Node4&#45;&gt;Node3</title>
<path fill="none" stroke="midnightblue" d="M350.979,-334.035C372.599,-339.279 397.037,-345.207 419.375,-350.626"/>
<polygon fill="midnightblue" stroke="midnightblue" points="418.594,-354.038 429.138,-352.994 420.245,-347.235 418.594,-354.038"/>
</g>
<!-- Node5 -->
<g id="node5" class="node"><title>Node5</title>
<g id="a_node5"><a xlink:href="namespacerepo_1_1programs_1_1pythonpackages_1_1pr_1_1SPfuncs.html#a87aac33304db20fd58d7a3625061cca6" target="_top" xlink:title="Cut up the times &#160;into sections that start at t_0 and and at t_end OR t_0 + delta_t if they&#39;re all th...">
<polygon fill="white" stroke="black" points="408.5,-304 408.5,-334 575.5,-334 575.5,-304 408.5,-304"/>
<text text-anchor="start" x="416.5" y="-322" font-family="Helvetica,sans-Serif" font-size="10.00">repo.programs.pythonpackages.pr.</text>
<text text-anchor="middle" x="492" y="-311" font-family="Helvetica,sans-Serif" font-size="10.00">SPfuncs.sliceSorted</text>
</a>
</g>
</g>
<!-- Node4&#45;&gt;Node5 -->
<g id="edge4" class="edge"><title>Node4&#45;&gt;Node5</title>
<path fill="none" stroke="midnightblue" d="M371.744,-319C380.437,-319 389.316,-319 398.112,-319"/>
<polygon fill="midnightblue" stroke="midnightblue" points="398.385,-322.5 408.385,-319 398.385,-315.5 398.385,-322.5"/>
</g>
<!-- Node10 -->
<g id="node10" class="node"><title>Node10</title>
<g id="a_node10"><a xlink:href="namespacerepo_1_1programs_1_1pythonpackages_1_1pr_1_1SPfuncs.html#a154be474c56db17750f8232efe410d54" target="_top" xlink:title="Input measurements x taken at angles theta0+ n* dtheta (assumed to be evenly spaced) and return harmo...">
<polygon fill="white" stroke="black" points="408.5,-108 408.5,-138 575.5,-138 575.5,-108 408.5,-108"/>
<text text-anchor="start" x="416.5" y="-126" font-family="Helvetica,sans-Serif" font-size="10.00">repo.programs.pythonpackages.pr.</text>
<text text-anchor="middle" x="492" y="-115" font-family="Helvetica,sans-Serif" font-size="10.00">SPfuncs.mgStringHarmonics</text>
</a>
</g>
</g>
<!-- Node9&#45;&gt;Node10 -->
<g id="edge10" class="edge"><title>Node9&#45;&gt;Node10</title>
<path fill="none" stroke="midnightblue" d="M371.744,-123C380.437,-123 389.316,-123 398.112,-123"/>
<polygon fill="midnightblue" stroke="midnightblue" points="398.385,-126.5 408.385,-123 398.385,-119.5 398.385,-126.5"/>
</g>
<!-- Node11 -->
<g id="node11" class="node"><title>Node11</title>
<g id="a_node11"><a xlink:href="namespacerepo_1_1programs_1_1pythonpackages_1_1pr_1_1SPfuncs.html#a7fb1286952274a8a185975238894be9d" target="_top" xlink:title="repo.programs.pythonpackages.pr.\lSPfuncs.stringSimple3pt">
<polygon fill="white" stroke="black" points="612.5,-132 612.5,-162 779.5,-162 779.5,-132 612.5,-132"/>
<text text-anchor="start" x="620.5" y="-150" font-family="Helvetica,sans-Serif" font-size="10.00">repo.programs.pythonpackages.pr.</text>
<text text-anchor="middle" x="696" y="-139" font-family="Helvetica,sans-Serif" font-size="10.00">SPfuncs.stringSimple3pt</text>
</a>
</g>
</g>
<!-- Node10&#45;&gt;Node11 -->
<g id="edge11" class="edge"><title>Node10&#45;&gt;Node11</title>
<path fill="none" stroke="midnightblue" d="M575.744,-132.831C584.531,-133.875 593.509,-134.942 602.399,-135.998"/>
<polygon fill="midnightblue" stroke="midnightblue" points="602.042,-139.48 612.385,-137.184 602.868,-132.529 602.042,-139.48"/>
</g>
<!-- Node12 -->
<g id="node12" class="node"><title>Node12</title>
<g id="a_node12"><a xlink:href="namespacerepo_1_1programs_1_1pythonpackages_1_1pr_1_1SPfuncs.html#a26157a1627869c31bfa6e494e5caf311" target="_top" xlink:title="Calculate 5pt strings and errors. ">
<polygon fill="white" stroke="black" points="612.5,-83 612.5,-113 779.5,-113 779.5,-83 612.5,-83"/>
<text text-anchor="start" x="620.5" y="-101" font-family="Helvetica,sans-Serif" font-size="10.00">repo.programs.pythonpackages.pr.</text>
<text text-anchor="middle" x="696" y="-90" font-family="Helvetica,sans-Serif" font-size="10.00">SPfuncs.stringSimple5pt</text>
</a>
</g>
</g>
<!-- Node10&#45;&gt;Node12 -->
<g id="edge12" class="edge"><title>Node10&#45;&gt;Node12</title>
<path fill="none" stroke="midnightblue" d="M575.744,-112.759C584.531,-111.672 593.509,-110.561 602.399,-109.46"/>
<polygon fill="midnightblue" stroke="midnightblue" points="602.89,-112.927 612.385,-108.225 602.031,-105.98 602.89,-112.927"/>
</g>
<!-- Node14 -->
<g id="node14" class="node"><title>Node14</title>
<g id="a_node14"><a xlink:href="namespacerepo_1_1programs_1_1pythonpackages_1_1pr_1_1SPfuncs.html#a5a727d85f97fb1e1e7370fbca3b1d1ea" target="_top" xlink:title="repo.programs.pythonpackages.pr.\lSPfuncs.group_by_axis">
<polygon fill="white" stroke="black" points="408.5,-57 408.5,-87 575.5,-87 575.5,-57 408.5,-57"/>
<text text-anchor="start" x="416.5" y="-75" font-family="Helvetica,sans-Serif" font-size="10.00">repo.programs.pythonpackages.pr.</text>
<text text-anchor="middle" x="492" y="-64" font-family="Helvetica,sans-Serif" font-size="10.00">SPfuncs.group_by_axis</text>
</a>
</g>
</g>
<!-- Node13&#45;&gt;Node14 -->
<g id="edge14" class="edge"><title>Node13&#45;&gt;Node14</title>
<path fill="none" stroke="midnightblue" d="M371.744,-70.2289C380.437,-70.358 389.316,-70.4898 398.112,-70.6205"/>
<polygon fill="midnightblue" stroke="midnightblue" points="398.334,-74.1241 408.385,-70.773 398.438,-67.1248 398.334,-74.1241"/>
</g>
<!-- Node15 -->
<g id="node15" class="node"><title>Node15</title>
<g id="a_node15"><a xlink:href="namespacerepo_1_1programs_1_1pythonpackages_1_1pr_1_1SPfuncs.html#a98d08fa254a21b0b0895f424f7006dbd" target="_top" xlink:title="Process sequence values, sSig, into final numbers. ">
<polygon fill="white" stroke="black" points="408.5,-8 408.5,-38 575.5,-38 575.5,-8 408.5,-8"/>
<text text-anchor="start" x="416.5" y="-26" font-family="Helvetica,sans-Serif" font-size="10.00">repo.programs.pythonpackages.pr.</text>
<text text-anchor="middle" x="492" y="-15" font-family="Helvetica,sans-Serif" font-size="10.00">SPfuncs.process_sequences</text>
</a>
</g>
</g>
<!-- Node13&#45;&gt;Node15 -->
<g id="edge15" class="edge"><title>Node13&#45;&gt;Node15</title>
<path fill="none" stroke="midnightblue" d="M371.744,-50.1573C386.035,-46.9029 400.83,-43.5337 414.934,-40.322"/>
<polygon fill="midnightblue" stroke="midnightblue" points="416.091,-43.6482 425.064,-38.0151 414.536,-36.8229 416.091,-43.6482"/>
</g>
<!-- Node16 -->
<g id="node16" class="node"><title>Node16</title>
<g id="a_node16"><a xlink:href="namespacerepo_1_1programs_1_1pythonpackages_1_1pr_1_1SPfuncs.html#a7590e0785adc48ccbabea8d0eccda514" target="_top" xlink:title="Calculate the harmonics present in the data x corresponding to phases theta. ">
<polygon fill="white" stroke="black" points="612.5,-8 612.5,-38 779.5,-38 779.5,-8 612.5,-8"/>
<text text-anchor="start" x="620.5" y="-26" font-family="Helvetica,sans-Serif" font-size="10.00">repo.programs.pythonpackages.pr.</text>
<text text-anchor="middle" x="696" y="-15" font-family="Helvetica,sans-Serif" font-size="10.00">SPfuncs.getHarmonicsFit</text>
</a>
</g>
</g>
<!-- Node15&#45;&gt;Node16 -->
<g id="edge16" class="edge"><title>Node15&#45;&gt;Node16</title>
<path fill="none" stroke="midnightblue" d="M575.744,-23C584.437,-23 593.316,-23 602.112,-23"/>
<polygon fill="midnightblue" stroke="midnightblue" points="602.385,-26.5001 612.385,-23 602.385,-19.5001 602.385,-26.5001"/>
</g>
</g>
</svg>
        <g id="navigator" transform="translate(0 0)" fill="#404254">
                <rect fill="#f2f5e9" fill-opacity="0.5" stroke="#606060" stroke-width=".5" x="0" y="0" width="60" height="60"/>
                <use id="zoomplus" xlink:href="#zoomPlus" x="17" y="9" onmousedown="handleZoom(evt,'in')"/>
                <use id="zoomminus" xlink:href="#zoomMin" x="42" y="9" onmousedown="handleZoom(evt,'out')"/>
                <use id="reset" xlink:href="#resetDef" x="30" y="36" onmousedown="handleReset()"/>
                <g id="arrowUp" xlink:href="#dirArrow" transform="translate(30 24)" onmousedown="handlePan(0,-1)">
                  <use xlink:href="#rim" fill="#404040">
                        <set attributeName="fill" to="#808080" begin="arrowUp.mouseover" end="arrowUp.mouseout"/>
                  </use>
                  <path fill="none" stroke="white" stroke-width="1.5" d="M0,-3.0v7 M-2.5,-0.5L0,-3.0L2.5,-0.5"/>
                </g>
                <g id="arrowRight" xlink:href="#dirArrow" transform="rotate(90) translate(36 -43)" onmousedown="handlePan(1,0)">
                  <use xlink:href="#rim" fill="#404040">
                        <set attributeName="fill" to="#808080" begin="arrowRight.mouseover" end="arrowRight.mouseout"/>
                  </use>
                  <path fill="none" stroke="white" stroke-width="1.5" d="M0,-3.0v7 M-2.5,-0.5L0,-3.0L2.5,-0.5"/>
                </g>
                <g id="arrowDown" xlink:href="#dirArrow" transform="rotate(180) translate(-30 -48)" onmousedown="handlePan(0,1)">
                  <use xlink:href="#rim" fill="#404040">
                        <set attributeName="fill" to="#808080" begin="arrowDown.mouseover" end="arrowDown.mouseout"/>
                  </use>
                  <path fill="none" stroke="white" stroke-width="1.5" d="M0,-3.0v7 M-2.5,-0.5L0,-3.0L2.5,-0.5"/>
                </g>
                <g id="arrowLeft" xlink:href="#dirArrow" transform="rotate(270) translate(-36 17)" onmousedown="handlePan(-1,0)">
                  <use xlink:href="#rim" fill="#404040">
                        <set attributeName="fill" to="#808080" begin="arrowLeft.mouseover" end="arrowLeft.mouseout"/>
                  </use>
                  <path fill="none" stroke="white" stroke-width="1.5" d="M0,-3.0v7 M-2.5,-0.5L0,-3.0L2.5,-0.5"/>
                </g>
        </g>
        <svg viewBox="0 0 15 15" width="100%" height="30px" preserveAspectRatio="xMaxYMin meet">
         <g id="arrow_out" transform="scale(0.3 0.3)">
          <a xlink:href="namespacerepo_1_1programs_1_1pythonpackages_1_1pr_1_1SPfuncs_a1aca1da7012fa44af8ba6fb057c7ed1b_cgraph_org.svg" target="_base">
           <rect id="button" ry="5" rx="5" y="6" x="6" height="38" width="38"
                fill="#f2f5e9" fill-opacity="0.5" stroke="#606060" stroke-width="1.0"/>
           <path id="arrow"
             d="M 11.500037,31.436501 C 11.940474,20.09759 22.043105,11.32322 32.158766,21.979434 L 37.068811,17.246167 C 37.068811,17.246167 37.088388,32 37.088388,32 L 22.160133,31.978069 C 22.160133,31.978069 26.997745,27.140456 26.997745,27.140456 C 18.528582,18.264221 13.291696,25.230495 11.500037,31.436501 z"
             style="fill:#404040;"/>
          </a>
         </g>
        </svg>
</svg>
