<?xml version="1.0" encoding="UTF-8" standalone="no"?>
<!DOCTYPE svg PUBLIC "-//W3C//DTD SVG 1.1//EN"
 "http://www.w3.org/Graphics/SVG/1.1/DTD/svg11.dtd">
<!-- Generated by graphviz version 2.36.0 (20140111.2315)
 -->
<!-- Title: repo.programs.pythonpackages.pr.SPfuncs.group_by_axis Pages: 1 -->
<svg width="584pt" height="207pt"
 viewBox="0.00 0.00 584.00 207.00" xmlns="http://www.w3.org/2000/svg" xmlns:xlink="http://www.w3.org/1999/xlink">
<g id="graph0" class="graph" transform="scale(1 1) rotate(0) translate(4 203)">
<title>repo.programs.pythonpackages.pr.SPfuncs.group_by_axis</title>
<polygon fill="white" stroke="none" points="-4,4 -4,-203 580,-203 580,4 -4,4"/>
<!-- Node1 -->
<g id="node1" class="node"><title>Node1</title>
<polygon fill="#bfbfbf" stroke="black" points="0.5,-76 0.5,-106 167.5,-106 167.5,-76 0.5,-76"/>
<text text-anchor="start" x="8.5" y="-94" font-family="Helvetica,sans-Serif" font-size="10.00">repo.programs.pythonpackages.pr.</text>
<text text-anchor="middle" x="84" y="-83" font-family="Helvetica,sans-Serif" font-size="10.00">SPfuncs.group_by_axis</text>
</g>
<!-- Node2 -->
<g id="node2" class="node"><title>Node2</title>
<g id="a_node2"><a xlink:href="namespacerepo_1_1programs_1_1pythonpackages_1_1pr_1_1SPfuncs.html#aa986fff9d1f1b5354e43e972289e5844" target="_top" xlink:title="repo.programs.pythonpackages.pr.\lSPfuncs.process_sequences\l_multifit">
<polygon fill="white" stroke="black" points="204.5,-157.5 204.5,-198.5 371.5,-198.5 371.5,-157.5 204.5,-157.5"/>
<text text-anchor="start" x="212.5" y="-186.5" font-family="Helvetica,sans-Serif" font-size="10.00">repo.programs.pythonpackages.pr.</text>
<text text-anchor="start" x="212.5" y="-175.5" font-family="Helvetica,sans-Serif" font-size="10.00">SPfuncs.process_sequences</text>
<text text-anchor="middle" x="288" y="-164.5" font-family="Helvetica,sans-Serif" font-size="10.00">_multifit</text>
</a>
</g>
</g>
<!-- Node1&#45;&gt;Node2 -->
<g id="edge1" class="edge"><title>Node1&#45;&gt;Node2</title>
<path fill="none" stroke="midnightblue" d="M124.601,-110.638C147.575,-121.777 177.183,-135.705 204,-147 212.364,-150.523 221.281,-154.068 230.052,-157.439"/>
<polygon fill="midnightblue" stroke="midnightblue" points="126.03,-107.441 115.507,-106.206 122.963,-113.733 126.03,-107.441"/>
</g>
<!-- Node3 -->
<g id="node3" class="node"><title>Node3</title>
<g id="a_node3"><a xlink:href="namespacerepo_1_1programs_1_1pythonpackages_1_1pr_1_1SPfuncs.html#ae43119e40ee34e8e5f67a1088548adb6" target="_top" xlink:title="repo.programs.pythonpackages.pr.\lSPfuncs.split_and_process\l_sequences">
<polygon fill="white" stroke="black" points="204.5,-97.5 204.5,-138.5 371.5,-138.5 371.5,-97.5 204.5,-97.5"/>
<text text-anchor="start" x="212.5" y="-126.5" font-family="Helvetica,sans-Serif" font-size="10.00">repo.programs.pythonpackages.pr.</text>
<text text-anchor="start" x="212.5" y="-115.5" font-family="Helvetica,sans-Serif" font-size="10.00">SPfuncs.split_and_process</text>
<text text-anchor="middle" x="288" y="-104.5" font-family="Helvetica,sans-Serif" font-size="10.00">_sequences</text>
</a>
</g>
</g>
<!-- Node1&#45;&gt;Node3 -->
<g id="edge2" class="edge"><title>Node1&#45;&gt;Node3</title>
<path fill="none" stroke="midnightblue" d="M177.731,-103.395C186.622,-104.583 195.6,-105.783 204.385,-106.957"/>
<polygon fill="midnightblue" stroke="midnightblue" points="178.12,-99.9156 167.744,-102.06 177.192,-106.854 178.12,-99.9156"/>
</g>
<!-- Node5 -->
<g id="node5" class="node"><title>Node5</title>
<g id="a_node5"><a xlink:href="namespacerepo_1_1programs_1_1pythonpackages_1_1pr_1_1SPfuncs.html#af195e86c16fec9d60d1ac20dbe5d1f19" target="_top" xlink:title="repo.programs.pythonpackages.pr.\lSPfuncs.view_correlation_filtering">
<polygon fill="white" stroke="black" points="204.5,-49 204.5,-79 371.5,-79 371.5,-49 204.5,-49"/>
<text text-anchor="start" x="212.5" y="-67" font-family="Helvetica,sans-Serif" font-size="10.00">repo.programs.pythonpackages.pr.</text>
<text text-anchor="middle" x="288" y="-56" font-family="Helvetica,sans-Serif" font-size="10.00">SPfuncs.view_correlation_filtering</text>
</a>
</g>
</g>
<!-- Node1&#45;&gt;Node5 -->
<g id="edge4" class="edge"><title>Node1&#45;&gt;Node5</title>
<path fill="none" stroke="midnightblue" d="M177.731,-78.6053C186.622,-77.4168 195.6,-76.2169 204.385,-75.0426"/>
<polygon fill="midnightblue" stroke="midnightblue" points="177.192,-75.1461 167.744,-79.9402 178.12,-82.0844 177.192,-75.1461"/>
</g>
<!-- Node6 -->
<g id="node6" class="node"><title>Node6</title>
<g id="a_node6"><a xlink:href="namespacerepo_1_1programs_1_1pythonpackages_1_1pr_1_1SPfuncs.html#a45a8e352a69cc8a225a32134c87cd120" target="_top" xlink:title="repo.programs.pythonpackages.pr.\lSPfuncs.view_correlations">
<polygon fill="white" stroke="black" points="204.5,-0 204.5,-30 371.5,-30 371.5,-0 204.5,-0"/>
<text text-anchor="start" x="212.5" y="-18" font-family="Helvetica,sans-Serif" font-size="10.00">repo.programs.pythonpackages.pr.</text>
<text text-anchor="middle" x="288" y="-7" font-family="Helvetica,sans-Serif" font-size="10.00">SPfuncs.view_correlations</text>
</a>
</g>
</g>
<!-- Node1&#45;&gt;Node6 -->
<g id="edge5" class="edge"><title>Node1&#45;&gt;Node6</title>
<path fill="none" stroke="midnightblue" d="M126.739,-71.7482C149.357,-61.6634 177.938,-49.4758 204,-40 213.476,-36.5546 223.677,-33.2003 233.575,-30.1253"/>
<polygon fill="midnightblue" stroke="midnightblue" points="125.123,-68.6372 117.435,-75.9275 127.991,-75.0226 125.123,-68.6372"/>
</g>
<!-- Node4 -->
<g id="node4" class="node"><title>Node4</title>
<g id="a_node4"><a xlink:href="namespacerepo_1_1programs_1_1pythonpackages_1_1pr_1_1SPfuncs.html#a1aca1da7012fa44af8ba6fb057c7ed1b" target="_top" xlink:title="Todos: ">
<polygon fill="white" stroke="black" points="408.5,-103 408.5,-133 575.5,-133 575.5,-103 408.5,-103"/>
<text text-anchor="start" x="416.5" y="-121" font-family="Helvetica,sans-Serif" font-size="10.00">repo.programs.pythonpackages.pr.</text>
<text text-anchor="middle" x="492" y="-110" font-family="Helvetica,sans-Serif" font-size="10.00">SPfuncs.spSearchSet</text>
</a>
</g>
</g>
<!-- Node3&#45;&gt;Node4 -->
<g id="edge3" class="edge"><title>Node3&#45;&gt;Node4</title>
<path fill="none" stroke="midnightblue" d="M382.018,-118C390.815,-118 399.694,-118 408.385,-118"/>
<polygon fill="midnightblue" stroke="midnightblue" points="381.744,-114.5 371.744,-118 381.744,-121.5 381.744,-114.5"/>
</g>
</g>
</svg>
