<?xml version="1.0" encoding="UTF-8" standalone="no"?>
<!DOCTYPE svg PUBLIC "-//W3C//DTD SVG 1.1//EN"
 "http://www.w3.org/Graphics/SVG/1.1/DTD/svg11.dtd">
<!-- Generated by graphviz version 2.36.0 (20140111.2315)
 -->
<!-- Title: repo.programs.pythonpackages.pr.SPfuncs.makeTestData Pages: 1 -->
<svg width="584pt" height="209pt"
 viewBox="0.00 0.00 584.00 209.08" xmlns="http://www.w3.org/2000/svg" xmlns:xlink="http://www.w3.org/1999/xlink">
<g id="graph0" class="graph" transform="scale(1 1) rotate(0) translate(4 205.081)">
<title>repo.programs.pythonpackages.pr.SPfuncs.makeTestData</title>
<polygon fill="white" stroke="none" points="-4,4 -4,-205.081 580,-205.081 580,4 -4,4"/>
<!-- Node1 -->
<g id="node1" class="node"><title>Node1</title>
<polygon fill="#bfbfbf" stroke="black" points="0.5,-98 0.5,-128 167.5,-128 167.5,-98 0.5,-98"/>
<text text-anchor="start" x="8.5" y="-116" font-family="Helvetica,sans-Serif" font-size="10.00">repo.programs.pythonpackages.pr.</text>
<text text-anchor="middle" x="84" y="-105" font-family="Helvetica,sans-Serif" font-size="10.00">SPfuncs.makeTestData</text>
</g>
<!-- Node2 -->
<g id="node2" class="node"><title>Node2</title>
<g id="a_node2"><a xlink:href="namespacerepo_1_1programs_1_1pythonpackages_1_1pr_1_1SPfuncs.html#a9d03b1e8bb9325cdab8fa026d6cdbbe3" target="_top" xlink:title="repo.programs.pythonpackages.pr.\lSPfuncs.secs2sd">
<polygon fill="white" stroke="black" points="408.5,-169 408.5,-199 575.5,-199 575.5,-169 408.5,-169"/>
<text text-anchor="start" x="416.5" y="-187" font-family="Helvetica,sans-Serif" font-size="10.00">repo.programs.pythonpackages.pr.</text>
<text text-anchor="middle" x="492" y="-176" font-family="Helvetica,sans-Serif" font-size="10.00">SPfuncs.secs2sd</text>
</a>
</g>
</g>
<!-- Node1&#45;&gt;Node2 -->
<g id="edge1" class="edge"><title>Node1&#45;&gt;Node2</title>
<path fill="none" stroke="midnightblue" d="M102.453,-128.075C124.417,-145.952 164.113,-174.741 204,-186 267.106,-203.814 341.173,-202.784 398.256,-197.578"/>
<polygon fill="midnightblue" stroke="midnightblue" points="398.733,-201.048 408.348,-196.598 398.057,-194.08 398.733,-201.048"/>
</g>
<!-- Node3 -->
<g id="node3" class="node"><title>Node3</title>
<g id="a_node3"><a xlink:href="namespacerepo_1_1programs_1_1pythonpackages_1_1pr_1_1SPfuncs.html#af8a48b74a6d4e725e2409329126076a6" target="_top" xlink:title="Construct a set of triggers by analysing the timing for the signal. ">
<polygon fill="white" stroke="black" points="204.5,-147 204.5,-177 371.5,-177 371.5,-147 204.5,-147"/>
<text text-anchor="start" x="212.5" y="-165" font-family="Helvetica,sans-Serif" font-size="10.00">repo.programs.pythonpackages.pr.</text>
<text text-anchor="middle" x="288" y="-154" font-family="Helvetica,sans-Serif" font-size="10.00">SPfuncs.makeTriggers</text>
</a>
</g>
</g>
<!-- Node1&#45;&gt;Node3 -->
<g id="edge2" class="edge"><title>Node1&#45;&gt;Node3</title>
<path fill="none" stroke="midnightblue" d="M146.979,-128.035C168.599,-133.279 193.037,-139.207 215.375,-144.626"/>
<polygon fill="midnightblue" stroke="midnightblue" points="214.594,-148.038 225.138,-146.994 216.245,-141.235 214.594,-148.038"/>
</g>
<!-- Node4 -->
<g id="node4" class="node"><title>Node4</title>
<g id="a_node4"><a xlink:href="namespacerepo_1_1programs_1_1pythonpackages_1_1pr_1_1SPfuncs.html#a87aac33304db20fd58d7a3625061cca6" target="_top" xlink:title="Cut up the times &#160;into sections that start at t_0 and and at t_end OR t_0 + delta_t if they&#39;re all th...">
<polygon fill="white" stroke="black" points="204.5,-98 204.5,-128 371.5,-128 371.5,-98 204.5,-98"/>
<text text-anchor="start" x="212.5" y="-116" font-family="Helvetica,sans-Serif" font-size="10.00">repo.programs.pythonpackages.pr.</text>
<text text-anchor="middle" x="288" y="-105" font-family="Helvetica,sans-Serif" font-size="10.00">SPfuncs.sliceSorted</text>
</a>
</g>
</g>
<!-- Node1&#45;&gt;Node4 -->
<g id="edge4" class="edge"><title>Node1&#45;&gt;Node4</title>
<path fill="none" stroke="midnightblue" d="M167.744,-113C176.437,-113 185.316,-113 194.112,-113"/>
<polygon fill="midnightblue" stroke="midnightblue" points="194.385,-116.5 204.385,-113 194.385,-109.5 194.385,-116.5"/>
</g>
<!-- Node5 -->
<g id="node5" class="node"><title>Node5</title>
<g id="a_node5"><a xlink:href="namespacerepo_1_1programs_1_1pythonpackages_1_1pr_1_1SPfuncs.html#a2533afa952ea007cfad4a1deb6a607a5" target="_top" xlink:title="Return angles for the sequence defined by , repeated &#160;times. ">
<polygon fill="white" stroke="black" points="204.5,-49 204.5,-79 371.5,-79 371.5,-49 204.5,-49"/>
<text text-anchor="start" x="212.5" y="-67" font-family="Helvetica,sans-Serif" font-size="10.00">repo.programs.pythonpackages.pr.</text>
<text text-anchor="middle" x="288" y="-56" font-family="Helvetica,sans-Serif" font-size="10.00">SPfuncs.getAnglesFromRSpec</text>
</a>
</g>
</g>
<!-- Node1&#45;&gt;Node5 -->
<g id="edge5" class="edge"><title>Node1&#45;&gt;Node5</title>
<path fill="none" stroke="midnightblue" d="M146.979,-97.9654C168.599,-92.7211 193.037,-86.7931 215.375,-81.3745"/>
<polygon fill="midnightblue" stroke="midnightblue" points="216.245,-84.765 225.138,-79.0062 214.594,-77.9623 216.245,-84.765"/>
</g>
<!-- Node7 -->
<g id="node7" class="node"><title>Node7</title>
<g id="a_node7"><a xlink:href="namespacerepo_1_1programs_1_1pythonpackages_1_1pr_1_1SPfuncs.html#aca5c571c3ee666190d0568fbcd72f1a9" target="_top" xlink:title="repo.programs.pythonpackages.pr.\lSPfuncs.sd2secs">
<polygon fill="white" stroke="black" points="204.5,-0 204.5,-30 371.5,-30 371.5,-0 204.5,-0"/>
<text text-anchor="start" x="212.5" y="-18" font-family="Helvetica,sans-Serif" font-size="10.00">repo.programs.pythonpackages.pr.</text>
<text text-anchor="middle" x="288" y="-7" font-family="Helvetica,sans-Serif" font-size="10.00">SPfuncs.sd2secs</text>
</a>
</g>
</g>
<!-- Node1&#45;&gt;Node7 -->
<g id="edge7" class="edge"><title>Node1&#45;&gt;Node7</title>
<path fill="none" stroke="midnightblue" d="M105.519,-97.7857C128.494,-81.3494 167.329,-55.3282 204,-39 208.394,-37.0437 212.989,-35.201 217.666,-33.4741"/>
<polygon fill="midnightblue" stroke="midnightblue" points="219.057,-36.6955 227.343,-30.0927 216.748,-30.0873 219.057,-36.6955"/>
</g>
<!-- Node3&#45;&gt;Node2 -->
<g id="edge3" class="edge"><title>Node3&#45;&gt;Node2</title>
<path fill="none" stroke="midnightblue" d="M371.744,-171.012C380.531,-171.969 389.509,-172.947 398.399,-173.915"/>
<polygon fill="midnightblue" stroke="midnightblue" points="398.065,-177.399 408.385,-175.002 398.822,-170.44 398.065,-177.399"/>
</g>
<!-- Node6 -->
<g id="node6" class="node"><title>Node6</title>
<g id="a_node6"><a xlink:href="namespacerepo_1_1programs_1_1pythonpackages_1_1pr_1_1SPfuncs.html#aba724f914a5cc838851518564a1f5d84" target="_top" xlink:title="repo.programs.pythonpackages.pr.\lSPfuncs.getRotationsFromRSpec">
<polygon fill="white" stroke="black" points="408.5,-49 408.5,-79 575.5,-79 575.5,-49 408.5,-49"/>
<text text-anchor="start" x="416.5" y="-67" font-family="Helvetica,sans-Serif" font-size="10.00">repo.programs.pythonpackages.pr.</text>
<text text-anchor="middle" x="492" y="-56" font-family="Helvetica,sans-Serif" font-size="10.00">SPfuncs.getRotationsFromRSpec</text>
</a>
</g>
</g>
<!-- Node5&#45;&gt;Node6 -->
<g id="edge6" class="edge"><title>Node5&#45;&gt;Node6</title>
<path fill="none" stroke="midnightblue" d="M371.744,-64C380.437,-64 389.316,-64 398.112,-64"/>
<polygon fill="midnightblue" stroke="midnightblue" points="398.385,-67.5001 408.385,-64 398.385,-60.5001 398.385,-67.5001"/>
</g>
</g>
</svg>
