<?xml version="1.0" encoding="UTF-8" standalone="no"?>
<!DOCTYPE svg PUBLIC "-//W3C//DTD SVG 1.1//EN"
 "http://www.w3.org/Graphics/SVG/1.1/DTD/svg11.dtd">
<!-- Generated by graphviz version 2.36.0 (20140111.2315)
 -->
<!-- Title: repo.programs.pythonpackages.pr.SPfuncs.sliceSorted Pages: 1 -->
<svg width="584pt" height="185pt"
 viewBox="0.00 0.00 584.00 185.00" xmlns="http://www.w3.org/2000/svg" xmlns:xlink="http://www.w3.org/1999/xlink">
<g id="graph0" class="graph" transform="scale(1 1) rotate(0) translate(4 181)">
<title>repo.programs.pythonpackages.pr.SPfuncs.sliceSorted</title>
<polygon fill="white" stroke="none" points="-4,4 -4,-181 580,-181 580,4 -4,4"/>
<!-- Node1 -->
<g id="node1" class="node"><title>Node1</title>
<polygon fill="#bfbfbf" stroke="black" points="0.5,-73 0.5,-103 167.5,-103 167.5,-73 0.5,-73"/>
<text text-anchor="start" x="8.5" y="-91" font-family="Helvetica,sans-Serif" font-size="10.00">repo.programs.pythonpackages.pr.</text>
<text text-anchor="middle" x="84" y="-80" font-family="Helvetica,sans-Serif" font-size="10.00">SPfuncs.sliceSorted</text>
</g>
<!-- Node2 -->
<g id="node2" class="node"><title>Node2</title>
<g id="a_node2"><a xlink:href="namespacerepo_1_1programs_1_1pythonpackages_1_1pr_1_1SPDataSet.html#ac07feedd7af03661a0925bdec0d1f1fe" target="_top" xlink:title="repo.programs.pythonpackages.pr.\lSPDataSet.seqFiltFuncTime">
<polygon fill="white" stroke="black" points="204.5,-147 204.5,-177 371.5,-177 371.5,-147 204.5,-147"/>
<text text-anchor="start" x="212.5" y="-165" font-family="Helvetica,sans-Serif" font-size="10.00">repo.programs.pythonpackages.pr.</text>
<text text-anchor="middle" x="288" y="-154" font-family="Helvetica,sans-Serif" font-size="10.00">SPDataSet.seqFiltFuncTime</text>
</a>
</g>
</g>
<!-- Node1&#45;&gt;Node2 -->
<g id="edge1" class="edge"><title>Node1&#45;&gt;Node2</title>
<path fill="none" stroke="midnightblue" d="M128.264,-107.012C150.665,-116.549 178.58,-127.963 204,-137 213.642,-140.428 224.018,-143.799 234.058,-146.901"/>
<polygon fill="midnightblue" stroke="midnightblue" points="129.595,-103.774 119.024,-103.052 126.837,-110.208 129.595,-103.774"/>
</g>
<!-- Node3 -->
<g id="node3" class="node"><title>Node3</title>
<g id="a_node3"><a xlink:href="namespacerepo_1_1programs_1_1pythonpackages_1_1pr_1_1SPfuncs.html#afac5173c60ef10bac3b5eafb40f7efef" target="_top" xlink:title="Cut the given x data at points starting from x0, and going to x0+delta_x, and perform the functions i...">
<polygon fill="white" stroke="black" points="204.5,-98 204.5,-128 371.5,-128 371.5,-98 204.5,-98"/>
<text text-anchor="start" x="212.5" y="-116" font-family="Helvetica,sans-Serif" font-size="10.00">repo.programs.pythonpackages.pr.</text>
<text text-anchor="middle" x="288" y="-105" font-family="Helvetica,sans-Serif" font-size="10.00">SPfuncs.sliceReduceData</text>
</a>
</g>
</g>
<!-- Node1&#45;&gt;Node3 -->
<g id="edge2" class="edge"><title>Node1&#45;&gt;Node3</title>
<path fill="none" stroke="midnightblue" d="M177.731,-99.4766C186.622,-100.577 195.6,-101.688 204.385,-102.775"/>
<polygon fill="midnightblue" stroke="midnightblue" points="178.098,-95.9954 167.744,-98.2406 177.238,-102.942 178.098,-95.9954"/>
</g>
<!-- Node4 -->
<g id="node4" class="node"><title>Node4</title>
<g id="a_node4"><a xlink:href="namespacerepo_1_1programs_1_1pythonpackages_1_1pr_1_1SPfuncs.html#ae90ba18ae292290722e197cf242d8721" target="_top" xlink:title="Make up some data that the experiment might have measured. ">
<polygon fill="white" stroke="black" points="204.5,-49 204.5,-79 371.5,-79 371.5,-49 204.5,-49"/>
<text text-anchor="start" x="212.5" y="-67" font-family="Helvetica,sans-Serif" font-size="10.00">repo.programs.pythonpackages.pr.</text>
<text text-anchor="middle" x="288" y="-56" font-family="Helvetica,sans-Serif" font-size="10.00">SPfuncs.makeTestData</text>
</a>
</g>
</g>
<!-- Node1&#45;&gt;Node4 -->
<g id="edge3" class="edge"><title>Node1&#45;&gt;Node4</title>
<path fill="none" stroke="midnightblue" d="M177.731,-76.9824C186.622,-75.9261 195.6,-74.8595 204.385,-73.8157"/>
<polygon fill="midnightblue" stroke="midnightblue" points="177.261,-73.5136 167.744,-78.169 178.087,-80.4647 177.261,-73.5136"/>
</g>
<!-- Node7 -->
<g id="node7" class="node"><title>Node7</title>
<g id="a_node7"><a xlink:href="namespacerepo_1_1programs_1_1pythonpackages_1_1pr_1_1SPfuncs.html#aa45dbb6291e4944f3ba2718a3d0ee001" target="_top" xlink:title="repo.programs.pythonpackages.pr.\lSPfuncs.preprocess_raw">
<polygon fill="white" stroke="black" points="204.5,-0 204.5,-30 371.5,-30 371.5,-0 204.5,-0"/>
<text text-anchor="start" x="212.5" y="-18" font-family="Helvetica,sans-Serif" font-size="10.00">repo.programs.pythonpackages.pr.</text>
<text text-anchor="middle" x="288" y="-7" font-family="Helvetica,sans-Serif" font-size="10.00">SPfuncs.preprocess_raw</text>
</a>
</g>
</g>
<!-- Node1&#45;&gt;Node7 -->
<g id="edge6" class="edge"><title>Node1&#45;&gt;Node7</title>
<path fill="none" stroke="midnightblue" d="M129.331,-69.0029C151.562,-59.7624 179.01,-48.7831 204,-40 213.796,-36.5569 224.342,-33.1536 234.52,-30.0189"/>
<polygon fill="midnightblue" stroke="midnightblue" points="127.703,-65.8899 119.829,-72.9783 130.405,-72.3475 127.703,-65.8899"/>
</g>
<!-- Node5 -->
<g id="node5" class="node"><title>Node5</title>
<g id="a_node5"><a xlink:href="namespacerepo_1_1programs_1_1pythonpackages_1_1pr_1_1SPDataSet.html#ab3e94a5db004f2a1cbe3b89005731d7c" target="_top" xlink:title="repo.programs.pythonpackages.pr.\lSPDataSet.testDS">
<polygon fill="white" stroke="black" points="408.5,-98 408.5,-128 575.5,-128 575.5,-98 408.5,-98"/>
<text text-anchor="start" x="416.5" y="-116" font-family="Helvetica,sans-Serif" font-size="10.00">repo.programs.pythonpackages.pr.</text>
<text text-anchor="middle" x="492" y="-105" font-family="Helvetica,sans-Serif" font-size="10.00">SPDataSet.testDS</text>
</a>
</g>
</g>
<!-- Node4&#45;&gt;Node5 -->
<g id="edge4" class="edge"><title>Node4&#45;&gt;Node5</title>
<path fill="none" stroke="midnightblue" d="M360.746,-81.4038C383.092,-86.8243 407.529,-92.752 429.138,-97.9938"/>
<polygon fill="midnightblue" stroke="midnightblue" points="361.523,-77.9907 350.979,-79.0346 359.872,-84.7934 361.523,-77.9907"/>
</g>
<!-- Node6 -->
<g id="node6" class="node"><title>Node6</title>
<g id="a_node6"><a xlink:href="namespacerepo_1_1programs_1_1pythonpackages_1_1pr_1_1SPDataSet.html#ae343b1ec862928d74ae9f6e140008b0d" target="_top" xlink:title="repo.programs.pythonpackages.pr.\lSPDataSet.testDS2">
<polygon fill="white" stroke="black" points="408.5,-49 408.5,-79 575.5,-79 575.5,-49 408.5,-49"/>
<text text-anchor="start" x="416.5" y="-67" font-family="Helvetica,sans-Serif" font-size="10.00">repo.programs.pythonpackages.pr.</text>
<text text-anchor="middle" x="492" y="-56" font-family="Helvetica,sans-Serif" font-size="10.00">SPDataSet.testDS2</text>
</a>
</g>
</g>
<!-- Node4&#45;&gt;Node6 -->
<g id="edge5" class="edge"><title>Node4&#45;&gt;Node6</title>
<path fill="none" stroke="midnightblue" d="M382.018,-64C390.815,-64 399.694,-64 408.385,-64"/>
<polygon fill="midnightblue" stroke="midnightblue" points="381.744,-60.5001 371.744,-64 381.744,-67.5001 381.744,-60.5001"/>
</g>
<!-- Node8 -->
<g id="node8" class="node"><title>Node8</title>
<g id="a_node8"><a xlink:href="namespacerepo_1_1programs_1_1pythonpackages_1_1pr_1_1SPfuncs.html#a1aca1da7012fa44af8ba6fb057c7ed1b" target="_top" xlink:title="Todos: ">
<polygon fill="white" stroke="black" points="408.5,-0 408.5,-30 575.5,-30 575.5,-0 408.5,-0"/>
<text text-anchor="start" x="416.5" y="-18" font-family="Helvetica,sans-Serif" font-size="10.00">repo.programs.pythonpackages.pr.</text>
<text text-anchor="middle" x="492" y="-7" font-family="Helvetica,sans-Serif" font-size="10.00">SPfuncs.spSearchSet</text>
</a>
</g>
</g>
<!-- Node7&#45;&gt;Node8 -->
<g id="edge7" class="edge"><title>Node7&#45;&gt;Node8</title>
<path fill="none" stroke="midnightblue" d="M382.018,-15C390.815,-15 399.694,-15 408.385,-15"/>
<polygon fill="midnightblue" stroke="midnightblue" points="381.744,-11.5001 371.744,-15 381.744,-18.5001 381.744,-11.5001"/>
</g>
</g>
</svg>
