<?xml version="1.0" encoding="UTF-8" standalone="no"?>
<!DOCTYPE svg PUBLIC "-//W3C//DTD SVG 1.1//EN"
 "http://www.w3.org/Graphics/SVG/1.1/DTD/svg11.dtd">
<!-- Generated by graphviz version 2.36.0 (20140111.2315)
 -->
<!-- Title: repo.programs.pythonpackages.pr.SPfuncs.process_sequences Pages: 1 -->
<svg width="584pt" height="48pt"
 viewBox="0.00 0.00 584.00 48.00" xmlns="http://www.w3.org/2000/svg" xmlns:xlink="http://www.w3.org/1999/xlink">
<g id="graph0" class="graph" transform="scale(1 1) rotate(0) translate(4 44)">
<title>repo.programs.pythonpackages.pr.SPfuncs.process_sequences</title>
<polygon fill="white" stroke="none" points="-4,4 -4,-44 580,-44 580,4 -4,4"/>
<!-- Node1 -->
<g id="node1" class="node"><title>Node1</title>
<polygon fill="#bfbfbf" stroke="black" points="0.5,-5 0.5,-35 167.5,-35 167.5,-5 0.5,-5"/>
<text text-anchor="start" x="8.5" y="-23" font-family="Helvetica,sans-Serif" font-size="10.00">repo.programs.pythonpackages.pr.</text>
<text text-anchor="middle" x="84" y="-12" font-family="Helvetica,sans-Serif" font-size="10.00">SPfuncs.process_sequences</text>
</g>
<!-- Node2 -->
<g id="node2" class="node"><title>Node2</title>
<g id="a_node2"><a xlink:href="namespacerepo_1_1programs_1_1pythonpackages_1_1pr_1_1SPfuncs.html#ae43119e40ee34e8e5f67a1088548adb6" target="_top" xlink:title="repo.programs.pythonpackages.pr.\lSPfuncs.split_and_process\l_sequences">
<polygon fill="white" stroke="black" points="204.5,0.5 204.5,-40.5 371.5,-40.5 371.5,0.5 204.5,0.5"/>
<text text-anchor="start" x="212.5" y="-28.5" font-family="Helvetica,sans-Serif" font-size="10.00">repo.programs.pythonpackages.pr.</text>
<text text-anchor="start" x="212.5" y="-17.5" font-family="Helvetica,sans-Serif" font-size="10.00">SPfuncs.split_and_process</text>
<text text-anchor="middle" x="288" y="-6.5" font-family="Helvetica,sans-Serif" font-size="10.00">_sequences</text>
</a>
</g>
</g>
<!-- Node1&#45;&gt;Node2 -->
<g id="edge1" class="edge"><title>Node1&#45;&gt;Node2</title>
<path fill="none" stroke="midnightblue" d="M178.018,-20C186.815,-20 195.694,-20 204.385,-20"/>
<polygon fill="midnightblue" stroke="midnightblue" points="177.744,-16.5001 167.744,-20 177.744,-23.5001 177.744,-16.5001"/>
</g>
<!-- Node3 -->
<g id="node3" class="node"><title>Node3</title>
<g id="a_node3"><a xlink:href="namespacerepo_1_1programs_1_1pythonpackages_1_1pr_1_1SPfuncs.html#a1aca1da7012fa44af8ba6fb057c7ed1b" target="_top" xlink:title="Todos: ">
<polygon fill="white" stroke="black" points="408.5,-5 408.5,-35 575.5,-35 575.5,-5 408.5,-5"/>
<text text-anchor="start" x="416.5" y="-23" font-family="Helvetica,sans-Serif" font-size="10.00">repo.programs.pythonpackages.pr.</text>
<text text-anchor="middle" x="492" y="-12" font-family="Helvetica,sans-Serif" font-size="10.00">SPfuncs.spSearchSet</text>
</a>
</g>
</g>
<!-- Node2&#45;&gt;Node3 -->
<g id="edge2" class="edge"><title>Node2&#45;&gt;Node3</title>
<path fill="none" stroke="midnightblue" d="M382.018,-20C390.815,-20 399.694,-20 408.385,-20"/>
<polygon fill="midnightblue" stroke="midnightblue" points="381.744,-16.5001 371.744,-20 381.744,-23.5001 381.744,-16.5001"/>
</g>
</g>
</svg>
