<?xml version="1.0" encoding="UTF-8" standalone="no"?>
<!DOCTYPE svg PUBLIC "-//W3C//DTD SVG 1.1//EN"
 "http://www.w3.org/Graphics/SVG/1.1/DTD/svg11.dtd">
<!-- Generated by graphviz version 2.36.0 (20140111.2315)
 -->
<!-- Title: repo.programs.pythonpackages.pr.loadSPFiles.loadSet Pages: 1 -->
<svg width="416pt" height="87pt"
 viewBox="0.00 0.00 416.00 87.00" xmlns="http://www.w3.org/2000/svg" xmlns:xlink="http://www.w3.org/1999/xlink">
<g id="graph0" class="graph" transform="scale(1 1) rotate(0) translate(4 83)">
<title>repo.programs.pythonpackages.pr.loadSPFiles.loadSet</title>
<polygon fill="white" stroke="none" points="-4,4 -4,-83 412,-83 412,4 -4,4"/>
<!-- Node1 -->
<g id="node1" class="node"><title>Node1</title>
<polygon fill="#bfbfbf" stroke="black" points="0.5,-24 0.5,-54 185.5,-54 185.5,-24 0.5,-24"/>
<text text-anchor="start" x="8.5" y="-42" font-family="Helvetica,sans-Serif" font-size="10.00">repo.programs.pythonpackages.pr.load</text>
<text text-anchor="middle" x="93" y="-31" font-family="Helvetica,sans-Serif" font-size="10.00">SPFiles.loadSet</text>
</g>
<!-- Node2 -->
<g id="node2" class="node"><title>Node2</title>
<g id="a_node2"><a xlink:href="namespacerepo_1_1programs_1_1pythonpackages_1_1pr_1_1loadSPFiles.html#ad67a85b681c64920ca3d127dcbb8693a" target="_top" xlink:title="repo.programs.pythonpackages.pr.load\lSPFiles.getSpinningDataNames">
<polygon fill="white" stroke="black" points="222.5,-49 222.5,-79 407.5,-79 407.5,-49 222.5,-49"/>
<text text-anchor="start" x="230.5" y="-67" font-family="Helvetica,sans-Serif" font-size="10.00">repo.programs.pythonpackages.pr.load</text>
<text text-anchor="middle" x="315" y="-56" font-family="Helvetica,sans-Serif" font-size="10.00">SPFiles.getSpinningDataNames</text>
</a>
</g>
</g>
<!-- Node1&#45;&gt;Node2 -->
<g id="edge1" class="edge"><title>Node1&#45;&gt;Node2</title>
<path fill="none" stroke="midnightblue" d="M185.707,-49.4212C194.53,-50.4239 203.515,-51.4449 212.425,-52.4574"/>
<polygon fill="midnightblue" stroke="midnightblue" points="212.111,-55.9441 222.442,-53.5957 212.901,-48.9889 212.111,-55.9441"/>
</g>
<!-- Node3 -->
<g id="node3" class="node"><title>Node3</title>
<g id="a_node3"><a xlink:href="namespacerepo_1_1programs_1_1pythonpackages_1_1pr_1_1SPfuncs.html#acb6d178d4325b6c3d8fec4f8197d6819" target="_top" xlink:title="repo.programs.pythonpackages.pr.\lSPfuncs.renameFieldMaybe">
<polygon fill="white" stroke="black" points="231.5,-0 231.5,-30 398.5,-30 398.5,-0 231.5,-0"/>
<text text-anchor="start" x="239.5" y="-18" font-family="Helvetica,sans-Serif" font-size="10.00">repo.programs.pythonpackages.pr.</text>
<text text-anchor="middle" x="315" y="-7" font-family="Helvetica,sans-Serif" font-size="10.00">SPfuncs.renameFieldMaybe</text>
</a>
</g>
</g>
<!-- Node1&#45;&gt;Node3 -->
<g id="edge2" class="edge"><title>Node1&#45;&gt;Node3</title>
<path fill="none" stroke="midnightblue" d="M185.707,-28.9956C197.379,-27.7223 209.334,-26.4181 221.026,-25.1426"/>
<polygon fill="midnightblue" stroke="midnightblue" points="221.658,-28.5945 231.219,-24.0306 220.899,-21.6358 221.658,-28.5945"/>
</g>
</g>
</svg>
