<?xml version="1.0" encoding="UTF-8" standalone="no"?>
<!DOCTYPE svg PUBLIC "-//W3C//DTD SVG 1.1//EN"
 "http://www.w3.org/Graphics/SVG/1.1/DTD/svg11.dtd">
<!-- Generated by graphviz version 2.36.0 (20140111.2315)
 -->
<!-- Title: repo.programs.pythonpackages.pr.SPfuncs.stringSimple5pt Pages: 1 -->
<svg width="788pt" height="38pt"
 viewBox="0.00 0.00 788.00 38.00" xmlns="http://www.w3.org/2000/svg" xmlns:xlink="http://www.w3.org/1999/xlink">
<g id="graph0" class="graph" transform="scale(1 1) rotate(0) translate(4 34)">
<title>repo.programs.pythonpackages.pr.SPfuncs.stringSimple5pt</title>
<polygon fill="white" stroke="none" points="-4,4 -4,-34 784,-34 784,4 -4,4"/>
<!-- Node1 -->
<g id="node1" class="node"><title>Node1</title>
<polygon fill="#bfbfbf" stroke="black" points="0.5,-0 0.5,-30 167.5,-30 167.5,-0 0.5,-0"/>
<text text-anchor="start" x="8.5" y="-18" font-family="Helvetica,sans-Serif" font-size="10.00">repo.programs.pythonpackages.pr.</text>
<text text-anchor="middle" x="84" y="-7" font-family="Helvetica,sans-Serif" font-size="10.00">SPfuncs.stringSimple5pt</text>
</g>
<!-- Node2 -->
<g id="node2" class="node"><title>Node2</title>
<g id="a_node2"><a xlink:href="namespacerepo_1_1programs_1_1pythonpackages_1_1pr_1_1SPfuncs.html#a154be474c56db17750f8232efe410d54" target="_top" xlink:title="Input measurements x taken at angles theta0+ n* dtheta (assumed to be evenly spaced) and return harmo...">
<polygon fill="white" stroke="black" points="204.5,-0 204.5,-30 371.5,-30 371.5,-0 204.5,-0"/>
<text text-anchor="start" x="212.5" y="-18" font-family="Helvetica,sans-Serif" font-size="10.00">repo.programs.pythonpackages.pr.</text>
<text text-anchor="middle" x="288" y="-7" font-family="Helvetica,sans-Serif" font-size="10.00">SPfuncs.mgStringHarmonics</text>
</a>
</g>
</g>
<!-- Node1&#45;&gt;Node2 -->
<g id="edge1" class="edge"><title>Node1&#45;&gt;Node2</title>
<path fill="none" stroke="midnightblue" d="M178.018,-15C186.815,-15 195.694,-15 204.385,-15"/>
<polygon fill="midnightblue" stroke="midnightblue" points="177.744,-11.5001 167.744,-15 177.744,-18.5001 177.744,-11.5001"/>
</g>
<!-- Node3 -->
<g id="node3" class="node"><title>Node3</title>
<g id="a_node3"><a xlink:href="namespacerepo_1_1programs_1_1pythonpackages_1_1pr_1_1SPfuncs.html#a7265a1148ca13e5fb7961b297a214d13" target="_top" xlink:title="Turn groups of points into sequences&#45; except currently we go directly from a a group of &#39;cuts&#39; (i...">
<polygon fill="white" stroke="black" points="408.5,-0 408.5,-30 575.5,-30 575.5,-0 408.5,-0"/>
<text text-anchor="start" x="416.5" y="-18" font-family="Helvetica,sans-Serif" font-size="10.00">repo.programs.pythonpackages.pr.</text>
<text text-anchor="middle" x="492" y="-7" font-family="Helvetica,sans-Serif" font-size="10.00">SPfuncs.process_points</text>
</a>
</g>
</g>
<!-- Node2&#45;&gt;Node3 -->
<g id="edge2" class="edge"><title>Node2&#45;&gt;Node3</title>
<path fill="none" stroke="midnightblue" d="M382.018,-15C390.815,-15 399.694,-15 408.385,-15"/>
<polygon fill="midnightblue" stroke="midnightblue" points="381.744,-11.5001 371.744,-15 381.744,-18.5001 381.744,-11.5001"/>
</g>
<!-- Node4 -->
<g id="node4" class="node"><title>Node4</title>
<g id="a_node4"><a xlink:href="namespacerepo_1_1programs_1_1pythonpackages_1_1pr_1_1SPfuncs.html#a1aca1da7012fa44af8ba6fb057c7ed1b" target="_top" xlink:title="Todos: ">
<polygon fill="white" stroke="black" points="612.5,-0 612.5,-30 779.5,-30 779.5,-0 612.5,-0"/>
<text text-anchor="start" x="620.5" y="-18" font-family="Helvetica,sans-Serif" font-size="10.00">repo.programs.pythonpackages.pr.</text>
<text text-anchor="middle" x="696" y="-7" font-family="Helvetica,sans-Serif" font-size="10.00">SPfuncs.spSearchSet</text>
</a>
</g>
</g>
<!-- Node3&#45;&gt;Node4 -->
<g id="edge3" class="edge"><title>Node3&#45;&gt;Node4</title>
<path fill="none" stroke="midnightblue" d="M586.018,-15C594.815,-15 603.694,-15 612.385,-15"/>
<polygon fill="midnightblue" stroke="midnightblue" points="585.744,-11.5001 575.744,-15 585.744,-18.5001 585.744,-11.5001"/>
</g>
</g>
</svg>
