<?xml version="1.0" encoding="UTF-8" standalone="no"?>
<!DOCTYPE svg PUBLIC "-//W3C//DTD SVG 1.1//EN"
 "http://www.w3.org/Graphics/SVG/1.1/DTD/svg11.dtd">
<!-- Generated by graphviz version 2.36.0 (20140111.2315)
 -->
<!-- Title: repo.programs.pythonpackages.pr.SPfuncs.getAnglesFromRSpec Pages: 1 -->
<svg width="1712pt" height="380pt"
 viewBox="0.00 0.00 1712.00 380.01" xmlns="http://www.w3.org/2000/svg" xmlns:xlink="http://www.w3.org/1999/xlink">
<g id="graph0" class="graph" transform="scale(1 1) rotate(0) translate(4 376.009)">
<title>repo.programs.pythonpackages.pr.SPfuncs.getAnglesFromRSpec</title>
<polygon fill="white" stroke="none" points="-4,4 -4,-376.009 1708,-376.009 1708,4 -4,4"/>
<!-- Node1 -->
<g id="node1" class="node"><title>Node1</title>
<polygon fill="#bfbfbf" stroke="black" points="0.5,-90 0.5,-120 167.5,-120 167.5,-90 0.5,-90"/>
<text text-anchor="start" x="8.5" y="-108" font-family="Helvetica,sans-Serif" font-size="10.00">repo.programs.pythonpackages.pr.</text>
<text text-anchor="middle" x="84" y="-97" font-family="Helvetica,sans-Serif" font-size="10.00">SPfuncs.getAnglesFromRSpec</text>
</g>
<!-- Node2 -->
<g id="node2" class="node"><title>Node2</title>
<g id="a_node2"><a xlink:href="classrepo_1_1programs_1_1pythonpackages_1_1pr_1_1SPDataSet_1_1SPDataSet.html#aee6249fe272c46f07d0f2f32f6c188d2" target="_top" xlink:title="repo.programs.pythonpackages.pr.\lSPDataSet.SPDataSet.apparatusAngles">
<polygon fill="white" stroke="black" points="204,-131 204,-161 398,-161 398,-131 204,-131"/>
<text text-anchor="start" x="212" y="-149" font-family="Helvetica,sans-Serif" font-size="10.00">repo.programs.pythonpackages.pr.</text>
<text text-anchor="middle" x="301" y="-138" font-family="Helvetica,sans-Serif" font-size="10.00">SPDataSet.SPDataSet.apparatusAngles</text>
</a>
</g>
</g>
<!-- Node1&#45;&gt;Node2 -->
<g id="edge1" class="edge"><title>Node1&#45;&gt;Node2</title>
<path fill="none" stroke="midnightblue" d="M174.022,-121.976C189.66,-124.958 205.836,-128.043 221.172,-130.968"/>
<polygon fill="midnightblue" stroke="midnightblue" points="174.316,-118.469 163.837,-120.034 173.005,-125.345 174.316,-118.469"/>
</g>
<!-- Node16 -->
<g id="node16" class="node"><title>Node16</title>
<g id="a_node16"><a xlink:href="namespacerepo_1_1programs_1_1pythonpackages_1_1pr_1_1SPfuncs.html#ae90ba18ae292290722e197cf242d8721" target="_top" xlink:title="Make up some data that the experiment might have measured. ">
<polygon fill="white" stroke="black" points="217.5,-49 217.5,-79 384.5,-79 384.5,-49 217.5,-49"/>
<text text-anchor="start" x="225.5" y="-67" font-family="Helvetica,sans-Serif" font-size="10.00">repo.programs.pythonpackages.pr.</text>
<text text-anchor="middle" x="301" y="-56" font-family="Helvetica,sans-Serif" font-size="10.00">SPfuncs.makeTestData</text>
</a>
</g>
</g>
<!-- Node1&#45;&gt;Node16 -->
<g id="edge26" class="edge"><title>Node1&#45;&gt;Node16</title>
<path fill="none" stroke="midnightblue" d="M174.022,-88.0237C189.66,-85.0416 205.836,-81.9568 221.172,-79.0323"/>
<polygon fill="midnightblue" stroke="midnightblue" points="173.005,-84.6546 163.837,-89.9659 174.316,-91.5307 173.005,-84.6546"/>
</g>
<!-- Node3 -->
<g id="node3" class="node"><title>Node3</title>
<g id="a_node3"><a xlink:href="classrepo_1_1programs_1_1pythonpackages_1_1pr_1_1SPDataSet_1_1SPDataSet.html#a5b12a3d9fdb93ccbf79a6b7a7893be3f" target="_top" xlink:title="repo.programs.pythonpackages.pr.\lSPDataSet.SPDataSet.cutAmp">
<polygon fill="white" stroke="black" points="434.5,-187 434.5,-217 601.5,-217 601.5,-187 434.5,-187"/>
<text text-anchor="start" x="442.5" y="-205" font-family="Helvetica,sans-Serif" font-size="10.00">repo.programs.pythonpackages.pr.</text>
<text text-anchor="middle" x="518" y="-194" font-family="Helvetica,sans-Serif" font-size="10.00">SPDataSet.SPDataSet.cutAmp</text>
</a>
</g>
</g>
<!-- Node2&#45;&gt;Node3 -->
<g id="edge2" class="edge"><title>Node2&#45;&gt;Node3</title>
<path fill="none" stroke="midnightblue" d="M369.595,-163.606C398.378,-171.103 431.609,-179.759 459.225,-186.952"/>
<polygon fill="midnightblue" stroke="midnightblue" points="370.175,-160.141 359.616,-161.007 368.411,-166.915 370.175,-160.141"/>
</g>
<!-- Node5 -->
<g id="node5" class="node"><title>Node5</title>
<g id="a_node5"><a xlink:href="classrepo_1_1programs_1_1pythonpackages_1_1pr_1_1SPDataSet_1_1SPDataSet.html#accbfa0185d4e416038e688fc9b55575b" target="_top" xlink:title="repo.programs.pythonpackages.pr.\lSPDataSet.SPDataSet.sequenceAmp">
<polygon fill="white" stroke="black" points="1066,-182 1066,-212 1250,-212 1250,-182 1066,-182"/>
<text text-anchor="start" x="1074" y="-200" font-family="Helvetica,sans-Serif" font-size="10.00">repo.programs.pythonpackages.pr.</text>
<text text-anchor="middle" x="1158" y="-189" font-family="Helvetica,sans-Serif" font-size="10.00">SPDataSet.SPDataSet.sequenceAmp</text>
</a>
</g>
</g>
<!-- Node2&#45;&gt;Node5 -->
<g id="edge24" class="edge"><title>Node2&#45;&gt;Node5</title>
<path fill="none" stroke="midnightblue" d="M408.217,-142.345C550.463,-138.98 810.392,-138.199 1030,-167 1054.6,-170.226 1081.39,-176.181 1103.99,-181.94"/>
<polygon fill="midnightblue" stroke="midnightblue" points="408.092,-138.847 398.181,-142.591 408.263,-145.845 408.092,-138.847"/>
</g>
<!-- Node12 -->
<g id="node12" class="node"><title>Node12</title>
<g id="a_node12"><a xlink:href="classrepo_1_1programs_1_1pythonpackages_1_1pr_1_1SPDataSet_1_1SPDataSet.html#a5ad35e931371981e41221502928547d5" target="_top" xlink:title="Check that the calculated apparatus directions fit with the available data. ">
<polygon fill="white" stroke="black" points="1292,-89 1292,-119 1484,-119 1484,-89 1292,-89"/>
<text text-anchor="start" x="1300" y="-107" font-family="Helvetica,sans-Serif" font-size="10.00">repo.programs.pythonpackages.pr.</text>
<text text-anchor="middle" x="1388" y="-96" font-family="Helvetica,sans-Serif" font-size="10.00">SPDataSet.SPDataSet.checkDirections</text>
</a>
</g>
</g>
<!-- Node2&#45;&gt;Node12 -->
<g id="edge25" class="edge"><title>Node2&#45;&gt;Node12</title>
<path fill="none" stroke="midnightblue" d="M408.424,-130.995C492.969,-120.37 614.314,-108 721,-108 721,-108 721,-108 937,-108 1059.47,-108 1200.67,-106.5 1291.75,-105.338"/>
<polygon fill="midnightblue" stroke="midnightblue" points="407.778,-127.549 398.299,-132.281 408.66,-134.493 407.778,-127.549"/>
</g>
<!-- Node13 -->
<g id="node13" class="node"><title>Node13</title>
<g id="a_node13"><a xlink:href="classrepo_1_1programs_1_1pythonpackages_1_1pr_1_1SPDataSet_1_1SPDataSet.html#a6f2c3de2aa708d686f5835f10e2d096d" target="_top" xlink:title="repo.programs.pythonpackages.pr.\lSPDataSet.SPDataSet.pointAmp">
<polygon fill="white" stroke="black" points="638.5,-262 638.5,-292 805.5,-292 805.5,-262 638.5,-262"/>
<text text-anchor="start" x="646.5" y="-280" font-family="Helvetica,sans-Serif" font-size="10.00">repo.programs.pythonpackages.pr.</text>
<text text-anchor="middle" x="722" y="-269" font-family="Helvetica,sans-Serif" font-size="10.00">SPDataSet.SPDataSet.pointAmp</text>
</a>
</g>
</g>
<!-- Node2&#45;&gt;Node13 -->
<g id="edge23" class="edge"><title>Node2&#45;&gt;Node13</title>
<path fill="none" stroke="midnightblue" d="M323.923,-168.108C348.425,-191.311 390.411,-226.764 434,-244 499.53,-269.912 579.579,-277.322 638.471,-278.733"/>
<polygon fill="midnightblue" stroke="midnightblue" points="326.229,-165.469 316.603,-161.043 321.368,-170.506 326.229,-165.469"/>
</g>
<!-- Node3&#45;&gt;Node3 -->
<g id="edge3" class="edge"><title>Node3&#45;&gt;Node3</title>
<path fill="none" stroke="midnightblue" d="M482.292,-227.598C487.172,-231.97 499.074,-235 518,-235 549.875,-235 561.828,-226.406 553.859,-217.275"/>
<polygon fill="midnightblue" stroke="midnightblue" points="485.787,-227.223 482.141,-217.275 478.788,-227.326 485.787,-227.223"/>
</g>
<!-- Node4 -->
<g id="node4" class="node"><title>Node4</title>
<g id="a_node4"><a xlink:href="classrepo_1_1programs_1_1pythonpackages_1_1pr_1_1SPDataSet_1_1SPDataSet.html#a9eac955cac12a62b72d189aa80b82ec6" target="_top" xlink:title="repo.programs.pythonpackages.pr.\lSPDataSet.SPDataSet.filteredCutAmp">
<polygon fill="white" stroke="black" points="842.5,-177 842.5,-207 1029.5,-207 1029.5,-177 842.5,-177"/>
<text text-anchor="start" x="850.5" y="-195" font-family="Helvetica,sans-Serif" font-size="10.00">repo.programs.pythonpackages.pr.</text>
<text text-anchor="middle" x="936" y="-184" font-family="Helvetica,sans-Serif" font-size="10.00">SPDataSet.SPDataSet.filteredCutAmp</text>
</a>
</g>
</g>
<!-- Node3&#45;&gt;Node4 -->
<g id="edge4" class="edge"><title>Node3&#45;&gt;Node4</title>
<path fill="none" stroke="midnightblue" d="M612.061,-199.763C680.727,-198.112 773.754,-195.876 842.328,-194.228"/>
<polygon fill="midnightblue" stroke="midnightblue" points="611.599,-196.273 601.686,-200.012 611.767,-203.271 611.599,-196.273"/>
</g>
<!-- Node3&#45;&gt;Node13 -->
<g id="edge16" class="edge"><title>Node3&#45;&gt;Node13</title>
<path fill="none" stroke="midnightblue" d="M561.5,-221.138C584.012,-230.948 612.26,-242.745 638,-252 647.63,-255.463 658,-258.849 668.038,-261.957"/>
<polygon fill="midnightblue" stroke="midnightblue" points="562.79,-217.882 552.226,-217.068 559.977,-224.292 562.79,-217.882"/>
</g>
<!-- Node15 -->
<g id="node15" class="node"><title>Node15</title>
<g id="a_node15"><a xlink:href="classrepo_1_1programs_1_1pythonpackages_1_1pr_1_1SPDataSet_1_1SPDataSet.html#a5343a59b34ffebfc31c1dfd06ddfa889" target="_top" xlink:title="repo.programs.pythonpackages.pr.\lSPDataSet.SPDataSet.viewRaw">
<polygon fill="white" stroke="black" points="638.5,-213 638.5,-243 805.5,-243 805.5,-213 638.5,-213"/>
<text text-anchor="start" x="646.5" y="-231" font-family="Helvetica,sans-Serif" font-size="10.00">repo.programs.pythonpackages.pr.</text>
<text text-anchor="middle" x="722" y="-220" font-family="Helvetica,sans-Serif" font-size="10.00">SPDataSet.SPDataSet.viewRaw</text>
</a>
</g>
</g>
<!-- Node3&#45;&gt;Node15 -->
<g id="edge22" class="edge"><title>Node3&#45;&gt;Node15</title>
<path fill="none" stroke="midnightblue" d="M611.731,-213.936C620.622,-215.08 629.6,-216.236 638.385,-217.366"/>
<polygon fill="midnightblue" stroke="midnightblue" points="612.109,-210.456 601.744,-212.65 611.215,-217.398 612.109,-210.456"/>
</g>
<!-- Node4&#45;&gt;Node5 -->
<g id="edge5" class="edge"><title>Node4&#45;&gt;Node5</title>
<path fill="none" stroke="midnightblue" d="M1039.82,-194.337C1048.51,-194.534 1057.26,-194.733 1065.85,-194.928"/>
<polygon fill="midnightblue" stroke="midnightblue" points="1039.74,-190.834 1029.66,-194.106 1039.58,-197.832 1039.74,-190.834"/>
</g>
<!-- Node5&#45;&gt;Node5 -->
<g id="edge6" class="edge"><title>Node5&#45;&gt;Node5</title>
<path fill="none" stroke="midnightblue" d="M1119.14,-222.598C1124.45,-226.97 1137.4,-230 1158,-230 1192.69,-230 1205.7,-221.406 1197.02,-212.275"/>
<polygon fill="midnightblue" stroke="midnightblue" points="1122.64,-222.218 1118.98,-212.275 1115.64,-222.33 1122.64,-222.218"/>
</g>
<!-- Node6 -->
<g id="node6" class="node"><title>Node6</title>
<g id="a_node6"><a xlink:href="classrepo_1_1programs_1_1pythonpackages_1_1pr_1_1SPDataSet_1_1SPDataSet.html#ac0df54b82a9e993d707f0dafd87a19dd" target="_top" xlink:title="repo.programs.pythonpackages.pr.\lSPDataSet.SPDataSet.labAmp">
<polygon fill="white" stroke="black" points="1304.5,-226 1304.5,-256 1471.5,-256 1471.5,-226 1304.5,-226"/>
<text text-anchor="start" x="1312.5" y="-244" font-family="Helvetica,sans-Serif" font-size="10.00">repo.programs.pythonpackages.pr.</text>
<text text-anchor="middle" x="1388" y="-233" font-family="Helvetica,sans-Serif" font-size="10.00">SPDataSet.SPDataSet.labAmp</text>
</a>
</g>
</g>
<!-- Node5&#45;&gt;Node6 -->
<g id="edge7" class="edge"><title>Node5&#45;&gt;Node6</title>
<path fill="none" stroke="midnightblue" d="M1246.8,-213.944C1267.33,-217.907 1289.07,-222.101 1309.14,-225.974"/>
<polygon fill="midnightblue" stroke="midnightblue" points="1247.31,-210.478 1236.83,-212.019 1245.98,-217.351 1247.31,-210.478"/>
</g>
<!-- Node7 -->
<g id="node7" class="node"><title>Node7</title>
<g id="a_node7"><a xlink:href="classrepo_1_1programs_1_1pythonpackages_1_1pr_1_1SPDataSet_1_1SPDataSet.html#a3624263a6738178d243635889b719a90" target="_top" xlink:title="repo.programs.pythonpackages.pr.\lSPDataSet.SPDataSet.viewSid">
<polygon fill="white" stroke="black" points="1531.5,-182 1531.5,-212 1698.5,-212 1698.5,-182 1531.5,-182"/>
<text text-anchor="start" x="1539.5" y="-200" font-family="Helvetica,sans-Serif" font-size="10.00">repo.programs.pythonpackages.pr.</text>
<text text-anchor="middle" x="1615" y="-189" font-family="Helvetica,sans-Serif" font-size="10.00">SPDataSet.SPDataSet.viewSid</text>
</a>
</g>
</g>
<!-- Node5&#45;&gt;Node7 -->
<g id="edge13" class="edge"><title>Node5&#45;&gt;Node7</title>
<path fill="none" stroke="midnightblue" d="M1260.54,-197C1342.11,-197 1455.21,-197 1531.31,-197"/>
<polygon fill="midnightblue" stroke="midnightblue" points="1260.26,-193.5 1250.26,-197 1260.26,-200.5 1260.26,-193.5"/>
</g>
<!-- Node8 -->
<g id="node8" class="node"><title>Node8</title>
<g id="a_node8"><a xlink:href="classrepo_1_1programs_1_1pythonpackages_1_1pr_1_1SPDataSet_1_1SPDataSet.html#acf495c99c803a2a1e23cdaeae34da985" target="_top" xlink:title="repo.programs.pythonpackages.pr.\lSPDataSet.SPDataSet.sidAmp">
<polygon fill="white" stroke="black" points="1304.5,-138 1304.5,-168 1471.5,-168 1471.5,-138 1304.5,-138"/>
<text text-anchor="start" x="1312.5" y="-156" font-family="Helvetica,sans-Serif" font-size="10.00">repo.programs.pythonpackages.pr.</text>
<text text-anchor="middle" x="1388" y="-145" font-family="Helvetica,sans-Serif" font-size="10.00">SPDataSet.SPDataSet.sidAmp</text>
</a>
</g>
</g>
<!-- Node5&#45;&gt;Node8 -->
<g id="edge9" class="edge"><title>Node5&#45;&gt;Node8</title>
<path fill="none" stroke="midnightblue" d="M1246.8,-180.056C1267.33,-176.093 1289.07,-171.899 1309.14,-168.026"/>
<polygon fill="midnightblue" stroke="midnightblue" points="1245.98,-176.649 1236.83,-181.981 1247.31,-183.522 1245.98,-176.649"/>
</g>
<!-- Node9 -->
<g id="node9" class="node"><title>Node9</title>
<g id="a_node9"><a xlink:href="classrepo_1_1programs_1_1pythonpackages_1_1pr_1_1SPDataSet_1_1SPDataSet.html#ac55c6ccc03634d3f670f52e89188779c" target="_top" xlink:title="repo.programs.pythonpackages.pr.\lSPDataSet.SPDataSet.viewSeq">
<polygon fill="white" stroke="black" points="1304.5,-335 1304.5,-365 1471.5,-365 1471.5,-335 1304.5,-335"/>
<text text-anchor="start" x="1312.5" y="-353" font-family="Helvetica,sans-Serif" font-size="10.00">repo.programs.pythonpackages.pr.</text>
<text text-anchor="middle" x="1388" y="-342" font-family="Helvetica,sans-Serif" font-size="10.00">SPDataSet.SPDataSet.viewSeq</text>
</a>
</g>
</g>
<!-- Node5&#45;&gt;Node9 -->
<g id="edge11" class="edge"><title>Node5&#45;&gt;Node9</title>
<path fill="none" stroke="midnightblue" d="M1178.56,-219.899C1201.84,-245.881 1242.98,-288.012 1286,-314 1300.18,-322.567 1316.71,-329.528 1332.24,-334.965"/>
<polygon fill="midnightblue" stroke="midnightblue" points="1181.18,-217.569 1171.93,-212.389 1175.93,-222.202 1181.18,-217.569"/>
</g>
<!-- Node11 -->
<g id="node11" class="node"><title>Node11</title>
<g id="a_node11"><a xlink:href="classrepo_1_1programs_1_1pythonpackages_1_1pr_1_1SPDataSet_1_1SPDataSet.html#a5aad808c592bfdbb665105df2947610f" target="_top" xlink:title="repo.programs.pythonpackages.pr.\lSPDataSet.SPDataSet.viewCorrelationFilt">
<polygon fill="white" stroke="black" points="1286.5,-275 1286.5,-305 1489.5,-305 1489.5,-275 1286.5,-275"/>
<text text-anchor="start" x="1294.5" y="-293" font-family="Helvetica,sans-Serif" font-size="10.00">repo.programs.pythonpackages.pr.</text>
<text text-anchor="middle" x="1388" y="-282" font-family="Helvetica,sans-Serif" font-size="10.00">SPDataSet.SPDataSet.viewCorrelationFilt</text>
</a>
</g>
</g>
<!-- Node5&#45;&gt;Node11 -->
<g id="edge14" class="edge"><title>Node5&#45;&gt;Node11</title>
<path fill="none" stroke="midnightblue" d="M1191.67,-217.425C1216.71,-232.342 1252.53,-252.128 1286,-265 1295.69,-268.728 1306.13,-272.043 1316.48,-274.941"/>
<polygon fill="midnightblue" stroke="midnightblue" points="1193.33,-214.339 1182.96,-212.172 1189.72,-220.333 1193.33,-214.339"/>
</g>
<!-- Node5&#45;&gt;Node12 -->
<g id="edge15" class="edge"><title>Node5&#45;&gt;Node12</title>
<path fill="none" stroke="midnightblue" d="M1191.13,-176.44C1216.15,-161.211 1252.19,-140.94 1286,-128 1294.75,-124.65 1304.12,-121.671 1313.48,-119.05"/>
<polygon fill="midnightblue" stroke="midnightblue" points="1189.11,-173.572 1182.44,-181.799 1192.79,-179.531 1189.11,-173.572"/>
</g>
<!-- Node6&#45;&gt;Node7 -->
<g id="edge8" class="edge"><title>Node6&#45;&gt;Node7</title>
<path fill="none" stroke="midnightblue" d="M1475.64,-224.056C1495.91,-220.093 1517.36,-215.899 1537.16,-212.026"/>
<polygon fill="midnightblue" stroke="midnightblue" points="1474.95,-220.627 1465.8,-225.981 1476.29,-227.496 1474.95,-220.627"/>
</g>
<!-- Node8&#45;&gt;Node7 -->
<g id="edge10" class="edge"><title>Node8&#45;&gt;Node7</title>
<path fill="none" stroke="midnightblue" d="M1475.64,-169.944C1495.91,-173.907 1517.36,-178.101 1537.16,-181.974"/>
<polygon fill="midnightblue" stroke="midnightblue" points="1476.29,-166.504 1465.8,-168.019 1474.95,-173.373 1476.29,-166.504"/>
</g>
<!-- Node10 -->
<g id="node10" class="node"><title>Node10</title>
<g id="a_node10"><a xlink:href="classrepo_1_1programs_1_1pythonpackages_1_1pr_1_1SPDataSet_1_1SPDataSet.html#a0c87af10688edd55eb0aea229e5979bb" target="_top" xlink:title="repo.programs.pythonpackages.pr.\lSPDataSet.SPDataSet.viewSensors">
<polygon fill="white" stroke="black" points="1526,-335 1526,-365 1704,-365 1704,-335 1526,-335"/>
<text text-anchor="start" x="1534" y="-353" font-family="Helvetica,sans-Serif" font-size="10.00">repo.programs.pythonpackages.pr.</text>
<text text-anchor="middle" x="1615" y="-342" font-family="Helvetica,sans-Serif" font-size="10.00">SPDataSet.SPDataSet.viewSensors</text>
</a>
</g>
</g>
<!-- Node9&#45;&gt;Node10 -->
<g id="edge12" class="edge"><title>Node9&#45;&gt;Node10</title>
<path fill="none" stroke="midnightblue" d="M1481.55,-350C1496.19,-350 1511.29,-350 1525.83,-350"/>
<polygon fill="midnightblue" stroke="midnightblue" points="1481.5,-346.5 1471.5,-350 1481.5,-353.5 1481.5,-346.5"/>
</g>
<!-- Node13&#45;&gt;Node4 -->
<g id="edge17" class="edge"><title>Node13&#45;&gt;Node4</title>
<path fill="none" stroke="midnightblue" d="M792.921,-258.219C797.43,-256.314 801.83,-254.244 806,-252 824.341,-242.131 823.756,-232.047 842,-222 852.7,-216.108 864.737,-211.157 876.514,-207.084"/>
<polygon fill="midnightblue" stroke="midnightblue" points="791.578,-254.986 783.551,-261.9 794.138,-261.502 791.578,-254.986"/>
</g>
<!-- Node13&#45;&gt;Node5 -->
<g id="edge18" class="edge"><title>Node13&#45;&gt;Node5</title>
<path fill="none" stroke="midnightblue" d="M814.567,-260.121C891.704,-245.902 1001.05,-225.747 1075.27,-212.066"/>
<polygon fill="midnightblue" stroke="midnightblue" points="813.577,-256.745 804.377,-262 814.846,-263.629 813.577,-256.745"/>
</g>
<!-- Node13&#45;&gt;Node9 -->
<g id="edge19" class="edge"><title>Node13&#45;&gt;Node9</title>
<path fill="none" stroke="midnightblue" d="M751.475,-297.747C774.587,-313.258 808.692,-333.235 842,-342 1001.23,-383.9 1195.78,-372.538 1304.08,-360.96"/>
<polygon fill="midnightblue" stroke="midnightblue" points="753.406,-294.827 743.18,-292.054 749.445,-300.598 753.406,-294.827"/>
</g>
<!-- Node13&#45;&gt;Node11 -->
<g id="edge20" class="edge"><title>Node13&#45;&gt;Node11</title>
<path fill="none" stroke="midnightblue" d="M815.982,-278.82C939.97,-281.248 1158.61,-285.528 1286.36,-288.03"/>
<polygon fill="midnightblue" stroke="midnightblue" points="815.82,-275.317 805.754,-278.62 815.683,-282.315 815.82,-275.317"/>
</g>
<!-- Node14 -->
<g id="node14" class="node"><title>Node14</title>
<g id="a_node14"><a xlink:href="classrepo_1_1programs_1_1pythonpackages_1_1pr_1_1SPDataSet_1_1SPDataSet.html#a2ffa7a6de1e0ebd8172db800621eed20" target="_top" xlink:title="repo.programs.pythonpackages.pr.\lSPDataSet.SPDataSet.test_div">
<polygon fill="white" stroke="black" points="852.5,-303 852.5,-333 1019.5,-333 1019.5,-303 852.5,-303"/>
<text text-anchor="start" x="860.5" y="-321" font-family="Helvetica,sans-Serif" font-size="10.00">repo.programs.pythonpackages.pr.</text>
<text text-anchor="middle" x="936" y="-310" font-family="Helvetica,sans-Serif" font-size="10.00">SPDataSet.SPDataSet.test_div</text>
</a>
</g>
</g>
<!-- Node13&#45;&gt;Node14 -->
<g id="edge21" class="edge"><title>Node13&#45;&gt;Node14</title>
<path fill="none" stroke="midnightblue" d="M810.78,-293.976C826.2,-296.958 842.15,-300.043 857.272,-302.968"/>
<polygon fill="midnightblue" stroke="midnightblue" points="811.22,-290.497 800.737,-292.034 809.891,-297.369 811.22,-290.497"/>
</g>
<!-- Node17 -->
<g id="node17" class="node"><title>Node17</title>
<g id="a_node17"><a xlink:href="namespacerepo_1_1programs_1_1pythonpackages_1_1pr_1_1SPDataSet.html#ab3e94a5db004f2a1cbe3b89005731d7c" target="_top" xlink:title="repo.programs.pythonpackages.pr.\lSPDataSet.testDS">
<polygon fill="white" stroke="black" points="434.5,-49 434.5,-79 601.5,-79 601.5,-49 434.5,-49"/>
<text text-anchor="start" x="442.5" y="-67" font-family="Helvetica,sans-Serif" font-size="10.00">repo.programs.pythonpackages.pr.</text>
<text text-anchor="middle" x="518" y="-56" font-family="Helvetica,sans-Serif" font-size="10.00">SPDataSet.testDS</text>
</a>
</g>
</g>
<!-- Node16&#45;&gt;Node17 -->
<g id="edge27" class="edge"><title>Node16&#45;&gt;Node17</title>
<path fill="none" stroke="midnightblue" d="M394.555,-64C407.789,-64 421.33,-64 434.356,-64"/>
<polygon fill="midnightblue" stroke="midnightblue" points="394.51,-60.5001 384.51,-64 394.51,-67.5001 394.51,-60.5001"/>
</g>
<!-- Node18 -->
<g id="node18" class="node"><title>Node18</title>
<g id="a_node18"><a xlink:href="namespacerepo_1_1programs_1_1pythonpackages_1_1pr_1_1SPDataSet.html#ae343b1ec862928d74ae9f6e140008b0d" target="_top" xlink:title="repo.programs.pythonpackages.pr.\lSPDataSet.testDS2">
<polygon fill="white" stroke="black" points="434.5,-0 434.5,-30 601.5,-30 601.5,-0 434.5,-0"/>
<text text-anchor="start" x="442.5" y="-18" font-family="Helvetica,sans-Serif" font-size="10.00">repo.programs.pythonpackages.pr.</text>
<text text-anchor="middle" x="518" y="-7" font-family="Helvetica,sans-Serif" font-size="10.00">SPDataSet.testDS2</text>
</a>
</g>
</g>
<!-- Node16&#45;&gt;Node18 -->
<g id="edge28" class="edge"><title>Node16&#45;&gt;Node18</title>
<path fill="none" stroke="midnightblue" d="M377.724,-46.7419C401.681,-41.282 427.951,-35.295 451.157,-30.0062"/>
<polygon fill="midnightblue" stroke="midnightblue" points="376.94,-43.3307 367.968,-48.9654 378.496,-50.1557 376.94,-43.3307"/>
</g>
</g>
</svg>
