<?xml version="1.0" encoding="UTF-8" standalone="no"?>
<!DOCTYPE svg PUBLIC "-//W3C//DTD SVG 1.1//EN"
 "http://www.w3.org/Graphics/SVG/1.1/DTD/svg11.dtd">
<!-- Generated by graphviz version 2.36.0 (20140111.2315)
 -->
<!-- Title: repo.programs.pythonpackages.pr.SPfuncs.rotate_sequence_amps Pages: 1 -->
<svg width="380pt" height="98pt"
 viewBox="0.00 0.00 380.00 98.00" xmlns="http://www.w3.org/2000/svg" xmlns:xlink="http://www.w3.org/1999/xlink">
<g id="graph0" class="graph" transform="scale(1 1) rotate(0) translate(4 94)">
<title>repo.programs.pythonpackages.pr.SPfuncs.rotate_sequence_amps</title>
<polygon fill="white" stroke="none" points="-4,4 -4,-94 376,-94 376,4 -4,4"/>
<!-- Node1 -->
<g id="node1" class="node"><title>Node1</title>
<polygon fill="#bfbfbf" stroke="black" points="0.5,-27 0.5,-57 167.5,-57 167.5,-27 0.5,-27"/>
<text text-anchor="start" x="8.5" y="-45" font-family="Helvetica,sans-Serif" font-size="10.00">repo.programs.pythonpackages.pr.</text>
<text text-anchor="middle" x="84" y="-34" font-family="Helvetica,sans-Serif" font-size="10.00">SPfuncs.rotate_sequence_amps</text>
</g>
<!-- Node2 -->
<g id="node2" class="node"><title>Node2</title>
<g id="a_node2"><a xlink:href="namespacerepo_1_1programs_1_1pythonpackages_1_1pr_1_1SPfuncs.html#aa986fff9d1f1b5354e43e972289e5844" target="_top" xlink:title="repo.programs.pythonpackages.pr.\lSPfuncs.process_sequences\l_multifit">
<polygon fill="white" stroke="black" points="204.5,-48.5 204.5,-89.5 371.5,-89.5 371.5,-48.5 204.5,-48.5"/>
<text text-anchor="start" x="212.5" y="-77.5" font-family="Helvetica,sans-Serif" font-size="10.00">repo.programs.pythonpackages.pr.</text>
<text text-anchor="start" x="212.5" y="-66.5" font-family="Helvetica,sans-Serif" font-size="10.00">SPfuncs.process_sequences</text>
<text text-anchor="middle" x="288" y="-55.5" font-family="Helvetica,sans-Serif" font-size="10.00">_multifit</text>
</a>
</g>
</g>
<!-- Node1&#45;&gt;Node2 -->
<g id="edge1" class="edge"><title>Node1&#45;&gt;Node2</title>
<path fill="none" stroke="midnightblue" d="M177.731,-54.3947C186.622,-55.5832 195.6,-56.7831 204.385,-57.9574"/>
<polygon fill="midnightblue" stroke="midnightblue" points="178.12,-50.9156 167.744,-53.0598 177.192,-57.8539 178.12,-50.9156"/>
</g>
<!-- Node3 -->
<g id="node3" class="node"><title>Node3</title>
<g id="a_node3"><a xlink:href="namespacerepo_1_1programs_1_1pythonpackages_1_1pr_1_1SPfuncs.html#a45a8e352a69cc8a225a32134c87cd120" target="_top" xlink:title="repo.programs.pythonpackages.pr.\lSPfuncs.view_correlations">
<polygon fill="white" stroke="black" points="204.5,-0 204.5,-30 371.5,-30 371.5,-0 204.5,-0"/>
<text text-anchor="start" x="212.5" y="-18" font-family="Helvetica,sans-Serif" font-size="10.00">repo.programs.pythonpackages.pr.</text>
<text text-anchor="middle" x="288" y="-7" font-family="Helvetica,sans-Serif" font-size="10.00">SPfuncs.view_correlations</text>
</a>
</g>
</g>
<!-- Node1&#45;&gt;Node3 -->
<g id="edge2" class="edge"><title>Node1&#45;&gt;Node3</title>
<path fill="none" stroke="midnightblue" d="M177.731,-29.6053C186.622,-28.4168 195.6,-27.2169 204.385,-26.0426"/>
<polygon fill="midnightblue" stroke="midnightblue" points="177.192,-26.1461 167.744,-30.9402 178.12,-33.0844 177.192,-26.1461"/>
</g>
</g>
</svg>
