<?xml version="1.0" encoding="UTF-8" standalone="no"?>
<!DOCTYPE svg PUBLIC "-//W3C//DTD SVG 1.1//EN"
 "http://www.w3.org/Graphics/SVG/1.1/DTD/svg11.dtd">
<!-- Generated by graphviz version 2.36.0 (20140111.2315)
 -->
<!-- Title: repo.programs.pythonpackages.pr.SPfuncs.sd2secs Pages: 1 -->
<svg width="584pt" height="136pt"
 viewBox="0.00 0.00 584.00 136.00" xmlns="http://www.w3.org/2000/svg" xmlns:xlink="http://www.w3.org/1999/xlink">
<g id="graph0" class="graph" transform="scale(1 1) rotate(0) translate(4 132)">
<title>repo.programs.pythonpackages.pr.SPfuncs.sd2secs</title>
<polygon fill="white" stroke="none" points="-4,4 -4,-132 580,-132 580,4 -4,4"/>
<!-- Node1 -->
<g id="node1" class="node"><title>Node1</title>
<polygon fill="#bfbfbf" stroke="black" points="0.5,-49 0.5,-79 167.5,-79 167.5,-49 0.5,-49"/>
<text text-anchor="start" x="8.5" y="-67" font-family="Helvetica,sans-Serif" font-size="10.00">repo.programs.pythonpackages.pr.</text>
<text text-anchor="middle" x="84" y="-56" font-family="Helvetica,sans-Serif" font-size="10.00">SPfuncs.sd2secs</text>
</g>
<!-- Node2 -->
<g id="node2" class="node"><title>Node2</title>
<g id="a_node2"><a xlink:href="namespacerepo_1_1programs_1_1pythonpackages_1_1pr_1_1SPfuncs.html#a9cc828a26b8f8d72c9c5c86bd951f8e8" target="_top" xlink:title="Add fake signal/noise to an existing signal. ">
<polygon fill="white" stroke="black" points="204.5,-98 204.5,-128 371.5,-128 371.5,-98 204.5,-98"/>
<text text-anchor="start" x="212.5" y="-116" font-family="Helvetica,sans-Serif" font-size="10.00">repo.programs.pythonpackages.pr.</text>
<text text-anchor="middle" x="288" y="-105" font-family="Helvetica,sans-Serif" font-size="10.00">SPfuncs.addFakeData</text>
</a>
</g>
</g>
<!-- Node1&#45;&gt;Node2 -->
<g id="edge1" class="edge"><title>Node1&#45;&gt;Node2</title>
<path fill="none" stroke="midnightblue" d="M156.746,-81.4038C179.092,-86.8243 203.529,-92.752 225.138,-97.9938"/>
<polygon fill="midnightblue" stroke="midnightblue" points="157.523,-77.9907 146.979,-79.0346 155.872,-84.7934 157.523,-77.9907"/>
</g>
<!-- Node3 -->
<g id="node3" class="node"><title>Node3</title>
<g id="a_node3"><a xlink:href="namespacerepo_1_1programs_1_1pythonpackages_1_1pr_1_1SPfuncs.html#ae90ba18ae292290722e197cf242d8721" target="_top" xlink:title="Make up some data that the experiment might have measured. ">
<polygon fill="white" stroke="black" points="204.5,-49 204.5,-79 371.5,-79 371.5,-49 204.5,-49"/>
<text text-anchor="start" x="212.5" y="-67" font-family="Helvetica,sans-Serif" font-size="10.00">repo.programs.pythonpackages.pr.</text>
<text text-anchor="middle" x="288" y="-56" font-family="Helvetica,sans-Serif" font-size="10.00">SPfuncs.makeTestData</text>
</a>
</g>
</g>
<!-- Node1&#45;&gt;Node3 -->
<g id="edge2" class="edge"><title>Node1&#45;&gt;Node3</title>
<path fill="none" stroke="midnightblue" d="M178.018,-64C186.815,-64 195.694,-64 204.385,-64"/>
<polygon fill="midnightblue" stroke="midnightblue" points="177.744,-60.5001 167.744,-64 177.744,-67.5001 177.744,-60.5001"/>
</g>
<!-- Node6 -->
<g id="node6" class="node"><title>Node6</title>
<g id="a_node6"><a xlink:href="namespacerepo_1_1programs_1_1pythonpackages_1_1pr_1_1SPfuncs.html#a9ae89d50fa931a7cc863400505be38b1" target="_top" xlink:title="repo.programs.pythonpackages.pr.\lSPfuncs.process_continuous_raw">
<polygon fill="white" stroke="black" points="204.5,-0 204.5,-30 371.5,-30 371.5,-0 204.5,-0"/>
<text text-anchor="start" x="212.5" y="-18" font-family="Helvetica,sans-Serif" font-size="10.00">repo.programs.pythonpackages.pr.</text>
<text text-anchor="middle" x="288" y="-7" font-family="Helvetica,sans-Serif" font-size="10.00">SPfuncs.process_continuous_raw</text>
</a>
</g>
</g>
<!-- Node1&#45;&gt;Node6 -->
<g id="edge5" class="edge"><title>Node1&#45;&gt;Node6</title>
<path fill="none" stroke="midnightblue" d="M156.746,-46.5962C179.092,-41.1757 203.529,-35.248 225.138,-30.0062"/>
<polygon fill="midnightblue" stroke="midnightblue" points="155.872,-43.2066 146.979,-48.9654 157.523,-50.0093 155.872,-43.2066"/>
</g>
<!-- Node4 -->
<g id="node4" class="node"><title>Node4</title>
<g id="a_node4"><a xlink:href="namespacerepo_1_1programs_1_1pythonpackages_1_1pr_1_1SPDataSet.html#ab3e94a5db004f2a1cbe3b89005731d7c" target="_top" xlink:title="repo.programs.pythonpackages.pr.\lSPDataSet.testDS">
<polygon fill="white" stroke="black" points="408.5,-73 408.5,-103 575.5,-103 575.5,-73 408.5,-73"/>
<text text-anchor="start" x="416.5" y="-91" font-family="Helvetica,sans-Serif" font-size="10.00">repo.programs.pythonpackages.pr.</text>
<text text-anchor="middle" x="492" y="-80" font-family="Helvetica,sans-Serif" font-size="10.00">SPDataSet.testDS</text>
</a>
</g>
</g>
<!-- Node3&#45;&gt;Node4 -->
<g id="edge3" class="edge"><title>Node3&#45;&gt;Node4</title>
<path fill="none" stroke="midnightblue" d="M381.731,-75.0176C390.622,-76.0739 399.6,-77.1405 408.385,-78.1843"/>
<polygon fill="midnightblue" stroke="midnightblue" points="382.087,-71.5353 371.744,-73.831 381.261,-78.4864 382.087,-71.5353"/>
</g>
<!-- Node5 -->
<g id="node5" class="node"><title>Node5</title>
<g id="a_node5"><a xlink:href="namespacerepo_1_1programs_1_1pythonpackages_1_1pr_1_1SPDataSet.html#ae343b1ec862928d74ae9f6e140008b0d" target="_top" xlink:title="repo.programs.pythonpackages.pr.\lSPDataSet.testDS2">
<polygon fill="white" stroke="black" points="408.5,-24 408.5,-54 575.5,-54 575.5,-24 408.5,-24"/>
<text text-anchor="start" x="416.5" y="-42" font-family="Helvetica,sans-Serif" font-size="10.00">repo.programs.pythonpackages.pr.</text>
<text text-anchor="middle" x="492" y="-31" font-family="Helvetica,sans-Serif" font-size="10.00">SPDataSet.testDS2</text>
</a>
</g>
</g>
<!-- Node3&#45;&gt;Node5 -->
<g id="edge4" class="edge"><title>Node3&#45;&gt;Node5</title>
<path fill="none" stroke="midnightblue" d="M381.731,-52.5234C390.622,-51.423 399.6,-50.3119 408.385,-49.2247"/>
<polygon fill="midnightblue" stroke="midnightblue" points="381.238,-49.0576 371.744,-53.7594 382.098,-56.0046 381.238,-49.0576"/>
</g>
</g>
</svg>
